<svg width="72" height="79" viewBox="0 0 72 79" fill="none" xmlns="http://www.w3.org/2000/svg">
<path d="M61.5672 32.5199C61.5666 26.9896 60.5262 21.5092 58.5007 16.3667L58.4174 16.0654C56.8183 12.9555 54.6402 10.1825 52.001 7.89674C46.6038 3.42061 39.8181 0.98098 32.8187 1.00024C26.0292 0.972206 19.4609 3.42312 14.3364 7.89674C13.9864 8.21478 13.6365 8.53282 13.3031 8.85087C12.9698 9.16891 12.2532 9.87195 11.7699 10.3909C9.50578 12.8886 7.8612 15.8882 6.97015 19.1454C6.42169 21.1404 6.15246 23.2023 6.17019 25.2719V32.9384C6.18262 33.7213 6.07008 34.5012 5.83688 35.2484C4.51999 39.1835 2.96723 43.0349 1.18713 46.7816C1.0261 47.1287 0.967213 47.5148 1.01741 47.8945C1.06761 48.2741 1.22479 48.6314 1.47045 48.9242C1.67783 49.1596 1.93534 49.345 2.22386 49.4668C2.51238 49.5885 2.8245 49.6433 3.13702 49.6273H4.8036C5.09773 49.7394 5.35093 49.9388 5.52954 50.1989C5.70815 50.459 5.80372 50.7676 5.80355 51.0836V52.1046C5.79387 53.1917 6.17899 54.245 6.88682 55.0675C7.31535 55.5545 7.5627 56.1756 7.58678 56.8251C7.58678 56.9088 7.58678 62.5331 7.58678 67.9566C7.58678 70.6202 8.64029 73.1748 10.5156 75.0583C12.3908 76.9419 14.9342 78 17.5862 78H37.3518M31.0022 37.8262L24.3359 31.1306V24.9873C24.3359 23.984 23.939 23.0218 23.2327 22.3123C22.5264 21.6029 21.5683 21.2043 20.5694 21.2043H7.2368M39.3351 39.5001L69.0001 62.2318M68.6501 47.1666L39.3351 70.4674M3.08703 49.644H16.003L20.3028 58.2311C20.5914 58.8085 21.0025 59.3154 21.5072 59.7159C22.012 60.1164 22.598 60.4009 23.224 60.5493C23.8501 60.6977 24.5009 60.7065 25.1307 60.5749C25.7605 60.4434 26.3539 60.1747 26.8691 59.7879L29.3356 57.9131V54.5653M51.2677 78V76.075C51.2677 72.8444 51.4344 69.5468 51.7677 66.2826L51.2677 78ZM66.0003 61.2609C65.0114 61.2609 64.0448 61.5554 63.2226 62.1072C62.4004 62.659 61.7595 63.4433 61.3811 64.3609C61.0027 65.2785 60.9037 66.2882 61.0966 67.2623C61.2895 68.2365 61.7657 69.1312 62.4649 69.8335C63.1642 70.5358 64.055 71.0141 65.0249 71.2079C65.9947 71.4016 67 71.3022 67.9136 70.9221C68.8272 70.542 69.608 69.8984 70.1574 69.0726C70.7068 68.2467 71 67.2758 71 66.2826C71 64.9508 70.4732 63.6735 69.5356 62.7318C68.598 61.79 67.3263 61.2609 66.0003 61.2609ZM66.0003 37.8262C65.0114 37.8262 64.0448 38.1207 63.2226 38.6725C62.4004 39.2243 61.7595 40.0086 61.3811 40.9262C61.0027 41.8438 60.9037 42.8535 61.0966 43.8276C61.2895 44.8017 61.7657 45.6965 62.4649 46.3988C63.1642 47.1011 64.055 47.5794 65.0249 47.7732C65.9947 47.9669 67 47.8675 67.9136 47.4874C68.8272 47.1073 69.608 46.4637 70.1574 45.6379C70.7068 44.812 71 43.8411 71 42.8479C71 41.5161 70.4732 40.2388 69.5356 39.297C68.598 38.3553 67.3263 37.8262 66.0003 37.8262ZM37.6685 54.5653C37.6685 54.1213 37.4929 53.6956 37.1804 53.3817C36.8678 53.0677 36.4439 52.8914 36.0019 52.8914C35.5599 52.8914 35.136 53.0677 34.8235 53.3817C34.5109 53.6956 34.3353 54.1213 34.3353 54.5653C34.3353 55.0092 34.5109 55.435 34.8235 55.7489C35.136 56.0628 35.5599 56.2392 36.0019 56.2392C36.4439 56.2392 36.8678 56.0628 37.1804 55.7489C37.4929 55.435 37.6685 55.0092 37.6685 54.5653ZM44.3348 54.5653C44.3348 54.1213 44.1592 53.6956 43.8467 53.3817C43.5341 53.0677 43.1102 52.8914 42.6682 52.8914C42.2262 52.8914 41.8023 53.0677 41.4898 53.3817C41.1772 53.6956 41.0016 54.1213 41.0016 54.5653C41.0016 55.0092 41.1772 55.435 41.4898 55.7489C41.8023 56.0628 42.2262 56.2392 42.6682 56.2392C43.1102 56.2392 43.5341 56.0628 43.8467 55.7489C44.1592 55.435 44.3348 55.0092 44.3348 54.5653ZM51.0011 54.5653C51.0011 54.1213 50.8255 53.6956 50.513 53.3817C50.2004 53.0677 49.7765 52.8914 49.3345 52.8914C48.8925 52.8914 48.4686 53.0677 48.1561 53.3817C47.8435 53.6956 47.6679 54.1213 47.6679 54.5653C47.6679 55.0092 47.8435 55.435 48.1561 55.7489C48.4686 56.0628 48.8925 56.2392 49.3345 56.2392C49.7765 56.2392 50.2004 56.0628 50.513 55.7489C50.8255 55.435 51.0011 55.0092 51.0011 54.5653Z" stroke="#C28566" stroke-width="1.5" stroke-miterlimit="10" stroke-linecap="round"/>
</svg>
