<svg width="80" height="80" viewBox="0 0 80 80" fill="none" xmlns="http://www.w3.org/2000/svg">
<path d="M59.5122 79C59.5122 79 52.6992 72.0648 52.0975 71.7426L49.9837 70.6404C48.9386 70.0958 48.0595 69.2585 47.445 68.2222C46.8304 67.186 46.5046 65.9919 46.504 64.7735C46.4647 63.9252 46.5882 63.0772 46.8674 62.2793C47.1467 61.4815 47.5759 60.7498 48.1301 60.1274V58.6522L29.3496 38.1178C27.7916 36.417 26.5166 34.4571 25.5772 32.3187C24.7904 30.511 24.2433 28.6 23.9512 26.6383M7.31705 17.8039L2.6016 23.0435M67.6423 75.6087H66.0162L62.439 71.8783C61.5105 70.9095 60.7742 69.7594 60.272 68.4938C59.7698 67.2282 59.5116 65.8719 59.5122 64.5022C59.5117 62.8834 59.1499 61.2869 58.4553 59.8391L33.3658 7.49435C32.4269 5.54096 30.9849 3.89878 29.2015 2.75176C27.4181 1.60473 25.3636 0.998163 23.2683 1C21.4118 1.00117 19.5843 1.47996 17.9477 2.39392C16.3111 3.30789 14.916 4.6288 13.8862 6.23957M25.3658 33.2174L16.2439 50.3943M77.3984 75.6087H75.7723L72.1951 71.8783C71.2667 70.9095 70.5303 69.7594 70.0281 68.4938C69.5259 67.2282 69.2677 65.8719 69.2683 64.5022C69.2678 62.8834 68.906 61.2869 68.2114 59.8391L43.1219 7.49435C42.183 5.54096 40.741 3.89878 38.9576 2.75176C37.1741 1.60473 35.1197 0.998163 33.0244 1M31.252 40.1865L23.9512 52.9209M21.4471 19.1096L15.7561 27.3674M23.7398 58.6522V51.8696C13.6748 51.8696 9.10567 48.3087 2.6016 41.6957M0.975586 79H79.0244M28.6179 62.0435V58.6522H2.6016V62.0435C2.6016 65.6412 3.9721 69.0916 6.4116 71.6355C8.85109 74.1795 12.1598 75.6087 15.6097 75.6087C19.0597 75.6087 22.3684 74.1795 24.8079 71.6355C27.2474 69.0916 28.6179 65.6412 28.6179 62.0435ZM3.56095 2.03435C3.25859 2.34931 3.01872 2.72333 2.85507 3.13503C2.69141 3.54673 2.60717 3.98803 2.60717 4.4337C2.60717 4.87937 2.69141 5.32067 2.85507 5.73237C3.01872 6.14406 3.25859 6.51809 3.56095 6.83305L16.2114 20.0252C16.5134 20.3405 16.872 20.5907 17.2668 20.7613C17.6616 20.932 18.0848 21.0198 18.5122 21.0198C18.9395 21.0198 19.3627 20.932 19.7575 20.7613C20.1523 20.5907 20.511 20.3405 20.813 20.0252C21.1153 19.7103 21.3552 19.3362 21.5189 18.9245C21.6825 18.5128 21.7668 18.0715 21.7668 17.6259C21.7668 17.1802 21.6825 16.7389 21.5189 16.3272C21.3552 15.9155 21.1153 15.5415 20.813 15.2265L8.14632 2.03435C7.53701 1.40272 6.71278 1.04819 5.85364 1.04819C4.99449 1.04819 4.17026 1.40272 3.56095 2.03435ZM13.7723 32.2C13.8569 32.0765 13.9173 31.9368 13.95 31.7889C13.9828 31.6411 13.9872 31.4879 13.963 31.3382C13.9388 31.1886 13.8865 31.0454 13.8092 30.9168C13.7318 30.7883 13.6309 30.6769 13.5122 30.5891C13.3938 30.5009 13.2598 30.4379 13.118 30.4038C12.9762 30.3697 12.8293 30.3651 12.6858 30.3903C12.5423 30.4155 12.405 30.47 12.2817 30.5507C12.1584 30.6314 12.0516 30.7366 11.9675 30.8604C11.8829 30.9839 11.8225 31.1236 11.7898 31.2715C11.757 31.4194 11.7526 31.5725 11.7768 31.7222C11.801 31.8719 11.8532 32.0151 11.9306 32.1436C12.008 32.2722 12.1089 32.3835 12.2276 32.4713C12.346 32.5595 12.48 32.6225 12.6218 32.6566C12.7636 32.6907 12.9105 32.6953 13.054 32.6701C13.1975 32.6449 13.3348 32.5904 13.4581 32.5097C13.5814 32.4291 13.6882 32.3238 13.7723 32.2Z" stroke="#C28566" stroke-width="1.5" stroke-miterlimit="10" stroke-linecap="round"/>
</svg>
