<svg width="80" height="80" viewBox="0 0 80 80" fill="none" xmlns="http://www.w3.org/2000/svg">
<path d="M11.9583 61.2775V78.2988M13.6667 44.2563V78.2988H6.83333V44.2563M13.6667 44.2563L17.0833 32.3414V30.6392H3.41667V32.3414L6.83333 44.2563M13.6667 44.2563H6.83333M0 78.2988H80M70.0417 42.5541H76.875M70.0417 49.3626H76.875M73.4583 49.3626V64.6818M42.405 24.0883L44.1433 22.9967C46.1011 21.5587 47.4084 19.4073 47.7797 17.0123C48.151 14.6173 47.5561 12.1732 46.125 10.2137M49.1146 23.9243C50.2741 23.5442 51.3462 22.9382 52.2685 22.1415C53.1908 21.3449 53.9449 20.3734 54.487 19.2837C55.029 18.194 55.3482 17.0078 55.426 15.794C55.5038 14.5803 55.3386 13.3633 54.94 12.2137M55.1621 25.3201L55.7942 25.1158C56.9457 24.7435 58.0122 24.1486 58.9327 23.3651C59.8532 22.5816 60.6096 21.625 61.1586 20.5499C61.7076 19.4748 62.0385 18.3025 62.1322 17.0999C62.226 15.8972 62.0808 14.688 61.705 13.5414M59.5 27.9041L59.9614 28.2818C61.1735 28.2863 61.5044 28.0523 62.6255 27.5932C63.7466 27.1342 64.7657 26.4591 65.6243 25.6067C66.483 24.7543 67.1643 23.7414 67.6292 22.6261C68.094 21.5108 68.3333 20.315 68.3333 19.1073M75.1667 8.51158C62.2346 0.000938892 37.9933 -0.935231 23.9167 8.03498M52.9583 54.469C50.5932 54.469 48.2812 55.1678 46.3146 56.477C44.3481 57.7863 42.8154 59.6471 41.9103 61.8243C41.0052 64.0014 40.7684 66.3971 41.2298 68.7084C41.6912 71.0197 42.8301 73.1427 44.5025 74.809C46.1749 76.4753 48.3057 77.6101 50.6254 78.0699C52.9451 78.5296 55.3495 78.2936 57.5346 77.3918C59.7197 76.49 61.5873 74.9629 62.9013 73.0035C64.2153 71.0441 64.9167 68.7405 64.9167 66.3839C64.9167 63.2239 63.6568 60.1933 61.4142 57.9588C59.1715 55.7243 56.1299 54.469 52.9583 54.469ZM76.875 64.6818H70.0417V78.2988H76.875V64.6818ZM46.125 23.8307C36.5925 23.8307 28.8538 28.7839 28.8538 34.8946C28.8538 41.0052 36.5412 45.9584 46.125 45.9584C55.7088 45.9584 63.3963 41.0052 63.3963 34.8946C63.3963 28.7839 55.6233 23.8307 46.125 23.8307ZM46.125 30.1414C45.1363 30.1615 44.1755 30.472 43.3631 31.0339C42.5508 31.5959 41.923 32.3843 41.5585 33.3003C41.1941 34.2163 41.1091 35.2191 41.3143 36.183C41.5195 37.1469 42.0058 38.029 42.7121 38.7187C43.4184 39.4084 44.3134 39.8749 45.2847 40.0599C46.2561 40.2448 47.2607 40.14 48.1725 39.7584C49.0842 39.3768 49.8627 38.7355 50.4102 37.9149C50.9576 37.0943 51.2498 36.131 51.25 35.1456C51.2232 33.8091 50.6714 32.5364 49.7132 31.6007C48.7549 30.665 47.4667 30.1411 46.125 30.1414Z" stroke="#C28566" stroke-width="1.5" stroke-miterlimit="10"/>
</svg>
