<svg width="42" height="42" viewBox="0 0 42 42" fill="none" xmlns="http://www.w3.org/2000/svg">
<path d="M5.34769 21H3.60862M20.9993 3.6087V5.34783M38.39 21H36.651M40.9378 22.6C40.9784 22.0725 40.9987 21.5391 40.9987 21C40.9987 17.0444 39.8257 13.1776 37.6282 9.8886C35.4306 6.59962 32.3071 4.03617 28.6527 2.52242C24.9983 1.00867 20.9771 0.612599 17.0977 1.3843C13.2182 2.15601 9.65463 4.06082 6.85768 6.85787C4.06072 9.65492 2.15597 13.2186 1.38429 17.0982C0.612612 20.9778 1.00867 24.9991 2.52237 28.6537C4.03607 32.3082 6.59943 35.4318 9.8883 37.6294C13.1772 39.827 17.0438 41 20.9993 41C21.579 41 22.1587 40.9739 22.7384 40.9217M20.9993 8.82609V21H29.6947M20.9993 36.6522V38.3913M32.425 33.2957H34.1641M40.6769 40.6783C39.5688 41.0463 38.3801 41.0989 37.2438 40.8302C36.1075 40.5615 35.0683 39.982 34.2424 39.1565L33.2946 38.2174L32.3555 39.1565C31.5296 39.982 30.4904 40.5615 29.354 40.8302C28.2177 41.0989 27.029 41.0463 25.9209 40.6783C25.5511 39.5689 25.4976 38.3784 25.7664 37.2403C26.0351 36.1022 26.6156 35.0615 27.4426 34.2348L28.3817 33.2957L27.4426 32.3565C26.6172 31.5306 26.0377 30.4914 25.769 29.355C25.5003 28.2186 25.5529 27.0299 25.9209 25.9217C27.029 25.5537 28.2177 25.5011 29.354 25.7698C30.4904 26.0385 31.5296 26.618 32.3555 27.4435L33.2946 28.3826L34.2337 27.4435C35.0596 26.618 36.0988 26.0385 37.2351 25.7698C38.3714 25.5011 39.5601 25.5537 40.6682 25.9217C41.0363 27.0299 41.0889 28.2186 40.8202 29.355C40.5514 30.4914 39.972 31.5306 39.1465 32.3565L38.2161 33.2957L39.1552 34.2348C39.9823 35.0615 40.5627 36.1022 40.8315 37.2403C41.1002 38.3784 41.0467 39.5689 40.6769 40.6783Z" stroke="#C28566" stroke-width="1.5" stroke-linejoin="round"/>
</svg>
