<svg width="64" height="64" viewBox="0 0 64 64" fill="none" xmlns="http://www.w3.org/2000/svg">
<path d="M7.73892 32H5.04335M31.999 5.04349V7.73914M58.9546 32H56.259M62.9036 34.48C62.9665 33.6623 62.9979 32.8357 62.9979 32C62.9979 25.8688 61.1799 19.8753 57.7736 14.7773C54.3674 9.67941 49.5261 5.70606 43.8617 3.35975C38.1974 1.01343 31.9646 0.399529 25.9514 1.59567C19.9382 2.79181 14.4147 5.74428 10.0794 10.0797C5.74412 14.4151 2.79175 19.9388 1.59565 25.9522C0.399549 31.9656 1.01343 38.1987 3.35967 43.8632C5.70591 49.5277 9.67912 54.3692 14.7769 57.7756C19.8746 61.1819 25.8679 63 31.999 63C32.8975 63 33.796 62.9596 34.6945 62.8787M31.999 13.1304V32H45.4768M31.999 56.2609V58.9565M49.7088 51.0583H52.4044M62.4992 62.5013C60.7816 63.0718 58.9392 63.1533 57.1779 62.7368C55.4166 62.3203 53.8058 61.4221 52.5257 60.1426L51.0566 58.687L49.601 60.1426C48.3208 61.4221 46.7101 62.3203 44.9488 62.7368C43.1875 63.1533 41.345 63.0718 39.6274 62.5013C39.0542 60.7818 38.9713 58.9366 39.3879 57.1725C39.8045 55.4085 40.7041 53.7953 41.986 52.5139L43.4416 51.0583L41.986 49.6026C40.7066 48.3224 39.8084 46.7116 39.3919 44.9502C38.9754 43.1889 39.0569 41.3464 39.6274 39.6287C41.345 39.0582 43.1875 38.9767 44.9488 39.3932C46.7101 39.8097 48.3208 40.7079 49.601 41.9874L51.0566 43.443L52.5122 41.9874C53.7923 40.7079 55.4031 39.8097 57.1644 39.3932C58.9257 38.9767 60.7681 39.0582 62.4858 39.6287C63.0562 41.3464 63.1378 43.1889 62.7212 44.9502C62.3047 46.7116 61.4065 48.3224 60.1271 49.6026L58.685 51.0583L60.1406 52.5139C61.4225 53.7953 62.3222 55.4085 62.7388 57.1725C63.1553 58.9366 63.0724 60.7818 62.4992 62.5013Z" stroke="#C28566" stroke-width="1.5" stroke-linejoin="round"/>
</svg>
