<svg width="34" height="34" viewBox="0 0 34 34" fill="none" xmlns="http://www.w3.org/2000/svg">
<path d="M4.4783 17.0078H3.08699M17 3.09477V4.48607M30.9131 17.0078H29.5218M17 24.66V7.26868M9.34786 17.0078H26.0435M17 29.5295V30.9209M17 1.00781C13.8355 1.00781 10.7421 1.9462 8.11091 3.7043C5.47973 5.4624 3.42897 7.96126 2.21797 10.8849C1.00696 13.8085 0.69011 17.0256 1.30747 20.1293C1.92484 23.233 3.44869 26.0839 5.68633 28.3215C7.92397 30.5592 10.7749 32.083 13.8786 32.7004C16.9823 33.3177 20.1993 33.0009 23.123 31.7899C26.0466 30.5789 28.5454 28.5281 30.3035 25.8969C32.0616 23.2657 33 20.1723 33 17.0078C33 12.7643 31.3143 8.69468 28.3137 5.6941C25.3132 2.69352 21.2435 1.00781 17 1.00781ZM17.6122 23.1852C17.3201 23.477 17.1211 23.8488 17.0403 24.2537C16.9596 24.6586 17.0008 25.0784 17.1586 25.4599C17.3165 25.8414 17.584 26.1674 17.9273 26.3969C18.2705 26.6263 18.6741 26.7488 19.087 26.7488C19.4999 26.7488 19.9035 26.6263 20.2467 26.3969C20.59 26.1674 20.8575 25.8414 21.0153 25.4599C21.1732 25.0784 21.2144 24.6586 21.1337 24.2537C21.0529 23.8488 20.8539 23.477 20.5618 23.1852C20.1705 22.7944 19.64 22.5749 19.087 22.5749C18.5339 22.5749 18.0035 22.7944 17.6122 23.1852ZM10.8226 13.4461C10.5309 13.1539 10.159 12.9549 9.75413 12.8742C9.34922 12.7935 8.92947 12.8346 8.54798 12.9925C8.16649 13.1504 7.8404 13.4179 7.61097 13.7611C7.38153 14.1044 7.25907 14.508 7.25907 14.9209C7.25907 15.3337 7.38153 15.7373 7.61097 16.0806C7.8404 16.4238 8.16649 16.6913 8.54798 16.8492C8.92947 17.0071 9.34922 17.0483 9.75413 16.9675C10.159 16.8868 10.5309 16.6878 10.8226 16.3956C11.2135 16.0043 11.433 15.4739 11.433 14.9209C11.433 14.3678 11.2135 13.8374 10.8226 13.4461Z" stroke="#3D3D3D" stroke-width="1.5" stroke-linejoin="round"/>
</svg>
