<svg width="18" height="18" viewBox="0 0 18 18" fill="none" xmlns="http://www.w3.org/2000/svg">
<path d="M2.73913 9H2.04348M9 2.04348V2.73913M15.9565 9H15.2609M9 12.8261V4.13043M5.17392 9H13.5217M9 15.2609V15.9565M9 1C7.41775 1 5.87103 1.46919 4.55544 2.34824C3.23985 3.22729 2.21447 4.47672 1.60897 5.93853C1.00347 7.40034 0.84504 9.00887 1.15372 10.5607C1.4624 12.1126 2.22433 13.538 3.34315 14.6569C4.46197 15.7757 5.88743 16.5376 7.43928 16.8463C8.99113 17.155 10.5997 16.9965 12.0615 16.391C13.5233 15.7855 14.7727 14.7602 15.6518 13.4446C16.5308 12.129 17 10.5822 17 9C17 6.87827 16.1571 4.84344 14.6569 3.34315C13.1566 1.84285 11.1217 1 9 1ZM9.30609 12.0887C9.16003 12.2346 9.06052 12.4205 9.02015 12.623C8.97978 12.8254 9.00037 13.0353 9.07931 13.226C9.15825 13.4168 9.29199 13.5798 9.46362 13.6945C9.63525 13.8092 9.83704 13.8705 10.0435 13.8705C10.2499 13.8705 10.4517 13.8092 10.6233 13.6945C10.795 13.5798 10.9287 13.4168 11.0077 13.226C11.0866 13.0353 11.1072 12.8254 11.0668 12.623C11.0264 12.4205 10.9269 12.2346 10.7809 12.0887C10.5852 11.8933 10.32 11.7835 10.0435 11.7835C9.76696 11.7835 9.50174 11.8933 9.30609 12.0887ZM5.91131 7.21913C5.76543 7.07307 5.5795 6.97356 5.37705 6.93319C5.1746 6.89282 4.96472 6.91341 4.77398 6.99235C4.58323 7.07129 4.42018 7.20503 4.30547 7.37666C4.19075 7.54829 4.12952 7.75008 4.12952 7.95652C4.12952 8.16296 4.19075 8.36475 4.30547 8.53638C4.42018 8.70801 4.58323 8.84175 4.77398 8.92069C4.96472 8.99963 5.1746 9.02022 5.37705 8.97985C5.5795 8.93949 5.76543 8.83997 5.91131 8.69391C6.10672 8.49826 6.21648 8.23304 6.21648 7.95652C6.21648 7.68 6.10672 7.41478 5.91131 7.21913Z" stroke="#3D3D3D" stroke-linejoin="round"/>
</svg>
