<svg width="71" height="80" viewBox="0 0 71 80" fill="none" xmlns="http://www.w3.org/2000/svg">
<path d="M20.9199 79.1464L22.0507 68.2885C22.0507 67.5188 21.7438 66.7806 21.1976 66.2363C20.6514 65.692 19.9105 65.3863 19.138 65.3863H10.9998C10.5198 65.4186 10.0382 65.3557 9.5829 65.201C9.12758 65.0464 8.70762 64.8033 8.34739 64.4856C7.98715 64.168 7.69383 63.7822 7.48445 63.3506C7.27506 62.9191 7.15379 62.4504 7.12765 61.9718C7.12765 61.8865 7.12765 59.2403 7.12765 59.0696C7.10972 58.6502 6.99906 58.2399 6.80359 57.8681C6.60811 57.4962 6.33265 57.172 5.99686 56.9185C5.57376 56.646 5.22639 56.2716 4.98683 55.83C4.74727 55.3884 4.62325 54.8938 4.62621 54.3918L5.0374 53.6236C5.5888 52.6061 5.87732 51.4679 5.87693 50.3116L1.71356 49.6628C1.51027 49.5929 1.32693 49.475 1.17911 49.3194C1.03129 49.1637 0.923367 48.9747 0.864502 48.7686C0.805637 48.5625 0.797572 48.3452 0.840991 48.1353C0.88441 47.9254 0.978031 47.7291 1.1139 47.563L4.24928 43.0559C4.90514 42.1359 5.37638 41.0982 5.63707 40C5.77124 39.3195 5.84008 38.6278 5.84266 37.9343V35.3735M27.8074 28.63V78.7025V28.6129M34.5751 79.1293V63.1669M7.62452 28.63V32.0444M14.3921 28.63V32.0444M21.1597 28.63V32.0444M42.9361 3.99488C39.2364 2.47254 35.271 1.69504 31.2683 1.70721C23.2057 1.70721 15.473 4.8975 9.77026 10.5767C4.0675 16.256 0.861445 23.9593 0.856902 31.9932M61.6798 53.6748V31.9932C61.6855 28.9434 61.2292 25.9102 60.3263 22.9962M48.1446 31.9761V23.5766M54.9122 31.9932V18.3355C54.9135 17.3484 54.5883 16.3883 53.987 15.6039L48.847 8.96287H47.4592L42.3193 15.6039C41.7118 16.3862 41.3805 17.3464 41.3769 18.3355V31.9932M41.3769 23.5766H54.895M48.1788 0V8.97994M54.9464 35.3564V47.1362M48.1788 35.3564V47.1362M41.4112 35.3564V47.1362M36.2884 58.0452C36.2884 57.5925 36.1079 57.1582 35.7865 56.8381C35.4652 56.5179 35.0295 56.338 34.5751 56.338C34.1206 56.338 33.6849 56.5179 33.3635 56.8381C33.0422 57.1582 32.8617 57.5925 32.8617 58.0452C32.8617 58.498 33.0422 58.9323 33.3635 59.2524C33.6849 59.5726 34.1206 59.7525 34.5751 59.7525C34.8043 59.7593 35.0327 59.7202 35.2465 59.6375C35.4603 59.5548 35.6553 59.4301 35.8199 59.2709C35.9845 59.1117 36.1153 58.9212 36.2046 58.7106C36.2939 58.5001 36.3399 58.2738 36.3398 58.0452H36.2884ZM70.1436 70.5933V65.6765H43.1074V70.6103C43.1074 72.8742 44.0099 75.0454 45.6165 76.6462C47.223 78.2471 49.402 79.1464 51.674 79.1464H61.577C62.702 79.1464 63.8159 78.9256 64.8553 78.4966C65.8946 78.0676 66.839 77.4389 67.6345 76.6462C68.43 75.8536 69.061 74.9126 69.4915 73.8769C69.922 72.8413 70.1436 71.7313 70.1436 70.6103V70.5933ZM66.7169 65.6594V62.245C66.7169 61.3394 66.3559 60.471 65.7133 59.8306C65.0707 59.1903 64.1991 58.8306 63.2903 58.8306H49.8579C48.9491 58.8306 48.0775 59.1903 47.4349 59.8306C46.7923 60.471 46.4312 61.3394 46.4312 62.245V65.6594H66.7169ZM41.4112 50.5506C41.0723 50.5506 40.7411 50.6507 40.4593 50.8383C40.1776 51.0259 39.958 51.2925 39.8283 51.6045C39.6986 51.9164 39.6647 52.2597 39.7308 52.5908C39.7969 52.922 39.9601 53.2262 40.1997 53.465C40.4393 53.7037 40.7446 53.8663 41.0769 53.9322C41.4093 53.9981 41.7538 53.9643 42.0669 53.835C42.3799 53.7058 42.6475 53.487 42.8358 53.2063C43.024 52.9255 43.1245 52.5954 43.1245 52.2578C43.1291 52.0307 43.0881 51.8051 43.0041 51.594C42.92 51.3829 42.7945 51.1906 42.635 51.0285C42.4754 50.8663 42.285 50.7375 42.0749 50.6496C41.8647 50.5616 41.6391 50.5164 41.4112 50.5164V50.5506ZM48.1788 50.5506C47.84 50.5506 47.5087 50.6507 47.2269 50.8383C46.9452 51.0259 46.7256 51.2925 46.5959 51.6045C46.4662 51.9164 46.4323 52.2597 46.4984 52.5908C46.5645 52.922 46.7277 53.2262 46.9673 53.465C47.2069 53.7037 47.5122 53.8663 47.8446 53.9322C48.1769 53.9981 48.5214 53.9643 48.8345 53.835C49.1475 53.7058 49.4151 53.487 49.6034 53.2063C49.7917 52.9255 49.8921 52.5954 49.8921 52.2578C49.8967 52.0307 49.8557 51.8051 49.7717 51.594C49.6876 51.3829 49.5621 51.1906 49.4026 51.0285C49.243 50.8663 49.0526 50.7375 48.8425 50.6496C48.6324 50.5616 48.4067 50.5164 48.1788 50.5164V50.5506ZM54.9464 50.5506C54.6076 50.5506 54.2763 50.6507 53.9946 50.8383C53.7128 51.0259 53.4932 51.2925 53.3635 51.6045C53.2339 51.9164 53.1999 52.2597 53.266 52.5908C53.3321 52.922 53.4953 53.2262 53.7349 53.465C53.9745 53.7037 54.2798 53.8663 54.6122 53.9322C54.9445 53.9981 55.289 53.9643 55.6021 53.835C55.9152 53.7058 56.1827 53.487 56.371 53.2063C56.5593 52.9255 56.6597 52.5954 56.6597 52.2578C56.6643 52.0293 56.6229 51.8022 56.5377 51.59C56.4526 51.3778 56.3256 51.1847 56.1642 51.0223C56.0028 50.8599 55.8104 50.7315 55.5983 50.6446C55.3861 50.5577 55.1586 50.5141 54.9293 50.5164L54.9464 50.5506Z" stroke="#C28566" stroke-width="1.5" stroke-miterlimit="10" stroke-linecap="round"/>
</svg>
