<svg width="80" height="80" viewBox="0 0 80 80" fill="none" xmlns="http://www.w3.org/2000/svg">
<path d="M21.0555 79.1489L22.1278 68.1872C22.1278 67.4108 21.8194 66.6661 21.2703 66.1171C20.7213 65.568 19.9766 65.2596 19.2002 65.2596L11.081 65.2596C10.6002 65.2943 10.1172 65.2337 9.6599 65.0812C9.20257 64.9287 8.77987 64.6874 8.41609 64.371C8.05231 64.0547 7.75461 63.6696 7.5401 63.2379C7.32559 62.8062 7.1985 62.3363 7.16612 61.8553C7.16612 61.7702 7.16612 59.0979 7.16612 58.9277C7.1477 58.503 7.03597 58.0877 6.83886 57.7111C6.64176 57.3346 6.36412 57.0061 6.02569 56.7489C5.60063 56.4727 5.25168 56.0942 5.0108 55.6481C4.76993 55.2021 4.64483 54.7027 4.64697 54.1958L5.10654 53.4468C5.66682 52.4004 5.95371 51.2294 5.94058 50.0426L1.70229 49.3617C1.49574 49.2925 1.30909 49.1742 1.1584 49.0169C1.0077 48.8596 0.897472 48.6681 0.837189 48.4588C0.776906 48.2495 0.768375 48.0286 0.812329 47.8153C0.856284 47.602 0.951408 47.4025 1.08952 47.234L4.25548 42.6723C4.9168 41.7398 5.39081 40.6877 5.65122 39.5745C5.81081 38.8758 5.90202 38.1632 5.92356 37.4468C5.9071 35.7803 5.63146 34.1265 5.10654 32.5447L4.64697 31.1489M43.7959 74.0936L43.7959 79.2M57.2087 17.3447C54.7945 12.4025 51.0422 8.23677 46.3783 5.32107C41.7144 2.40537 36.326 0.856687 30.8257 0.851074C22.876 0.851074 15.2518 4.00909 9.63054 9.63039C4.00924 15.2517 0.851222 22.8758 0.851222 30.8255L0.851222 31.166L22.9789 31.166M55.3193 71.166C56.724 66.9413 57.3019 62.4857 57.0214 58.0426L57.0214 46.6723M28.0853 36.5958L28.0853 70.1958M34.8938 70.6383L34.8938 60.4255M41.7023 70.6383L41.7023 46.8085M48.5108 70.6383L48.5108 60.4255M46.8087 17.0213L77.0895 40.1362M76.7321 23.966L46.8087 47.6596M43.4044 41.7021C43.4044 41.2507 43.2251 40.8178 42.9059 40.4985C42.5867 40.1793 42.1537 40 41.7023 40C41.2509 40 40.8179 40.1793 40.4987 40.4985C40.1795 40.8178 40.0002 41.2507 40.0002 41.7021C40.0002 42.1536 40.1795 42.5865 40.4987 42.9057C40.8179 43.2249 41.2509 43.4043 41.7023 43.4043C42.1537 43.4043 42.5867 43.2249 42.9059 42.9057C43.2251 42.5865 43.4044 42.1536 43.4044 41.7021ZM36.5959 55.3192C36.5959 54.8677 36.4166 54.4348 36.0974 54.1156C35.7782 53.7964 35.3452 53.617 34.8938 53.617C34.4423 53.617 34.0094 53.7964 33.6902 54.1156C33.371 54.4348 33.1917 54.8677 33.1917 55.3192C33.1917 55.7706 33.371 56.2035 33.6902 56.5227C34.0094 56.842 34.4423 57.0213 34.8938 57.0213C35.3452 57.0213 35.7782 56.842 36.0974 56.5227C36.4166 56.2035 36.5959 55.7706 36.5959 55.3192ZM50.2129 55.3192C50.2129 54.8677 50.0336 54.4348 49.7144 54.1156C49.3952 53.7964 48.9622 53.617 48.5108 53.617C48.0594 53.617 47.6264 53.7964 47.3072 54.1156C46.988 54.4348 46.8087 54.8677 46.8087 55.3192C46.8087 55.7706 46.988 56.2035 47.3072 56.5227C47.6264 56.842 48.0594 57.0213 48.5108 57.0213C48.9622 57.0213 49.3952 56.842 49.7144 56.5227C50.0336 56.2035 50.2129 55.7706 50.2129 55.3192ZM36.5959 31.4894C36.5959 31.0379 36.4166 30.605 36.0974 30.2858C35.7782 29.9666 35.3452 29.7872 34.8938 29.7872C34.4423 29.7872 34.0094 29.9666 33.6902 30.2858C33.371 30.605 33.1917 31.0379 33.1917 31.4894C33.1917 31.9408 33.371 32.3737 33.6902 32.693C34.0094 33.0122 34.4423 33.1915 34.8938 33.1915C35.3452 33.1915 35.7782 33.0122 36.0974 32.693C36.4166 32.3737 36.5959 31.9408 36.5959 31.4894ZM43.4044 31.4894C43.4044 31.0379 43.2251 30.605 42.9059 30.2858C42.5867 29.9666 42.1537 29.7872 41.7023 29.7872C41.2509 29.7872 40.8179 29.9666 40.4987 30.2858C40.1795 30.605 40.0002 31.0379 40.0002 31.4894C40.0002 31.9408 40.1795 32.3737 40.4987 32.693C40.8179 33.0122 41.2509 33.1915 41.7023 33.1915C42.1537 33.1915 42.5867 33.0122 42.9059 32.693C43.2251 32.3737 43.4044 31.9408 43.4044 31.4894ZM50.2129 31.4894C50.2129 31.0379 50.0336 30.605 49.7144 30.2858C49.3952 29.9666 48.9622 29.7872 48.5108 29.7872C48.0594 29.7872 47.6264 29.9666 47.3072 30.2858C46.988 30.605 46.8087 31.0379 46.8087 31.4894C46.8087 31.9408 46.988 32.3737 47.3072 32.693C47.6264 33.0122 48.0594 33.1915 48.5108 33.1915C48.9622 33.1915 49.3952 33.0122 49.7144 32.693C50.0336 32.3737 50.2129 31.9408 50.2129 31.4894ZM74.0427 14.4681C73.0328 14.4681 72.0455 14.7676 71.2058 15.3287C70.366 15.8898 69.7115 16.6873 69.325 17.6203C68.9385 18.5534 68.8374 19.5801 69.0344 20.5707C69.2315 21.5612 69.7178 22.4711 70.432 23.1852C71.1461 23.8994 72.056 24.3857 73.0465 24.5827C74.0371 24.7798 75.0638 24.6786 75.9968 24.2922C76.9299 23.9057 77.7274 23.2512 78.2885 22.4114C78.8496 21.5717 79.1491 20.5844 79.1491 19.5745C79.1491 18.2202 78.6111 16.9214 77.6535 15.9637C76.6958 15.0061 75.397 14.4681 74.0427 14.4681ZM74.0427 39.1489C73.0328 39.1489 72.0455 39.4484 71.2058 40.0095C70.366 40.5706 69.7115 41.3681 69.325 42.3012C68.9385 43.2343 68.8374 44.261 69.0344 45.2515C69.2315 46.2421 69.7178 47.1519 70.432 47.8661C71.1461 48.5802 72.056 49.0666 73.0465 49.2636C74.0371 49.4606 75.0638 49.3595 75.9968 48.973C76.9299 48.5865 77.7274 47.932 78.2885 47.0923C78.8496 46.2525 79.1491 45.2653 79.1491 44.2553C79.1491 42.901 78.6111 41.6022 77.6535 40.6446C76.6958 39.6869 75.397 39.1489 74.0427 39.1489ZM29.7874 31.4894C29.7874 31.0379 29.6081 30.605 29.2889 30.2858C28.9696 29.9666 28.5367 29.7872 28.0853 29.7872C27.6338 29.7872 27.2009 29.9666 26.8817 30.2858C26.5625 30.605 26.3831 31.0379 26.3831 31.4894C26.3831 31.9408 26.5625 32.3737 26.8817 32.693C27.2009 33.0122 27.6338 33.1915 28.0853 33.1915C28.5367 33.1915 28.9696 33.0122 29.2889 32.693C29.6081 32.3737 29.7874 31.9408 29.7874 31.4894Z" stroke="#C28566" stroke-width="1.5" stroke-miterlimit="10" stroke-linecap="round"/>
</svg>
