<svg width="80" height="80" viewBox="0 0 80 80" fill="none" xmlns="http://www.w3.org/2000/svg">
<path d="M44.9994 69.268V78.3347M28.816 74.5513C30.86 75.1638 33.0387 75.1638 35.0827 74.5513C39.8881 73.1079 44.2095 70.3825 47.5827 66.668C49.9217 64.0952 51.7538 61.104 52.9827 57.8513M28.0327 36.668C27.4315 35.6256 26.5595 34.7654 25.509 34.1785C24.4585 33.5917 23.2688 33.3001 22.066 33.3347C20.8632 33.3001 19.6735 33.5917 18.623 34.1785C17.5726 34.7654 16.7005 35.6256 16.0993 36.668M25.366 56.818C27.32 57.8052 29.4768 58.3244 31.666 58.3347C33.8582 58.3374 36.0209 57.8295 37.9827 56.8513M31.666 43.3347V50.0013M51.5827 8.41799C50.3702 7.20471 48.905 6.27372 47.2916 5.69134C45.6782 5.10896 43.9562 4.88951 42.2483 5.04863C40.5404 5.20775 38.8886 5.74151 37.4105 6.61191C35.9324 7.48231 34.6645 8.66793 33.697 10.0843C32.7294 11.5007 32.0861 13.113 31.8129 14.8064C31.5396 16.4998 31.6431 18.2326 32.116 19.8815C32.5889 21.5303 33.4196 23.0546 34.5488 24.3457C35.6781 25.6368 37.0782 26.6631 38.6494 27.3513M64.9994 25.5347V18.3347M64.9994 18.3347C64.9994 17.4506 64.6482 16.6028 64.023 15.9776C63.3979 15.3525 62.5501 15.0013 61.666 15.0013C60.782 15.0013 59.9341 15.3525 59.309 15.9776C58.6839 16.6028 58.3327 17.4506 58.3327 18.3347V25.5347M64.9994 18.3347C64.9994 17.4506 65.3505 16.6028 65.9757 15.9776C66.6008 15.3525 67.4486 15.0013 68.3327 15.0013C69.2167 15.0013 70.0646 15.3525 70.6897 15.9776C71.3148 16.6028 71.666 17.4506 71.666 18.3347V25.5347V21.668C71.666 20.7839 72.0172 19.9361 72.6423 19.311C73.2674 18.6858 74.1153 18.3347 74.9994 18.3347C75.8834 18.3347 76.7313 18.6858 77.3564 19.311C77.9815 19.9361 78.3327 20.7839 78.3327 21.668V28.568C78.3346 34.1008 77.2001 39.575 74.9994 44.6513V80.0013M58.3327 18.868V8.96799C58.3327 8.08394 57.9815 7.23609 57.3564 6.61097C56.7313 5.98585 55.8834 5.63466 54.9994 5.63466C54.1153 5.63466 53.2675 5.98585 52.6423 6.61097C52.0172 7.23609 51.666 8.08394 51.666 8.96799V28.968C51.6624 29.5943 51.4107 30.1936 50.966 30.6347C50.5227 31.0743 49.9237 31.3211 49.2994 31.3211C48.675 31.3211 48.076 31.0743 47.6327 30.6347L44.166 27.468C43.6746 26.9902 43.1124 26.5911 42.4994 26.2847C41.7866 25.9295 40.9702 25.8413 40.198 26.0359C39.4258 26.2306 38.7488 26.6952 38.2895 27.3459C37.8303 27.9965 37.6191 28.79 37.6943 29.5828C37.7695 30.3756 38.126 31.1153 38.6993 31.668L53.3327 46.7847V80.0013M23.3327 20.0013H31.666M26.666 13.3347H31.666M8.33268 41.668V46.668M8.33268 46.668L8.78268 51.4847L9.01602 52.7847C9.92149 57.8625 12.2309 62.5853 15.6827 66.418L18.3327 69.268V78.3347M8.33268 46.668C6.92533 46.6618 5.56601 46.1555 4.49746 45.2396C3.42891 44.3237 2.72072 43.0578 2.49935 41.668L1.66602 36.9013C1.66602 35.9554 2.04179 35.0482 2.71067 34.3793C3.37955 33.7104 4.28674 33.3347 5.23268 33.3347H8.33268V25.0013C8.33268 18.8129 10.791 12.878 15.1669 8.50217C19.5427 4.12632 25.4776 1.66799 31.666 1.66799C35.8145 1.66204 39.8889 2.76697 43.466 4.86799M39.4327 33.568C38.568 33.7738 37.7549 34.1552 37.0439 34.6885C36.3328 35.2218 35.739 35.8955 35.2994 36.668M19.9993 20.0013C19.9993 19.5593 19.8238 19.1354 19.5112 18.8228C19.1986 18.5103 18.7747 18.3347 18.3327 18.3347C17.8907 18.3347 17.4667 18.5103 17.1542 18.8228C16.8416 19.1354 16.666 19.5593 16.666 20.0013C16.666 20.4434 16.8416 20.8673 17.1542 21.1798C17.4667 21.4924 17.8907 21.668 18.3327 21.668C18.7747 21.668 19.1986 21.4924 19.5112 21.1798C19.8238 20.8673 19.9993 20.4434 19.9993 20.0013ZM23.3327 13.3347C23.3327 12.8926 23.1571 12.4687 22.8445 12.1561C22.532 11.8436 22.108 11.668 21.666 11.668C21.224 11.668 20.8001 11.8436 20.4875 12.1561C20.1749 12.4687 19.9993 12.8926 19.9993 13.3347C19.9993 13.7767 20.1749 14.2006 20.4875 14.5132C20.8001 14.8257 21.224 15.0013 21.666 15.0013C22.108 15.0013 22.532 14.8257 22.8445 14.5132C23.1571 14.2006 23.3327 13.7767 23.3327 13.3347Z" stroke="#C28566" stroke-width="1.5" stroke-miterlimit="10" stroke-linecap="round"/>
</svg>
