<svg width="80" height="80" viewBox="0 0 80 80" fill="none" xmlns="http://www.w3.org/2000/svg">
<path d="M51.6669 66.6667V78.3333M51.6669 45V35C51.6968 31.2917 50.9737 27.6159 49.5413 24.1953C48.1089 20.7747 45.997 17.6804 43.3336 15.1M10.0002 15.1667C7.34574 17.7399 5.2391 20.8235 3.80701 24.2318C2.37492 27.6402 1.64696 31.303 1.6669 35V78.3333M10.0002 36.6667V42.95C10.0002 47.3703 11.7562 51.6095 14.8818 54.7351C18.0074 57.8607 22.2466 59.6167 26.6669 59.6167C31.0872 59.6167 35.3264 57.8607 38.452 54.7351C41.5776 51.6095 43.3336 47.3703 43.3336 42.95V12.6833C43.3367 10.5918 42.6839 8.5519 41.4671 6.85074C40.2502 5.14959 38.5306 3.87278 36.5502 3.2C30.1169 1.13861 23.2003 1.13861 16.7669 3.2C14.7896 3.87561 13.0736 5.15362 11.86 6.85454C10.6463 8.55545 9.99596 10.5938 10.0002 12.6833V23.3333M40.4502 52.8333C36.4603 49.9286 31.6522 48.3637 26.7169 48.3637C21.7816 48.3637 16.9735 49.9286 12.9836 52.8333M18.3336 71.6667H20.0002M25.0002 71.6667H26.6669M31.6669 71.6667H33.3336M80.0002 45H61.6669L48.3336 53.3333V55M48.3336 55H63.3336M48.3336 55V56.6667L61.6669 65H80.0002M70.0002 55C70.0002 55.6593 69.8047 56.3037 69.4385 56.8519C69.0722 57.4001 68.5516 57.8273 67.9425 58.0796C67.3334 58.3319 66.6632 58.3979 66.0166 58.2693C65.37 58.1407 64.7761 57.8232 64.3099 57.357C63.8437 56.8909 63.5262 56.2969 63.3976 55.6503C63.269 55.0037 63.335 54.3335 63.5873 53.7244C63.8396 53.1153 64.2668 52.5947 64.815 52.2284C65.3632 51.8622 66.0076 51.6667 66.6669 51.6667C67.551 51.6667 68.3988 52.0179 69.0239 52.643C69.649 53.2681 70.0002 54.116 70.0002 55ZM70.0002 55V45M58.3336 0V21.6667L61.6669 38.3333H65.0002L68.3336 21.6667V0M8.33357 30C10.5437 30 12.6633 29.122 14.2261 27.5592C15.7889 25.9964 16.6669 23.8768 16.6669 21.6667C16.6669 23.8768 17.5449 25.9964 19.1077 27.5592C20.6705 29.122 22.7901 30 25.0002 30C22.7901 30 20.6705 30.878 19.1077 32.4408C17.5449 34.0036 16.6669 36.1232 16.6669 38.3333C16.6669 36.1232 15.7889 34.0036 14.2261 32.4408C12.6633 30.878 10.5437 30 8.33357 30Z" stroke="#C28566" stroke-width="1.5" stroke-miterlimit="10" stroke-linecap="round"/>
</svg>
