<svg width="77" height="80" viewBox="0 0 77 80" fill="none" xmlns="http://www.w3.org/2000/svg">
<path d="M1.68367 31.5031C-0.462552 20.7157 2.46965 8.95754 10.1242 1C10.1242 1 11.6544 6.99839 21.1921 15.2897C25.8439 19.3322 37.6994 21.6412 42.1378 28.5797C51.2376 42.8081 35.9189 58.2008 35.9189 58.2008M6.3306 43.0887C11.2085 50.6447 19.4838 56.3932 31.3313 57.825M36.6247 79V70.1862C35.6318 25.3596 19.5303 32.2513 12.8077 19.1M29.0439 35.5633C26.1069 31.5853 11.7346 30.1922 11.7346 30.1922M33.569 45.6428C37.0177 39.2413 35.6414 31.5305 35.6414 31.5305M51.2953 63.7992C51.0852 63.9057 43.7033 66.9823 36.8717 78.7549M51.584 53.3311C42.3335 56.3448 43.7868 68.993 43.7868 68.993C60.2058 81.6122 77.1381 67.2967 75.9399 52.7764C75.9399 52.7764 73.0719 54.8952 65.7879 55.0951C62.2333 55.1903 56.0914 51.8605 51.584 53.3311ZM61.0399 61.3112C63.5374 61.1161 65.8312 61.0048 68.218 59.9616L61.0399 61.3112ZM56.6208 59.9438C56.2918 59.8661 55.9473 59.8881 55.6309 60.0072C55.3144 60.1262 55.0401 60.337 54.8428 60.6127C54.6455 60.8885 54.534 61.2169 54.5223 61.5563C54.5107 61.8958 54.5995 62.2311 54.7774 62.5199C54.9554 62.8087 55.2145 63.0379 55.5221 63.1786C55.8297 63.3193 56.1718 63.3651 56.5053 63.3103C56.8388 63.2554 57.1486 63.1024 57.3956 62.8706C57.6425 62.6388 57.8156 62.3385 57.8928 62.0078C57.9962 61.5645 57.9204 61.0981 57.6818 60.7111C57.4433 60.324 57.0616 60.0481 56.6208 59.9438ZM4.1539 36.1696C3.82488 36.092 3.48038 36.1143 3.16396 36.2336C2.84755 36.3529 2.57344 36.5639 2.37633 36.8399C2.17921 37.1158 2.06794 37.4443 2.05659 37.7838C2.04524 38.1234 2.13432 38.4586 2.31256 38.7473C2.4908 39.0359 2.75019 39.2649 3.05792 39.4053C3.36565 39.5457 3.70789 39.5912 4.04135 39.536C4.37481 39.4808 4.68449 39.3275 4.93124 39.0954C5.17798 38.8632 5.35069 38.5627 5.42752 38.2319C5.53046 37.7887 5.45413 37.3225 5.21532 36.9358C4.9765 36.5491 4.59474 36.2735 4.1539 36.1696Z" stroke="#C28566" stroke-width="1.5" stroke-linecap="round" stroke-linejoin="round"/>
</svg>
