<svg width="34" height="42" viewBox="0 0 34 42" fill="none" xmlns="http://www.w3.org/2000/svg">
<path d="M17 1C19.7267 1.00082 22.4079 1.7062 24.7894 3.04924C27.1709 4.39227 29.1736 6.32841 30.6077 8.67401C32.0417 11.0196 32.8595 13.6969 32.9835 16.4518C33.1074 19.2068 32.5334 21.9481 31.3159 24.4158C29.2556 28.5787 18.8131 33.1277 16.9747 41C13.9913 33.3591 4.74436 28.5787 2.68412 24.4158C1.46661 21.9481 0.892605 19.2068 1.01655 16.4518C1.14049 13.6969 1.95827 11.0196 3.39231 8.67401C4.82636 6.32841 6.82912 4.39227 9.2106 3.04924C11.5921 1.7062 14.2733 1.00082 17 1ZM17 8.9851C18.569 8.9851 20.1027 9.45567 21.4072 10.3373C22.7118 11.2189 23.7286 12.472 24.329 13.9381C24.9294 15.4042 25.0865 17.0175 24.7804 18.5739C24.4743 20.1303 23.7188 21.5599 22.6094 22.682C21.4999 23.8041 20.0864 24.5683 18.5476 24.8779C17.0088 25.1875 15.4138 25.0286 13.9642 24.4213C12.5147 23.814 11.2758 22.7856 10.4041 21.4662C9.53243 20.1467 9.06717 18.5955 9.06717 17.0086C9.06717 14.8806 9.90295 12.8398 11.3906 11.3351C12.8783 9.83043 14.8961 8.9851 17 8.9851Z" stroke="#C28566" stroke-width="1.5" stroke-linecap="round" stroke-linejoin="round"/>
</svg>
