<svg width="26" height="34" viewBox="0 0 26 34" fill="none" xmlns="http://www.w3.org/2000/svg">
<path d="M13 1.00781C15.045 1.00844 17.056 1.54587 18.8421 2.56914C20.6282 3.5924 22.1303 5.06756 23.2058 6.85468C24.2813 8.6418 24.8947 10.6816 24.9876 12.7806C25.0806 14.8797 24.6501 16.9683 23.7369 18.8484C22.1918 22.0201 14.3598 27.0099 12.9811 33.0078C10.7435 27.1862 3.8083 22.0201 2.26312 18.8484C1.34999 16.9683 0.919484 14.8797 1.01244 12.7806C1.10539 10.6816 1.71873 8.6418 2.79426 6.85468C3.8698 5.06756 5.37187 3.5924 7.15798 2.56914C8.9441 1.54587 10.955 1.00844 13 1.00781ZM13 7.0917C14.1768 7.0917 15.3271 7.45023 16.3055 8.12195C17.2839 8.79367 18.0465 9.74841 18.4968 10.8654C18.9471 11.9825 19.0649 13.2116 18.8353 14.3974C18.6058 15.5833 18.0391 16.6725 17.207 17.5275C16.375 18.3824 15.3149 18.9646 14.1607 19.2005C13.0066 19.4364 11.8104 19.3153 10.7232 18.8526C9.63606 18.3899 8.70686 17.6064 8.0531 16.6011C7.39935 15.5958 7.05041 14.4139 7.05041 13.2048C7.05041 11.5835 7.67724 10.0286 8.79301 8.88219C9.90878 7.73576 11.4221 7.0917 13 7.0917Z" stroke="#3D3D3D" stroke-width="1.5" stroke-linecap="round" stroke-linejoin="round"/>
</svg>
