<svg width="42" height="42" viewBox="0 0 42 42" fill="none" xmlns="http://www.w3.org/2000/svg">
<path d="M23.3754 37.0584C22.0286 37.367 20.6512 37.5224 19.2695 37.5216M19.2695 37.5216C9.17908 37.5216 1 29.3456 1 19.2608M19.2695 37.5216C14.2247 37.5216 10.1347 29.3456 10.1347 19.2608C10.1347 9.176 14.2247 1 19.2695 1M1 19.2608C1 9.176 9.17988 1 19.2695 1M1 19.2608H37.5389C37.5389 9.176 29.3591 1 19.2695 1M19.2695 1C24.3143 1 28.4042 9.1752 28.4042 19.2608M18.3851 28.3976C12.9025 28.4776 8.06015 29.2824 4.88905 30.4984M4.88905 8.0232C8.23303 9.304 13.4243 10.1304 19.2695 10.1304C25.1146 10.1304 30.3043 9.304 33.6499 8.0232M31.0142 41L39.7336 31.7128C40.6718 30.5534 41.1171 29.0722 40.9736 27.588C40.8301 26.1038 40.1093 24.7352 38.9664 23.7769C37.8235 22.8185 36.3498 22.347 34.8625 22.4639C33.3752 22.5807 31.9933 23.2765 31.0142 24.4016C30.5122 23.8263 29.8996 23.3577 29.2129 23.0235C28.5262 22.6894 27.7793 22.4965 27.0166 22.4564C26.2539 22.4162 25.4909 22.5297 24.7728 22.7899C24.0548 23.0501 23.3964 23.4519 22.8367 23.9713C22.2769 24.4907 21.8273 25.1172 21.5144 25.8136C21.2016 26.5101 21.0319 27.2622 21.0154 28.0254C20.9989 28.7887 21.136 29.5474 21.4185 30.2567C21.701 30.966 22.1231 31.6113 22.6599 32.1544L31.0142 41Z" stroke="#C28566" stroke-width="1.5" stroke-linecap="round" stroke-linejoin="round"/>
</svg>
