<svg width="37" height="42" viewBox="0 0 37 42" fill="none" xmlns="http://www.w3.org/2000/svg">
<path d="M11.5 41H3.625C2.92881 41 2.26113 40.7252 1.76884 40.2359C1.27656 39.7467 1 39.0832 1 38.3913V3.6087C1 2.91683 1.27656 2.25329 1.76884 1.76407C2.26113 1.27484 2.92881 1 3.625 1H19.375C20.0712 1 20.7389 1.27484 21.2312 1.76407C21.7234 2.25329 22 2.91683 22 3.6087V23.6087M36 27.087H15M36 27.087V41H15V34.0435V27.087M36 27.087L25.5 34.913L15 27.087M10.5 35.2174C10.2404 35.2174 9.98665 35.2939 9.77081 35.4372C9.55498 35.5805 9.38675 35.7842 9.28741 36.0226C9.18807 36.2609 9.16208 36.5232 9.21272 36.7762C9.26336 37.0292 9.38837 37.2616 9.57192 37.4441C9.75548 37.6265 9.98934 37.7507 10.2439 37.801C10.4985 37.8514 10.7624 37.8255 11.0023 37.7268C11.2421 37.6281 11.4471 37.4609 11.5913 37.2464C11.7355 37.0319 11.8125 36.7797 11.8125 36.5217C11.8125 36.1758 11.6742 35.844 11.4281 35.5994C11.1819 35.3548 10.8481 35.2174 10.5 35.2174Z" stroke="#C28566" stroke-width="1.5" stroke-linecap="round" stroke-linejoin="round"/>
</svg>
