<svg width="34" height="34" viewBox="0 0 34 34" fill="none" xmlns="http://www.w3.org/2000/svg">
<path d="M26.9268 15.0928C27.1025 14.0031 27.0255 12.8889 26.7014 11.832C26.3318 10.6102 25.6543 9.49785 24.7306 8.59625C23.7938 7.69315 22.6391 7.072 21.4053 6.8816C20.6664 6.76507 19.9099 6.81201 19.1921 7.01894M32.3488 17.67C33.2193 15.076 33.217 12.2792 32.3424 9.68664C31.7161 7.80706 30.6669 6.08737 29.2714 4.65297C27.9028 3.22798 26.1929 2.15557 24.2948 1.53164C22.1067 0.830367 19.7451 0.833286 17.5588 1.53997M9.82416 11.8861C8.08943 13.53 8.61284 17.2319 11.0889 20.3803C13.5649 23.5287 17.0995 24.9832 19.1803 23.7805M24.8278 30.9595C24.7519 31.0833 24.3503 31.4132 22.8912 32.463C20.0391 34.5137 13.2712 30.638 7.3791 23.1489C1.48702 15.6598 -0.513673 8.3018 2.17707 6.13768C3.62872 4.97135 4.03143 4.7102 4.16388 4.69771M25.4206 29.9284L19.9729 23.0043C19.823 22.8127 19.757 22.5711 19.7894 22.3323C19.8218 22.0934 19.95 21.8768 20.146 21.7298L22.6145 19.8871C22.7119 19.8136 22.8231 19.7596 22.942 19.728C23.0608 19.6965 23.1849 19.6881 23.307 19.7034C23.4292 19.7187 23.5471 19.7573 23.6539 19.817C23.7607 19.8768 23.8543 19.9565 23.9294 20.0515L29.3772 26.9757C29.452 27.0708 29.5068 27.1794 29.5384 27.2951C29.5701 27.4109 29.578 27.5316 29.5618 27.6504C29.5455 27.7692 29.5054 27.8837 29.4436 27.9873C29.3819 28.0909 29.2998 28.1817 29.202 28.2544L26.7334 30.097C26.5368 30.2427 26.289 30.3068 26.044 30.2752C25.7991 30.2436 25.5769 30.119 25.426 29.9284H25.4206ZM10.7877 11.318L5.33994 4.3939C5.18999 4.20231 5.12402 3.96068 5.15645 3.72185C5.18887 3.48301 5.31706 3.2664 5.51299 3.11936L7.98155 1.27777C8.17825 1.13172 8.42631 1.06746 8.67152 1.09904C8.91672 1.13063 9.13911 1.25549 9.29007 1.44633L14.7378 8.37047C14.8887 8.56182 14.9556 8.80367 14.9238 9.04299C14.892 9.28231 14.764 9.49956 14.5679 9.6471L12.0994 11.4897C11.9027 11.6358 11.6546 11.7 11.4094 11.6685C11.1642 11.6369 10.9418 11.512 10.7909 11.3212L10.7877 11.318Z" stroke="#3D3D3D" stroke-width="1.5" stroke-linecap="round" stroke-linejoin="round"/>
</svg>
