<svg width="120" height="104" viewBox="0 0 120 104" fill="none" xmlns="http://www.w3.org/2000/svg">
<path d="M30.3587 2.98929C30.3046 3.23858 29.4843 3.63287 28.6803 3.22072C28.0101 2.8743 27.2837 2.63006 26.5295 2.49752C25.2066 2.27763 23.8721 2.12412 22.5318 2.03766C19.1364 1.70989 17.6935 2.89694 16.9779 3.65344C16.7619 3.87187 16.5828 4.11902 16.4466 4.38667C15.8471 5.58262 16.2059 7.36843 15.7874 11.2081C15.4597 14.1846 14.6664 15.2311 12.2442 23.0519C11.7111 24.8105 11.2061 26.5824 10.8362 28.3853C9.03647 37.2196 10.8922 48.0887 21.0509 53.2797C26.0922 55.8538 32.2891 55.3178 36.8868 52.7066C41.6857 50.0081 44.5 45.2801 45.6869 40.5187C48.1799 30.5172 42.385 19.9303 34.1214 12.5693C30.1358 9.0029 24.5243 5.56775 18.5805 6.05021C12.3807 6.56694 8.66471 11.3514 6.38574 15.7827C1.28495 25.6151 0.224108 37.3908 5.64888 47.6683C8.0703 52.2759 11.6398 56.2946 16.0653 59.3957C20.4949 62.4762 25.8747 64.3398 30.2131 67.5411C34.3849 70.6213 36.5392 74.8423 36.1277 79.4478C35.6832 84.4224 32.702 88.662 29.1087 92.3556C27.1133 94.4085 24.7354 96.2126 22.8198 98.3162C21.5634 99.6982 21.2243 101.664 23.6134 102.306C25.2462 102.757 26.7733 102.114 27.9199 101.192C30.1565 99.3874 31.7217 96.8034 33.3819 94.6039C35.2474 92.1299 37.0402 89.6246 38.782 87.0742C45.3742 77.3205 50.5212 66.9208 52.9344 55.686C54.979 46.174 55.4609 35.9705 52.1909 26.4203C50.5078 21.5054 47.7066 16.9733 43.9743 13.1269C40.7608 9.82614 36.9637 7.04994 32.7451 4.91684C30.6468 3.92672 28.4831 3.05968 26.2669 2.32092C25.4657 1.97888 24.7822 1.43951 24.2923 0.762671C25.1433 0.469727 29.473 1.62316 30.8446 2.2495C32.8184 3.1342 33.8018 3.59929 34.4693 3.99937C36.1535 4.95115 37.7609 6.01394 39.2789 7.17938C42.4677 9.69024 45.3983 12.4667 48.0331 15.4732C49.3407 17.1824 52.9396 21.8696 54.8306 29.9091C57.3153 40.4489 56.0568 51.3861 53.1319 61.5682C49.5031 74.1338 42.2799 85.556 34.138 96.2301C31.7959 99.3029 27.6243 106.302 21.9277 103.145C19.6108 101.857 19.7814 99.5522 21.1373 97.8624C23.0374 95.4938 25.7572 93.5497 27.9072 91.3607C32.2503 86.8974 36.0437 80.9542 34.003 74.7846C32.1517 69.1392 25.6487 66.3543 20.2301 63.5163C15.0087 60.7744 10.5358 57.3469 7.16511 52.9146C3.74354 48.3984 1.53949 43.1996 0.736347 37.7509C-0.095444 31.7521 0.595831 25.6633 2.75574 19.9639C4.54597 15.1319 7.10917 9.86825 11.9504 6.78583C22.8831 -0.110845 35.3888 10.3997 41.2505 18.1818C44.6862 22.7597 47.2983 27.9689 47.8702 33.3494C48.4052 38.557 47.054 43.774 44.0274 48.1866C41.18 52.2889 36.5883 55.4323 30.9292 56.1961C25.0933 56.9912 19.7897 54.9217 15.6971 51.2148C7.01089 43.3346 7.67443 32.4035 10.566 22.9695C11.8204 18.8781 13.5632 16.0637 13.9943 11.6622C14.4597 6.87252 13.0247 4.33281 15.6571 2.26484C16.9757 1.19656 19.1736 0.71719 20.8143 0.552356C25.7828 0.0453619 30.4838 2.42285 30.3587 2.98929Z" fill="#402B1D"/>
<path d="M93.7968 2.98929C93.7427 3.23858 92.9223 3.63287 92.1184 3.22072C91.4482 2.8743 90.7218 2.63006 89.9675 2.49752C88.6447 2.27763 87.3102 2.12412 85.9699 2.03766C82.5745 1.70989 81.1316 2.89694 80.4159 3.65344C80.1999 3.87187 80.0209 4.11902 79.8847 4.38667C79.2852 5.58262 79.644 7.36843 79.2254 11.2081C78.8978 14.1846 78.1045 15.2311 75.6823 23.0519C75.1491 24.8105 74.6442 26.5824 74.2743 28.3853C72.4745 37.2196 74.3303 48.0887 84.489 53.2797C89.5303 55.8538 95.7271 55.3178 100.325 52.7066C105.124 50.0081 107.938 45.2801 109.125 40.5187C111.618 30.5172 105.823 19.9303 97.5595 12.5693C93.5739 9.0029 87.9624 5.56775 82.0185 6.05021C75.8188 6.56694 72.1028 11.3514 69.8238 15.7827C64.723 25.6151 63.6622 37.3908 69.087 47.6683C71.5084 52.2759 75.0779 56.2946 79.5034 59.3957C83.933 62.4762 89.3127 64.3398 93.6511 67.5411C97.823 70.6213 99.9773 74.8423 99.5658 79.4478C99.1213 84.4224 96.1401 88.662 92.5468 92.3556C90.5514 94.4085 88.1735 96.2126 86.2578 98.3162C85.0015 99.6982 84.6624 101.664 87.0515 102.306C88.6843 102.757 90.2113 102.114 91.3579 101.192C93.5945 99.3874 95.1598 96.8034 96.8199 94.6039C98.6855 92.1299 100.478 89.6246 102.22 87.0742C108.812 77.3205 113.959 66.9208 116.372 55.686C118.417 46.174 118.899 35.9705 115.629 26.4203C113.946 21.5054 111.145 16.9733 107.412 13.1269C104.199 9.82614 100.402 7.04994 96.1832 4.91684C94.0849 3.92672 91.9211 3.05968 89.7049 2.32092C88.9038 1.97888 88.2203 1.43951 87.7304 0.762672C88.5814 0.469727 92.9111 1.62316 94.2827 2.2495C96.2565 3.1342 97.2398 3.59929 97.9074 3.99937C99.5915 4.95115 101.199 6.01394 102.717 7.17938C105.906 9.69024 108.836 12.4667 111.471 15.4732C112.779 17.1824 116.378 21.8696 118.269 29.9091C120.753 40.4489 119.495 51.3861 116.57 61.5682C112.941 74.1338 105.718 85.556 97.576 96.2301C95.234 99.3029 91.0624 106.302 85.3658 103.145C83.0489 101.857 83.2195 99.5522 84.5753 97.8624C86.4754 95.4938 89.1952 93.5497 91.3452 91.3607C95.6884 86.8974 99.4818 80.9542 97.441 74.7846C95.5898 69.1392 89.0867 66.3543 83.6681 63.5163C78.4468 60.7744 73.9739 57.3469 70.6032 52.9146C67.1816 48.3984 64.9776 43.1996 64.1744 37.7509C63.3426 31.7521 64.0339 25.6633 66.1938 19.9639C67.984 15.1319 70.5472 9.86825 75.3885 6.78583C86.3212 -0.110845 98.8269 10.3997 104.689 18.1818C108.124 22.7597 110.736 27.9689 111.308 33.3494C111.843 38.557 110.492 43.774 107.465 48.1866C104.618 52.2889 100.026 55.4323 94.3673 56.1961C88.5314 56.9912 83.2278 54.9217 79.1352 51.2148C70.449 43.3346 71.1125 32.4035 74.0041 22.9695C75.2585 18.8781 77.0013 16.0637 77.4324 11.6622C77.8978 6.87252 76.4627 4.33281 79.0952 2.26484C80.4137 1.19656 82.6117 0.71719 84.2523 0.552356C89.2209 0.0453619 93.9219 2.42285 93.7968 2.98929Z" fill="#402B1D"/>
</svg>
