<svg width="80" height="80" viewBox="0 0 80 80" fill="none" xmlns="http://www.w3.org/2000/svg">
<path d="M21.0555 79.1489L22.1278 68.1872C22.1278 67.4108 21.8194 66.6661 21.2703 66.1171C20.7213 65.568 19.9766 65.2596 19.2002 65.2596H11.081C10.6002 65.2943 10.1172 65.2337 9.6599 65.0812C9.20257 64.9287 8.77987 64.6874 8.41609 64.371C8.05231 64.0547 7.75461 63.6696 7.5401 63.2379C7.32559 62.8062 7.1985 62.3363 7.16612 61.8553C7.16612 61.7702 7.16612 59.0979 7.16612 58.9277C7.1477 58.503 7.03597 58.0877 6.83886 57.7111C6.64176 57.3346 6.36412 57.0061 6.02569 56.7489C5.60063 56.4727 5.25168 56.0942 5.0108 55.6481C4.76993 55.2021 4.64483 54.7027 4.64697 54.1958L5.10654 53.4468C5.66682 52.4004 5.95371 51.2294 5.94058 50.0426L1.70229 49.3617C1.49574 49.2925 1.30909 49.1742 1.1584 49.0169C1.0077 48.8596 0.897472 48.6681 0.837189 48.4588C0.776906 48.2495 0.768375 48.0286 0.81233 47.8153C0.856284 47.602 0.951409 47.4025 1.08952 47.2341L4.25548 42.6723C4.91642 41.7396 5.3904 40.6876 5.65122 39.5745C5.81081 38.8758 5.90202 38.1632 5.92356 37.4468V34.8596M7.62569 28.0511V31.4553M14.4342 28.0511V31.4553M21.2427 28.0511V31.4553M61.464 25.2766C60.036 18.3805 56.2758 12.1869 50.8165 7.73821C45.3572 3.28952 38.5319 0.857353 31.4895 0.851074C23.3637 0.851074 15.5708 4.07903 9.82497 9.82482C4.07918 15.5706 0.851222 23.3636 0.851222 31.4894M49.5321 32.6809V33.8723C49.5284 36.2439 49.9077 38.6005 50.6555 40.8511L50.7746 41.2255M50.7746 55.1489L50.6555 55.5234C49.9096 57.7686 49.5302 60.1193 49.5321 62.4851C49.5302 64.851 49.9096 67.2016 50.6555 69.4468L50.7746 69.8213C51.5206 72.0665 51.8999 74.4171 51.898 76.783V79.166M43.5065 55.5064L43.6257 55.1319C44.3716 52.8867 44.7509 50.5361 44.7491 48.1702C44.7509 45.8044 44.3716 43.4537 43.6257 41.2085L43.5065 40.8511C42.7606 38.6059 42.3813 36.2552 42.3831 33.8894V30.2979M44.7661 79.1489V76.766C44.7698 74.3944 44.3904 72.0378 43.6427 69.7872L43.5236 69.4128M35.2342 27.9149V33.8723C35.2305 36.2439 35.6099 38.6005 36.3576 40.8511L36.4768 41.2255M36.4768 55.1489L36.3576 55.5234C35.6117 57.7686 35.2324 60.1193 35.2342 62.4851C35.2324 64.851 35.6117 67.2016 36.3576 69.4468L36.4768 69.8213C37.2227 72.0665 37.602 74.4171 37.6002 76.783V79.166M30.4512 79.166V76.766C30.4604 74.3953 30.0868 72.0388 29.3448 69.7872L29.2257 69.4128C28.4798 67.1676 28.1004 64.8169 28.1023 62.4511C28.1004 60.0852 28.4798 57.7345 29.2257 55.4894L29.3448 55.1149C30.0908 52.8697 30.4701 50.519 30.4682 48.1532C30.4701 45.7874 30.0908 43.4367 29.3448 41.1915L29.2087 40.8511C28.4627 38.6059 28.0834 36.2552 28.0853 33.8894M65.5321 38.3149H72.3406M58.7236 53.6341H79.1491M72.3406 41.7192V31.5064H65.5321V41.7192C63.7263 41.7192 61.9946 42.4365 60.7177 43.7133C59.4409 44.9902 58.7236 46.7219 58.7236 48.5277V79.166H79.1491V48.5277C79.1491 46.7219 78.4318 44.9902 77.1549 43.7133C75.8781 42.4365 74.1463 41.7192 72.3406 41.7192ZM60.4257 11.0809C62.6829 11.0809 64.8476 10.1842 66.4436 8.58815C68.0397 6.9921 68.9363 4.82738 68.9363 2.57022C68.9363 4.82738 69.833 6.9921 71.429 8.58815C73.0251 10.1842 75.1898 11.0809 77.447 11.0809C75.1898 11.0809 73.0251 11.9775 71.429 13.5736C69.833 15.1696 68.9363 17.3343 68.9363 19.5915C68.9363 17.3343 68.0397 15.1696 66.4436 13.5736C64.8476 11.9775 62.6829 11.0809 60.4257 11.0809ZM19.5746 21.2936C21.8318 21.2936 23.9965 20.397 25.5926 18.8009C27.1886 17.2049 28.0853 15.0402 28.0853 12.783C28.0853 15.0402 28.9819 17.2049 30.578 18.8009C32.174 20.397 34.3387 21.2936 36.5959 21.2936C34.3387 21.2936 32.174 22.1903 30.578 23.7863C28.9819 25.3824 28.0853 27.5471 28.0853 29.8043C28.0853 27.5471 27.1886 25.3824 25.5926 23.7863C23.9965 22.1903 21.8318 21.2936 19.5746 21.2936Z" stroke="#C28566" stroke-width="1.5" stroke-miterlimit="10" stroke-linecap="round"/>
</svg>
