<svg width="180" height="49" viewBox="0 0 180 49" fill="none" xmlns="http://www.w3.org/2000/svg">
<g clip-path="url(#clip0)">
<path d="M23.8019 9.67188H32.4409V48.4999H23.8019V33.2218H8.41617V48.4999H-0.238281V9.67188H8.40078V25.8759H23.7865L23.8019 9.67188Z" fill="#ECE7E5"/>
<path d="M68.1666 48.4999L64.5664 40.1124H48.3422L44.7419 48.4999H35.5105L52.2732 9.67188H60.6353L77.3596 48.5076L68.1666 48.4999ZM56.4812 21.2231L51.6039 32.5042H61.2969L56.4812 21.2231Z" fill="#ECE7E5"/>
<path d="M80.4675 9.67188H89.1066V48.4999H80.4675V9.67188Z" fill="#ECE7E5"/>
<path d="M126.432 22.558C126.432 28.7824 123.976 32.8 119.062 34.6107L128.863 48.4999H118.239L109.623 36.1154H103.638V48.4999H95.0068V9.67188H109.685C115.701 9.67188 119.993 10.7007 122.563 12.7584C125.132 14.816 126.422 18.0826 126.432 22.558ZM116.016 27.1877C117.088 26.2257 117.624 24.6979 117.624 22.6043C117.624 20.5106 117.072 19.0702 115.97 18.2832C114.862 17.5064 112.923 17.118 110.154 17.118H103.677V28.6152H109.992C112.941 28.6152 114.952 28.1342 116.024 27.1723L116.016 27.1877Z" fill="#ECE7E5"/>
<path d="M132.971 0.28125H142.772V7.17184L141.11 27.1723H134.571L132.964 7.17184L132.971 0.28125ZM134.387 38.1448C133.568 37.3394 133.054 36.2739 132.932 35.1304C132.81 33.9869 133.088 32.8364 133.719 31.8757C134.349 30.915 135.292 30.2038 136.387 29.8636C137.483 29.5234 138.662 29.5753 139.723 30.0106C140.784 30.4458 141.662 31.2373 142.205 32.2497C142.749 33.2622 142.926 34.4326 142.704 35.561C142.483 36.6894 141.878 37.7056 140.992 38.4358C140.106 39.1661 138.995 39.5651 137.848 39.5645C137.205 39.5767 136.566 39.4562 135.97 39.2107C135.375 38.9652 134.836 38.5998 134.387 38.137V38.1448Z" fill="#ECE7E5"/>
<path d="M159.027 17.4182C158.622 17.744 158.299 18.1597 158.083 18.6325C157.867 19.1053 157.763 19.6222 157.781 20.1421C157.777 20.6872 157.918 21.2236 158.188 21.6966C158.458 22.1697 158.848 22.5624 159.319 22.835C160.345 23.5038 162.689 24.2908 166.35 25.1962C170.012 26.1016 172.864 27.4622 174.905 29.2781C176.956 31.094 177.982 33.7432 177.982 37.2258C178.03 38.8474 177.701 40.4579 177.023 41.9307C176.345 43.4035 175.336 44.6985 174.074 45.7136C171.469 47.8793 168.043 48.9622 163.796 48.9622C157.642 48.9622 152.121 46.6833 147.234 42.1256L152.388 35.7906C156.562 39.4584 160.409 41.2922 163.927 41.2922C165.252 41.3687 166.565 41.0082 167.666 40.266C168.1 39.9489 168.451 39.53 168.687 39.0458C168.923 38.5616 169.037 38.0268 169.02 37.4881C169.033 36.9409 168.909 36.3992 168.657 35.9135C168.405 35.4277 168.035 35.0138 167.581 34.7103C166.622 34.0261 164.719 33.3317 161.873 32.6269C157.37 31.5518 154.075 30.1526 151.988 28.4293C149.901 26.706 148.857 23.9976 148.857 20.3041C148.857 16.6209 150.177 13.7788 152.819 11.7777C155.69 9.70386 159.168 8.6478 162.704 8.77607C165.345 8.7862 167.965 9.23734 170.458 10.111C172.926 10.936 175.217 12.2185 177.213 13.8919L172.835 20.2269C169.89 17.811 166.223 16.4529 162.419 16.3688C161.201 16.3093 160 16.6807 159.027 17.4182Z" fill="#ECE7E5"/>
</g>
<defs>
<clipPath id="clip0">
<rect width="180" height="49" fill="white"/>
</clipPath>
</defs>
</svg>
