<svg width="184" height="48" viewBox="0 0 184 48" fill="none" xmlns="http://www.w3.org/2000/svg">
<path d="M164.746 1.37146C154.342 1.44584 145.832 13.0081 145.832 23.093C145.832 33.7057 152.07 46.6516 164.746 46.6096C177.421 46.5675 184 32.6302 184 23.093C184 12.5584 175.149 1.29708 164.746 1.37146ZM164.746 1.76703C173.453 1.76703 175.802 11.3832 175.802 23.093C175.802 38.5438 172.969 46.1665 164.746 46.152C156.523 46.1375 153.848 39.8987 153.848 23.093C153.848 12.5656 156.038 1.76703 164.746 1.76703Z" fill="#ECE7E5"/>
<path d="M108.066 23.377C108.019 11.902 117.204 1.73724 124.979 1.23292C127.787 1.03397 131.397 2.31996 133.504 3.23605C135.035 3.90127 138.159 2.93839 138.714 1.17188H139.016V16.8031H138.714C138.714 16.1367 135.819 1.62592 124.979 1.62592C116.972 1.62592 116.198 15.7041 116.198 23.377C116.198 31.05 116.432 46.2398 125.775 46.2398C130.301 46.2398 133.652 44.2596 134.52 40.2536V28.0729H130.721V27.554H145.448V28.0729H141.815V45.8811H141.52C141.52 45.8811 140.929 43.3116 137.933 43.3202C134.103 43.3311 130.491 46.6582 126.088 46.6177C114.445 46.5106 108.112 34.8521 108.066 23.377Z" fill="#ECE7E5"/>
<path d="M5.75116 2.90994H1.16577V2.39453H17.2286V2.90994H13.1988L24.6762 34.0772C28.2651 23.0283 31.0455 14.861 34.7871 2.90994H30.8011V2.39453H39.2824V2.90994H35.4201L21.4706 46.3943L5.75116 2.90994Z" fill="#ECE7E5"/>
<path d="M43.2099 35.7481L43.1373 2.85983H38.7727V2.36719H54.8528V2.85983H50.4907L50.5876 38.9201C51.5532 43.0493 53.2701 46.1824 59.1356 46.2291C65.0011 46.2757 68.9887 42.7594 70.4706 37.954V2.85983H65.4777L65.4776 2.3817H106.344L106.429 18.1694H106.036C105.278 7.97587 101.345 4.12345 94.4656 2.99956C92.0984 2.61283 89.6151 2.89952 86.4758 2.87512V23.0244C89.2095 23.2356 92.1215 23.0628 94.0839 21.3774C95.8684 19.8448 96.3728 16.3038 96.504 14.8652H96.8495V32.409H96.4756C96.3676 32.409 96.224 28.0064 94.0839 25.9177C91.9298 23.8153 89.1866 23.2984 86.4758 23.7993V45.3231C90.3049 45.3231 93.3572 45.6474 96.0079 44.9208C104.065 42.7119 106.902 35.9145 106.88 29.097H107.328V45.8327H75.2737V45.3231H78.8981V2.85983H71.0673V37.954C70.1798 41.3118 66.9359 46.8669 58.6225 46.829C50.8929 46.7938 43.2266 43.3092 43.2099 35.7481Z" fill="#ECE7E5"/>
</svg>
