<svg width="89" height="48" viewBox="0 0 89 48" fill="none" xmlns="http://www.w3.org/2000/svg">
<path d="M47 24.024C47 22.8111 47 23.0161 47 21.9689H33.3433C34.9052 27.7286 31.2606 31.3939 31.2606 31.3939C31.2606 31.3939 28.6574 34.5355 23.4508 34.5355C18.5366 34.5355 13.6331 30.4169 13.5219 24.1429C13.4058 17.6427 18.8377 13.4061 23.9714 13.5912C28.1406 13.7415 30.175 15.6901 32.5 18C32.5 18 45.6455 18 46 18C45.5967 16.4351 44.6783 13.3245 42.9691 10.8767C42.8263 10.673 42.6807 10.4676 42.5268 10.2639C39.1088 5.67191 33.1702 1.00996 23.9428 1.00002C13.1009 0.984702 4.73306 8.30062 1.97357 17.258C1.94075 17.3661 1.90916 17.4742 1.87675 17.5831C1.87675 17.5881 1.8747 17.5955 1.87265 17.5997C1.30606 19.6039 1 21.7191 1 23.9035C1.02051 25.9951 1.28965 27.9973 1.77869 29.8865C3.51988 36.4218 8.05174 41.8155 14.0183 44.7084C14.0663 44.7311 14.1139 44.7547 14.1631 44.7763C14.1939 44.7928 14.2255 44.8049 14.2538 44.8193C17.2648 46.2016 20.6471 46.9714 24.2382 47C31.8528 46.9379 38.5878 43.177 42.7373 37.4214C42.8222 37.3026 47 31.2029 47 24.024Z" fill="#ECE7E5"/>
<path d="M81.7293 10.8066C81.7293 10.8066 85.9802 16.2592 85.9962 23.5193C86.0301 37.7774 76.0863 46.9793 62.2143 47C54.1778 47.0124 46.7685 42.7192 42.9742 37.5682C39.5993 32.9855 39.043 29.1674 39.043 26.3901C38.883 22.9349 39.2211 21.3008 39.2211 21.3008C40 17.5 41.1016 14.1642 43.2365 11.0775C47.2766 5.23439 53.9848 1 62.2938 1C67.8082 0.999172 71.7089 3.60078 72.4137 3.97687L73.8751 2.27699H88L81.7293 10.8066ZM73.1308 20.8117L71.925 22.2999H57.5956L63.4213 13.9943C57.3593 12.801 51.6297 17.9748 51.7134 23.9012C51.7983 29.9564 56.6636 34.4538 62.4815 34.4145C68.8684 34.3739 75.2397 27.419 73.1308 20.8117Z" fill="#B3A59E"/>
<path opacity="0.5" d="M46 18C45.6379 16.363 44.7411 13.8864 43.2066 11.3271C43.1425 11.2183 43.0729 11.1096 43.007 11C43.1539 11.2393 43.3005 11.4241 43.124 11.1905C41.5052 13.7628 40.5 15.5 40 18C42.9576 18.0009 45.8468 18 46 18Z" fill="#F3F3F3"/>
<path opacity="0.5" d="M47.0001 24.2793C47.0001 23.0016 47.0001 21.9994 47.0001 21.9994H39.0001C39.0001 21.5963 39.0001 22.4007 39.0001 21.9994C38.8455 25.6388 39.0001 27.9981 39.0001 27.9981C39.5001 31.4981 40.5001 33.9981 43.0001 37.4981C43.8803 35.9844 47.0001 32.5 47.0001 24.2793Z" fill="#F3F3F3"/>
</svg>
