<svg width="272" height="96" viewBox="0 0 272 96" fill="none" xmlns="http://www.w3.org/2000/svg">
<mask id="mask0" style="mask-type:alpha" maskUnits="userSpaceOnUse" x="0" y="0" width="272" height="96">
<rect width="272" height="96" rx="4" fill="#C4C4C4"/>
</mask>
<g mask="url(#mask0)">
<path d="M208.579 25.1996C198.176 25.274 189.666 36.8362 189.666 46.9212C189.666 57.5339 195.904 70.4797 208.579 70.4377C221.255 70.3957 227.834 56.4584 227.834 46.9212C227.834 36.3865 218.983 25.1252 208.579 25.1996ZM208.579 25.5952C217.287 25.5952 219.636 35.2114 219.636 46.9212C219.636 62.372 216.802 69.9947 208.579 69.9801C200.357 69.9656 197.682 63.7268 197.682 46.9212C197.682 36.3937 199.872 25.5952 208.579 25.5952Z" fill="#3D3D3D"/>
<path d="M151.9 47.2052C151.853 35.7301 161.037 25.5654 168.812 25.061C171.621 24.8621 175.231 26.1481 177.338 27.0642C178.868 27.7294 181.993 26.7665 182.547 25H182.85V40.6312H182.547C182.547 39.9649 179.652 25.454 168.812 25.454C160.806 25.454 160.032 39.5322 160.032 47.2052C160.032 54.8781 160.265 70.0679 169.609 70.0679C174.135 70.0679 177.485 68.0878 178.354 64.0818V51.901H174.555V51.3821H189.281V51.901H185.649V69.7092H185.353C185.353 69.7092 184.763 67.1397 181.766 67.1483C177.937 67.1592 174.325 70.4863 169.922 70.4458C158.279 70.3387 151.946 58.6803 151.9 47.2052Z" fill="#3D3D3D"/>
<path d="M49.5854 26.7381H45V26.2227H61.0628V26.7381H57.0331L68.5104 57.9053C72.0994 46.8564 74.8797 38.6891 78.6213 26.7381H74.6354V26.2227H83.1166V26.7381H79.2543L65.3049 70.2224L49.5854 26.7381Z" fill="#3D3D3D"/>
<path d="M87.0446 59.5762L86.972 26.688H82.6074V26.1953H98.6875V26.688H94.3254L94.4223 62.7482C95.3879 66.8774 97.1048 70.0105 102.97 70.0572C108.836 70.1038 112.823 66.5875 114.305 61.7821V26.688H109.312L109.312 26.2098H150.179L150.264 41.9975H149.871C149.113 31.804 145.179 27.9516 138.3 26.8277C135.933 26.441 133.45 26.7276 130.31 26.7032V46.8525C133.044 47.0637 135.956 46.8909 137.919 45.2055C139.703 43.6729 140.208 40.1319 140.339 38.6933H140.684V56.2371H140.31C140.202 56.2371 140.059 51.8346 137.919 49.7458C135.764 47.6434 133.021 47.1265 130.31 47.6274V69.1512C134.14 69.1512 137.192 69.4756 139.843 68.7489C147.9 66.54 150.737 59.7426 150.715 52.9252H151.163V69.6608H119.108V69.1512H122.733V26.688H114.902V61.7821C114.015 65.1399 110.771 70.6951 102.457 70.6572C94.7276 70.6219 87.0613 67.1373 87.0446 59.5762Z" fill="#3D3D3D"/>
</g>
</svg>
