<svg width="272" height="96" viewBox="0 0 272 96" fill="none" xmlns="http://www.w3.org/2000/svg">
<mask id="mask0" style="mask-type:alpha" maskUnits="userSpaceOnUse" x="0" y="0" width="272" height="96">
<rect width="272" height="96" rx="4" fill="#C4C4C4"/>
</mask>
<g mask="url(#mask0)">
</g>
<g clip-path="url(#clip0)">
<path d="M69.8019 33.6719H78.4409V72.4999H69.8019V57.2218H54.4162V72.4999H45.7617V33.6719H54.4008V49.8759H69.7865L69.8019 33.6719Z" fill="#3D3D3D"/>
<path d="M114.167 72.4999L110.567 64.1124H94.3424L90.7422 72.4999H81.5107L98.2734 33.6719H106.636L123.36 72.5076L114.167 72.4999ZM102.481 45.2231L97.6042 56.5042H107.297L102.481 45.2231Z" fill="#3D3D3D"/>
<path d="M126.468 33.6719H135.107V72.4999H126.468V33.6719Z" fill="#3D3D3D"/>
<path d="M172.432 46.558C172.432 52.7824 169.976 56.8 165.062 58.6107L174.863 72.4999H164.239L155.623 60.1154H149.638V72.4999H141.007V33.6719H155.685C161.701 33.6719 165.993 34.7007 168.563 36.7584C171.132 38.816 172.422 42.0826 172.432 46.558ZM162.016 51.1877C163.088 50.2257 163.624 48.6979 163.624 46.6043C163.624 44.5106 163.072 43.0702 161.97 42.2832C160.862 41.5064 158.923 41.118 156.154 41.118H149.677V52.6152H155.992C158.941 52.6152 160.952 52.1342 162.024 51.1723L162.016 51.1877Z" fill="#3D3D3D"/>
<path d="M178.971 24.2812H188.772V31.1718L187.11 51.1723H180.571L178.964 31.1718L178.971 24.2812ZM180.387 62.1448C179.568 61.3394 179.054 60.2739 178.932 59.1304C178.81 57.9869 179.088 56.8364 179.719 55.8757C180.349 54.915 181.292 54.2038 182.387 53.8636C183.483 53.5234 184.662 53.5753 185.723 54.0106C186.784 54.4458 187.662 55.2373 188.205 56.2497C188.749 57.2622 188.926 58.4326 188.704 59.561C188.483 60.6894 187.878 61.7056 186.992 62.4358C186.106 63.1661 184.995 63.5651 183.848 63.5645C183.205 63.5767 182.566 63.4562 181.97 63.2107C181.375 62.9652 180.836 62.5998 180.387 62.137V62.1448Z" fill="#3D3D3D"/>
<path d="M205.027 41.4182C204.622 41.744 204.299 42.1597 204.083 42.6325C203.866 43.1053 203.763 43.6222 203.78 44.1421C203.777 44.6872 203.917 45.2236 204.188 45.6966C204.458 46.1697 204.848 46.5624 205.319 46.835C206.345 47.5038 208.688 48.2908 212.35 49.1962C216.012 50.1016 218.863 51.4622 220.905 53.2781C222.956 55.094 223.982 57.7432 223.982 61.2258C224.029 62.8474 223.701 64.4579 223.023 65.9307C222.345 67.4035 221.335 68.6985 220.074 69.7136C217.468 71.8793 214.043 72.9622 209.796 72.9622C203.642 72.9622 198.121 70.6833 193.233 66.1256L198.388 59.7906C202.562 63.4584 206.409 65.2922 209.927 65.2922C211.251 65.3687 212.564 65.0082 213.666 64.266C214.1 63.9489 214.451 63.53 214.687 63.0458C214.923 62.5616 215.037 62.0268 215.02 61.4881C215.033 60.9409 214.908 60.3992 214.657 59.9135C214.405 59.4277 214.035 59.0138 213.581 58.7103C212.622 58.0261 210.719 57.3317 207.873 56.6269C203.37 55.5518 200.075 54.1526 197.988 52.4293C195.9 50.706 194.857 47.9976 194.857 44.3041C194.857 40.6209 196.177 37.7788 198.818 35.7777C201.69 33.7039 205.168 32.6478 208.704 32.7761C211.344 32.7862 213.965 33.2373 216.458 34.111C218.926 34.936 221.217 36.2185 223.212 37.8919L218.835 44.2269C215.89 41.811 212.223 40.4529 208.419 40.3688C207.201 40.3093 206 40.6807 205.027 41.4182Z" fill="#3D3D3D"/>
</g>
<defs>
<clipPath id="clip0">
<rect width="180" height="49" fill="white" transform="translate(46 24)"/>
</clipPath>
</defs>
</svg>
