<svg width="272" height="96" viewBox="0 0 272 96" fill="none" xmlns="http://www.w3.org/2000/svg">
<mask id="mask0" style="mask-type:alpha" maskUnits="userSpaceOnUse" x="0" y="0" width="272" height="96">
<rect width="272" height="96" rx="4" fill="#C4C4C4"/>
</mask>
<g mask="url(#mask0)">
</g>
<g clip-path="url(#clip0)">
<path d="M86.7955 61.3367L84.5215 53.4417L83.567 49.189C83.7078 49.1522 83.5931 48.868 83.5878 48.8258C82.7794 42.0835 77.6213 42.8414 74.2729 43.9994C74.2729 43.9994 74.0954 44.1678 74.1007 43.9468C74.1112 43.6731 74.1163 40.9413 74.1163 40.2045C74.1163 40.0308 74.2677 39.9781 74.2677 39.9781C78.4506 38.1255 84.5057 38.2834 88.2298 40.1624C91.0252 41.5782 92.6525 43.7204 94.1912 50.1521C94.6136 51.9312 95.0986 54.3786 96.4442 59.6946C97.0911 62.2473 97.7742 63.2 99.1667 62.9316C99.339 62.9 99.3441 62.9895 99.3441 63.1421C99.339 64.3527 99.339 66.379 99.339 66.5211C99.339 66.9422 99.339 66.9422 99.1981 66.937C99.0208 66.9317 95.349 66.9422 95.349 66.9422C93.6747 66.9317 91.6355 66.9317 88.986 64.5947L86.7955 61.3367Z" fill="#3D3D3D"/>
<path d="M86.7952 61.3274C86.8577 61.517 86.5865 61.7064 86.4092 61.7907C80.6251 65.1118 78.5231 55.2746 84.156 53.3798C84.3856 53.3167 84.5212 53.4324 84.5212 53.4324L83.5667 49.1797C80.5573 49.8481 75.8267 51.2219 73.7771 53.1746C69.1926 57.5431 71.1693 64.5802 76.2023 66.4013C79.0135 67.4172 84.8236 68.2225 88.9856 64.5855L86.7952 61.3274Z" fill="#3D3D3D"/>
<path d="M126.112 38.1295C129.298 38.1295 131.885 36.0242 131.885 33.4241C131.885 30.8241 129.298 28.7188 126.112 28.7188C122.92 28.7188 120.338 30.8241 120.338 33.4241C120.338 36.0242 122.92 38.1295 126.112 38.1295Z" fill="#3D3D3D"/>
<path d="M224.774 38.1295C227.96 38.1295 230.547 36.0242 230.547 33.4241C230.547 30.8241 227.96 28.7188 224.774 28.7188C221.582 28.7188 219 30.8241 219 33.4241C219 36.0242 221.582 38.1295 224.774 38.1295Z" fill="#3D3D3D"/>
<path d="M68.479 64.7931C68.4738 66.0616 68.7659 66.5458 68.8649 66.7563C68.9484 66.9459 68.698 66.9195 68.698 66.9195H66.7475H58.6163C58.6163 66.9195 58.4181 66.9301 58.4807 66.7563C58.6007 66.4143 58.8458 65.7985 58.8458 64.7931L58.8353 63.4773V50.9717V48.6189C58.8302 47.7347 58.2878 45.8347 56.165 45.8294C54.4073 45.8452 52.7696 47.4558 52.7645 49.6874V54.356L52.7593 63.672C52.7593 63.672 52.7645 64.7458 52.7645 64.7931C52.7593 66.0616 53.0513 66.5458 53.1503 66.7563C53.2339 66.9459 52.9835 66.9195 52.9835 66.9195H51.038H42.9018C42.9018 66.9195 42.7036 66.9301 42.7661 66.7563C42.8862 66.4143 43.126 65.7985 43.1313 64.7931V64.0931V50.9875V48.6347C43.126 47.7452 42.5836 45.8504 40.4557 45.8399C38.7033 45.8557 37.0603 47.4663 37.0603 49.6979V50.9032V64.0405L37.05 64.7931C37.05 66.0616 37.3421 66.5458 37.4358 66.7563C37.5194 66.9459 37.2743 66.9195 37.2743 66.9195H35.3235H27.1925C27.1925 66.9195 26.9891 66.9301 27.0516 66.7563C27.1769 66.4143 27.4115 65.7985 27.422 64.7931V63.9089C27.422 60.6404 27.4168 46.2873 27.4115 44.9662C27.422 44.103 27.1508 43.4872 27.0204 43.1503C26.9421 42.9767 27.1142 42.8977 27.1142 42.8977C27.1142 42.8977 30.8226 41.2187 36.8986 38.387C36.9612 38.3608 37.0656 38.3975 37.0603 38.5081V40.9766V43.0977C37.0603 43.2135 37.1856 43.2767 37.2794 43.1767C37.3316 43.1241 37.3941 43.0398 37.4777 42.9451C40.8103 37.8186 51.1842 36.987 52.8166 43.1241C52.8479 43.2293 52.9627 43.2187 53.0305 43.1241C55.0853 40.345 57.1456 38.9449 61.3805 38.9449C69.6629 38.9449 68.4685 46.0715 68.4633 50.4611L68.4685 63.4773L68.479 64.7931Z" fill="#3D3D3D"/>
<path d="M111.646 64.8176C111.641 66.0808 111.933 66.5703 112.027 66.7808C112.116 66.9704 111.865 66.944 111.865 66.944H109.398H101.267C101.267 66.944 101.064 66.9493 101.126 66.7808C101.246 66.4335 101.486 65.823 101.492 64.8176L101.497 64.0597C101.497 60.8018 101.492 46.8908 101.492 45.5696C101.492 44.8328 101.001 43.459 100.907 43.2117C100.845 43.0801 101.048 43.0274 101.048 43.0274C101.048 43.0274 105.44 40.7642 111.49 37.9378C111.553 37.9115 111.652 37.9484 111.652 38.0589V40.8063C111.652 41.1748 111.688 42.3274 111.688 42.4801C111.688 42.6011 111.813 42.6643 111.902 42.5643C111.954 42.5064 112.022 42.4274 112.1 42.3274C114.358 37.8537 117.947 37.9957 120.675 38.4063C121.024 38.4589 120.977 38.5747 120.883 39.0379C120.706 39.9221 119.501 44.9275 119.397 45.2959C119.313 45.6065 119.23 45.7434 118.86 45.6644C115.433 44.9381 111.652 46.0644 111.652 50.3751V50.9962C111.652 54.1384 111.652 61.8229 111.657 64.065L111.646 64.8176Z" fill="#3D3D3D"/>
<path d="M131.512 64.8107C131.507 66.0739 131.799 66.5634 131.893 66.7739C131.981 66.9635 131.731 66.9371 131.731 66.9371H129.248H121.117C121.117 66.9371 120.914 66.9477 120.971 66.7739C121.096 66.4266 121.336 65.8161 121.341 64.8107L121.347 64.6633V43.3259C121.347 42.7995 121.347 42.7942 121.717 42.6258C121.91 42.5363 121.842 42.5679 121.842 42.5679C121.842 42.5679 125.347 40.8205 131.194 38.0414C131.256 38.0099 131.501 38.052 131.496 38.1626C131.496 39.0046 131.507 62.4475 131.512 64.7107V64.8107Z" fill="#3D3D3D"/>
<path d="M230.174 64.8107C230.169 66.0739 230.461 66.5634 230.555 66.7739C230.643 66.9635 230.393 66.9371 230.393 66.9371H227.91H219.779C219.779 66.9371 219.576 66.9477 219.633 66.7739C219.758 66.4266 219.998 65.8161 220.004 64.8107L220.009 64.6633V43.3259C220.009 42.7995 220.009 42.7942 220.379 42.6258C220.572 42.5363 220.504 42.5679 220.504 42.5679C220.504 42.5679 224.009 40.8205 229.856 38.0414C229.918 38.0099 230.164 38.052 230.158 38.1626C230.158 39.0046 230.169 62.4475 230.174 64.7107V64.8107Z" fill="#3D3D3D"/>
<path d="M167.623 62.0813C165.187 63.334 161.552 63.7393 159.382 60.955C157.223 58.1812 156.159 55.7548 156.164 51.7811C156.169 42.7492 162.381 41.5649 167.096 44.2229V39.5806C164.436 38.2174 160.926 37.9806 158.287 38.2596C150.427 39.1069 145.837 45.7545 145.832 53.3179C145.827 61.5602 151.042 71.4238 167.623 66.8394V62.0813Z" fill="#3D3D3D"/>
<path d="M184.644 61.6193C184.706 61.8194 184.602 61.8825 184.419 61.9772C183.157 62.7878 180.993 62.9668 179.72 61.772C178.52 60.3403 177.895 58.7035 178.4 56.656C178.802 55.3981 180.08 53.2032 182.213 52.819L181.53 48.7031C181.535 48.7769 181.53 48.7716 181.316 48.8189C180.669 48.9821 180.325 49.0453 179.204 49.2347C176.841 49.6294 174.171 50.44 171.949 52.1875C165.612 57.156 168.585 64.4668 173.733 66.6142C176.737 67.8669 182.041 68.5985 186.422 64.9089L184.644 61.6193Z" fill="#3D3D3D"/>
<path d="M184.644 61.6203L182.292 52.8569C182.292 52.8569 182.292 52.7938 182.214 52.8201L181.53 48.7042C181.061 41.3513 175.209 42.0303 171.96 43.2566C171.96 43.2566 171.777 43.4303 171.788 43.1987C171.793 42.9146 171.803 40.0776 171.803 39.3144C171.798 39.1302 171.954 39.0828 171.954 39.0828C176.09 37.2512 182.412 37.4986 186.063 39.346C189.265 40.9618 190.856 43.9303 191.497 46.4831C191.497 46.4831 194.371 59.715 194.694 61.1467C194.955 62.2941 195.696 63.2941 196.854 63.2888C197.313 63.2888 197.375 63.3784 197.38 63.8573C197.386 65.0152 197.391 66.7995 197.386 67.0469C197.38 67.3469 197.36 67.4574 197.135 67.4574C196.953 67.4574 193.161 67.4626 193.161 67.4626C191.122 67.4521 189.442 67.4469 186.422 64.9099L184.644 61.6203Z" fill="#3D3D3D"/>
<path d="M216.735 45.4393C214.242 45.4026 213.616 45.2447 212.302 45.713C210.664 46.3447 209.537 47.6605 209.506 49.6658V50.8817V64.8189V65.3769C209.506 66.1874 209.866 66.798 209.949 67.0138C209.96 67.0348 209.928 67.0506 209.928 67.0506H207.19H198.793C198.793 67.0506 198.762 67.0348 198.767 67.0085C198.845 66.8137 199.21 66.1769 199.21 65.3769V64.7769V44.8867C199.153 44.1341 198.851 43.2235 198.762 42.9867C198.699 42.8551 198.903 42.8077 198.903 42.8077C198.903 42.8077 203.206 40.7971 209.339 37.9444C209.397 37.9128 209.506 37.9497 209.501 38.0655V40.555C209.501 40.9235 209.542 42.0972 209.542 42.2551C209.542 42.3709 209.668 42.434 209.762 42.334C209.814 42.2761 209.876 42.1971 209.96 42.0972C212.432 37.476 216.469 38.0602 218.524 38.3865C218.878 38.4392 218.826 38.5549 218.732 39.0234C218.55 39.9181 217.387 44.692 217.282 45.0656C217.194 45.3815 217.116 45.4499 216.735 45.4393Z" fill="#3D3D3D"/>
</g>
<defs>
<clipPath id="clip0">
<rect width="217" height="40" fill="white" transform="translate(27 28)"/>
</clipPath>
</defs>
</svg>
