<svg width="272" height="96" viewBox="0 0 272 96" fill="none" xmlns="http://www.w3.org/2000/svg">
<mask id="mask0" style="mask-type:alpha" maskUnits="userSpaceOnUse" x="0" y="0" width="272" height="96">
<rect width="272" height="96" rx="4" fill="#C4C4C4"/>
</mask>
<g mask="url(#mask0)">
</g>
<path d="M139 48.024C139 46.8111 139 47.0161 139 45.9689H125.343C126.905 51.7286 123.261 55.3939 123.261 55.3939C123.261 55.3939 120.657 58.5355 115.451 58.5355C110.537 58.5355 105.633 54.4169 105.522 48.1429C105.406 41.6427 110.838 37.4061 115.971 37.5912C120.141 37.7415 122.175 39.6901 124.5 42C124.5 42 137.646 42 138 42C137.597 40.4351 136.678 37.3245 134.969 34.8767C134.826 34.673 134.681 34.4676 134.527 34.2639C131.109 29.6719 125.17 25.01 115.943 25C105.101 24.9847 96.7331 32.3006 93.9736 41.258C93.9408 41.3661 93.9092 41.4742 93.8767 41.5831C93.8767 41.5881 93.8747 41.5955 93.8726 41.5997C93.3061 43.6039 93 45.7191 93 47.9035C93.0205 49.9951 93.2897 51.9973 93.7787 53.8865C95.5199 60.4218 100.052 65.8155 106.018 68.7084C106.066 68.7311 106.114 68.7547 106.163 68.7763C106.194 68.7928 106.225 68.8049 106.254 68.8193C109.265 70.2016 112.647 70.9714 116.238 71C123.853 70.9379 130.588 67.177 134.737 61.4214C134.822 61.3026 139 55.2029 139 48.024Z" fill="#ECE7E5"/>
<path d="M173.729 34.8066C173.729 34.8066 177.98 40.2592 177.996 47.5193C178.03 61.7774 168.086 70.9793 154.214 71C146.178 71.0124 138.769 66.7192 134.974 61.5682C131.599 56.9855 131.043 53.1674 131.043 50.3901C130.883 46.9349 131.221 45.3008 131.221 45.3008C132 41.5 133.102 38.1642 135.236 35.0775C139.277 29.2344 145.985 25 154.294 25C159.808 24.9992 163.709 27.6008 164.414 27.9769L165.875 26.277H180L173.729 34.8066ZM165.131 44.8117L163.925 46.2999H149.596L155.421 37.9943C149.359 36.801 143.63 41.9748 143.713 47.9012C143.798 53.9564 148.664 58.4538 154.481 58.4145C160.868 58.3739 167.24 51.419 165.131 44.8117Z" fill="#B3A59E"/>
<path opacity="0.5" d="M138 42C137.638 40.363 136.741 37.8864 135.207 35.3271C135.143 35.2183 135.073 35.1096 135.007 35C135.154 35.2393 135.3 35.4241 135.124 35.1905C133.505 37.7628 132.5 39.5 132 42C134.958 42.0009 137.847 42 138 42Z" fill="#F3F3F3"/>
<path opacity="0.5" d="M139 48.2793C139 47.0016 139 45.9994 139 45.9994H131C131 45.5963 131 46.4007 131 45.9994C130.846 49.6388 131 51.9981 131 51.9981C131.5 55.4981 132.5 57.9981 135 61.4981C135.881 59.9844 139 56.5 139 48.2793Z" fill="#F3F3F3"/>
</svg>
