<svg width="652" height="352" viewBox="0 0 652 352" fill="none" xmlns="http://www.w3.org/2000/svg">
<g clip-path="url(#clip0_1248:9464)">
<path opacity="0.6" d="M423.236 415.205C412.097 446.869 370.183 462.024 340.695 446.361C327.154 453.114 311.53 451.54 296.79 449.549C280.676 447.929 265.083 446.569 248.889 445.366C185.082 440.614 171.382 443.694 156.221 435.066C103.391 472.63 38.7207 413.851 66.2593 358.142C93.7979 302.432 145.141 251.522 206.978 236.803C275.072 220.594 343.119 246.603 387.183 295.061C399.93 309.08 403.182 336.98 414.275 352.332C429.837 373.866 431.773 390.906 423.236 415.205Z" fill="#AB6A49"/>
<path opacity="0.2" d="M162.731 420.515C139.409 484.093 83.9336 452.477 61.0983 456.824C20.8672 458.576 -5.96521 478.442 -34.1956 444.721C-69.0475 468.466 -113.628 448.432 -121.572 409.559C-127.774 377.13 -101.237 345.381 -84.3971 329.707C-44.5918 293.151 16.3999 278.248 68.8891 290.157C120.571 301.888 182.294 361.259 162.731 420.515Z" fill="#FCF9F7"/>
</g>
<g opacity="0.15" clip-path="url(#clip1_1248:9464)">
<path d="M509.623 93.5967C509.417 93.9491 509.36 94.3687 509.463 94.7634C509.567 95.1581 509.823 95.4955 510.176 95.7013C510.529 95.9071 510.949 95.9646 511.343 95.861C511.738 95.7574 512.076 95.5013 512.282 95.1489C512.81 94.159 513.368 93.1797 513.954 92.2108C518.523 84.6003 524.574 77.7302 531.932 72.7529C535.848 70.054 540.174 68.0055 544.743 66.6866C549.304 65.4425 554.026 64.8886 558.751 65.0434C568.657 65.281 578.25 68.124 587.555 71.4423C592.698 73.2769 597.785 75.2647 602.814 77.4055C606.777 79.0963 610.89 81.0128 614.25 83.5985C615.944 84.878 617.448 86.3911 618.716 88.0927C620.071 90.0391 621.152 92.163 621.926 94.4045C623.61 99.0809 624.573 103.971 626.59 108.529L628.698 106.41L626.07 104.755C618.451 99.9758 610.72 95.3588 602.767 91.1576C594.655 86.8732 586.287 82.9729 577.585 80.0348C569.6 77.3382 561.271 75.5722 552.823 75.3821C544.957 75.2039 536.992 76.4354 529.686 79.4012C522.133 82.4926 515.365 87.227 509.873 93.2602C509.73 93.4029 509.617 93.5724 509.539 93.7589C509.462 93.9453 509.422 94.1452 509.422 94.3471C509.422 94.549 509.462 94.7488 509.539 94.9353C509.617 95.1218 509.73 95.2913 509.873 95.4341C510.016 95.5768 510.185 95.69 510.372 95.7672C510.559 95.8445 510.759 95.8842 510.961 95.8842C511.163 95.8842 511.363 95.8445 511.549 95.7672C511.736 95.69 511.905 95.5768 512.048 95.4341C512.748 94.6711 513.467 93.9254 514.204 93.1968C519.653 87.8121 526.25 83.7282 533.501 81.2504C540.876 78.7756 548.405 78.051 556.179 78.6053C560.186 78.9005 564.162 79.5243 568.067 80.4703C572.184 81.478 576.236 82.7356 580.2 84.236C588.624 87.3602 596.712 91.3397 604.59 95.6479C612.269 99.8491 619.75 104.403 627.144 109.087C627.439 109.255 627.781 109.322 628.118 109.279C628.455 109.235 628.768 109.083 629.011 108.846C629.242 108.6 629.39 108.287 629.434 107.952C629.477 107.617 629.414 107.277 629.252 106.98C628.777 105.911 628.377 104.811 628.004 103.698C626.419 98.9463 625.433 93.9452 623.126 89.443C620.927 85.1507 617.46 81.8444 613.41 79.2943C609.285 76.6968 604.716 74.8555 600.219 73.0142C595.007 70.8813 589.731 68.9014 584.392 67.0747C574.954 63.8792 564.996 61.5311 554.967 61.9905C549.945 62.1787 544.985 63.1652 540.273 64.9127C535.717 66.6809 531.445 69.1077 527.593 72.1154C520.128 77.8609 514.121 85.321 509.643 93.5848L509.623 93.5967ZM622.904 139.695C621.507 137.227 620.022 134.812 618.451 132.449C616.866 130.105 615.28 127.892 613.573 125.809C611.793 123.611 609.895 121.512 607.886 119.521C606.906 118.552 605.898 117.614 604.863 116.706C604.335 116.236 603.789 115.774 603.226 115.32L602.458 114.698L602.061 114.393L601.784 114.179C597.207 110.699 592.024 107.614 586.489 106.066C585.007 105.642 583.485 105.377 581.948 105.274C581.156 105.225 580.362 105.225 579.57 105.274C579.232 105.295 578.894 105.325 578.556 105.365C578.373 105.385 578.556 105.365 578.579 105.365L578.35 105.401L577.815 105.496C577.151 105.626 576.495 105.798 575.853 106.01C575.556 106.109 575.263 106.216 574.973 106.331C574.902 106.353 574.833 106.382 574.767 106.418L574.272 106.648C573.691 106.931 573.13 107.253 572.592 107.61C572.098 107.924 571.637 108.288 571.217 108.695C570.317 109.481 569.58 110.436 569.049 111.506C568.978 111.644 568.911 111.776 568.847 111.902C568.808 111.99 568.673 112.326 568.772 112.065C568.669 112.334 568.574 112.607 568.491 112.888C568.408 113.169 568.344 113.443 568.293 113.724C568.269 113.843 568.229 114.12 568.265 113.835C568.245 113.985 568.229 114.14 568.217 114.29C568.172 114.834 568.172 115.381 568.217 115.925C568.217 116.048 568.261 116.321 568.217 116.036C568.217 116.167 568.257 116.298 568.281 116.432C568.331 116.712 568.392 116.991 568.463 117.268C568.534 117.545 568.618 117.819 568.713 118.091C568.755 118.218 568.8 118.344 568.847 118.468L568.919 118.654C569.002 118.875 568.824 118.44 568.919 118.654C569.144 119.165 569.402 119.661 569.691 120.139C569.831 120.368 569.978 120.594 570.131 120.816L570.365 121.144C570.365 121.144 570.512 121.338 570.409 121.204C570.306 121.069 570.48 121.291 570.496 121.311C570.864 121.759 571.262 122.184 571.685 122.582C571.879 122.764 572.081 122.938 572.291 123.108L572.445 123.235C572.445 123.235 572.255 123.092 572.398 123.195L572.794 123.465C573.249 123.776 573.725 124.054 574.221 124.296L574.577 124.463C574.74 124.534 574.53 124.463 574.51 124.435L574.692 124.506C574.958 124.605 575.227 124.696 575.485 124.775C575.742 124.855 576.031 124.922 576.313 124.973L576.709 125.041C576.887 125.072 576.646 125.041 576.626 125.041L576.887 125.068C577.441 125.117 577.998 125.117 578.552 125.068L578.754 125.045C578.754 125.045 578.476 125.096 578.651 125.045C578.825 124.993 578.892 125.005 579.011 124.977C579.275 124.924 579.53 124.861 579.776 124.787C580.026 124.712 580.267 124.609 580.517 124.53C580.684 124.478 580.442 124.565 580.426 124.569L580.588 124.498L580.985 124.316C581.428 124.082 581.854 123.817 582.261 123.524L582.407 123.417C582.407 123.417 582.201 123.587 582.332 123.477L582.609 123.247C582.807 123.078 583 122.902 583.188 122.72C583.375 122.538 583.543 122.364 583.691 122.198L583.929 121.924C584.004 121.833 584.262 121.505 584.068 121.762C584.677 120.944 585.194 120.061 585.609 119.129C585.498 119.374 585.609 119.164 585.641 119.042C585.672 118.919 585.728 118.812 585.767 118.697C585.857 118.446 585.939 118.193 586.013 117.937C586.159 117.428 586.274 116.911 586.358 116.389C586.358 116.329 586.358 116.27 586.386 116.207C586.386 116.207 586.358 116.492 586.386 116.314C586.413 116.135 586.409 116.072 586.421 115.949C586.442 115.685 586.456 115.421 586.461 115.157C586.466 114.893 586.466 114.652 586.461 114.433C586.461 114.314 586.453 114.194 586.437 114.072C586.437 114.001 586.39 113.597 586.413 113.799C586.437 114.001 586.39 113.649 586.378 113.589C586.354 113.452 586.327 113.32 586.298 113.193C586.243 112.929 586.178 112.678 586.104 112.441C586.037 112.211 585.958 111.986 585.874 111.764L585.807 111.597C585.807 111.597 585.922 111.843 585.843 111.689C585.763 111.534 585.724 111.435 585.664 111.293C585.435 110.841 585.17 110.408 584.872 109.998C584.777 109.867 584.892 110.022 584.908 110.041L584.761 109.863C584.663 109.747 584.563 109.632 584.46 109.519C584.222 109.255 583.972 109.005 583.711 108.77C583.6 108.67 583.486 108.571 583.37 108.473L583.196 108.331C582.934 108.133 582.665 107.935 582.403 107.776C581.893 107.466 581.363 107.189 580.818 106.945C580.265 106.723 579.698 106.534 579.122 106.379C578.8 106.294 578.475 106.22 578.147 106.157L577.692 106.078L577.462 106.042C577.632 106.066 577.509 106.042 577.41 106.042C576.77 105.973 576.125 105.942 575.481 105.947C575.172 105.947 574.863 105.962 574.553 105.991L574.094 106.034L573.864 106.062C574.03 106.042 573.915 106.062 573.816 106.062C572.453 106.237 571.134 106.667 569.929 107.329C569.412 107.619 568.945 107.991 568.546 108.43C568.451 108.529 568.364 108.636 568.269 108.739C568.079 108.948 568.332 108.628 568.174 108.857C567.993 109.113 567.825 109.377 567.671 109.649C567.607 109.768 567.546 109.888 567.488 110.01C567.445 110.101 567.338 110.382 567.429 110.136C567.326 110.41 567.231 110.687 567.151 110.972C567.072 111.257 567.017 111.502 566.969 111.764C566.969 111.827 566.902 112.191 566.922 112.037C566.941 111.883 566.898 112.302 566.89 112.385C566.845 112.975 566.845 113.566 566.89 114.155C566.89 114.322 566.922 114.488 566.937 114.658C566.969 114.955 566.91 114.528 566.961 114.825C567.013 115.122 567.072 115.446 567.14 115.755C567.275 116.355 567.445 116.946 567.651 117.525C567.701 117.665 567.752 117.797 567.805 117.921C567.833 117.988 567.968 118.317 567.873 118.099C567.995 118.392 568.134 118.681 568.269 118.966C568.549 119.529 568.863 120.073 569.208 120.598C569.385 120.862 569.569 121.126 569.759 121.39L569.901 121.584L569.977 121.687L570.262 122.039C571.924 124.117 574.038 125.79 576.444 126.929C576.792 127.096 576.872 127.131 577.101 127.222C577.424 127.349 577.749 127.465 578.076 127.571C578.732 127.782 579.402 127.947 580.081 128.066C580.145 128.066 580.529 128.137 580.303 128.105C580.462 128.125 580.62 128.145 580.779 128.157C581.125 128.189 581.471 128.207 581.817 128.212C582.122 128.212 582.431 128.212 582.736 128.212L583.176 128.177L583.398 128.153C583.235 128.153 583.307 128.153 583.43 128.153C584.063 128.053 584.688 127.906 585.3 127.713C585.581 127.622 585.863 127.519 586.14 127.416C586.417 127.314 586.065 127.456 586.318 127.341L586.786 127.119C587.335 126.844 587.865 126.531 588.371 126.181L588.731 125.924C588.953 125.765 588.676 125.979 588.886 125.805C589.096 125.631 589.409 125.361 589.655 125.124C589.9 124.886 590.051 124.728 590.265 124.494C590.363 124.386 590.458 124.276 590.55 124.166L590.689 123.995C590.843 123.805 590.57 124.162 590.717 123.964C591.076 123.481 591.395 122.97 591.672 122.435C591.739 122.308 591.798 122.178 591.862 122.039C591.985 121.782 591.83 122.142 591.933 121.877C592.036 121.612 592.147 121.291 592.23 120.99C592.317 120.689 592.388 120.383 592.444 120.075C592.444 119.988 592.5 119.648 592.472 119.909C592.472 119.739 592.504 119.572 592.516 119.402C592.541 118.834 592.525 118.265 592.468 117.699C592.492 117.977 592.468 117.699 592.448 117.581C592.428 117.462 592.401 117.319 592.373 117.185C592.312 116.905 592.24 116.629 592.155 116.357C592.076 116.108 591.989 115.862 591.894 115.617C591.83 115.45 591.913 115.66 591.921 115.68L591.814 115.442C591.751 115.302 591.684 115.17 591.612 115.046C591.358 114.558 591.07 114.088 590.748 113.641C590.693 113.561 590.511 113.32 590.669 113.526C590.586 113.419 590.503 113.316 590.415 113.213C590.228 112.989 590.032 112.77 589.829 112.556C589.418 112.125 588.981 111.719 588.521 111.34L588.296 111.154L588.058 110.98C587.812 110.8 587.56 110.626 587.301 110.457C586.802 110.132 586.288 109.833 585.76 109.558C585.495 109.426 585.231 109.294 584.967 109.162L584.571 108.984L584.373 108.897C584.523 108.96 584.444 108.925 584.341 108.897C583.754 108.671 583.152 108.457 582.566 108.279C581.979 108.101 581.405 107.966 580.814 107.848C580.534 107.792 580.252 107.742 579.966 107.697L579.756 107.666C579.784 107.666 579.994 107.697 579.812 107.666L579.316 107.61C578.658 107.548 577.997 107.521 577.335 107.527C576.662 107.531 575.99 107.572 575.322 107.65C574.664 107.748 574.013 107.895 573.377 108.089C572.755 108.267 572.163 108.534 571.617 108.881C571.134 109.164 570.697 109.52 570.321 109.934C570.226 110.033 570.139 110.136 570.048 110.239L569.917 110.394C569.917 110.394 570.056 110.208 569.953 110.35C569.783 110.588 569.624 110.829 569.477 111.083C569.331 111.336 569.228 111.554 569.113 111.799C569.224 111.558 569.113 111.835 569.065 111.93C569.018 112.025 568.958 112.227 568.911 112.378C568.824 112.657 568.748 112.941 568.685 113.229C568.656 113.363 568.631 113.495 568.61 113.625C568.61 113.692 568.59 113.759 568.578 113.827C568.542 114.068 568.602 113.585 568.578 113.827C568.522 114.403 568.506 114.983 568.53 115.561C568.53 115.842 568.57 116.119 568.602 116.401C568.57 116.131 568.602 116.452 568.629 116.551C568.656 116.715 568.688 116.877 568.725 117.038C568.852 117.64 569.024 118.232 569.24 118.808C569.263 118.871 569.394 119.204 569.347 119.085C569.299 118.966 569.442 119.295 569.469 119.355C569.602 119.619 569.743 119.89 569.893 120.17C570.044 120.45 570.192 120.689 570.337 120.887C570.417 121.002 570.5 121.117 570.579 121.231C570.579 121.231 570.726 121.425 570.631 121.303C570.535 121.18 570.722 121.414 570.738 121.433C571.13 121.909 571.556 122.355 572.013 122.768C572.143 122.884 572.275 122.997 572.41 123.108L572.659 123.31L572.921 123.5C573.061 123.601 573.204 123.698 573.349 123.793C573.867 124.131 574.407 124.434 574.966 124.7L575.362 124.886C575.524 124.957 575.362 124.886 575.334 124.886L575.54 124.969C575.839 125.086 576.141 125.191 576.448 125.286C577.059 125.476 577.682 125.623 578.314 125.726C578.397 125.726 578.746 125.781 578.488 125.753L578.928 125.797C579.245 125.823 579.562 125.838 579.879 125.841C580.196 125.843 580.488 125.835 580.755 125.817L581.191 125.781L581.409 125.757C581.246 125.757 581.306 125.757 581.432 125.757C582.057 125.659 582.674 125.51 583.275 125.314L583.671 125.167C583.739 125.14 584.068 125.001 583.85 125.1C584.131 124.973 584.408 124.839 584.678 124.704C584.947 124.569 585.149 124.427 585.379 124.276L585.716 124.043C585.859 123.944 585.716 124.043 585.676 124.078L585.89 123.908C586.329 123.545 586.738 123.148 587.115 122.72C587.222 122.601 587.321 122.479 587.424 122.352C587.606 122.134 587.352 122.463 587.519 122.229C587.685 121.996 587.86 121.742 588.018 121.489C588.318 121.003 588.583 120.496 588.811 119.972C588.708 120.21 588.811 119.921 588.862 119.834C588.914 119.747 588.957 119.576 589.001 119.438C589.096 119.158 589.182 118.874 589.258 118.586C589.335 118.299 589.398 118.011 589.449 117.723C589.472 117.589 589.494 117.457 589.512 117.327C589.468 117.628 589.512 117.232 589.512 117.129C589.557 116.568 589.557 116.004 589.512 115.442C589.512 115.308 589.484 115.173 589.476 115.046C589.496 115.32 589.476 115.046 589.457 114.924C589.409 114.636 589.347 114.352 589.27 114.072C589.194 113.792 589.113 113.536 589.029 113.304C589.009 113.245 588.874 112.908 588.934 113.047C588.993 113.185 588.894 112.96 588.874 112.92L588.755 112.675C588.494 112.17 588.192 111.688 587.852 111.233C588.006 111.443 587.828 111.205 587.765 111.13L587.507 110.833C587.319 110.625 587.123 110.424 586.917 110.231C586.73 110.053 586.52 109.891 586.334 109.725C586.199 109.614 586.378 109.752 586.394 109.768L586.239 109.653L585.87 109.396C585.406 109.085 584.92 108.807 584.416 108.564L584.064 108.398C583.798 108.271 584.226 108.457 583.949 108.347C583.671 108.236 583.414 108.141 583.156 108.05C582.054 107.682 580.919 107.417 579.768 107.258C580.038 107.297 579.721 107.258 579.622 107.258L579.202 107.214C578.895 107.182 578.587 107.157 578.278 107.139C577.68 107.099 577.089 107.079 576.479 107.076C575.239 107.076 574.003 107.123 572.766 107.226C572.164 107.276 571.563 107.337 570.963 107.408L570.111 107.515L569.957 107.535L569.469 107.606C562.61 108.616 555.767 109.764 548.916 110.845L538.811 112.429L539.731 110.168C540.446 111.442 541.229 112.676 542.076 113.866C542.285 114.157 542.496 114.446 542.71 114.734C542.746 114.781 543.035 115.157 542.889 114.971L543.285 115.454C543.734 116.011 544.196 116.558 544.672 117.094C545.66 118.203 546.705 119.26 547.802 120.261C548.331 120.744 548.872 121.214 549.427 121.671C549.691 121.901 549.97 122.126 550.263 122.348L550.445 122.491L550.501 122.53L550.992 122.898C553.345 124.64 555.859 126.151 558.501 127.413C558.826 127.568 559.152 127.719 559.48 127.864L559.971 128.082L560.181 128.173L560.308 128.228C560.971 128.492 561.641 128.756 562.317 129.02C563.715 129.524 565.136 129.96 566.581 130.327C568.026 130.694 569.456 130.98 570.872 131.186L571.403 131.261L571.601 131.285C571.982 131.333 572.363 131.374 572.747 131.408C573.486 131.476 574.226 131.527 574.966 131.558C578.001 131.675 581.04 131.459 584.028 130.913C587.713 130.252 591.335 129.281 595.028 128.668C598.621 128.014 602.294 127.916 605.917 128.375C612.437 129.316 618.495 132.284 623.233 136.856C623.793 137.4 624.331 137.965 624.846 138.551L622.274 140.048L622.207 139.889L622.045 139.513L621.783 138.911C621.574 138.436 621.363 137.962 621.149 137.49C620.729 136.566 620.296 135.642 619.849 134.718C618.951 132.889 617.991 131.092 616.969 129.329C615.032 125.939 612.755 122.755 610.173 119.826C608.853 118.342 607.435 116.949 605.929 115.656C601.65 111.991 596.541 109.422 591.046 108.172C590.139 107.959 589.227 107.774 588.307 107.618C587.858 107.541 587.409 107.471 586.96 107.408L586.659 107.365C586.921 107.4 586.659 107.365 586.615 107.365L585.863 107.273C583.984 107.064 582.094 106.953 580.204 106.913C576.357 106.868 572.511 107.024 568.681 107.38C560.926 108.038 553.195 109.15 545.405 109.277C537.876 109.4 530.217 108.485 523.353 105.175C522.527 104.776 521.718 104.346 520.928 103.884L523.258 102.11L523.369 102.391C523.278 102.165 523.369 102.391 523.389 102.439C523.472 102.621 523.555 102.799 523.643 102.977C523.841 103.376 524.059 103.764 524.296 104.141C524.685 104.79 525.145 105.393 525.668 105.939C526.221 106.541 526.818 107.101 527.455 107.614C527.502 107.654 527.752 107.852 527.554 107.697L527.795 107.875C527.957 107.994 528.12 108.11 528.287 108.224C528.641 108.467 529.001 108.696 529.369 108.913C530.759 109.758 532.257 110.412 533.822 110.857C534.655 111.107 535.5 111.31 536.354 111.467L536.957 111.57C537.012 111.57 537.591 111.657 537.302 111.621C537.856 111.687 538.414 111.739 538.974 111.776C543.487 112.061 547.941 111.32 552.339 110.386C556.54 109.495 560.708 108.497 564.94 107.776C573.068 106.398 581.436 105.753 589.583 107.337C593.567 108.097 597.408 109.473 600.968 111.415C604.265 113.267 607.294 115.56 609.971 118.23C615.38 123.548 619.524 130.034 623.194 136.627C623.64 137.419 624.081 138.225 624.517 139.046L621.648 139.838C621.648 138.832 621.648 137.827 621.561 136.825C621.527 136.323 621.481 135.823 621.422 135.324C621.422 135.193 621.391 135.063 621.375 134.928C621.375 134.892 621.335 134.627 621.375 134.865C621.335 134.576 621.292 134.29 621.244 134.001C620.921 132.019 620.438 130.066 619.802 128.161C619.643 127.683 619.475 127.209 619.298 126.739C619.225 126.541 619.148 126.345 619.069 126.149L618.922 125.781L618.831 125.559L618.799 125.488C618.4 124.564 617.968 123.657 617.503 122.768C616.568 120.986 615.496 119.28 614.298 117.664C613.81 117.006 613.208 116.262 612.546 115.506C611.885 114.749 611.191 114.021 610.47 113.324C609.749 112.627 609 111.954 608.227 111.316L607.609 110.817C607.609 110.817 607.383 110.639 607.546 110.766L607.292 110.576C606.869 110.259 606.44 109.95 606.004 109.649C602.741 107.416 599.143 105.714 595.345 104.609C593.456 104.044 591.535 103.595 589.591 103.262C589.103 103.178 588.614 103.1 588.125 103.029L587.761 102.977L586.825 102.862C585.832 102.746 584.838 102.654 583.842 102.585C579.767 102.327 575.681 102.318 571.605 102.558C563.185 102.985 554.812 104.062 546.392 104.446C538.118 104.842 529.662 104.525 521.681 102.126C520.704 101.833 519.738 101.507 518.785 101.148L520.738 99.6788C520.722 100.174 520.734 100.67 520.774 101.164C520.774 101.263 520.774 101.358 520.802 101.457C520.841 101.924 520.77 101.279 520.802 101.556C520.833 101.833 520.889 102.086 520.944 102.348C521.04 102.8 521.159 103.246 521.301 103.686C521.367 103.895 521.438 104.1 521.515 104.304C521.565 104.441 521.618 104.573 521.673 104.7C521.57 104.454 521.725 104.815 521.753 104.866C522.153 105.734 522.632 106.564 523.183 107.345C523.31 107.527 523.441 107.709 523.579 107.883C523.397 107.65 523.702 108.03 523.71 108.038L523.9 108.267C524.223 108.648 524.562 109.014 524.919 109.368C526.289 110.755 527.883 111.903 529.634 112.762C530.03 112.968 530.454 113.158 530.874 113.34C530.597 113.225 531.061 113.411 531.068 113.415L531.35 113.522C531.614 113.62 531.878 113.711 532.142 113.795C533.236 114.145 534.356 114.41 535.491 114.587C540.329 115.379 545.397 114.532 550.152 113.213C555.089 111.843 559.825 109.863 564.643 108.145C569.291 106.49 574.058 105.088 578.995 104.676C582.9 104.375 586.827 104.664 590.645 105.535C598.332 107.313 605.412 111.087 611.171 116.476C616.885 121.782 621.256 128.656 623.202 136.231C623.437 137.149 623.635 138.073 623.796 139.003C623.893 139.395 623.835 139.81 623.636 140.162C623.436 140.514 623.109 140.777 622.722 140.895C621.981 141.097 620.971 140.646 620.828 139.822C620.496 137.909 620.01 136.026 619.374 134.191C619.223 133.759 619.065 133.328 618.898 132.901C618.819 132.697 618.738 132.495 618.657 132.295C618.657 132.319 618.482 131.899 618.565 132.077L618.415 131.729C618.034 130.868 617.622 130.022 617.179 129.19C616.278 127.506 615.258 125.887 614.127 124.348L613.691 123.766C613.509 123.524 613.628 123.679 613.668 123.73L613.398 123.385C613.097 123.005 612.789 122.631 612.475 122.261C611.846 121.522 611.186 120.805 610.494 120.111C609.167 118.754 607.753 117.484 606.262 116.31C606.262 116.31 605.865 116.005 606.111 116.191L605.877 116.013L605.291 115.577C604.897 115.289 604.501 115.008 604.102 114.734C603.31 114.185 602.487 113.663 601.633 113.169C600.78 112.676 599.926 112.211 599.07 111.776C598.679 111.58 598.283 111.39 597.881 111.205L597.219 110.905L596.954 110.786L596.688 110.671H596.72C594.954 109.931 593.139 109.315 591.287 108.826C590.352 108.58 589.409 108.368 588.458 108.188C588.006 108.104 587.553 108.027 587.099 107.959C587.012 107.959 586.409 107.864 586.703 107.903L585.839 107.8C583.962 107.6 582.073 107.544 580.188 107.634C579.217 107.681 578.247 107.764 577.284 107.891C577.577 107.852 577.256 107.891 577.185 107.891L576.788 107.955L575.833 108.117C575.199 108.23 574.568 108.362 573.939 108.513C571.429 109.097 568.954 109.822 566.525 110.683C556.924 114.005 547.196 118.741 536.751 117.779C532.205 117.431 527.866 115.736 524.289 112.912C521.118 110.39 518.606 106.767 517.873 102.748C517.68 101.717 517.595 100.668 517.62 99.6194C517.647 98.7008 518.594 97.7742 519.569 98.1345C521.527 98.8622 523.529 99.4627 525.564 99.9323C526.552 100.162 527.546 100.363 528.544 100.534C529.044 100.621 529.544 100.702 530.046 100.776L530.442 100.831H530.51L531.385 100.942C535.562 101.4 539.767 101.554 543.967 101.401C552.482 101.16 560.942 100.083 569.442 99.5482C577.716 99.0255 586.176 99.0017 594.259 101.069C602.343 103.136 609.749 107.404 615.158 113.819C620.654 120.279 623.965 128.311 624.616 136.765C624.688 137.767 624.715 138.773 624.703 139.779C624.703 141.26 622.576 141.929 621.835 140.571C620.028 137.217 618.141 133.906 616.057 130.719C614.086 127.638 611.852 124.734 609.38 122.039C608.115 120.668 606.769 119.374 605.35 118.163C601.067 114.499 595.965 111.919 590.475 110.639C582.823 108.818 574.446 109.297 566.731 110.54C562.499 111.221 558.327 112.184 554.138 113.098C549.625 114.084 545.025 114.955 540.373 114.872C533.153 114.741 525.315 111.871 521.463 105.401C520.996 104.598 520.598 103.757 520.274 102.886C520.194 102.593 520.203 102.282 520.302 101.994C520.4 101.706 520.582 101.454 520.825 101.271C521.067 101.085 521.358 100.975 521.661 100.954C521.965 100.933 522.268 101.002 522.533 101.152C523.368 101.64 524.221 102.093 525.093 102.51C525.829 102.869 526.583 103.19 527.352 103.472C529.094 104.13 530.882 104.659 532.701 105.056C533.599 105.254 534.503 105.422 535.411 105.559L536.077 105.658C536.331 105.694 535.859 105.63 536.113 105.658L536.485 105.705C536.958 105.764 537.432 105.815 537.908 105.86C539.778 106.038 541.652 106.121 543.531 106.137C551.357 106.196 559.135 105.115 566.91 104.395C574.605 103.682 582.431 103.278 590.067 104.743C597.918 106.176 605.123 110.028 610.672 115.759C616.457 121.572 620.67 128.794 624.014 136.227C624.45 137.193 624.866 138.167 625.278 139.145C625.54 139.759 625.104 140.571 624.573 140.883C624.278 141.053 623.936 141.121 623.599 141.077C623.262 141.034 622.948 140.881 622.706 140.642C618.535 135.91 612.902 132.705 606.702 131.535C606.345 131.466 605.988 131.404 605.632 131.348C605.235 131.285 605.132 131.273 604.633 131.218C603.841 131.133 603.035 131.082 602.216 131.063C600.493 131.035 598.77 131.143 597.065 131.388C593.328 131.927 589.671 132.893 585.97 133.613C582.723 134.284 579.414 134.614 576.099 134.599C573.092 134.546 570.099 134.192 567.163 133.542C561.306 132.244 555.752 129.832 550.806 126.438C545.798 123.027 541.531 118.639 538.264 113.538C537.881 112.931 537.514 112.314 537.163 111.689C536.723 110.897 537.068 109.59 538.082 109.428L560.558 105.864C563.958 105.329 567.35 104.72 570.765 104.304C573.377 103.951 576.017 103.855 578.647 104.019C583.762 104.415 589.227 106.315 591.6 111.253C593.974 116.191 592.357 122.451 588.236 125.947C583.762 129.749 577.189 129.662 572.283 126.712C569.849 125.284 567.913 123.144 566.735 120.582C565.552 118.008 565.219 115.125 565.784 112.35C566.083 110.968 566.685 109.669 567.547 108.548C568.409 107.427 569.51 106.512 570.769 105.868C573.543 104.478 576.864 104.209 579.923 104.589C585.272 105.254 590.721 107.883 593.724 112.508C595.167 114.691 595.818 117.301 595.571 119.905C595.225 122.797 593.848 125.468 591.691 127.428C589.59 129.391 586.948 130.677 584.107 131.123C581.033 131.524 577.908 131.025 575.112 129.685C569.846 127.274 565.404 122.186 564.148 116.488C563.546 113.759 563.617 110.857 564.877 108.319C566.299 105.444 569.236 103.805 572.295 103.171C577.997 102.019 584.729 103.833 587.923 109C590.463 113.11 589.817 118.626 587.234 122.554C585.959 124.572 584.125 126.178 581.955 127.175C579.549 128.239 576.835 128.38 574.332 127.571C569.311 125.908 565.614 121.057 565.166 115.815C564.663 109.78 569.398 104.977 574.756 103.084C581.337 100.76 588.482 102.914 594.457 105.919C599.856 108.685 604.815 112.233 609.174 116.448C613.588 120.726 617.527 125.467 620.923 130.588C622.572 133.035 624.093 135.55 625.567 138.112C625.669 138.286 625.736 138.479 625.763 138.679C625.791 138.879 625.778 139.083 625.727 139.278C625.676 139.474 625.586 139.657 625.464 139.818C625.342 139.979 625.189 140.114 625.014 140.216C624.84 140.318 624.647 140.385 624.447 140.412C624.246 140.439 624.043 140.427 623.847 140.376C623.651 140.325 623.468 140.235 623.307 140.113C623.146 139.991 623.01 139.838 622.908 139.664L622.904 139.695ZM513.653 93.4463C513.54 93.532 513.42 93.6101 513.296 93.6799C513.324 93.6799 513.586 93.4383 513.403 93.6046L513.269 93.7234C513.158 93.8264 513.059 93.9412 512.956 94.0482C512.853 94.1551 512.825 94.2659 513.027 93.9492C512.979 94.0244 512.92 94.0957 512.872 94.1709C512.825 94.2461 512.722 94.4323 512.651 94.5669C512.579 94.7015 512.591 94.8005 512.698 94.4441C512.698 94.4995 512.655 94.555 512.639 94.6104C512.613 94.7527 512.577 94.8929 512.532 95.0302C512.532 95.0024 512.555 94.6342 512.555 94.8757C512.555 94.9589 512.555 95.046 512.555 95.1292C512.555 95.3667 512.555 95.0024 512.528 94.9707C512.552 95.0372 512.568 95.1063 512.575 95.1766C512.611 95.3667 512.718 95.2915 512.524 95.0895C512.555 95.1385 512.581 95.1902 512.603 95.244C512.64 95.2908 512.672 95.3412 512.698 95.3944C512.666 95.1964 512.472 95.141 512.627 95.2994C512.722 95.3984 512.849 95.4934 512.936 95.5964C512.746 95.3667 512.694 95.4221 512.813 95.5013L512.979 95.6122C513.082 95.6756 513.189 95.735 513.296 95.7904L513.443 95.8617C513.709 95.9963 513.15 95.7548 513.344 95.8221C513.538 95.8894 513.637 95.933 513.784 95.9805C514.775 96.3051 515.813 96.4279 516.807 96.7289C518.026 97.1637 519.189 97.7391 520.274 98.4434C520.584 98.6216 520.893 98.7998 521.21 98.9661L521.642 99.1799L521.816 99.2591C522.105 99.3977 521.519 99.1482 521.816 99.2591C522.137 99.3858 522.467 99.489 522.803 99.5679L522.985 99.6036C523.298 99.6749 522.648 99.5798 522.945 99.6036C523.135 99.6036 523.342 99.6273 523.516 99.6273C523.924 99.6273 524.316 99.7894 524.604 100.078C524.893 100.366 525.055 100.758 525.055 101.166C525.055 101.574 524.893 101.965 524.604 102.253C524.316 102.542 523.924 102.704 523.516 102.704C521.931 102.724 520.5 102.106 519.157 101.35C518.563 101.013 517.968 100.653 517.386 100.324C517.108 100.17 516.827 100.023 516.538 99.8926C516.479 99.8713 516.423 99.8462 516.367 99.8174C516.696 100.031 516.522 99.8808 516.391 99.8174C516.26 99.7541 516.07 99.7026 515.904 99.6551C514.802 99.3383 513.653 99.2155 512.583 98.7918C511.849 98.5344 511.175 98.1302 510.602 97.6039C509.951 96.9676 509.558 96.1128 509.5 95.2044C509.374 93.4185 510.634 91.6407 512.124 90.7933C512.476 90.5874 512.896 90.53 513.291 90.6336C513.686 90.7372 514.024 90.9933 514.23 91.3456C514.436 91.698 514.493 92.1176 514.389 92.5123C514.286 92.907 514.029 93.2444 513.677 93.4502L513.653 93.4463ZM506.834 204.686C502.308 205.739 497.545 204.646 494.193 201.348C491.178 198.378 489.042 194.438 487.326 190.609C485.317 186.099 484.184 181.502 483.474 176.608C483.078 173.959 482.813 171.278 482.286 168.657C481.768 166.324 481.063 164.037 480.178 161.818C477.083 153.776 472.252 145.12 475.058 136.298C476.897 130.513 482.119 123.184 489.034 123.829C493.642 124.261 496.436 128.133 498.496 131.871C501.27 136.92 503.481 142.297 505.466 147.71C506.104 149.448 503.592 150.228 502.653 148.898C501.714 147.567 499.705 147.053 498.227 146.811C496.864 146.589 494.748 146.459 493.674 147.532C492.485 148.72 491.962 150.755 491.657 152.323C491.306 154.302 491.265 156.323 491.534 158.314C492.05 162.529 493.552 166.563 495.917 170.09C496.94 171.656 498.216 173.043 499.693 174.192C501.076 175.23 503.691 176.73 505.363 175.507C507.325 174.07 504.908 171.009 503.778 169.876C501.995 168.079 499.859 166.653 498.671 164.333C497.482 162.012 497.66 159.506 499.42 157.601C501.056 155.815 503.517 155.099 505.086 153.246C508.581 149.088 507.543 143.045 505.879 138.389C504.832 135.494 503.501 132.711 502.376 129.848C501.213 126.883 500.2 123.867 499.336 120.8C495.905 108.644 494.843 95.8538 495.806 83.2738C496.769 70.6939 498.825 58.0704 502.407 46.017C509.175 23.2607 522.153 3.18111 536.656 -15.3582C543.44 -24.0339 551.82 -31.5137 560.506 -38.2452C568.348 -44.3233 576.618 -49.4749 585.748 -53.3831C586.271 -53.6049 586.794 -53.8226 587.309 -54.0681C587.483 -54.1513 587.654 -54.2463 587.828 -54.3255C588.002 -54.4047 588.319 -54.6977 587.895 -54.3255C589.381 -55.6005 591.509 -53.5336 590.071 -52.1517C588.632 -50.7697 586.778 -49.7521 585.019 -48.7859C582.498 -47.404 579.954 -46.0696 577.49 -44.5886C571.807 -41.1793 566.565 -37.0652 561.536 -32.7452C551.234 -23.9111 541.565 -13.9366 534.278 -2.41789C527.455 8.37227 522.351 20.1999 518.4 32.3165C515.841 39.981 513.823 47.8153 512.361 55.7619C511.355 61.4718 510.459 67.245 509.984 73.0261C509.401 79.9714 509.354 87.281 512.021 93.8462C512.765 95.6795 509.79 96.4754 509.053 94.6619C506.675 88.7817 506.382 82.2047 506.707 75.9405C507.032 69.6762 508.046 63.4476 509.025 57.2467C510.242 49.8873 511.963 42.6199 514.176 35.4961C517.81 23.5022 522.521 11.738 528.735 0.836975C535.641 -11.2757 544.846 -21.7966 555.121 -31.1732C560.57 -36.1466 566.315 -40.9299 572.449 -45.0321C575.532 -47.0951 578.766 -48.8968 582.027 -50.6588C584.008 -51.7319 586.255 -52.7337 587.891 -54.3216L590.067 -52.1477C589.322 -51.5102 588.375 -51.1736 587.483 -50.7935C585.748 -50.0491 584.012 -49.2967 582.308 -48.481C577.163 -45.9807 572.242 -43.0437 567.599 -39.7024C558.212 -33.0936 549.272 -25.4475 541.712 -16.7361C537.789 -12.2261 534.246 -7.34377 530.763 -2.48126C527.28 2.38124 523.888 7.43776 520.786 12.6131C514.382 23.2567 508.993 34.6369 505.427 46.5754C501.672 59.2867 499.411 72.3918 498.691 85.6259C497.946 98.9265 499.515 112.326 503.842 124.954C505.887 130.945 509.334 136.698 510.265 143.014C511.014 148.102 509.801 153.804 505.482 157.015C503.83 158.243 500.434 159.391 501.024 161.989C501.615 164.586 504.508 166.15 506.211 167.972C507.915 169.793 509.381 172.189 509.08 174.703C508.755 177.317 506.445 178.972 503.893 178.968C499.535 178.968 495.968 175.432 493.591 172.137C490.983 168.415 489.273 164.141 488.594 159.648C487.952 155.455 488.118 150.937 490.203 147.132C491.162 145.39 492.485 144.214 494.47 143.81C496.512 143.43 498.617 143.566 500.593 144.206C502.431 144.784 504.159 145.722 505.268 147.322L502.455 148.51C500.889 144.154 499.074 139.891 497.018 135.744C495.477 132.691 493.71 128.64 490.302 127.258C484.79 125.021 479.88 131.903 478.279 136.239C475.454 143.881 479.274 151.61 482.159 158.647C483.907 162.754 485.134 167.064 485.812 171.476C486.482 176.109 486.977 180.809 488.483 185.268C489.872 189.526 491.93 193.536 494.581 197.147C497.355 200.817 501.357 202.789 505.99 201.712C507.915 201.265 508.74 204.231 506.806 204.678L506.834 204.686ZM686.194 265.071C679.545 266.496 672.642 266.213 666.132 264.248C664.606 263.78 663.085 263.087 661.492 262.889C659.899 262.692 658.805 263.357 657.581 264.283C655.31 266.044 652.627 267.195 649.786 267.629C646.956 268.07 644.06 267.797 641.362 266.837C639.951 266.271 638.597 265.573 637.316 264.755C636.05 263.924 634.542 263.54 633.033 263.662C631.448 263.796 629.93 264.347 628.444 264.85C626.859 265.403 625.239 265.85 623.594 266.188C620.214 266.769 616.788 267.035 613.359 266.98C606.361 266.98 598.028 267.138 593.546 260.739L596.415 259.947C596.478 262.323 597.853 264.196 599.296 265.919C601.164 268.141 603.148 270.264 605.239 272.278C609.737 276.634 614.575 280.688 619.96 283.9C629.565 289.633 641.093 292.825 652.295 291.261C663.497 289.697 672.781 283.211 680.619 275.465C682.757 273.398 684.679 271.117 686.353 268.659C687.585 266.81 688.667 264.873 689.764 262.945C691.797 259.381 693.287 254.725 697.004 252.507C698.894 251.379 702.001 251.026 703.451 253.026C705.52 255.881 702.239 258.268 700.059 259.627C695.011 262.767 688.659 264.236 682.763 264.275C679.332 264.299 675.902 264.145 672.488 263.812C669.139 263.487 665.807 262.783 662.439 262.676C660.914 262.598 659.387 262.776 657.921 263.202C656.491 263.642 655.128 264.267 653.741 264.834C650.82 266.107 647.602 266.539 644.449 266.081C641.394 265.61 638.83 263.725 635.763 263.353C632.617 262.957 629.443 263.646 626.399 264.374C620.059 265.887 613.695 267.483 607.153 266.54C604.229 266.153 601.419 265.157 598.903 263.618C596.415 262.034 594.608 259.682 592.211 258.015C591.307 257.385 590.427 256.479 589.401 256.055C588.834 255.821 588.795 255.932 589.005 256.451C589.742 258.3 592.694 258.724 594.319 257.892C594.715 257.698 594.917 257.231 595.194 256.918C595.534 256.565 595.908 256.246 596.312 255.968C597.259 255.285 598.241 254.653 599.256 254.075C602.053 252.424 604.914 250.876 607.736 249.272C612.641 246.5 617.496 243.507 622.694 241.281C628.218 238.906 634.804 237.247 640.55 239.824C642.559 240.727 645.059 242.549 647.286 241.333C649.018 240.387 650.484 238.304 649.969 236.348C649.39 234.154 647.956 232.281 647.322 230.099C646.66 227.826 647.155 225.672 649.16 224.314C650.971 223.091 653.202 222.623 654.989 221.364C656.776 220.105 658.028 218.268 659.677 216.89C661.514 215.374 663.802 214.511 666.183 214.435C668.256 214.316 670.36 214.534 672.416 214.209C674.473 213.884 676.272 212.985 676.656 210.768C677.128 208.056 675.583 205.224 674.857 202.682C674.406 201.098 674.065 199.515 673.756 197.891C673.463 196.351 673.332 194.684 672.86 193.191C672.624 192.589 672.209 192.074 671.671 191.714C671.446 191.546 671.19 191.422 670.919 191.35C670.871 191.35 670.59 191.251 670.796 191.314C671.002 191.377 670.796 191.29 670.748 191.314H670.689C670.567 191.314 670.611 191.314 670.82 191.314C670.887 191.267 671.061 191.172 670.899 191.282C670.994 191.219 671.295 190.886 671.216 190.934C671.137 190.981 671.196 190.799 671.216 190.934C671.216 191.013 671.216 191.1 671.216 191.175C671.331 191.575 671.486 191.963 671.679 192.332C672.269 193.319 672.98 194.229 673.795 195.04C675.503 196.85 677.457 198.469 678.903 200.512C682.469 205.533 684.486 216.145 677.294 219.076C675.148 219.931 672.757 219.938 670.606 219.095C668.493 218.276 666.326 216.593 663.976 216.652C662.035 216.7 660.913 218.672 659.974 220.109C658.655 222.124 657.2 223.867 655.053 225.047C652.625 226.339 649.899 226.968 647.151 226.871C644.402 226.775 641.727 225.956 639.397 224.496C637.077 223.034 634.999 221.221 633.235 219.123C632.541 218.394 631.559 217.27 630.461 217.329C629.474 217.381 628.539 218.153 627.715 218.632C625.337 220.022 622.778 220.315 620.305 218.941C619.16 218.288 618.175 217.39 617.421 216.31C616.667 215.229 616.164 213.995 615.946 212.696C614.967 206.729 618.72 201.146 622.14 196.608C623.915 194.232 625.757 191.924 627.382 189.449C629.104 186.826 630.489 183.996 631.503 181.027C633.586 175.059 635.069 168.899 635.929 162.638C636.794 156.396 636.839 150.067 636.064 143.814C635.216 137.363 633.163 131.143 630.913 125.076C630.342 123.536 629.756 122.004 629.169 120.467C628.583 118.931 627.794 117.363 627.469 115.763C627.176 114.306 627.394 112.762 628.563 111.736C629.077 111.277 629.735 111.011 630.424 110.984C631.113 110.956 631.79 111.169 632.339 111.586C634.4 113.169 634.352 116.511 634.348 118.844C634.329 122.85 633.487 126.811 631.875 130.479C630.262 134.148 627.913 137.446 624.973 140.171C623.515 141.505 621.331 139.335 622.797 137.997C626.705 134.402 629.43 129.708 630.612 124.534C631.209 121.949 631.402 119.286 631.182 116.642C631.135 116.072 631.131 114.29 630.469 114.001C630.683 114.096 630.497 114.001 630.437 114.294C630.295 114.971 630.639 115.7 630.873 116.325C633.167 122.522 635.707 128.636 637.419 135.035C639.054 141.195 639.812 147.555 639.67 153.927C639.51 160.276 638.661 166.589 637.138 172.755C635.652 178.889 633.805 185.121 630.402 190.479C627.354 195.254 623.305 199.396 620.705 204.46C619.405 206.99 618.348 210.051 619.164 212.898C619.734 214.878 621.672 216.858 623.863 216.814C624.965 216.814 625.912 216.141 626.827 215.595C627.897 214.953 629.003 214.371 630.267 214.268C633.072 214.031 635.022 216.51 636.738 218.347C638.513 220.267 640.851 222.105 643.308 223.051C645.656 223.91 648.207 224.056 650.638 223.471C652.873 222.948 654.997 221.839 656.404 219.974C657.676 218.28 658.607 216.3 660.299 214.957C662.359 213.322 664.939 213.294 667.321 214.229C669.46 215.068 671.604 216.712 673.986 216.664C675.67 216.628 677.053 216.094 677.988 214.89C677.857 215.056 678.111 214.692 678.146 214.641C678.241 214.486 678.329 214.332 678.412 214.173C678.559 213.897 678.669 213.603 678.741 213.298C678.956 212.608 679.063 211.888 679.058 211.164C679.115 207.943 678.163 204.785 676.335 202.132C674.968 200.192 673.003 198.671 671.398 196.933C669.908 195.313 668.129 193.207 668.176 190.863C668.22 188.72 670.277 187.841 672.115 188.487C673.076 188.838 673.933 189.425 674.607 190.194C675.281 190.963 675.752 191.888 675.975 192.886C676.644 196.105 677.076 199.36 678.043 202.508C678.879 205.236 680.108 207.972 679.751 210.895C679.614 212.158 679.129 213.359 678.352 214.364C677.574 215.37 676.533 216.141 675.345 216.593C673.264 217.432 670.919 217.456 668.707 217.464C666.655 217.464 664.523 217.389 662.7 218.482C660.878 219.574 659.653 221.321 658.151 222.706C656.388 224.33 654.351 225.122 652.207 226.14C651.752 226.349 651.311 226.586 650.884 226.848C650.653 226.993 650.446 227.172 650.27 227.379C649.949 228.024 650.147 228.836 650.397 229.581C651.11 231.719 652.548 233.592 653.02 235.821C653.555 238.343 652.477 240.842 650.67 242.608C648.665 244.568 646.05 245.293 643.363 244.41C640.764 243.558 638.58 241.903 635.795 241.669C629.542 241.147 623.626 243.99 618.264 246.869C613.204 249.589 608.239 252.507 603.234 255.33C601.99 256.035 600.746 256.74 599.533 257.5C598.745 257.923 598.022 258.456 597.386 259.084C596.946 259.579 596.633 260.11 596.046 260.462C595.472 260.78 594.85 261.001 594.204 261.116C592.894 261.391 591.538 261.361 590.241 261.028C587.99 260.423 585.736 258.403 585.847 255.881C585.874 255.232 586.101 254.608 586.498 254.094C586.894 253.58 587.441 253.201 588.062 253.01C589.29 252.638 590.542 253.069 591.581 253.739C593.781 255.228 595.845 256.911 597.746 258.767C599.811 260.748 602.333 262.19 605.089 262.965C611.243 264.671 617.658 263.361 623.713 261.864C626.796 261.108 629.906 260.324 633.092 260.189C634.712 260.11 636.335 260.255 637.915 260.621C639.448 260.989 640.807 261.725 642.273 262.311C645.088 263.428 648.207 263.519 651.082 262.569C654.006 261.607 656.673 260.042 659.78 259.694C663.061 259.322 666.338 259.983 669.583 260.399C672.928 260.828 676.293 261.084 679.664 261.167C682.834 261.246 685.96 261.222 689.079 260.541C691.962 259.953 694.752 258.977 697.373 257.639C698.596 257.019 699.729 256.236 700.741 255.311C700.978 255.085 701.232 254.915 700.947 254.736C700.654 254.643 700.341 254.625 700.039 254.685C698.32 254.855 697.083 256.348 696.136 257.77C694.92 259.595 693.996 261.591 692.966 263.531C692.063 265.261 691.068 266.96 690.046 268.619C687.09 273.422 683.246 277.465 679.006 281.152C674.766 284.838 670.249 288.216 665.137 290.595C654.506 295.545 642.46 295.787 631.337 292.33C619.675 288.707 609.689 281.298 601.253 272.622C599.453 270.802 597.753 268.885 596.161 266.881C594.576 264.842 593.423 262.577 593.352 259.94C593.308 258.312 595.396 257.987 596.221 259.148C599.787 264.256 607.213 263.852 612.701 263.864C616.014 263.864 619.362 263.836 622.627 263.234C625.797 262.652 628.717 261.207 631.884 260.72C633.448 260.424 635.061 260.514 636.583 260.981C638.081 261.496 639.333 262.438 640.712 263.183C643.033 264.382 645.643 264.911 648.248 264.711C650.854 264.51 653.351 263.587 655.461 262.046C656.673 261.155 657.838 260.205 659.348 259.904C660.943 259.65 662.577 259.795 664.103 260.324C667.562 261.369 670.883 262.434 674.513 262.743C678.154 263.058 681.821 262.837 685.398 262.086C687.331 261.69 688.172 264.644 686.214 265.051L686.194 265.071ZM685.378 262.204C686.567 261.86 687.724 261.5 688.869 261.06C688.94 261.032 689.146 260.953 688.817 261.084L689.027 260.993L689.424 260.803C689.688 260.671 689.952 260.529 690.216 260.379C690.454 260.244 690.684 260.102 690.91 259.947L691.231 259.722C691.278 259.686 691.456 259.555 691.27 259.694C691.084 259.833 691.326 259.646 691.346 259.627C691.752 259.29 692.126 258.916 692.463 258.51C692.503 258.459 692.542 258.403 692.586 258.356C692.562 258.383 692.376 258.645 692.522 258.431C692.586 258.336 692.653 258.245 692.717 258.15C692.863 257.918 692.996 257.677 693.113 257.429C693.136 257.369 693.164 257.311 693.196 257.255C693.196 257.255 693.077 257.556 693.137 257.397C693.196 257.239 693.228 257.156 693.267 257.033C693.351 256.774 693.417 256.509 693.465 256.241C693.501 256.055 693.402 256.217 693.465 256.34C693.458 256.286 693.458 256.232 693.465 256.178C693.465 256.107 693.465 256.031 693.465 255.96C693.485 255.754 693.541 256.249 693.465 256.051C693.465 255.984 693.426 255.913 693.41 255.845C693.374 255.683 693.446 255.972 693.462 255.976C693.477 255.98 693.355 255.814 693.358 255.81C693.491 255.976 693.518 256.015 693.442 255.928L693.339 255.821C692.912 255.411 692.46 255.026 691.987 254.669L691.853 254.562C691.682 254.428 692.067 254.725 691.892 254.594L691.524 254.317C691.278 254.135 691.03 253.956 690.779 253.782C689.772 253.081 688.73 252.436 687.664 251.83C685.608 250.642 683.472 249.636 681.348 248.587C679.224 247.538 677.14 246.524 675.008 245.578L674.18 245.217L673.815 245.063L673.736 245.031L673.605 244.976C673.048 244.743 672.486 244.518 671.921 244.299C670.796 243.863 669.662 243.459 668.513 243.111C667.364 242.762 666.239 242.434 665.078 242.168C664.507 242.039 663.935 241.923 663.362 241.82L662.57 241.689L662.193 241.634C662.645 241.709 662.078 241.634 661.959 241.61C660.849 241.481 659.732 241.425 658.615 241.444C658.369 241.444 658.124 241.444 657.878 241.475L657.593 241.507C658.104 241.472 657.692 241.507 657.553 241.507C657.112 241.59 656.676 241.701 656.249 241.84C655.809 241.982 655.377 242.145 654.95 242.319C654.605 242.461 655.255 242.188 654.91 242.319L654.625 242.442L653.931 242.75C652.964 243.19 652.001 243.637 651.015 244.029C649.093 244.868 646.974 245.15 644.9 244.841C644.401 244.751 643.913 244.611 643.442 244.421C643.062 244.303 642.736 244.053 642.523 243.717C642.318 243.356 642.262 242.93 642.368 242.529C642.602 241.808 643.462 241.139 644.263 241.456C644.748 241.651 645.253 241.794 645.768 241.883C646.165 241.947 645.428 241.852 645.808 241.883L646.165 241.911C646.414 241.924 646.664 241.924 646.913 241.911L647.262 241.887C647.401 241.887 647.758 241.784 647.286 241.887C647.528 241.832 647.773 241.808 648.015 241.753C648.487 241.647 648.953 241.515 649.41 241.357C649.636 241.277 649.858 241.194 650.08 241.111L650.412 240.977L650.579 240.909L650.5 240.941C650.955 240.747 651.403 240.545 651.855 240.335C652.822 239.892 653.788 239.448 654.787 239.08C655.759 238.714 656.774 238.476 657.807 238.371C658.927 238.285 660.053 238.301 661.171 238.419C663.654 238.643 666.108 239.121 668.494 239.844C673.316 241.277 677.901 243.436 682.402 245.653C686.903 247.87 691.472 250.009 695.253 253.358C695.839 253.832 696.256 254.482 696.441 255.212C696.576 255.978 696.534 256.765 696.319 257.512C695.969 258.74 695.341 259.872 694.484 260.819C692.78 262.798 690.311 263.852 687.886 264.624C687.304 264.81 686.697 264.98 686.127 265.15C685.932 265.204 685.728 265.219 685.528 265.194C685.327 265.169 685.134 265.104 684.958 265.005C684.782 264.905 684.628 264.771 684.504 264.612C684.38 264.452 684.288 264.27 684.235 264.075C684.181 263.881 684.166 263.677 684.191 263.477C684.217 263.276 684.281 263.083 684.381 262.907C684.481 262.732 684.614 262.578 684.774 262.454C684.933 262.33 685.116 262.238 685.311 262.185L685.378 262.204ZM506.362 201.938C508.014 198.374 513.257 190.411 517.968 194.414C521.566 197.463 519.609 203.173 515.46 204.413C504.512 207.679 492.699 190.197 504.401 183.767C509.504 180.963 514.251 184.836 516.641 189.219C520.164 195.686 522.303 203.237 524.566 210.206C526.987 217.65 529.103 225.185 530.827 232.827C532.305 239.397 533.601 246.025 535.621 252.46C540.178 266.956 550.172 278.689 560.423 289.609C571.213 301.093 583.156 311.487 595.159 321.683C606.254 331.111 618.431 339.941 632.454 344.396C639.393 346.597 646.664 347.742 653.935 346.942C661.088 346.15 667.99 343.643 674.354 340.353C686.69 333.974 697.503 324.807 707.56 315.336C717.617 305.864 727.016 295.616 734.708 284.161C742.546 272.492 747.61 260.169 748.723 246.085C749.912 231.291 746.706 216.561 740.006 203.32C727.884 179.411 705.381 162.788 686.166 144.918C675.178 134.698 664.618 123.932 654.264 113.059C643.656 101.924 633.461 90.3696 624.315 77.9955C615.617 66.2273 607.807 53.7068 602.228 40.1448C596.33 25.942 593.678 10.6029 594.465 -4.75412C595.301 -20.9453 598.979 -37.2236 603.492 -52.7575C604.681 -56.8122 607.55 -62.8785 612.697 -62.2093C617.666 -61.5638 618.672 -55.3788 616.331 -51.7082C613.854 -47.8277 608.164 -46.1131 603.809 -46.228L605.136 -46.9882C591.267 -17.9716 595.507 16.8737 608.988 45.1974C622.908 74.4476 645.376 98.4157 667.959 121.188C690.426 143.841 713.801 166.186 730.963 193.322C738.524 205.28 744.931 218.22 749.028 231.786C750.78 237.579 752.868 244.354 751.98 250.468C751.231 255.616 748.537 260.367 745.87 264.766C739.106 275.889 730.812 286.632 729.12 299.936C727.654 311.364 731.32 323.299 741.801 329.198C744.799 330.824 748.027 331.985 751.374 332.643L750.558 335.609C748.343 334.896 747.483 332.711 746.94 330.624C745.989 326.969 745.779 323.013 745.581 319.26C745.185 311.606 747.626 304.28 751.168 297.58C759.061 282.633 770.838 269.863 782.286 257.587C804.991 233.251 827.962 208.392 846.875 180.928C856.255 167.295 864.521 152.814 870.5 137.371C876.949 120.507 881.365 102.936 883.656 85.028C888.411 48.9314 885.514 12.0152 877.49 -23.4082C873.801 -39.7063 868.971 -55.553 861.707 -70.6395C854.827 -84.8379 846.442 -98.2575 836.696 -110.668C817.386 -135.369 793.318 -157.428 765.144 -171.528C736.479 -185.882 703.812 -192.174 671.965 -187.502C645.332 -183.594 617.678 -177.357 594.338 -163.455C588.633 -160.121 583.316 -156.162 578.488 -151.651C576.219 -149.502 574.101 -147.2 572.148 -144.761C571.843 -144.365 570.143 -141.878 570.29 -143.177C570.314 -143.019 570.359 -142.864 570.424 -142.718C571.784 -137.063 573.749 -131.488 575.421 -125.921C581.674 -105.081 587.959 -84.2331 594.972 -63.6348C596.264 -59.8453 597.584 -56.0638 599.006 -52.3219C599.585 -50.7974 597.473 -49.8629 596.435 -50.8251C595.246 -51.9101 594.707 -53.9929 594.121 -55.3946C592.785 -58.6139 591.569 -61.8846 590.356 -65.1553C586.73 -74.9436 583.267 -84.7954 579.792 -94.6392C576.253 -104.657 572.739 -114.683 569.093 -124.669C567.781 -128.273 566.466 -131.876 565.063 -135.444C564.485 -136.917 563.942 -139.293 562.824 -140.492C563.221 -140.065 561.54 -140.948 561.156 -141.051C559.61 -141.398 558.023 -141.532 556.441 -141.447C552.866 -141.317 549.308 -140.898 545.801 -140.191C538.237 -138.817 530.617 -137.491 523.286 -135.135C505.379 -129.385 489.957 -117.601 477.261 -103.96C464.565 -90.3191 454.71 -74.1596 449.198 -56.242C443.508 -37.7344 441.436 -17.8726 444.685 1.29233C446.279 10.8365 449.242 20.1012 453.482 28.8003C457.892 37.7769 463.586 46.0408 469.304 54.2215C480.356 70.0326 492.073 86.5643 494.839 106.153C495.508 110.796 495.581 115.505 495.057 120.166C494.835 122.11 491.756 122.146 491.978 120.166C494.403 98.9463 483.229 79.7774 471.638 62.9408C460.238 46.4011 448.576 30.3486 443.528 10.5739C434.184 -26.0216 443.9 -66.8817 466.887 -96.5081C478.073 -110.929 492.418 -124.19 508.787 -132.514C517.505 -136.956 526.943 -139.871 536.576 -141.589C542.952 -142.726 549.308 -144.31 555.807 -144.535C559.012 -144.646 564.025 -144.709 565.832 -141.482C567.021 -139.328 567.813 -136.861 568.709 -134.565C572.156 -125.58 575.33 -116.485 578.54 -107.413C582.34 -96.6705 586.108 -85.9199 589.968 -75.1971C592.476 -68.228 594.723 -60.9818 597.94 -54.2859C598.132 -53.9625 598.301 -53.6265 598.448 -53.2802C598.57 -52.8842 598.721 -52.9159 598.606 -53.0228L596.034 -51.526C588.549 -71.2057 582.637 -91.5427 576.515 -111.678C573.952 -120.099 571.42 -128.53 568.919 -136.972C568.415 -138.667 567.69 -140.437 567.381 -142.179C567.116 -143.68 568.209 -144.67 569.093 -145.826C570.932 -148.219 572.926 -150.487 575.065 -152.617C594.227 -171.711 622.163 -180.652 647.975 -186.274C661.773 -189.296 675.931 -191.818 690.081 -192.119C705.825 -192.392 721.521 -190.306 736.645 -185.93C767.454 -177.104 794.197 -159.626 816.93 -137.333C839.37 -115.333 858.038 -89.1312 869.791 -59.8968C876.23 -43.8838 880.26 -26.9324 883.386 -10.0047C886.775 8.11618 888.641 26.4885 888.966 44.9202C889.497 80.0071 883.925 115.826 869.363 147.947C855.557 178.405 833.851 204.535 811.906 229.43C800.609 242.24 788.923 254.693 777.487 267.356C771.482 273.904 765.895 280.822 760.757 288.069C755.975 294.912 751.37 302.241 749.444 310.461C748.489 314.536 748.581 318.499 748.917 322.637C749.064 324.439 749.04 331.895 751.394 332.655C753.284 333.265 752.515 336.037 750.578 335.621C738.916 333.119 729.525 325.469 726.699 313.613C723.771 301.338 727.769 288.976 733.832 278.32C737.042 272.674 740.806 267.368 744.095 261.765C746.718 257.298 749.409 252.262 749.084 246.928C748.616 239.214 745.914 231.37 743.176 224.207C740.742 217.885 737.904 211.725 734.68 205.767C718.81 176.315 694.805 152.481 671.394 129.004C648.423 105.991 625.096 82.3195 609.642 53.3742C594.905 25.7316 588.204 -7.90207 598.301 -38.2769C599.473 -41.7743 600.861 -45.1954 602.458 -48.5206C602.591 -48.754 602.785 -48.9476 603.018 -49.0812C603.251 -49.2149 603.516 -49.2838 603.785 -49.2809C606.152 -49.2382 608.492 -49.7824 610.597 -50.8647C613.022 -52.0527 615.998 -55.3313 613.921 -58.1625C611.572 -61.3619 608.461 -56.836 607.518 -54.8799C606.032 -51.7953 605.449 -48.2355 604.601 -44.9411C600.789 -30.1239 597.469 -15.0018 597.37 0.361801C597.152 29.4299 611.08 55.3105 628.115 78.0034C645.019 100.522 665.244 120.835 685.624 140.206C703.186 156.9 723.097 171.781 736.859 192.019C750.914 212.688 756.525 240.07 748.394 264.129C744.551 275.501 737.85 285.753 730.448 295.113C722.864 304.708 714.277 313.514 705.175 321.671C686.923 338.029 664.428 354.354 638.553 349.143C625.789 346.574 614.171 340.111 603.781 332.457C592.722 324.308 582.383 314.971 572.307 305.646C561.809 296.008 552.167 285.479 543.487 274.179C535.598 263.828 531.956 252.198 529.182 239.646C526.084 225.633 522.268 211.928 517.192 198.465C515.694 194.506 512.163 182.626 505.637 186.586C498.366 191.001 505.284 200.105 511.161 201.431C512.833 201.827 515.361 201.89 516.387 200.16C516.887 199.317 516.863 197.756 516.205 196.992C513.927 194.395 509.683 202.005 509.009 203.462C508.177 205.256 505.522 203.696 506.35 201.91L506.362 201.938Z" fill="#402B1D"/>
</g>
<g clip-path="url(#clip2_1248:9464)">
<path opacity="0.15" d="M554.745 -168.351C551.986 -222.675 604.814 -252.632 652.091 -251.908C712.122 -250.974 777.946 -223.548 825.656 -188.45C883.93 -145.573 929.307 -73.3976 935.615 -0.770706C938.128 28.1101 927.906 58.6179 906.515 78.6132C867.492 115.093 807.987 107.892 762.145 89.21C657.071 48.4155 560.642 -52.2117 554.745 -168.351Z" fill="#FCF9F7"/>
</g>
<defs>
<clipPath id="clip0_1248:9464">
<rect width="506" height="188" fill="white" transform="matrix(1 0 0 -1 0 352)"/>
</clipPath>
<clipPath id="clip1_1248:9464">
<rect width="220" height="432" fill="white" transform="matrix(-1 0 0 1 660 -40)"/>
</clipPath>
<clipPath id="clip2_1248:9464">
<rect width="108" height="134" fill="white" transform="matrix(-1 0 0 1 652 -40)"/>
</clipPath>
</defs>
</svg>
