<svg width="880" height="312" viewBox="0 0 880 312" fill="none" xmlns="http://www.w3.org/2000/svg">
<mask id="mask0" style="mask-type:alpha" maskUnits="userSpaceOnUse" x="0" y="0" width="880" height="312">
<rect width="880" height="312" rx="4" fill="#C28566"/>
</mask>
<g mask="url(#mask0)">
<g clip-path="url(#clip0)">
<path opacity="0.6" d="M423.236 375.205C412.097 406.869 370.183 422.024 340.695 406.361C327.154 413.114 311.53 411.54 296.79 409.549C280.676 407.929 265.083 406.569 248.889 405.366C185.082 400.614 171.382 403.694 156.221 395.066C103.391 432.63 38.7207 373.851 66.2593 318.142C93.7979 262.432 145.141 211.522 206.978 196.803C275.072 180.594 343.119 206.603 387.183 255.061C399.93 269.08 403.182 296.98 414.275 312.332C429.837 333.866 431.773 350.906 423.236 375.205Z" fill="#AB6A49"/>
<path opacity="0.2" d="M162.731 380.515C139.41 444.093 83.9341 412.477 61.0988 416.824C20.8677 418.576 -5.96472 438.442 -34.1951 404.721C-69.047 428.466 -113.628 408.432 -121.571 369.559C-127.773 337.13 -101.236 305.381 -84.3966 289.707C-44.5913 253.151 16.4004 238.248 68.8895 250.157C120.572 261.888 182.294 321.259 162.731 380.515Z" fill="#FCF9F7"/>
</g>
<g opacity="0.15" clip-path="url(#clip1)">
<path d="M737.623 133.597C737.417 133.949 737.36 134.369 737.463 134.763C737.567 135.158 737.823 135.495 738.176 135.701C738.529 135.907 738.949 135.965 739.343 135.861C739.738 135.757 740.076 135.501 740.282 135.149C740.81 134.159 741.368 133.18 741.954 132.211C746.523 124.6 752.574 117.73 759.932 112.753C763.848 110.054 768.174 108.006 772.743 106.687C777.304 105.443 782.026 104.889 786.751 105.043C796.657 105.281 806.25 108.124 815.555 111.442C820.698 113.277 825.785 115.265 830.814 117.406C834.777 119.096 838.89 121.013 842.25 123.599C843.944 124.878 845.448 126.391 846.716 128.093C848.071 130.039 849.152 132.163 849.926 134.405C851.61 139.081 852.573 143.971 854.59 148.529L856.698 146.41L854.07 144.755C846.451 139.976 838.72 135.359 830.767 131.158C822.655 126.873 814.287 122.973 805.585 120.035C797.6 117.338 789.271 115.572 780.823 115.382C772.957 115.204 764.992 116.435 757.686 119.401C750.133 122.493 743.365 127.227 737.873 133.26C737.73 133.403 737.617 133.572 737.539 133.759C737.462 133.945 737.422 134.145 737.422 134.347C737.422 134.549 737.462 134.749 737.539 134.935C737.617 135.122 737.73 135.291 737.873 135.434C738.016 135.577 738.185 135.69 738.372 135.767C738.559 135.844 738.759 135.884 738.961 135.884C739.163 135.884 739.363 135.844 739.549 135.767C739.736 135.69 739.905 135.577 740.048 135.434C740.748 134.671 741.467 133.925 742.204 133.197C747.653 127.812 754.25 123.728 761.501 121.25C768.876 118.776 776.405 118.051 784.179 118.605C788.186 118.901 792.162 119.524 796.067 120.47C800.184 121.478 804.236 122.736 808.2 124.236C816.624 127.36 824.712 131.34 832.59 135.648C840.269 139.849 847.75 144.403 855.144 149.087C855.439 149.255 855.781 149.322 856.118 149.279C856.455 149.235 856.768 149.083 857.011 148.846C857.242 148.6 857.39 148.287 857.434 147.952C857.477 147.617 857.414 147.277 857.252 146.98C856.777 145.911 856.377 144.811 856.004 143.698C854.419 138.946 853.433 133.945 851.126 129.443C848.927 125.151 845.46 121.844 841.41 119.294C837.285 116.697 832.716 114.855 828.219 113.014C823.007 110.881 817.731 108.901 812.392 107.075C802.954 103.879 792.996 101.531 782.967 101.99C777.945 102.179 772.985 103.165 768.273 104.913C763.717 106.681 759.445 109.108 755.593 112.115C748.128 117.861 742.121 125.321 737.643 133.585L737.623 133.597ZM850.904 179.695C849.507 177.227 848.022 174.812 846.451 172.449C844.866 170.105 843.28 167.892 841.573 165.809C839.793 163.611 837.895 161.512 835.886 159.521C834.906 158.552 833.898 157.614 832.863 156.706C832.335 156.236 831.789 155.774 831.226 155.32L830.458 154.698L830.061 154.393L829.784 154.179C825.207 150.699 820.024 147.614 814.489 146.066C813.007 145.642 811.485 145.377 809.948 145.274C809.156 145.225 808.362 145.225 807.57 145.274C807.232 145.295 806.894 145.325 806.556 145.365C806.373 145.385 806.556 145.365 806.579 145.365L806.35 145.401L805.815 145.496C805.151 145.626 804.495 145.798 803.853 146.01C803.556 146.109 803.263 146.216 802.973 146.331C802.902 146.353 802.833 146.382 802.767 146.418L802.272 146.648C801.691 146.931 801.13 147.253 800.592 147.61C800.098 147.924 799.637 148.288 799.217 148.695C798.317 149.481 797.58 150.436 797.049 151.506C796.978 151.644 796.911 151.776 796.847 151.902C796.808 151.99 796.673 152.326 796.772 152.065C796.669 152.334 796.574 152.607 796.491 152.888C796.408 153.169 796.344 153.443 796.293 153.724C796.269 153.843 796.229 154.12 796.265 153.835C796.245 153.985 796.229 154.14 796.217 154.29C796.172 154.834 796.172 155.381 796.217 155.925C796.217 156.048 796.261 156.321 796.217 156.036C796.217 156.167 796.257 156.298 796.281 156.432C796.331 156.712 796.392 156.991 796.463 157.268C796.534 157.545 796.618 157.819 796.713 158.091C796.755 158.218 796.8 158.344 796.847 158.468L796.919 158.654C797.002 158.875 796.824 158.44 796.919 158.654C797.144 159.165 797.402 159.661 797.691 160.139C797.831 160.368 797.978 160.594 798.131 160.816L798.365 161.144C798.365 161.144 798.512 161.338 798.409 161.204C798.306 161.069 798.48 161.291 798.496 161.311C798.864 161.759 799.262 162.184 799.685 162.582C799.879 162.764 800.081 162.938 800.291 163.108L800.445 163.235C800.445 163.235 800.255 163.092 800.398 163.195L800.794 163.465C801.249 163.776 801.725 164.054 802.221 164.296L802.577 164.463C802.74 164.534 802.53 164.463 802.51 164.435L802.692 164.506C802.958 164.605 803.227 164.696 803.485 164.775C803.742 164.855 804.031 164.922 804.313 164.973L804.709 165.041C804.887 165.072 804.646 165.041 804.626 165.041L804.887 165.068C805.441 165.117 805.998 165.117 806.552 165.068L806.754 165.045C806.754 165.045 806.476 165.096 806.651 165.045C806.825 164.993 806.892 165.005 807.011 164.977C807.275 164.924 807.53 164.861 807.776 164.787C808.026 164.712 808.267 164.609 808.517 164.53C808.684 164.478 808.442 164.565 808.426 164.569L808.588 164.498L808.985 164.316C809.428 164.082 809.854 163.817 810.261 163.524L810.407 163.417C810.407 163.417 810.201 163.587 810.332 163.477L810.609 163.247C810.807 163.078 811 162.902 811.188 162.72C811.375 162.538 811.543 162.364 811.691 162.198L811.929 161.924C812.004 161.833 812.262 161.505 812.068 161.762C812.677 160.944 813.194 160.061 813.609 159.129C813.498 159.374 813.609 159.164 813.641 159.042C813.672 158.919 813.728 158.812 813.767 158.697C813.857 158.446 813.939 158.193 814.013 157.937C814.159 157.428 814.274 156.911 814.358 156.389C814.358 156.329 814.358 156.27 814.386 156.207C814.386 156.207 814.358 156.492 814.386 156.314C814.413 156.135 814.409 156.072 814.421 155.949C814.442 155.685 814.456 155.421 814.461 155.157C814.466 154.893 814.466 154.652 814.461 154.433C814.461 154.314 814.453 154.194 814.437 154.072C814.437 154.001 814.39 153.597 814.413 153.799C814.437 154.001 814.39 153.649 814.378 153.589C814.354 153.452 814.327 153.32 814.298 153.193C814.243 152.929 814.178 152.678 814.104 152.441C814.037 152.211 813.958 151.986 813.874 151.764L813.807 151.597C813.807 151.597 813.922 151.843 813.843 151.689C813.763 151.534 813.724 151.435 813.664 151.293C813.435 150.841 813.17 150.408 812.872 149.998C812.777 149.867 812.892 150.022 812.908 150.041L812.761 149.863C812.663 149.747 812.563 149.632 812.46 149.519C812.222 149.255 811.972 149.005 811.711 148.77C811.6 148.67 811.486 148.571 811.37 148.473L811.196 148.331C810.934 148.133 810.665 147.935 810.403 147.776C809.893 147.466 809.363 147.189 808.818 146.945C808.265 146.723 807.698 146.534 807.122 146.379C806.8 146.294 806.475 146.22 806.147 146.157L805.692 146.078L805.462 146.042C805.632 146.066 805.509 146.042 805.41 146.042C804.77 145.973 804.125 145.942 803.481 145.947C803.172 145.947 802.863 145.962 802.553 145.991L802.094 146.034L801.864 146.062C802.03 146.042 801.915 146.062 801.816 146.062C800.453 146.237 799.134 146.667 797.929 147.329C797.412 147.619 796.945 147.991 796.546 148.43C796.451 148.529 796.364 148.636 796.269 148.739C796.079 148.948 796.332 148.628 796.174 148.857C795.993 149.113 795.825 149.377 795.671 149.649C795.607 149.768 795.546 149.888 795.488 150.01C795.445 150.101 795.338 150.382 795.429 150.136C795.326 150.41 795.231 150.687 795.151 150.972C795.072 151.257 795.017 151.502 794.969 151.764C794.969 151.827 794.902 152.191 794.922 152.037C794.941 151.883 794.898 152.302 794.89 152.385C794.845 152.975 794.845 153.566 794.89 154.155C794.89 154.322 794.922 154.488 794.937 154.658C794.969 154.955 794.91 154.528 794.961 154.825C795.013 155.122 795.072 155.446 795.14 155.755C795.275 156.355 795.445 156.946 795.651 157.525C795.701 157.665 795.752 157.797 795.805 157.921C795.833 157.988 795.968 158.317 795.873 158.099C795.995 158.392 796.134 158.681 796.269 158.966C796.549 159.529 796.863 160.073 797.208 160.598C797.385 160.862 797.569 161.126 797.759 161.39L797.901 161.584L797.977 161.687L798.262 162.039C799.924 164.117 802.038 165.79 804.444 166.929C804.792 167.096 804.872 167.131 805.101 167.222C805.424 167.349 805.749 167.465 806.076 167.571C806.732 167.782 807.402 167.947 808.081 168.066C808.145 168.066 808.529 168.137 808.303 168.105C808.462 168.125 808.62 168.145 808.779 168.157C809.125 168.189 809.471 168.207 809.817 168.212C810.122 168.212 810.431 168.212 810.736 168.212L811.176 168.177L811.398 168.153C811.235 168.153 811.307 168.153 811.43 168.153C812.063 168.053 812.688 167.906 813.3 167.713C813.581 167.622 813.863 167.519 814.14 167.416C814.417 167.314 814.065 167.456 814.318 167.341L814.786 167.119C815.335 166.844 815.865 166.531 816.371 166.181L816.731 165.924C816.953 165.765 816.676 165.979 816.886 165.805C817.096 165.631 817.409 165.361 817.655 165.124C817.9 164.886 818.051 164.728 818.265 164.494C818.363 164.386 818.458 164.276 818.55 164.166L818.689 163.995C818.843 163.805 818.57 164.162 818.717 163.964C819.076 163.481 819.395 162.97 819.672 162.435C819.739 162.308 819.798 162.178 819.862 162.039C819.985 161.782 819.83 162.142 819.933 161.877C820.036 161.612 820.147 161.291 820.23 160.99C820.317 160.689 820.388 160.383 820.444 160.075C820.444 159.988 820.5 159.648 820.472 159.909C820.472 159.739 820.504 159.572 820.516 159.402C820.541 158.834 820.525 158.265 820.468 157.699C820.492 157.977 820.468 157.699 820.448 157.581C820.428 157.462 820.401 157.319 820.373 157.185C820.312 156.905 820.24 156.629 820.155 156.357C820.076 156.108 819.989 155.862 819.894 155.617C819.83 155.45 819.913 155.66 819.921 155.68L819.814 155.442C819.751 155.302 819.684 155.17 819.612 155.046C819.358 154.558 819.07 154.088 818.748 153.641C818.693 153.561 818.511 153.32 818.669 153.526C818.586 153.419 818.503 153.316 818.415 153.213C818.228 152.989 818.032 152.77 817.829 152.556C817.418 152.125 816.981 151.719 816.521 151.34L816.296 151.154L816.058 150.98C815.812 150.8 815.56 150.626 815.301 150.457C814.802 150.132 814.288 149.833 813.76 149.558C813.495 149.426 813.231 149.294 812.967 149.162L812.571 148.984L812.373 148.897C812.523 148.96 812.444 148.925 812.341 148.897C811.754 148.671 811.152 148.457 810.566 148.279C809.979 148.101 809.405 147.966 808.814 147.848C808.534 147.792 808.252 147.742 807.966 147.697L807.756 147.666C807.784 147.666 807.994 147.697 807.812 147.666L807.316 147.61C806.658 147.548 805.997 147.521 805.335 147.527C804.662 147.531 803.99 147.572 803.322 147.65C802.664 147.748 802.013 147.895 801.377 148.089C800.755 148.267 800.163 148.534 799.617 148.881C799.134 149.164 798.697 149.52 798.321 149.934C798.226 150.033 798.139 150.136 798.048 150.239L797.917 150.394C797.917 150.394 798.056 150.208 797.953 150.35C797.783 150.588 797.624 150.829 797.477 151.083C797.331 151.336 797.228 151.554 797.113 151.799C797.224 151.558 797.113 151.835 797.065 151.93C797.018 152.025 796.958 152.227 796.911 152.378C796.824 152.657 796.748 152.941 796.685 153.229C796.656 153.363 796.631 153.495 796.61 153.625C796.61 153.692 796.59 153.759 796.578 153.827C796.542 154.068 796.602 153.585 796.578 153.827C796.522 154.403 796.506 154.983 796.53 155.561C796.53 155.842 796.57 156.119 796.602 156.401C796.57 156.131 796.602 156.452 796.629 156.551C796.656 156.715 796.688 156.877 796.725 157.038C796.852 157.64 797.024 158.232 797.24 158.808C797.263 158.871 797.394 159.204 797.347 159.085C797.299 158.966 797.442 159.295 797.469 159.355C797.602 159.619 797.743 159.89 797.893 160.17C798.044 160.45 798.192 160.689 798.337 160.887C798.417 161.002 798.5 161.117 798.579 161.231C798.579 161.231 798.726 161.425 798.631 161.303C798.535 161.18 798.722 161.414 798.738 161.433C799.13 161.909 799.556 162.355 800.013 162.768C800.143 162.884 800.275 162.997 800.41 163.108L800.659 163.31L800.921 163.5C801.061 163.601 801.204 163.698 801.349 163.793C801.867 164.131 802.407 164.434 802.966 164.7L803.362 164.886C803.524 164.957 803.362 164.886 803.334 164.886L803.54 164.969C803.839 165.086 804.141 165.191 804.448 165.286C805.059 165.476 805.682 165.623 806.314 165.726C806.397 165.726 806.746 165.781 806.488 165.753L806.928 165.797C807.245 165.823 807.562 165.838 807.879 165.841C808.196 165.843 808.488 165.835 808.755 165.817L809.191 165.781L809.409 165.757C809.246 165.757 809.306 165.757 809.432 165.757C810.057 165.659 810.674 165.51 811.275 165.314L811.671 165.167C811.739 165.14 812.068 165.001 811.85 165.1C812.131 164.973 812.408 164.839 812.678 164.704C812.947 164.569 813.149 164.427 813.379 164.276L813.716 164.043C813.859 163.944 813.716 164.043 813.676 164.078L813.89 163.908C814.329 163.545 814.738 163.148 815.115 162.72C815.222 162.601 815.321 162.479 815.424 162.352C815.606 162.134 815.352 162.463 815.519 162.229C815.685 161.996 815.86 161.742 816.018 161.489C816.318 161.003 816.583 160.496 816.811 159.972C816.708 160.21 816.811 159.921 816.862 159.834C816.914 159.747 816.957 159.576 817.001 159.438C817.096 159.158 817.182 158.874 817.258 158.586C817.335 158.299 817.398 158.011 817.449 157.723C817.472 157.589 817.494 157.457 817.512 157.327C817.468 157.628 817.512 157.232 817.512 157.129C817.557 156.568 817.557 156.004 817.512 155.442C817.512 155.308 817.484 155.173 817.476 155.046C817.496 155.32 817.476 155.046 817.457 154.924C817.409 154.636 817.347 154.352 817.27 154.072C817.194 153.792 817.113 153.536 817.029 153.304C817.009 153.245 816.874 152.908 816.934 153.047C816.993 153.185 816.894 152.96 816.874 152.92L816.755 152.675C816.494 152.17 816.192 151.688 815.852 151.233C816.006 151.443 815.828 151.205 815.765 151.13L815.507 150.833C815.319 150.625 815.123 150.424 814.917 150.231C814.73 150.053 814.52 149.891 814.334 149.725C814.199 149.614 814.378 149.752 814.394 149.768L814.239 149.653L813.87 149.396C813.406 149.085 812.92 148.807 812.416 148.564L812.064 148.398C811.798 148.271 812.226 148.457 811.949 148.347C811.671 148.236 811.414 148.141 811.156 148.05C810.054 147.682 808.919 147.417 807.768 147.258C808.038 147.297 807.721 147.258 807.622 147.258L807.202 147.214C806.895 147.182 806.587 147.157 806.278 147.139C805.68 147.099 805.089 147.079 804.479 147.076C803.239 147.076 802.003 147.123 800.766 147.226C800.164 147.276 799.563 147.337 798.963 147.408L798.111 147.515L797.957 147.535L797.469 147.606C790.61 148.616 783.767 149.764 776.916 150.845L766.811 152.429L767.731 150.168C768.446 151.442 769.229 152.676 770.076 153.866C770.285 154.157 770.496 154.446 770.71 154.734C770.746 154.781 771.035 155.157 770.889 154.971L771.285 155.454C771.734 156.011 772.196 156.558 772.672 157.094C773.66 158.203 774.705 159.26 775.802 160.261C776.331 160.744 776.872 161.214 777.427 161.671C777.691 161.901 777.97 162.126 778.263 162.348L778.445 162.491L778.501 162.53L778.992 162.898C781.345 164.64 783.859 166.151 786.501 167.413C786.826 167.568 787.152 167.719 787.48 167.864L787.971 168.082L788.181 168.173L788.308 168.228C788.971 168.492 789.641 168.756 790.317 169.02C791.715 169.524 793.136 169.96 794.581 170.327C796.026 170.694 797.456 170.98 798.872 171.186L799.403 171.261L799.601 171.285C799.982 171.333 800.363 171.374 800.747 171.408C801.486 171.476 802.226 171.527 802.966 171.558C806.001 171.675 809.04 171.459 812.028 170.913C815.713 170.252 819.335 169.281 823.028 168.668C826.621 168.014 830.294 167.916 833.917 168.375C840.437 169.316 846.495 172.284 851.233 176.856C851.793 177.4 852.331 177.965 852.846 178.551L850.274 180.048L850.207 179.889L850.045 179.513L849.783 178.911C849.574 178.436 849.363 177.962 849.149 177.49C848.729 176.566 848.296 175.642 847.849 174.718C846.951 172.889 845.991 171.092 844.969 169.329C843.032 165.939 840.755 162.755 838.173 159.826C836.853 158.342 835.435 156.949 833.929 155.656C829.65 151.991 824.541 149.422 819.046 148.172C818.139 147.959 817.227 147.774 816.307 147.618C815.858 147.541 815.409 147.471 814.96 147.408L814.659 147.365C814.921 147.4 814.659 147.365 814.615 147.365L813.863 147.273C811.984 147.064 810.094 146.953 808.204 146.913C804.357 146.868 800.511 147.024 796.681 147.38C788.926 148.038 781.195 149.15 773.405 149.277C765.876 149.4 758.217 148.485 751.353 145.175C750.527 144.776 749.718 144.346 748.928 143.884L751.258 142.11L751.369 142.391C751.278 142.165 751.369 142.391 751.389 142.439C751.472 142.621 751.555 142.799 751.643 142.977C751.841 143.376 752.059 143.764 752.296 144.141C752.685 144.79 753.145 145.393 753.668 145.939C754.221 146.541 754.818 147.101 755.455 147.614C755.502 147.654 755.752 147.852 755.554 147.697L755.795 147.875C755.957 147.994 756.12 148.11 756.287 148.224C756.641 148.467 757.001 148.696 757.369 148.913C758.759 149.758 760.257 150.412 761.822 150.857C762.655 151.107 763.5 151.31 764.354 151.467L764.957 151.57C765.012 151.57 765.591 151.657 765.302 151.621C765.856 151.687 766.414 151.739 766.974 151.776C771.487 152.061 775.941 151.32 780.339 150.386C784.54 149.495 788.708 148.497 792.94 147.776C801.068 146.398 809.436 145.753 817.583 147.337C821.567 148.097 825.408 149.473 828.968 151.415C832.265 153.267 835.294 155.56 837.971 158.23C843.38 163.548 847.524 170.034 851.194 176.627C851.64 177.419 852.081 178.225 852.517 179.046L849.648 179.838C849.648 178.832 849.648 177.827 849.561 176.825C849.527 176.323 849.481 175.823 849.422 175.324C849.422 175.193 849.391 175.063 849.375 174.928C849.375 174.892 849.335 174.627 849.375 174.865C849.335 174.576 849.292 174.29 849.244 174.001C848.921 172.019 848.438 170.066 847.802 168.161C847.643 167.683 847.475 167.209 847.298 166.739C847.225 166.541 847.148 166.345 847.069 166.149L846.922 165.781L846.831 165.559L846.799 165.488C846.4 164.564 845.968 163.657 845.503 162.768C844.568 160.986 843.496 159.28 842.298 157.664C841.81 157.006 841.208 156.262 840.546 155.506C839.885 154.749 839.191 154.021 838.47 153.324C837.749 152.627 837 151.954 836.227 151.316L835.609 150.817C835.609 150.817 835.383 150.639 835.546 150.766L835.292 150.576C834.869 150.259 834.44 149.95 834.004 149.649C830.741 147.416 827.143 145.714 823.345 144.609C821.456 144.044 819.535 143.595 817.591 143.262C817.103 143.178 816.614 143.1 816.125 143.029L815.761 142.977L814.825 142.862C813.832 142.746 812.838 142.654 811.842 142.585C807.767 142.327 803.681 142.318 799.605 142.558C791.185 142.985 782.812 144.062 774.392 144.446C766.118 144.842 757.662 144.525 749.681 142.126C748.704 141.833 747.738 141.507 746.785 141.148L748.738 139.679C748.722 140.174 748.734 140.67 748.774 141.164C748.774 141.263 748.774 141.358 748.802 141.457C748.841 141.924 748.77 141.279 748.802 141.556C748.833 141.833 748.889 142.086 748.944 142.348C749.04 142.8 749.159 143.246 749.301 143.686C749.367 143.895 749.438 144.1 749.515 144.304C749.565 144.441 749.618 144.573 749.673 144.7C749.57 144.454 749.725 144.815 749.753 144.866C750.153 145.734 750.632 146.564 751.183 147.345C751.31 147.527 751.441 147.709 751.579 147.883C751.397 147.65 751.702 148.03 751.71 148.038L751.9 148.267C752.223 148.648 752.562 149.014 752.919 149.368C754.289 150.755 755.883 151.903 757.634 152.762C758.03 152.968 758.454 153.158 758.874 153.34C758.597 153.225 759.061 153.411 759.068 153.415L759.35 153.522C759.614 153.62 759.878 153.711 760.142 153.795C761.236 154.145 762.356 154.41 763.491 154.587C768.329 155.379 773.397 154.532 778.152 153.213C783.089 151.843 787.825 149.863 792.643 148.145C797.291 146.49 802.058 145.088 806.995 144.676C810.9 144.375 814.827 144.664 818.645 145.535C826.332 147.313 833.412 151.087 839.171 156.476C844.885 161.782 849.256 168.656 851.202 176.231C851.437 177.149 851.635 178.073 851.796 179.003C851.893 179.395 851.835 179.81 851.636 180.162C851.436 180.514 851.109 180.777 850.722 180.895C849.981 181.097 848.971 180.646 848.828 179.822C848.496 177.909 848.01 176.026 847.374 174.191C847.223 173.759 847.065 173.328 846.898 172.901C846.819 172.697 846.738 172.495 846.657 172.295C846.657 172.319 846.482 171.899 846.565 172.077L846.415 171.729C846.034 170.868 845.622 170.022 845.179 169.19C844.278 167.506 843.258 165.887 842.127 164.348L841.691 163.766C841.509 163.524 841.628 163.679 841.668 163.73L841.398 163.385C841.097 163.005 840.789 162.631 840.475 162.261C839.846 161.522 839.186 160.805 838.494 160.111C837.167 158.754 835.753 157.484 834.262 156.31C834.262 156.31 833.865 156.005 834.111 156.191L833.877 156.013L833.291 155.577C832.897 155.289 832.501 155.008 832.102 154.734C831.31 154.185 830.487 153.663 829.633 153.169C828.78 152.676 827.926 152.211 827.07 151.776C826.679 151.58 826.283 151.39 825.881 151.205L825.219 150.905L824.954 150.786L824.688 150.671H824.72C822.954 149.931 821.139 149.315 819.287 148.826C818.352 148.58 817.409 148.368 816.458 148.188C816.006 148.104 815.553 148.027 815.099 147.959C815.012 147.959 814.409 147.864 814.703 147.903L813.839 147.8C811.962 147.6 810.073 147.544 808.188 147.634C807.217 147.681 806.247 147.764 805.284 147.891C805.577 147.852 805.256 147.891 805.185 147.891L804.788 147.955L803.833 148.117C803.199 148.23 802.568 148.362 801.939 148.513C799.429 149.097 796.954 149.822 794.525 150.683C784.924 154.005 775.196 158.741 764.751 157.779C760.205 157.431 755.866 155.736 752.289 152.912C749.118 150.39 746.606 146.767 745.873 142.748C745.68 141.717 745.595 140.668 745.62 139.619C745.647 138.701 746.594 137.774 747.569 138.135C749.527 138.862 751.529 139.463 753.564 139.932C754.552 140.162 755.546 140.363 756.544 140.534C757.044 140.621 757.544 140.702 758.046 140.776L758.442 140.831H758.51L759.385 140.942C763.562 141.4 767.767 141.554 771.967 141.401C780.482 141.16 788.942 140.083 797.442 139.548C805.716 139.025 814.176 139.002 822.259 141.069C830.343 143.136 837.749 147.404 843.158 153.819C848.654 160.279 851.965 168.311 852.616 176.765C852.688 177.767 852.715 178.773 852.703 179.779C852.703 181.26 850.576 181.929 849.835 180.571C848.028 177.217 846.141 173.906 844.057 170.719C842.086 167.638 839.852 164.734 837.38 162.039C836.115 160.668 834.769 159.374 833.35 158.163C829.067 154.499 823.965 151.919 818.475 150.639C810.823 148.818 802.446 149.297 794.731 150.54C790.499 151.221 786.327 152.184 782.138 153.098C777.625 154.084 773.025 154.955 768.373 154.872C761.153 154.741 753.315 151.871 749.463 145.401C748.996 144.598 748.598 143.757 748.274 142.886C748.194 142.593 748.203 142.282 748.302 141.994C748.4 141.706 748.582 141.454 748.825 141.271C749.067 141.085 749.358 140.975 749.661 140.954C749.965 140.933 750.268 141.002 750.533 141.152C751.368 141.64 752.221 142.093 753.093 142.51C753.829 142.869 754.583 143.19 755.352 143.472C757.094 144.13 758.882 144.659 760.701 145.056C761.599 145.254 762.503 145.422 763.411 145.559L764.077 145.658C764.331 145.694 763.859 145.63 764.113 145.658L764.485 145.705C764.958 145.764 765.432 145.815 765.908 145.86C767.778 146.038 769.652 146.121 771.531 146.137C779.357 146.196 787.135 145.115 794.91 144.395C802.605 143.682 810.431 143.278 818.067 144.743C825.918 146.176 833.123 150.028 838.672 155.759C844.457 161.572 848.67 168.794 852.014 176.227C852.45 177.193 852.866 178.167 853.278 179.145C853.54 179.759 853.104 180.571 852.573 180.883C852.278 181.053 851.936 181.121 851.599 181.077C851.262 181.034 850.948 180.881 850.706 180.642C846.535 175.91 840.902 172.705 834.702 171.535C834.345 171.466 833.988 171.404 833.632 171.348C833.235 171.285 833.132 171.273 832.633 171.218C831.841 171.133 831.035 171.082 830.216 171.063C828.493 171.035 826.77 171.143 825.065 171.388C821.328 171.927 817.671 172.893 813.97 173.613C810.723 174.284 807.414 174.614 804.099 174.599C801.092 174.546 798.099 174.192 795.163 173.542C789.306 172.244 783.752 169.832 778.806 166.438C773.798 163.027 769.531 158.639 766.264 153.538C765.881 152.931 765.514 152.314 765.163 151.689C764.723 150.897 765.068 149.59 766.082 149.428L788.558 145.864C791.958 145.329 795.35 144.72 798.765 144.304C801.377 143.951 804.017 143.855 806.647 144.019C811.762 144.415 817.227 146.315 819.6 151.253C821.974 156.191 820.357 162.451 816.236 165.947C811.762 169.749 805.189 169.662 800.283 166.712C797.849 165.284 795.913 163.144 794.735 160.582C793.552 158.008 793.219 155.125 793.784 152.35C794.083 150.968 794.685 149.669 795.547 148.548C796.409 147.427 797.51 146.512 798.769 145.868C801.543 144.478 804.864 144.209 807.923 144.589C813.272 145.254 818.721 147.883 821.724 152.508C823.167 154.691 823.818 157.301 823.571 159.905C823.225 162.797 821.848 165.468 819.691 167.428C817.59 169.391 814.948 170.677 812.107 171.123C809.033 171.524 805.908 171.025 803.112 169.685C797.846 167.274 793.404 162.186 792.148 156.488C791.546 153.759 791.617 150.857 792.877 148.319C794.299 145.444 797.236 143.805 800.295 143.171C805.997 142.019 812.729 143.833 815.923 149C818.463 153.11 817.817 158.626 815.234 162.554C813.959 164.572 812.125 166.178 809.955 167.175C807.549 168.239 804.835 168.38 802.332 167.571C797.311 165.908 793.614 161.057 793.166 155.815C792.663 149.78 797.398 144.977 802.756 143.084C809.337 140.76 816.482 142.914 822.457 145.919C827.856 148.685 832.815 152.233 837.174 156.448C841.588 160.726 845.527 165.467 848.923 170.588C850.572 173.035 852.093 175.55 853.567 178.112C853.669 178.286 853.736 178.479 853.763 178.679C853.791 178.879 853.778 179.083 853.727 179.278C853.676 179.474 853.586 179.657 853.464 179.818C853.342 179.979 853.189 180.114 853.014 180.216C852.84 180.318 852.647 180.385 852.447 180.412C852.246 180.439 852.043 180.427 851.847 180.376C851.651 180.325 851.468 180.235 851.307 180.113C851.146 179.991 851.01 179.838 850.908 179.664L850.904 179.695ZM741.653 133.446C741.54 133.532 741.42 133.61 741.296 133.68C741.324 133.68 741.586 133.438 741.403 133.605L741.269 133.723C741.158 133.826 741.059 133.941 740.956 134.048C740.853 134.155 740.825 134.266 741.027 133.949C740.979 134.024 740.92 134.096 740.872 134.171C740.825 134.246 740.722 134.432 740.651 134.567C740.579 134.702 740.591 134.8 740.698 134.444C740.698 134.5 740.655 134.555 740.639 134.61C740.613 134.753 740.577 134.893 740.532 135.03C740.532 135.002 740.555 134.634 740.555 134.876C740.555 134.959 740.555 135.046 740.555 135.129C740.555 135.367 740.555 135.002 740.528 134.971C740.552 135.037 740.568 135.106 740.575 135.177C740.611 135.367 740.718 135.291 740.524 135.09C740.555 135.139 740.581 135.19 740.603 135.244C740.64 135.291 740.672 135.341 740.698 135.394C740.666 135.196 740.472 135.141 740.627 135.299C740.722 135.398 740.849 135.493 740.936 135.596C740.746 135.367 740.694 135.422 740.813 135.501L740.979 135.612C741.082 135.676 741.189 135.735 741.296 135.79L741.443 135.862C741.709 135.996 741.15 135.755 741.344 135.822C741.538 135.889 741.637 135.933 741.784 135.98C742.775 136.305 743.813 136.428 744.807 136.729C746.026 137.164 747.189 137.739 748.274 138.443C748.584 138.622 748.893 138.8 749.21 138.966L749.642 139.18L749.816 139.259C750.105 139.398 749.519 139.148 749.816 139.259C750.137 139.386 750.467 139.489 750.803 139.568L750.985 139.604C751.298 139.675 750.648 139.58 750.945 139.604C751.135 139.604 751.342 139.627 751.516 139.627C751.924 139.627 752.316 139.789 752.604 140.078C752.893 140.366 753.055 140.758 753.055 141.166C753.055 141.574 752.893 141.965 752.604 142.253C752.316 142.542 751.924 142.704 751.516 142.704C749.931 142.724 748.5 142.106 747.157 141.35C746.563 141.013 745.968 140.653 745.386 140.324C745.108 140.17 744.827 140.023 744.538 139.893C744.479 139.871 744.423 139.846 744.367 139.817C744.696 140.031 744.522 139.881 744.391 139.817C744.26 139.754 744.07 139.703 743.904 139.655C742.802 139.338 741.653 139.216 740.583 138.792C739.849 138.534 739.175 138.13 738.602 137.604C737.951 136.968 737.558 136.113 737.5 135.204C737.374 133.419 738.634 131.641 740.124 130.793C740.476 130.587 740.896 130.53 741.291 130.634C741.686 130.737 742.024 130.993 742.23 131.346C742.436 131.698 742.493 132.118 742.389 132.512C742.286 132.907 742.029 133.244 741.677 133.45L741.653 133.446ZM734.834 244.686C730.308 245.739 725.545 244.646 722.193 241.348C719.178 238.378 717.042 234.438 715.326 230.609C713.317 226.099 712.184 221.502 711.474 216.608C711.078 213.959 710.813 211.278 710.286 208.657C709.768 206.324 709.063 204.037 708.178 201.818C705.083 193.776 700.252 185.12 703.058 176.298C704.897 170.513 710.119 163.184 717.034 163.829C721.642 164.261 724.436 168.133 726.496 171.871C729.27 176.92 731.481 182.297 733.466 187.71C734.104 189.448 731.592 190.228 730.653 188.898C729.714 187.567 727.705 187.053 726.227 186.811C724.864 186.589 722.748 186.459 721.674 187.532C720.485 188.72 719.962 190.755 719.657 192.323C719.306 194.302 719.265 196.323 719.534 198.314C720.05 202.529 721.552 206.563 723.917 210.09C724.94 211.656 726.216 213.043 727.693 214.192C729.076 215.23 731.691 216.73 733.363 215.507C735.325 214.07 732.908 211.009 731.778 209.876C729.995 208.079 727.859 206.653 726.671 204.333C725.482 202.012 725.66 199.506 727.42 197.601C729.056 195.815 731.517 195.099 733.086 193.246C736.581 189.088 735.543 183.045 733.879 178.389C732.832 175.494 731.501 172.711 730.376 169.848C729.213 166.883 728.2 163.867 727.336 160.8C723.905 148.644 722.843 135.854 723.806 123.274C724.769 110.694 726.825 98.0704 730.407 86.017C737.175 63.2607 750.153 43.1811 764.656 24.6418C771.44 15.9661 779.82 8.48627 788.506 1.75479C796.348 -4.32333 804.618 -9.47488 813.748 -13.3831C814.271 -13.6049 814.794 -13.8226 815.309 -14.0681C815.483 -14.1513 815.654 -14.2463 815.828 -14.3255C816.002 -14.4047 816.319 -14.6977 815.895 -14.3255C817.381 -15.6005 819.509 -13.5336 818.071 -12.1517C816.632 -10.7697 814.778 -9.75208 813.019 -8.7859C810.498 -7.40398 807.954 -6.06956 805.49 -4.58864C799.807 -1.17934 794.565 2.93478 789.536 7.25481C779.234 16.0889 769.565 26.0634 762.278 37.5821C755.455 48.3723 750.351 60.1999 746.4 72.3165C743.841 79.981 741.823 87.8153 740.361 95.7619C739.355 101.472 738.459 107.245 737.984 113.026C737.401 119.971 737.354 127.281 740.021 133.846C740.765 135.68 737.79 136.475 737.053 134.662C734.675 128.782 734.382 122.205 734.707 115.94C735.032 109.676 736.046 103.448 737.025 97.2467C738.242 89.8873 739.963 82.6199 742.176 75.4961C745.81 63.5022 750.521 51.738 756.735 40.837C763.641 28.7243 772.846 18.2034 783.121 8.82681C788.57 3.85344 794.315 -0.929871 800.449 -5.03212C803.532 -7.09512 806.766 -8.89679 810.027 -10.6588C812.008 -11.7319 814.255 -12.7337 815.891 -14.3216L818.067 -12.1477C817.322 -11.5102 816.375 -11.1736 815.483 -10.7935C813.748 -10.0491 812.012 -9.29672 810.308 -8.48102C805.163 -5.98065 800.242 -3.04367 795.599 0.297623C786.212 6.90636 777.272 14.5525 769.712 23.2639C765.789 27.7739 762.246 32.6562 758.763 37.5187C755.28 42.3812 751.888 47.4378 748.786 52.6131C742.382 63.2567 736.993 74.6369 733.427 86.5754C729.672 99.2867 727.411 112.392 726.691 125.626C725.946 138.926 727.515 152.326 731.842 164.954C733.887 170.945 737.334 176.698 738.265 183.014C739.014 188.102 737.801 193.804 733.482 197.015C731.83 198.243 728.434 199.391 729.024 201.989C729.615 204.586 732.508 206.15 734.211 207.972C735.915 209.793 737.381 212.189 737.08 214.703C736.755 217.317 734.445 218.972 731.893 218.968C727.535 218.968 723.968 215.432 721.591 212.137C718.983 208.415 717.273 204.141 716.594 199.648C715.952 195.455 716.118 190.937 718.203 187.132C719.162 185.39 720.485 184.214 722.47 183.81C724.512 183.43 726.617 183.566 728.593 184.206C730.431 184.784 732.159 185.722 733.268 187.322L730.455 188.51C728.889 184.154 727.074 179.891 725.018 175.744C723.477 172.691 721.71 168.64 718.302 167.258C712.79 165.021 707.88 171.903 706.279 176.239C703.454 183.881 707.274 191.61 710.159 198.647C711.907 202.754 713.134 207.064 713.812 211.476C714.482 216.109 714.977 220.809 716.483 225.268C717.872 229.526 719.93 233.536 722.581 237.147C725.355 240.817 729.357 242.789 733.99 241.712C735.915 241.265 736.74 244.231 734.806 244.678L734.834 244.686ZM914.194 305.071C907.545 306.496 900.642 306.213 894.132 304.248C892.606 303.78 891.085 303.087 889.492 302.889C887.899 302.692 886.805 303.357 885.581 304.283C883.31 306.044 880.627 307.195 877.786 307.629C874.956 308.07 872.06 307.797 869.362 306.837C867.951 306.271 866.597 305.573 865.316 304.755C864.05 303.924 862.542 303.54 861.033 303.662C859.448 303.796 857.93 304.347 856.444 304.85C854.859 305.403 853.239 305.85 851.594 306.188C848.214 306.769 844.788 307.035 841.359 306.98C834.361 306.98 826.028 307.138 821.546 300.739L824.415 299.947C824.478 302.323 825.853 304.196 827.296 305.919C829.164 308.141 831.148 310.264 833.239 312.278C837.737 316.634 842.575 320.688 847.96 323.9C857.565 329.633 869.093 332.825 880.295 331.261C891.497 329.697 900.781 323.211 908.619 315.465C910.757 313.398 912.679 311.117 914.353 308.659C915.585 306.81 916.667 304.873 917.764 302.945C919.797 299.381 921.287 294.725 925.004 292.507C926.894 291.379 930.001 291.026 931.451 293.026C933.52 295.881 930.239 298.268 928.059 299.627C923.011 302.767 916.659 304.236 910.763 304.275C907.332 304.299 903.902 304.145 900.488 303.812C897.139 303.487 893.807 302.783 890.439 302.676C888.914 302.598 887.387 302.776 885.921 303.202C884.491 303.642 883.128 304.267 881.741 304.834C878.82 306.107 875.602 306.539 872.449 306.081C869.394 305.61 866.83 303.725 863.763 303.353C860.617 302.957 857.443 303.646 854.399 304.374C848.059 305.887 841.695 307.483 835.153 306.54C832.229 306.153 829.419 305.157 826.903 303.618C824.415 302.034 822.608 299.682 820.211 298.015C819.307 297.385 818.427 296.479 817.401 296.055C816.834 295.821 816.795 295.932 817.005 296.451C817.742 298.3 820.694 298.724 822.319 297.892C822.715 297.698 822.917 297.231 823.194 296.918C823.534 296.565 823.908 296.246 824.312 295.968C825.259 295.285 826.241 294.653 827.256 294.075C830.053 292.424 832.914 290.876 835.736 289.272C840.641 286.5 845.496 283.507 850.694 281.281C856.218 278.906 862.804 277.247 868.55 279.824C870.559 280.727 873.059 282.549 875.286 281.333C877.018 280.387 878.484 278.304 877.969 276.348C877.39 274.154 875.956 272.281 875.322 270.099C874.66 267.826 875.155 265.672 877.16 264.314C878.971 263.091 881.202 262.623 882.989 261.364C884.776 260.105 886.028 258.268 887.677 256.89C889.514 255.374 891.802 254.511 894.183 254.435C896.256 254.316 898.36 254.534 900.416 254.209C902.473 253.884 904.272 252.985 904.656 250.768C905.128 248.056 903.583 245.224 902.857 242.682C902.406 241.098 902.065 239.515 901.756 237.891C901.463 236.351 901.332 234.684 900.86 233.191C900.624 232.589 900.209 232.074 899.671 231.714C899.446 231.546 899.19 231.422 898.919 231.35C898.871 231.35 898.59 231.251 898.796 231.314C899.002 231.377 898.796 231.29 898.748 231.314H898.689C898.567 231.314 898.611 231.314 898.82 231.314C898.887 231.267 899.061 231.172 898.899 231.282C898.994 231.219 899.295 230.886 899.216 230.934C899.137 230.981 899.196 230.799 899.216 230.934C899.216 231.013 899.216 231.1 899.216 231.175C899.331 231.575 899.486 231.963 899.679 232.332C900.269 233.319 900.98 234.229 901.795 235.04C903.503 236.85 905.457 238.469 906.903 240.512C910.469 245.533 912.486 256.145 905.294 259.076C903.148 259.931 900.757 259.938 898.606 259.095C896.493 258.276 894.326 256.593 891.976 256.652C890.035 256.7 888.913 258.672 887.974 260.109C886.655 262.124 885.2 263.867 883.053 265.047C880.625 266.339 877.899 266.968 875.151 266.871C872.402 266.775 869.727 265.956 867.397 264.496C865.077 263.034 862.999 261.221 861.235 259.123C860.541 258.394 859.559 257.27 858.461 257.329C857.474 257.381 856.539 258.153 855.715 258.632C853.337 260.022 850.778 260.315 848.305 258.941C847.16 258.288 846.175 257.39 845.421 256.31C844.667 255.229 844.164 253.995 843.946 252.696C842.967 246.729 846.72 241.146 850.14 236.608C851.915 234.232 853.757 231.924 855.382 229.449C857.104 226.826 858.489 223.996 859.503 221.027C861.586 215.059 863.069 208.899 863.929 202.638C864.794 196.396 864.839 190.067 864.064 183.814C863.216 177.363 861.163 171.143 858.913 165.076C858.342 163.536 857.756 162.004 857.169 160.467C856.583 158.931 855.794 157.363 855.469 155.763C855.176 154.306 855.394 152.762 856.563 151.736C857.077 151.277 857.735 151.011 858.424 150.984C859.113 150.956 859.79 151.169 860.339 151.586C862.4 153.169 862.352 156.511 862.348 158.844C862.329 162.85 861.487 166.811 859.875 170.479C858.262 174.148 855.913 177.446 852.973 180.171C851.515 181.505 849.331 179.335 850.797 177.997C854.705 174.402 857.43 169.708 858.612 164.534C859.209 161.949 859.402 159.286 859.182 156.642C859.135 156.072 859.131 154.29 858.469 154.001C858.683 154.096 858.497 154.001 858.437 154.294C858.295 154.971 858.639 155.7 858.873 156.325C861.167 162.522 863.707 168.636 865.419 175.035C867.054 181.195 867.812 187.555 867.67 193.927C867.51 200.276 866.661 206.589 865.138 212.755C863.652 218.889 861.805 225.121 858.402 230.479C855.354 235.254 851.305 239.396 848.705 244.46C847.405 246.99 846.348 250.051 847.164 252.898C847.734 254.878 849.672 256.858 851.863 256.814C852.965 256.814 853.912 256.141 854.827 255.595C855.897 254.953 857.003 254.371 858.267 254.268C861.072 254.031 863.022 256.51 864.738 258.347C866.513 260.267 868.851 262.105 871.308 263.051C873.656 263.91 876.207 264.056 878.638 263.471C880.873 262.948 882.997 261.839 884.404 259.974C885.676 258.28 886.607 256.3 888.299 254.957C890.359 253.322 892.939 253.294 895.321 254.229C897.46 255.068 899.604 256.712 901.986 256.664C903.67 256.628 905.053 256.094 905.988 254.89C905.857 255.056 906.111 254.692 906.146 254.641C906.241 254.486 906.329 254.332 906.412 254.173C906.559 253.897 906.669 253.603 906.741 253.298C906.956 252.608 907.063 251.888 907.058 251.164C907.115 247.943 906.163 244.785 904.335 242.132C902.968 240.192 901.003 238.671 899.398 236.933C897.908 235.313 896.129 233.207 896.176 230.863C896.22 228.72 898.277 227.841 900.115 228.487C901.076 228.838 901.933 229.425 902.607 230.194C903.281 230.963 903.752 231.888 903.975 232.886C904.644 236.105 905.076 239.36 906.043 242.508C906.879 245.236 908.108 247.972 907.751 250.895C907.614 252.158 907.129 253.359 906.352 254.364C905.574 255.37 904.533 256.141 903.345 256.593C901.264 257.432 898.919 257.456 896.707 257.464C894.655 257.464 892.523 257.389 890.7 258.482C888.878 259.574 887.653 261.321 886.151 262.706C884.388 264.33 882.351 265.122 880.207 266.14C879.752 266.349 879.311 266.586 878.884 266.848C878.653 266.993 878.446 267.172 878.27 267.379C877.949 268.024 878.147 268.836 878.397 269.581C879.11 271.719 880.548 273.592 881.02 275.821C881.555 278.343 880.477 280.842 878.67 282.608C876.665 284.568 874.05 285.293 871.363 284.41C868.764 283.558 866.58 281.903 863.795 281.669C857.542 281.147 851.626 283.99 846.264 286.869C841.204 289.589 836.239 292.507 831.234 295.33C829.99 296.035 828.746 296.74 827.533 297.5C826.745 297.923 826.022 298.456 825.386 299.084C824.946 299.579 824.633 300.11 824.046 300.462C823.472 300.78 822.85 301.001 822.204 301.116C820.894 301.391 819.538 301.361 818.241 301.028C815.99 300.423 813.736 298.403 813.847 295.881C813.874 295.232 814.101 294.608 814.498 294.094C814.894 293.58 815.441 293.201 816.062 293.01C817.29 292.638 818.542 293.069 819.581 293.739C821.781 295.228 823.845 296.911 825.746 298.767C827.811 300.748 830.333 302.19 833.089 302.965C839.243 304.671 845.658 303.361 851.713 301.864C854.796 301.108 857.906 300.324 861.092 300.189C862.712 300.11 864.335 300.255 865.915 300.621C867.448 300.989 868.807 301.725 870.273 302.311C873.088 303.428 876.207 303.519 879.082 302.569C882.006 301.607 884.673 300.042 887.78 299.694C891.061 299.322 894.338 299.983 897.583 300.399C900.928 300.828 904.293 301.084 907.664 301.167C910.834 301.246 913.96 301.222 917.079 300.541C919.962 299.953 922.752 298.977 925.373 297.639C926.596 297.019 927.729 296.236 928.741 295.311C928.978 295.085 929.232 294.915 928.947 294.736C928.654 294.643 928.341 294.625 928.039 294.685C926.32 294.855 925.083 296.348 924.136 297.77C922.92 299.595 921.996 301.591 920.966 303.531C920.063 305.261 919.068 306.96 918.046 308.619C915.09 313.422 911.246 317.465 907.006 321.152C902.766 324.838 898.249 328.216 893.137 330.595C882.506 335.545 870.46 335.787 859.337 332.33C847.675 328.707 837.689 321.298 829.253 312.622C827.453 310.802 825.753 308.885 824.161 306.881C822.576 304.842 821.423 302.577 821.352 299.94C821.308 298.312 823.396 297.987 824.221 299.148C827.787 304.256 835.213 303.852 840.701 303.864C844.014 303.864 847.362 303.836 850.627 303.234C853.797 302.652 856.717 301.207 859.884 300.72C861.448 300.424 863.061 300.514 864.583 300.981C866.081 301.496 867.333 302.438 868.712 303.183C871.033 304.382 873.643 304.911 876.248 304.711C878.854 304.51 881.351 303.587 883.461 302.046C884.673 301.155 885.838 300.205 887.348 299.904C888.943 299.65 890.577 299.795 892.103 300.324C895.562 301.369 898.883 302.434 902.513 302.743C906.154 303.058 909.821 302.837 913.398 302.086C915.331 301.69 916.172 304.644 914.214 305.051L914.194 305.071ZM913.378 302.204C914.567 301.86 915.724 301.5 916.869 301.06C916.94 301.032 917.146 300.953 916.817 301.084L917.027 300.993L917.424 300.803C917.688 300.671 917.952 300.529 918.216 300.379C918.454 300.244 918.684 300.102 918.91 299.947L919.231 299.722C919.278 299.686 919.456 299.555 919.27 299.694C919.084 299.833 919.326 299.646 919.346 299.627C919.752 299.29 920.126 298.916 920.463 298.51C920.503 298.459 920.542 298.403 920.586 298.356C920.562 298.383 920.376 298.645 920.522 298.431C920.586 298.336 920.653 298.245 920.717 298.15C920.863 297.918 920.996 297.677 921.113 297.429C921.136 297.369 921.164 297.311 921.196 297.255C921.196 297.255 921.077 297.556 921.137 297.397C921.196 297.239 921.228 297.156 921.267 297.033C921.351 296.774 921.417 296.509 921.465 296.241C921.501 296.055 921.402 296.217 921.465 296.34C921.458 296.286 921.458 296.232 921.465 296.178C921.465 296.107 921.465 296.031 921.465 295.96C921.485 295.754 921.541 296.249 921.465 296.051C921.465 295.984 921.426 295.913 921.41 295.845C921.374 295.683 921.446 295.972 921.462 295.976C921.477 295.98 921.355 295.814 921.358 295.81C921.491 295.976 921.518 296.015 921.442 295.928L921.339 295.821C920.912 295.411 920.46 295.026 919.987 294.669L919.853 294.562C919.682 294.428 920.067 294.725 919.892 294.594L919.524 294.317C919.278 294.135 919.03 293.956 918.779 293.782C917.772 293.081 916.73 292.436 915.664 291.83C913.608 290.642 911.472 289.636 909.348 288.587C907.224 287.538 905.14 286.524 903.008 285.578L902.18 285.217L901.815 285.063L901.736 285.031L901.605 284.976C901.048 284.743 900.486 284.518 899.921 284.299C898.796 283.863 897.662 283.459 896.513 283.111C895.364 282.762 894.239 282.434 893.078 282.168C892.507 282.039 891.935 281.923 891.362 281.82L890.57 281.689L890.193 281.634C890.645 281.709 890.078 281.634 889.959 281.61C888.849 281.481 887.732 281.425 886.615 281.444C886.369 281.444 886.124 281.444 885.878 281.475L885.593 281.507C886.104 281.472 885.692 281.507 885.553 281.507C885.112 281.59 884.676 281.701 884.249 281.84C883.809 281.982 883.377 282.145 882.95 282.319C882.605 282.461 883.255 282.188 882.91 282.319L882.625 282.442L881.931 282.75C880.964 283.19 880.001 283.637 879.015 284.029C877.093 284.868 874.974 285.15 872.9 284.841C872.401 284.751 871.913 284.611 871.442 284.421C871.062 284.303 870.736 284.053 870.523 283.717C870.318 283.356 870.262 282.93 870.368 282.529C870.602 281.808 871.462 281.139 872.263 281.456C872.748 281.651 873.253 281.794 873.768 281.883C874.165 281.947 873.428 281.852 873.808 281.883L874.165 281.911C874.414 281.924 874.664 281.924 874.913 281.911L875.262 281.887C875.401 281.887 875.758 281.784 875.286 281.887C875.528 281.832 875.773 281.808 876.015 281.753C876.487 281.647 876.953 281.515 877.41 281.357C877.636 281.277 877.858 281.194 878.08 281.111L878.412 280.977L878.579 280.909L878.5 280.941C878.955 280.747 879.403 280.545 879.855 280.335C880.822 279.892 881.788 279.448 882.787 279.08C883.759 278.714 884.774 278.476 885.807 278.371C886.927 278.285 888.053 278.301 889.171 278.419C891.654 278.643 894.108 279.121 896.494 279.844C901.316 281.277 905.901 283.436 910.402 285.653C914.903 287.87 919.472 290.009 923.253 293.358C923.839 293.832 924.256 294.482 924.441 295.212C924.576 295.978 924.534 296.765 924.319 297.512C923.969 298.74 923.341 299.872 922.484 300.819C920.78 302.798 918.311 303.852 915.886 304.624C915.304 304.81 914.697 304.98 914.127 305.15C913.932 305.204 913.728 305.219 913.528 305.194C913.327 305.169 913.134 305.104 912.958 305.005C912.782 304.905 912.628 304.771 912.504 304.612C912.38 304.452 912.288 304.27 912.235 304.075C912.181 303.881 912.166 303.677 912.191 303.477C912.217 303.276 912.281 303.083 912.381 302.907C912.481 302.732 912.614 302.578 912.774 302.454C912.933 302.33 913.116 302.238 913.311 302.185L913.378 302.204ZM734.362 241.938C736.014 238.374 741.257 230.411 745.968 234.414C749.566 237.463 747.609 243.173 743.46 244.413C732.512 247.679 720.699 230.197 732.401 223.767C737.504 220.963 742.251 224.836 744.641 229.219C748.164 235.686 750.303 243.237 752.566 250.206C754.987 257.65 757.103 265.185 758.827 272.827C760.305 279.397 761.601 286.025 763.621 292.46C768.178 306.956 778.172 318.689 788.423 329.609C799.213 341.093 811.156 351.487 823.159 361.683C834.254 371.111 846.431 379.941 860.454 384.396C867.393 386.597 874.664 387.742 881.935 386.942C889.088 386.15 895.99 383.643 902.354 380.353C914.69 373.974 925.503 364.807 935.56 355.336C945.617 345.864 955.016 335.616 962.708 324.161C970.546 312.492 975.61 300.169 976.723 286.085C977.912 271.291 974.706 256.561 968.006 243.32C955.884 219.411 933.381 202.788 914.166 184.918C903.178 174.698 892.618 163.932 882.264 153.059C871.656 141.924 861.461 130.37 852.315 117.996C843.617 106.227 835.807 93.7068 830.228 80.1448C824.33 65.942 821.678 50.6029 822.465 35.2459C823.301 19.0547 826.979 2.7764 831.492 -12.7575C832.681 -16.8122 835.55 -22.8785 840.697 -22.2093C845.666 -21.5638 846.672 -15.3788 844.331 -11.7082C841.854 -7.82767 836.164 -6.11311 831.809 -6.22795L833.136 -6.9882C819.267 22.0284 823.507 56.8737 836.988 85.1974C850.908 114.448 873.376 138.416 895.959 161.188C918.426 183.841 941.801 206.186 958.963 233.322C966.524 245.28 972.931 258.22 977.028 271.786C978.78 277.579 980.868 284.354 979.98 290.468C979.231 295.616 976.537 300.367 973.87 304.766C967.106 315.889 958.812 326.632 957.12 339.936C955.654 351.364 959.32 363.299 969.801 369.198C972.799 370.824 976.027 371.985 979.374 372.643L978.558 375.609C976.343 374.896 975.483 372.711 974.94 370.624C973.989 366.969 973.779 363.013 973.581 359.26C973.185 351.606 975.626 344.28 979.168 337.58C987.061 322.633 998.838 309.863 1010.29 297.587C1032.99 273.251 1055.96 248.392 1074.88 220.928C1084.25 207.295 1092.52 192.814 1098.5 177.371C1104.95 160.507 1109.36 142.936 1111.66 125.028C1116.41 88.9314 1113.51 52.0152 1105.49 16.5918C1101.8 0.293671 1096.97 -15.553 1089.71 -30.6395C1082.83 -44.8379 1074.44 -58.2575 1064.7 -70.668C1045.39 -95.3686 1021.32 -117.428 993.144 -131.528C964.479 -145.882 931.812 -152.174 899.965 -147.502C873.332 -143.594 845.678 -137.357 822.338 -123.455C816.633 -120.121 811.316 -116.162 806.488 -111.651C804.219 -109.502 802.101 -107.2 800.148 -104.761C799.843 -104.365 798.143 -101.878 798.29 -103.177C798.314 -103.019 798.359 -102.864 798.424 -102.718C799.784 -97.0633 801.749 -91.4881 803.421 -85.9207C809.674 -65.0809 815.959 -44.2331 822.972 -23.6348C824.264 -19.8453 825.584 -16.0638 827.006 -12.3219C827.585 -10.7974 825.473 -9.86295 824.435 -10.8251C823.246 -11.9101 822.707 -13.9929 822.121 -15.3946C820.785 -18.6139 819.569 -21.8846 818.356 -25.1553C814.73 -34.9436 811.267 -44.7954 807.792 -54.6392C804.253 -64.6572 800.739 -74.6831 797.093 -84.6695C795.781 -88.2728 794.466 -91.8761 793.063 -95.4438C792.485 -96.9168 791.942 -99.2926 790.824 -100.492C791.221 -100.065 789.54 -100.948 789.156 -101.051C787.61 -101.398 786.023 -101.532 784.441 -101.447C780.866 -101.317 777.308 -100.898 773.801 -100.191C766.237 -98.8175 758.617 -97.491 751.286 -95.1349C733.379 -89.3855 717.957 -77.6014 705.261 -63.9603C692.565 -50.3191 682.71 -34.1596 677.198 -16.242C671.508 2.26559 669.436 22.1274 672.685 41.2923C674.279 50.8365 677.242 60.1012 681.482 68.8003C685.892 77.7769 691.586 86.0408 697.304 94.2215C708.356 110.033 720.073 126.564 722.839 146.153C723.508 150.796 723.581 155.505 723.057 160.166C722.835 162.11 719.756 162.146 719.978 160.166C722.403 138.946 711.229 119.777 699.638 102.941C688.238 86.4011 676.576 70.3486 671.528 50.5739C662.184 13.9784 671.9 -26.8817 694.887 -56.5081C706.073 -70.9293 720.418 -84.1904 736.787 -92.5136C745.505 -96.9564 754.943 -99.8707 764.576 -101.589C770.952 -102.726 777.308 -104.31 783.807 -104.535C787.012 -104.646 792.025 -104.709 793.832 -101.482C795.021 -99.3283 795.813 -96.8614 796.709 -94.5648C800.156 -85.5802 803.33 -76.4848 806.54 -67.4131C810.34 -56.6705 814.108 -45.9199 817.968 -35.1971C820.476 -28.228 822.723 -20.9818 825.94 -14.2859C826.132 -13.9625 826.301 -13.6265 826.448 -13.2802C826.57 -12.8842 826.721 -12.9159 826.606 -13.0228L824.034 -11.526C816.549 -31.2057 810.637 -51.5427 804.515 -71.6777C801.952 -80.0987 799.42 -88.5302 796.919 -96.9722C796.415 -98.667 795.69 -100.437 795.381 -102.179C795.116 -103.68 796.209 -104.67 797.093 -105.826C798.932 -108.219 800.926 -110.487 803.065 -112.617C822.227 -131.711 850.163 -140.652 875.975 -146.274C889.773 -149.296 903.931 -151.818 918.081 -152.119C933.825 -152.392 949.521 -150.306 964.645 -145.93C995.454 -137.104 1022.2 -119.626 1044.93 -97.3326C1067.37 -75.3325 1086.04 -49.1312 1097.79 -19.8968C1104.23 -3.8838 1108.26 13.0676 1111.39 29.9953C1114.78 48.1162 1116.64 66.4885 1116.97 84.9202C1117.5 120.007 1111.93 155.826 1097.36 187.947C1083.56 218.405 1061.85 244.535 1039.91 269.43C1028.61 282.24 1016.92 294.693 1005.49 307.356C999.482 313.904 993.895 320.822 988.757 328.069C983.975 334.912 979.37 342.241 977.444 350.461C976.489 354.536 976.581 358.499 976.917 362.637C977.064 364.439 977.04 371.895 979.394 372.655C981.284 373.265 980.515 376.037 978.578 375.621C966.916 373.119 957.525 365.469 954.699 353.613C951.771 341.338 955.769 328.976 961.832 318.32C965.042 312.674 968.806 307.368 972.095 301.765C974.718 297.298 977.409 292.262 977.084 286.928C976.616 279.214 973.914 271.37 971.176 264.207C968.742 257.885 965.904 251.725 962.68 245.767C946.81 216.315 922.805 192.481 899.394 169.004C876.423 145.991 853.096 122.32 837.642 93.3742C822.905 65.7316 816.204 32.0979 826.301 1.72311C827.473 -1.77428 828.861 -5.19545 830.458 -8.5206C830.591 -8.75401 830.785 -8.94756 831.018 -9.08122C831.251 -9.21489 831.516 -9.28381 831.785 -9.28087C834.152 -9.23819 836.492 -9.78236 838.597 -10.8647C841.022 -12.0527 843.998 -15.3313 841.921 -18.1625C839.572 -21.3619 836.461 -16.836 835.518 -14.8799C834.032 -11.7953 833.449 -8.23552 832.601 -4.94106C828.789 9.87611 825.469 24.9982 825.37 40.3618C825.152 69.4299 839.08 95.3105 856.115 118.003C873.019 140.522 893.244 160.835 913.624 180.206C931.186 196.9 951.097 211.781 964.859 232.019C978.914 252.688 984.525 280.07 976.394 304.129C972.551 315.501 965.85 325.753 958.448 335.113C950.864 344.708 942.277 353.514 933.175 361.671C914.923 378.029 892.428 394.354 866.553 389.143C853.789 386.574 842.171 380.111 831.781 372.457C820.722 364.308 810.383 354.971 800.307 345.646C789.809 336.008 780.167 325.479 771.487 314.179C763.598 303.828 759.956 292.198 757.182 279.646C754.084 265.633 750.268 251.928 745.192 238.465C743.694 234.506 740.163 222.626 733.637 226.586C726.366 231.001 733.284 240.105 739.161 241.431C740.833 241.827 743.361 241.89 744.387 240.16C744.887 239.317 744.863 237.756 744.205 236.992C741.927 234.395 737.683 242.005 737.009 243.462C736.177 245.256 733.522 243.696 734.35 241.91L734.362 241.938Z" fill="#402B1D"/>
</g>
<g clip-path="url(#clip2)">
<path opacity="0.15" d="M782.745 -128.351C779.986 -182.675 832.814 -212.632 880.091 -211.908C940.122 -210.974 1005.95 -183.548 1053.66 -148.45C1111.93 -105.573 1157.31 -33.3976 1163.61 39.2293C1166.13 68.1101 1155.91 98.6179 1134.51 118.613C1095.49 155.093 1035.99 147.892 990.145 129.21C885.071 88.4155 788.642 -12.2117 782.745 -128.351Z" fill="#FCF9F7"/>
</g>
</g>
<defs>
<clipPath id="clip0">
<rect width="506" height="188" fill="white" transform="matrix(1 0 0 -1 0 312)"/>
</clipPath>
<clipPath id="clip1">
<rect width="220" height="312" fill="white" transform="matrix(-1 0 0 1 888 0)"/>
</clipPath>
<clipPath id="clip2">
<rect width="108" height="134" fill="white" transform="matrix(-1 0 0 1 880 0)"/>
</clipPath>
</defs>
</svg>
