<svg width="544" height="432" viewBox="0 0 544 432" fill="none" xmlns="http://www.w3.org/2000/svg">
<g clip-path="url(#clip0_1250:9466)">
<path opacity="0.6" d="M423.236 495.205C412.097 526.869 370.183 542.024 340.695 526.361C327.154 533.114 311.53 531.54 296.79 529.549C280.676 527.929 265.083 526.569 248.889 525.366C185.082 520.614 171.382 523.694 156.221 515.066C103.391 552.63 38.7207 493.851 66.2593 438.142C93.7979 382.432 145.141 331.522 206.978 316.803C275.072 300.594 343.119 326.603 387.183 375.061C399.93 389.08 403.182 416.98 414.275 432.332C429.837 453.866 431.773 470.906 423.236 495.205Z" fill="#AB6A49"/>
<path opacity="0.2" d="M162.731 500.515C139.409 564.093 83.9336 532.477 61.0983 536.824C20.8672 538.576 -5.96521 558.442 -34.1956 524.721C-69.0475 548.466 -113.628 528.432 -121.572 489.559C-127.774 457.13 -101.237 425.381 -84.3971 409.707C-44.5918 373.151 16.3999 358.248 68.8891 370.157C120.571 381.888 182.294 441.259 162.731 500.515Z" fill="#FCF9F7"/>
</g>
<g opacity="0.15" clip-path="url(#clip1_1250:9466)">
<path d="M393.623 93.5967C393.417 93.9491 393.36 94.3687 393.463 94.7634C393.567 95.1581 393.823 95.4955 394.176 95.7013C394.529 95.9071 394.949 95.9646 395.343 95.861C395.738 95.7574 396.076 95.5013 396.282 95.1489C396.81 94.159 397.368 93.1797 397.954 92.2108C402.523 84.6003 408.574 77.7302 415.932 72.7529C419.848 70.054 424.174 68.0055 428.743 66.6866C433.304 65.4425 438.026 64.8886 442.751 65.0434C452.657 65.281 462.25 68.124 471.555 71.4423C476.698 73.2769 481.785 75.2647 486.814 77.4055C490.777 79.0963 494.89 81.0128 498.25 83.5985C499.944 84.878 501.448 86.3911 502.716 88.0927C504.071 90.0391 505.152 92.163 505.926 94.4045C507.61 99.0809 508.573 103.971 510.59 108.529L512.698 106.41L510.07 104.755C502.451 99.9758 494.72 95.3588 486.767 91.1576C478.655 86.8732 470.287 82.9729 461.585 80.0348C453.6 77.3382 445.271 75.5722 436.823 75.3821C428.957 75.2039 420.992 76.4354 413.686 79.4012C406.133 82.4926 399.365 87.227 393.873 93.2602C393.73 93.4029 393.617 93.5724 393.539 93.7589C393.462 93.9453 393.422 94.1452 393.422 94.3471C393.422 94.549 393.462 94.7488 393.539 94.9353C393.617 95.1218 393.73 95.2913 393.873 95.4341C394.016 95.5768 394.185 95.69 394.372 95.7672C394.559 95.8445 394.759 95.8842 394.961 95.8842C395.163 95.8842 395.363 95.8445 395.549 95.7672C395.736 95.69 395.905 95.5768 396.048 95.4341C396.748 94.6711 397.467 93.9254 398.204 93.1968C403.653 87.8121 410.25 83.7282 417.501 81.2504C424.876 78.7756 432.405 78.051 440.179 78.6053C444.186 78.9005 448.162 79.5243 452.067 80.4703C456.184 81.478 460.236 82.7356 464.2 84.236C472.624 87.3602 480.712 91.3397 488.59 95.6479C496.269 99.8491 503.75 104.403 511.144 109.087C511.439 109.255 511.781 109.322 512.118 109.279C512.455 109.235 512.768 109.083 513.011 108.846C513.242 108.6 513.39 108.287 513.434 107.952C513.477 107.617 513.414 107.277 513.252 106.98C512.777 105.911 512.377 104.811 512.004 103.698C510.419 98.9463 509.433 93.9452 507.126 89.443C504.927 85.1507 501.46 81.8444 497.41 79.2943C493.285 76.6968 488.716 74.8555 484.219 73.0142C479.007 70.8813 473.731 68.9014 468.392 67.0747C458.954 63.8792 448.996 61.5311 438.967 61.9905C433.945 62.1787 428.985 63.1652 424.273 64.9127C419.717 66.6809 415.445 69.1077 411.593 72.1154C404.128 77.8609 398.121 85.321 393.643 93.5848L393.623 93.5967ZM506.904 139.695C505.507 137.227 504.022 134.812 502.451 132.449C500.866 130.105 499.28 127.892 497.573 125.809C495.793 123.611 493.895 121.512 491.886 119.521C490.906 118.552 489.898 117.614 488.863 116.706C488.335 116.236 487.789 115.774 487.226 115.32L486.458 114.698L486.061 114.393L485.784 114.179C481.207 110.699 476.024 107.614 470.489 106.066C469.007 105.642 467.485 105.377 465.948 105.274C465.156 105.225 464.362 105.225 463.57 105.274C463.232 105.295 462.894 105.325 462.556 105.365C462.373 105.385 462.556 105.365 462.579 105.365L462.35 105.401L461.815 105.496C461.151 105.626 460.495 105.798 459.853 106.01C459.556 106.109 459.263 106.216 458.973 106.331C458.902 106.353 458.833 106.382 458.767 106.418L458.272 106.648C457.691 106.931 457.13 107.253 456.592 107.61C456.098 107.924 455.637 108.288 455.217 108.695C454.317 109.481 453.58 110.436 453.049 111.506C452.978 111.644 452.911 111.776 452.847 111.902C452.808 111.99 452.673 112.326 452.772 112.065C452.669 112.334 452.574 112.607 452.491 112.888C452.408 113.169 452.344 113.443 452.293 113.724C452.269 113.843 452.229 114.12 452.265 113.835C452.245 113.985 452.229 114.14 452.217 114.29C452.172 114.834 452.172 115.381 452.217 115.925C452.217 116.048 452.261 116.321 452.217 116.036C452.217 116.167 452.257 116.298 452.281 116.432C452.331 116.712 452.392 116.991 452.463 117.268C452.534 117.545 452.618 117.819 452.713 118.091C452.755 118.218 452.8 118.344 452.847 118.468L452.919 118.654C453.002 118.875 452.824 118.44 452.919 118.654C453.144 119.165 453.402 119.661 453.691 120.139C453.831 120.368 453.978 120.594 454.131 120.816L454.365 121.144C454.365 121.144 454.512 121.338 454.409 121.204C454.306 121.069 454.48 121.291 454.496 121.311C454.864 121.759 455.262 122.184 455.685 122.582C455.879 122.764 456.081 122.938 456.291 123.108L456.445 123.235C456.445 123.235 456.255 123.092 456.398 123.195L456.794 123.465C457.249 123.776 457.725 124.054 458.221 124.296L458.577 124.463C458.74 124.534 458.53 124.463 458.51 124.435L458.692 124.506C458.958 124.605 459.227 124.696 459.485 124.775C459.742 124.855 460.031 124.922 460.313 124.973L460.709 125.041C460.887 125.072 460.646 125.041 460.626 125.041L460.887 125.068C461.441 125.117 461.998 125.117 462.552 125.068L462.754 125.045C462.754 125.045 462.476 125.096 462.651 125.045C462.825 124.993 462.892 125.005 463.011 124.977C463.275 124.924 463.53 124.861 463.776 124.787C464.026 124.712 464.267 124.609 464.517 124.53C464.684 124.478 464.442 124.565 464.426 124.569L464.588 124.498L464.985 124.316C465.428 124.082 465.854 123.817 466.261 123.524L466.407 123.417C466.407 123.417 466.201 123.587 466.332 123.477L466.609 123.247C466.807 123.078 467 122.902 467.188 122.72C467.375 122.538 467.543 122.364 467.691 122.198L467.929 121.924C468.004 121.833 468.262 121.505 468.068 121.762C468.677 120.944 469.194 120.061 469.609 119.129C469.498 119.374 469.609 119.164 469.641 119.042C469.672 118.919 469.728 118.812 469.767 118.697C469.857 118.446 469.939 118.193 470.013 117.937C470.159 117.428 470.274 116.911 470.358 116.389C470.358 116.329 470.358 116.27 470.386 116.207C470.386 116.207 470.358 116.492 470.386 116.314C470.413 116.135 470.409 116.072 470.421 115.949C470.442 115.685 470.456 115.421 470.461 115.157C470.466 114.893 470.466 114.652 470.461 114.433C470.461 114.314 470.453 114.194 470.437 114.072C470.437 114.001 470.39 113.597 470.413 113.799C470.437 114.001 470.39 113.649 470.378 113.589C470.354 113.452 470.327 113.32 470.298 113.193C470.243 112.929 470.178 112.678 470.104 112.441C470.037 112.211 469.958 111.986 469.874 111.764L469.807 111.597C469.807 111.597 469.922 111.843 469.843 111.689C469.763 111.534 469.724 111.435 469.664 111.293C469.435 110.841 469.17 110.408 468.872 109.998C468.777 109.867 468.892 110.022 468.908 110.041L468.761 109.863C468.663 109.747 468.563 109.632 468.46 109.519C468.222 109.255 467.972 109.005 467.711 108.77C467.6 108.67 467.486 108.571 467.37 108.473L467.196 108.331C466.934 108.133 466.665 107.935 466.403 107.776C465.893 107.466 465.363 107.189 464.818 106.945C464.265 106.723 463.698 106.534 463.122 106.379C462.8 106.294 462.475 106.22 462.147 106.157L461.692 106.078L461.462 106.042C461.632 106.066 461.509 106.042 461.41 106.042C460.77 105.973 460.125 105.942 459.481 105.947C459.172 105.947 458.863 105.962 458.553 105.991L458.094 106.034L457.864 106.062C458.03 106.042 457.915 106.062 457.816 106.062C456.453 106.237 455.134 106.667 453.929 107.329C453.412 107.619 452.945 107.991 452.546 108.43C452.451 108.529 452.364 108.636 452.269 108.739C452.079 108.948 452.332 108.628 452.174 108.857C451.993 109.113 451.825 109.377 451.671 109.649C451.607 109.768 451.546 109.888 451.488 110.01C451.445 110.101 451.338 110.382 451.429 110.136C451.326 110.41 451.231 110.687 451.151 110.972C451.072 111.257 451.017 111.502 450.969 111.764C450.969 111.827 450.902 112.191 450.922 112.037C450.941 111.883 450.898 112.302 450.89 112.385C450.845 112.975 450.845 113.566 450.89 114.155C450.89 114.322 450.922 114.488 450.937 114.658C450.969 114.955 450.91 114.528 450.961 114.825C451.013 115.122 451.072 115.446 451.14 115.755C451.275 116.355 451.445 116.946 451.651 117.525C451.701 117.665 451.752 117.797 451.805 117.921C451.833 117.988 451.968 118.317 451.873 118.099C451.995 118.392 452.134 118.681 452.269 118.966C452.549 119.529 452.863 120.073 453.208 120.598C453.385 120.862 453.569 121.126 453.759 121.39L453.901 121.584L453.977 121.687L454.262 122.039C455.924 124.117 458.038 125.79 460.444 126.929C460.792 127.096 460.872 127.131 461.101 127.222C461.424 127.349 461.749 127.465 462.076 127.571C462.732 127.782 463.402 127.947 464.081 128.066C464.145 128.066 464.529 128.137 464.303 128.105C464.462 128.125 464.62 128.145 464.779 128.157C465.125 128.189 465.471 128.207 465.817 128.212C466.122 128.212 466.431 128.212 466.736 128.212L467.176 128.177L467.398 128.153C467.235 128.153 467.307 128.153 467.43 128.153C468.063 128.053 468.688 127.906 469.3 127.713C469.581 127.622 469.863 127.519 470.14 127.416C470.417 127.314 470.065 127.456 470.318 127.341L470.786 127.119C471.335 126.844 471.865 126.531 472.371 126.181L472.731 125.924C472.953 125.765 472.676 125.979 472.886 125.805C473.096 125.631 473.409 125.361 473.655 125.124C473.9 124.886 474.051 124.728 474.265 124.494C474.363 124.386 474.458 124.276 474.55 124.166L474.689 123.995C474.843 123.805 474.57 124.162 474.717 123.964C475.076 123.481 475.395 122.97 475.672 122.435C475.739 122.308 475.798 122.178 475.862 122.039C475.985 121.782 475.83 122.142 475.933 121.877C476.036 121.612 476.147 121.291 476.23 120.99C476.317 120.689 476.388 120.383 476.444 120.075C476.444 119.988 476.5 119.648 476.472 119.909C476.472 119.739 476.504 119.572 476.516 119.402C476.541 118.834 476.525 118.265 476.468 117.699C476.492 117.977 476.468 117.699 476.448 117.581C476.428 117.462 476.401 117.319 476.373 117.185C476.312 116.905 476.24 116.629 476.155 116.357C476.076 116.108 475.989 115.862 475.894 115.617C475.83 115.45 475.913 115.66 475.921 115.68L475.814 115.442C475.751 115.302 475.684 115.17 475.612 115.046C475.358 114.558 475.07 114.088 474.748 113.641C474.693 113.561 474.511 113.32 474.669 113.526C474.586 113.419 474.503 113.316 474.415 113.213C474.228 112.989 474.032 112.77 473.829 112.556C473.418 112.125 472.981 111.719 472.521 111.34L472.296 111.154L472.058 110.98C471.812 110.8 471.56 110.626 471.301 110.457C470.802 110.132 470.288 109.833 469.76 109.558C469.495 109.426 469.231 109.294 468.967 109.162L468.571 108.984L468.373 108.897C468.523 108.96 468.444 108.925 468.341 108.897C467.754 108.671 467.152 108.457 466.566 108.279C465.979 108.101 465.405 107.966 464.814 107.848C464.534 107.792 464.252 107.742 463.966 107.697L463.756 107.666C463.784 107.666 463.994 107.697 463.812 107.666L463.316 107.61C462.658 107.548 461.997 107.521 461.335 107.527C460.662 107.531 459.99 107.572 459.322 107.65C458.664 107.748 458.013 107.895 457.377 108.089C456.755 108.267 456.163 108.534 455.617 108.881C455.134 109.164 454.697 109.52 454.321 109.934C454.226 110.033 454.139 110.136 454.048 110.239L453.917 110.394C453.917 110.394 454.056 110.208 453.953 110.35C453.783 110.588 453.624 110.829 453.477 111.083C453.331 111.336 453.228 111.554 453.113 111.799C453.224 111.558 453.113 111.835 453.065 111.93C453.018 112.025 452.958 112.227 452.911 112.378C452.824 112.657 452.748 112.941 452.685 113.229C452.656 113.363 452.631 113.495 452.61 113.625C452.61 113.692 452.59 113.759 452.578 113.827C452.542 114.068 452.602 113.585 452.578 113.827C452.522 114.403 452.506 114.983 452.53 115.561C452.53 115.842 452.57 116.119 452.602 116.401C452.57 116.131 452.602 116.452 452.629 116.551C452.656 116.715 452.688 116.877 452.725 117.038C452.852 117.64 453.024 118.232 453.24 118.808C453.263 118.871 453.394 119.204 453.347 119.085C453.299 118.966 453.442 119.295 453.469 119.355C453.602 119.619 453.743 119.89 453.893 120.17C454.044 120.45 454.192 120.689 454.337 120.887C454.417 121.002 454.5 121.117 454.579 121.231C454.579 121.231 454.726 121.425 454.631 121.303C454.535 121.18 454.722 121.414 454.738 121.433C455.13 121.909 455.556 122.355 456.013 122.768C456.143 122.884 456.275 122.997 456.41 123.108L456.659 123.31L456.921 123.5C457.061 123.601 457.204 123.698 457.349 123.793C457.867 124.131 458.407 124.434 458.966 124.7L459.362 124.886C459.524 124.957 459.362 124.886 459.334 124.886L459.54 124.969C459.839 125.086 460.141 125.191 460.448 125.286C461.059 125.476 461.682 125.623 462.314 125.726C462.397 125.726 462.746 125.781 462.488 125.753L462.928 125.797C463.245 125.823 463.562 125.838 463.879 125.841C464.196 125.843 464.488 125.835 464.755 125.817L465.191 125.781L465.409 125.757C465.246 125.757 465.306 125.757 465.432 125.757C466.057 125.659 466.674 125.51 467.275 125.314L467.671 125.167C467.739 125.14 468.068 125.001 467.85 125.1C468.131 124.973 468.408 124.839 468.678 124.704C468.947 124.569 469.149 124.427 469.379 124.276L469.716 124.043C469.859 123.944 469.716 124.043 469.676 124.078L469.89 123.908C470.329 123.545 470.738 123.148 471.115 122.72C471.222 122.601 471.321 122.479 471.424 122.352C471.606 122.134 471.352 122.463 471.519 122.229C471.685 121.996 471.86 121.742 472.018 121.489C472.318 121.003 472.583 120.496 472.811 119.972C472.708 120.21 472.811 119.921 472.862 119.834C472.914 119.747 472.957 119.576 473.001 119.438C473.096 119.158 473.182 118.874 473.258 118.586C473.335 118.299 473.398 118.011 473.449 117.723C473.472 117.589 473.494 117.457 473.512 117.327C473.468 117.628 473.512 117.232 473.512 117.129C473.557 116.568 473.557 116.004 473.512 115.442C473.512 115.308 473.484 115.173 473.476 115.046C473.496 115.32 473.476 115.046 473.457 114.924C473.409 114.636 473.347 114.352 473.27 114.072C473.194 113.792 473.113 113.536 473.029 113.304C473.009 113.245 472.874 112.908 472.934 113.047C472.993 113.185 472.894 112.96 472.874 112.92L472.755 112.675C472.494 112.17 472.192 111.688 471.852 111.233C472.006 111.443 471.828 111.205 471.765 111.13L471.507 110.833C471.319 110.625 471.123 110.424 470.917 110.231C470.73 110.053 470.52 109.891 470.334 109.725C470.199 109.614 470.378 109.752 470.394 109.768L470.239 109.653L469.87 109.396C469.406 109.085 468.92 108.807 468.416 108.564L468.064 108.398C467.798 108.271 468.226 108.457 467.949 108.347C467.671 108.236 467.414 108.141 467.156 108.05C466.054 107.682 464.919 107.417 463.768 107.258C464.038 107.297 463.721 107.258 463.622 107.258L463.202 107.214C462.895 107.182 462.587 107.157 462.278 107.139C461.68 107.099 461.089 107.079 460.479 107.076C459.239 107.076 458.003 107.123 456.766 107.226C456.164 107.276 455.563 107.337 454.963 107.408L454.111 107.515L453.957 107.535L453.469 107.606C446.61 108.616 439.767 109.764 432.916 110.845L422.811 112.429L423.731 110.168C424.446 111.442 425.229 112.676 426.076 113.866C426.285 114.157 426.496 114.446 426.71 114.734C426.746 114.781 427.035 115.157 426.889 114.971L427.285 115.454C427.734 116.011 428.196 116.558 428.672 117.094C429.66 118.203 430.705 119.26 431.802 120.261C432.331 120.744 432.872 121.214 433.427 121.671C433.691 121.901 433.97 122.126 434.263 122.348L434.445 122.491L434.501 122.53L434.992 122.898C437.345 124.64 439.859 126.151 442.501 127.413C442.826 127.568 443.152 127.719 443.48 127.864L443.971 128.082L444.181 128.173L444.308 128.228C444.971 128.492 445.641 128.756 446.317 129.02C447.715 129.524 449.136 129.96 450.581 130.327C452.026 130.694 453.456 130.98 454.872 131.186L455.403 131.261L455.601 131.285C455.982 131.333 456.363 131.374 456.747 131.408C457.486 131.476 458.226 131.527 458.966 131.558C462.001 131.675 465.04 131.459 468.028 130.913C471.713 130.252 475.335 129.281 479.028 128.668C482.621 128.014 486.294 127.916 489.917 128.375C496.437 129.316 502.495 132.284 507.233 136.856C507.793 137.4 508.331 137.965 508.846 138.551L506.274 140.048L506.207 139.889L506.045 139.513L505.783 138.911C505.574 138.436 505.363 137.962 505.149 137.49C504.729 136.566 504.296 135.642 503.849 134.718C502.951 132.889 501.991 131.092 500.969 129.329C499.032 125.939 496.755 122.755 494.173 119.826C492.853 118.342 491.435 116.949 489.929 115.656C485.65 111.991 480.541 109.422 475.046 108.172C474.139 107.959 473.227 107.774 472.307 107.618C471.858 107.541 471.409 107.471 470.96 107.408L470.659 107.365C470.921 107.4 470.659 107.365 470.615 107.365L469.863 107.273C467.984 107.064 466.094 106.953 464.204 106.913C460.357 106.868 456.511 107.024 452.681 107.38C444.926 108.038 437.195 109.15 429.405 109.277C421.876 109.4 414.217 108.485 407.353 105.175C406.527 104.776 405.718 104.346 404.928 103.884L407.258 102.11L407.369 102.391C407.278 102.165 407.369 102.391 407.389 102.439C407.472 102.621 407.555 102.799 407.643 102.977C407.841 103.376 408.059 103.764 408.296 104.141C408.685 104.79 409.145 105.393 409.668 105.939C410.221 106.541 410.818 107.101 411.455 107.614C411.502 107.654 411.752 107.852 411.554 107.697L411.795 107.875C411.957 107.994 412.12 108.11 412.287 108.224C412.641 108.467 413.001 108.696 413.369 108.913C414.759 109.758 416.257 110.412 417.822 110.857C418.655 111.107 419.5 111.31 420.354 111.467L420.957 111.57C421.012 111.57 421.591 111.657 421.302 111.621C421.856 111.687 422.414 111.739 422.974 111.776C427.487 112.061 431.941 111.32 436.339 110.386C440.54 109.495 444.708 108.497 448.94 107.776C457.068 106.398 465.436 105.753 473.583 107.337C477.567 108.097 481.408 109.473 484.968 111.415C488.265 113.267 491.294 115.56 493.971 118.23C499.38 123.548 503.524 130.034 507.194 136.627C507.64 137.419 508.081 138.225 508.517 139.046L505.648 139.838C505.648 138.832 505.648 137.827 505.561 136.825C505.527 136.323 505.481 135.823 505.422 135.324C505.422 135.193 505.391 135.063 505.375 134.928C505.375 134.892 505.335 134.627 505.375 134.865C505.335 134.576 505.292 134.29 505.244 134.001C504.921 132.019 504.438 130.066 503.802 128.161C503.643 127.683 503.475 127.209 503.298 126.739C503.225 126.541 503.148 126.345 503.069 126.149L502.922 125.781L502.831 125.559L502.799 125.488C502.4 124.564 501.968 123.657 501.503 122.768C500.568 120.986 499.496 119.28 498.298 117.664C497.81 117.006 497.208 116.262 496.546 115.506C495.885 114.749 495.191 114.021 494.47 113.324C493.749 112.627 493 111.954 492.227 111.316L491.609 110.817C491.609 110.817 491.383 110.639 491.546 110.766L491.292 110.576C490.869 110.259 490.44 109.95 490.004 109.649C486.741 107.416 483.143 105.714 479.345 104.609C477.456 104.044 475.535 103.595 473.591 103.262C473.103 103.178 472.614 103.1 472.125 103.029L471.761 102.977L470.825 102.862C469.832 102.746 468.838 102.654 467.842 102.585C463.767 102.327 459.681 102.318 455.605 102.558C447.185 102.985 438.812 104.062 430.392 104.446C422.118 104.842 413.662 104.525 405.681 102.126C404.704 101.833 403.738 101.507 402.785 101.148L404.738 99.6788C404.722 100.174 404.734 100.67 404.774 101.164C404.774 101.263 404.774 101.358 404.802 101.457C404.841 101.924 404.77 101.279 404.802 101.556C404.833 101.833 404.889 102.086 404.944 102.348C405.04 102.8 405.159 103.246 405.301 103.686C405.367 103.895 405.438 104.1 405.515 104.304C405.565 104.441 405.618 104.573 405.673 104.7C405.57 104.454 405.725 104.815 405.753 104.866C406.153 105.734 406.632 106.564 407.183 107.345C407.31 107.527 407.441 107.709 407.579 107.883C407.397 107.65 407.702 108.03 407.71 108.038L407.9 108.267C408.223 108.648 408.562 109.014 408.919 109.368C410.289 110.755 411.883 111.903 413.634 112.762C414.03 112.968 414.454 113.158 414.874 113.34C414.597 113.225 415.061 113.411 415.068 113.415L415.35 113.522C415.614 113.62 415.878 113.711 416.142 113.795C417.236 114.145 418.356 114.41 419.491 114.587C424.329 115.379 429.397 114.532 434.152 113.213C439.089 111.843 443.825 109.863 448.643 108.145C453.291 106.49 458.058 105.088 462.995 104.676C466.9 104.375 470.827 104.664 474.645 105.535C482.332 107.313 489.412 111.087 495.171 116.476C500.885 121.782 505.256 128.656 507.202 136.231C507.437 137.149 507.635 138.073 507.796 139.003C507.893 139.395 507.835 139.81 507.636 140.162C507.436 140.514 507.109 140.777 506.722 140.895C505.981 141.097 504.971 140.646 504.828 139.822C504.496 137.909 504.01 136.026 503.374 134.191C503.223 133.759 503.065 133.328 502.898 132.901C502.819 132.697 502.738 132.495 502.657 132.295C502.657 132.319 502.482 131.899 502.565 132.077L502.415 131.729C502.034 130.868 501.622 130.022 501.179 129.19C500.278 127.506 499.258 125.887 498.127 124.348L497.691 123.766C497.509 123.524 497.628 123.679 497.668 123.73L497.398 123.385C497.097 123.005 496.789 122.631 496.475 122.261C495.846 121.522 495.186 120.805 494.494 120.111C493.167 118.754 491.753 117.484 490.262 116.31C490.262 116.31 489.865 116.005 490.111 116.191L489.877 116.013L489.291 115.577C488.897 115.289 488.501 115.008 488.102 114.734C487.31 114.185 486.487 113.663 485.633 113.169C484.78 112.676 483.926 112.211 483.07 111.776C482.679 111.58 482.283 111.39 481.881 111.205L481.219 110.905L480.954 110.786L480.688 110.671H480.72C478.954 109.931 477.139 109.315 475.287 108.826C474.352 108.58 473.409 108.368 472.458 108.188C472.006 108.104 471.553 108.027 471.099 107.959C471.012 107.959 470.409 107.864 470.703 107.903L469.839 107.8C467.962 107.6 466.073 107.544 464.188 107.634C463.217 107.681 462.247 107.764 461.284 107.891C461.577 107.852 461.256 107.891 461.185 107.891L460.788 107.955L459.833 108.117C459.199 108.23 458.568 108.362 457.939 108.513C455.429 109.097 452.954 109.822 450.525 110.683C440.924 114.005 431.196 118.741 420.751 117.779C416.205 117.431 411.866 115.736 408.289 112.912C405.118 110.39 402.606 106.767 401.873 102.748C401.68 101.717 401.595 100.668 401.62 99.6194C401.647 98.7008 402.594 97.7742 403.569 98.1345C405.527 98.8622 407.529 99.4627 409.564 99.9323C410.552 100.162 411.546 100.363 412.544 100.534C413.044 100.621 413.544 100.702 414.046 100.776L414.442 100.831H414.51L415.385 100.942C419.562 101.4 423.767 101.554 427.967 101.401C436.482 101.16 444.942 100.083 453.442 99.5482C461.716 99.0255 470.176 99.0017 478.259 101.069C486.343 103.136 493.749 107.404 499.158 113.819C504.654 120.279 507.965 128.311 508.616 136.765C508.688 137.767 508.715 138.773 508.703 139.779C508.703 141.26 506.576 141.929 505.835 140.571C504.028 137.217 502.141 133.906 500.057 130.719C498.086 127.638 495.852 124.734 493.38 122.039C492.115 120.668 490.769 119.374 489.35 118.163C485.067 114.499 479.965 111.919 474.475 110.639C466.823 108.818 458.446 109.297 450.731 110.54C446.499 111.221 442.327 112.184 438.138 113.098C433.625 114.084 429.025 114.955 424.373 114.872C417.153 114.741 409.315 111.871 405.463 105.401C404.996 104.598 404.598 103.757 404.274 102.886C404.194 102.593 404.203 102.282 404.302 101.994C404.4 101.706 404.582 101.454 404.825 101.271C405.067 101.085 405.358 100.975 405.661 100.954C405.965 100.933 406.268 101.002 406.533 101.152C407.368 101.64 408.221 102.093 409.093 102.51C409.829 102.869 410.583 103.19 411.352 103.472C413.094 104.13 414.882 104.659 416.701 105.056C417.599 105.254 418.503 105.422 419.411 105.559L420.077 105.658C420.331 105.694 419.859 105.63 420.113 105.658L420.485 105.705C420.958 105.764 421.432 105.815 421.908 105.86C423.778 106.038 425.652 106.121 427.531 106.137C435.357 106.196 443.135 105.115 450.91 104.395C458.605 103.682 466.431 103.278 474.067 104.743C481.918 106.176 489.123 110.028 494.672 115.759C500.457 121.572 504.67 128.794 508.014 136.227C508.45 137.193 508.866 138.167 509.278 139.145C509.54 139.759 509.104 140.571 508.573 140.883C508.278 141.053 507.936 141.121 507.599 141.077C507.262 141.034 506.948 140.881 506.706 140.642C502.535 135.91 496.902 132.705 490.702 131.535C490.345 131.466 489.988 131.404 489.632 131.348C489.235 131.285 489.132 131.273 488.633 131.218C487.841 131.133 487.035 131.082 486.216 131.063C484.493 131.035 482.77 131.143 481.065 131.388C477.328 131.927 473.671 132.893 469.97 133.613C466.723 134.284 463.414 134.614 460.099 134.599C457.092 134.546 454.099 134.192 451.163 133.542C445.306 132.244 439.752 129.832 434.806 126.438C429.798 123.027 425.531 118.639 422.264 113.538C421.881 112.931 421.514 112.314 421.163 111.689C420.723 110.897 421.068 109.59 422.082 109.428L444.558 105.864C447.958 105.329 451.35 104.72 454.765 104.304C457.377 103.951 460.017 103.855 462.647 104.019C467.762 104.415 473.227 106.315 475.6 111.253C477.974 116.191 476.357 122.451 472.236 125.947C467.762 129.749 461.189 129.662 456.283 126.712C453.849 125.284 451.913 123.144 450.735 120.582C449.552 118.008 449.219 115.125 449.784 112.35C450.083 110.968 450.685 109.669 451.547 108.548C452.409 107.427 453.51 106.512 454.769 105.868C457.543 104.478 460.864 104.209 463.923 104.589C469.272 105.254 474.721 107.883 477.724 112.508C479.167 114.691 479.818 117.301 479.571 119.905C479.225 122.797 477.848 125.468 475.691 127.428C473.59 129.391 470.948 130.677 468.107 131.123C465.033 131.524 461.908 131.025 459.112 129.685C453.846 127.274 449.404 122.186 448.148 116.488C447.546 113.759 447.617 110.857 448.877 108.319C450.299 105.444 453.236 103.805 456.295 103.171C461.997 102.019 468.729 103.833 471.923 109C474.463 113.11 473.817 118.626 471.234 122.554C469.959 124.572 468.125 126.178 465.955 127.175C463.549 128.239 460.835 128.38 458.332 127.571C453.311 125.908 449.614 121.057 449.166 115.815C448.663 109.78 453.398 104.977 458.756 103.084C465.337 100.76 472.482 102.914 478.457 105.919C483.856 108.685 488.815 112.233 493.174 116.448C497.588 120.726 501.527 125.467 504.923 130.588C506.572 133.035 508.093 135.55 509.567 138.112C509.669 138.286 509.736 138.479 509.763 138.679C509.791 138.879 509.778 139.083 509.727 139.278C509.676 139.474 509.586 139.657 509.464 139.818C509.342 139.979 509.189 140.114 509.014 140.216C508.84 140.318 508.647 140.385 508.447 140.412C508.246 140.439 508.043 140.427 507.847 140.376C507.651 140.325 507.468 140.235 507.307 140.113C507.146 139.991 507.01 139.838 506.908 139.664L506.904 139.695ZM397.653 93.4463C397.54 93.532 397.42 93.6101 397.296 93.6799C397.324 93.6799 397.586 93.4383 397.403 93.6046L397.269 93.7234C397.158 93.8264 397.059 93.9412 396.956 94.0482C396.853 94.1551 396.825 94.2659 397.027 93.9492C396.979 94.0244 396.92 94.0957 396.872 94.1709C396.825 94.2461 396.722 94.4323 396.651 94.5669C396.579 94.7015 396.591 94.8005 396.698 94.4441C396.698 94.4995 396.655 94.555 396.639 94.6104C396.613 94.7527 396.577 94.8929 396.532 95.0302C396.532 95.0024 396.555 94.6342 396.555 94.8757C396.555 94.9589 396.555 95.046 396.555 95.1292C396.555 95.3667 396.555 95.0024 396.528 94.9707C396.552 95.0372 396.568 95.1063 396.575 95.1766C396.611 95.3667 396.718 95.2915 396.524 95.0895C396.555 95.1385 396.581 95.1902 396.603 95.244C396.64 95.2908 396.672 95.3412 396.698 95.3944C396.666 95.1964 396.472 95.141 396.627 95.2994C396.722 95.3984 396.849 95.4934 396.936 95.5964C396.746 95.3667 396.694 95.4221 396.813 95.5013L396.979 95.6122C397.082 95.6756 397.189 95.735 397.296 95.7904L397.443 95.8617C397.709 95.9963 397.15 95.7548 397.344 95.8221C397.538 95.8894 397.637 95.933 397.784 95.9805C398.775 96.3051 399.813 96.4279 400.807 96.7289C402.026 97.1637 403.189 97.7391 404.274 98.4434C404.584 98.6216 404.893 98.7998 405.21 98.9661L405.642 99.1799L405.816 99.2591C406.105 99.3977 405.519 99.1482 405.816 99.2591C406.137 99.3858 406.467 99.489 406.803 99.5679L406.985 99.6036C407.298 99.6749 406.648 99.5798 406.945 99.6036C407.135 99.6036 407.342 99.6273 407.516 99.6273C407.924 99.6273 408.316 99.7894 408.604 100.078C408.893 100.366 409.055 100.758 409.055 101.166C409.055 101.574 408.893 101.965 408.604 102.253C408.316 102.542 407.924 102.704 407.516 102.704C405.931 102.724 404.5 102.106 403.157 101.35C402.563 101.013 401.968 100.653 401.386 100.324C401.108 100.17 400.827 100.023 400.538 99.8926C400.479 99.8713 400.423 99.8462 400.367 99.8174C400.696 100.031 400.522 99.8808 400.391 99.8174C400.26 99.7541 400.07 99.7026 399.904 99.6551C398.802 99.3383 397.653 99.2155 396.583 98.7918C395.849 98.5344 395.175 98.1302 394.602 97.6039C393.951 96.9676 393.558 96.1128 393.5 95.2044C393.374 93.4185 394.634 91.6407 396.124 90.7933C396.476 90.5874 396.896 90.53 397.291 90.6336C397.686 90.7372 398.024 90.9933 398.23 91.3456C398.436 91.698 398.493 92.1176 398.389 92.5123C398.286 92.907 398.029 93.2444 397.677 93.4502L397.653 93.4463ZM390.834 204.686C386.308 205.739 381.545 204.646 378.193 201.348C375.178 198.378 373.042 194.438 371.326 190.609C369.317 186.099 368.184 181.502 367.474 176.608C367.078 173.959 366.813 171.278 366.286 168.657C365.768 166.324 365.063 164.037 364.178 161.818C361.083 153.776 356.252 145.12 359.058 136.298C360.897 130.513 366.119 123.184 373.034 123.829C377.642 124.261 380.436 128.133 382.496 131.871C385.27 136.92 387.481 142.297 389.466 147.71C390.104 149.448 387.592 150.228 386.653 148.898C385.714 147.567 383.705 147.053 382.227 146.811C380.864 146.589 378.748 146.459 377.674 147.532C376.485 148.72 375.962 150.755 375.657 152.323C375.306 154.302 375.265 156.323 375.534 158.314C376.05 162.529 377.552 166.563 379.917 170.09C380.94 171.656 382.216 173.043 383.693 174.192C385.076 175.23 387.691 176.73 389.363 175.507C391.325 174.07 388.908 171.009 387.778 169.876C385.995 168.079 383.859 166.653 382.671 164.333C381.482 162.012 381.66 159.506 383.42 157.601C385.056 155.815 387.517 155.099 389.086 153.246C392.581 149.088 391.543 143.045 389.879 138.389C388.832 135.494 387.501 132.711 386.376 129.848C385.213 126.883 384.2 123.867 383.336 120.8C379.905 108.644 378.843 95.8538 379.806 83.2738C380.769 70.6939 382.825 58.0704 386.407 46.017C393.175 23.2607 406.153 3.18111 420.656 -15.3582C427.44 -24.0339 435.82 -31.5137 444.506 -38.2452C452.348 -44.3233 460.618 -49.4749 469.748 -53.3831C470.271 -53.6049 470.794 -53.8226 471.309 -54.0681C471.483 -54.1513 471.654 -54.2463 471.828 -54.3255C472.002 -54.4047 472.319 -54.6977 471.895 -54.3255C473.381 -55.6005 475.509 -53.5336 474.071 -52.1517C472.632 -50.7697 470.778 -49.7521 469.019 -48.7859C466.498 -47.404 463.954 -46.0696 461.49 -44.5886C455.807 -41.1793 450.565 -37.0652 445.536 -32.7452C435.234 -23.9111 425.565 -13.9366 418.278 -2.41789C411.455 8.37227 406.351 20.1999 402.4 32.3165C399.841 39.981 397.823 47.8153 396.361 55.7619C395.355 61.4718 394.459 67.245 393.984 73.0261C393.401 79.9714 393.354 87.281 396.021 93.8462C396.765 95.6795 393.79 96.4754 393.053 94.6619C390.675 88.7817 390.382 82.2047 390.707 75.9405C391.032 69.6762 392.046 63.4476 393.025 57.2467C394.242 49.8873 395.963 42.6199 398.176 35.4961C401.81 23.5022 406.521 11.738 412.735 0.836975C419.641 -11.2757 428.846 -21.7966 439.121 -31.1732C444.57 -36.1466 450.315 -40.9299 456.449 -45.0321C459.532 -47.0951 462.766 -48.8968 466.027 -50.6588C468.008 -51.7319 470.255 -52.7337 471.891 -54.3216L474.067 -52.1477C473.322 -51.5102 472.375 -51.1736 471.483 -50.7935C469.748 -50.0491 468.012 -49.2967 466.308 -48.481C461.163 -45.9807 456.242 -43.0437 451.599 -39.7024C442.212 -33.0936 433.272 -25.4475 425.712 -16.7361C421.789 -12.2261 418.246 -7.34377 414.763 -2.48126C411.28 2.38124 407.888 7.43776 404.786 12.6131C398.382 23.2567 392.993 34.6369 389.427 46.5754C385.672 59.2867 383.411 72.3918 382.691 85.6259C381.946 98.9265 383.515 112.326 387.842 124.954C389.887 130.945 393.334 136.698 394.265 143.014C395.014 148.102 393.801 153.804 389.482 157.015C387.83 158.243 384.434 159.391 385.024 161.989C385.615 164.586 388.508 166.15 390.211 167.972C391.915 169.793 393.381 172.189 393.08 174.703C392.755 177.317 390.445 178.972 387.893 178.968C383.535 178.968 379.968 175.432 377.591 172.137C374.983 168.415 373.273 164.141 372.594 159.648C371.952 155.455 372.118 150.937 374.203 147.132C375.162 145.39 376.485 144.214 378.47 143.81C380.512 143.43 382.617 143.566 384.593 144.206C386.431 144.784 388.159 145.722 389.268 147.322L386.455 148.51C384.889 144.154 383.074 139.891 381.018 135.744C379.477 132.691 377.71 128.64 374.302 127.258C368.79 125.021 363.88 131.903 362.279 136.239C359.454 143.881 363.274 151.61 366.159 158.647C367.907 162.754 369.134 167.064 369.812 171.476C370.482 176.109 370.977 180.809 372.483 185.268C373.872 189.526 375.93 193.536 378.581 197.147C381.355 200.817 385.357 202.789 389.99 201.712C391.915 201.265 392.74 204.231 390.806 204.678L390.834 204.686ZM570.194 265.071C563.545 266.496 556.642 266.213 550.132 264.248C548.606 263.78 547.085 263.087 545.492 262.889C543.899 262.692 542.805 263.357 541.581 264.283C539.31 266.044 536.627 267.195 533.786 267.629C530.956 268.07 528.06 267.797 525.362 266.837C523.951 266.271 522.597 265.573 521.316 264.755C520.05 263.924 518.542 263.54 517.033 263.662C515.448 263.796 513.93 264.347 512.444 264.85C510.859 265.403 509.239 265.85 507.594 266.188C504.214 266.769 500.788 267.035 497.359 266.98C490.361 266.98 482.028 267.138 477.546 260.739L480.415 259.947C480.478 262.323 481.853 264.196 483.296 265.919C485.164 268.141 487.148 270.264 489.239 272.278C493.737 276.634 498.575 280.688 503.96 283.9C513.565 289.633 525.093 292.825 536.295 291.261C547.497 289.697 556.781 283.211 564.619 275.465C566.757 273.398 568.679 271.117 570.353 268.659C571.585 266.81 572.667 264.873 573.764 262.945C575.797 259.381 577.287 254.725 581.004 252.507C582.894 251.379 586.001 251.026 587.451 253.026C589.52 255.881 586.239 258.268 584.059 259.627C579.011 262.767 572.659 264.236 566.763 264.275C563.332 264.299 559.902 264.145 556.488 263.812C553.139 263.487 549.807 262.783 546.439 262.676C544.914 262.598 543.387 262.776 541.921 263.202C540.491 263.642 539.128 264.267 537.741 264.834C534.82 266.107 531.602 266.539 528.449 266.081C525.394 265.61 522.83 263.725 519.763 263.353C516.617 262.957 513.443 263.646 510.399 264.374C504.059 265.887 497.695 267.483 491.153 266.54C488.229 266.153 485.419 265.157 482.903 263.618C480.415 262.034 478.608 259.682 476.211 258.015C475.307 257.385 474.427 256.479 473.401 256.055C472.834 255.821 472.795 255.932 473.005 256.451C473.742 258.3 476.694 258.724 478.319 257.892C478.715 257.698 478.917 257.231 479.194 256.918C479.534 256.565 479.908 256.246 480.312 255.968C481.259 255.285 482.241 254.653 483.256 254.075C486.053 252.424 488.914 250.876 491.736 249.272C496.641 246.5 501.496 243.507 506.694 241.281C512.218 238.906 518.804 237.247 524.55 239.824C526.559 240.727 529.059 242.549 531.286 241.333C533.018 240.387 534.484 238.304 533.969 236.348C533.39 234.154 531.956 232.281 531.322 230.099C530.66 227.826 531.155 225.672 533.16 224.314C534.971 223.091 537.202 222.623 538.989 221.364C540.776 220.105 542.028 218.268 543.677 216.89C545.514 215.374 547.802 214.511 550.183 214.435C552.256 214.316 554.36 214.534 556.416 214.209C558.473 213.884 560.272 212.985 560.656 210.768C561.128 208.056 559.583 205.224 558.857 202.682C558.406 201.098 558.065 199.515 557.756 197.891C557.463 196.351 557.332 194.684 556.86 193.191C556.624 192.589 556.209 192.074 555.671 191.714C555.446 191.546 555.19 191.422 554.919 191.35C554.871 191.35 554.59 191.251 554.796 191.314C555.002 191.377 554.796 191.29 554.748 191.314H554.689C554.567 191.314 554.611 191.314 554.82 191.314C554.887 191.267 555.061 191.172 554.899 191.282C554.994 191.219 555.295 190.886 555.216 190.934C555.137 190.981 555.196 190.799 555.216 190.934C555.216 191.013 555.216 191.1 555.216 191.175C555.331 191.575 555.486 191.963 555.679 192.332C556.269 193.319 556.98 194.229 557.795 195.04C559.503 196.85 561.457 198.469 562.903 200.512C566.469 205.533 568.486 216.145 561.294 219.076C559.148 219.931 556.757 219.938 554.606 219.095C552.493 218.276 550.326 216.593 547.976 216.652C546.035 216.7 544.913 218.672 543.974 220.109C542.655 222.124 541.2 223.867 539.053 225.047C536.625 226.339 533.899 226.968 531.151 226.871C528.402 226.775 525.727 225.956 523.397 224.496C521.077 223.034 518.999 221.221 517.235 219.123C516.541 218.394 515.559 217.27 514.461 217.329C513.474 217.381 512.539 218.153 511.715 218.632C509.337 220.022 506.778 220.315 504.305 218.941C503.16 218.288 502.175 217.39 501.421 216.31C500.667 215.229 500.164 213.995 499.946 212.696C498.967 206.729 502.72 201.146 506.14 196.608C507.915 194.232 509.757 191.924 511.382 189.449C513.104 186.826 514.489 183.996 515.503 181.027C517.586 175.059 519.069 168.899 519.929 162.638C520.794 156.396 520.839 150.067 520.064 143.814C519.216 137.363 517.163 131.143 514.913 125.076C514.342 123.536 513.756 122.004 513.169 120.467C512.583 118.931 511.794 117.363 511.469 115.763C511.176 114.306 511.394 112.762 512.563 111.736C513.077 111.277 513.735 111.011 514.424 110.984C515.113 110.956 515.79 111.169 516.339 111.586C518.4 113.169 518.352 116.511 518.348 118.844C518.329 122.85 517.487 126.811 515.875 130.479C514.262 134.148 511.913 137.446 508.973 140.171C507.515 141.505 505.331 139.335 506.797 137.997C510.705 134.402 513.43 129.708 514.612 124.534C515.209 121.949 515.402 119.286 515.182 116.642C515.135 116.072 515.131 114.29 514.469 114.001C514.683 114.096 514.497 114.001 514.437 114.294C514.295 114.971 514.639 115.7 514.873 116.325C517.167 122.522 519.707 128.636 521.419 135.035C523.054 141.195 523.812 147.555 523.67 153.927C523.51 160.276 522.661 166.589 521.138 172.755C519.652 178.889 517.805 185.121 514.402 190.479C511.354 195.254 507.305 199.396 504.705 204.46C503.405 206.99 502.348 210.051 503.164 212.898C503.734 214.878 505.672 216.858 507.863 216.814C508.965 216.814 509.912 216.141 510.827 215.595C511.897 214.953 513.003 214.371 514.267 214.268C517.072 214.031 519.022 216.51 520.738 218.347C522.513 220.267 524.851 222.105 527.308 223.051C529.656 223.91 532.207 224.056 534.638 223.471C536.873 222.948 538.997 221.839 540.404 219.974C541.676 218.28 542.607 216.3 544.299 214.957C546.359 213.322 548.939 213.294 551.321 214.229C553.46 215.068 555.604 216.712 557.986 216.664C559.67 216.628 561.053 216.094 561.988 214.89C561.857 215.056 562.111 214.692 562.146 214.641C562.241 214.486 562.329 214.332 562.412 214.173C562.559 213.897 562.669 213.603 562.741 213.298C562.956 212.608 563.063 211.888 563.058 211.164C563.115 207.943 562.163 204.785 560.335 202.132C558.968 200.192 557.003 198.671 555.398 196.933C553.908 195.313 552.129 193.207 552.176 190.863C552.22 188.72 554.277 187.841 556.115 188.487C557.076 188.838 557.933 189.425 558.607 190.194C559.281 190.963 559.752 191.888 559.975 192.886C560.644 196.105 561.076 199.36 562.043 202.508C562.879 205.236 564.108 207.972 563.751 210.895C563.614 212.158 563.129 213.359 562.352 214.364C561.574 215.37 560.533 216.141 559.345 216.593C557.264 217.432 554.919 217.456 552.707 217.464C550.655 217.464 548.523 217.389 546.7 218.482C544.878 219.574 543.653 221.321 542.151 222.706C540.388 224.33 538.351 225.122 536.207 226.14C535.752 226.349 535.311 226.586 534.884 226.848C534.653 226.993 534.446 227.172 534.27 227.379C533.949 228.024 534.147 228.836 534.397 229.581C535.11 231.719 536.548 233.592 537.02 235.821C537.555 238.343 536.477 240.842 534.67 242.608C532.665 244.568 530.05 245.293 527.363 244.41C524.764 243.558 522.58 241.903 519.795 241.669C513.542 241.147 507.626 243.99 502.264 246.869C497.204 249.589 492.239 252.507 487.234 255.33C485.99 256.035 484.746 256.74 483.533 257.5C482.745 257.923 482.022 258.456 481.386 259.084C480.946 259.579 480.633 260.11 480.046 260.462C479.472 260.78 478.85 261.001 478.204 261.116C476.894 261.391 475.538 261.361 474.241 261.028C471.99 260.423 469.736 258.403 469.847 255.881C469.874 255.232 470.101 254.608 470.498 254.094C470.894 253.58 471.441 253.201 472.062 253.01C473.29 252.638 474.542 253.069 475.581 253.739C477.781 255.228 479.845 256.911 481.746 258.767C483.811 260.748 486.333 262.19 489.089 262.965C495.243 264.671 501.658 263.361 507.713 261.864C510.796 261.108 513.906 260.324 517.092 260.189C518.712 260.11 520.335 260.255 521.915 260.621C523.448 260.989 524.807 261.725 526.273 262.311C529.088 263.428 532.207 263.519 535.082 262.569C538.006 261.607 540.673 260.042 543.78 259.694C547.061 259.322 550.338 259.983 553.583 260.399C556.928 260.828 560.293 261.084 563.664 261.167C566.834 261.246 569.96 261.222 573.079 260.541C575.962 259.953 578.752 258.977 581.373 257.639C582.596 257.019 583.729 256.236 584.741 255.311C584.978 255.085 585.232 254.915 584.947 254.736C584.654 254.643 584.341 254.625 584.039 254.685C582.32 254.855 581.083 256.348 580.136 257.77C578.92 259.595 577.996 261.591 576.966 263.531C576.063 265.261 575.068 266.96 574.046 268.619C571.09 273.422 567.246 277.465 563.006 281.152C558.766 284.838 554.249 288.216 549.137 290.595C538.506 295.545 526.46 295.787 515.337 292.33C503.675 288.707 493.689 281.298 485.253 272.622C483.453 270.802 481.753 268.885 480.161 266.881C478.576 264.842 477.423 262.577 477.352 259.94C477.308 258.312 479.396 257.987 480.221 259.148C483.787 264.256 491.213 263.852 496.701 263.864C500.014 263.864 503.362 263.836 506.627 263.234C509.797 262.652 512.717 261.207 515.884 260.72C517.448 260.424 519.061 260.514 520.583 260.981C522.081 261.496 523.333 262.438 524.712 263.183C527.033 264.382 529.643 264.911 532.248 264.711C534.854 264.51 537.351 263.587 539.461 262.046C540.673 261.155 541.838 260.205 543.348 259.904C544.943 259.65 546.577 259.795 548.103 260.324C551.562 261.369 554.883 262.434 558.513 262.743C562.154 263.058 565.821 262.837 569.398 262.086C571.331 261.69 572.172 264.644 570.214 265.051L570.194 265.071ZM569.378 262.204C570.567 261.86 571.724 261.5 572.869 261.06C572.94 261.032 573.146 260.953 572.817 261.084L573.027 260.993L573.424 260.803C573.688 260.671 573.952 260.529 574.216 260.379C574.454 260.244 574.684 260.102 574.91 259.947L575.231 259.722C575.278 259.686 575.456 259.555 575.27 259.694C575.084 259.833 575.326 259.646 575.346 259.627C575.752 259.29 576.126 258.916 576.463 258.51C576.503 258.459 576.542 258.403 576.586 258.356C576.562 258.383 576.376 258.645 576.522 258.431C576.586 258.336 576.653 258.245 576.717 258.15C576.863 257.918 576.996 257.677 577.113 257.429C577.136 257.369 577.164 257.311 577.196 257.255C577.196 257.255 577.077 257.556 577.137 257.397C577.196 257.239 577.228 257.156 577.267 257.033C577.351 256.774 577.417 256.509 577.465 256.241C577.501 256.055 577.402 256.217 577.465 256.34C577.458 256.286 577.458 256.232 577.465 256.178C577.465 256.107 577.465 256.031 577.465 255.96C577.485 255.754 577.541 256.249 577.465 256.051C577.465 255.984 577.426 255.913 577.41 255.845C577.374 255.683 577.446 255.972 577.462 255.976C577.477 255.98 577.355 255.814 577.358 255.81C577.491 255.976 577.518 256.015 577.442 255.928L577.339 255.821C576.912 255.411 576.46 255.026 575.987 254.669L575.853 254.562C575.682 254.428 576.067 254.725 575.892 254.594L575.524 254.317C575.278 254.135 575.03 253.956 574.779 253.782C573.772 253.081 572.73 252.436 571.664 251.83C569.608 250.642 567.472 249.636 565.348 248.587C563.224 247.538 561.14 246.524 559.008 245.578L558.18 245.217L557.815 245.063L557.736 245.031L557.605 244.976C557.048 244.743 556.486 244.518 555.921 244.299C554.796 243.863 553.662 243.459 552.513 243.111C551.364 242.762 550.239 242.434 549.078 242.168C548.507 242.039 547.935 241.923 547.362 241.82L546.57 241.689L546.193 241.634C546.645 241.709 546.078 241.634 545.959 241.61C544.849 241.481 543.732 241.425 542.615 241.444C542.369 241.444 542.124 241.444 541.878 241.475L541.593 241.507C542.104 241.472 541.692 241.507 541.553 241.507C541.112 241.59 540.676 241.701 540.249 241.84C539.809 241.982 539.377 242.145 538.95 242.319C538.605 242.461 539.255 242.188 538.91 242.319L538.625 242.442L537.931 242.75C536.964 243.19 536.001 243.637 535.015 244.029C533.093 244.868 530.974 245.15 528.9 244.841C528.401 244.751 527.913 244.611 527.442 244.421C527.062 244.303 526.736 244.053 526.523 243.717C526.318 243.356 526.262 242.93 526.368 242.529C526.602 241.808 527.462 241.139 528.263 241.456C528.748 241.651 529.253 241.794 529.768 241.883C530.165 241.947 529.428 241.852 529.808 241.883L530.165 241.911C530.414 241.924 530.664 241.924 530.913 241.911L531.262 241.887C531.401 241.887 531.758 241.784 531.286 241.887C531.528 241.832 531.773 241.808 532.015 241.753C532.487 241.647 532.953 241.515 533.41 241.357C533.636 241.277 533.858 241.194 534.08 241.111L534.412 240.977L534.579 240.909L534.5 240.941C534.955 240.747 535.403 240.545 535.855 240.335C536.822 239.892 537.788 239.448 538.787 239.08C539.759 238.714 540.774 238.476 541.807 238.371C542.927 238.285 544.053 238.301 545.171 238.419C547.654 238.643 550.108 239.121 552.494 239.844C557.316 241.277 561.901 243.436 566.402 245.653C570.903 247.87 575.472 250.009 579.253 253.358C579.839 253.832 580.256 254.482 580.441 255.212C580.576 255.978 580.534 256.765 580.319 257.512C579.969 258.74 579.341 259.872 578.484 260.819C576.78 262.798 574.311 263.852 571.886 264.624C571.304 264.81 570.697 264.98 570.127 265.15C569.932 265.204 569.728 265.219 569.528 265.194C569.327 265.169 569.134 265.104 568.958 265.005C568.782 264.905 568.628 264.771 568.504 264.612C568.38 264.452 568.288 264.27 568.235 264.075C568.181 263.881 568.166 263.677 568.191 263.477C568.217 263.276 568.281 263.083 568.381 262.907C568.481 262.732 568.614 262.578 568.774 262.454C568.933 262.33 569.116 262.238 569.311 262.185L569.378 262.204ZM390.362 201.938C392.014 198.374 397.257 190.411 401.968 194.414C405.566 197.463 403.609 203.173 399.46 204.413C388.512 207.679 376.699 190.197 388.401 183.767C393.504 180.963 398.251 184.836 400.641 189.219C404.164 195.686 406.303 203.237 408.566 210.206C410.987 217.65 413.103 225.185 414.827 232.827C416.305 239.397 417.601 246.025 419.621 252.46C424.178 266.956 434.172 278.689 444.423 289.609C455.213 301.093 467.156 311.487 479.159 321.683C490.254 331.111 502.431 339.941 516.454 344.396C523.393 346.597 530.664 347.742 537.935 346.942C545.088 346.15 551.99 343.643 558.354 340.353C570.69 333.974 581.503 324.807 591.56 315.336C601.617 305.864 611.016 295.616 618.708 284.161C626.546 272.492 631.61 260.169 632.723 246.085C633.912 231.291 630.706 216.561 624.006 203.32C611.884 179.411 589.381 162.788 570.166 144.918C559.178 134.698 548.618 123.932 538.264 113.059C527.656 101.924 517.461 90.3696 508.315 77.9955C499.617 66.2273 491.807 53.7068 486.228 40.1448C480.33 25.942 477.678 10.6029 478.465 -4.75412C479.301 -20.9453 482.979 -37.2236 487.492 -52.7575C488.681 -56.8122 491.55 -62.8785 496.697 -62.2093C501.666 -61.5638 502.672 -55.3788 500.331 -51.7082C497.854 -47.8277 492.164 -46.1131 487.809 -46.228L489.136 -46.9882C475.267 -17.9716 479.507 16.8737 492.988 45.1974C506.908 74.4476 529.376 98.4157 551.959 121.188C574.426 143.841 597.801 166.186 614.963 193.322C622.524 205.28 628.931 218.22 633.028 231.786C634.78 237.579 636.868 244.354 635.98 250.468C635.231 255.616 632.537 260.367 629.87 264.766C623.106 275.889 614.812 286.632 613.12 299.936C611.654 311.364 615.32 323.299 625.801 329.198C628.799 330.824 632.027 331.985 635.374 332.643L634.558 335.609C632.343 334.896 631.483 332.711 630.94 330.624C629.989 326.969 629.779 323.013 629.581 319.26C629.185 311.606 631.626 304.28 635.168 297.58C643.061 282.633 654.838 269.863 666.286 257.587C688.991 233.251 711.962 208.392 730.875 180.928C740.255 167.295 748.521 152.814 754.5 137.371C760.949 120.507 765.365 102.936 767.656 85.028C772.411 48.9314 769.514 12.0152 761.49 -23.4082C757.801 -39.7063 752.971 -55.553 745.707 -70.6395C738.827 -84.8379 730.442 -98.2575 720.696 -110.668C701.386 -135.369 677.318 -157.428 649.144 -171.528C620.479 -185.882 587.812 -192.174 555.965 -187.502C529.332 -183.594 501.678 -177.357 478.338 -163.455C472.633 -160.121 467.316 -156.162 462.488 -151.651C460.219 -149.502 458.101 -147.2 456.148 -144.761C455.843 -144.365 454.143 -141.878 454.29 -143.177C454.314 -143.019 454.359 -142.864 454.424 -142.718C455.784 -137.063 457.749 -131.488 459.421 -125.921C465.674 -105.081 471.959 -84.2331 478.972 -63.6348C480.264 -59.8453 481.584 -56.0638 483.006 -52.3219C483.585 -50.7974 481.473 -49.8629 480.435 -50.8251C479.246 -51.9101 478.707 -53.9929 478.121 -55.3946C476.785 -58.6139 475.569 -61.8846 474.356 -65.1553C470.73 -74.9436 467.267 -84.7954 463.792 -94.6392C460.253 -104.657 456.739 -114.683 453.093 -124.669C451.781 -128.273 450.466 -131.876 449.063 -135.444C448.485 -136.917 447.942 -139.293 446.824 -140.492C447.221 -140.065 445.54 -140.948 445.156 -141.051C443.61 -141.398 442.023 -141.532 440.441 -141.447C436.866 -141.317 433.308 -140.898 429.801 -140.191C422.237 -138.817 414.617 -137.491 407.286 -135.135C389.379 -129.385 373.957 -117.601 361.261 -103.96C348.565 -90.3191 338.71 -74.1596 333.198 -56.242C327.508 -37.7344 325.436 -17.8726 328.685 1.29233C330.279 10.8365 333.242 20.1012 337.482 28.8003C341.892 37.7769 347.586 46.0408 353.304 54.2215C364.356 70.0326 376.073 86.5643 378.839 106.153C379.508 110.796 379.581 115.505 379.057 120.166C378.835 122.11 375.756 122.146 375.978 120.166C378.403 98.9463 367.229 79.7774 355.638 62.9408C344.238 46.4011 332.576 30.3486 327.528 10.5739C318.184 -26.0216 327.9 -66.8817 350.887 -96.5081C362.073 -110.929 376.418 -124.19 392.787 -132.514C401.505 -136.956 410.943 -139.871 420.576 -141.589C426.952 -142.726 433.308 -144.31 439.807 -144.535C443.012 -144.646 448.025 -144.709 449.832 -141.482C451.021 -139.328 451.813 -136.861 452.709 -134.565C456.156 -125.58 459.33 -116.485 462.54 -107.413C466.34 -96.6705 470.108 -85.9199 473.968 -75.1971C476.476 -68.228 478.723 -60.9818 481.94 -54.2859C482.132 -53.9625 482.301 -53.6265 482.448 -53.2802C482.57 -52.8842 482.721 -52.9159 482.606 -53.0228L480.034 -51.526C472.549 -71.2057 466.637 -91.5427 460.515 -111.678C457.952 -120.099 455.42 -128.53 452.919 -136.972C452.415 -138.667 451.69 -140.437 451.381 -142.179C451.116 -143.68 452.209 -144.67 453.093 -145.826C454.932 -148.219 456.926 -150.487 459.065 -152.617C478.227 -171.711 506.163 -180.652 531.975 -186.274C545.773 -189.296 559.931 -191.818 574.081 -192.119C589.825 -192.392 605.521 -190.306 620.645 -185.93C651.454 -177.104 678.197 -159.626 700.93 -137.333C723.37 -115.333 742.038 -89.1312 753.791 -59.8968C760.23 -43.8838 764.26 -26.9324 767.386 -10.0047C770.775 8.11618 772.641 26.4885 772.966 44.9202C773.497 80.0071 767.925 115.826 753.363 147.947C739.557 178.405 717.851 204.535 695.906 229.43C684.609 242.24 672.923 254.693 661.487 267.356C655.482 273.904 649.895 280.822 644.757 288.069C639.975 294.912 635.37 302.241 633.444 310.461C632.489 314.536 632.581 318.499 632.917 322.637C633.064 324.439 633.04 331.895 635.394 332.655C637.284 333.265 636.515 336.037 634.578 335.621C622.916 333.119 613.525 325.469 610.699 313.613C607.771 301.338 611.769 288.976 617.832 278.32C621.042 272.674 624.806 267.368 628.095 261.765C630.718 257.298 633.409 252.262 633.084 246.928C632.616 239.214 629.914 231.37 627.176 224.207C624.742 217.885 621.904 211.725 618.68 205.767C602.81 176.315 578.805 152.481 555.394 129.004C532.423 105.991 509.096 82.3195 493.642 53.3742C478.905 25.7316 472.204 -7.90207 482.301 -38.2769C483.473 -41.7743 484.861 -45.1954 486.458 -48.5206C486.591 -48.754 486.785 -48.9476 487.018 -49.0812C487.251 -49.2149 487.516 -49.2838 487.785 -49.2809C490.152 -49.2382 492.492 -49.7824 494.597 -50.8647C497.022 -52.0527 499.998 -55.3313 497.921 -58.1625C495.572 -61.3619 492.461 -56.836 491.518 -54.8799C490.032 -51.7953 489.449 -48.2355 488.601 -44.9411C484.789 -30.1239 481.469 -15.0018 481.37 0.361801C481.152 29.4299 495.08 55.3105 512.115 78.0034C529.019 100.522 549.244 120.835 569.624 140.206C587.186 156.9 607.097 171.781 620.859 192.019C634.914 212.688 640.525 240.07 632.394 264.129C628.551 275.501 621.85 285.753 614.448 295.113C606.864 304.708 598.277 313.514 589.175 321.671C570.923 338.029 548.428 354.354 522.553 349.143C509.789 346.574 498.171 340.111 487.781 332.457C476.722 324.308 466.383 314.971 456.307 305.646C445.809 296.008 436.167 285.479 427.487 274.179C419.598 263.828 415.956 252.198 413.182 239.646C410.084 225.633 406.268 211.928 401.192 198.465C399.694 194.506 396.163 182.626 389.637 186.586C382.366 191.001 389.284 200.105 395.161 201.431C396.833 201.827 399.361 201.89 400.387 200.16C400.887 199.317 400.863 197.756 400.205 196.992C397.927 194.395 393.683 202.005 393.009 203.462C392.177 205.256 389.522 203.696 390.35 201.91L390.362 201.938Z" fill="#402B1D"/>
</g>
<g clip-path="url(#clip2_1250:9466)">
<path opacity="0.15" d="M438.745 -168.351C435.986 -222.675 488.814 -252.632 536.091 -251.908C596.122 -250.974 661.946 -223.548 709.656 -188.45C767.93 -145.573 813.307 -73.3976 819.615 -0.770706C822.128 28.1101 811.906 58.6179 790.515 78.6132C751.492 115.093 691.987 107.892 646.145 89.21C541.071 48.4155 444.642 -52.2117 438.745 -168.351Z" fill="#FCF9F7"/>
</g>
<defs>
<clipPath id="clip0_1250:9466">
<rect width="506" height="188" fill="white" transform="matrix(1 0 0 -1 0 432)"/>
</clipPath>
<clipPath id="clip1_1250:9466">
<rect width="220" height="432" fill="white" transform="matrix(-1 0 0 1 544 -40)"/>
</clipPath>
<clipPath id="clip2_1250:9466">
<rect width="108" height="134" fill="white" transform="matrix(-1 0 0 1 536 -40)"/>
</clipPath>
</defs>
</svg>
