<svg width="720" height="832" viewBox="0 0 720 832" fill="none" xmlns="http://www.w3.org/2000/svg">
<g opacity="0.2" clip-path="url(#clip0_495:62454)">
<path d="M545.448 351.513C546.985 349.825 549.461 352.354 547.932 354.03C542.697 359.775 537.087 365.169 531.34 370.393C523.777 377.269 515.308 383.043 507.79 389.971C506.224 391.318 504.797 392.818 503.529 394.45C501.281 397.574 505.325 398.331 507.966 397.674C511.681 396.74 514.813 394.68 518.025 392.7C521.181 390.76 524.635 389.352 528.246 388.533C543.629 384.988 560.405 389.925 573.969 397.161C590.024 405.726 602.673 418.768 615.278 431.641C641.429 458.309 667.639 484.903 693.524 511.829C719.058 538.376 744.508 565.026 770.065 591.577C776.35 598.101 782.604 604.606 788.969 611.066C792.245 614.401 795.431 618.111 799.31 620.72C800.041 621.209 801.316 622.18 802.203 622.239C803.964 622.366 803.062 620.839 802.588 619.743C801.856 618.184 800.939 616.719 799.855 615.38C794.293 608.082 787.858 601.339 781.888 594.385L763.369 572.852L690.559 488.194L544.333 318.19C496.093 262.097 447.978 205.833 397.56 151.655C396.01 149.987 398.528 147.498 400.078 149.165C406.323 155.875 412.469 162.67 418.624 169.462C470.255 226.414 520.24 284.764 570.353 343.038L721.894 519.231C746.834 548.229 771.571 577.42 796.757 606.208C799.564 609.414 802.612 612.651 804.784 616.346C806.059 618.491 807.613 621.705 806.156 624.127C802.503 630.265 792.878 620.094 790.315 617.498C776.934 603.967 763.785 590.209 750.63 576.447C724.079 548.75 697.504 521.074 670.907 493.418C657.493 479.524 644.066 465.638 630.462 451.928C617.113 438.473 604.269 424.027 589.647 411.935C575.611 400.324 557.727 391.14 539.143 390.915C534.833 390.824 530.534 391.415 526.406 392.664C522.389 393.919 519.25 396.353 515.589 398.342C511.377 400.675 502.208 404.427 499.543 398.03C497.991 394.306 501.621 391.007 504.016 388.673C507.98 384.956 512.138 381.453 516.474 378.179C526.859 370.115 536.553 361.197 545.455 351.517L545.448 351.513ZM310.182 183.171C312.41 182.577 314.185 181.186 315.922 179.772L322.784 174.127L337.113 162.365C345.182 155.73 353.13 148.958 361.391 142.527L359.543 140.621C356.942 143.574 353.866 146.102 351.011 148.783C347.236 152.276 343.512 155.823 339.709 159.291C335.657 162.981 331.595 166.657 327.521 170.318C323.652 173.798 319.886 177.463 315.884 180.782C314.37 182.039 312.64 183.398 312.109 185.39C311.847 186.277 311.867 187.223 312.164 188.098C312.461 188.973 313.022 189.734 313.77 190.276C315.421 191.305 317.417 190.763 318.929 189.756C320.837 188.375 322.667 186.888 324.407 185.301C332.772 178.241 341.08 171.106 349.444 164.047C353.265 160.824 357.07 157.542 361.029 154.5C362.4 153.441 363.782 152.392 365.173 151.356C365.912 150.722 366.698 150.147 367.524 149.634L365.938 147.535C358.891 154.373 351.453 160.844 344.275 167.573C337.098 174.303 329.938 181.22 322.524 187.779C320.703 189.396 317.711 192.039 318.455 194.827C319.305 198.07 323.048 197.478 325.169 196.01C326.392 195.123 327.54 194.135 328.599 193.057C330.112 191.598 331.769 190.28 333.372 188.924C337.738 185.236 342.135 181.582 346.54 177.942C351.375 173.921 356.247 169.921 361.055 165.859C363.54 163.77 366.013 161.668 368.473 159.553C369.887 158.339 371.434 157.328 372.93 156.186L371.082 154.28C365.744 161.191 359.036 166.933 352.592 172.769C345.46 179.232 338.154 185.518 331.219 192.204C329.634 193.73 328.032 195.272 326.555 196.902C325.558 198.005 324.216 199.663 324.778 201.271C325.34 202.88 327.204 202.873 328.501 202.338C330.156 201.691 331.466 200.35 332.813 199.223C340.235 192.819 347.722 186.515 355.275 180.309C362.704 174.203 369.98 167.899 377.541 161.969L375.693 160.063C367.405 168.267 358.824 176.166 350.476 184.284C345.82 188.794 341.042 193.167 336.4 197.695C334.549 199.376 332.803 201.17 331.172 203.066C330.042 204.487 329.599 206.312 331.101 207.657C333.879 210.1 337.567 206.817 339.545 204.914C343.167 201.426 346.951 198.123 350.714 194.783C356.658 189.506 362.667 184.308 368.692 179.153C373.425 175.09 378.202 171.068 382.913 166.984L381.065 165.078C376.073 170.402 370.643 175.296 365.312 180.264C359.75 185.443 354.408 190.85 348.981 196.174C344.863 200.215 340.577 204.142 336.761 208.475C335.989 209.347 334.785 210.447 334.526 211.648C334.415 212.305 334.542 212.979 334.883 213.55C335.225 214.121 335.759 214.551 336.389 214.763C339.216 215.916 341.749 213.603 343.846 212.003C347.825 208.897 351.545 205.415 355.348 202.107C361.921 196.379 368.495 190.652 375.101 184.985C378.109 182.4 381.12 179.826 384.174 177.293C385.149 176.489 386.124 175.685 387.124 174.911C387.493 174.62 387.146 174.873 387.495 174.63L387.869 174.36C388.503 173.886 388.026 174.45 387.384 174.214L386.395 172.938C386.368 172.318 386.869 171.986 386.298 172.613L385.187 173.826C384.123 174.957 383.051 176.075 381.96 177.181C379.239 179.965 376.493 182.718 373.684 185.408C366.803 192.016 359.55 198.282 352.456 204.649C349.658 207.145 346.84 209.646 344.238 212.339C342.261 214.385 338.441 218.607 341.756 221.092C343.464 222.371 345.302 221.712 346.816 220.497C348.99 218.749 351.022 216.809 353.123 214.985C357.995 210.733 362.889 206.503 367.805 202.293C373.275 197.606 378.769 192.951 384.358 188.408C386.488 186.676 388.629 184.942 390.883 183.374C392.082 182.411 393.356 181.544 394.691 180.782L393.105 178.683C385.385 186.106 377.357 193.192 369.515 200.478C365.401 204.295 361.358 208.178 357.272 212.019C355.38 213.846 353.473 215.699 351.451 217.401C350.009 218.524 348.66 219.763 347.419 221.106C346.371 222.355 345.427 223.932 345.743 225.634C345.809 226.226 346.089 226.774 346.531 227.174C346.972 227.575 347.545 227.799 348.141 227.807C350.589 227.802 352.939 225.299 354.639 223.806C358.486 220.464 362.601 217.386 366.564 214.179C371.015 210.574 375.455 206.961 379.924 203.384C384.394 199.806 388.993 196.034 393.71 192.666C395.008 191.738 396.319 190.816 397.636 189.899L399.448 188.646C399.682 188.488 399.932 188.346 400.15 188.17C400.277 188.067 400.741 187.857 400.212 188.063L398.943 185.837C391.409 192.806 383.583 199.455 375.804 206.139C371.918 209.475 368.072 212.843 364.178 216.207C362.009 218.077 359.832 219.933 357.683 221.813C355.754 223.328 353.934 224.977 352.237 226.748C350.526 228.739 349.324 232.416 352.679 233.498C354.57 234.111 356.169 233.256 357.587 232.019C359.526 230.285 361.401 228.473 363.331 226.727C371.711 219.119 380.212 211.649 388.835 204.316C391.854 201.772 395.006 199.43 398.224 197.151C400.253 195.697 402.267 194.066 404.434 192.808L402.632 190.996C399.864 194.6 396.402 197.652 393.017 200.656C389.632 203.661 386.217 206.849 382.891 210.055C375.563 217.134 368.304 224.396 360.66 231.15C358.856 232.751 354.026 236.692 357.782 239.036C359.211 239.928 360.88 239.474 362.149 238.554C363.815 237.351 365.272 235.784 366.826 234.442C374.715 227.627 382.711 220.959 390.779 214.341C395.182 210.733 399.547 207.061 404.074 203.617C405.985 202.068 407.991 200.64 410.078 199.339L408.492 197.24C402.844 203.729 396.241 209.465 389.875 215.253C384.376 220.251 378.829 225.197 373.232 230.094C370.989 232.063 368.741 234.028 366.486 235.974C364.45 237.701 360.566 240.048 361.686 243.186C363.254 247.565 369.822 241.281 371.27 240.078C375.968 236.179 380.562 232.153 385.235 228.222C394.084 220.788 402.885 213.292 411.765 205.892C412.104 205.61 412.449 205.331 412.812 205.079C413.135 204.928 413.445 204.751 413.738 204.548C413.909 204.253 412.52 203.467 412.706 203.348C412.52 203.592 412.366 203.858 412.248 204.141C411.382 205.377 410.427 206.547 409.389 207.642C406.915 210.354 404.305 212.938 401.568 215.385C392.379 223.756 383.08 232.071 373.412 239.88C371.429 241.487 368.827 243.106 367.431 245.32C366.356 247.024 366.471 249.565 368.432 250.58C370.393 251.595 372.449 250.181 373.863 248.891C375.846 247.083 377.852 245.301 379.881 243.547C388.693 235.916 397.497 228.195 406.631 220.951C410.473 217.908 414.587 215.207 418.411 212.154C419.2 211.527 419.926 210.806 420.718 210.13L418.507 208.854C418.649 208.39 418.3 209.095 418.279 209.133C417.943 209.569 417.551 209.972 417.172 210.382C416.15 211.47 415.065 212.58 413.977 213.638C411.626 215.956 409.228 218.222 406.831 220.487C399.214 227.684 391.556 234.839 383.859 241.951C381.779 243.872 379.705 245.795 377.607 247.688C376.066 249.081 374.081 250.226 373.055 252.091C372.128 253.696 372.393 256.038 374.178 256.935C375.964 257.832 377.781 256.775 379.136 255.602C387.914 248.261 396.366 240.514 405.066 233.077C409.297 229.462 413.521 225.818 417.976 222.483C420.469 220.617 422.958 218.496 425.654 216.932L423.852 215.12C420.263 219.885 415.84 223.977 411.577 228.169C407.007 232.646 402.498 237.191 397.838 241.548C394.519 244.666 391.14 247.685 387.701 250.605C385.026 252.886 382.188 255.09 379.717 257.599C378.469 258.875 377.675 260.816 378.451 262.548C378.648 262.944 378.922 263.296 379.259 263.582C379.596 263.868 379.987 264.082 380.41 264.211C380.832 264.34 381.277 264.382 381.716 264.333C382.155 264.285 382.58 264.147 382.965 263.929C384.744 263.052 386.085 261.426 387.52 260.116C389.79 258.07 392.154 256.196 394.404 254.156C400.455 248.68 406.339 243.016 412.374 237.54C417.579 232.876 422.738 228.119 428.201 223.764C428.815 223.41 429.389 222.99 429.913 222.512C430.142 222.216 429.895 222.644 429.875 222.49C429.891 222.55 428.586 221.226 428.497 221.25C428.468 221.314 428.433 221.375 428.392 221.432C427.931 221.737 427.468 222.829 427.098 223.295C424.087 227.06 420.293 230.164 416.802 233.468C407.209 242.553 397.603 251.589 387.818 260.455C386.188 261.93 384.006 263.431 383.085 265.492C382.205 267.451 383.26 269.788 385.551 269.852C386.896 269.874 388.165 268.995 389.227 268.258C390.832 267.121 392.375 265.901 393.851 264.601C407.339 252.848 421.119 241.355 434.948 229.983L436.059 229.073C436.282 228.891 436.641 228.645 436.343 228.842L434.757 226.743C432.393 229.691 429.365 232.238 426.638 234.843C422.909 238.4 419.157 241.934 415.383 245.444C410.352 250.135 405.296 254.8 400.215 259.441C397.19 262.2 394.006 264.842 391.102 267.738C389.289 269.544 386.872 272.671 389.807 274.784C392.293 276.572 394.75 274.232 396.482 272.522C399.425 269.631 402.644 267.001 405.729 264.269L426.013 246.329C429.229 243.487 432.313 240.451 435.607 237.705C436.539 236.905 437.539 236.188 438.595 235.562C439.133 235.362 439.658 235.13 440.169 234.868L439.51 234.094L439.325 234.415C439.036 234.697 438.775 235.008 438.547 235.341C436.342 237.71 433.875 239.893 431.543 242.147C428.283 245.298 424.992 248.416 421.671 251.499C415.252 257.467 408.766 263.346 402.093 269.058C400.466 270.425 398.87 271.811 397.27 273.203C396.161 274.04 395.124 274.968 394.169 275.977C392.161 278.426 393.866 281.348 396.943 281.329C399.599 281.327 401.442 278.599 403.274 277.022C406.594 274.174 410.008 271.438 413.339 268.57C420.135 262.739 426.789 256.747 433.3 250.595C435.669 248.363 438.047 246.145 440.272 243.771C440.962 242.997 441.709 242.276 442.507 241.613C442.691 241.468 443.45 241.126 443.525 240.951C443.525 240.951 444.539 240.647 443.262 240.74C443.149 240.53 443.063 240.567 443.005 240.852C442.884 241.04 442.743 241.215 442.586 241.374C440.049 244.23 437.213 246.88 434.5 249.576C431.337 252.722 428.132 255.827 424.883 258.891C421.635 261.954 418.323 264.992 414.947 268.005C412.088 270.549 409.249 273.29 406.176 275.61C403.913 277.324 401.392 278.889 399.663 281.188C398.153 283.194 397.935 286.357 400.747 287.377C403.56 288.396 406.1 285.534 408.006 283.857C410.359 281.784 412.749 279.749 415.099 277.666C418.944 274.256 422.731 270.787 426.539 267.339C430.737 263.537 434.93 259.741 439.197 256.021C442.299 253.173 445.56 250.503 448.965 248.026C449.405 247.727 449.852 247.448 450.298 247.168C450.389 247.112 450.495 247.073 450.587 247.016C450.829 246.871 450.481 247.199 450.587 247.016C450.692 246.834 450.767 246.994 450.386 246.943L449.79 244.711C445.634 249.811 441.069 254.563 436.141 258.921C431.312 263.349 426.53 267.821 421.795 272.336C417.457 276.468 413.101 280.59 408.703 284.654C406.66 286.537 401.408 291.123 405.606 293.731C407.383 294.832 409.127 293.742 410.556 292.629C412.255 291.311 413.759 289.78 415.348 288.348C418.251 285.728 421.24 283.192 424.213 280.654C429.774 275.911 435.466 271.319 441.102 266.694C444.498 263.931 447.898 261.162 451.324 258.433C452.175 257.758 453.442 256.753 454.048 256.298C454.655 255.842 455.309 255.347 455.937 254.812L457.228 253.737C457.337 253.649 458.24 253.013 457.76 253.205L456.491 250.979C449.572 258.059 442.625 265.014 435.354 271.732L424.383 281.868C421.383 284.642 418.449 287.504 415.301 290.099C413.315 291.738 409.026 294.657 409.541 297.681C410.107 301.053 414.623 299.717 416.385 298.276C420.258 295.092 423.769 291.406 427.472 288.023C433.709 282.328 440.306 277.024 446.598 271.378C449.676 268.615 452.787 265.881 455.737 262.978C456.75 261.977 457.77 260.98 458.854 260.045C459.318 259.632 459.815 259.257 460.34 258.923C460.434 258.86 460.717 258.763 460.771 258.669C460.957 258.348 461 259.187 460.633 258.589C460.563 258.594 460.493 258.585 460.427 258.562C460.361 258.539 460.301 258.502 460.25 258.454C460.199 258.407 460.158 258.349 460.13 258.285C460.102 258.221 460.088 258.152 460.088 258.082C459.993 258.03 459.918 257.949 459.873 257.851C459.829 257.752 459.818 257.642 459.842 257.537C459.842 257.537 459.771 257.571 459.867 257.493C459.788 257.597 459.722 257.712 459.671 257.832C459.48 258.154 459.273 258.465 459.049 258.765C458.429 259.607 457.724 260.392 457.027 261.164C455.351 263.023 453.593 264.819 451.824 266.55C447.345 270.97 442.494 274.99 437.824 279.191C434.052 282.562 430.305 285.961 426.583 289.389C423.508 292.22 420.218 294.944 417.504 298.15C416.408 299.439 415.265 300.868 415.124 302.65C415.022 303.292 415.143 303.951 415.466 304.515C415.79 305.079 416.297 305.514 416.903 305.749C418.355 306.209 419.711 305.239 420.839 304.431C422.269 303.342 423.63 302.166 424.915 300.911C433.339 292.937 442.175 285.336 450.895 277.676C454.927 274.131 458.959 270.585 463.174 267.246C464.365 266.259 465.621 265.353 466.934 264.534C467.14 264.41 467.351 264.305 467.56 264.191C467.486 264.232 467.717 264.164 467.637 264.143C467.557 264.122 467.266 264.164 467.064 264.005C466.613 263.669 466.744 263.108 466.52 262.726C466.296 262.345 466.739 262.668 466.575 262.632C466.575 262.632 466.404 262.928 466.39 262.953C466.552 262.745 466.11 263.278 466.016 263.383C465.743 263.696 465.452 263.997 465.16 264.299C464.453 265.031 463.73 265.747 462.994 266.455C461.08 268.32 459.125 270.094 457.132 271.922C453.151 275.547 449.133 279.122 445.076 282.648C442.16 285.159 439.212 287.653 436.324 290.247C433.017 293.204 429.907 296.342 426.682 299.389C424.389 301.547 421.608 303.825 420.373 306.804C419.207 309.579 420.717 313.463 424.154 311.588C426.94 310.042 429.265 307.508 431.513 305.299C434.254 302.611 437.194 300.188 440.135 297.691C447.567 291.419 454.45 284.503 462.038 278.455C463.863 276.991 465.751 275.564 467.691 274.251C469.461 273.041 471.345 271.578 473.407 270.923L472.137 268.696C461.151 279.411 449.604 289.575 438.322 299.975C434.575 303.433 430.529 306.77 427.094 310.558C425.763 312.022 424.525 313.556 424.785 315.644C425.198 318.601 427.918 318.343 429.912 317.094C433.698 314.716 437.024 311.669 440.344 308.703C446.516 303.179 452.611 297.612 458.94 292.28L468.766 283.966C470.209 282.744 471.621 281.487 473.052 280.257C474.482 279.027 476.266 277.431 478.232 277.451L477.297 275.182C473.552 279.187 469.438 282.802 465.382 286.476C461.326 290.15 457.511 293.812 453.59 297.498C448.236 302.536 442.846 307.504 437.341 312.381C435.263 314.226 432.721 316.031 430.942 318.184C428.479 321.217 432.291 324.131 435.258 322.605C436.871 321.627 438.384 320.491 439.772 319.212C441.37 317.895 442.979 316.559 444.588 315.222C448.559 311.837 452.49 308.413 456.383 304.95C460.874 300.973 465.271 296.883 469.846 293.006C474.422 289.128 479.07 285.024 484.328 282.228L482.526 280.416C479.224 285.062 474.885 288.833 470.764 292.722C466.457 296.787 462.079 300.771 457.678 304.724C453.276 308.677 448.835 312.539 444.486 316.531C442.875 318.017 441.321 319.561 439.679 321.013C438.47 322.077 437.04 323.131 436.307 324.604C435.662 325.91 435.462 327.707 436.55 328.855C437.638 330.003 439.267 329.736 440.444 328.872C443.898 326.327 447.006 323.179 450.157 320.275C457.478 313.527 464.936 306.892 472.531 300.471C475.547 297.916 478.697 295.506 481.863 293.156C483.298 292.122 484.692 291.072 486.15 290.085C486.679 289.719 487.215 289.357 487.758 289.025C487.924 288.927 488.108 288.841 488.264 288.73C488.42 288.619 488.583 288.612 488.428 288.648L487.159 286.422C480.714 293.826 473.169 300.352 465.931 306.955C462.173 310.378 458.4 313.794 454.612 317.201C451.082 320.414 447.352 323.48 443.998 326.88C442.51 328.369 439.132 330.883 440.411 333.325C442.069 336.488 446.176 334.018 448.088 332.563C455.18 327.143 461.82 321.068 468.612 315.282C472.98 311.584 477.345 307.893 481.707 304.208C483.879 302.38 486.067 300.567 488.273 298.769C489.374 297.878 490.481 296.99 491.603 296.12C492.376 295.361 493.276 294.745 494.263 294.299L492.993 292.073C492.406 292.679 491.851 293.317 491.33 293.982C490.53 294.845 489.696 295.665 488.851 296.477C487.099 298.156 485.339 299.822 483.57 301.474C479.919 304.896 476.206 308.264 472.507 311.641C465.183 318.319 457.786 324.864 450.73 331.789C448.808 333.667 443.812 337.285 445.549 340.545C445.907 341.127 446.441 341.581 447.074 341.841C447.707 342.101 448.405 342.153 449.07 341.99C450.959 341.621 452.275 340.023 453.621 338.795C460.805 332.232 468.056 325.743 475.373 319.328C479.534 315.69 483.745 312.08 487.994 308.551C490.021 306.879 492.069 305.232 494.14 303.608C496.085 301.954 498.233 300.555 500.531 299.445L498.945 297.346C492.48 305.134 484.674 311.618 477.213 318.36C469.752 325.102 462.318 331.986 454.936 338.867C452.983 340.683 449.491 343.568 451.004 346.664C452.233 349.136 455.093 347.808 456.767 346.636C458.989 344.913 461.115 343.071 463.136 341.117C466.984 337.717 470.777 334.252 474.551 330.776C482.127 323.806 489.643 316.752 497.425 310.019C499.041 308.67 500.469 307.01 502.296 305.934C502.424 305.857 502.989 305.546 502.981 305.533C503.09 305.663 501.912 306.745 501.857 306.797C501.031 307.545 500.133 308.201 499.307 308.949C495.518 312.35 491.768 315.798 488.008 319.206L464.624 340.441C462.69 342.194 460.776 343.958 458.83 345.704C457.582 346.821 455.909 347.86 455.535 349.625C455.397 350.417 455.554 351.232 455.975 351.916C456.397 352.6 457.054 353.105 457.823 353.337C458.59 353.567 459.401 353.613 460.189 353.471C460.978 353.328 461.721 353.001 462.36 352.516C463.768 351.44 465.096 350.264 466.335 348.997L471.985 343.868C475.787 340.436 479.605 337.025 483.439 333.634C487.346 330.184 491.275 326.764 495.226 323.374C498.572 320.481 501.811 317.409 505.421 314.828C506.877 313.756 508.912 312.103 510.759 311.836L509.489 309.609C506.455 313.328 502.828 316.461 499.313 319.675C495.592 323.089 491.909 326.551 488.169 329.954C480.967 336.494 473.49 342.741 466.478 349.49C465.083 350.832 463.627 352.149 462.303 353.557C461.372 354.546 460.325 355.939 460.78 357.385C461.192 358.688 462.541 359.123 463.787 358.953C465.443 358.726 466.763 357.483 468.027 356.484C475.26 350.718 482.13 344.49 489.123 338.384C493.211 334.829 497.297 331.264 501.415 327.744C505.533 324.223 509.748 320.565 514.284 317.554L512.482 315.742C511.587 317.742 509.562 319.35 508.103 320.89C506.371 322.685 504.601 324.431 502.826 326.184C499.354 329.616 495.83 332.993 492.296 336.356C485.099 343.192 477.986 350.203 470.546 356.764C469.01 358.117 463.945 360.84 466.484 363.421C469.167 366.145 472.994 362.07 474.998 360.5C482.404 354.708 489.13 348.137 496.053 341.789C499.802 338.357 503.609 334.984 507.645 331.869C511.68 328.753 516.105 325.485 520.793 323.242L518.991 321.43C516.35 325.887 512.592 329.481 508.705 332.876C504.723 336.349 500.677 339.744 496.713 343.244C488.9 350.161 481.093 357.022 473.294 363.829C472.185 364.792 470.802 366.099 470.707 367.672C470.655 368.256 470.811 368.839 471.146 369.319C471.481 369.8 471.975 370.146 472.54 370.299C474.834 370.91 477.525 368.789 479.226 367.54C485.97 362.606 492.011 356.697 498.028 350.934C506.518 342.83 515.479 334.085 526.397 329.364L524.829 327.233C517.301 334.86 509.132 341.856 501.283 349.155L489.234 360.405C485.627 363.751 481.893 366.998 478.406 370.455C477.372 371.478 476.417 372.856 476.923 374.373C477.077 374.854 477.389 375.269 477.807 375.552C478.226 375.835 478.727 375.969 479.231 375.932C481.532 375.835 483.786 373.629 485.419 372.222C491.834 366.697 498.155 361.117 504.57 355.591C508.838 351.914 513.044 348.167 517.381 344.53C519.545 342.725 521.762 340.976 524.089 339.383C526.427 337.649 528.956 336.19 531.626 335.034L529.957 333.76C529.866 335.847 528.018 337.481 526.616 338.836C524.816 340.575 522.961 342.264 521.141 343.965C517.315 347.45 513.434 350.873 509.5 354.234C505.566 357.61 501.592 360.937 497.616 364.255C493.918 367.279 490.355 370.55 486.554 373.331C484.418 374.883 480.571 377.427 481.792 380.608C482.914 383.554 486.584 381.201 488.129 380.021C491.873 377.148 495.395 374.022 499.056 371.076C503.122 367.796 507.206 364.539 511.308 361.302C515.919 357.649 520.533 354.01 525.151 350.383L531.949 345.079C533.01 344.257 534.077 343.455 535.077 342.564C535.925 341.82 536.856 341.267 537.73 340.58L535.882 338.674C528.791 345.965 521.907 353.578 514.214 360.245C507.24 366.287 499.704 371.694 492.532 377.487C490.994 378.677 489.548 379.983 488.208 381.392C487.25 382.442 485.911 383.833 485.98 385.367C486.046 386.038 486.332 386.669 486.794 387.16C487.256 387.651 487.868 387.976 488.533 388.083C490.03 388.393 491.355 387.664 492.518 386.767C493.882 385.662 495.187 384.486 496.429 383.244C498.065 381.671 499.81 380.288 501.496 378.819C505.498 375.369 509.523 371.943 513.57 368.541C517.985 364.83 522.425 361.154 526.89 357.512C529.2 355.63 531.514 353.755 533.832 351.888C536.019 350.13 538.16 348.22 540.459 346.619L538.648 346.128C539.228 347.125 537.719 348.578 537.111 349.225C536.047 350.293 534.929 351.305 533.76 352.258C529.943 355.533 526.363 359.121 522.637 362.499C514.489 369.899 506.206 377.142 497.786 384.229C495.738 385.949 490.182 389.42 493.086 392.674C494.937 394.75 497.817 392.838 499.495 391.542C501.811 389.749 503.896 387.589 506.092 385.643C510.253 381.962 514.346 378.209 518.489 374.501C523.054 370.425 527.682 366.384 532.509 362.535C534.876 360.655 537.292 358.836 539.765 357.092C540.896 356.294 542.018 355.482 543.164 354.7C543.995 354.131 545.839 352.679 546.927 353.189L546.66 351.097C546.083 351.821 545.488 352.518 544.871 353.21C543.737 354.477 545.567 356.356 546.719 355.116C547.333 354.43 547.931 353.727 548.508 353.003C548.998 352.388 549.099 351.314 548.242 350.911C546.324 349.997 544.318 350.844 542.656 351.881C540.605 353.156 538.645 354.65 536.686 356.07C532.448 359.144 528.374 362.429 524.361 365.81C520.219 369.342 516.171 372.987 512.136 376.64C508.591 379.879 504.856 382.966 501.372 386.274C499.771 387.799 497.751 390.325 495.505 390.849C494.176 391.164 495.703 389.419 496.109 389.05C497.783 387.499 499.592 386.136 501.313 384.679C509.663 377.614 517.881 370.394 525.964 363.019C529.647 359.658 533.251 356.201 537.01 352.926C539.101 351.104 542.736 347.883 540.937 344.789C540.761 344.485 540.472 344.264 540.133 344.172C539.794 344.08 539.433 344.125 539.127 344.298C535.463 346.856 532.054 349.888 528.587 352.702C524.853 355.726 521.139 358.773 517.446 361.842C510.055 367.971 502.634 374.107 495.479 380.506C494.768 381.144 489.656 386.734 488.73 385.377C488.334 384.787 490.483 382.848 490.911 382.441C492.287 381.124 493.736 379.885 495.249 378.728C501.924 373.479 508.754 368.395 515.267 362.917C523.303 356.079 530.428 348.178 537.779 340.625C538.996 339.373 537.232 337.7 535.931 338.719C535.316 339.203 534.598 339.577 533.968 340.103C533.128 340.818 532.304 341.533 531.437 342.208L525.824 346.577C521.954 349.595 518.092 352.623 514.238 355.661C506.548 361.726 498.851 367.803 491.285 374.032C489.686 375.349 488.135 376.76 486.494 377.978C486.069 378.289 485.625 378.574 485.164 378.829C484.915 378.971 484.645 379.075 484.399 379.226C484.152 379.378 483.698 379.25 484.071 379.49C484.443 379.73 484.215 379.356 484.336 379.031C484.436 378.763 484.579 378.515 484.761 378.295C485.278 377.678 485.865 377.125 486.509 376.644C487.726 375.669 489.062 374.762 490.254 373.772C497.713 367.54 505.214 361.367 512.573 355.019C516.649 351.499 520.669 347.947 524.601 344.343C527.593 341.582 532.316 338.234 532.544 333.777C532.541 333.574 532.493 333.375 532.402 333.195C532.311 333.014 532.18 332.856 532.02 332.734C531.859 332.611 531.672 332.526 531.474 332.486C531.276 332.446 531.071 332.452 530.875 332.503C526.78 334.082 523.005 336.819 519.539 339.458C515.921 342.227 512.485 345.277 508.998 348.298C501.515 354.818 493.855 361.135 486.448 367.741C484.946 369.08 483.517 370.495 481.909 371.714C481.057 372.289 480.174 372.816 479.264 373.292C479.169 373.319 479.071 373.333 478.972 373.333C479.016 373.258 479.387 373.573 479.381 373.569C479.374 373.565 479.546 373.195 479.639 373.122C479.905 372.774 480.206 372.452 480.536 372.163C487.684 365.585 494.769 358.944 501.872 352.314C510.129 344.613 518.744 337.237 526.677 329.198C527.799 328.067 526.416 326.53 525.091 327.099C516.274 330.894 508.628 337.463 501.638 343.898C494.785 350.211 488.17 356.72 481.033 362.727C479.164 364.416 477.117 365.899 474.929 367.148C474.509 367.376 474.067 367.559 473.609 367.694C473.076 367.848 473.329 367.642 473.312 367.859C473.38 367.059 475.11 365.775 475.794 365.214C483.349 359.021 490.532 352.311 497.865 345.847C502.043 342.151 506.308 338.565 510.51 334.899C514.568 331.369 518.47 327.555 521.23 322.89C521.366 322.638 521.418 322.348 521.376 322.064C521.335 321.78 521.204 321.517 521.002 321.314C520.8 321.111 520.538 320.978 520.255 320.936C519.971 320.893 519.681 320.943 519.428 321.078C511.921 324.664 505.171 330.306 498.949 335.759C492.572 341.348 486.527 347.306 480.153 352.905C477.015 355.657 473.801 358.366 470.478 360.886C469.895 361.33 469.139 361.942 468.335 361.696L468.562 361.869C468.722 361.678 468.893 361.497 469.076 361.327C469.317 361.097 469.57 360.891 469.83 360.688C471.295 359.529 472.705 358.421 474.07 357.145C480.713 350.969 487.328 344.759 493.914 338.516C497.649 334.949 501.386 331.377 505.06 327.742C506.834 325.989 508.598 324.239 510.323 322.441C511.84 320.859 513.831 319.18 514.738 317.145C515.223 316.058 514.142 314.536 512.936 315.333C505.738 320.054 499.314 326.102 492.818 331.724C485.928 337.68 479.095 343.711 472.138 349.595C470.743 350.778 469.36 351.985 467.952 353.16C466.761 354.15 465.318 355.734 463.825 356.29C463.592 356.374 463.328 356.338 463.109 356.413L463.293 356.746C463.342 356.546 463.429 356.357 463.548 356.189C464.008 355.57 464.542 355.011 465.138 354.523C466.546 353.188 467.913 351.821 469.321 350.485C475.837 344.305 482.71 338.524 489.361 332.489C493.18 329.022 496.947 325.5 500.743 322.002C504.368 318.625 508.186 315.393 511.332 311.554C511.532 311.346 511.66 311.078 511.696 310.792C511.732 310.505 511.674 310.215 511.531 309.964C511.388 309.713 511.167 309.516 510.903 309.401C510.638 309.286 510.343 309.26 510.062 309.328C508.294 309.59 506.543 310.912 505.092 311.886C503.377 313.057 501.723 314.314 500.136 315.653C496.684 318.527 493.328 321.539 489.919 324.471C482.438 330.899 475.094 337.483 467.78 344.1C466.149 345.575 464.504 347.033 462.912 348.556C461.991 349.442 460.112 351.579 458.611 350.855C457.111 350.131 460.665 347.602 461.298 347.028L466.879 341.961L489.224 321.729L500.348 311.631C502.066 310.106 508.284 306.01 504.905 303.288C502.19 301.099 497.977 306.117 496.189 307.677C492.408 310.99 488.63 314.313 484.919 317.708C477.608 324.394 470.403 331.142 462.991 337.77C460.733 339.78 458.527 341.904 456.159 343.801C455.78 344.094 453.879 345.732 453.339 345.42C452.943 345.191 454.171 343.383 454.465 343.049C455.587 341.759 456.932 340.648 458.168 339.465C459.947 337.757 461.743 336.067 463.557 334.396C467.171 331.038 470.862 327.707 474.501 324.421C481.733 317.873 489.274 311.572 496.035 304.534C497.7 302.811 499.29 301.024 500.804 299.175C501.019 298.945 501.146 298.646 501.162 298.332C501.178 298.017 501.083 297.708 500.894 297.457C500.704 297.206 500.432 297.03 500.126 296.961C499.819 296.891 499.498 296.932 499.218 297.076C495.592 298.641 492.48 301.492 489.4 303.926C485.88 306.743 482.433 309.653 479.013 312.587C472.205 318.431 465.497 324.391 458.841 330.406L454.262 334.55L451.757 336.829C450.951 337.572 450.134 338.611 449.136 339.092C448.928 339.19 448.089 339.57 447.874 339.202C447.554 338.64 448.824 337.368 449.124 337.037C450.481 335.572 451.965 334.206 453.406 332.798C459.952 326.45 466.755 320.369 473.515 314.203C477.362 310.702 481.216 307.205 485.014 303.659C486.795 301.996 488.565 300.323 490.326 298.637C491.24 297.764 492.167 296.898 493.003 295.988C493.628 295.325 494.167 294.479 494.847 293.881C495.048 293.673 495.175 293.406 495.211 293.119C495.247 292.832 495.189 292.542 495.046 292.291C494.903 292.04 494.683 291.843 494.418 291.728C494.154 291.614 493.859 291.588 493.578 291.655C492.042 292.153 491.024 293.176 489.75 294.135C487.812 295.65 485.903 297.2 484.004 298.763C480.346 301.777 476.726 304.839 473.114 307.905C465.844 314.07 458.626 320.289 451.34 326.437C449.281 328.176 447.119 330.426 444.688 331.633C444.266 331.842 443.398 332.213 442.918 332.045C442.688 331.963 442.768 332.521 442.906 331.92C443.028 331.663 443.197 331.431 443.402 331.234C444.218 330.289 445.084 329.389 445.998 328.537C449.285 325.267 452.871 322.278 456.32 319.176C459.769 316.075 463.32 312.856 466.821 309.692C474.413 302.782 482.329 295.992 489.088 288.216C489.289 288.007 489.417 287.74 489.452 287.453C489.488 287.167 489.43 286.876 489.287 286.625C489.144 286.375 488.924 286.177 488.659 286.063C488.395 285.948 488.1 285.922 487.819 285.989C486.023 286.446 484.25 288.124 482.794 289.179C479.981 291.208 477.215 293.3 474.496 295.455C467.544 300.939 460.932 306.922 454.34 312.84C451.143 315.709 448.028 318.651 444.846 321.538C443.349 322.897 441.84 324.249 440.297 325.557C439.635 326.123 437.753 327.989 438.663 325.863C439.204 324.607 440.701 323.625 441.717 322.735C443.315 321.317 444.834 319.803 446.408 318.353C450.468 314.615 454.638 310.99 458.75 307.306C463.44 303.1 468.112 298.867 472.689 294.538C476.997 290.472 481.437 286.525 484.885 281.669C485.692 280.533 484.158 279.286 483.083 279.857C478.914 282.073 475.15 285.227 471.494 288.193C467.66 291.307 463.954 294.579 460.29 297.892C453.383 304.14 446.407 310.332 439.206 316.26C437.765 317.45 436.316 318.669 434.785 319.74C434.422 319.991 433.439 320.708 432.969 320.244C432.666 319.942 433.554 319.23 433.896 318.958C435.749 317.2 437.74 315.564 439.646 313.888C444.66 309.441 449.587 304.911 454.472 300.323C458.596 296.444 462.705 292.49 466.882 288.71C471.058 284.929 475.343 281.178 479.21 277.034C479.389 276.845 479.51 276.609 479.557 276.353C479.605 276.098 479.578 275.834 479.479 275.594C479.38 275.354 479.213 275.148 479 275.001C478.786 274.854 478.534 274.772 478.275 274.765C475.221 274.73 472.652 277.09 470.498 278.993C467.949 281.246 465.333 283.427 462.735 285.619C457.135 290.357 451.456 294.999 446.036 299.932C442.233 303.4 438.485 306.933 434.56 310.263C432.657 311.936 430.632 313.465 428.502 314.837C428.289 314.974 427.566 315.53 427.332 315.412C427.099 315.294 427.72 313.957 427.824 313.791C428.185 313.285 428.588 312.81 429.029 312.372C432.321 308.802 436.12 305.618 439.688 302.325C445.818 296.668 451.959 291.024 458.11 285.39C463.457 280.482 468.832 275.64 474.034 270.547C474.235 270.338 474.362 270.071 474.398 269.784C474.434 269.498 474.376 269.207 474.233 268.956C474.09 268.706 473.87 268.508 473.605 268.393C473.34 268.279 473.046 268.253 472.765 268.32C470.824 269.051 468.994 270.051 467.331 271.291C465.484 272.515 463.698 273.825 461.942 275.169C458.198 278.041 454.62 281.22 451.132 284.433C447.643 287.646 444.074 290.854 440.452 293.965C437.353 296.605 434.128 299.115 431.171 301.93C428.826 304.192 426.571 306.691 423.91 308.586C423.655 308.766 423.37 308.912 423.128 309.099C423.015 309.189 422.889 309.261 422.754 309.312C422.447 309.394 422.858 309.64 422.678 309.444C422.262 309.003 422.801 307.778 423.049 307.351C423.914 305.913 424.983 304.608 426.223 303.478C432.331 297.381 438.702 291.57 445.266 285.946C448.981 282.771 452.654 279.547 456.286 276.275C460.024 272.92 463.835 269.583 467.282 265.935C467.998 265.173 469.259 264.106 469.244 262.957C469.226 261.377 467.535 261.332 466.478 261.813C463.459 263.183 460.805 265.837 458.263 267.918C449.4 275.303 440.905 283.126 432.267 290.774C430.549 292.299 428.86 293.774 427.152 295.28C424.532 297.585 422.209 300.288 419.367 302.339C419.091 302.54 417.91 303.251 417.916 303.255C417.492 302.8 418.412 301.468 418.635 301.153C419.844 299.546 421.21 298.063 422.714 296.729C425.947 293.653 429.256 290.664 432.557 287.661C438.613 282.147 444.94 276.906 450.914 271.302C454.238 268.269 457.374 265.036 460.306 261.622C461.151 260.608 462.667 259.1 462.602 257.645C462.508 255.023 459.499 256.374 458.345 257.243C456.331 258.905 454.407 260.674 452.581 262.54C448.977 265.88 445.334 269.171 441.655 272.425C435.923 277.506 429.973 282.285 424.365 287.471C422.205 289.471 420.064 291.482 417.911 293.485C416.629 294.675 415.231 296.444 413.555 297.054C413.26 297.16 412.763 297.368 412.451 297.255C412.139 297.142 412.258 297.429 412.389 296.984C412.615 296.217 413.525 295.467 414.079 294.914C415.289 293.717 416.607 292.624 417.924 291.547C421.135 288.887 424.138 285.905 427.218 283.052C434.403 276.41 441.749 269.912 448.668 262.991C451.977 259.683 455.206 256.295 458.472 252.945C459.324 252.078 458.499 250.2 457.203 250.719C455.906 251.237 454.688 252.623 453.573 253.523C452.862 254.102 452.098 254.626 451.4 255.197C448.942 257.134 446.528 259.096 444.135 261.02C438.459 265.613 432.786 270.216 427.167 274.884C421.744 279.388 416.419 283.999 411.23 288.764C410.713 289.238 407.535 292.596 406.914 291.306C406.373 290.155 409.192 288.057 409.861 287.42C413.865 283.649 417.884 279.894 421.887 276.123C427.015 271.289 432.093 266.426 437.3 261.672C442.508 256.917 447.463 252.194 451.787 246.736C452.326 246.049 452.322 244.662 451.191 244.504C448.87 244.171 446.255 246.915 444.64 248.189C440.866 251.187 437.248 254.392 433.646 257.599C425.525 264.816 417.602 272.256 409.359 279.352L405.948 282.359C405.01 283.185 403.623 284.834 402.351 285.064C400.733 285.355 401.35 283.605 401.87 282.907C402.788 281.787 403.85 280.795 405.031 279.958C407.502 278.028 409.936 276.162 412.305 274.09C415.681 271.144 419.022 268.154 422.327 265.117C428.613 259.338 434.746 253.401 440.727 247.306C441.926 246.086 443.129 244.859 444.322 243.634C445.209 242.72 446.16 241.524 445.865 240.163C445.312 237.595 442.636 238.415 441.195 239.547C439.804 240.73 438.502 242.014 437.301 243.39C434.274 246.5 431.011 249.424 427.831 252.379C421.303 258.432 414.634 264.331 407.822 270.075C405.046 272.416 402.204 274.668 399.551 277.146C398.82 277.832 397.551 279.348 396.37 278.666C395.679 278.267 396.158 277.915 396.613 277.447C397.129 276.954 397.675 276.493 398.247 276.067C404.69 270.842 410.842 265.207 416.958 259.618C423.394 253.78 429.724 247.828 435.946 241.76C437.08 240.653 438.197 239.545 439.355 238.468C440.329 237.647 441.17 236.681 441.847 235.602C442.126 235.2 442.266 234.718 442.246 234.229C442.225 233.74 442.046 233.272 441.735 232.895C440.931 232.053 439.748 232.259 438.776 232.638C436.153 233.641 433.927 235.711 431.865 237.6C428.685 240.496 425.502 243.383 422.277 246.227L402.198 264C399.408 266.467 396.628 268.948 393.899 271.484C393.482 271.872 391.194 273.949 391.136 272.162C391.099 271.067 393.287 269.452 394.007 268.786C400.385 262.903 406.861 257.128 413.218 251.225C420.188 244.753 427.195 238.319 433.949 231.596C434.909 230.695 435.818 229.741 436.671 228.738C437.537 227.66 436.459 225.754 435.085 226.639C433.35 227.894 431.689 229.249 430.112 230.698C427.131 233.172 424.156 235.65 421.188 238.131C417.695 241.048 414.189 244.058 410.693 247.023C406.052 250.955 401.268 254.729 396.649 258.682C394.149 260.822 391.805 263.126 389.207 265.159C388.567 265.668 387.901 266.143 387.212 266.583C386.881 266.794 386.204 267.343 385.764 267.307C384.894 267.233 386.404 265.546 386.791 265.165C387.542 264.416 388.364 263.732 389.155 263.014C398.712 254.325 408.174 245.524 417.541 236.613C421.105 233.226 425.01 230.018 428.203 226.315C429.275 225.204 430.192 223.953 430.929 222.595C431.427 221.515 431.188 219.926 429.702 219.932C428.216 219.938 426.607 221.795 425.637 222.619C423.164 224.64 420.748 226.735 418.363 228.849C412.926 233.624 407.551 238.469 402.24 243.384C398.832 246.544 395.486 249.772 392.027 252.876C389.919 254.771 387.66 256.522 385.576 258.448C384.874 259.099 384.208 259.789 383.493 260.417C383.037 260.816 382.147 261.762 381.467 261.764C379.618 261.703 382.212 259.023 382.659 258.626C383.953 257.444 385.281 256.305 386.612 255.161C389.291 252.856 392.012 250.61 394.642 248.244C399.375 243.979 403.982 239.583 408.516 235.111C412.662 231.019 416.908 227.002 420.923 222.775C422.809 220.796 424.575 218.706 426.212 216.516C427.03 215.419 425.472 214.083 424.411 214.704C422.298 216.051 420.26 217.513 418.306 219.083C415.195 221.381 412.182 223.77 409.213 226.242C400.756 233.273 392.555 240.587 384.249 247.806C382.202 249.595 380.156 251.383 378.092 253.145C377.509 253.647 376.76 254.524 375.975 254.65C374.422 254.902 375.742 252.921 376.179 252.469C377.746 250.856 379.678 249.455 381.308 247.937L387.213 242.512C394.413 235.845 401.586 229.138 408.732 222.39C411.291 219.974 413.843 217.555 416.331 215.031C417.397 213.968 418.463 212.906 419.459 211.803C420.162 211.154 420.72 210.364 421.099 209.486C421.519 208.134 419.819 207.438 418.887 208.209C418.535 208.501 418.197 208.809 417.848 209.111L417.037 209.818C416.913 209.931 416.309 210.412 416.854 210.005C416.349 210.385 415.827 210.738 415.32 211.108C412.891 212.888 410.475 214.684 408.072 216.496C400.68 222.045 393.715 228.16 386.693 234.157C382.283 237.92 377.832 241.626 373.508 245.531C372.806 246.167 372.158 246.883 371.404 247.463C371.074 247.77 370.68 248.001 370.251 248.14C369.311 248.318 369.257 247.44 369.633 246.759C370.221 245.74 371.409 244.916 372.284 244.17C373.408 243.209 374.57 242.285 375.719 241.354C385.012 233.832 393.964 225.828 402.811 217.788C405.547 215.299 408.205 212.798 410.727 210.084C411.817 208.893 412.883 207.67 413.868 206.385C414.478 205.588 415.361 204.554 415.373 203.487C415.39 202.196 414.186 201.627 413.048 201.943C411.553 202.356 410.231 203.673 409.09 204.692C405.058 208.237 400.863 211.688 396.728 215.107C387.608 222.763 378.598 230.549 369.433 238.153C368.368 239.04 367.3 239.933 366.189 240.769C365.877 241.011 365.549 241.23 365.206 241.426C364.961 241.562 364.271 241.726 364.113 241.869L363.912 241.913L364.163 242.217C364.163 242.217 364.441 241.345 364.404 241.408C364.696 240.95 365.061 240.542 365.485 240.203C365.985 239.745 366.52 239.324 367.073 238.905C368.952 237.347 370.796 235.735 372.636 234.129C383.566 224.599 394.431 214.964 404.835 204.895C406.746 203.037 408.623 201.134 410.375 199.116C411.34 197.995 410.156 196.23 408.789 197.017C407.027 198.134 405.324 199.34 403.686 200.632C400.607 202.874 397.676 205.326 394.718 207.721C387.147 213.86 379.647 220.08 372.219 226.379C368.764 229.301 365.206 232.155 361.932 235.274C361.38 235.794 360.696 236.616 359.93 236.811C358.81 237.096 359.258 236.264 359.708 235.744C360.896 234.485 362.164 233.306 363.506 232.214C370.499 225.629 377.474 219.018 384.373 212.379C387.892 208.982 391.442 205.662 395.092 202.416C398.689 199.384 401.99 196.017 404.952 192.361C405.788 191.274 404.202 189.931 403.15 190.548C401.573 191.467 400.097 192.645 398.615 193.702C395.952 195.588 393.31 197.494 390.719 199.472C383.189 205.26 376.127 211.805 369.017 218.112C365.086 221.598 361.177 225.105 357.322 228.677C356.794 229.17 354.054 232.277 353.165 230.842C352.804 230.264 353.916 228.859 354.331 228.402C356.046 226.682 357.852 225.056 359.741 223.529C361.753 221.771 363.783 220.04 365.803 218.295C369.433 215.172 373.032 212.015 376.661 208.891C384.763 201.923 392.924 195.014 400.767 187.755C401.687 186.901 400.757 185.03 399.498 185.528C397.542 186.304 395.712 188.008 394.017 189.219C390.93 191.388 387.935 193.687 384.972 196.02C376.583 202.613 368.325 209.373 359.995 216.066C357.03 218.466 354.073 220.878 351.126 223.304C350.411 223.89 349.135 225.142 348.139 225.154C348.516 225.154 348.121 225.345 348.306 224.865C348.581 224.065 349.005 223.325 349.557 222.684C350.737 221.457 352.002 220.314 353.341 219.264C355.194 217.666 356.937 215.937 358.739 214.267C362.608 210.628 366.398 206.993 370.261 203.392C378.467 195.738 386.896 188.321 394.985 180.548C396.114 179.463 394.714 177.825 393.399 178.45C392.342 179.043 391.331 179.716 390.376 180.464C388.9 181.482 387.458 182.529 386.036 183.629C381.219 187.401 376.548 191.358 371.864 195.307C367.18 199.256 362.482 203.315 357.823 207.337L350.815 213.426C348.875 215.117 347.014 217.02 344.947 218.554C344.314 219.027 342.94 219.535 343.159 218.184C343.283 217.417 344.114 216.529 344.556 215.895C345.392 214.863 346.301 213.894 347.277 212.994C349.891 210.426 352.63 207.988 355.366 205.557C362.239 199.457 369.168 193.389 375.783 187.023C378.78 184.139 381.702 181.211 384.612 178.218C385.652 177.14 386.693 176.063 387.696 174.964C388.198 174.415 389.102 173.661 389.074 172.84C389.065 172.55 388.964 172.27 388.787 172.041C388.609 171.811 388.363 171.644 388.085 171.564C386.818 171.16 385.004 173.142 384.159 173.837C381.903 175.655 379.689 177.532 377.481 179.412C371.142 184.805 364.854 190.269 358.572 195.738C353.664 200.002 348.787 204.301 343.842 208.527C343.366 208.932 342.895 209.34 342.41 209.731C342.047 210.025 343.119 209.184 342.256 209.852C341.731 210.254 341.214 210.685 340.705 211.088C340.072 211.629 339.339 212.04 338.548 212.3C338.307 212.371 338.055 212.394 337.806 212.367C337.574 212.347 337.355 212.255 337.178 212.105C337.125 212.293 337.138 212.32 337.215 212.185C337.271 211.639 338.244 210.824 338.575 210.454C338.907 210.083 339.304 209.641 339.673 209.233C340.644 208.191 341.636 207.17 342.64 206.155C344.759 204.023 346.922 201.916 349.085 199.808C354.666 194.38 360.099 188.799 365.801 183.45C371.599 178.021 377.555 172.725 382.988 166.927C383.233 166.679 383.371 166.346 383.374 165.998C383.376 165.65 383.241 165.315 382.999 165.066C382.757 164.816 382.427 164.672 382.079 164.663C381.732 164.655 381.395 164.783 381.14 165.021C372.122 172.836 362.985 180.507 353.987 188.358C350.31 191.58 346.669 194.839 343.013 198.081C341.514 199.414 340.011 200.728 338.588 202.147C337.51 203.335 336.284 204.381 334.94 205.259C334.357 205.602 332.161 206.314 333.129 204.885C333.576 204.311 334.072 203.778 334.611 203.29C335.71 202.155 336.81 201.019 337.94 199.918C342.295 195.653 346.775 191.536 351.173 187.313C359.987 178.851 368.944 170.506 377.593 161.865C378.835 160.627 377.048 158.95 375.745 159.959C369.71 164.681 363.978 169.56 358.181 174.377C351.366 180.058 344.47 185.633 337.741 191.413L332.602 195.829C331.199 197.041 329.781 198.555 328.182 199.511C327.838 199.715 327.338 199.796 327.052 200.017L327.306 200.39C327.425 200.108 327.579 199.841 327.763 199.597C328.288 198.901 328.875 198.254 329.516 197.664C331.071 196.044 332.636 194.523 334.241 192.992C340.591 186.925 347.258 181.21 353.758 175.305C360.424 169.245 367.411 163.337 372.944 156.177C373.189 155.93 373.327 155.597 373.329 155.249C373.331 154.901 373.197 154.566 372.955 154.316C372.713 154.067 372.383 153.922 372.035 153.914C371.687 153.906 371.35 154.034 371.096 154.271C369.916 155.226 368.637 156.049 367.449 156.99C365.611 158.446 363.876 160.045 362.086 161.563C358.083 164.957 354.043 168.313 350 171.659C345.957 175.005 342.038 178.196 338.114 181.51C334.436 184.572 330.599 187.533 327.119 190.818C326.202 191.681 322.783 195.673 321.303 194.449C319.913 193.303 324.24 189.827 324.984 189.191C331.927 183.215 338.461 176.701 345.145 170.433C352.671 163.376 360.452 156.617 367.859 149.416C368.086 149.189 368.224 148.888 368.246 148.567C368.268 148.247 368.174 147.93 367.981 147.674C367.787 147.418 367.508 147.241 367.194 147.176C366.88 147.11 366.553 147.16 366.273 147.317C364.513 148.248 362.894 149.805 361.316 151C358.723 152.967 356.2 155.001 353.697 157.072C345.868 163.568 338.137 170.196 330.392 176.792C326.648 179.983 322.935 183.209 319.121 186.318C318.043 187.197 314.45 189.779 314.661 186.469C314.782 184.635 317.003 183.341 318.262 182.264C325.868 175.748 333.162 168.876 340.541 162.145C344.567 158.479 348.529 154.751 352.51 151.033C355.512 148.227 358.712 145.586 361.438 142.504C361.683 142.256 361.821 141.923 361.823 141.575C361.825 141.227 361.691 140.892 361.449 140.643C361.207 140.393 360.877 140.249 360.529 140.24C360.182 140.232 359.845 140.36 359.59 140.598C351.641 146.764 343.977 153.306 336.209 159.695L322.312 171.128L315.773 176.506C313.88 178.057 311.984 179.949 309.558 180.595C309.24 180.699 308.972 180.919 308.808 181.212C308.645 181.505 308.598 181.849 308.677 182.174C308.756 182.5 308.955 182.784 309.234 182.968C309.513 183.153 309.852 183.225 310.182 183.171ZM394.417 156.736C399.617 163.355 405.441 169.562 411 175.892C422.541 189.061 434.11 202.203 445.708 215.321C460.03 231.554 474.356 247.785 488.687 264.013C502.532 279.692 516.352 295.373 530.148 311.057C535.791 317.475 541.425 323.897 547.053 330.323C549.573 333.213 552.183 336.062 554.79 338.902C557.877 342.261 561.235 345.584 563.821 349.376C564.426 350.271 565.371 351.421 565.5 352.518C565.557 353.013 565.643 352.937 565.067 352.89C564.672 352.791 564.294 352.635 563.945 352.426C562.425 351.136 561.034 349.701 559.793 348.141C556.69 344.621 553.793 340.919 550.7 337.396C545.753 331.762 540.743 326.177 535.782 320.552C522.526 305.527 509.301 290.48 496.105 275.41C481.064 258.264 466.02 241.118 450.973 223.974C437.154 208.253 423.317 192.562 409.463 176.901C404.055 170.792 398.61 164.684 393.128 158.577C387.848 152.692 382.693 146.502 376.831 141.189C374.292 138.884 371.513 136.574 368.361 135.157C365.407 133.887 362.187 133.362 358.982 133.627L360.232 136.656C362.449 134.471 364.916 132.069 367.719 130.667C368.01 130.497 368.323 130.37 368.649 130.289C368.968 130.23 368.48 130.133 369.132 130.425C371.093 131.363 372.898 132.597 374.483 134.085C377.27 136.568 379.895 139.227 382.342 142.046C384.281 144.289 385.848 146.755 387.654 149.081C389.092 150.943 391.135 152.903 393.702 152.506C396.682 152.045 397.618 149.146 396.585 146.569C395.551 143.992 393.41 141.665 391.55 139.576C386.885 134.366 382.205 129.096 376.63 124.795C371.316 120.695 365.158 118.868 358.858 121.901C356.313 123.244 353.948 124.903 351.819 126.84C348.936 129.278 346.109 131.782 343.315 134.314C337.365 139.649 331.543 145.123 325.851 150.736C319.524 156.984 313.368 163.396 307.381 169.975C305.041 172.576 301.742 175.78 302.778 179.659C303.679 183.032 307.192 184.23 310.33 183.625C312.568 183.189 311.646 179.779 309.419 180.213C308.339 180.429 307.023 180.256 306.406 179.237C305.607 177.936 306.628 176.328 307.424 175.268C309.483 172.514 312.106 170.06 314.395 167.547C319.211 162.396 324.135 157.35 329.167 152.407C334.198 147.464 339.346 142.62 344.611 137.873C347.207 135.534 349.827 133.221 352.471 130.933C354.449 129.11 356.572 127.451 358.819 125.973C361.029 124.477 363.662 123.734 366.325 123.855C369.375 124.114 372.157 125.795 374.523 127.631C379.669 131.617 384.07 136.499 388.376 141.36C390.015 143.066 391.489 144.923 392.78 146.906C393.119 147.479 394.105 148.963 393 149.064C392.226 149.128 391.325 148.004 390.893 147.52C389.34 145.784 388.167 143.681 386.715 141.844C384.635 139.237 382.391 136.766 379.994 134.448C377.322 131.823 374.436 128.957 370.948 127.396C368.907 126.478 367.37 126.774 365.456 127.884C362.632 129.641 360.038 131.746 357.735 134.148C356.669 135.211 357.409 137.266 358.985 137.177C362.417 136.858 365.859 137.649 368.807 139.433C371.982 141.511 374.898 143.961 377.493 146.731C380.167 149.441 382.686 152.246 385.228 155.097C390.267 160.664 395.279 166.256 400.261 171.874C413.633 186.91 426.965 202.005 440.258 217.158C455.455 234.439 470.635 251.736 485.797 269.048C499.742 284.93 513.688 300.813 527.637 316.697C533.033 322.827 538.45 328.959 543.889 335.091C546.297 337.799 548.698 340.502 551.013 343.282C554.119 347.014 557.131 351.009 560.706 354.307C562.336 355.835 564.664 357.07 566.93 356.062C569.78 354.797 569.133 351.579 567.927 349.373C565.703 345.303 562.205 341.874 559.162 338.439C553.638 332.347 548.167 326.212 542.748 320.035C529.583 305.028 516.391 290.043 503.173 275.078C488.541 258.492 473.907 241.91 459.27 225.332C446.504 210.88 433.74 196.407 420.977 181.913C413.552 173.431 406.045 165.019 398.756 156.431C398.144 155.708 397.527 154.991 396.941 154.25C395.535 152.465 393.032 154.972 394.423 156.74L394.417 156.736Z" fill="#402B1D"/>
<path d="M694.025 277.197C697.926 272.906 702.092 268.766 706.256 264.718C707.7 263.304 709.865 262.137 710.355 260.012C710.698 258.532 710.148 256.931 708.472 256.743C706.796 256.556 705.622 257.908 704.636 258.934C702.321 261.347 700.291 264.051 698.087 266.563C696.389 268.503 694.53 270.794 692.134 271.869C688.024 273.691 684.672 269.239 682.103 266.623C679.534 264.007 677.282 261.322 674.894 258.668C673.728 257.349 671.003 255.163 672.34 253.066C673.156 251.783 675.253 251.14 676.514 250.391C678.451 249.219 679.999 247.501 680.966 245.453C681.932 243.405 682.273 241.118 681.947 238.878C681.305 233.91 677.409 229.907 672.872 228.118C669.017 226.597 663.116 226.27 660.631 230.356C658.324 234.15 661.164 238.139 663.997 240.689C667.072 243.43 673.088 246.576 676.065 241.826C678.279 238.296 675.678 233.791 672.349 232.129C663.379 227.672 655.488 237.421 658.644 245.913C660.238 250.189 664.507 253.401 669.14 253.282C674.243 253.149 678.491 249.099 681.02 244.98C687.149 235.018 684.906 222.363 682.38 211.634C681.316 206.858 679.742 202.21 677.684 197.772C676.801 195.937 675.232 194.577 673.862 193.048C671.746 190.764 669.628 188.484 667.507 186.208C666.106 184.703 663.751 180.876 661.541 180.582C659.645 180.326 657.182 180.994 655.241 181.048C652.657 181.169 650.068 181.026 647.513 180.621C640.096 179.293 634.688 176.371 629.176 171.612C617.008 161.088 605.783 149.279 595.244 137.137C589.726 130.913 584.579 124.369 579.829 117.54C575.215 110.975 572.061 103.495 570.58 95.604C568.421 84.1383 567.842 72.519 562.847 61.7733C558.012 51.4309 550.755 42.4253 542.462 34.6924C524.42 17.8905 501.511 6.32528 478.063 -0.810463C465.977 -4.39905 453.641 -7.09036 441.156 -8.86248C434.831 -9.88803 428.425 -10.3315 422.018 -10.1874C417.38 -10.004 412.282 -8.92039 410.922 -3.82373C409.685 0.814869 413.285 3.90853 417.639 4.33301C423.874 4.93747 430.31 3.82921 436.585 4.1041C449.116 4.62681 464.081 9.29016 467.884 22.8125C470.867 33.4029 466.027 44.528 465.329 55.1244C464.72 65.9568 467.067 76.7467 472.119 86.3381C477.772 97.0252 486.07 106.08 496.221 112.637C506.051 119.101 517.907 124.319 529.719 125.551C540.239 126.64 550.258 122.852 555.068 112.926C560.025 102.699 558.721 90.3928 556.024 79.7575C553.139 68.4017 547.858 57.1639 539.21 49.0747C531.603 41.939 521.133 37.0186 510.643 36.2982C500.515 35.6025 489.97 39.4152 483.873 47.8427C477.63 56.4796 478.115 68.2624 481.978 77.7922C491.494 101.267 518.094 107.034 537.909 118.474C544.336 122.185 550.578 126.216 556.71 130.394C561.737 133.817 568.67 137.157 571.37 142.869C573.258 146.853 573.996 151.307 577.014 154.668C580.872 158.969 586.714 161.561 591.774 164.113C597.342 166.917 602.726 169.807 606.935 174.545C610.068 178.115 613.003 181.866 615.927 185.609C620.189 191.023 624.516 196.441 628.403 202.142C632.291 207.843 635.489 213.692 638.808 219.594C644.291 229.337 650.165 239.315 657.269 247.989L658.214 245.875C655.148 245.917 652.071 245.357 648.993 245.35C648.641 245.393 648.32 245.571 648.098 245.848C647.876 246.124 647.77 246.476 647.804 246.828C648.033 251.268 648.348 255.717 648.75 260.178C648.955 262.478 648.517 269.852 651.57 270.44C652.997 270.71 654.834 270.285 656.258 270.184C659.219 269.973 662.181 269.762 665.15 269.596C668.285 269.418 671.426 269.259 674.556 269.263C676.025 269.272 678.947 268.912 680.269 269.742L680.068 267.856C678.928 269.597 674.654 269.529 672.861 269.719C669.17 270.105 665.445 270.304 661.763 270.804C658.668 271.232 652.326 271.858 652.247 276.058C652.19 278.869 652.843 281.83 653.227 284.603C653.997 290.19 654.842 295.763 655.704 301.336C660.871 334.888 666.552 368.35 672.749 401.724C676.469 421.701 680.691 441.548 684.703 461.484C685.943 467.626 687.166 473.772 688.373 479.922C688.887 482.563 689.396 485.203 689.899 487.842C690.283 489.876 690.403 492.614 691.949 494.186C694.45 496.746 697.16 494.098 697.954 491.461C698.297 490.1 698.473 488.703 698.479 487.301C699.144 473.715 698.552 459.999 698.271 446.413C697.786 422.55 697.159 398.696 696.39 374.849C695.472 344.114 694.919 313.313 694.396 282.546L694.354 280.24L692.185 281.429C695.218 284.372 698.881 282.888 701.402 280.089C704.647 276.5 706.95 272.075 710.075 268.316C710.654 267.618 711.239 266.924 711.852 266.254C712.099 265.986 713.325 264.588 713.182 265.025C712.866 265.934 711.657 266.897 711.042 267.599C708.745 270.199 706.389 272.757 704.071 275.321C701.951 277.629 698.909 280.068 698.73 283.396C698.511 287.33 702.258 289.779 705.648 287.692C707.155 286.636 708.373 285.219 709.192 283.571C710.709 280.736 712.398 277.995 714.248 275.365C714.651 274.826 716.942 271.526 717.453 271.686C716.878 271.506 714.74 274.164 714.534 274.406C712.384 276.882 710.255 279.394 708.186 281.933C706.236 284.323 701.685 289.523 705.738 292.266C710.137 295.268 713.044 289.579 714.61 286.548C716.52 283.157 718.882 280.041 721.632 277.287C722.039 276.984 722.409 276.635 722.736 276.246C722.612 276.46 721.471 277.262 721.128 277.667C720.645 278.228 720.15 278.781 719.661 279.338C717.249 282.065 714.721 284.615 712.087 287.131C709.354 289.748 706.874 294.072 710.164 297.339C713.654 300.797 717.08 296.373 718.913 293.589C720.565 291.077 722.241 288.58 723.899 286.072C724.684 284.709 725.578 283.413 726.572 282.195C728.422 280.209 726.338 283.369 725.818 284.008C722.157 288.523 716.556 291.607 714.994 297.534C714.225 300.447 715.705 304.137 719.406 303.254C721.353 302.784 722.074 300.548 723.083 299.033C724.761 296.504 726.599 294.074 728.455 291.672C729.242 290.658 730.066 289.666 730.821 288.634C731.027 288.35 732.731 285.935 732.038 287.44C730.899 289.92 727.842 292.3 725.918 294.21C723.202 296.912 717.816 301.438 719.985 305.937C721.902 309.871 725.755 308.841 727.671 305.769C729.587 302.696 731.443 299.497 733.646 296.523C734.51 295.345 735.571 293.305 736.711 292.521C737.363 292.058 737.775 291.591 737.544 292.616C737.398 293.245 736.475 294.046 736.067 294.549C732.722 298.616 727.327 301.635 724.995 306.472C723.712 309.087 724.986 313.061 728.436 313.048C731.886 313.035 734.412 308.108 736.035 305.689C737.681 303.054 739.523 300.547 741.546 298.19L742.389 297.267C743.534 296.024 742.424 297.002 742.446 296.965C741.308 298.653 739.984 300.207 738.497 301.598C735.285 304.61 729.967 308.235 729.414 313.051C729.025 316.467 732.486 319.54 735.813 318.507C736.48 318.297 737.094 317.945 737.612 317.475C738.13 317.005 738.541 316.429 738.817 315.786C739.932 313.556 741.201 311.407 742.614 309.353C743.931 307.421 745.411 305.598 746.678 303.636C747.015 303.051 748.269 301.358 747.494 303.034C746.881 304.358 745.19 305.748 744.208 306.825C742.208 309.027 739.885 310.991 738.234 313.444C737.119 315.099 735.074 317.09 735.039 319.21C734.989 322.402 739.009 325 741.689 322.839C742.595 322.112 743.093 320.654 743.704 319.682C744.605 318.238 745.543 316.822 746.518 315.433C748.438 312.673 750.611 310.128 752.639 307.456C753.604 306.192 753.058 306.557 752.279 307.399C751.499 308.241 750.803 309.534 749.956 310.479C748.054 312.612 745.862 314.45 743.903 316.524C741.533 319.032 738.138 324.028 741.884 326.912C745.944 330.036 749.124 323.339 750.986 320.781C752.709 318.42 754.498 316.148 756.161 313.776C756.77 313.039 757.281 312.226 757.683 311.358C757.985 310.442 757.612 311.191 757.199 311.615C756.786 312.04 756.349 312.652 755.926 313.138C752.816 316.653 748.205 319.822 746.381 324.231C745.355 326.718 745.137 332.188 748.682 332.766C751.221 333.184 753.955 330.886 755.258 328.92C757.178 325.942 759.121 322.969 761.125 320.049C761.793 319.067 762.473 317.714 763.373 316.925C762.662 317.547 760.923 320.545 759.77 321.859C757.325 324.643 754.307 326.969 752.197 330.072C750.431 332.652 750.922 336.3 754.114 337.589C758.344 339.302 761.095 332.289 762.828 329.607C763.617 328.384 764.4 327.159 765.246 325.969C765.776 325.226 766.699 323.452 767.603 322.917C768.507 322.381 767.087 323.97 766.877 324.175C766.276 324.81 765.714 325.434 765.156 326.11C762.203 329.674 758.044 333.381 756.745 337.967C755.974 340.752 758.658 344.416 761.725 342.688C763.647 341.608 764.889 338.398 766.128 336.63C767.74 334.331 769.327 332.017 770.83 329.646C771.233 328.947 771.758 328.328 772.208 327.664C773.198 326.197 772.299 327.624 771.87 328.25C770.938 329.561 769.883 330.781 768.72 331.893C765.874 334.805 761.833 337.8 761.146 342.11C760.693 345.012 763.239 349.091 766.577 348.141C768.582 347.57 769.197 345.458 769.937 343.771C771.12 341.04 772.909 338.624 774.551 336.157C775.145 335.095 775.836 334.089 776.612 333.152C779.239 330.431 776.46 334.012 775.937 334.7C774.024 337.186 771.849 339.531 769.876 341.991C767.903 344.451 764.153 348.914 768.34 351.499C771.305 353.328 773.469 350.03 774.947 347.948C777.035 345 778.826 341.796 780.993 338.928C781.339 338.473 782.109 337.198 782.695 337.125C783.281 337.053 782.71 337.361 782.514 337.759C782.306 338.133 782.074 338.492 781.818 338.834C779.829 341.65 777.625 344.308 775.226 346.783C773.642 348.453 770.999 349.897 770.822 352.438C770.778 353.281 770.944 354.121 771.305 354.883C771.666 355.646 772.212 356.306 772.892 356.804C776.322 359.045 779.314 353.296 780.95 351.145C782.152 349.557 783.32 347.94 784.547 346.367L786.725 343.479C787.156 342.989 787.552 342.469 787.908 341.922C788.005 342.423 787.172 343.083 786.916 343.38C783.531 347.299 779.556 350.541 776.812 354.99C775.838 356.575 775.308 357.871 776.284 359.618C776.989 360.864 778.512 362.188 780.02 362.186C781.916 362.182 783.12 360.444 784.102 359.064C786.025 356.357 787.736 353.494 789.581 350.733C789.738 350.463 792.807 346.06 793.053 346.302C793.298 346.544 790.995 349.024 790.684 349.39C788.302 352.209 786.14 355.156 783.563 357.864C782.366 359.111 780.399 360.442 780.411 362.395C780.394 364.063 781.939 365.551 783.434 366.096C784.085 366.307 784.783 366.329 785.447 366.16C786.111 365.991 786.714 365.637 787.186 365.14C789.235 363.244 790.92 360.399 792.613 358.206C794.218 356.31 795.689 354.305 797.015 352.206C798.164 350.218 796.313 352.639 795.895 353.103C795.045 354.038 794.158 354.936 793.317 355.885C791.498 357.958 789.788 360.124 788.196 362.376C787.129 363.874 784.936 366.367 785.447 368.34C785.611 368.978 785.999 369.534 786.54 369.908C787.081 370.282 787.739 370.448 788.393 370.376C790.664 370.244 791.958 368.147 793.194 366.529C795.166 363.941 797.302 361.475 799.236 358.85C799.813 358.148 800.336 357.404 800.799 356.622C800.773 356.666 801.576 355.594 801.178 355.457C801.178 355.457 800.452 356.715 800.363 356.941C798.795 359.803 796.599 361.212 794.028 363.083C792.16 364.446 790.272 366.033 789.688 368.38C788.789 371.998 791.292 375.918 795.32 374.904C799.028 373.966 801.137 369.688 802.868 366.677C803.231 366.047 805.915 360.557 806.387 360.654C807.257 360.829 805.313 362.601 805.159 362.781C804.26 363.707 803.416 364.685 802.63 365.709C800.525 368.471 794.132 374.336 796.915 378.351C799.789 382.527 804.218 375.494 805.825 373.712C807.813 371.503 810.063 369.128 811.286 366.343C811.927 364.885 811.45 365.885 810.968 366.386C810.347 367.026 809.83 367.777 809.262 368.456C808.045 369.926 806.763 371.334 805.524 372.783C803.36 375.326 798.451 380.681 802.277 383.905C805.915 386.962 809.484 383.132 811.26 380.172C812.888 377.454 814.611 374.875 816.416 372.242C816.795 371.752 817.123 371.224 817.393 370.666C817.255 370.587 816.277 371.7 816.17 371.798C814.863 373.09 813.637 374.531 812.452 375.902C809.833 378.987 806.409 382.842 807.394 387.245C807.517 388.047 807.886 388.791 808.451 389.372C809.016 389.954 809.748 390.345 810.546 390.491C813.11 390.982 814.239 389.2 815.492 387.306C817.25 384.654 819.052 382.011 820.712 379.295L822.648 376.159C821.975 375.527 819.866 378.076 819.512 378.501C816.938 381.437 812.283 386.074 812.074 390.266C811.965 392.502 814.824 395.965 817.247 394.67C819.061 393.704 820.706 389.955 821.78 388.268L824.531 384.042C824.781 383.607 825.08 383.235 825.326 382.823C825.413 382.672 826.689 380.086 826.884 380.778C827.08 381.469 824.319 383.886 823.984 384.263C822.923 385.463 822.034 386.77 821.072 388.044C819.75 389.798 817.6 391.694 816.99 393.91C816.123 397.067 820.381 399.92 822.783 397.514C823.382 396.76 823.854 395.913 824.181 395.007C824.891 393.636 825.678 392.306 826.539 391.024C827.354 389.758 828.2 388.509 829.084 387.283C829.429 386.802 830.516 385.819 830.6 385.281C830.371 385.987 829.947 386.615 829.378 387.092C826.705 390.155 820.346 394.874 821.681 399.655C822.781 403.554 827.812 403.849 830.491 401.386C831.803 400.188 832.521 398.363 833.273 396.8C833.757 395.787 834.225 394.774 834.759 393.79C835.032 393.318 835.49 392.727 835.742 392.218C835.96 391.923 836.211 391.654 836.49 391.416C836.312 391.382 836.127 391.417 835.973 391.512C835.818 391.608 835.705 391.758 835.656 391.933C834.359 393.424 833.226 395.111 831.941 396.626C830.236 398.621 827.842 399.923 827.654 402.818C827.408 406.871 831.433 407.517 834.362 405.97C838.505 403.814 841.575 399.714 843.022 395.322C846.728 384.188 840.024 373.832 832.84 365.95C829.206 361.957 825.604 357.939 821.971 353.945C811.593 342.544 801.181 331.174 790.734 319.835C764.762 291.561 738.744 263.328 712.68 235.135L695.733 216.784C693.235 214.078 690.735 211.373 688.23 208.669C687.199 207.553 685.974 206.527 685.059 205.311C683.563 203.39 683.255 199.89 682.562 197.434C675.543 172.406 668.131 147.42 663.205 121.871C660.907 109.965 659.226 97.3655 661.766 85.349C664.387 72.976 673.096 63.2295 679.806 52.8988C691.028 35.6086 695.29 14.2994 688.154 -5.43449C681.019 -25.1684 661.354 -43.0494 639.28 -41.2034C617.205 -39.3574 602.187 -17.5805 599.547 2.81937C598.881 7.96372 598.542 13.557 599.725 18.6452C600.989 24.0733 604.877 28.0465 608.375 32.1722C616.279 41.4929 621.76 54.9521 634.276 59.0567C638.889 60.5472 643.809 60.8259 648.564 59.8659C653.32 58.906 657.75 56.7398 661.431 53.5749C669.123 46.8398 673.661 36.9335 675.585 27.0281C679.453 7.11119 670.707 -18.436 649.553 -24.482C644.819 -25.8886 639.798 -26.0326 634.988 -24.8999C630.177 -23.7671 625.744 -21.3968 622.127 -18.0237C614.412 -10.7824 611.126 -0.303805 610.943 10.0531C610.844 15.869 612.321 21.5375 612.291 27.3347C612.274 29.0031 612.291 31.077 611.298 32.4922C610.578 33.2995 609.77 34.0232 608.888 34.6498C606.515 36.6859 603.604 38.6804 600.319 38.2186C598.672 37.9872 597.154 37.2002 596.016 35.9877C594.878 34.7752 594.187 33.2098 594.059 31.55C593.882 28.7377 596.766 22.508 600.501 25.3103C602.719 26.9681 602.1 31.4775 602.517 33.9331C602.923 36.5268 603.699 39.0484 604.82 41.421C607.401 46.7289 611.73 51.0991 615.497 55.5727C619.469 60.2993 623.369 65.1518 626.987 70.2023C634.6 80.9407 639.684 92.6354 643.357 105.236C646.848 117.236 649.141 129.554 650.204 142.011C651.262 154.368 651.549 166.725 652.393 179.076C652.502 180.817 655.177 180.507 655.069 178.792C654.241 166.618 653.955 154.404 652.927 142.241C651.915 130.095 649.751 118.074 646.464 106.341C643.202 94.7252 638.932 83.5345 632.368 73.3594C625.803 63.1843 617.465 54.5865 610.222 44.9764C606.527 40.0743 605.266 35.0921 604.704 29.071C604.367 25.3022 602.078 21.1864 597.617 22.1517C593.8 22.9599 591.553 27.0406 591.394 30.6661C591.323 32.7749 591.925 34.8506 593.112 36.5922C594.3 38.3338 596.011 39.6508 597.999 40.3521C602.258 41.897 606.48 40.0552 609.788 37.3424C611.135 36.2573 613.009 34.9562 613.935 33.4525C615.039 31.6567 614.978 29.0205 614.964 26.9988C614.945 21.5339 613.589 16.1783 613.605 10.709C613.514 4.59478 614.794 -1.46399 617.35 -7.02186C621.966 -16.5982 631.282 -23.4776 642.17 -23.0394C654.508 -22.5445 664.379 -13.9759 669.378 -3.13559C673.933 6.83074 675.024 18.0397 672.479 28.7083C670.108 38.7499 664.595 49.4444 655.266 54.6049C650.413 57.2186 644.852 58.2048 639.402 57.4183C632.751 56.4897 627.575 52.7298 623.298 47.7182C619.142 42.8018 615.993 37.1575 611.963 32.1965C608.002 27.3339 603.139 22.9904 602.068 16.5162C600.296 5.80235 603.23 -6.37305 608.296 -15.8153C613.546 -25.6045 622.435 -34.1396 633.225 -37.391C655.955 -44.2453 678.384 -24.6675 685.671 -4.48523C689.064 5.08411 689.928 15.3717 688.18 25.3808C686.259 36.6727 681.113 46.4713 674.663 55.7858C668.387 64.8568 661.481 73.9164 659.148 84.9365C656.815 95.9565 658.013 107.723 659.942 118.746C664.212 142.833 671.152 166.33 677.712 189.876L680.087 198.37C680.789 200.882 681.167 204.523 682.681 206.631C684.486 209.133 687.116 211.339 689.221 213.612L704.686 230.352C716.87 243.539 729.053 256.726 741.236 269.912C765.032 295.716 788.79 321.559 812.508 347.441C816.528 351.843 820.54 356.248 824.545 360.658C829.831 366.563 836.211 372.168 839.283 379.571C841.498 384.961 842.309 390.724 839.823 396.177C838.726 398.631 837.038 400.776 834.912 402.419C834.479 402.745 834.026 403.044 833.557 403.315L832.433 403.883L830.533 402.14C830.308 401.079 833.37 399.054 834.06 398.236C835.591 396.426 840 392.503 838.64 389.796C836.978 386.479 833.687 390.293 832.717 391.973C831.555 393.987 830.809 396.25 829.559 398.213C828.668 399.611 824.166 402.156 824.229 398.114C824.246 396.446 826.217 394.513 827.263 393.296C828.948 391.349 835.397 386.649 833.415 383.424C830.691 378.914 826.137 386.773 825.013 388.473C823.71 390.439 822.719 392.62 821.45 394.572L820.927 395.579C819.842 394.857 819.582 394.189 820.148 393.577C820.474 392.975 820.896 392.431 821.397 391.965C822.57 390.469 823.675 388.934 824.848 387.438C826.38 385.437 832.379 380.56 828.436 377.973C827.173 377.144 825.784 377.575 824.803 378.594C824.059 379.534 823.424 380.555 822.911 381.638C821.934 383.331 820.779 384.938 819.711 386.587C819.022 387.649 815.693 394.126 814.766 390.696C814.278 388.887 817.23 385.616 818.181 384.361C819.741 382.257 821.459 380.276 823.32 378.434C824.38 377.411 825.369 376.177 824.694 374.604C822.735 369.916 818.914 377.057 818.029 378.459C816.413 381.025 814.726 383.541 813.057 386.068C812.46 386.973 811.735 388.837 810.017 386.981C809.71 386.644 809.889 384.969 809.934 384.718C810.324 383.094 811.092 381.585 812.174 380.314C813.675 378.355 815.289 376.485 817.007 374.714C818.168 373.488 820.574 372.092 820.104 370.076C819.912 369.387 819.458 368.801 818.839 368.444C818.22 368.087 817.486 367.986 816.794 368.164C814.842 368.715 813.49 371.551 812.451 373.074C811 375.181 809.833 377.435 808.434 379.581C807.607 380.84 803.127 384.697 803.799 379.732C804 378.238 806.274 375.968 807.192 374.87C809.19 372.483 811.238 370.125 813.264 367.763C814.363 366.484 814.978 365.085 813.682 363.658C810.346 359.978 807.299 367.809 805.865 369.523C804.81 370.785 803.684 371.981 802.598 373.208C802.284 373.564 800.096 376.672 799.708 376.574C797.328 376.039 804.116 368.069 804.685 367.315C806.244 365.253 811.439 361.566 809.079 358.559C806.719 355.552 803.906 359.423 802.781 361.357C801.818 363.025 795.153 376.31 792.327 371.179C790.664 368.155 795.175 365.507 797.117 364.145C799.059 362.783 800.983 361.293 802.196 359.149C803.159 357.481 805.562 352.593 801.374 353.028C799.994 353.17 799.072 354.375 798.327 355.405C796.528 357.882 794.672 360.284 792.749 362.672C791.84 363.825 791.007 365.022 790.109 366.098C789.681 366.623 789.099 367.847 788.266 367.115C788.197 367.075 790.667 363.333 789.608 364.92C791.305 362.413 793.158 360.017 795.158 357.745C796.618 356.071 801.584 352.52 800.11 349.806C798.25 346.383 794.827 350.599 793.717 352.173C792.181 354.34 790.549 356.427 788.914 358.52C788.018 359.68 787.093 361.37 786.007 362.278C785.424 362.781 784.978 364.612 783.624 363.084C782.942 362.321 783.973 361.188 784.441 360.711C786.69 358.45 788.798 356.052 790.754 353.533C792.271 351.573 794.53 349.663 795.483 347.345C795.961 346.169 795.97 344.731 794.812 343.937C793.292 342.899 791.434 344.159 790.362 345.202C788.394 347.161 786.958 349.764 785.458 352.086C784.601 353.412 781.532 359.888 779.408 359.156C776.683 358.187 781.808 352.605 782.44 351.887C784.364 349.701 786.423 347.643 788.461 345.564C790.041 343.959 792.22 339.445 788.254 339.017C786.477 338.831 785.526 340.564 784.607 341.778C783.408 343.377 782.203 344.971 781.004 346.569C779.637 348.415 778.263 350.256 776.831 352.056C776.025 353.075 775.814 353.817 774.524 353.744C771.649 353.603 776.08 349.7 776.909 348.845C779.027 346.628 781.09 344.228 783.008 341.82C783.972 340.615 785.474 338.797 785.737 337.195C786.229 334.123 782.973 333.611 780.99 335.117C778.621 336.913 777.122 340.032 775.509 342.449C774.428 344.074 773.342 345.695 772.194 347.247C771.925 347.612 771.347 348.713 770.884 348.907C769.385 349.501 769.043 347.844 769.501 346.775C770.004 345.928 770.622 345.155 771.338 344.479C773.171 342.29 774.774 339.978 776.712 337.883C778.035 336.448 779.793 334.535 780.299 332.57C781.417 328.182 776.435 329.324 774.587 331.437C773.127 333.302 771.796 335.264 770.602 337.309C769.946 338.314 769.299 339.334 768.692 340.401C768.034 341.54 767.659 343.219 766.901 344.242C765.146 346.585 763.718 344.082 763.898 342.508C764.158 341.188 764.761 339.958 765.646 338.944C767.06 337.076 768.912 335.536 770.551 333.873C772.297 332.095 775.048 329.681 775.339 327.03C775.63 324.379 773.068 323.462 771.176 324.912C769.94 325.877 769.18 327.309 768.372 328.579C766.805 331.031 765.088 333.454 763.41 335.867C762.658 336.951 761.957 338.384 761.086 339.341C759.735 340.767 758.921 339.769 759.476 338.227C760.382 335.67 762.477 333.465 764.194 331.419C765.494 329.863 766.759 328.252 768.109 326.741C769.106 325.638 770.565 324.635 770.932 323.085C771.644 320.14 768.314 318.914 766.239 320.535C761.996 323.908 760.307 329.896 756.834 333.924C756.351 334.484 756.189 335.229 755.219 335.139C754.42 335.072 753.697 333.422 753.802 332.719C754.012 332.119 754.35 331.573 754.793 331.118C756.094 329.499 757.499 327.967 758.999 326.532C761.566 323.928 765.195 320.805 766.34 317.27C767.297 314.307 763.609 313.294 761.671 314.911C759.733 316.527 758.335 319.47 756.968 321.533C755.486 323.766 754.136 326.787 752.19 328.633C751.79 329.007 750.29 330.154 749.691 330.06C748.261 329.839 748.353 327.459 748.532 326.496C749.113 323.4 751.991 321.144 754.087 319.023C756.063 317.051 760.993 313.386 760.23 310.093C759.468 306.8 756.288 308.724 755.164 310.482C753.629 312.894 751.873 315.152 750.183 317.457C749.35 318.595 748.52 319.727 747.693 320.869C747.267 321.462 745.722 324.471 744.982 324.564L743.961 323.924C742.805 323.654 742.586 323.027 743.304 322.043C743.592 321.373 743.958 320.739 744.394 320.156C745.082 319.259 745.835 318.415 746.648 317.631C748.729 315.476 751.078 313.527 752.973 311.172C754.207 309.645 757.429 305.095 754.075 303.838C752.816 303.363 751.834 304.222 751.086 305.141C749.257 307.366 747.473 309.658 745.771 311.981C744.07 314.305 742.517 316.907 740.86 319.357C740.718 319.602 740.03 320.925 739.484 320.97C735.071 321.359 738.614 317.951 738.946 317.304C739.703 315.944 740.607 314.67 741.641 313.506C743.49 311.319 745.625 309.363 747.542 307.231C748.846 305.786 750.698 304.145 750.705 302.043C750.728 298.348 746.968 298.694 745.278 300.982C742.514 304.616 739.966 308.409 737.647 312.342C737.2 313.116 736.885 314.025 736.402 314.761C735.555 316.067 733.818 316.625 732.628 315.057C730.619 312.488 735.052 308.494 736.66 306.973C739.326 304.443 745.654 300.419 745.403 296.18C745.203 292.624 741.734 294.238 740.23 295.769C736.643 299.428 734.316 303.966 731.093 307.895C730.601 308.5 729.674 309.945 728.91 310.108C725.728 310.788 727.652 307.05 728.268 306.23C729.964 303.988 732.202 302.318 734.249 300.412C736.295 298.506 742.131 293.578 740.489 290.155C738.138 285.231 733.127 292.75 731.856 294.4C730.074 296.753 728.416 299.199 726.889 301.726C726.406 302.563 725.436 305.157 724.601 305.515C720.677 307.176 722.89 301.456 723.56 300.441C726.601 295.871 732.016 293.049 734.742 288.154C736.157 285.615 734.322 281.946 731.236 283.839C729.551 284.871 728.344 287.396 727.155 288.933C725.399 291.192 723.661 293.461 722.017 295.8C721.306 296.816 720.619 297.846 719.964 298.894C719.193 300.127 717.288 301.309 717.37 298.873C717.496 295.145 721.442 292.213 723.836 289.895C725.859 287.942 731.826 283.106 730.036 279.547C728.079 275.682 723.657 281.527 722.651 283.052C721 285.564 719.324 288.062 717.666 290.57C716.932 291.681 716.253 292.858 715.451 293.914C715.115 294.473 714.682 294.967 714.172 295.374C712.003 296.403 711.051 294.671 711.236 293.016C711.564 290.084 715.338 287.783 717.265 285.824C719.614 283.514 721.824 281.067 723.884 278.495C725.288 276.671 725.784 272.301 722.117 273.532C719.343 274.447 716.974 278.508 715.319 280.707C714.355 281.95 713.461 283.247 712.642 284.59C712.162 285.42 711.804 286.287 711.374 287.147C710.849 288.203 710.485 289.268 709.291 289.711C708.348 290.716 707.526 290.452 706.826 288.917L707.168 287.89C707.499 286.605 709.084 285.078 709.896 284.078C710.958 282.762 712.056 281.483 713.165 280.202C715.095 277.96 717.284 275.867 719.133 273.579C721.079 271.179 719.998 267.249 716.492 269.143C714.445 270.251 712.867 272.68 711.558 274.525C710.031 276.75 708.62 279.053 707.332 281.424C706.819 282.484 706.18 283.478 705.43 284.386C705.207 284.627 704.258 285.631 703.767 285.7C700.214 286.166 701.478 282.801 702.181 281.554C703.016 280.328 703.986 279.199 705.071 278.188C707.286 275.792 709.484 273.378 711.665 270.945C712.875 269.589 714.975 267.94 715.52 266.14C716.301 263.554 713.729 261.306 711.48 262.894C709.031 264.626 707.012 267.731 705.276 270.143C703.352 272.808 698.084 283.442 693.874 279.359C692.962 278.472 691.683 279.512 691.705 280.548C692.136 306.197 692.649 331.845 693.243 357.493C694.241 396.925 695.961 436.37 695.999 475.826C696.001 480.072 696.088 484.376 695.73 488.625C695.693 489.065 695.659 489.515 695.578 489.946C695.391 490.938 694.827 493.163 693.501 491.759C692.642 490.853 692.611 487.831 692.376 486.613C691.29 480.901 690.176 475.194 689.036 469.49C684.975 449.131 680.611 428.833 676.724 408.433C670.575 376.138 665.106 343.724 659.964 311.28C658.275 300.656 656.516 289.992 655.244 279.34C655.121 278.262 654.969 277.176 654.927 276.087C654.908 275.597 654.854 275.793 654.925 275.641C654.671 276.182 655.216 275.456 655.398 275.343C655.971 274.993 656.582 274.709 657.218 274.498C663.469 272.376 670.468 273.094 676.909 271.905C678.672 271.58 681.098 271.194 682.159 269.558C682.486 268.992 682.616 268.085 681.958 267.672C678.676 265.609 672.773 266.563 669.105 266.72C663.79 266.932 658.488 267.395 653.173 267.707C652.755 267.734 651.666 267.793 651.673 267.781L652.514 268.384C652.467 268.262 652.427 268.138 652.394 268.012C652.492 267.842 652.21 267.067 652.174 266.87C651.73 264.374 651.547 261.818 651.332 259.303C650.987 255.065 650.687 250.811 650.432 246.542L649.243 248.02C652.326 248.021 655.393 248.584 658.465 248.545C658.696 248.517 658.916 248.429 659.103 248.29C659.29 248.151 659.439 247.967 659.534 247.754C659.629 247.541 659.667 247.308 659.645 247.076C659.623 246.844 659.542 246.621 659.409 246.431C648.472 233.077 641.376 217.192 632.024 202.806C626.93 194.974 620.97 187.64 615.13 180.358C611.019 175.233 607.076 170.036 601.491 166.434C597.83 164.069 593.928 162.253 590.091 160.281C586.137 158.25 581.528 156.033 578.656 152.521C574.403 147.322 574.686 140.085 569.009 135.758C561.003 129.773 552.691 124.207 544.108 119.083C535.89 114.078 527.344 110.092 518.602 106.111C503.897 99.4158 488.291 90.087 483.341 73.6037C480.863 65.3602 480.979 55.8453 486.448 48.8091C491.474 42.3388 499.542 38.9421 507.618 38.839C524.827 38.6145 540.074 50.1608 547.682 64.9992C551.702 72.8992 554.282 81.4547 555.301 90.2647C556.261 98.6133 555.702 108.258 550.527 115.263C539.352 130.382 515.404 120.558 502.515 113.343C486.884 104.595 474.418 90.4088 469.745 72.8941C467.692 65.0081 467.365 56.7689 468.788 48.7401C469.965 41.6671 471.846 34.5643 471.327 27.3254C470.035 9.65665 452.603 2.12641 436.976 1.45245C432.676 1.26873 428.377 1.40394 424.088 1.56262C421.918 1.75718 419.736 1.77129 417.564 1.60478C413.915 1.13433 412.127 -2.03722 414.51 -5.03276C417.249 -8.48554 424.217 -7.68461 428.106 -7.52858C432.704 -7.31312 437.287 -6.83574 441.83 -6.0987C460.242 -3.25482 478.52 1.19845 495.719 8.43505C525.932 21.1466 559.058 44.1646 565.218 78.6308C566.643 86.61 567.274 94.7438 569.459 102.566C570.828 107.272 572.875 111.752 575.535 115.866C581.691 125.704 589.355 134.643 597.087 143.26C604.819 151.877 612.923 160.256 621.389 168.198C627.91 174.313 633.864 179.814 642.698 182.288C648.943 183.93 655.461 184.266 661.846 183.275L660.615 182.724C665.118 187.547 669.513 192.484 674.099 197.221C675.847 199.069 676.716 202.323 677.602 204.705C679.297 209.483 680.51 214.42 681.224 219.44C682.685 228.749 683.479 239.343 676.359 246.727C672.552 250.696 666.814 252.233 662.783 247.623C659.704 244.092 659.627 237.537 663.922 234.857C664.915 234.262 666.03 233.901 667.183 233.799C668.336 233.697 669.496 233.858 670.577 234.269C671.497 234.618 672.32 235.185 672.974 235.921C673.954 237.125 674.843 239.937 673.118 241.039C669.23 243.509 659.097 234.856 663.542 230.988C667.587 227.45 674.62 231.183 677.321 234.689C680.373 238.658 679.872 244.779 675.655 247.73C673.116 249.486 668.921 250.689 669.114 254.517C669.202 256.12 670.199 257.384 671.197 258.556C672.988 260.663 674.865 262.721 676.721 264.774C679.607 267.959 682.761 272.187 686.623 274.174C690.012 275.921 693.383 274.637 696.088 272.289C699.503 269.377 702.229 265.657 705.133 262.266C705.878 261.331 706.702 260.462 707.596 259.669C708.493 258.928 706.431 260.859 706.607 260.7C706.09 261.174 705.534 261.6 704.99 262.049C704.319 262.66 703.705 263.346 703.081 263.993C699.353 267.823 695.456 271.513 691.857 275.468C690.694 276.742 692.783 278.419 693.943 277.15L694.025 277.197Z" fill="#402B1D"/>
</g>
<defs>
<clipPath id="clip0_495:62454">
<rect width="720" height="832" fill="white"/>
</clipPath>
</defs>
</svg>
