<svg width="352" height="451" viewBox="0 0 352 451" fill="none" xmlns="http://www.w3.org/2000/svg">
<g clip-path="url(#clip0_1267_9464)">
<path opacity="0.4" d="M84.2425 207.587C135.291 163.533 215.224 223.647 234.744 274.206C248.706 310.389 248.134 361.773 207.869 380.132C133.878 413.903 20.2697 262.794 84.2425 207.587Z" fill="#C28566"/>
</g>
<g opacity="0.2" clip-path="url(#clip1_1267_9464)">
<path d="M12.8453 124.481C15.9306 121.216 19.2309 118.071 22.6097 114.997C36.4286 102.432 50.466 90.0506 65.1587 78.4602C78.2439 68.1206 95.7864 52.3487 113.407 49.285C113.191 49.3232 112.978 49.3767 112.769 49.4452C125.916 45.1784 138.957 44.0368 154.967 52.5259C190.738 71.4842 191.932 112.938 201.185 145.303C200.857 144.192 200.557 143.075 200.246 141.96C205.297 160.09 220.69 174.547 235.239 186.444C234.587 185.909 233.939 185.357 233.287 184.815C246.266 195.642 260.931 204.922 271.006 218.846C284.064 236.84 274.303 259.946 268.556 276.025C256.983 308.383 229.567 354.005 189.663 355.225C163.874 356.009 140.827 337.664 121.049 320.171C94.037 296.377 68.2932 271.185 43.9234 244.699C26.8997 226.119 5.35388 205.682 -2.61191 181.949C-10.9668 157.119 -1.373 139.537 12.8453 124.481ZM211.727 165.529L214.215 168.498L211.249 164.895L211.727 165.529Z" fill="#DF936D"/>
</g>
<defs>
<clipPath id="clip0_1267_9464">
<rect width="210" height="228" fill="white" transform="translate(33 157)"/>
</clipPath>
<clipPath id="clip1_1267_9464">
<rect width="352" height="451" fill="white"/>
</clipPath>
</defs>
</svg>
