<svg width="666" height="1059" viewBox="0 0 666 1059" fill="none" xmlns="http://www.w3.org/2000/svg">
<g clip-path="url(#clip0_1267:9459)">
<path opacity="0.65" d="M255.378 342.272C279.198 361.313 310.34 371.742 339.525 377.71C399.079 389.883 450.813 407.981 480.758 464.8C513.507 526.925 516.255 601.372 556.241 660.21C608.053 736.459 697.89 794.384 792.112 792.572C803.91 792.364 815.667 791.119 827.247 788.852C889.684 770.295 901.036 705.708 873.332 664.887C891.814 633.659 887.903 596.51 888.937 559.648C889.224 530.905 887.081 463.275 882.892 419.022C891.006 416.404 897.794 413.185 902.764 409.026C958.764 362.236 927.814 299.601 908.991 285.527C884.738 264.251 869.502 266.293 848.799 261.39C785.74 248.76 723.093 236.756 659.358 228.37C520.075 208.061 432.378 217.448 332.99 205.68L331.033 205.386C323.163 203.848 315.287 202.327 307.406 200.821C286.446 198.264 265.246 202.444 247.629 214.881C201.899 247.178 215.78 310.618 255.378 342.272ZM724.364 453.787L724.618 453.54C724.663 454.079 724.707 454.618 724.749 455.156C724.621 454.697 724.492 454.24 724.364 453.787Z" fill="#F4E8E1"/>
<path d="M551.689 268.012C552.213 338.59 581.006 406.937 622.064 463.377C657.273 511.777 716.134 576.958 777.915 587.556C848.1 599.601 894.229 519.656 856.204 463.286C902.18 436.833 911.339 381.17 880.953 341.613C868.107 324.814 847.823 317.097 829.906 306.503C806.089 293.17 782.698 279.644 759.835 264.982C693.842 223.579 678.321 193.139 649.085 189.761C598.403 177.584 551.327 219.132 551.689 268.012Z" fill="#E8CDBF"/>
</g>
<g opacity="0.15" clip-path="url(#clip1_1267:9459)">
<path d="M254.913 560.37C255.022 560.923 254.917 561.497 254.621 561.977C254.324 562.457 253.857 562.807 253.313 562.957C252.769 563.107 252.188 563.046 251.687 562.786C251.186 562.527 250.802 562.087 250.611 561.557C249.686 558.736 249.488 555.728 250.036 552.81C250.894 547.789 253.689 543.279 256.703 539.271C258.384 537.053 260.11 534.871 261.635 532.543C262.402 531.37 263.094 530.15 263.708 528.891C263.873 528.562 264.019 528.234 264.165 527.896C264.311 527.558 264.028 528.252 264.165 527.896L264.339 527.458C264.593 526.797 264.812 526.123 264.996 525.44C265.087 525.105 265.164 524.767 265.224 524.427C265.255 524.268 265.282 524.11 265.307 523.952C265.329 523.846 265.344 523.74 265.352 523.632C265.352 523.632 265.307 524.089 265.352 523.824C265.421 523.126 265.455 522.425 265.453 521.724C265.453 521.347 265.431 520.969 265.389 520.592C265.389 520.51 265.316 519.999 265.389 520.327C265.462 520.656 265.389 520.145 265.389 520.063C265.267 519.347 265.09 518.642 264.859 517.954C264.798 517.777 264.734 517.601 264.667 517.424C264.667 517.424 264.576 517.242 264.576 517.196C264.576 517.15 264.75 517.579 264.649 517.36C264.549 517.141 264.375 516.767 264.211 516.447C264.046 516.128 263.854 515.826 263.654 515.534C263.58 515.434 263.416 515.279 263.389 515.16C263.361 515.041 263.663 515.498 263.507 515.306L263.361 515.133C262.948 514.664 262.503 514.224 262.028 513.818C261.842 513.67 261.666 513.511 261.498 513.343C261.498 513.343 261.9 513.599 261.717 513.517C261.648 513.486 261.584 513.446 261.526 513.398C261.389 513.27 261.818 513.517 261.827 513.517C262.035 513.558 262.249 513.558 262.457 513.517C262.695 513.486 262.924 513.404 263.127 513.276C263.331 513.148 263.504 512.978 263.635 512.777C263.453 513.042 263.845 512.257 263.736 512.576C263.626 512.896 263.8 511.974 263.736 512.421V512.567C263.736 512.567 263.626 512.038 263.736 512.22C263.759 512.282 263.774 512.346 263.781 512.412C263.781 512.595 263.635 512.083 263.635 512.093C263.657 512.147 263.684 512.199 263.717 512.248C263.763 512.312 263.334 511.8 263.489 511.946C263.644 512.093 263.206 511.736 263.252 511.755C263.297 511.773 262.758 511.563 262.978 511.636C263.197 511.709 262.667 511.636 262.676 511.636C262.685 511.636 262.822 511.636 262.859 511.636C263.37 511.636 262.393 511.736 262.859 511.636L263.243 511.545C263.498 511.481 263.754 511.417 264.01 511.371C264.265 511.326 264.631 511.289 264.923 511.253C265.002 511.248 265.081 511.248 265.161 511.253H264.96C265.298 511.198 265.645 511.143 265.983 511.079C266.661 510.948 267.33 510.768 267.983 510.54L268.284 510.431C268.677 510.285 268.229 510.431 268.193 510.431C268.326 510.344 268.47 510.277 268.622 510.23C268.936 510.077 269.241 509.906 269.535 509.719C269.672 509.628 269.8 509.518 269.937 509.445C270.074 509.372 269.563 509.755 269.727 509.6L269.873 509.481C270.079 509.301 270.274 509.109 270.458 508.906C270.558 508.797 270.64 508.669 270.741 508.568C270.841 508.468 270.458 508.961 270.586 508.769L270.732 508.559C270.874 508.347 271.005 508.128 271.124 507.902C271.198 507.774 271.261 507.637 271.316 507.5C271.481 507.163 271.134 507.975 271.316 507.5C271.387 507.3 271.448 507.095 271.499 506.889C271.499 506.797 271.609 506.222 271.563 506.642C271.517 507.062 271.563 506.642 271.563 506.514C271.576 506.256 271.576 505.997 271.563 505.738C271.563 505.382 271.682 506.268 271.563 505.802C271.563 505.684 271.508 505.574 271.481 505.455C271.43 505.327 271.387 505.196 271.353 505.063C271.353 505.063 271.572 505.501 271.462 505.327C271.353 505.154 271.408 505.218 271.38 505.163C271.353 505.108 271.234 504.917 271.161 504.798C270.914 504.396 271.426 505.081 271.161 504.798C270.97 504.643 270.792 504.472 270.631 504.287C270.631 504.341 271.051 504.579 270.796 504.415L270.595 504.278L270.284 504.095C270.174 504.051 270.067 503.999 269.965 503.94C269.965 503.94 270.44 504.113 270.22 504.049L269.992 503.967C269.741 503.882 269.484 503.812 269.225 503.757L268.796 503.675H268.613C268.613 503.675 269.143 503.73 268.896 503.675C267.753 503.589 266.605 503.589 265.462 503.675C264.365 503.805 263.261 503.876 262.156 503.885C260.952 503.855 259.758 503.652 258.612 503.282C256.356 502.516 253.991 500.918 253.561 498.389C253.318 497.188 253.45 495.94 253.94 494.816C254.43 493.693 255.255 492.747 256.301 492.108C258.201 491.2 260.358 490.98 262.402 491.487C267.188 492.4 270.796 496.116 273.938 499.576C275.965 501.813 278.02 504.04 279.975 506.35C280.888 507.455 281.801 508.605 282.715 509.71C283.144 510.221 283.628 510.714 284.066 511.189C284.322 511.444 284.578 511.691 284.852 511.928L285.199 512.229C285.282 512.288 285.361 512.352 285.436 512.421C285.436 512.421 285.089 512.166 285.29 512.302C285.843 512.672 286.423 512.999 287.025 513.279L287.29 513.398C287.509 513.508 287.089 513.316 287.089 513.316C287.252 513.361 287.411 513.419 287.564 513.489C287.838 513.581 288.115 513.66 288.395 513.727L288.962 513.845C289.053 513.845 289.528 513.937 289.163 513.845C288.797 513.754 289.281 513.845 289.363 513.845H289.866C290.494 513.866 291.122 513.845 291.747 513.781C292.131 513.781 291.291 513.854 291.802 513.781L292.24 513.708C292.551 513.648 292.855 513.578 293.154 513.498C293.774 513.34 294.383 513.144 294.98 512.914L295.318 512.777L295.127 512.859C295.254 512.786 295.401 512.741 295.528 512.677C295.815 512.543 296.098 512.403 296.378 512.257C296.927 512.018 297.464 511.749 297.985 511.453L298.378 511.17C298.698 510.942 297.994 511.49 298.378 511.17C298.585 511 298.783 510.82 298.972 510.632C299.16 510.443 299.37 510.221 299.602 509.965L299.848 509.664C300.004 509.481 299.693 509.874 299.702 509.865C299.749 509.791 299.801 509.721 299.858 509.655C300.18 509.203 300.467 508.727 300.716 508.231L300.908 507.829C301.118 507.373 300.771 508.185 300.908 507.829C301.045 507.473 301.081 507.354 301.164 507.108C301.332 506.579 301.463 506.039 301.556 505.492C301.556 505.401 301.62 505.008 301.556 505.41C301.492 505.811 301.556 505.528 301.556 505.41C301.556 505.291 301.556 505.154 301.556 505.026C301.556 504.746 301.572 504.466 301.602 504.186C301.616 503.619 301.594 503.052 301.538 502.488C301.538 502.397 301.538 502.315 301.538 502.223C301.538 501.977 301.538 502.516 301.538 502.488C301.538 502.461 301.492 502.178 301.465 502.032C301.438 501.886 301.364 501.511 301.31 501.247C301.174 500.659 301.003 500.079 300.798 499.512L300.616 499.046C300.616 498.982 300.552 498.909 300.533 498.836C300.515 498.763 300.716 499.256 300.616 499.028C300.515 498.8 300.342 498.435 300.195 498.115C299.897 497.53 299.565 496.963 299.2 496.417L298.899 495.979L298.716 495.732C298.57 495.531 298.825 495.878 298.835 495.878C298.628 495.654 298.433 495.42 298.25 495.175C297.799 494.668 297.311 494.195 296.789 493.76C296.743 493.76 296.46 493.505 296.725 493.706C296.99 493.906 296.725 493.706 296.725 493.706L296.36 493.45C296.131 493.295 295.894 493.149 295.656 493.012C294.743 492.482 293.729 492.099 292.852 491.451C291.595 490.614 290.65 489.384 290.167 487.954C289.861 487.181 289.801 486.332 289.998 485.525C290.194 484.717 290.636 483.99 291.263 483.444C293.921 481.39 297.191 483.873 299.045 485.818C300.047 486.898 300.963 488.055 301.785 489.278C302.433 490.186 303.013 491.141 303.52 492.135C304.501 494.164 305.137 496.343 305.401 498.581C305.94 502.778 305.117 507.037 303.054 510.732C301.965 512.702 300.456 514.408 298.632 515.729C296.809 517.05 294.717 517.953 292.505 518.374C289.82 518.839 287.058 518.554 284.523 517.552C281.825 516.46 279.485 514.639 277.764 512.293C276.129 510.075 275.262 507.4 273.691 505.127L273.326 504.615C273.215 504.5 273.12 504.372 273.042 504.232L273.152 504.369L273.006 504.186L272.705 503.821C272.248 503.273 271.77 502.744 271.271 502.233C270.771 501.721 270.272 501.25 269.773 500.817C269.493 500.574 269.21 500.337 268.923 500.105L268.713 499.941C268.96 500.133 268.558 499.831 268.494 499.786C267.322 498.923 266.079 498.163 264.777 497.513C264.43 497.339 264.083 497.184 263.727 497.02C263.37 496.855 264.046 497.147 263.654 497.02L263.188 496.837C262.503 496.572 261.805 496.344 261.096 496.152C260.704 496.052 260.311 495.961 259.918 495.888H259.662H259.827L259.233 495.842C258.865 495.821 258.496 495.821 258.128 495.842C257.662 495.842 258.192 495.842 258.21 495.842C258.228 495.842 258.009 495.842 257.973 495.842L257.58 495.933L257.132 496.079C256.776 496.198 257.562 495.869 257.132 496.079C256.889 496.196 256.654 496.33 256.429 496.481C256.274 496.59 256.155 496.782 256.502 496.408C256.502 496.454 256.402 496.49 256.347 496.536L256.055 496.81C255.991 496.873 255.717 497.22 255.927 496.928C256.137 496.636 255.854 497.047 255.799 497.129C255.744 497.211 255.543 497.668 255.671 497.33C255.799 496.992 255.671 497.412 255.616 497.494C255.562 497.576 255.616 497.859 255.507 497.951C255.397 498.042 255.507 497.458 255.507 497.686C255.507 497.75 255.507 497.814 255.507 497.887C255.507 497.96 255.507 498.197 255.507 498.343C255.507 498.489 255.507 498.069 255.507 498.079C255.507 498.088 255.507 498.252 255.552 498.334C255.598 498.416 255.616 498.59 255.653 498.718C255.689 498.845 255.699 498.845 255.717 498.909C255.772 499.138 255.616 498.681 255.616 498.69C255.772 498.964 255.89 499.256 256.073 499.521L256.192 499.685C256.32 499.886 256.046 499.503 256.055 499.503C256.154 499.596 256.246 499.696 256.329 499.804C256.457 499.932 256.594 500.06 256.721 500.178C257.014 500.443 256.365 499.941 256.721 500.178L257.059 500.398C257.126 500.425 257.19 500.459 257.251 500.498C257.251 500.498 256.767 500.334 256.968 500.379C257.215 500.429 257.459 500.493 257.699 500.571C257.269 500.416 257.26 500.525 257.47 500.571H257.662H258.046C258.356 500.571 258.667 500.571 258.959 500.571H259.37C259.626 500.571 259.105 500.571 259.123 500.571H259.334C260.466 500.398 261.571 500.114 262.695 499.895C263.264 499.756 263.866 499.84 264.376 500.13C264.885 500.421 265.264 500.895 265.435 501.457C265.586 502.027 265.507 502.633 265.215 503.146C264.923 503.658 264.441 504.035 263.873 504.195C261.389 504.698 258.813 505.474 256.274 504.917C254.805 504.537 253.514 503.659 252.621 502.433C251.855 501.529 251.346 500.436 251.148 499.268C250.95 498.1 251.071 496.9 251.497 495.794C251.923 494.689 252.639 493.718 253.569 492.984C254.5 492.251 255.611 491.781 256.785 491.624C260.201 490.93 263.672 492.135 266.722 493.596C269.444 494.924 271.928 496.692 274.075 498.827C276.177 500.912 277.923 503.326 279.244 505.976C279.86 507.236 280.555 508.456 281.326 509.628L281.646 510.075C281.783 510.285 281.536 509.938 281.536 509.938C281.597 510.025 281.664 510.107 281.737 510.184C281.92 510.404 282.109 510.617 282.304 510.823C282.498 511.03 282.733 511.259 283.007 511.508L283.372 511.828C283.436 511.883 283.801 512.175 283.527 511.956C283.253 511.736 283.527 511.956 283.582 511.956L283.81 512.12L284.158 512.357C284.407 512.522 284.663 512.677 284.925 512.823C285.187 512.969 285.473 513.115 285.783 513.261L286.158 513.425C286.158 513.425 285.71 513.252 285.939 513.334L286.13 513.407C286.704 513.626 287.294 513.803 287.893 513.937L288.432 514.046C288.523 514.046 288.989 514.128 288.605 514.046C288.222 513.964 288.779 514.046 288.852 514.046H289.263C289.871 514.091 290.482 514.091 291.09 514.046H291.364C291.619 514.046 291.099 514.046 291.117 514.046L291.601 513.964C291.875 513.915 292.149 513.854 292.423 513.781C292.994 513.634 293.555 513.451 294.104 513.234C294.387 513.124 293.939 513.298 293.894 513.325L294.104 513.234L294.414 513.088L295.063 512.75C295.498 512.504 295.919 512.233 296.323 511.937L296.497 511.809C296.497 511.809 296.086 512.138 296.259 511.992L296.551 511.746L297.044 511.307C297.402 510.973 297.74 510.62 298.058 510.248L298.332 509.92L298.433 509.792C298.433 509.792 298.113 510.221 298.25 510.029C298.387 509.837 298.533 509.655 298.661 509.454C299.19 508.649 299.654 507.804 300.049 506.925C300.159 506.697 299.821 507.491 299.976 507.108L300.04 506.953L300.159 506.642C300.244 506.417 300.323 506.192 300.396 505.967C300.549 505.492 300.683 505.014 300.798 504.533C300.908 504.068 300.99 503.62 301.072 503.118C301.154 502.616 301.008 503.648 301.072 503.118V502.789C301.072 502.552 301.091 502.312 301.127 502.068C301.19 501.064 301.172 500.057 301.072 499.055C301.072 498.928 301.072 498.8 301.072 498.672C301.017 498.188 301.145 499.128 301.072 498.772C301.072 498.553 300.999 498.334 300.963 498.115C300.871 497.622 300.759 497.135 300.625 496.654C300.491 496.174 300.339 495.702 300.168 495.239L300.031 494.883C299.867 494.454 300.223 495.303 300.031 494.956C299.94 494.755 299.848 494.555 299.757 494.363C299.246 493.352 298.66 492.382 298.003 491.46C297.803 491.168 297.596 490.863 297.382 490.547C297.291 490.419 297.191 490.3 297.099 490.172C297.099 490.227 297.41 490.565 297.163 490.255L297.017 490.072C296.595 489.55 296.147 489.051 295.675 488.575C295.428 488.328 295.172 488.091 294.907 487.853C294.853 487.799 294.56 487.507 294.515 487.525C294.469 487.543 294.88 487.79 294.679 487.653L294.505 487.525C294.251 487.346 293.986 487.185 293.711 487.041C293.373 486.858 294.158 487.178 293.802 487.041C293.676 487.014 293.551 486.98 293.428 486.941C293.227 486.867 293.921 486.941 293.711 486.941H293.419C293.419 486.941 293.967 486.858 293.793 486.941H293.665C293.592 486.941 294.213 486.694 294.003 486.794C293.647 486.968 294.387 486.429 294.158 486.667C293.93 486.904 294.359 486.411 294.359 486.411C294.359 486.411 294.25 486.658 294.359 486.301C294.469 485.945 294.432 486.119 294.405 486.201C294.378 486.283 294.469 486.365 294.405 485.9C294.411 486.009 294.411 486.119 294.405 486.228C294.405 486.584 294.277 485.763 294.405 486.137C294.46 486.32 294.505 486.493 294.56 486.676C294.679 487.05 294.341 486.292 294.56 486.612L294.779 486.977C294.817 487.023 294.85 487.072 294.88 487.123C294.88 487.123 294.56 486.758 294.716 486.904C294.871 487.05 295.108 487.287 295.3 487.47C295.492 487.653 295.063 487.297 295.081 487.297C295.132 487.327 295.18 487.36 295.227 487.397L295.574 487.625C296.487 488.191 297.501 488.602 298.405 489.177C300.896 490.814 302.899 493.091 304.205 495.769C306.57 500.507 307.018 506.441 304.104 511.07C302.608 513.359 300.492 515.176 298.003 516.31C295.399 517.628 292.5 518.256 289.583 518.136C288.005 518.038 286.459 517.658 285.016 517.013C283.663 516.362 282.428 515.488 281.363 514.43C280.381 513.48 279.466 512.464 278.623 511.39C277.624 510.172 276.598 508.955 275.545 507.738C273.6 505.519 271.627 503.319 269.608 501.174C268.642 500.13 267.618 499.143 266.54 498.216L266.12 497.869L265.873 497.668L266.01 497.777C265.715 497.603 265.436 497.401 265.179 497.175C264.766 496.882 264.336 496.614 263.891 496.371L263.37 496.116L263.252 496.061C262.959 495.924 263.562 496.198 263.544 496.189C263.467 496.143 263.384 496.11 263.297 496.088C262.908 495.94 262.512 495.812 262.11 495.705C261.69 495.595 261.27 495.513 260.841 495.44C260.411 495.367 261.452 495.504 261.005 495.44H260.676H260.11C259.891 495.44 259.681 495.44 259.461 495.44C259.242 495.44 258.932 495.504 259.397 495.44C259.863 495.376 259.489 495.44 259.397 495.44C259.197 495.477 258.999 495.526 258.804 495.586L258.566 495.668C258.155 495.805 259.023 495.431 258.749 495.586L258.247 495.878C257.973 496.043 258.658 495.504 258.438 495.732L258.256 495.897C258.256 495.897 258.018 496.125 258.037 496.143C258.055 496.161 258.402 495.604 258.183 495.97C258.128 496.061 258.073 496.143 258.027 496.234C257.982 496.326 257.845 496.645 258.027 496.234C258.21 495.824 258.027 496.234 258.027 496.371C258.027 496.508 257.973 496.563 257.954 496.664C257.936 496.764 257.954 497.202 257.954 496.545C257.954 496.654 257.954 496.764 257.954 496.874C257.954 496.983 257.954 497.12 257.954 497.239C257.954 497.513 257.845 496.691 257.954 496.947C257.954 496.992 257.954 497.047 257.954 497.093C257.954 497.138 258 497.284 258.037 497.376C258.054 497.438 258.075 497.499 258.101 497.558C258.101 497.558 257.863 497.083 257.973 497.248C258.082 497.412 258.082 497.449 258.137 497.549C258.192 497.65 258.448 497.987 258.192 497.65C257.936 497.312 258.192 497.65 258.247 497.65L258.466 497.869C258.53 497.933 258.932 498.252 258.594 497.996C258.256 497.741 258.594 497.996 258.667 497.996C258.864 498.126 259.068 498.245 259.279 498.352C259.407 498.416 259.553 498.471 259.681 498.544C259.808 498.617 259.187 498.353 259.407 498.426L259.571 498.489C259.808 498.581 260.049 498.66 260.293 498.727C260.536 498.794 260.804 498.858 261.096 498.919L261.443 498.982C261.927 499.065 261.005 498.982 261.379 498.982C262.445 499.053 263.515 499.029 264.576 498.909C267.179 498.681 269.837 498.572 272.266 499.695C273.52 500.293 274.556 501.267 275.23 502.481C275.904 503.695 276.184 505.089 276.029 506.469C275.863 507.91 275.364 509.293 274.571 510.508C273.779 511.723 272.714 512.738 271.462 513.471C270.112 514.237 268.642 514.771 267.115 515.05C266.75 515.124 266.384 515.178 266.01 515.233L265.024 515.361H264.786C264.494 515.361 265.106 515.361 265.087 515.361C265.069 515.361 264.393 515.525 264.238 515.562C263.811 515.661 263.378 515.728 262.941 515.763C262.46 515.805 261.976 515.746 261.519 515.588C261.063 515.431 260.645 515.179 260.293 514.85C259.687 514.18 259.332 513.322 259.288 512.421C259.078 510.44 260.758 508.358 262.886 508.934C263.64 509.175 264.325 509.591 264.887 510.148C265.307 510.522 265.745 510.897 266.129 511.307C267.144 512.397 267.963 513.654 268.549 515.023C269.903 518.184 270.294 521.674 269.672 525.056C269.128 527.97 268.043 530.757 266.476 533.273C263.8 537.838 260.082 541.663 257.406 546.21C257.078 546.764 256.773 547.327 256.493 547.899C256.192 548.483 255.954 549.113 255.644 549.725C255.699 549.624 255.808 549.332 255.699 549.597L255.616 549.807L255.425 550.291C255.321 550.571 255.221 550.854 255.123 551.14C254.913 551.779 254.73 552.436 254.575 553.093C254.496 553.434 254.429 553.781 254.374 554.134C254.374 554.216 254.292 554.718 254.374 554.362C254.456 554.006 254.374 554.582 254.374 554.673C254.308 555.334 254.283 555.999 254.301 556.663C254.301 557.022 254.326 557.384 254.374 557.749C254.38 557.853 254.38 557.956 254.374 558.06C254.374 558.06 254.301 557.603 254.374 557.859C254.447 558.115 254.429 558.169 254.456 558.325C254.593 559.044 254.782 559.752 255.023 560.443L254.913 560.37ZM477.589 904.874C491.161 888.377 497.683 867.516 498.769 846.372C499.938 823.384 494.541 800.724 486.092 779.498C481.426 767.974 476.167 756.7 470.338 745.718C464.438 734.425 458.209 723.287 451.277 712.587C447.824 707.265 444.189 702.042 440.317 696.985C437.005 692.405 433.392 688.05 429.503 683.948C427.256 681.693 424.8 679.657 422.644 677.301C422.14 676.767 421.664 676.206 421.219 675.621C420.927 675.183 420.658 674.729 420.416 674.261C420.416 674.261 420.26 673.85 420.416 674.206C420.571 674.562 420.114 674.654 420.516 674.499C420.754 674.407 421.21 673.741 421.429 673.586C422.67 672.785 423.974 672.089 425.329 671.504L461.268 653.51C466.7 650.789 472.134 648.074 477.571 645.366C481.462 643.431 485.554 641.258 488.33 637.816C489.704 636.154 490.645 634.178 491.07 632.064C491.152 631.733 491.159 631.388 491.09 631.055C491.021 630.721 490.877 630.407 490.67 630.136C490.463 629.865 490.198 629.644 489.894 629.49C489.59 629.335 489.256 629.251 488.915 629.243C484.348 628.842 479.781 630.467 475.69 632.439C470.869 634.907 466.283 637.81 461.99 641.112C457.825 644.17 453.77 647.411 449.605 650.451C444.96 653.705 440.143 656.707 435.175 659.444C412.223 672.636 387.682 682.925 361.571 687.946C348.33 690.423 334.9 691.754 321.43 691.927C308.543 692.155 295.099 690.968 283.6 684.623C279.239 682.368 275.642 678.874 273.262 674.581C271.144 670.43 270.036 665.838 270.029 661.178C269.951 653.907 271.713 646.734 275.152 640.326C276.321 638.163 277.892 636.255 279.07 634.091C281.81 628.924 281.381 622.944 276.33 619.484C272.677 616.946 268.01 616.699 264.302 614.353C259.626 611.331 260.238 604.94 262.795 600.741C266.302 594.962 272.942 592.789 279.116 591.072C280.814 590.545 282.593 590.331 284.368 590.443C286.079 590.727 287.832 590.628 289.5 590.15C289.825 590.052 290.124 589.883 290.375 589.655C290.626 589.426 290.823 589.145 290.951 588.83C291.079 588.516 291.135 588.177 291.114 587.838C291.094 587.5 290.998 587.17 290.834 586.873C289.117 583.522 285.089 583.312 281.783 583.696C277.725 584.115 273.786 585.314 270.184 587.229C262.284 591.547 257.269 599.873 258.055 608.976C258.356 612.463 259.379 616.206 261.781 618.863C264.704 622.095 268.75 621.538 272.367 619.867C276.741 617.84 280.997 615.357 285.263 613.093C289.927 610.628 294.548 608.09 299.127 605.479C304.436 602.436 309.688 599.316 314.882 596.121C316.215 595.299 317.466 594.432 318.727 593.519C319.439 593.008 320.151 592.497 320.891 592.013C321.183 591.86 321.464 591.686 321.732 591.492C322.252 591.027 322.426 591.438 321.247 591.237C323.512 591.611 325.494 588.233 322.964 587.156C304.113 579.158 286.913 567.729 272.239 553.449C268.951 550.236 265.535 546.274 260.612 545.954C258.928 545.837 257.24 546.134 255.697 546.82C254.154 547.506 252.803 548.56 251.762 549.889C248.054 554.819 249.132 562.67 252.465 567.491C257.662 575.05 267.234 578.62 275.198 582.418C285.053 587.119 295.62 591.009 306.653 591.328C311.545 591.586 316.438 590.837 321.028 589.128C322.955 588.352 324.682 587.302 326.508 586.316C326.645 586.243 327.504 585.905 327.504 585.869L327.221 585.622C326.959 585.3 326.877 585.266 326.974 585.522C326.91 585.522 327.074 585.732 327.029 585.768L326.536 586.142C325.202 587.147 323.038 587.548 321.458 587.877C319.216 588.298 316.93 588.439 314.653 588.297C309.785 587.939 304.968 587.06 300.287 585.677C295.903 584.508 291.555 583.221 287.153 582.125C283.5 581.212 279.938 580.245 276.413 579.012C269.517 576.593 262.21 572.987 258.146 566.614C257.153 565.044 256.378 563.345 255.845 561.566C255.014 558.827 250.703 559.995 251.543 562.752C256.402 578.72 274.138 583.367 288.441 587.046C297.839 589.466 307.319 593.017 317.165 592.789C321.019 592.698 325.641 592.068 328.947 589.895C329.732 589.449 330.38 588.796 330.82 588.007C331.26 587.218 331.474 586.324 331.44 585.421C331.448 584.474 331.118 583.556 330.508 582.831C329.899 582.106 329.05 581.623 328.116 581.468C326.537 581.413 324.983 581.871 323.686 582.774C321.812 583.934 319.811 584.874 317.722 585.576C312.753 586.947 307.555 587.28 302.451 586.553C291.492 585.284 281.527 580.473 271.691 575.762C264.768 572.448 256.055 568.55 254.255 560.297C253.717 557.823 253.717 554.764 255.269 552.628C257.361 549.725 261.325 550.008 263.991 551.879C265.97 553.472 267.821 555.218 269.526 557.101C271.353 558.866 273.216 560.589 275.116 562.269C278.988 565.683 283.01 568.918 287.181 571.973C295.53 578.106 304.434 583.446 313.777 587.923C316.066 589.018 318.38 590.062 320.718 591.054L322.435 586.973C320.124 586.59 317.914 588.653 316.179 589.922C313.439 591.922 310.47 593.647 307.548 595.4C299.303 600.366 290.919 605.095 282.395 609.587C278.742 611.532 275.024 613.495 271.325 615.43C270.038 616.106 268.357 617.019 266.841 616.854C265.498 616.708 264.686 615.54 264.101 614.444C260.557 607.962 262.749 599.362 267.882 594.423C270.8 591.706 274.371 589.791 278.248 588.863C280.203 588.361 285.774 586.782 286.989 589.155L288.322 585.878C286.624 586.489 284.906 585.951 283.153 585.951C281.156 586.02 279.179 586.37 277.28 586.992C273.92 587.887 270.656 589.11 267.535 590.643C262.055 593.483 257.598 598.604 256.575 604.794C255.662 610.272 257.79 615.868 262.777 618.616C266.54 620.689 271.91 620.908 274.97 624.094C279.162 628.485 273.435 634.191 271.316 638.117C268.916 642.553 267.236 647.342 266.339 652.305C264.567 662.228 265.855 672.965 272.266 681.063C275.801 685.527 280.742 688.476 285.911 690.704C292.1 693.275 298.627 694.941 305.292 695.652C318.672 697.259 332.554 696.254 345.907 694.739C373.307 691.699 399.492 683.089 423.959 670.591C434.855 665.031 445.678 659.033 455.432 651.62C459.999 648.169 464.465 644.627 469.205 641.431C473.443 638.574 477.964 635.762 482.905 634.319C484.88 633.706 486.953 633.47 489.015 633.625L486.86 630.804C486.019 635.141 482.22 637.734 478.64 639.751C474.073 642.326 469.187 644.535 464.465 646.891L428.846 664.73C426.023 666.145 423.137 667.469 420.37 668.993C418.47 670.034 416.123 671.833 416.041 674.216C415.94 677.155 419.018 679.903 420.9 681.811C423.101 684.039 425.539 686.029 427.622 688.366C431.768 693.032 435.641 697.925 439.321 702.974C446.697 713.223 453.447 723.909 459.533 734.973C465.598 745.846 471.352 756.884 476.521 768.241C486.129 789.504 493.627 812.191 494.349 835.672C495.034 856.515 490.696 877.951 479.005 895.489C477.568 897.637 476.028 899.713 474.384 901.715C472.557 903.915 475.717 907.093 477.544 904.874H477.589ZM350.044 416.862C354.264 417.656 358.986 416.396 363.297 414.342C359.187 415.584 354.629 415.849 350.181 416.25C350.145 416.46 350.099 416.661 350.044 416.862ZM350.044 410.334C356.469 411.011 362.938 411.167 369.389 410.8C369.991 410.389 370.567 409.969 371.115 409.558C368.813 408.965 366.484 408.417 364.119 407.888L363.205 407.687L357.351 406.463C354.337 406.336 351.332 406.071 348.346 405.669C349.141 407.131 349.714 408.703 350.044 410.334V410.334ZM340.747 408.006C340.717 408.312 340.735 408.62 340.802 408.919C342.184 409.205 343.572 409.458 344.966 409.677C344.644 408.749 344.189 407.873 343.615 407.075C342.309 405.322 340.975 405.824 340.747 408.006ZM340.181 401.497C339.552 401.716 338.97 402.051 338.464 402.483L347.524 404.382C345.715 401.899 343.149 400.456 340.19 401.506L340.181 401.497ZM371.115 409.558L371.343 409.385L363.224 407.687L364.137 407.888C366.484 408.417 368.822 408.965 371.115 409.558ZM375.033 408.645C374.791 408.457 374.513 408.321 374.216 408.246C373.919 408.17 373.609 408.157 373.307 408.207L374.64 409.011L375.033 408.645ZM371.38 409.558L371.562 409.357H371.361L371.133 409.531L371.38 409.558ZM373.115 409.686L372.138 408.709C371.946 408.937 371.754 409.147 371.553 409.357L373.115 409.686ZM372.138 408.709L371.361 409.312H371.562C371.745 409.202 371.964 409.001 372.128 408.782L372.138 408.709ZM373.581 410.152L373.489 410.06L373.425 410.115L373.581 410.152ZM340.765 407.942C340.993 405.76 342.327 405.258 343.633 407.029C344.207 407.827 344.662 408.703 344.985 409.631C346.671 409.899 348.367 410.127 350.072 410.316C349.737 408.678 349.158 407.099 348.355 405.633C344.947 405.194 341.568 404.557 338.235 403.724C338.293 405.335 338.501 406.937 338.856 408.508L340.802 408.928C340.734 408.626 340.716 408.315 340.747 408.006L340.765 407.942ZM350.044 410.334C348.346 410.152 346.65 409.923 344.957 409.65C345.112 410.06 345.249 410.471 345.377 410.882C345.769 411.965 346.021 413.094 346.126 414.242C346.207 414.629 346.223 415.027 346.172 415.419C346.863 415.826 347.595 416.159 348.355 416.415L350.181 416.241C350.521 414.282 350.475 412.275 350.044 410.334V410.334ZM342.181 411.649C341.547 410.834 341.079 409.904 340.802 408.91L338.856 408.49C338.92 408.755 338.975 409.02 339.048 409.284C339.45 410.856 340.004 412.384 340.701 413.849C341.025 414.53 341.388 415.192 341.788 415.83C342.263 417.139 343.082 417.422 344.245 416.679C345.396 416.758 346.041 416.351 346.181 415.456C344.591 414.491 343.226 413.196 342.181 411.658V411.649ZM348.364 416.415C348.916 416.6 349.481 416.747 350.054 416.853C350.108 416.652 350.154 416.442 350.191 416.241L348.364 416.415ZM371.124 409.549C370.576 409.96 370 410.38 369.398 410.791H370.147C370.574 410.431 370.982 410.051 371.37 409.65L371.124 409.549ZM371.37 409.613C370.982 410.014 370.574 410.395 370.147 410.754C371.09 410.699 372.031 410.636 372.969 410.563L373.416 410.17L371.37 409.613ZM347.533 404.382L338.473 402.483L338.217 402.711C338.217 403.04 338.217 403.365 338.217 403.688C341.54 404.534 344.91 405.187 348.309 405.642C348.072 405.21 347.809 404.792 347.524 404.391L347.533 404.382ZM372.969 410.553L373.882 410.48L373.599 410.197H373.444L372.969 410.553ZM363.306 414.333C365.809 413.625 368.138 412.407 370.147 410.754H369.398C367.461 412.108 365.421 413.308 363.297 414.342L363.306 414.333ZM338.336 399.726L335.504 401.899L338.244 402.465C338.196 401.546 338.223 400.63 338.327 399.717L338.336 399.726ZM337.486 392.55C337.861 393.061 338.244 393.545 338.628 394.02L340.007 393.572L337.486 392.55ZM440.463 126.77C441.246 126.193 441.977 125.549 442.646 124.843L444.089 126.669C443.778 126.71 443.471 126.783 443.176 126.888C442.777 127.086 442.361 127.248 441.934 127.372C440.724 127.936 439.62 128.705 438.673 129.646C437.905 130.39 437.197 131.193 436.554 132.047C439.751 131.855 442.847 131.28 445.094 128.952C447.98 125.966 447.505 121.274 442.536 122.433C439.348 123.282 436.507 125.112 434.417 127.664C435.906 127.646 437.391 127.499 438.856 127.226C439.405 127.126 439.943 126.974 440.463 126.77V126.77ZM366.576 404.108L370.11 406.299C371.687 406.202 373.267 406.08 374.85 405.934C372.147 405.277 369.379 404.72 366.621 404.108H366.576ZM375.901 405.833L374.859 405.934L375.855 406.18L375.901 405.833ZM511.072 555.431C511.413 550.599 511.362 545.747 510.917 540.924C509.936 545.681 508.521 550.339 506.688 554.837L511.072 555.431ZM467.506 411.183C466.859 410.622 466.025 410.323 465.168 410.345C464.311 410.367 463.494 410.708 462.876 411.302C464.8 413.785 466.718 416.275 468.63 418.77C469.415 415.885 469.689 412.854 467.534 411.202L467.506 411.183ZM438.728 129.636C439.675 128.696 440.778 127.927 441.988 127.363C442.416 127.239 442.832 127.077 443.23 126.879C443.526 126.774 443.832 126.701 444.144 126.66L442.701 124.834C442.015 125.545 441.266 126.193 440.463 126.77C439.943 126.97 439.405 127.12 438.856 127.217C437.391 127.49 435.906 127.637 434.417 127.655C433.175 129.081 432.054 130.608 431.065 132.22C432.837 132.111 434.718 132.129 436.545 132.019C437.209 131.169 437.939 130.372 438.728 129.636V129.636ZM402.752 831.947C405.833 829.598 408.798 827.142 411.648 824.58C408.11 825.681 404.57 826.777 401.026 827.866L402.752 831.947ZM288.204 343.588C290.715 361.92 294.597 380.736 289.519 398.995C284.952 415.474 275.545 430.465 264.686 443.529C258.977 450.404 252.968 457.014 247.095 463.742C242.583 468.9 236.793 474.241 233.962 480.559C231.432 486.128 231.404 492.099 235.706 496.755C239.578 500.945 244.894 503.839 249.817 506.587C253.689 508.751 258.95 510.668 261.927 514.055C263.836 516.21 266.987 513.042 265.087 510.897C261.982 507.4 256.868 505.419 252.886 503.182C247.844 500.379 241.241 497.339 237.898 492.427C233.487 485.955 240.41 478.514 244.291 473.867C250.264 466.709 256.566 459.826 262.667 452.778C273.627 440.133 283.354 426.85 289.875 411.329C293.223 403.592 295.343 395.38 296.159 386.99C296.953 377.979 296.159 368.923 294.971 359.976C293.346 347.559 291.455 335.326 290.898 322.964C289.243 318.735 287.816 314.419 286.624 310.037C286.127 321.245 286.656 332.476 288.204 343.588V343.588ZM375.279 411.941C372.439 414.264 369.38 416.306 366.146 418.04C369.687 416.872 372.844 414.764 375.279 411.941V411.941ZM456.492 455.133C456.687 455.113 456.88 455.073 457.067 455.014L456.519 454.594C456.51 454.768 456.501 454.941 456.492 455.124V455.133ZM371.553 409.43L371.37 409.631L373.416 410.179L373.48 410.124L373.115 409.759L371.553 409.43ZM327.476 434.993L331.559 435.523C331.266 434.079 331.309 432.587 331.685 431.163C332.06 429.738 332.757 428.419 333.723 427.306C330.966 429.249 328.803 431.92 327.476 435.021V434.993ZM377.179 406.463L375.891 406.135L375.636 408.034C376.159 407.553 376.674 407.029 377.179 406.463ZM463.15 423.499C462.931 426.357 462.995 429.223 462.858 432.081C462.693 435.733 462.428 439.33 462.145 442.945L467.077 423.937L463.671 419.482C463.411 420.824 463.237 422.181 463.15 423.545V423.499ZM377.398 406.281L377.188 406.509L377.791 406.673C377.682 406.522 377.55 406.39 377.398 406.281V406.281ZM374.403 410.444L373.572 410.216L373.855 410.499L374.403 410.444ZM375.8 409.723C375.73 409.514 375.628 409.317 375.499 409.138L375.444 409.513L375.8 409.723ZM377.791 406.664C378.777 406.929 379.755 407.221 380.732 407.577L377.837 405.852L377.398 406.317C377.544 406.416 377.673 406.536 377.782 406.673L377.791 406.664ZM381.947 407.942C384.257 405.322 386.422 402.556 388.495 399.78C390.221 397.48 386.34 395.216 384.641 397.525C382.517 400.398 380.246 403.159 377.837 405.797L380.732 407.522L381.947 407.942ZM456.017 450.851C457.067 451.71 456.592 450.44 456.674 450.851C456.278 450.673 455.893 450.469 455.524 450.24C455.012 450.906 455.168 451.125 455.989 450.888L456.017 450.851ZM459.853 416.342C458.218 421.819 458.666 427.662 458.328 433.304C458.118 436.801 457.752 440.288 457.414 443.767C458.328 440.033 459.241 436.281 460.246 432.556L462.666 423.225C462.986 421.984 463.241 420.623 463.515 419.272L460.309 415.109C460.135 415.524 459.982 415.947 459.853 416.378V416.342ZM464.155 417.528C464.344 416.808 464.61 416.11 464.949 415.447L464.712 414.753C464.172 416.217 463.763 417.727 463.488 419.263L463.661 419.482C463.661 419.418 463.661 419.345 463.661 419.272C463.835 418.733 463.981 418.14 464.164 417.565L464.155 417.528ZM460.291 415.109L463.497 419.272C463.772 417.736 464.181 416.227 464.721 414.762L464.958 415.456C464.619 416.119 464.353 416.817 464.164 417.538C463.981 418.113 463.835 418.706 463.707 419.3C463.707 419.363 463.707 419.436 463.707 419.51L467.114 423.965L467.169 423.764C467.506 422.477 468.201 420.66 468.694 418.761C466.782 416.272 464.864 413.782 462.94 411.293C461.771 412.355 460.864 413.674 460.291 415.146V415.109ZM419.292 157.491C394.633 222.046 387.838 298.241 422.37 360.633C433.138 380.097 446.765 397.589 460.3 415.146C460.865 413.684 461.759 412.372 462.912 411.311C456.419 402.912 449.916 394.513 443.778 385.867C434.645 373.086 426.224 359.674 419.621 345.368C412.515 329.967 408.141 313.634 405.62 296.89C400.277 261.404 403.501 224.721 413.063 190.22C417.849 172.975 423.731 155.345 432.134 139.496C433.417 136.893 434.911 134.399 436.6 132.038C434.773 132.147 432.883 132.129 431.12 132.238C430.681 132.941 430.27 133.644 429.878 134.338C425.767 141.776 422.228 149.516 419.292 157.491V157.491ZM374.896 405.934L375.937 405.833L375.891 406.171L377.179 406.5L377.389 406.272C377.131 406.092 376.839 405.968 376.531 405.906L365.982 403.724L366.621 404.126C369.379 404.72 372.147 405.277 374.896 405.934ZM377.389 406.281L377.828 405.815C347.085 387.373 317.786 366.275 300.789 334.029C296.551 325.994 293.256 317.496 290.971 308.704C290.731 313.454 290.731 318.214 290.971 322.964C296.355 336.685 303.972 349.422 313.512 360.66C328.234 378.006 346.756 391.628 365.954 403.706L376.531 405.916C376.842 405.976 377.138 406.1 377.398 406.281H377.389ZM365.982 403.724L359.936 402.455C362.137 403.095 364.374 403.633 366.621 404.126L365.982 403.724ZM358.73 406.463C362.53 406.582 366.329 406.463 370.156 406.262L366.621 404.071C364.374 403.578 362.137 403.04 359.936 402.401L343.651 399.032C348.137 402.48 353.262 405.005 358.73 406.463ZM318.078 395.818C324.989 396.671 332.003 396.049 338.655 393.992C338.263 393.518 337.888 393.025 337.514 392.522L340.034 393.545L338.655 393.992C340.153 395.834 341.84 397.514 343.688 399.004L359.963 402.419C357.871 401.82 355.821 401.085 353.826 400.219C348.869 398.056 344.572 394.623 341.368 390.267C341.111 389.851 340.728 389.528 340.275 389.344C339.822 389.16 339.321 389.126 338.847 389.245C329.294 392.532 320.142 392.157 310.534 389.665C312.744 392.063 315.284 394.135 318.078 395.818V395.818ZM306.059 391.317C304.993 390.66 304.911 389.975 305.812 389.263C306.056 388.253 306.531 388.07 307.237 388.715C308.04 388.884 308.825 389.126 309.584 389.437L310.498 389.683C310.071 389.215 309.66 388.731 309.265 388.232C307.438 385.967 303.977 383.831 302.278 387.647C300.871 390.797 304.351 392.486 306.79 393.289L308.032 393.682C307.251 392.998 306.577 392.201 306.032 391.317H306.059ZM290.971 308.704C289.721 303.898 288.769 299.02 288.121 294.097C287.397 299.38 286.91 304.69 286.66 310.028C287.852 314.41 289.279 318.726 290.934 322.955C290.707 318.207 290.719 313.451 290.971 308.704V308.704ZM462.109 443.119V442.991C462.392 439.339 462.657 435.76 462.821 432.127C462.949 429.269 462.894 426.402 463.113 423.545C463.203 422.196 463.377 420.855 463.634 419.528L463.46 419.309C463.186 420.66 462.94 422.048 462.611 423.262L460.191 432.592C459.223 436.326 458.309 440.069 457.359 443.803C457.085 446.542 456.811 449.281 456.638 452.02C456.583 452.866 456.531 453.715 456.483 454.567L457.031 454.987C457.34 454.891 457.63 454.743 457.889 454.549C460.903 452.358 461.259 446.396 462.109 443.119ZM457.396 443.812C457.018 445.304 456.632 446.795 456.236 448.286C456.117 448.715 456.008 449.199 455.862 449.573L455.725 449.993L455.533 450.231C455.903 450.459 456.287 450.664 456.684 450.842C456.601 450.468 457.076 451.755 456.026 450.842C455.177 451.08 455.021 450.842 455.533 450.185H455.478C451.386 447.912 447.505 445.2 443.605 442.662C430.554 434.199 417.466 425.763 403.821 418.277C397.287 414.59 390.521 411.333 383.563 408.527C383.034 408.317 382.504 408.125 381.974 407.942L381.791 408.143C393.509 415.073 405.373 421.664 416.781 428.393C430.417 436.436 443.979 444.89 456.556 454.576C456.604 453.73 456.656 452.881 456.711 452.029C456.848 449.29 457.113 446.551 457.396 443.812V443.812ZM497.162 508.295C504.427 522.898 507.695 539.164 506.633 555.44C506.441 558.179 510.149 558.179 511.017 556.033C523.411 525.476 514.177 492.236 499.308 464.345C490.659 448.112 479.818 433.304 468.657 418.788C468.164 420.687 467.461 422.504 467.132 423.791L467.077 423.992C470.831 428.922 474.539 433.879 478.128 438.91C497.034 465.386 514.552 497.622 512.268 531.192C512.042 534.465 511.596 537.719 510.935 540.933C511.38 545.756 511.432 550.608 511.09 555.44L506.706 554.846C508.539 550.348 509.954 545.69 510.935 540.933C508.533 514.813 494.933 490.848 476.484 472.123C471.573 467.168 466.389 462.49 460.958 458.109C460.848 459.844 460.754 461.585 460.675 463.331C475.58 475.848 488.394 490.355 497.162 508.295V508.295ZM290.98 308.594C291.884 293.529 294.777 278.65 299.584 264.343C309.21 235.412 325.988 209.109 346.793 186.934C357.332 175.691 368.903 165.46 381.353 156.377C388.159 151.416 395.338 146.987 402.825 143.13C410.872 138.985 419.904 133.882 428.937 132.448C429.631 132.339 430.362 132.266 431.111 132.22C432.099 130.608 433.221 129.081 434.463 127.655H433.997C430.601 127.706 427.225 128.188 423.95 129.089C415.876 131.481 408.058 135.415 400.597 139.259C393.109 143.116 385.93 147.545 379.125 152.506C367.099 161.239 355.867 171.015 345.56 181.721C325.293 202.874 308.735 227.642 298.214 254.976C293.366 267.592 289.995 280.725 288.167 294.115C288.815 299.038 289.767 303.916 291.017 308.722L290.98 308.594ZM462.109 443.119C461.259 446.405 460.903 452.358 457.926 454.576C457.667 454.77 457.376 454.918 457.067 455.014C458.382 456.031 459.685 457.062 460.976 458.109C461.305 453.061 461.743 448.067 462.145 443L462.109 443.119ZM460.976 458.109C459.685 457.062 458.382 456.031 457.067 455.014C456.88 455.073 456.687 455.113 456.492 455.133C456.413 456.667 456.343 458.188 456.282 459.698C457.774 460.879 459.244 462.078 460.693 463.295C460.766 461.572 460.861 459.844 460.976 458.109V458.109ZM373.471 410.115L373.736 409.878L373.106 409.741L373.471 410.115ZM434.371 442.069C439.568 445.419 444.728 448.843 449.971 452.111C451.66 453.17 454.263 455.37 456.501 455.151C456.501 454.969 456.501 454.795 456.501 454.613C443.952 444.899 430.417 436.445 416.717 428.374C405.309 421.646 393.445 415.054 381.727 408.125C380.729 409.251 379.703 410.346 378.65 411.412L379.81 412.096C383.397 413.292 386.908 414.706 390.322 416.332C405.675 423.691 420.114 432.857 434.362 442.069H434.371ZM378.449 411.676L379.837 412.133L378.677 411.448L378.449 411.676ZM449.962 452.111C444.719 448.825 439.568 445.401 434.362 442.069C420.105 432.893 405.675 423.727 390.358 416.396C386.944 414.77 383.434 413.355 379.846 412.16C405.108 427.014 432.91 441.201 456.282 459.753C456.343 458.219 456.413 456.697 456.492 455.188C454.254 455.343 451.651 453.143 449.962 452.111ZM310.498 389.692L309.584 389.446C308.825 389.135 308.04 388.893 307.237 388.725C306.531 388.079 306.056 388.262 305.812 389.272C304.911 389.984 304.993 390.669 306.059 391.327C306.596 392.205 307.261 392.999 308.032 393.682C311.31 394.693 314.672 395.408 318.078 395.818C315.273 394.146 312.721 392.084 310.498 389.692V389.692ZM864.472 285.186C855.512 252.895 841.703 221.699 822.011 194.475C803.745 169.195 779.588 149.183 751.859 134.968C724.131 120.753 693.854 112.254 663.185 107.579C626.936 101.986 590.246 99.7704 553.587 100.96C535.499 101.56 517.459 103.151 499.546 105.726C490.632 107.01 481.776 108.581 472.977 110.437C464.072 112.327 455.314 114.618 446.281 115.915C428.252 118.471 409.748 118.973 392.34 124.734C378.485 129.299 365.434 136.876 353.689 145.467C309.429 177.831 277.719 233.001 282.833 288.893C283.491 296.042 284.772 303.119 286.66 310.046C286.91 304.714 287.397 299.404 288.121 294.115C282.769 253.488 297.903 211.246 324.408 179.137C342.345 157.482 366.484 137.926 393.528 129.016C410.543 123.447 428.59 122.808 446.171 120.388C463.753 117.969 481.106 112.957 498.788 110.346C534.718 104.968 571.305 104.028 607.537 106.192C640.928 108.182 674.684 112.235 706.814 121.858C736.123 130.641 764.308 144.226 787.798 164.018C812.814 185.099 831.154 212.953 844.488 242.606C871.212 302.021 877.751 369.671 871.395 434.016C865.348 495.239 846.424 555.914 812.796 607.707C796.112 633.535 775.645 656.714 752.079 676.47C725.318 698.792 694.905 716.348 663.487 731.303C631.246 746.659 597.837 759.513 564.437 772.103C528.105 785.797 491.481 798.712 454.565 810.849C440.299 815.547 425.99 820.112 411.639 824.543C408.783 827.099 405.818 829.555 402.743 831.911L401.026 827.83C404.57 826.74 408.11 825.645 411.648 824.543C436.472 802.294 452.747 772.395 462.136 740.396C473.425 701.832 475.315 661.124 472.749 621.218C469.479 570.357 459.908 519.88 460.529 468.754C460.529 466.929 460.611 465.103 460.684 463.277C459.235 462.059 457.764 460.86 456.273 459.68C455.852 470.635 455.989 481.654 456.464 492.619C457.624 519.515 460.867 546.265 463.771 573.005C468.849 619.173 472.521 665.698 464.218 711.729C457.113 751.132 441.523 790.325 411.94 818.298C408.286 821.75 404.451 825.005 400.451 828.049C398.624 829.464 399.537 832.933 402.168 832.13C476.64 809.306 550.518 783.661 622.588 754.044C685.297 728.281 746.544 696.227 791.223 643.914C831.62 596.614 857.202 538.011 869.367 477.263C882.035 414.342 881.688 347.258 864.472 285.186ZM380.723 407.522L381.755 408.134L381.938 407.933L380.723 407.522ZM337.532 403.505L337.331 403.451C336.153 403.131 334.956 402.802 333.751 402.437C333.746 404.044 333.859 405.649 334.089 407.239C334.832 407.452 335.574 407.653 336.317 407.842C336.276 406.313 336.7 404.807 337.532 403.524V403.505ZM333.751 402.446C328.265 400.916 322.997 398.689 318.078 395.818C314.672 395.408 311.31 394.693 308.032 393.682C308.735 394.33 309.493 394.933 310.169 395.508C313.289 398.081 316.709 400.27 320.352 402.026C324.755 404.174 329.34 405.928 334.052 407.267C333.834 405.673 333.733 404.064 333.751 402.455V402.446ZM375.279 411.941C372.844 414.764 369.687 416.872 366.146 418.04C361.132 420.642 355.689 422.139 350.145 421.162C344.364 422.467 338.363 423.983 333.705 427.315C332.739 428.428 332.042 429.747 331.666 431.172C331.291 432.596 331.248 434.088 331.541 435.532L327.458 435.002C328.785 431.902 330.947 429.231 333.705 427.288C334.976 425.72 336.551 424.425 338.336 423.481C339.711 422.765 341.163 422.208 342.665 421.819C340.942 421.231 339.444 420.12 338.381 418.642C331.175 421.71 325.303 428.393 327.23 436.719C327.632 438.453 330.536 439.047 331.312 437.248C336.6 424.951 353.013 426.393 363.498 422.038C369.109 419.588 374.183 416.058 378.43 411.649C377.566 411.369 376.695 411.101 375.818 410.846C375.729 411.248 375.544 411.624 375.279 411.941V411.941ZM342.674 421.847C344.241 421.435 345.833 421.13 347.441 420.934L347.56 420.852L347.862 420.614C347.12 420.394 346.391 420.132 345.679 419.829C344.266 419.227 342.935 418.451 341.715 417.519C340.583 417.814 339.475 418.193 338.4 418.651C339.461 420.133 340.959 421.246 342.683 421.838L342.674 421.847ZM336.865 411.147C336.497 410.093 336.309 408.985 336.308 407.869C335.559 407.675 334.816 407.474 334.08 407.267C334.554 410.743 335.675 414.1 337.386 417.163C337.685 417.688 338.021 418.192 338.39 418.67C339.466 418.211 340.574 417.833 341.706 417.538C339.512 415.914 337.834 413.692 336.874 411.138L336.865 411.147ZM376.531 410.115C376.346 410.189 376.153 410.238 375.955 410.261V410.261C375.962 410.448 375.943 410.636 375.901 410.818C376.777 411.074 377.648 411.342 378.513 411.622L378.741 411.393L376.531 410.115ZM338.171 402.437L335.431 401.871L338.253 399.717C338.18 400.63 338.141 401.542 338.135 402.455L338.39 402.51C338.897 402.078 339.479 401.744 340.108 401.524C343.076 400.483 345.587 401.908 347.414 404.418L357.351 406.463L358.748 406.518C353.28 405.045 348.158 402.504 343.679 399.041L336.71 397.58C336.379 397.498 336.034 397.491 335.7 397.56C335.366 397.63 335.052 397.773 334.781 397.98C334.51 398.187 334.289 398.452 334.134 398.756C333.98 399.059 333.896 399.394 333.888 399.735C333.815 400.648 333.778 401.561 333.778 402.474C334.984 402.83 336.18 403.168 337.358 403.487L337.559 403.542C337.758 403.253 337.985 402.984 338.235 402.738C338.171 402.629 338.171 402.538 338.171 402.437ZM338.171 402.72C337.921 402.966 337.694 403.235 337.495 403.524L338.199 403.697C338.18 403.375 338.171 403.049 338.171 402.72ZM371.307 409.385L372.083 408.782C372.424 408.5 372.834 408.311 373.27 408.234L372.731 407.906L370.137 406.308C366.32 406.545 362.511 406.628 358.712 406.509C360.179 406.941 361.68 407.334 363.214 407.687L371.307 409.385ZM363.187 407.687C361.653 407.328 360.152 406.935 358.684 406.509L357.351 406.463L363.187 407.687ZM338.235 403.724L337.532 403.551C336.693 404.839 336.266 406.351 336.308 407.888C337.157 408.107 337.998 408.317 338.856 408.508C338.501 406.937 338.293 405.335 338.235 403.724V403.724ZM350.044 416.862C349.472 416.756 348.907 416.609 348.355 416.424C346.12 416.622 343.904 416.989 341.724 417.519V417.519C342.944 418.451 344.275 419.227 345.688 419.829C346.4 420.132 347.129 420.394 347.871 420.614C348.968 419.62 349.728 418.308 350.044 416.862V416.862ZM348.355 416.424C347.595 416.168 346.863 415.835 346.172 415.429C346.032 416.323 345.386 416.731 344.236 416.652C343.067 417.394 342.248 417.111 341.779 415.803C341.378 415.164 341.016 414.503 340.692 413.822C339.995 412.357 339.441 410.828 339.039 409.257C338.966 408.992 338.911 408.727 338.847 408.463C337.998 408.271 337.148 408.061 336.299 407.842C336.3 408.958 336.488 410.066 336.856 411.119C337.82 413.671 339.501 415.89 341.697 417.51V417.51C343.889 416.981 346.117 416.618 348.364 416.424H348.355ZM373.727 409.887L375.343 410.225L375.435 409.522L374.64 409.047L373.727 409.887ZM373.307 408.234C372.87 408.311 372.461 408.5 372.119 408.782L373.097 409.759L373.727 409.896L374.64 409.047L373.307 408.234ZM377.782 406.673C377.949 406.977 378.048 407.313 378.075 407.659C378.101 408.004 378.054 408.352 377.935 408.677C377.817 409.003 377.63 409.3 377.388 409.548C377.146 409.796 376.854 409.989 376.531 410.115L378.695 411.402C379.755 410.337 380.781 409.242 381.773 408.116L380.741 407.504C379.755 407.23 378.777 406.938 377.782 406.673V406.673ZM375.49 409.147L375.636 408.088L375.033 408.673C375.207 408.805 375.361 408.962 375.49 409.138V409.147ZM373.307 408.234C373.609 408.184 373.919 408.198 374.216 408.273C374.513 408.348 374.791 408.484 375.033 408.673L375.636 408.088L375.891 406.189L374.896 405.943C373.313 406.089 371.733 406.211 370.156 406.308L372.768 407.906L373.307 408.234ZM375.033 408.673L374.649 409.047L375.444 409.522L375.499 409.147C375.368 408.967 375.211 408.807 375.033 408.673V408.673ZM353.625 420.359H353.698L355.214 420.002C361.802 418.365 367.885 415.129 372.923 410.581C371.985 410.654 371.045 410.718 370.101 410.773C368.092 412.425 365.763 413.643 363.26 414.351C358.949 416.405 354.227 417.665 350.008 416.871C349.69 418.322 348.927 419.637 347.825 420.632L348.501 420.824C350.245 420.623 351.962 420.505 353.625 420.349V420.359ZM375.444 409.522L375.353 410.225L373.736 409.887L373.471 410.124L373.562 410.216L374.394 410.444L375.891 410.307C375.886 410.108 375.852 409.912 375.791 409.723L375.444 409.522ZM377.791 406.673L377.188 406.509C376.683 407.045 376.168 407.568 375.645 408.079L375.499 409.138C375.628 409.317 375.73 409.514 375.8 409.723L376.522 410.161C376.852 410.037 377.151 409.842 377.398 409.592C377.646 409.341 377.836 409.039 377.956 408.708C378.076 408.376 378.123 408.023 378.092 407.671C378.062 407.32 377.956 406.98 377.782 406.673H377.791ZM373.846 410.499L375.289 411.941C375.556 411.634 375.747 411.268 375.846 410.873L374.403 410.453L373.846 410.499ZM375.901 410.307C376.119 410.274 376.331 410.21 376.531 410.115L375.809 409.677C375.869 409.881 375.897 410.094 375.891 410.307H375.901ZM375.846 410.864C375.889 410.681 375.907 410.494 375.901 410.307L374.403 410.444L375.846 410.864ZM347.451 420.906C345.843 421.102 344.25 421.407 342.683 421.819C343.49 422.054 344.34 422.097 345.166 421.945C345.992 421.793 346.772 421.45 347.441 420.943L347.451 420.906ZM347.871 420.587L347.569 420.824L347.451 420.906L348.537 420.779L347.871 420.587ZM372.969 410.544C367.93 415.093 361.848 418.329 355.259 419.966L353.743 420.322C357.954 420.068 362.117 419.292 366.137 418.012C369.371 416.279 372.43 414.236 375.27 411.914L373.827 410.471L372.969 410.544ZM353.634 420.331C351.962 420.477 350.254 420.605 348.547 420.788C349.076 420.925 349.606 421.034 350.127 421.135L353.78 420.322L353.634 420.331ZM350.127 421.135C355.67 422.111 361.086 420.614 366.128 418.012C362.097 419.301 357.922 420.083 353.698 420.34L350.127 421.135ZM370.832 405.678C367.37 405.587 363.909 405.313 360.465 404.939L357.625 404.601L356.977 404.519H357.068H356.776L355.323 404.309C353.405 404.029 351.497 403.724 349.597 403.396C341.945 402.051 334.398 400.168 327.011 397.763C325.074 397.154 323.156 396.466 321.257 395.7L319.896 395.152L319.284 394.905H319.192L318.982 394.814C318.13 394.449 317.281 394.068 316.434 393.673L315.905 397.754C316.032 397.754 316.169 397.754 316.297 397.69C316.297 397.69 315.722 397.754 316.105 397.69H316.306C316.605 397.69 316.909 397.669 317.22 397.626C317.871 397.591 318.523 397.591 319.174 397.626L320.088 397.708C320.269 397.713 320.449 397.735 320.626 397.772C320.626 397.772 320.161 397.699 320.416 397.772L320.727 397.818C321.412 397.927 322.106 398.055 322.782 398.21C325.753 398.908 328.676 399.799 331.531 400.876C337.231 402.939 342.847 405.441 348.793 406.728C351.925 407.483 355.175 407.61 358.356 407.102C358.869 406.951 359.311 406.622 359.602 406.173C359.893 405.724 360.013 405.186 359.941 404.656C359.87 404.127 359.61 403.64 359.21 403.285C358.811 402.93 358.297 402.729 357.762 402.72C356.996 402.72 356.231 402.677 355.47 402.592C355.068 402.592 355.944 402.665 355.47 402.592L354.912 402.501C354.541 402.434 354.173 402.355 353.807 402.264C353.078 402.087 352.358 401.871 351.652 401.616C351.335 401.46 351.005 401.331 350.665 401.232C350.665 401.232 351.159 401.451 350.812 401.287L350.556 401.168L350.044 400.931C348.698 400.274 347.412 399.501 346.199 398.621L345.734 398.283C345.295 397.955 345.98 398.484 345.67 398.238C345.359 397.991 345.03 397.726 344.756 397.462C344.184 396.975 343.63 396.47 343.094 395.946C342.558 395.423 341.949 394.79 341.267 394.047C340.993 393.737 340.726 393.432 340.464 393.134L340.053 392.623L339.87 392.395C339.596 392.048 340.153 392.76 339.87 392.395L336.363 395.134C341.34 401.077 348.373 405.879 356.164 407.002C358.416 407.353 360.705 407.393 362.968 407.121C363.556 407.098 364.117 406.865 364.548 406.463C364.965 406.043 365.201 405.476 365.206 404.884C365.16 403.807 364.21 402.492 362.977 402.656C361.159 402.894 359.319 402.912 357.497 402.711H357.214C356.721 402.656 357.634 402.775 357.314 402.711L356.675 402.611C356.206 402.532 355.74 402.437 355.278 402.328C354.394 402.118 353.522 401.862 352.666 401.561C352.258 401.421 351.856 401.269 351.46 401.104L351.195 400.995L351.332 401.05L350.611 400.721C349.777 400.331 348.964 399.902 348.172 399.434C347.381 398.965 346.626 398.475 345.907 397.964L345.313 397.535L345.076 397.361C344.674 397.069 345.377 397.599 345.076 397.361C344.775 397.124 344.345 396.777 343.989 396.448C342.371 395.075 340.874 393.566 339.514 391.938C339.13 391.541 338.612 391.3 338.061 391.261C337.509 391.223 336.963 391.39 336.527 391.73C336.092 392.07 335.797 392.56 335.701 393.104C335.605 393.648 335.714 394.208 336.007 394.677C340.098 400.027 345.469 404.72 352.09 406.546C353.957 407.053 355.882 407.31 357.817 407.312L357.223 402.93L356.812 403.003C356.41 403.076 357.296 402.948 356.812 403.003L355.899 403.085C355.254 403.119 354.608 403.119 353.963 403.085C353.323 403.085 352.684 402.994 352.045 402.921H352.264H352.035L351.506 402.839L350.51 402.656C347.625 402.027 344.789 401.188 342.025 400.146C336.235 398.064 330.545 395.581 324.526 394.148C321.357 393.297 318.047 393.101 314.799 393.572C314.38 393.694 314.005 393.936 313.721 394.268C313.437 394.599 313.256 395.007 313.2 395.44C313.143 395.873 313.215 396.313 313.405 396.706C313.595 397.099 313.895 397.428 314.27 397.653C321.085 400.699 328.17 403.104 335.431 404.838C343.151 406.807 350.992 408.265 358.904 409.202C362.858 409.677 366.84 410.015 370.832 410.115C371.42 410.108 371.983 409.871 372.4 409.455C372.816 409.039 373.053 408.476 373.06 407.888C373.048 407.3 372.81 406.741 372.394 406.325C371.979 405.91 371.419 405.672 370.832 405.66V405.678ZM333.203 395.252C335.892 394.57 338.446 393.437 340.756 391.902C343.094 390.395 345.505 388.469 346.811 385.949C347.028 385.564 347.127 385.123 347.097 384.682C347.066 384.24 346.906 383.818 346.638 383.466C346.373 383.112 346.007 382.845 345.588 382.702C345.169 382.559 344.717 382.545 344.291 382.663C342.862 383.212 341.59 384.103 340.586 385.259C339.583 386.415 338.879 387.799 338.537 389.291C338.183 390.776 338.145 392.319 338.423 393.821C338.701 395.322 339.291 396.749 340.153 398.009C342.045 400.67 344.688 402.708 347.743 403.861C351.094 405.047 354.61 405.703 358.164 405.806C360.118 405.943 362.082 406.043 364.027 406.253L364.712 406.336C364.959 406.336 364.886 406.253 364.63 406.336C364.744 406.334 364.858 406.349 364.968 406.381C365.449 406.454 365.93 406.536 366.411 406.628C367.4 406.82 368.376 407.073 369.334 407.385V403.085C368.084 403.48 366.809 403.785 365.516 403.998C365.406 403.998 364.831 404.117 365.434 403.998H365.096L364.082 404.099C363.473 404.154 362.849 404.187 362.21 404.199C360.896 404.23 359.582 404.187 358.273 404.071L357.424 403.989L356.913 403.925C356.803 403.925 356.228 403.871 356.821 403.925C356.207 403.859 355.597 403.758 354.995 403.624C352.556 403.168 350.154 402.483 347.761 401.798C345.368 401.113 342.948 400.41 340.582 399.616C339.267 399.178 337.97 398.703 336.683 398.21L335.623 397.79L335.322 397.662H335.404L335.112 397.535C334.503 397.261 333.876 396.978 333.23 396.686C332.977 396.538 332.697 396.441 332.407 396.401C332.116 396.361 331.821 396.378 331.537 396.453C331.253 396.527 330.987 396.656 330.753 396.833C330.52 397.01 330.323 397.231 330.175 397.484C330.027 397.737 329.93 398.017 329.89 398.307C329.85 398.598 329.868 398.893 329.942 399.177C330.016 399.46 330.146 399.727 330.323 399.96C330.5 400.194 330.721 400.39 330.974 400.538C335.757 402.714 340.712 404.488 345.788 405.843C350.903 407.285 356.045 408.581 361.397 408.581C364.488 408.599 367.566 408.162 370.53 407.285C370.998 407.148 371.409 406.865 371.703 406.477C371.997 406.089 372.159 405.617 372.165 405.13C372.152 404.645 371.988 404.177 371.694 403.79C371.401 403.404 370.994 403.119 370.53 402.976C367.259 402.039 363.885 401.511 360.484 401.406C358.885 401.296 357.287 401.205 355.698 401.04L355.104 400.976H354.848C354.766 400.976 354.401 400.913 354.721 400.976H354.428L353.753 400.867C352.94 400.73 352.136 400.566 351.341 400.356C350.576 400.153 349.822 399.906 349.085 399.616L348.848 399.525L349.049 399.607C348.912 399.525 348.748 399.47 348.611 399.406C348.294 399.254 347.989 399.096 347.697 398.931C347.128 398.612 346.579 398.259 346.053 397.872C345.734 397.644 346.437 398.183 346.053 397.872L345.679 397.553C345.435 397.34 345.201 397.118 344.975 396.886C344.75 396.655 344.534 396.415 344.327 396.165L344.199 396.001C344.044 395.818 344.345 396.193 344.336 396.183C344.245 396.028 344.117 395.882 344.017 395.736C343.916 395.59 343.669 395.197 343.523 394.924L343.304 394.494L343.213 394.312C343.085 394.038 343.213 394.376 343.277 394.467C343.094 393.855 342.902 393.262 342.747 392.641C342.692 392.413 342.747 392.952 342.747 392.933C342.747 392.915 342.747 392.806 342.747 392.751C342.747 392.696 342.747 392.468 342.747 392.322C342.73 392.018 342.73 391.713 342.747 391.409C342.747 391.299 342.82 390.733 342.747 391.153C342.674 391.573 342.747 390.989 342.793 390.897C342.852 390.589 342.928 390.284 343.021 389.984C343.067 389.829 343.131 389.674 343.185 389.519C343.24 389.364 343.368 389.208 343.103 389.711C343.103 389.638 343.167 389.565 343.204 389.491C343.341 389.196 343.496 388.909 343.669 388.633C343.752 388.496 343.852 388.369 343.943 388.232C344.035 388.095 344.126 387.994 343.943 388.232C343.761 388.469 343.943 388.232 343.998 388.177C344.207 387.936 344.433 387.71 344.674 387.501L344.811 387.383C344.994 387.2 344.428 387.647 344.647 387.51C344.866 387.373 344.912 387.328 345.049 387.246L345.469 387.008L345.633 386.926C346.035 386.725 345.122 387.127 345.551 386.926L343.03 383.649C342.905 383.893 342.768 384.13 342.619 384.361L342.391 384.689C342.044 385.173 342.637 384.406 342.391 384.689C342.015 385.137 341.616 385.563 341.194 385.967C340.969 386.18 340.741 386.384 340.509 386.579L340.098 386.926C339.952 387.045 339.614 387.163 340.098 386.926C339.827 387.097 339.568 387.286 339.322 387.492C339.036 387.693 338.731 387.888 338.409 388.076C337.302 388.77 336.145 389.38 334.947 389.902L334.728 390.003C335.103 389.838 334.582 390.058 334.518 390.085L333.696 390.386C333.154 390.576 332.602 390.737 332.043 390.87C331.476 391.032 330.996 391.409 330.704 391.921C330.412 392.433 330.332 393.039 330.481 393.609C330.649 394.171 331.028 394.648 331.538 394.938C332.048 395.229 332.651 395.312 333.221 395.17L333.203 395.252ZM327.074 397.078C324.745 401.798 330.609 403.049 333.723 402.775C336.838 402.501 348.044 401.451 343.414 395.846C341.414 393.806 338.73 392.576 335.879 392.395C333.605 392.632 328.125 394.978 327.065 397.106L327.074 397.078Z" fill="#665346"/>
</g>
<defs>
<clipPath id="clip0_1267:9459">
<rect width="752" height="758" fill="white" transform="translate(752 867) rotate(-180)"/>
</clipPath>
<clipPath id="clip1_1267:9459">
<rect width="646" height="1059" fill="white" transform="translate(203)"/>
</clipPath>
</defs>
</svg>
