<svg width="525" height="651" viewBox="0 0 525 651" fill="none" xmlns="http://www.w3.org/2000/svg">
<path opacity="0.5" d="M259.353 471.413C239.28 571.527 62.3895 663.017 8.37191 541.214C2.41383 526.169 -0.417346 510.077 0.0496539 493.911C0.516653 477.745 4.27212 461.842 11.0889 447.162C36.6505 391.451 101.27 350.416 163.15 353.751C208.617 356.202 247.32 387.829 258.177 429.24C261.788 443.025 262.19 457.449 259.353 471.413ZM493 580.461C491.725 554.62 479.382 533.374 457.058 519.725C402.043 484.83 321.255 551.175 360.135 616.792C399.869 678.455 491.514 650.958 493 580.461ZM377.424 158.988C380.751 98.7604 346.14 32.194 283.295 43.2037C228.69 52.7669 182.612 111.89 192.282 166.95C203.372 229.894 275.532 270.907 333.686 239.833C361.521 224.958 375.527 192.989 377.424 158.988Z" fill="#F4E8E1"/>
<path opacity="0.6" d="M291.353 429.413C271.28 529.527 94.3895 621.017 40.3719 499.214C34.4138 484.169 31.5827 468.077 32.0497 451.911C32.5167 435.745 36.2721 419.842 43.0889 405.162C68.6505 349.451 133.27 308.416 195.15 311.751C240.617 314.202 279.32 345.829 290.177 387.24C293.788 401.025 294.19 415.449 291.353 429.413ZM525 538.461C523.725 512.62 511.382 491.374 489.058 477.725C434.043 442.83 353.255 509.175 392.135 574.792C431.869 636.455 523.514 608.958 525 538.461ZM409.424 116.988C412.751 56.7604 378.14 -9.80598 315.295 1.20375C260.69 10.7669 214.612 69.8903 224.282 124.95C235.372 187.894 307.532 228.907 365.686 197.833C393.521 182.958 407.527 150.989 409.424 116.988Z" fill="#DF936D"/>
</svg>
