<svg width="672" height="775" viewBox="0 0 672 775" fill="none" xmlns="http://www.w3.org/2000/svg">
<g clip-path="url(#clip0_818:7538)">
<path opacity="0.1" d="M171.89 489.642C106.81 448.852 26.8303 428.342 -52.8397 416.532C-78.8397 412.682 -105.95 409.732 -130.9 416.282C-148.9 421.002 -164.47 430.352 -179.71 439.562C-202.91 453.562 -227.09 468.562 -238.8 490.442C-246.25 504.362 -247.99 519.962 -249.2 535.262C-250.59 552.782 -251.2 571.262 -241.85 587.112C-225.41 615.002 -185.15 625.412 -149.94 635.342C-79.8397 655.092 -13.3297 684.002 46.4403 720.752C70.8403 735.752 94.3603 752.152 121.56 763.222C148.76 774.292 180.87 779.552 208.91 770.932C233.91 763.242 252.72 745.382 264.48 725.452C314.88 640.072 258.73 544.062 171.89 489.642Z" fill="#DF936D"/>
<path opacity="0.2" d="M-41.9499 350.689C-16.7199 352.399 8.6001 352.339 33.8901 352.279L107.89 352.099C127.68 352.099 148.34 351.799 165.89 342.719C182.52 334.119 194.4 318.599 204.31 302.719C209.2 294.889 213.8 286.719 216.37 277.889C223.66 252.789 213.7 225.769 199.66 203.729C169.16 155.659 120.16 122.459 70.6601 94.3087C61.4201 89.0587 51.9901 83.8887 41.6601 81.2487C28.5101 77.8587 14.6001 78.7987 1.1601 80.7787C-91.9199 94.4587 -173.39 157.189 -223.49 236.779C-231.3 249.199 -249.35 278.099 -241.81 293.779C-234.89 308.189 -199.28 316.049 -184.9 321.109C-138.802 337.37 -90.7158 347.32 -41.9499 350.689Z" fill="#C28566"/>
<path d="M443.79 569.652C495.79 551.782 542.4 521.542 588.46 491.652C611.06 476.962 634.17 461.802 650.16 440.102C660.067 426.672 666.864 411.207 670.057 394.827C673.25 378.447 672.759 361.561 668.621 345.394C664.483 329.227 656.801 314.182 646.131 301.35C635.461 288.518 622.071 278.22 606.93 271.202C586.15 261.562 562.93 258.492 540.04 257.522C484.45 255.162 422.96 267.762 389.04 311.842C365.31 342.652 358.98 383.842 337.04 415.922C321.27 439.012 297.82 456.852 286.04 482.212C280.593 494.213 277.995 507.311 278.448 520.482C278.901 533.654 282.392 546.543 288.65 558.142C299.2 577.322 326.76 602.662 350.79 601.262C364.08 600.482 380.62 589.332 393.69 585.062C410.29 579.622 427.25 575.332 443.79 569.652Z" fill="white"/>
<path opacity="0.4" d="M500.75 475.26C484.98 492.83 468.66 509.88 452.98 527.54C442.11 539.78 428.33 551.38 420.46 565.84C412.68 580.14 408.54 596.6 400.82 610.76C397.51 616.83 392.2 620.06 386.95 614.76C384.62 612.43 384.24 607.76 381.22 606.02C379.08 604.82 376.53 605.91 374.22 604.49C371 602.49 368.22 596.87 364.71 594.41C361.2 591.95 358.28 593.66 357.9 588.24C357.68 585.01 360.98 580.5 363.14 578.34C368.93 572.58 378.43 569.03 385.19 564.45C393.078 559.163 400.664 553.437 407.91 547.3C422.09 535.15 433.74 520.23 446.73 506.88C458.97 494.3 473.18 483.19 484.23 469.55C489.96 462.48 489.23 463.89 483.16 457.15C478.73 452.28 470.33 440.88 470.71 433.89C471.08 427.12 479.85 424.45 485.42 420.89C493.71 415.66 501.9 410.36 509.75 404.49C524.91 393.15 539.98 381.73 555.33 370.64C580.05 352.77 605.33 336.21 629.52 317.58C639.68 309.74 653.67 294.06 665.02 307.16C676.37 320.26 667.95 329.39 659.12 341.94C634.6 376.8 603.63 406.94 580.12 442.45C574.25 451.31 568.2 460.18 562.65 469.24C557.65 477.45 554.88 487.24 547.73 493.98C541.64 499.74 533 497.53 525.96 493.43C517.23 488.36 509.43 480.8 500.75 475.26ZM473.81 432.46C477.44 440.96 479.61 448.46 485.96 455.46C489.85 459.76 494.43 463.53 498.6 467.58C502.777 471.716 507.356 475.424 512.27 478.65C519.8 483.56 526.27 490.89 535.08 493.31C543.89 495.73 546.79 490.96 551.08 483.72C556.08 475.29 560.49 466.79 565.83 458.55C576.69 441.82 587.52 426.49 600.57 411.37C614.49 395.26 627.34 378.18 640.46 361.43C648.4 351.29 671.65 329.21 665.61 315.61C656.85 295.92 642.06 311.4 631.61 320.54C615.83 334.35 597.61 345.54 580.18 357.17C543.99 381.38 509.99 408.31 473.8 432.46H473.81ZM407.81 551.92C395.9 560.01 384.39 568.51 372.3 576.29C369.35 578.18 360.24 584.29 362.43 588.74C363.43 590.82 365.81 589.92 367.43 591C369.98 592.68 371.52 594.8 373.55 597.14C374.24 597.93 376.32 600.7 377.25 601.14C378.92 602 381.49 601.43 383.03 602.2C386.58 603.98 389.13 614.59 394.11 613.83C398.48 613.16 401.11 600.54 402.37 597.21C404.84 590.75 410.16 583.76 410.59 576.8C406.627 585.046 401.76 592.827 396.08 600C401.83 587.84 406.79 571.08 415.36 560.66C417.15 561.6 409.65 573.61 411.76 574.71C414.65 569.47 417.24 564.07 420.12 558.83C414.94 558.6 411.3 555.38 407.81 551.92ZM491.57 466.86C474.38 484.86 456.34 501.95 439.19 519.97C432.03 527.49 421.32 536.84 414.61 546.1C413.328 547.463 411.965 548.749 410.53 549.95L421.76 555.49C421.76 555.49 425.35 551.92 426.96 550.3C442.27 534.9 456.56 518.25 471.23 502.23C478.63 494.15 487.54 486.49 494 477.66C497.54 472.84 497.45 470.34 491.58 466.86H491.57ZM632.57 348.44C620.34 362.07 607.34 374.94 595.74 389.17C586.97 399.93 577.94 410.77 569.97 422.17C566.18 427.59 553.06 441.74 553.74 449.02C569.55 428.56 584.37 407.02 600.83 387.09C618.25 366 639.16 347.6 655.48 325.77C649.68 324.76 635.78 344.9 632.6 348.44H632.57ZM498.02 434.5C504.82 435.74 519.95 420.65 524.46 417.18C536.89 407.59 548.89 397.46 561.08 387.57C545.23 392.86 530.8 408.57 517.76 418.49C515.94 419.88 497.46 433.56 498.02 434.5ZM529.02 483.5C530.14 482.97 544.74 466.33 542.68 465.39C541.26 464.74 533.21 475.21 532.56 476.14C532.16 476.89 528.31 482.81 529.07 483.54L529.02 483.5ZM409.74 557.61C408.45 556.96 394.92 569.43 394.25 569.97C393.58 570.51 374.63 585.43 378.37 587.15C378.71 587.31 389.79 576.95 390.16 576.65C392.07 575.06 409.03 557.25 409.74 557.61ZM409.74 564.2C404.88 563.8 386.33 589.27 387.21 593.58C391.03 588.99 395.58 585.08 399.4 580.48C400.75 578.92 409.26 564.16 409.79 564.21L409.74 564.2Z" fill="#DF936D"/>
<path opacity="0.15" d="M37.9402 363.729C70.3802 394.909 106.08 422.179 139.94 451.639L141.39 450.159C137.11 443.259 132.98 436.269 128.51 429.499C122.88 420.969 117.17 412.499 111.12 404.249C106.35 397.769 100.96 391.739 95.9502 385.439C90.0902 378.079 84.2802 370.679 78.6201 363.159C77.9102 362.209 78.2502 360.469 78.1102 359.099C79.5602 359.659 81.5002 359.799 82.3802 360.839C85.8802 364.959 88.9702 369.419 92.3802 373.649C100.38 383.649 109.01 393.319 116.5 403.749C126.26 417.349 135.21 431.529 144.39 445.539C147.77 450.699 150.28 456.539 154.13 461.269C157.98 465.999 163.22 470.039 167.81 474.389C176.97 483.099 186.57 491.389 195.16 500.639C208.56 515.059 221.3 530.079 234.24 544.929C241.47 553.229 248.47 561.729 255.67 570.059C258.987 574.008 262.749 577.562 266.88 580.649C266.36 578.302 265.692 575.991 264.88 573.729C258.82 559.529 253.17 545.109 246.33 531.289C241.9 522.289 235.64 514.289 230.25 505.789C225.18 497.789 220.2 489.789 215.13 481.789C207.33 469.519 199.46 457.289 191.65 445.029C183.033 431.755 172.526 419.809 160.46 409.569C152.41 402.569 144.14 395.869 136.08 388.899C126.6 380.699 117.24 372.359 107.85 364.059C107.28 363.549 106.55 362.909 106.44 362.249C106.349 360.999 106.379 359.743 106.53 358.499C107.6 358.759 108.96 358.699 109.71 359.339C118.37 366.799 126.81 374.499 135.55 381.849C145.55 390.239 155.74 398.299 165.78 406.599C167.965 408.349 169.923 410.364 171.61 412.599C176.38 419.159 184.31 420.649 190.61 424.709C203.5 432.999 216.49 440.989 227.99 451.369C235.06 457.749 243.53 462.679 253.38 464.309C257.24 464.949 259.14 464.119 260.06 459.649C262.06 449.789 256.53 444.049 250.06 438.589C244.17 433.649 238.06 428.899 232.18 424.009C225.29 418.319 218.74 412.159 211.54 406.909C194.36 394.379 176.81 382.369 159.54 369.909C143.22 358.159 127.05 346.189 110.88 334.219C103.54 328.779 96.5302 322.909 89.1002 317.599C83.7219 313.759 78.1112 310.255 72.3002 307.109C60.4002 300.669 48.4302 294.329 36.3002 288.419C29.6602 285.189 22.2502 283.489 15.7202 280.089C3.72015 273.809 -8.04984 266.919 -19.7698 260.089C-33.6198 251.969 -47.1098 243.219 -61.1599 235.459C-69.7999 230.689 -79.3699 227.619 -88.1599 223.119C-96.9498 218.619 -105.17 212.999 -113.89 208.399C-122.04 204.139 -130.53 200.499 -138.97 196.809C-147.41 193.119 -155.68 189.739 -164.1 186.339C-171.95 183.169 -179.88 180.209 -187.75 177.069C-204.12 170.539 -221.45 171.149 -238.59 169.999C-251.16 169.129 -263.65 167.129 -276.19 165.759C-278.46 165.509 -280.83 166.149 -283.09 165.869C-284.93 165.639 -286.66 164.639 -288.45 163.979L-288.07 162.389C-283.68 162.389 -279.3 162.279 -274.91 162.389C-268.27 162.599 -261.63 162.879 -255.01 163.309C-244.66 163.979 -234.3 165.699 -224.01 165.379C-206.14 164.809 -189.88 170.139 -173.72 176.579C-158.64 182.579 -143.47 188.379 -128.49 194.639C-120.55 197.959 -79.3098 220.369 -71.7598 224.559C-55.8898 233.359 -40.1698 242.419 -24.4099 251.409C-14.4099 257.099 -4.71985 263.309 5.52014 268.489C28.0201 279.859 51.3302 289.759 73.2602 302.119C89.0602 310.999 103.16 322.839 118 333.459C131.49 343.129 144.87 352.959 158.33 362.669C173.41 373.549 188.54 384.339 203.6 395.249C212.23 401.499 220.92 407.689 229.26 414.319C234.63 418.589 239.26 423.749 244.48 428.229C248.1 431.339 252.29 433.779 255.93 436.869C263.78 443.519 266.57 451.759 264.73 462.169C263.66 468.169 259.07 469.789 254.22 469.079C243.87 467.579 234.77 463.229 226.51 456.849C215.69 448.499 204.73 440.339 193.76 432.179C191.993 430.939 189.915 430.219 187.76 430.099C190.09 433.549 192.51 436.939 194.76 440.449C205.31 457.069 215.76 473.759 226.36 490.339C229.95 495.949 234.02 501.259 237.73 506.799C244.73 517.229 251.14 527.929 255.73 539.799C260.84 553.079 268.9 565.649 271.49 579.329C273.73 591.169 281.49 598.769 286.09 608.589C289.38 615.589 288.72 622.469 286.92 629.369C285.92 633.369 279.83 635.059 274.39 633.749C256.39 629.409 242.28 618.489 228.49 606.869C221.349 601.03 213.785 595.729 205.86 591.009C209.52 601.719 213.03 612.489 216.86 623.129C220.19 632.299 224.02 641.329 223.86 651.299C223.718 654.546 223.081 657.754 221.97 660.809C220.63 664.729 215.5 666.969 210.69 665.049C206.23 663.259 201.11 661.049 198.38 657.409C191.782 648.617 185.871 639.329 180.7 629.629C174.78 618.579 170.02 606.909 164.65 595.559C160.09 585.929 155.85 576.119 150.65 566.859C145.1 557.039 138.41 547.859 132.49 538.239C127.94 530.839 124.03 523.039 119.42 515.679C114.69 508.139 110.14 500.279 104.18 493.779C100.3 489.539 94.0402 487.479 88.8502 484.439C80.5802 479.579 72.2902 474.759 64.0502 469.839C53.6902 463.669 43.1602 457.999 33.4202 451.249C20.6902 442.509 6.42017 436.989 -7.33984 430.489C-19.6698 424.689 -31.6898 418.079 -44.3398 413.209C-51.4598 410.469 -59.6298 410.349 -67.3398 409.379C-71.8698 408.809 -73.7098 412.109 -74.3398 415.869C-76.5098 429.229 -74.0198 441.329 -64.7298 451.749C-55.6798 461.899 -47.2398 472.619 -37.8998 482.489C-33.3298 487.359 -27.3799 490.999 -21.8398 494.999C-9.48984 503.829 3.29016 512.099 15.3102 521.349C25.1101 528.899 35.0901 536.639 41.8202 547.269C45.662 553.471 47.4695 560.719 46.9901 567.999C46.8976 569.445 46.4851 570.853 45.7823 572.121C45.0796 573.388 44.1041 574.484 42.9263 575.329C41.7486 576.174 40.3979 576.747 38.9718 577.006C37.5458 577.265 36.08 577.205 34.6801 576.829C26.8782 574.642 19.3063 571.704 12.0702 568.059C4.07016 563.839 -3.07983 557.909 -10.9998 553.439C-21.9998 547.229 -33.4199 541.829 -44.5298 535.829C-57.0298 529.089 -69.3598 522.029 -81.8098 515.189C-91.5499 509.839 -101.81 505.309 -111.01 499.119C-120.7 492.579 -130.14 485.259 -138.17 476.819C-143.3 471.429 -146.09 463.599 -149.17 456.539C-155.38 442.279 -160.58 427.539 -167.12 413.469C-171.84 403.554 -177.275 393.996 -183.38 384.869C-192.88 370.369 -202.05 355.509 -214.53 343.249C-222.53 335.399 -228.9 325.549 -239.7 320.999C-248.76 317.179 -258.03 313.829 -267.28 310.499C-274.08 308.059 -281.05 305.999 -287.84 303.629C-288.71 303.319 -289.16 301.819 -289.84 300.869C-288.72 300.279 -287.45 299.009 -286.49 299.209C-279.54 300.659 -272.6 302.209 -265.77 304.129C-261.17 305.429 -256.85 307.709 -252.25 309.009C-238.602 312.826 -226.466 320.764 -217.5 331.739C-213.43 336.609 -208.28 340.579 -204.33 345.539C-197.6 353.979 -191.01 362.539 -185.16 371.629C-178.88 381.339 -173.26 391.509 -167.79 401.709C-159.46 417.259 -151.62 433.069 -145.95 449.849C-140.42 466.239 -130.79 479.779 -116.21 489.139C-104.37 496.739 -91.9299 503.409 -79.6898 510.379C-69.4698 516.199 -59.2298 521.989 -48.8798 527.569C-37.8798 533.569 -26.6198 539.139 -15.5898 545.109C-11.1059 547.537 -6.78961 550.263 -2.66983 553.269C7.92303 561.141 19.8222 567.082 32.4802 570.819C38.7502 572.629 43.1002 569.129 41.5702 561.589C39.2402 550.109 32.5702 542.209 24.0102 534.669C14.3902 526.159 3.40018 519.969 -6.98984 512.769C-20.0118 503.68 -32.462 493.798 -44.2698 483.179C-51.4998 476.729 -57.2699 468.559 -63.4398 460.989C-67.3086 456.347 -70.9239 451.5 -74.2698 446.469C-80.9198 436.289 -80.8498 424.729 -79.6998 413.299C-79.0499 406.869 -72.7699 402.999 -66.1599 403.019C-53.6098 403.019 -42.6998 408.089 -31.7198 413.339C-21.3998 418.279 -10.7898 422.589 -0.389832 427.339C8.61017 431.469 17.8802 435.339 26.4802 440.219C37.7802 446.669 48.3902 454.339 59.6002 460.969C74.6801 469.889 90.1101 478.209 105.27 486.969C119.34 495.109 132.75 503.969 144.89 515.139C157.23 526.509 165.83 540.709 177.13 552.719C188.43 564.729 199.55 576.789 211.84 587.589C224.13 598.389 237.24 607.859 250.62 617.039C257.38 621.679 265.35 624.729 273.05 627.799C278.67 630.039 283.05 627.199 282.93 621.209C282.83 616.299 281.87 610.889 279.57 606.629C272.57 593.709 261.78 583.779 251.94 573.049C238.75 558.649 226.48 543.419 213.62 528.709C205.87 519.849 197.83 511.249 189.78 502.709C182.92 495.389 176.12 487.969 168.78 481.109C163.1 475.779 156.58 471.359 150.59 466.359C130.89 449.919 111.29 433.359 91.5901 416.919C82.8001 409.579 73.5901 402.729 65.1201 395.009C56.1201 386.809 45.3202 380.519 38.7302 369.849C37.8711 368.181 37.152 366.445 36.5802 364.659L37.9402 363.729ZM118.55 499.729L116.82 501.209C120 507.139 122.94 513.209 126.4 518.979C136.77 536.209 148.06 552.979 157.65 570.579C166.86 587.519 174.1 605.519 182.79 622.759C187.767 632.51 193.368 641.93 199.56 650.959C201.82 654.279 206.08 656.559 209.86 658.459C214.27 660.669 218.8 658.109 218.56 653.229C218.19 645.609 217.56 637.759 215.35 630.539C211.57 618.269 206.62 606.349 201.81 594.409C199.81 589.539 200.54 583.929 195.76 579.729C189.26 574.029 183.57 567.349 177.98 560.729C168.2 549.109 158.88 537.089 149.09 525.479C146.65 522.589 143.09 520.679 140.14 518.199C132.92 511.999 125.75 505.859 118.55 499.709V499.729Z" fill="#402B1D"/>
<path d="M15.9798 545.51C23.8098 545.68 29.9798 549.04 36.1198 554.17C40.8263 558.097 45.3162 562.276 49.5698 566.69C52.0398 569.25 54.5098 572.02 55.6598 575.52C56.8098 579.02 56.2798 583.45 53.5598 585.7C50.8398 587.95 46.8898 587.32 43.5598 586.19C32.1198 582.24 22.4498 573.93 13.0598 565.79C10.6198 563.68 8.05979 561.41 6.94979 558.25C6.41117 556.807 6.23366 555.255 6.43273 553.728C6.63181 552.201 7.20142 550.746 8.09191 549.489C8.9824 548.233 10.1667 547.214 11.5416 546.52C12.9165 545.826 14.4402 545.48 15.9798 545.51ZM255.7 600.84C257.19 604.22 260.09 606.97 262.87 609.55C273.58 619.55 284.61 629.68 297.13 635.86C300.74 637.64 304.95 639.06 307.68 637.33C310.41 635.6 310.54 631.33 309 627.6C307.46 623.87 304.59 620.6 301.73 617.6C296.79 612.347 291.65 607.31 286.31 602.49C279.31 596.18 272.46 591.62 264.12 589.92C257.88 588.66 252.41 593.37 255.71 600.85L255.7 600.84ZM230.89 438C232.31 441 235 443.56 237.56 445.93C247.44 455.06 257.61 464.39 269.02 470.21C272.31 471.89 276.12 473.21 278.53 471.8C280.94 470.39 280.94 466.53 279.45 463.19C277.96 459.85 275.3 456.9 272.66 454.12C268.086 449.32 263.336 444.707 258.41 440.28C251.97 434.49 245.69 430.28 238.16 428.52C232.52 427.28 227.74 431.32 230.89 438ZM199.42 622.38C198.81 626.02 199.72 629.91 200.62 633.6C204.1 647.81 207.71 662.37 214.77 674.41C216.77 677.88 219.54 681.41 222.77 681.41C226 681.41 228.46 677.96 229.22 674.01C229.98 670.06 229.36 665.78 228.64 661.67C227.4 654.563 225.873 647.527 224.06 640.56C221.69 631.45 218.47 623.86 212.44 617.86C207.94 613.4 200.78 614.32 199.42 622.38Z" fill="#DF936D"/>
</g>
<defs>
<clipPath id="clip0_818:7538">
<rect width="962" height="775" fill="white" transform="translate(-290)"/>
</clipPath>
</defs>
</svg>
