<svg width="868" height="1405" viewBox="0 0 868 1405" fill="none" xmlns="http://www.w3.org/2000/svg">
<g clip-path="url(#clip0_1282:9455)">
<mask id="mask0_1282:9455" style="mask-type:alpha" maskUnits="userSpaceOnUse" x="0" y="623" width="1920" height="1520">
<rect y="623" width="1920" height="1520" fill="#F9F3F0"/>
</mask>
<g mask="url(#mask0_1282:9455)">
<path opacity="0.8" d="M-283.554 906.821C-262.491 974.404 -215.976 995.112 -151.672 1010.38C-136.27 1099.7 -43.6659 1159.06 45.7003 1145.28C123.273 1377.23 487.477 1193.34 498.102 1006.49C493.622 896.384 384.48 846.032 290.04 893.895C267.401 903.71 276.194 901.959 254.675 892.397C201.553 867.657 145.915 897.121 91.1816 899.976C77.0623 849.685 37.873 814.763 -7.77927 792.434C-56.4656 768.61 -112.89 748.101 -168.336 751.656C-229.969 755.607 -284.129 801.512 -288.881 865.36C-289.934 879.398 -288.122 893.505 -283.554 906.821Z" fill="white"/>
<path opacity="0.3" d="M-81.3958 296.27C-63.7375 363.058 -60.3534 432.697 -65.6516 501.38C-75.1282 602.784 21.2629 642.93 107.021 648.595C186.479 661.998 266.662 671.609 347.195 675.376C381.02 676.956 411.165 661.265 428.371 632.012C463.924 571.569 432.443 488.702 422.735 425.131C415.478 377.564 407.605 330.34 396.264 283.548C383.688 231.754 376.431 170.793 330.139 137.261C269.671 93.4572 214.037 133.021 150.735 141.871C98.6317 149.156 44.1379 145.401 -5.5787 165.271C-61.2737 187.531 -94.6557 235.501 -81.3958 296.27Z" fill="#DF936D"/>
<path opacity="0.3" d="M-116.848 791.37C-37.8177 935.898 241.81 924.516 261.284 743.136C267.043 689.514 256.471 630.455 229.971 583.296C216.939 560.124 198.955 539.004 175.205 526.4C118.622 496.365 41.8641 516.345 -14.0916 539.024C-107.779 576.98 -168.414 674.597 -125.518 773.716C-122.912 779.723 -120.004 785.616 -116.848 791.37Z" fill="#B3A59E"/>
<g opacity="0.1">
<path d="M228.338 402.14C226.591 391.552 223.178 381.143 220.03 370.913C216.43 359.217 212.663 347.541 208.346 336.089C197.734 307.969 179.839 281.893 160.699 258.928C154.777 251.818 148.546 244.858 141.705 238.615C139.668 236.77 135.022 231.52 131.694 232.767L133.613 237.32C146.396 231.85 157.583 220.846 167.227 211.044L163.313 210.539C196.976 258.932 221.028 313.617 234.439 370.994C247.959 428.856 250.663 489.421 241.504 548.171C231.686 611.143 208.399 670.817 188.562 731.061C178.589 761.328 169.422 791.924 163.191 823.209C156.756 855.597 153.735 888.6 153.478 921.608C152.949 989.133 163.623 1056.28 178.047 1122.07C179.839 1130.24 181.688 1138.4 183.594 1146.54L185.997 1143.39C147.076 1140.38 129.479 1098.28 114.501 1068.2C106.616 1052.37 97.6487 1036.54 84.1159 1024.82C69.8623 1012.47 51.6543 1005.39 39.502 990.579C27.2846 975.702 21.7258 956.875 11.7075 940.667C6.86823 932.834 1.17389 925.564 -5.27063 918.989C-12.1938 911.931 -21.1532 906.519 -26.7813 898.293C-36.9014 883.514 -29.7217 867.248 -18.8035 855.304C-12.2468 848.132 -4.448 842.39 3.20825 836.473L30.4937 815.394C39.1151 808.735 47.5614 801.702 56.5982 795.605C64.7432 790.108 74.0528 785.274 84.1403 785.579C92.554 785.836 101.819 789.652 105.594 797.642C110.045 807.078 105.81 818.819 100.593 827.077C90.9291 842.353 72.0329 851.757 54.6842 843.538C46.9465 839.873 40.7604 833.247 38.9237 824.76C36.9282 815.544 40.3654 806.434 45.3705 798.802C56.5901 781.698 74.7614 768.988 90.0495 755.761C104.124 743.584 121.147 731.786 130.774 715.488C138.768 701.98 138.247 685.824 127.137 674.222C115.832 662.411 98.9803 659.06 83.4195 662.587C46.6614 670.923 23.1878 704.733 4.98389 734.95C-4.26874 750.312 -12.9716 766.288 -25.2867 779.479C-37.3494 792.396 -52.2343 802.728 -68.9762 808.564C-77.2991 811.443 -85.9575 813.24 -94.7386 813.911L-92.9752 818.163C-82.0773 807.786 -76.0012 793.321 -75.4636 778.318C-74.9097 762.24 -81.214 748.589 -91.5092 736.608C-97.4265 729.709 -104.016 723.148 -107.941 714.824C-111.558 707.147 -112.36 698.396 -110.756 690.104C-107.498 673.24 -96.1762 658.596 -83.1729 647.861C-55.5452 625.055 -17.7161 618.751 8.08295 593.049C33.882 567.348 44.4338 529.877 76.2153 509.714C102.658 492.936 159.257 480.963 171.238 521.402C182.234 558.576 141.285 588.451 107.28 582.465C89.8336 579.394 75.3316 567.56 71.3935 549.914C69.5202 541.516 70.2654 532.374 74.0121 524.575C77.38 517.566 83.1996 512.455 89.4875 508.122C100.679 500.433 113.894 493.991 119.766 480.955C125.398 468.448 121.281 454.227 113.079 443.895C89.5038 414.24 48.6529 427.438 21.2778 443.716C-16.9432 466.503 -48.3865 499.082 -69.8029 538.087L-65.2499 538.682C-75.2722 472.708 -52.1447 399.88 7.1626 364.307C33.9553 348.237 66.4007 340.512 97.4125 346.111C114.183 349.137 130.094 355.857 144.38 365.085C158.373 374.126 169.735 385.659 180.975 397.815C190.436 408.049 200.751 418.805 214.243 423.472C227.735 428.139 241.806 424.555 253.306 416.594C265.666 408.041 275.139 396.231 285.715 385.692C297.904 373.568 312.32 363.102 328.561 357.16C344.794 351.124 362.578 350.678 379.093 355.893C396.111 361.188 411.338 371.116 425.686 381.469C452.796 401.037 478.404 423.712 497.894 451.063C516.249 476.821 528.788 506.644 530.095 538.503C531.317 567.763 523.706 598.368 504.846 621.304C500.4 626.676 495.404 631.57 489.941 635.904L494.103 638.347C513.651 589.176 494.148 531.722 448.467 505.019C428.691 493.457 404.191 487.1 381.394 491.58C370.781 493.657 360.217 498.417 353.065 506.762C345.271 515.864 342.803 527.796 344.452 539.48C346.305 552.626 352.373 564.913 358.97 576.275C365.69 587.849 372.927 599.166 380.188 610.402C394.377 632.349 409.632 653.823 427.767 672.711C436.168 681.513 445.277 689.61 455.003 696.922C465.628 704.859 477.015 710.837 488.752 716.877C494.987 720.098 500.945 723.91 504.268 730.316C507.762 737.068 508.116 744.977 508.129 752.441C508.115 768.486 506.916 784.507 504.541 800.374C502.063 817.188 498.342 833.795 493.407 850.058C488.837 865.126 483.254 880.068 474.523 893.251C466.04 906.059 454.388 916.757 439.634 921.697C425.971 926.27 410.964 925.81 398.689 917.796L398.095 922.349C430.3 914.411 450.177 880.683 440.627 848.776C435.81 832.681 424.826 820.765 410.491 812.506C394.649 803.392 378.136 796.803 369.001 779.886C361.263 765.567 358.82 749.11 353.933 733.749C348.956 718.049 341.276 705.022 327.918 695.06C313.302 684.158 293.799 675.81 288.48 656.629C282.624 635.509 304.868 624.904 322.579 625.527C339.007 626.105 356.177 635.077 362.945 650.638C368.981 664.513 365.087 682.619 353.66 692.609C346.212 699.125 336.881 699.919 327.429 700.86C320.315 701.568 313.506 702.896 306.945 705.791C297.922 709.746 290.302 716.33 285.08 724.684C273.644 742.969 273.587 766.654 276.039 787.351C278.959 811.965 285.911 836.074 294.691 859.197C303.65 882.777 314.703 905.122 329.93 925.346C348.565 950.094 371.062 971.528 394.715 991.414C397.838 994.04 400.994 996.635 404.081 999.298L403.442 996.854C391.538 1041.02 364.472 1080.34 328.342 1108.05C317.753 1116.2 306.444 1123.57 294.365 1129.32L297.774 1132.73C310.492 1114.13 315.387 1090.94 311.62 1068.75C307.425 1044.16 289.979 1025.85 281.015 1003.21C272.87 982.609 269.918 960.475 263.838 939.27C258.442 920.443 249.841 899.36 232.924 888.026C225.105 882.777 214.089 879.844 205.614 885.359C199.407 889.394 197.11 896.835 196.198 903.799C195.115 912.07 195.518 920.61 195.465 928.938C195.428 942.166 196.381 955.379 198.316 968.465C202.115 994.806 209.544 1020.59 219.9 1045.1C224.643 1056.36 230.029 1067.34 236.031 1077.98C242.323 1089.1 250.61 1099.86 254.044 1112.33C255.97 1119.33 255.758 1126.58 251.946 1132.92C248.766 1138.21 243.773 1142.23 239.183 1146.24C231.34 1153.11 224.563 1160.47 223.133 1171.18C220.723 1189.25 232.5 1208.88 250.826 1212.62L251.49 1207.73C187.74 1200.31 127.748 1168.23 85.1218 1120.43C73.0439 1106.85 62.446 1092.03 53.5073 1076.21C51.9271 1073.42 47.6225 1075.93 49.2067 1078.72C81.6113 1135.93 135.706 1179.75 197.913 1200.75C215.304 1206.6 233.262 1210.6 251.49 1212.7C254.272 1213.02 254.891 1208.36 252.154 1207.81C235.383 1204.38 224.579 1185.48 228.534 1169.06C233.066 1150.28 257.151 1144.85 259.961 1124.87C261.366 1114.88 257.301 1105.09 252.671 1096.48C247.263 1086.41 240.894 1076.93 235.567 1066.78C224.364 1045.45 215.654 1022.91 209.609 999.587C203.181 975 200.111 949.657 200.482 924.246C200.69 911.439 198.173 885.444 218.133 887.517C229.792 888.739 238.804 898.773 244.885 907.969C250.386 916.289 254.251 925.521 257.281 934.994C263.316 953.894 266.241 973.621 272.011 992.586C275.39 1003.69 280.064 1014.35 285.939 1024.35C292.589 1035.7 300.193 1046.71 304.167 1059.37C311.685 1083.23 307.531 1109.72 293.449 1130.31C291.917 1132.55 294.813 1134.69 296.857 1133.72C320.021 1122.68 341.178 1106.05 358.759 1087.46C377.818 1067.27 391.693 1042.96 401.76 1017.22C404.203 1011.01 406.517 1004.67 408.255 998.223C408.379 997.796 408.385 997.343 408.272 996.913C408.16 996.483 407.933 996.091 407.616 995.779C387.254 978.239 366.891 961.021 349.021 940.834C329.839 919.263 314.438 894.606 303.471 867.904C294.141 845.261 286.603 821.608 282.494 797.45C278.771 775.54 276.837 749.562 288.093 729.399C293.005 720.546 300.792 713.635 310.166 709.811C325.234 703.649 343.063 707.86 356.25 696.942C367.087 687.982 372.173 672.849 370.337 659.068C368.386 644.468 358.176 632.487 345.14 626.162C331.701 619.647 315.249 618.425 301.353 624.322C285.801 630.94 278.592 646.272 285.169 662.175C292.092 678.909 308.065 687.205 322.143 697.027C329.971 702.489 336.767 708.801 341.573 717.121C345.645 724.207 348.309 732.002 350.569 739.833C355.012 755.203 357.932 771.521 366.378 785.367C375.623 800.525 390.968 807.359 405.881 815.658C422.314 824.777 434.336 838.273 437.484 857.283C440.501 875.495 433.411 893.622 419.65 905.721C413.083 911.451 405.231 915.512 396.759 917.559C394.58 918.097 394.442 920.988 396.164 922.113C415.712 934.88 441.804 930.192 459.695 916.668C480.444 900.993 490.874 875.536 498.188 851.402C506.829 822.855 511.756 793.313 512.849 763.506C513.297 751.358 514.274 737.345 507.77 726.447C501.12 715.321 487.783 711.334 477.068 705.347C431.456 679.866 401.169 635 374.21 591.681C361.239 570.842 339.036 540.588 353.07 515.339C365.495 492.985 397.174 492.622 418.799 498.141C445.999 505.064 470.247 523.178 483.91 547.788C498.978 574.927 500.7 608.268 489.261 637.012C488.231 639.602 491.741 640.783 493.423 639.455C542.614 600.16 544.406 526.961 517.78 474.317C502.366 443.842 478.827 418.117 452.812 396.329C439.373 385.081 425.27 374.338 410.32 365.203C395.464 356.121 379.056 348.807 361.512 347.411C326.896 344.653 297.403 365.891 274.825 389.801C263.923 401.346 252.186 414.997 236.304 419.42C219.525 424.091 204.856 414.732 193.27 403.46C181.378 391.894 171.132 379.025 157.982 368.742C144.612 358.304 129.532 350.009 113.324 344.938C82.7801 335.36 49.732 338.761 20.6873 351.666C-42.7048 379.831 -74.8527 447.96 -72.4907 515.131C-72.1732 523.467 -71.3738 531.778 -70.0961 540.022C-69.7662 542.188 -66.5083 542.363 -65.5431 540.616C-47.3026 507.528 -21.5605 478.715 9.51239 457.188C37.0301 438.12 87.0847 412.798 111.446 450.155C115.8 456.825 118.435 464.999 117.025 472.993C115.669 480.67 110.701 486.839 104.808 491.686C93.7554 500.779 79.5018 506.09 71.5564 518.625C63.2771 531.681 63.6925 548.993 70.6238 562.498C78.0683 577.004 92.9572 585.633 108.815 587.71C140.133 591.815 175.775 569.722 177.831 536.295C178.784 520.82 171.865 504.905 158.43 496.654C143.541 487.511 124.01 488.008 107.492 491.551C89.9777 495.333 73.7332 503.563 60.3246 515.448C46.6696 527.589 37.2458 543.414 27.6023 558.714C17.303 575.053 6.23004 590.337 -9.92548 601.361C-25.4008 611.925 -42.8921 618.966 -59.5403 627.401C-87.3145 641.471 -119.748 667.453 -116.396 702.525C-114.681 720.444 -101.637 731.305 -91.338 744.72C-80.6111 758.685 -77.7808 776.758 -83.1931 793.496C-85.8036 801.55 -90.392 808.821 -96.5386 814.644C-98.025 816.061 -96.9459 819.071 -94.7753 818.896C-58.3715 816.009 -27.4452 794.909 -7.55524 764.83C14.5704 731.362 31.3409 692.214 69.0437 673.151C86.9626 664.089 110.082 662.436 124.507 678.758C139.88 696.156 126.262 716.498 112.489 729.518C95.8405 745.249 77.7018 759.442 60.5893 774.665C47.8302 786.015 33.0634 801.225 33.3037 819.588C33.5196 835.634 46.3071 848.181 61.644 851.015C78.3737 854.106 94.2237 844.968 103.59 831.468C112.957 817.967 117.437 796.811 101.746 786.076C86.5186 775.659 67.9197 781.938 54.0041 791.338C34.8839 804.247 17.075 819.486 -1.17371 833.589C-14.955 844.239 -30.471 855.988 -35.5779 873.524C-37.6761 880.533 -37.2803 888.052 -34.4579 894.803C-30.752 903.562 -23.7066 909.186 -16.6938 915.226C-0.583191 929.101 9.5368 946.136 18.6428 965.061C22.976 974.069 27.468 983.065 33.4993 991.084C39.2252 998.695 46.2542 1004.79 54.0856 1010.15C62.6825 1016.04 71.9148 1021.09 79.8887 1027.85C87.5205 1034.31 93.735 1042.18 99.0618 1050.62C118.573 1081.64 128.225 1122.45 162.592 1141.44C169.775 1145.41 177.735 1147.79 185.923 1148.4C187.609 1148.53 188.668 1146.71 188.326 1145.25C172.851 1078.76 160.361 1011.16 158.597 942.752C157.709 908.462 159.53 874.033 165.113 840.162C170.314 808.572 178.845 777.654 188.534 747.176C207.943 686.13 232.109 626.281 243.944 563.1C254.715 505.504 254.219 446.058 243.203 388.53C232.207 331.153 210.7 275.658 179.591 226.181C175.733 220.045 171.729 214.006 167.581 208.063C166.681 206.772 164.865 206.34 163.667 207.558C154.276 217.1 143.505 227.733 131.063 233.056C128.493 234.155 130.338 238.602 132.981 237.609C132.232 237.89 132.594 237.715 133.332 238.211C134.158 238.78 134.954 239.39 135.718 240.04C138.056 241.978 140.243 244.112 142.393 246.255C148.219 252.106 153.742 258.253 158.939 264.67C169.325 277.493 178.825 291.008 187.373 305.122C199.847 325.574 207.552 347.687 214.618 370.44C217.978 381.265 221.643 392.293 223.496 403.505C224.017 406.661 228.819 405.321 228.301 402.181L228.338 402.14Z" fill="#402B1D"/>
</g>
</g>
</g>
<g clip-path="url(#clip1_1282:9455)">
<mask id="mask1_1282:9455" style="mask-type:alpha" maskUnits="userSpaceOnUse" x="0" y="-177" width="1920" height="800">
<rect y="-177" width="1920" height="800" fill="white"/>
</mask>
<g mask="url(#mask1_1282:9455)">
<path opacity="0.4" d="M-82.3958 296.27C-64.7375 363.058 -61.3534 432.697 -66.6516 501.38C-76.1282 602.784 20.2629 642.93 106.021 648.595C185.479 661.998 265.662 671.609 346.195 675.376C380.02 676.956 410.165 661.265 427.371 632.012C462.924 571.569 431.443 488.702 421.735 425.131C414.478 377.564 406.605 330.34 395.264 283.548C382.688 231.754 375.431 170.793 329.139 137.261C268.671 93.4572 213.037 133.021 149.735 141.871C97.6317 149.156 43.1379 145.401 -6.5787 165.271C-62.2737 187.531 -95.6557 235.501 -82.3958 296.27Z" fill="#DF936D"/>
<path opacity="0.3" d="M-117.848 791.37C-38.8177 935.898 240.81 924.516 260.284 743.136C266.043 689.514 255.471 630.455 228.971 583.296C215.939 560.124 197.955 539.004 174.205 526.4C117.622 496.365 40.8641 516.345 -15.0916 539.024C-108.779 576.98 -169.414 674.597 -126.518 773.716C-123.912 779.723 -121.004 785.616 -117.848 791.37Z" fill="#B3A59E"/>
<g opacity="0.1">
<path d="M227.338 402.14C225.591 391.552 222.178 381.143 219.03 370.913C215.43 359.217 211.663 347.541 207.346 336.089C196.734 307.969 178.839 281.893 159.699 258.928C153.777 251.818 147.546 244.858 140.705 238.615C138.668 236.77 134.022 231.52 130.694 232.767L132.613 237.32C145.396 231.85 156.583 220.846 166.227 211.044L162.313 210.539C195.976 258.932 220.028 313.617 233.439 370.994C246.959 428.856 249.663 489.421 240.504 548.171C230.686 611.143 207.399 670.817 187.562 731.061C177.589 761.328 168.422 791.924 162.191 823.209C155.756 855.597 152.735 888.6 152.478 921.608C151.949 989.133 162.623 1056.28 177.047 1122.07C178.839 1130.24 180.688 1138.4 182.594 1146.54L184.997 1143.39C146.076 1140.38 128.479 1098.28 113.501 1068.2C105.616 1052.37 96.6487 1036.54 83.1159 1024.82C68.8623 1012.47 50.6543 1005.39 38.502 990.579C26.2846 975.702 20.7258 956.875 10.7075 940.667C5.86823 932.834 0.173889 925.564 -6.27063 918.989C-13.1938 911.931 -22.1532 906.519 -27.7813 898.293C-37.9014 883.514 -30.7217 867.248 -19.8035 855.304C-13.2468 848.132 -5.448 842.39 2.20825 836.473L29.4937 815.394C38.1151 808.735 46.5614 801.702 55.5982 795.605C63.7432 790.108 73.0528 785.274 83.1403 785.579C91.554 785.836 100.819 789.652 104.594 797.642C109.045 807.078 104.81 818.819 99.5931 827.077C89.9291 842.353 71.0329 851.757 53.6842 843.538C45.9465 839.873 39.7604 833.247 37.9237 824.76C35.9282 815.544 39.3654 806.434 44.3705 798.802C55.5901 781.698 73.7614 768.988 89.0495 755.761C103.124 743.584 120.147 731.786 129.774 715.488C137.768 701.98 137.247 685.824 126.137 674.222C114.832 662.411 97.9803 659.06 82.4195 662.587C45.6614 670.923 22.1878 704.733 3.98389 734.95C-5.26874 750.312 -13.9716 766.288 -26.2867 779.479C-38.3494 792.396 -53.2343 802.728 -69.9762 808.564C-78.2991 811.443 -86.9575 813.24 -95.7386 813.911L-93.9752 818.163C-83.0773 807.786 -77.0012 793.321 -76.4636 778.318C-75.9097 762.24 -82.214 748.589 -92.5092 736.608C-98.4265 729.709 -105.016 723.148 -108.941 714.824C-112.558 707.147 -113.36 698.396 -111.756 690.104C-108.498 673.24 -97.1762 658.596 -84.1729 647.861C-56.5452 625.055 -18.7161 618.751 7.08295 593.049C32.882 567.348 43.4338 529.877 75.2153 509.714C101.658 492.936 158.257 480.963 170.238 521.402C181.234 558.576 140.285 588.451 106.28 582.465C88.8336 579.394 74.3316 567.56 70.3935 549.914C68.5202 541.516 69.2654 532.374 73.0121 524.575C76.38 517.566 82.1996 512.455 88.4875 508.122C99.6786 500.433 112.894 493.991 118.766 480.955C124.398 468.448 120.281 454.227 112.079 443.895C88.5038 414.24 47.6529 427.438 20.2778 443.716C-17.9432 466.503 -49.3865 499.082 -70.8029 538.087L-66.2499 538.682C-76.2722 472.708 -53.1447 399.88 6.1626 364.307C32.9553 348.237 65.4007 340.512 96.4125 346.111C113.183 349.137 129.094 355.857 143.38 365.085C157.373 374.126 168.735 385.659 179.975 397.815C189.436 408.049 199.751 418.805 213.243 423.472C226.735 428.139 240.806 424.555 252.306 416.594C264.666 408.041 274.139 396.231 284.715 385.692C296.904 373.568 311.32 363.102 327.561 357.16C343.794 351.124 361.578 350.678 378.093 355.893C395.111 361.188 410.338 371.116 424.686 381.469C451.796 401.037 477.404 423.712 496.894 451.063C515.249 476.821 527.788 506.644 529.095 538.503C530.317 567.763 522.706 598.368 503.846 621.304C499.4 626.676 494.404 631.57 488.941 635.904L493.103 638.347C512.651 589.176 493.148 531.722 447.467 505.019C427.691 493.457 403.191 487.1 380.394 491.58C369.781 493.657 359.217 498.417 352.065 506.762C344.271 515.864 341.803 527.796 343.452 539.48C345.305 552.626 351.373 564.913 357.97 576.275C364.69 587.849 371.927 599.166 379.188 610.402C393.377 632.349 408.632 653.823 426.767 672.711C435.168 681.513 444.277 689.61 454.003 696.922C464.628 704.859 476.015 710.837 487.752 716.877C493.987 720.098 499.945 723.91 503.268 730.316C506.762 737.068 507.116 744.977 507.129 752.441C507.115 768.486 505.916 784.507 503.541 800.374C501.063 817.188 497.342 833.795 492.407 850.058C487.837 865.126 482.254 880.068 473.523 893.251C465.04 906.059 453.388 916.757 438.634 921.697C424.971 926.27 409.964 925.81 397.689 917.796L397.095 922.349C429.3 914.411 449.177 880.683 439.627 848.776C434.81 832.681 423.826 820.765 409.491 812.506C393.649 803.392 377.136 796.803 368.001 779.886C360.263 765.567 357.82 749.11 352.933 733.749C347.956 718.049 340.276 705.022 326.918 695.06C312.302 684.158 292.799 675.81 287.48 656.629C281.624 635.509 303.868 624.904 321.579 625.527C338.007 626.105 355.177 635.077 361.945 650.638C367.981 664.513 364.087 682.619 352.66 692.609C345.212 699.125 335.881 699.919 326.429 700.86C319.315 701.568 312.506 702.896 305.945 705.791C296.922 709.746 289.302 716.33 284.08 724.684C272.644 742.969 272.587 766.654 275.039 787.351C277.959 811.965 284.911 836.074 293.691 859.197C302.65 882.777 313.703 905.122 328.93 925.346C347.565 950.094 370.062 971.528 393.715 991.414C396.838 994.04 399.994 996.635 403.081 999.298L402.442 996.854C390.538 1041.02 363.472 1080.34 327.342 1108.05C316.753 1116.2 305.444 1123.57 293.365 1129.32L296.774 1132.73C309.492 1114.13 314.387 1090.94 310.62 1068.75C306.425 1044.16 288.979 1025.85 280.015 1003.21C271.87 982.609 268.918 960.475 262.838 939.27C257.442 920.443 248.841 899.36 231.924 888.026C224.105 882.777 213.089 879.844 204.614 885.359C198.407 889.394 196.11 896.835 195.198 903.799C194.115 912.07 194.518 920.61 194.465 928.938C194.428 942.166 195.381 955.379 197.316 968.465C201.115 994.806 208.544 1020.59 218.9 1045.1C223.643 1056.36 229.029 1067.34 235.031 1077.98C241.323 1089.1 249.61 1099.86 253.044 1112.33C254.97 1119.33 254.758 1126.58 250.946 1132.92C247.766 1138.21 242.773 1142.23 238.183 1146.24C230.34 1153.11 223.563 1160.47 222.133 1171.18C219.723 1189.25 231.5 1208.88 249.826 1212.62L250.49 1207.73C186.74 1200.31 126.748 1168.23 84.1218 1120.43C72.0439 1106.85 61.446 1092.03 52.5073 1076.21C50.9271 1073.42 46.6225 1075.93 48.2067 1078.72C80.6113 1135.93 134.706 1179.75 196.913 1200.75C214.304 1206.6 232.262 1210.6 250.49 1212.7C253.272 1213.02 253.891 1208.36 251.154 1207.81C234.383 1204.38 223.579 1185.48 227.534 1169.06C232.066 1150.28 256.151 1144.85 258.961 1124.87C260.366 1114.88 256.301 1105.09 251.671 1096.48C246.263 1086.41 239.894 1076.93 234.567 1066.78C223.364 1045.45 214.654 1022.91 208.609 999.587C202.181 975 199.111 949.657 199.482 924.246C199.69 911.439 197.173 885.444 217.133 887.517C228.792 888.739 237.804 898.773 243.885 907.969C249.386 916.289 253.251 925.521 256.281 934.994C262.316 953.894 265.241 973.621 271.011 992.586C274.39 1003.69 279.064 1014.35 284.939 1024.35C291.589 1035.7 299.193 1046.71 303.167 1059.37C310.685 1083.23 306.531 1109.72 292.449 1130.31C290.917 1132.55 293.813 1134.69 295.857 1133.72C319.021 1122.68 340.178 1106.05 357.759 1087.46C376.818 1067.27 390.693 1042.96 400.76 1017.22C403.203 1011.01 405.517 1004.67 407.255 998.223C407.379 997.796 407.385 997.343 407.272 996.913C407.16 996.483 406.933 996.091 406.616 995.779C386.254 978.239 365.891 961.021 348.021 940.834C328.839 919.263 313.438 894.606 302.471 867.904C293.141 845.261 285.603 821.608 281.494 797.45C277.771 775.54 275.837 749.562 287.093 729.399C292.005 720.546 299.792 713.635 309.166 709.811C324.234 703.649 342.063 707.86 355.25 696.942C366.087 687.982 371.173 672.849 369.337 659.068C367.386 644.468 357.176 632.487 344.14 626.162C330.701 619.647 314.249 618.425 300.353 624.322C284.801 630.94 277.592 646.272 284.169 662.175C291.092 678.909 307.065 687.205 321.143 697.027C328.971 702.489 335.767 708.801 340.573 717.121C344.645 724.207 347.309 732.002 349.569 739.833C354.012 755.203 356.932 771.521 365.378 785.367C374.623 800.525 389.968 807.359 404.881 815.658C421.314 824.777 433.336 838.273 436.484 857.283C439.501 875.495 432.411 893.622 418.65 905.721C412.083 911.451 404.231 915.512 395.759 917.559C393.58 918.097 393.442 920.988 395.164 922.113C414.712 934.88 440.804 930.192 458.695 916.668C479.444 900.993 489.874 875.536 497.188 851.402C505.829 822.855 510.756 793.313 511.849 763.506C512.297 751.358 513.274 737.345 506.77 726.447C500.12 715.321 486.783 711.334 476.068 705.347C430.456 679.866 400.169 635 373.21 591.681C360.239 570.842 338.036 540.588 352.07 515.339C364.495 492.985 396.174 492.622 417.799 498.141C444.999 505.064 469.247 523.178 482.91 547.788C497.978 574.927 499.7 608.268 488.261 637.012C487.231 639.602 490.741 640.783 492.423 639.455C541.614 600.16 543.406 526.961 516.78 474.317C501.366 443.842 477.827 418.117 451.812 396.329C438.373 385.081 424.27 374.338 409.32 365.203C394.464 356.121 378.056 348.807 360.512 347.411C325.896 344.653 296.403 365.891 273.825 389.801C262.923 401.346 251.186 414.997 235.304 419.42C218.525 424.091 203.856 414.732 192.27 403.46C180.378 391.894 170.132 379.025 156.982 368.742C143.612 358.304 128.532 350.009 112.324 344.938C81.7801 335.36 48.732 338.761 19.6873 351.666C-43.7048 379.831 -75.8527 447.96 -73.4907 515.131C-73.1732 523.467 -72.3738 531.778 -71.0961 540.022C-70.7662 542.188 -67.5083 542.363 -66.5431 540.616C-48.3026 507.528 -22.5605 478.715 8.51239 457.188C36.0301 438.12 86.0847 412.798 110.446 450.155C114.8 456.825 117.435 464.999 116.025 472.993C114.669 480.67 109.701 486.839 103.808 491.686C92.7554 500.779 78.5018 506.09 70.5564 518.625C62.2771 531.681 62.6925 548.993 69.6238 562.498C77.0683 577.004 91.9572 585.633 107.815 587.71C139.133 591.815 174.775 569.722 176.831 536.295C177.784 520.82 170.865 504.905 157.43 496.654C142.541 487.511 123.01 488.008 106.492 491.551C88.9777 495.333 72.7332 503.563 59.3246 515.448C45.6696 527.589 36.2458 543.414 26.6023 558.714C16.303 575.053 5.23004 590.337 -10.9255 601.361C-26.4008 611.925 -43.8921 618.966 -60.5403 627.401C-88.3145 641.471 -120.748 667.453 -117.396 702.525C-115.681 720.444 -102.637 731.305 -92.338 744.72C-81.6111 758.685 -78.7808 776.758 -84.1931 793.496C-86.8036 801.55 -91.392 808.821 -97.5386 814.644C-99.025 816.061 -97.9459 819.071 -95.7753 818.896C-59.3715 816.009 -28.4452 794.909 -8.55524 764.83C13.5704 731.362 30.3409 692.214 68.0437 673.151C85.9626 664.089 109.082 662.436 123.507 678.758C138.88 696.156 125.262 716.498 111.489 729.518C94.8405 745.249 76.7018 759.442 59.5893 774.665C46.8302 786.015 32.0634 801.225 32.3037 819.588C32.5196 835.634 45.3071 848.181 60.644 851.015C77.3737 854.106 93.2237 844.968 102.59 831.468C111.957 817.967 116.437 796.811 100.746 786.076C85.5186 775.659 66.9197 781.938 53.0041 791.338C33.8839 804.247 16.075 819.486 -2.17371 833.589C-15.955 844.239 -31.471 855.988 -36.5779 873.524C-38.6761 880.533 -38.2803 888.052 -35.4579 894.803C-31.752 903.562 -24.7066 909.186 -17.6938 915.226C-1.58319 929.101 8.5368 946.136 17.6428 965.061C21.976 974.069 26.468 983.065 32.4993 991.084C38.2252 998.695 45.2542 1004.79 53.0856 1010.15C61.6825 1016.04 70.9148 1021.09 78.8887 1027.85C86.5205 1034.31 92.735 1042.18 98.0618 1050.62C117.573 1081.64 127.225 1122.45 161.592 1141.44C168.775 1145.41 176.735 1147.79 184.923 1148.4C186.609 1148.53 187.668 1146.71 187.326 1145.25C171.851 1078.76 159.361 1011.16 157.597 942.752C156.709 908.462 158.53 874.033 164.113 840.162C169.314 808.572 177.845 777.654 187.534 747.176C206.943 686.13 231.109 626.281 242.944 563.1C253.715 505.504 253.219 446.058 242.203 388.53C231.207 331.153 209.7 275.658 178.591 226.181C174.733 220.045 170.729 214.006 166.581 208.063C165.681 206.772 163.865 206.34 162.667 207.558C153.276 217.1 142.505 227.733 130.063 233.056C127.493 234.155 129.338 238.602 131.981 237.609C131.232 237.89 131.594 237.715 132.332 238.211C133.158 238.78 133.954 239.39 134.718 240.04C137.056 241.978 139.243 244.112 141.393 246.255C147.219 252.106 152.742 258.253 157.939 264.67C168.325 277.493 177.825 291.008 186.373 305.122C198.847 325.574 206.552 347.687 213.618 370.44C216.978 381.265 220.643 392.293 222.496 403.505C223.017 406.661 227.819 405.321 227.301 402.181L227.338 402.14Z" fill="#402B1D"/>
</g>
</g>
</g>
<defs>
<clipPath id="clip0_1282:9455">
<rect width="1405" height="1405" fill="white" transform="translate(868 1405) rotate(-180)"/>
</clipPath>
<clipPath id="clip1_1282:9455">
<rect width="1405" height="1405" fill="white" transform="translate(867 1405) rotate(-180)"/>
</clipPath>
</defs>
</svg>
