<svg width="732" height="1405" viewBox="0 0 732 1405" fill="none" xmlns="http://www.w3.org/2000/svg">
<path opacity="0.8" d="M1151.55 906.821C1130.49 974.404 1083.98 995.112 1019.67 1010.38C1004.27 1099.7 911.666 1159.06 822.3 1145.28C744.728 1377.23 380.523 1193.34 369.898 1006.49C374.378 896.384 483.52 846.032 577.96 893.895C600.599 903.71 591.807 901.959 613.325 892.397C666.447 867.657 722.085 897.121 776.819 899.976C790.938 849.685 830.127 814.763 875.779 792.434C924.466 768.61 980.89 748.101 1036.34 751.656C1097.97 755.607 1152.13 801.512 1156.88 865.36C1157.93 879.398 1156.12 893.505 1151.55 906.821Z" fill="white"/>
<path opacity="0.4" d="M949.396 296.27C931.738 363.058 928.354 432.697 933.652 501.38C943.128 602.784 846.737 642.93 760.979 648.595C681.521 661.998 601.339 671.609 520.806 675.376C486.98 676.956 456.835 661.265 439.629 632.012C404.077 571.569 435.557 488.702 445.266 425.131C452.523 377.564 460.395 330.34 471.737 283.548C484.312 231.754 491.57 170.793 537.861 137.261C598.329 93.4572 653.963 133.021 717.265 141.871C769.369 149.156 823.862 145.401 873.579 165.271C929.274 187.531 962.656 235.501 949.396 296.27Z" fill="#DF936D"/>
<path opacity="0.3" d="M984.848 791.37C905.818 935.898 626.19 924.516 606.716 743.136C600.957 689.514 611.529 630.455 638.029 583.296C651.061 560.124 669.045 539.004 692.795 526.4C749.378 496.365 826.136 516.345 882.092 539.024C975.779 576.98 1036.41 674.597 993.518 773.716C990.912 779.723 988.004 785.616 984.848 791.37Z" fill="#B3A59E"/>
<g opacity="0.1">
<path d="M678.083 402.14C676.336 391.552 672.923 381.143 669.775 370.913C666.175 359.217 662.408 347.541 658.091 336.089C647.478 307.969 629.584 281.893 610.443 258.928C604.522 251.818 598.291 244.858 591.449 238.615C589.413 236.77 584.766 231.52 581.439 232.767L583.357 237.32C596.141 231.85 607.328 220.846 616.971 211.044L613.058 210.539C646.721 258.932 670.773 313.617 684.183 370.994C697.704 428.856 700.408 489.421 691.249 548.171C681.43 611.143 658.144 670.817 638.307 731.061C628.333 761.328 619.166 791.924 612.936 823.209C606.501 855.597 603.479 888.6 603.223 921.608C602.693 989.133 613.367 1056.28 627.792 1122.07C629.584 1130.24 631.433 1138.4 633.339 1146.54L635.741 1143.39C596.821 1140.38 579.224 1098.28 564.245 1068.2C556.361 1052.37 547.393 1036.54 533.861 1024.82C519.607 1012.47 501.399 1005.39 489.247 990.579C477.029 975.702 471.47 956.875 461.452 940.667C456.613 932.834 450.919 925.564 444.474 918.989C437.551 911.931 428.591 906.519 422.963 898.293C412.843 883.514 420.023 867.248 430.941 855.304C437.498 848.132 445.297 842.39 452.953 836.473L480.238 815.394C488.86 808.735 497.306 801.702 506.343 795.605C514.488 790.108 523.797 785.274 533.885 785.579C542.299 785.836 551.564 789.652 555.339 797.642C559.79 807.078 555.555 818.819 550.338 827.077C540.674 842.353 521.778 851.757 504.429 843.538C496.691 839.873 490.505 833.247 488.668 824.76C486.673 815.544 490.11 806.434 495.115 798.802C506.335 781.698 524.506 768.988 539.794 755.761C553.869 743.584 570.891 731.786 580.519 715.488C588.513 701.98 587.992 685.824 576.882 674.222C565.577 662.411 548.725 659.06 533.164 662.587C496.406 670.923 472.932 704.733 454.729 734.95C445.476 750.312 436.773 766.288 424.458 779.479C412.395 792.396 397.51 802.728 380.768 808.564C372.445 811.443 363.787 813.24 355.006 813.911L356.769 818.163C367.667 807.786 373.743 793.321 374.281 778.318C374.835 762.24 368.531 748.589 358.235 736.608C352.318 729.709 345.729 723.148 341.803 714.824C338.187 707.147 337.384 698.396 338.989 690.104C342.247 673.24 353.568 658.596 366.572 647.861C394.199 625.055 432.029 618.751 457.828 593.049C483.627 567.348 494.178 529.877 525.96 509.714C552.402 492.936 609.001 480.963 620.983 521.402C631.978 558.576 591.03 588.451 557.025 582.465C539.578 579.394 525.076 567.56 521.138 549.914C519.265 541.516 520.01 532.374 523.757 524.575C527.125 517.566 532.944 512.455 539.232 508.122C550.423 500.433 563.638 493.991 569.511 480.955C575.143 468.448 571.026 454.227 562.824 443.895C539.248 414.24 498.398 427.438 471.022 443.716C432.801 466.503 401.358 499.082 379.942 538.087L384.495 538.682C374.472 472.708 397.6 399.88 456.907 364.307C483.7 348.237 516.145 340.512 547.157 346.111C563.928 349.137 579.839 355.857 594.125 365.085C608.118 374.126 619.48 385.659 630.72 397.815C640.18 408.049 650.496 418.805 663.988 423.472C677.48 428.139 691.55 424.555 703.051 416.594C715.411 408.041 724.883 396.231 735.46 385.692C747.649 373.568 762.065 363.102 778.306 357.16C794.539 351.124 812.322 350.678 828.837 355.893C845.856 361.188 861.083 371.116 875.43 381.469C902.541 401.037 928.148 423.712 947.639 451.063C965.994 476.821 978.533 506.644 979.84 538.503C981.062 567.763 973.45 598.368 954.591 621.304C950.144 626.676 945.149 631.57 939.686 635.904L943.848 638.347C963.395 589.176 943.892 531.722 898.212 505.019C878.436 493.457 853.936 487.1 831.138 491.58C820.525 493.657 809.961 498.417 802.81 506.762C795.015 515.864 792.547 527.796 794.197 539.48C796.05 552.626 802.118 564.913 808.715 576.275C815.435 587.849 822.671 599.166 829.933 610.402C844.121 632.349 859.377 653.823 877.511 672.711C885.912 681.513 895.022 689.61 904.748 696.922C915.373 704.859 926.76 710.837 938.496 716.877C944.731 720.098 950.689 723.91 954.012 730.316C957.507 737.068 957.861 744.977 957.873 752.441C957.86 768.486 956.66 784.507 954.285 800.374C951.808 817.188 948.086 833.795 943.151 850.058C938.582 865.126 932.999 880.068 924.267 893.251C915.784 906.059 904.133 916.757 889.378 921.697C875.715 926.27 860.708 925.81 848.434 917.796L847.839 922.349C880.044 914.411 899.922 880.683 890.372 848.776C885.554 832.681 874.571 820.765 860.236 812.506C844.394 803.392 827.88 796.803 818.746 779.886C811.008 765.567 808.564 749.11 803.677 733.749C798.701 718.049 791.02 705.022 777.663 695.06C763.047 684.158 743.544 675.81 738.225 656.629C732.369 635.509 754.612 624.904 772.324 625.527C788.752 626.105 805.921 635.077 812.69 650.638C818.725 664.513 814.832 682.619 803.405 692.609C795.956 699.125 786.626 699.919 777.174 700.86C770.059 701.568 763.25 702.896 756.689 705.791C747.666 709.746 740.046 716.33 734.824 724.684C723.389 742.969 723.332 766.654 725.784 787.351C728.703 811.965 735.655 836.074 744.435 859.197C753.395 882.777 764.447 905.122 779.674 925.346C798.31 950.094 820.806 971.528 844.459 991.414C847.583 994.04 850.739 996.635 853.826 999.298L853.186 996.854C841.283 1041.02 814.217 1080.34 778.086 1108.05C767.498 1116.2 756.189 1123.57 744.11 1129.32L747.518 1132.73C760.237 1114.13 765.132 1090.94 761.365 1068.75C757.17 1044.16 739.724 1025.85 730.76 1003.21C722.615 982.609 719.663 960.475 713.582 939.27C708.186 920.443 699.585 899.36 682.668 888.026C674.849 882.777 663.833 879.844 655.358 885.359C649.152 889.394 646.855 896.835 645.943 903.799C644.86 912.07 645.263 920.61 645.21 928.938C645.173 942.166 646.125 955.379 648.061 968.465C651.86 994.806 659.288 1020.59 669.645 1045.1C674.388 1056.36 679.774 1067.34 685.776 1077.98C692.068 1089.1 700.355 1099.86 703.788 1112.33C705.714 1119.33 705.503 1126.58 701.691 1132.92C698.51 1138.21 693.517 1142.23 688.928 1146.24C681.084 1153.11 674.308 1160.47 672.878 1171.18C670.467 1189.25 682.245 1208.88 700.571 1212.62L701.235 1207.73C637.484 1200.31 577.493 1168.23 534.866 1120.43C522.789 1106.85 512.191 1092.03 503.252 1076.21C501.672 1073.42 497.367 1075.93 498.951 1078.72C531.356 1135.93 585.45 1179.75 647.657 1200.75C665.049 1206.6 683.007 1210.6 701.235 1212.7C704.016 1213.02 704.635 1208.36 701.898 1207.81C685.128 1204.38 674.324 1185.48 678.278 1169.06C682.811 1150.28 706.895 1144.85 709.705 1124.87C711.11 1114.88 707.046 1105.09 702.416 1096.48C697.007 1086.41 690.638 1076.93 685.311 1066.78C674.109 1045.45 665.399 1022.91 659.353 999.587C652.926 975 649.856 949.657 650.227 924.246C650.435 911.439 647.918 885.444 667.877 887.517C679.537 888.739 688.549 898.773 694.629 907.969C700.131 916.289 703.996 925.521 707.026 934.994C713.061 953.894 715.985 973.621 721.756 992.586C725.134 1003.69 729.809 1014.35 735.684 1024.35C742.334 1035.7 749.937 1046.71 753.912 1059.37C761.43 1083.23 757.276 1109.72 743.193 1130.31C741.662 1132.55 744.558 1134.69 746.602 1133.72C769.766 1122.68 790.923 1106.05 808.503 1087.46C827.563 1067.27 841.437 1042.96 851.505 1017.22C853.948 1011.01 856.261 1004.67 858 998.223C858.123 997.796 858.129 997.343 858.017 996.913C857.904 996.483 857.678 996.091 857.361 995.779C836.998 978.239 816.636 961.021 798.766 940.834C779.583 919.263 764.183 894.606 753.216 867.904C743.886 845.261 736.347 821.608 732.238 797.45C728.516 775.54 726.582 749.562 737.838 729.399C742.749 720.546 750.537 713.635 759.911 709.811C774.979 703.649 792.808 707.86 805.995 696.942C816.832 687.982 821.918 672.849 820.081 659.068C818.131 644.468 807.921 632.487 794.885 626.162C781.446 619.647 764.993 618.425 751.098 624.322C735.545 630.94 728.337 646.272 734.914 662.175C741.837 678.909 757.809 687.205 771.888 697.027C779.715 702.489 786.512 708.801 791.318 717.121C795.39 724.207 798.053 732.002 800.314 739.833C804.757 755.203 807.677 771.521 816.123 785.367C825.367 800.525 840.712 807.359 855.626 815.658C872.058 824.777 884.08 838.273 887.228 857.283C890.246 875.495 883.156 893.622 869.395 905.721C862.828 911.451 854.975 915.512 846.504 917.559C844.325 918.097 844.186 920.988 845.909 922.113C865.457 934.88 891.549 930.192 909.439 916.668C930.189 900.993 940.618 875.536 947.932 851.402C956.573 822.855 961.501 793.313 962.593 763.506C963.041 751.358 964.019 737.345 957.515 726.447C950.864 715.321 937.527 711.334 926.813 705.347C881.201 679.866 850.914 635 823.954 591.681C810.984 570.842 788.78 540.588 802.814 515.339C815.239 492.985 846.919 492.622 868.544 498.141C895.744 505.064 919.991 523.178 933.654 547.788C948.722 574.927 950.445 608.268 939.005 637.012C937.975 639.602 941.486 640.783 943.168 639.455C992.359 600.16 994.151 526.961 967.525 474.317C952.111 443.842 928.572 418.117 902.557 396.329C889.118 385.081 875.015 374.338 860.065 365.203C845.209 356.121 828.801 348.807 811.256 347.411C776.64 344.653 747.148 365.891 724.57 389.801C713.668 401.346 701.931 414.997 686.048 419.42C669.27 424.091 654.601 414.732 643.015 403.46C631.123 391.894 620.877 379.025 607.727 368.742C594.357 358.304 579.277 350.009 563.068 344.938C532.525 335.36 499.477 338.761 470.432 351.666C407.04 379.831 374.892 447.96 377.254 515.131C377.571 523.467 378.371 531.778 379.648 540.022C379.978 542.188 383.236 542.363 384.202 540.616C402.442 507.528 428.184 478.715 459.257 457.188C486.775 438.12 536.829 412.798 561.191 450.155C565.544 456.825 568.179 464.999 566.77 472.993C565.414 480.67 560.446 486.839 554.553 491.686C543.5 500.779 529.246 506.09 521.301 518.625C513.022 531.681 513.437 548.993 520.368 562.498C527.813 577.004 542.702 585.633 558.56 587.71C589.877 591.815 625.519 569.722 627.576 536.295C628.529 520.82 621.61 504.905 608.175 496.654C593.286 487.511 573.754 488.008 557.236 491.551C539.722 495.333 523.478 503.563 510.069 515.448C496.414 527.589 486.99 543.414 477.347 558.714C467.048 575.053 455.975 590.337 439.819 601.361C424.344 611.925 406.853 618.966 390.204 627.401C362.43 641.471 329.997 667.453 333.349 702.525C335.063 720.444 348.107 731.305 358.407 744.72C369.133 758.685 371.964 776.758 366.552 793.496C363.941 801.55 359.353 808.821 353.206 814.644C351.72 816.061 352.799 819.071 354.969 818.896C391.373 816.009 422.299 794.909 442.189 764.83C464.315 731.362 481.085 692.214 518.788 673.151C536.707 664.089 559.827 662.436 574.251 678.758C589.625 696.156 576.006 716.498 562.233 729.518C545.585 745.249 527.446 759.442 510.334 774.665C497.575 786.015 482.808 801.225 483.048 819.588C483.264 835.634 496.052 848.181 511.389 851.015C528.118 854.106 543.968 844.968 553.335 831.468C562.702 817.967 567.181 796.811 551.49 786.076C536.263 775.659 517.664 781.938 503.749 791.338C484.628 804.247 466.82 819.486 448.571 833.589C434.79 844.239 419.274 855.988 414.167 873.524C412.069 880.533 412.464 888.052 415.287 894.803C418.993 903.562 426.038 909.186 433.051 915.226C449.161 929.101 459.281 946.136 468.387 965.061C472.721 974.069 477.213 983.065 483.244 991.084C488.97 998.695 495.999 1004.79 503.83 1010.15C512.427 1016.04 521.659 1021.09 529.633 1027.85C537.265 1034.31 543.48 1042.18 548.806 1050.62C568.318 1081.64 577.969 1122.45 612.337 1141.44C619.52 1145.41 627.479 1147.79 635.668 1148.4C637.354 1148.53 638.413 1146.71 638.071 1145.25C622.595 1078.76 610.105 1011.16 608.342 942.752C607.454 908.462 609.274 874.033 614.858 840.162C620.058 808.572 628.59 777.654 638.278 747.176C657.688 686.13 681.854 626.281 693.688 563.1C704.46 505.504 703.963 446.058 692.947 388.53C681.952 331.153 660.445 275.658 629.335 226.181C625.477 220.045 621.474 214.006 617.326 208.063C616.426 206.772 614.609 206.34 613.412 207.558C604.021 217.1 593.249 227.733 580.808 233.056C578.238 234.155 580.083 238.602 582.726 237.609C581.977 237.89 582.339 237.715 583.076 238.211C583.902 238.78 584.699 239.39 585.463 240.04C587.8 241.978 589.987 244.112 592.137 246.255C597.964 252.106 603.487 258.253 608.684 264.67C619.069 277.493 628.569 291.008 637.118 305.122C649.592 325.574 657.297 347.687 664.363 370.44C667.722 381.265 671.388 392.293 673.241 403.505C673.762 406.661 678.563 405.321 678.046 402.181L678.083 402.14Z" fill="#402B1D"/>
</g>
</svg>
