<svg width="551" height="683" viewBox="0 0 551 683" fill="none" xmlns="http://www.w3.org/2000/svg">
<g clip-path="url(#clip0_602:61710)">
<path d="M518.947 425.538C570.272 378.451 638.225 346.998 707.346 323.345C729.858 315.641 753.591 308.536 776.922 310.261C793.738 311.504 809.187 317.278 824.292 322.979C847.294 331.656 871.326 341.041 885.372 358.62C894.313 369.811 898.43 383.429 902.034 396.871C906.158 412.264 909.755 428.608 904.023 444.309C893.955 471.88 859.767 487.8 830.002 502.441C770.736 531.606 716.171 568.358 668.903 610.95C649.608 628.339 631.337 646.839 608.906 661.181C586.475 675.522 558.699 685.514 532.275 682.444C508.718 679.71 488.992 666.875 475.246 651.013C416.207 583.218 450.468 488.363 518.947 425.538Z" fill="white"/>
<path opacity="0.15" d="M589.952 219.469C575.921 237.615 560.634 254.751 545.398 271.866L500.698 321.972C488.749 335.37 476.142 349.228 459.402 355.674C443.574 361.769 425.906 360.46 409.187 357.606C400.941 356.201 392.665 354.416 385.084 350.809C363.705 340.609 351.405 317.56 344.912 294.739C330.808 244.983 337.784 191.782 348.564 141.2C350.573 131.768 352.757 122.256 357.161 113.68C362.807 102.705 371.82 93.8295 381.264 85.876C446.569 30.9987 538.094 13.5844 622.17 27.6476C635.317 29.8427 665.709 35.0304 671.837 49.5985C677.432 62.9812 661.305 91.8759 656.075 104.681C639.303 145.756 617.061 184.369 589.952 219.469Z" fill="#DF936D"/>
<path opacity="0.1" d="M232.976 607.273C185.851 591.067 143.537 563.655 101.757 536.507C81.2838 523.188 60.2987 509.46 45.7993 489.768C27.9217 465.514 21.6116 433.102 29.0843 403.922C36.5571 374.741 57.6738 349.347 85.0129 336.672C103.863 327.9 124.921 325.144 145.701 324.245C196.153 322.111 251.892 333.529 282.69 373.499C304.216 401.437 309.956 438.753 329.844 467.875C344.124 488.818 365.394 504.994 376.07 528.013C381.009 538.894 383.365 550.77 382.954 562.712C382.543 574.654 379.376 586.34 373.701 596.856C364.129 614.246 339.137 637.228 317.341 635.949C305.291 635.218 290.287 625.13 278.434 621.264C263.364 616.322 247.973 612.426 232.976 607.273Z" fill="#C28566"/>
<path opacity="0.4" d="M134.816 464.343C136.765 465.799 138.707 467.313 140.679 468.769C141.807 469.607 142.958 470.408 144.123 471.179C145.784 472.433 147.549 473.544 149.4 474.499C151.085 475.227 152.742 476.116 154.442 476.778C155.72 477.276 157.039 477.664 158.385 477.936C160.114 478.292 161.36 477.12 160.906 475.54C160.303 473.368 159.369 471.301 158.136 469.41C157.293 468.136 156.465 466.855 155.688 465.551C153.847 462.417 151.808 459.402 149.583 456.524C147.011 453.438 144.242 450.52 141.294 447.787C139.015 445.544 136.707 443.317 134.427 441.074C133.042 439.705 131.686 438.315 130.309 436.939C128.931 435.563 127.612 434.245 126.278 432.891C125.222 431.821 124.196 430.707 123.126 429.673C121.844 428.421 120.481 427.248 119.22 425.974C116.362 423.098 113.577 420.15 110.514 417.492C109.781 416.874 109.165 416.182 108.469 415.548C107.319 414.507 106.153 413.474 104.973 412.469C103.793 411.464 98.3776 406.644 96.9558 405.188C96.2229 404.46 95.4901 403.819 94.7572 403.172C93.7458 402.298 92.6905 401.475 91.6792 400.601C90.5139 399.589 89.4366 398.454 88.2054 397.551C86.9548 396.568 85.7991 395.471 84.7535 394.275C84.4834 394.044 84.2751 393.75 84.1472 393.42C84.0193 393.09 83.9758 392.733 84.0207 392.382C84.199 391.453 84.0597 390.492 83.625 389.651C83.053 388.202 82.2676 386.845 81.2944 385.625C80.5616 384.854 79.8946 384.06 79.1764 383.296C76.7335 380.718 74.2906 378.148 71.8477 375.585C71.0563 374.763 70.1915 374.013 69.3853 373.197C68.821 372.63 68.3374 371.989 67.7731 371.421C66.7837 370.424 65.7577 369.462 64.7463 368.509C64.5997 368.37 64.4458 368.239 64.2919 368.116C63.0534 367.089 61.7928 366.099 60.5836 365.043C57.9086 362.706 55.2556 360.34 52.6027 357.981C50.3454 355.972 48.0369 354.02 45.6112 352.229C43.4565 350.637 41.297 349.05 39.1326 347.468C37.2564 346.092 35.395 344.694 33.5042 343.34C30.602 341.258 27.6901 339.195 24.7684 337.151C22.8996 335.841 21.0455 334.516 19.14 333.278C17.2345 332.04 15.1165 330.774 13.0792 329.58C11.9575 328.807 10.7407 328.181 9.45877 327.716C7.48003 327.192 5.44266 326.784 3.59583 327.126C2.66524 327.241 1.77318 327.565 0.986862 328.072C-0.398254 329.143 -0.0245209 331.065 0.319931 332.776C0.840271 335.346 2.51857 337.683 4.02095 340.005C5.10155 341.604 6.26598 343.144 7.5094 344.621C8.97514 346.492 10.4409 348.414 12.0898 350.169C14.6182 352.892 17.0366 355.702 19.7042 358.309C22.0714 360.617 24.2847 363.092 26.5493 365.502C28.015 367.065 29.4807 368.637 30.9465 370.22C33.6239 373.132 36.2964 376.044 38.964 378.956C39.2352 379.255 39.4624 379.582 39.6969 379.888C40.6789 381.017 41.6317 382.182 42.665 383.259C44.4679 385.145 46.3953 386.899 48.1542 388.858C50.8109 391.877 53.6189 394.761 56.5675 397.5C59.8402 400.524 63.4045 403.221 67.2087 405.552C68.4619 406.28 69.9643 406.965 71.2322 406.28C71.6426 406.055 71.965 406.2 72.3388 406.506C74.149 407.999 76.0032 409.469 77.762 411.005C79.1691 412.221 80.5176 413.503 81.8954 414.762C85.5598 418.075 89.224 421.315 92.8224 424.715C95.8711 427.569 98.8246 430.539 101.815 433.451C103.141 434.747 104.431 436.08 105.78 437.339C108.498 439.88 111.261 442.377 113.995 444.904C115.949 446.714 117.904 448.534 119.858 450.364L123.603 453.888C125.684 455.854 127.744 457.849 129.854 459.785C131.518 461.314 133.24 462.77 134.94 464.255L134.816 464.343ZM50.7339 389.469C50.3015 388.989 49.8105 388.545 49.3634 388.079C46.9303 385.545 44.4678 383.041 42.086 380.463C39.3671 377.551 36.7508 374.508 34.0245 371.552C31.9651 369.295 29.8985 367.024 27.7292 364.876C26.52 363.674 25.4206 362.415 24.3067 361.148C23.5549 360.267 22.734 359.447 21.8516 358.695C19.7409 356.933 18.1213 354.756 16.2745 352.775C14.2273 350.586 12.2388 348.349 10.3089 346.063C8.90181 344.388 7.75122 342.517 6.28548 340.894C5.01006 339.324 3.8885 337.637 2.93623 335.855C1.81494 334.021 1.24333 331.982 1.85893 330.147C2.00429 329.748 2.29073 329.414 2.66507 329.208C3.67642 328.662 4.95898 328.779 6.18286 328.779C8.24223 328.779 10.1917 329.623 12.1704 330.715C14.7501 332.171 17.3005 333.693 19.7556 335.324C21.2946 336.336 22.8043 337.399 24.3213 338.455C26.6152 340.049 28.9164 341.622 31.1883 343.252C33.4602 344.883 35.5122 346.478 37.6742 348.087C40.6056 350.271 43.669 352.419 46.5638 354.719C49.5759 357.115 52.4268 359.692 55.3949 362.196C56.7361 363.34 58.1431 364.381 59.3743 365.655C61.2871 367.591 63.4124 369.259 65.4205 371.064C65.721 371.334 65.9995 371.625 66.2853 371.909C69.3414 374.967 72.4267 378.003 75.4388 381.097C77.4743 383.169 79.3256 385.413 80.972 387.802C81.3553 388.419 81.6957 389.061 81.9907 389.724C82.2293 390.081 82.3316 390.51 82.2791 390.934C82.2267 391.359 82.023 391.751 81.7049 392.04C80.5469 393.263 79.6309 394.704 78.5902 396.037C77.9159 396.91 77.2221 397.769 76.5088 398.614C75.1969 400.179 73.7166 401.584 72.4267 403.172C71.005 404.926 69.3854 405.239 66.8496 403.725C64.4073 402.17 62.0828 400.44 59.8947 398.548C58.429 397.347 56.9632 396.088 55.285 394.631C53.9218 393.073 52.3389 391.275 50.7339 389.484V389.469ZM116.816 425.253C119.015 427.438 121.148 429.622 123.31 431.806C125.472 433.99 127.406 435.956 129.466 438.024C130.199 438.752 130.975 439.48 131.76 440.208C132.287 440.645 132.653 441.245 132.8 441.911C133.328 444.292 133.812 446.68 134.545 449.054C135.475 452.053 135.922 455.067 137.102 458.074C137.747 459.727 137.835 461.467 138.172 463.171C138.289 463.79 138.377 464.401 138.531 465.355L135.68 462.96C134.808 462.231 133.929 461.503 133.064 460.775C132.024 459.873 131.005 458.941 129.979 458.016L124.849 453.393C124.233 452.84 123.662 452.279 123.735 451.464C123.753 451.375 123.753 451.283 123.735 451.194C122.635 447.94 121.536 444.693 120.437 441.438C119.843 439.662 119.25 437.878 118.744 436.094C118.071 433.719 117.258 431.386 116.311 429.105C115.578 427.299 115.08 425.465 114.471 423.601L114.735 423.448C115.417 424.03 116.15 424.613 116.816 425.268V425.253ZM99.4769 409.294C102.013 411.479 104.556 413.721 107.069 415.956C108.455 417.194 109.81 418.468 111.159 419.742C111.839 420.379 112.344 421.179 112.624 422.065C113.885 425.96 115.234 429.84 116.487 433.714C117.22 435.992 117.799 438.286 118.509 440.572C118.942 441.955 119.535 443.331 119.975 444.722C120.415 446.112 120.847 447.678 121.265 449.156C121.265 449.272 121.228 449.389 121.184 449.622C120.971 449.499 120.768 449.361 120.576 449.207C119.36 448.042 118.158 446.862 116.912 445.705C115.321 444.212 113.709 442.734 112.112 441.249C110.763 439.989 109.437 438.701 108.059 437.485C107.506 436.998 107.1 436.368 106.886 435.665C105.867 432.585 104.871 429.498 103.852 426.418C103.618 425.69 103.332 424.962 103.119 424.278C102.386 422.203 101.653 420.121 101.016 418.038C100.452 416.175 100.063 414.296 99.5502 412.432C99.3083 411.544 98.9419 410.663 98.6488 409.775C98.5462 409.476 98.4948 409.163 98.3483 408.581C98.7401 408.801 99.1172 409.047 99.4769 409.316V409.294ZM85.743 396.918C88.0075 399.145 90.4113 401.206 92.8591 403.215C93.8258 404.022 94.7481 404.88 95.622 405.785C95.9384 406.15 96.1687 406.58 96.2962 407.045C97.4883 410.855 98.6609 414.668 99.814 418.483C100.737 421.533 101.624 424.584 102.57 427.627C103.127 429.411 103.786 431.194 104.387 432.971C104.467 433.278 104.528 433.589 104.57 433.903C104.279 433.771 104.001 433.61 103.742 433.422C101.375 431.18 99.0224 428.916 96.6553 426.68C95.3728 425.472 94.0317 424.336 92.7711 423.113C91.9903 422.339 91.2561 421.52 90.5725 420.659C90.2684 420.283 90.044 419.85 89.9129 419.385C89.1801 416.473 88.308 413.619 87.2526 410.751C86.3952 408.414 85.5597 406.062 84.8635 403.71C84.3505 401.992 84.0867 400.259 83.6836 398.534C83.4417 397.507 83.1486 396.473 82.8554 395.447C82.7586 395.175 82.6436 394.91 82.511 394.653L83.0166 394.559C83.9254 395.374 84.8855 396.102 85.743 396.947V396.918ZM139.704 462.53C139.584 460.869 139.234 459.232 138.663 457.667C137.989 455.905 137.579 454.106 136.948 452.33C136.267 450.415 136.179 448.508 135.439 446.593C135.138 445.605 134.918 444.594 134.779 443.571C135.117 443.723 135.432 443.919 135.717 444.154C137.637 446.338 139.851 448.246 141.961 450.248C143.552 451.747 144.893 453.524 146.358 455.162C146.996 455.89 147.7 456.524 148.337 457.237C148.697 457.651 149.018 458.097 149.297 458.569C149.891 459.545 149.839 459.581 149.07 460.215C147.853 461.212 146.681 462.253 145.501 463.294C145.362 463.418 145.34 463.651 145.244 463.826C144.452 465.194 143.405 466.4 142.159 467.379C141.969 467.494 141.764 467.585 141.551 467.648C140.479 466.151 139.838 464.391 139.697 462.559L139.704 462.53ZM73.2769 405.159C74.5154 403.856 75.6807 402.727 76.736 401.519C78.0625 399.975 79.3084 398.352 80.5836 396.765C80.7228 396.59 80.84 396.401 81.0306 396.124C81.6239 397.019 82.0095 398.033 82.1592 399.094C82.7969 401.905 83.5821 404.68 84.5117 407.409C85.5524 410.321 86.4098 413.299 87.3112 416.255C87.4046 416.712 87.4488 417.178 87.4432 417.645L87.0694 417.689L73.2769 405.159ZM144.453 468.26C145.153 467.323 145.917 466.436 146.74 465.602C147.941 464.518 148.579 462.901 150.206 462.21C151.276 461.751 151.437 461.656 152.251 462.887C153.313 464.496 154.303 466.141 155.321 467.772C155.974 468.813 156.611 469.862 157.278 470.888C158.096 472.049 158.649 473.373 158.898 474.769C159.059 475.926 158.568 476.399 157.432 476.035C152.676 474.514 148.037 472.577 143.793 469.104C144.028 468.828 144.226 468.551 144.446 468.289L144.453 468.26Z" fill="#C28566"/>
<path opacity="0.15" d="M195.271 463.338C200.54 460.06 206.057 456.986 211.344 454.008C214.329 452.331 217.413 450.597 220.428 448.867C221.111 448.389 221.679 447.764 222.091 447.04C227.899 438.104 236.524 432.725 248.484 430.695C250.204 430.329 251.884 429.795 253.499 429.1C254.411 428.746 255.351 428.376 256.305 428.064L260.758 426.56L260.867 426.521C265.023 425.135 269.313 423.701 273.593 422.446C287.141 418.501 297.998 414.061 306.929 405.394C310.305 402.117 313.801 398.902 317.202 395.73C321.008 392.205 324.933 388.574 328.696 384.871C330.261 383.177 331.62 381.303 332.743 379.289L332.756 379.239C333.157 378.589 333.551 377.937 333.967 377.291C335.663 374.662 337.344 371.946 338.977 369.3C342.213 364.061 345.565 358.641 349.247 353.575C355.517 345.005 362.073 336.444 368.409 328.164C373.302 321.771 378.365 315.166 383.259 308.598C390.337 299.131 403.626 280.359 405.951 277.05L406.831 275.771C411.426 269.161 422.19 253.682 426.698 247.761C437.326 233.806 446.809 217.908 457.547 196.225C469.674 171.649 484.766 148.86 499.36 126.824C501.404 123.735 503.44 120.639 505.468 117.536L505.481 117.487C510.671 109.559 599.507 -27.6127 605.093 -35.5779L605.537 -36.2166L607.756 -34.8644L607.411 -34.1993C607.073 -33.5322 606.75 -32.8613 606.433 -32.1886C605.746 -30.6755 604.963 -29.2077 604.09 -27.7938C600.745 -22.6294 513.822 111.616 510.486 116.661C504.127 126.268 497.594 136.214 491.472 146.18L490.133 148.351C480.191 164.52 469.912 181.243 461.066 198.32C449.503 220.653 437.525 240.041 424.463 257.602C422.678 259.995 414.684 271.496 411.271 276.407L411.254 276.471C410.665 277.313 410.279 277.877 410.017 278.261L409.538 278.89C405.742 283.933 401.851 289.073 398.099 294.007C389.02 305.968 379.633 318.316 370.836 330.777C367.404 335.645 363.804 340.491 360.325 345.172C352.107 356.235 343.608 367.67 336.904 380.032C334.227 384.966 330.287 389.895 324.495 395.548C317.909 402.133 310.82 408.194 303.294 413.677C294.736 419.757 285.061 424.083 274.826 426.405L273.062 426.804C268.954 427.726 264.739 428.68 260.874 430.447L296.74 431.724L288.782 434.076C283.225 435.716 277.547 435.407 270.976 435.04C269.484 434.959 267.917 434.872 266.308 434.804L264.991 434.747C255.701 434.356 246.92 433.988 238.453 437.931C234.282 439.849 230.632 442.739 227.807 446.359C229.486 445.968 231.153 445.566 232.786 445.178L232.843 445.193C239.323 443.611 245.503 442.131 251.903 441.611C260.942 440.874 270.202 442.052 279.146 443.199L280.939 443.429L280.833 445.999L280.068 446.029C279.171 446.069 278.28 446.118 277.387 446.174L277.316 446.156C275.285 446.278 273.183 446.412 271.089 446.343C268.995 446.274 266.73 446.084 264.585 445.896C260.947 445.476 257.281 445.362 253.624 445.557C237.669 446.991 222.187 451.736 208.165 459.49L283.922 451.986L284.121 453.873L283.763 454.33C283.377 454.81 283.185 455.046 273.187 456.511C267.301 457.373 261.225 458.154 257.308 458.559L248.916 459.454C244.108 459.939 239.131 460.431 234.242 460.962L229.512 461.467L228.943 461.527C221.361 462.336 213.528 463.177 205.857 464.204C200.077 464.981 195.772 467.063 192.685 470.561C188.908 474.852 188.564 477.662 191.199 482.602C191.742 483.627 192.373 484.637 193.046 485.711L193.443 486.348C201.354 482.846 209.424 483.577 215.618 484.615C226.121 486.384 236.323 484.019 244.925 481.468C259.281 477.217 273.88 472.287 289.515 466.401C293.226 465.009 296.603 462.747 300.227 460.325C301.842 459.242 303.51 458.129 305.212 457.115L310.786 453.745L307.015 459.06C303.853 463.516 299.217 466.918 292.879 469.439C280.059 474.511 267.075 479.009 254.866 483.185C248.942 485.262 242.872 486.894 236.706 488.069C231.995 488.928 227.118 488.992 222.395 489.045L221.157 489.061C218.321 489.105 215.438 489.044 212.641 488.946C208.28 488.752 203.913 488.777 199.555 489.023C194.58 489.395 191.663 492.598 191.347 498.043C190.837 506.611 193.435 512.709 199.283 516.677C219.845 530.626 240.041 535.378 261.029 531.207C265.716 530.273 270.339 528.217 274.809 526.225C276.649 525.407 278.548 524.56 280.458 523.792C281.422 523.385 282.358 522.918 283.263 522.392C289.578 518.599 297.465 515.129 307.786 518.054L308.386 518.215C324.165 522.443 339.055 516.933 351.565 510.959C352.729 510.399 353.949 509.855 355.017 509.376C357.434 508.353 359.79 507.191 362.073 505.896C365.086 504.187 367.855 502.08 370.307 499.633C377.522 492.209 383.891 484.006 389.298 475.176C397.914 460.932 407.264 446.831 416.306 433.171L416.372 433.068C419.216 428.779 422.06 424.476 424.903 420.157C429.142 413.717 435.133 408.504 444.328 403.233C445.578 402.574 446.926 402.121 448.32 401.894C455.049 400.965 461.781 400.044 468.516 399.131L469.303 399.016C478.362 397.785 487.727 396.506 496.936 395.224C507.648 393.723 516.811 388.004 525.771 377.193C534.335 366.874 537.324 354.364 535.451 336.605L535.426 336.387C534.232 325.135 533.006 313.496 534.354 301.88C536.195 286.025 539.674 274.708 545.628 265.174C550.915 256.743 558.631 249.871 566.108 243.238L566.924 242.51C579.142 231.662 591.684 221.016 603.424 211.131C605.382 209.474 607.353 207.767 609.317 206.089C613.596 202.38 618.009 198.57 622.716 195.013L630.843 188.925L624.594 196.933C624.42 197.159 624.251 197.394 624.078 197.643C623.653 198.3 623.148 198.903 622.576 199.437C619.171 202.396 615.683 205.386 612.34 208.285L612.203 208.4C606.585 213.236 600.79 218.221 595.139 223.237C583.946 233.169 572.018 243.897 558.682 256.036C549.991 263.949 544.355 274.333 540.964 288.712C537.153 304.827 537.987 320.785 539.308 334.275C540.352 344.926 539.988 353.912 538.214 361.747C535.651 373.037 528.454 382.919 516.215 391.95C508.346 397.758 499.213 398.902 490.35 399.997L488.525 400.227L483.91 400.809C471.817 402.319 459.318 403.879 447.408 406.824C440.347 408.568 433.901 413.894 428.261 422.655C424.093 429.114 419.952 435.754 415.947 442.166C412.459 447.754 408.844 453.535 405.208 459.22C399.662 467.885 393.38 477.709 386.863 486.948C385.252 489.228 383.449 491.412 381.703 493.519C380.821 494.579 379.924 495.664 379.045 496.77C382.293 495.102 385.639 493.377 388.786 491.493C391.544 489.846 394.38 488.219 397.118 486.643L397.226 486.581C405.02 482.101 413.08 477.473 420.247 471.999C437.873 458.541 455.392 444.296 472.332 430.57L473.037 430.001C477.518 426.369 482.001 422.737 486.487 419.105C489.907 416.34 493.311 413.411 496.602 410.566C501.437 406.392 506.445 402.082 511.658 398.168C519.726 392.126 528.241 386.423 536.47 380.916L536.588 380.841C538.857 379.323 541.125 377.799 543.392 376.27C573.255 356.099 608.028 331.621 639.482 302.996C645.3 297.699 651.693 292.882 657.876 288.228C662.181 284.988 666.629 281.635 670.841 278.149C682.869 268.32 695.004 258.064 706.703 248.108C712.234 243.418 717.778 238.737 723.335 234.064C724.422 233.144 725.554 232.28 726.643 231.436L728.162 230.259L729.177 229.41L731.373 232.203L730.391 233.046C729.224 234.067 728.064 235.089 726.874 236.141C724.396 238.326 721.839 240.58 719.274 242.749L708.136 252.166L708.123 252.215C695.4 262.973 682.259 274.073 669.199 284.899C665.315 288.093 661.249 291.147 657.29 294.117C653.498 296.964 649.555 299.9 645.839 302.95C638.881 308.661 631.859 314.582 625.035 320.33C613.831 329.767 602.246 339.526 590.54 348.745C583.084 354.619 574.985 359.872 567.15 364.955C563.481 367.35 559.662 369.82 555.971 372.323C545.276 379.578 534.465 386.954 524.021 394.065L519.612 397.073C518.593 397.769 517.604 398.519 516.665 399.313C512.106 403.142 507.569 406.977 503.053 410.817L503.002 410.864C492.978 419.345 482.608 428.127 472.246 436.57C466.425 441.343 460.281 445.939 454.362 450.398C450.172 453.548 445.831 456.809 441.648 460.105C439.242 461.991 436.885 464.064 434.607 466.067C430.951 469.438 427.059 472.541 422.959 475.355C407.902 485.161 395.398 492.667 383.611 498.97C369.232 506.787 354.455 513.845 339.338 520.114C332.369 522.959 324.997 525.044 317.864 527.057C312.786 528.492 307.544 529.974 302.506 531.714C291.285 535.594 279.824 540.084 268.425 545.052C259.313 549.027 254.69 556.447 255.077 566.475C255.293 572.222 258.132 577.309 263.518 581.615C265.985 583.43 268.621 585.001 271.39 586.308C272.208 586.732 273.046 587.161 273.901 587.617C275.727 579.417 282.12 576.547 287.783 574.004C293.81 571.286 299.887 568.384 305.77 565.581C310.597 563.276 315.581 560.892 320.544 558.616C324.487 556.809 328.057 555.265 331.872 554.674C336.608 553.329 340.509 552.443 343.973 551.666C349.122 550.501 353.182 549.589 357.583 547.685L358.355 547.346C359.392 546.866 360.358 546.368 361.303 545.863L362.587 545.169L363.183 546.503C363.783 547.853 362.955 548.23 359.481 549.784L358.689 550.14C353.222 552.546 342.499 556.885 337.146 557.875C330.627 559.112 324.351 561.396 318.559 564.637C311.86 568.251 304.758 571.31 297.891 574.25C295.041 575.479 292.098 576.743 289.231 578.036C288.663 578.292 288.086 578.524 287.521 578.767C286.723 579.091 285.899 579.423 285.146 579.805C278.764 583.027 276.788 587.126 278.526 593.493C280.405 600.382 284.64 605.51 290.132 607.557C295.17 609.437 300.905 608.489 306.291 604.887C311.251 601.572 316.029 597.754 320.668 594.058C324.512 591.012 328.447 587.854 332.514 584.967C340.823 579.072 350.965 572.608 363.081 569.347C365.008 568.785 366.899 568.105 368.743 567.311C370.912 566.38 373.144 565.603 375.422 564.987L385.33 562.506L376.424 567.49C375.542 567.959 374.697 568.543 373.857 569.075C371.947 570.451 369.834 571.521 367.595 572.246C355.562 575.453 344.095 581.411 330.422 591.558C328.279 593.142 326.199 594.918 324.179 596.635C322.819 597.785 321.406 598.99 319.978 600.138C318.379 601.414 316.733 602.67 315.136 603.886L314.643 603.238L315.08 603.924C313.509 605.124 311.883 606.363 310.308 607.607C309.884 607.948 309.454 608.28 309.016 608.617C307.472 609.691 306.08 610.97 304.878 612.417C301.16 617.481 301.605 621.442 306.332 625.299C309.632 627.961 313.282 630.158 317.18 631.827C322.453 634.096 327.715 632.938 332.393 628.472C335.229 625.769 338.177 622.847 340.367 619.563C350.893 603.785 366.564 595.249 380.501 588.976C383.309 587.629 386.286 586.669 389.351 586.12L397.306 584.881L390.193 588.657L387.948 589.828C386.375 590.641 384.756 591.488 383.209 592.346L377.343 595.676C370.63 599.483 363.679 603.416 356.99 607.502C354.458 609.043 352.218 611.526 350.333 613.673C346.988 617.511 343.692 621.507 340.564 625.381C339.379 626.831 338.193 628.281 337.007 629.731C334.663 632.572 334.634 633.981 336.853 636.295C341.316 640.938 350.334 647.627 360.658 640.204C364.623 637.357 368.597 634.362 372.465 631.451C377.994 627.289 383.704 622.986 389.515 619.013C394.966 615.284 415.358 603.339 417.156 603.692L417.714 603.841L418.706 605.532L417.547 606.244C415.564 607.455 413.556 608.651 411.603 609.81C407.254 612.395 402.769 615.064 398.52 617.925C388.866 624.43 381.039 630.022 373.893 635.531C369.944 638.571 368.348 642.098 369.225 646.03C369.709 648.266 370.511 649.708 371.612 650.457C372.602 651.086 373.934 651.201 375.693 650.793C383.159 649.143 390.526 647.07 397.758 644.585C400.528 643.546 403.234 642.344 405.861 640.983C408.738 639.486 411.711 638.185 414.763 637.088C417.881 636.045 421.27 635.968 424.545 635.921L424.644 635.948C425.498 635.927 426.358 635.907 427.2 635.875C447.759 634.861 464.822 629.464 479.362 619.3C486.126 614.567 493.13 609.958 499.93 605.485C508.551 599.81 517.467 593.942 525.945 587.782C536.627 580.038 547.168 571.636 557.377 563.508C562.074 559.766 566.933 555.901 571.775 552.154C574.198 550.258 576.611 548.23 578.969 546.24C585.699 540.559 592.663 534.683 601.122 531.169C609.406 527.773 617.901 524.918 626.554 522.62C638.358 519.419 651.907 515.27 663.268 506.602C673.174 499.044 679.091 487.865 684.314 478.007C687.087 472.773 689.858 467.121 690.94 460.343C680.813 465.689 669.654 468.789 658.224 469.433L657.457 469.47L657.051 466.944L657.768 466.757C659.918 466.19 662.096 465.69 664.236 465.218C668.788 464.165 673.478 463.104 677.786 461.379C702.594 451.458 719.472 440.421 732.52 425.599C741.22 415.733 750.148 405.86 758.791 396.32L763.845 390.735C765.468 388.905 767.465 387.446 769.701 386.456L775.416 383.942L767.651 392.551C765.115 395.406 762.588 398.244 760.071 401.065C757.002 404.475 753.927 407.881 750.846 411.282L750.828 411.346C745.277 417.487 739.534 423.834 733.935 430.122C725.107 440.044 713.912 448.347 698.71 456.289C696.459 457.458 695.771 458.782 695.049 461.111C684.866 495.442 667.249 515.138 639.61 523.081C636.789 523.89 633.965 524.694 631.137 525.492L630.793 525.589C624.544 527.354 618.081 529.183 611.776 531.1C603.888 533.531 596.14 537.842 587.373 544.735C581.446 549.397 575.437 554.165 569.63 558.776L569.505 558.871C559.169 567.078 548.479 575.555 537.865 583.726C532.45 587.858 526.781 591.642 521.279 595.365C518.998 596.898 516.657 598.49 514.32 600.091C510.865 602.476 507.33 604.877 503.915 607.197L503.777 607.289C496.662 612.117 489.311 617.117 482.234 622.258C466.855 633.433 448.716 639.315 428.344 639.742C420.26 639.909 413.323 642.687 405.97 645.634L405.911 645.656C404.488 646.221 403.063 646.794 401.627 647.349C393.964 650.297 386.107 652.71 378.11 654.57C375.967 655.135 373.719 655.164 371.562 654.656C370.209 654.307 368.963 653.629 367.934 652.684C365.507 650.443 364.502 646.764 365.057 642.262C357.716 646.635 350.742 648.138 344.794 646.605L344.575 646.546C339.052 645.066 334.536 641.099 331.143 634.75C319.605 638.878 307.712 635.207 300.841 625.396C299.275 623.158 299.176 620.109 299.086 617.168C299.065 616.541 299.049 615.923 299.013 615.323C299.021 614.252 299.303 613.201 299.831 612.269L298.566 612.302C285.336 612.545 277.529 606.566 273.97 593.545C273.713 592.612 272.364 591.486 271.222 590.892C264.923 587.643 258.405 583.889 254.061 576.877C248.252 567.48 251.203 551.945 260.043 545.511C268.676 539.226 278.288 535.589 287.387 532.595C297.225 529.36 306.83 526.116 315.766 523.078C312.507 522.614 309.237 522.018 306.199 521.462L306.143 521.447C304.396 521.13 302.751 520.826 301.235 520.579C299.198 520.412 294.298 521.75 292.16 522.693C289.306 523.966 286.466 525.439 283.712 526.876L283.658 526.907C281.82 527.861 279.912 528.85 278.013 529.78C260.771 538.16 242.329 539.211 223.195 532.872C213.751 529.751 203.87 525.891 195.36 518.747C187.718 512.321 185.72 504.407 188.896 493.091C188.964 492.837 189.031 492.589 189.097 492.342C189.756 490.079 190.188 488.581 188.855 486.633C185.853 482.215 184.765 478.28 185.544 474.61C186.39 470.519 189.484 466.939 195.271 463.338Z" fill="#402B1D"/>
<path d="M267.468 558.958C268.645 562.024 269.267 565.296 270.225 568.447C271.006 570.982 270.368 574.493 273.054 575.94C274.703 576.821 276.402 575.678 277.841 575.025C283.493 572.578 289.116 570.069 294.686 567.418C297.651 566.015 299.677 563.513 301.239 560.704C301.838 559.693 302.145 558.535 302.126 557.36C302.106 556.184 301.762 555.037 301.131 554.046C299.832 551.679 298.778 549.186 297.985 546.605C296.993 543.582 294.985 542.233 292.03 542.441C290.973 542.514 289.912 542.632 288.909 542.787C282.189 543.91 275.799 546.175 269.447 548.549C267.193 549.392 265.037 550.489 263.747 552.87C265.17 555.13 266.706 556.913 267.468 558.958ZM199.743 483.994C199.632 483.567 199.621 483.121 199.71 482.689C199.799 482.257 199.986 481.851 200.257 481.503C200.527 481.155 200.873 480.873 201.269 480.68C201.665 480.486 202.1 480.386 202.541 480.388C205.009 480.448 207.466 480.733 209.882 481.241C217.388 482.639 225.133 482.721 232.429 485.267C233.953 485.797 236 486.323 236.656 487.491C237.941 489.868 238.786 492.458 239.149 495.136C239.454 497.248 236.336 499.503 233.596 499.39C229.852 499.236 226.086 498.969 222.354 498.515C216.849 497.843 211.382 496.832 205.863 496.24C203.744 496.013 202.556 495.391 202.063 493.244C201.366 490.224 200.596 487.222 199.72 483.995L199.743 483.994ZM324.81 619.11C333.219 614.735 330.787 609.659 325.5 605.659C323.612 604.229 321.843 603.596 319.647 604.363C315.531 605.884 311.728 608.147 308.426 611.038C307.735 611.537 307.268 612.289 307.129 613.131C306.991 613.972 307.19 614.835 307.685 615.529C309.174 618.1 311.082 620.403 313.33 622.345C314.035 622.926 314.902 623.276 315.813 623.348C316.724 623.42 317.635 623.21 318.423 622.747C320.566 621.473 322.655 620.23 324.81 619.11ZM292.76 595.992C291.903 596.392 290.936 596.491 290.015 596.275C289.094 596.058 288.273 595.538 287.683 594.799C285.651 592.156 284.631 589.238 283.541 586.386C282.662 584.014 283.333 582.724 285.772 581.787C288.286 580.813 290.854 579.983 293.463 579.302C297.578 578.238 300.819 579.819 302.179 583.698C303.457 587.404 304.057 590.815 299.051 593.14C296.981 594.085 294.897 595.027 292.76 595.992ZM354.74 631.009C356.369 629.763 356.782 628.162 356.462 626.167C355.96 623.123 354.066 620.98 351.95 619.019C350.132 617.327 349.025 617.053 347.177 618.581C344.267 620.957 341.545 623.556 339.038 626.354C336.971 628.702 337.169 630.505 339.46 632.717C340.767 633.923 342.156 635.037 343.616 636.051C344.302 636.548 345.131 636.809 345.978 636.796C346.825 636.783 347.645 636.495 348.315 635.976C350.504 634.275 352.616 632.636 354.74 631.009ZM380.006 648.733C378.905 648.958 377.768 648.932 376.678 648.656C375.589 648.381 374.576 647.863 373.715 647.142C372.853 646.42 372.165 645.513 371.703 644.489C371.24 643.465 371.014 642.349 371.041 641.225C371.01 639.307 372.175 638.067 373.495 637.155C375.233 635.958 377.073 634.915 378.993 634.037C379.967 633.609 381.064 633.554 382.076 633.882C383.088 634.21 383.944 634.9 384.481 635.819C385.162 636.978 384.911 637.04 385.583 638.174C388.79 643.382 384.775 648.14 380.006 648.733ZM203.13 475.137C203.724 475.038 204.336 474.96 204.916 474.857C209.495 473.789 211.82 467.935 209.067 464.084C208.85 463.776 208.573 463.515 208.253 463.317C207.932 463.12 207.575 462.989 207.203 462.933C204.499 462.845 201.792 462.986 199.111 463.355C198.568 463.561 198.084 463.898 197.702 464.337C197.321 464.775 197.053 465.301 196.924 465.868C196.708 468.269 196.797 470.688 197.19 473.067C197.508 475.016 198.832 475.697 200.879 475.571C201.65 475.52 202.375 475.328 203.12 475.202L203.13 475.137ZM217.817 460.413C214.285 462.042 210.768 461.297 206.74 461.437C208.597 457.109 210.797 455.706 214.772 456.014C216.751 456.143 217.179 457.682 217.81 460.411L217.817 460.413Z" fill="#DF936D"/>
</g>
<defs>
<clipPath id="clip0_602:61710">
<rect width="883" height="683" fill="white" transform="matrix(-1 0 0 1 883 0)"/>
</clipPath>
</defs>
</svg>
