<svg width="377" height="170" viewBox="0 0 377 170" fill="none" xmlns="http://www.w3.org/2000/svg">
<g opacity="0.4" clip-path="url(#clip0)">
<path d="M192.005 13.1619C195.277 -124.303 417.797 -98.1893 409.789 37.1816C397.82 160.148 190.785 138.294 192.005 13.1619Z" fill="#AB6A49"/>
<path d="M92.9496 57.2699C95.7796 4.04991 170.41 5.18991 172.56 57.2699C169.78 110.49 95.1396 109.36 92.9496 57.2699Z" fill="#AB6A49"/>
<path d="M51.6205 -159.356L51.6205 -159.356C51.197 -168.425 50.5773 -177.49 47.5288 -185.925L47.4955 -185.934L47.3183 -186.425C47.0703 -187.114 47.1421 -187.8 47.4989 -188.357C47.836 -188.883 48.3675 -189.203 48.896 -189.345C49.9358 -189.624 51.3698 -189.276 51.9064 -187.842L51.9101 -187.832L51.91 -187.832C53.4488 -183.585 54.5251 -179.183 55.1201 -174.705C55.9814 -168.692 56.2486 -162.584 56.5128 -156.547C56.6396 -153.649 56.7657 -150.768 56.9563 -147.921C56.9564 -147.921 56.9564 -147.92 56.9564 -147.92L55.9587 -147.853C56.6877 -137.5 57.1377 -127.115 56.9311 -116.767L51.6205 -159.356ZM51.6205 -159.356C51.7993 -155.528 52.0313 -151.722 52.2628 -147.923C52.6296 -141.905 52.9952 -135.905 53.1465 -129.868C53.6558 -108.566 51.8237 -87.2714 47.6831 -66.3683C46.8979 -62.4244 45.9646 -58.4626 45.0229 -54.465C44.9552 -54.1778 44.8876 -53.8904 44.8199 -53.6029C43.8116 -49.3192 42.8059 -44.9962 41.9864 -40.6514C40.3476 -31.9621 39.4416 -23.129 40.7496 -14.2008L40.7497 -14.1999C43.0308 1.27577 52.5171 13.9258 66.8922 20.1091C80.4838 25.9609 95.6876 26.6832 110.066 27.0849L110.067 27.0849C119.68 27.3499 129.182 27.6501 138.654 28.9754C148.882 30.4096 158.973 32.6946 168.821 35.8066C189.111 42.2137 208.149 52.0981 225.736 64.0592L225.737 64.0599C232.954 68.9544 240.161 73.8758 247.37 78.7989C258.539 86.4261 269.713 94.0571 280.941 101.598L281.498 100.768L280.941 101.598C302.655 116.178 324.67 130.329 346.677 144.475C362.05 154.356 377.419 164.235 392.678 174.255L392.678 174.255C397.312 177.296 401.929 180.351 406.529 183.42C407.138 183.827 407.819 183.926 408.445 183.727C409.04 183.539 409.491 183.114 409.769 182.64C410.317 181.702 410.338 180.219 409.049 179.359L408.494 180.191L409.049 179.359C390.595 167.06 371.941 155.083 353.287 143.116L352.061 142.329C333.815 130.623 315.573 118.92 297.513 106.922L297.512 106.922C279.19 94.7711 261.032 82.4247 242.912 70.0178L242.911 70.0172C241.167 68.8255 239.424 67.6253 237.679 66.4238C230.486 61.4702 223.26 56.4934 215.74 51.9877C206.626 46.4998 197.133 41.6684 187.333 37.5304C168.313 29.4996 148.126 24.5775 127.544 22.9523L127.542 22.9522C122.23 22.543 116.881 22.39 111.563 22.2379C109.021 22.1652 106.486 22.0927 103.965 21.9925C96.1398 21.6815 88.3926 21.1034 80.7556 19.443C66.6688 16.3831 54.1504 9.2008 48.4079 -4.29077L51.6205 -159.356Z" stroke="#F5F3F0" stroke-width="2"/>
<path d="M9.03251 -197.902L9.03236 -197.901C-6.03434 -150.684 -12.3475 -99.975 -6.28084 -50.6002C-0.985649 -7.44601 13.2235 38.2229 47.8559 67.2163C80.2572 94.3586 123.159 101.607 164.036 101.46C178.412 101.416 192.767 100.781 207.1 100.132L208.263 100.079C222.213 99.4467 236.142 98.8154 250.085 98.7119C278.154 98.5046 306.213 99.7563 334.151 102.462L334.152 102.462C348.476 103.844 362.757 105.605 376.996 107.744C388.548 109.487 400.038 111.407 411.299 114.368C432.371 119.902 453.312 129.035 467.734 145.675C471.328 149.847 474.447 154.405 477.033 159.267C477.376 159.915 477.929 160.321 478.567 160.449C479.174 160.571 479.774 160.427 480.251 160.152C481.196 159.607 481.948 158.32 481.211 156.936L481.209 156.933C469.837 135.735 451.02 123.169 429.793 115.206C408.583 107.249 384.877 103.856 363.631 101.057C335.952 97.3834 308.104 95.1203 280.194 94.2765L280.194 94.2765C251.925 93.4332 223.775 94.6122 195.582 95.8422C151.394 97.7596 104.935 97.8811 66.0728 74.4259C49.2245 64.1591 35.0936 49.9861 24.8731 33.1034L24.8709 33.0997C12.7131 13.2125 5.73075 -9.58983 1.33838 -32.45L1.33835 -32.4501C-7.99332 -80.9799 -4.21588 -131.792 8.54321 -179.386L8.54324 -179.387C10.0867 -185.147 11.7675 -190.866 13.5857 -196.544C13.8168 -197.237 13.7386 -197.918 13.3895 -198.472C13.0557 -199.002 12.5288 -199.332 11.9968 -199.477C10.9428 -199.766 9.50618 -199.384 9.03251 -197.902Z" stroke="#F5F3F0" stroke-width="2"/>
</g>
<defs>
<clipPath id="clip0">
<rect width="377" height="170" fill="white"/>
</clipPath>
</defs>
</svg>
