<svg width="840" height="613" viewBox="0 0 840 613" fill="none" xmlns="http://www.w3.org/2000/svg">
<g clip-path="url(#clip0_604:61674)">
<path opacity="0.1" d="M458.844 212.845C479.736 248.131 492.33 288.477 483.499 325.805C471.779 371.264 424.239 391.352 381.009 378.714L381.927 378.83C334.53 372.453 283.742 328.816 254.255 294.119C228.477 263.787 208.877 228.753 193.048 192.36C179.881 162.09 162.901 126.563 170.225 92.7217C177.566 58.7966 210.842 34.2509 245.044 33.6825C293.882 32.8715 333.43 69.2389 363.546 103.607C395.086 139.615 434.251 171.3 458.844 212.845Z" fill="#402B1D"/>
<path opacity="0.1" d="M733.725 269.607C743.161 287.115 749.202 305.399 750.137 324.318C752.421 370.65 727.631 413.609 694.271 444.121C652.29 482.529 564.578 536.633 509.526 500.159C492.689 489.004 484.153 468.755 484.41 448.958C484.911 410.163 515.169 379.81 513.513 339.301C511.648 293.73 485.71 251.301 449.175 224.918C422.052 205.325 395.998 181.997 400.646 145.305C404.571 114.37 429.777 89.8243 460.135 84.4552C515.562 74.648 568.527 104.751 610.526 137.708C655.611 173.089 706.361 218.831 733.725 269.607ZM501.567 406.118C502.058 405.004 502.487 403.841 502.956 402.737L501.567 406.118Z" fill="#C28566"/>
<path opacity="0.15" d="M171.692 168.456C176.742 191.668 171.796 221.442 174.141 245.294C177.66 281.085 196.233 314.275 219.084 341.38C218.148 340.086 217.189 338.808 216.208 337.548C231.057 356.68 248.259 373.803 267.739 388.224C283.871 400.165 303.228 408.074 316.11 423.935C337.82 450.666 336.583 487.441 300.295 499.434C259.453 512.93 210.87 493.816 172.741 479.166C76.7432 442.271 -38.9141 370.597 -4.52041 249.38C10.0303 198.1 60.4733 129.252 120.256 130.822C154.278 131.715 167.107 147.377 171.692 168.456ZM173.538 238.03C173.76 239.775 173.964 241.524 174.19 243.267L173.538 238.03Z" fill="#DF936D"/>
<path opacity="0.15" d="M496.483 141.184C492.259 125.939 488.177 110.643 483.772 95.4473C479.677 81.3288 474.726 67.1772 465.887 55.2566C461.593 49.4658 456.378 44.2552 450.334 40.2968C445.275 36.9828 439.005 34.2202 432.859 35.7792C429.326 36.6854 426.402 39.1386 423.634 41.3888C420.579 43.8806 417.624 46.4908 414.692 49.1249C409.049 54.1937 403.49 59.3642 397.491 64.0179C385.693 73.1703 372.019 79.152 359.356 86.9225C353.039 90.7992 346.934 95.1766 341.901 100.658C336.453 106.59 334.802 113.158 333.894 120.965C333.06 128.143 332.283 135.499 332.564 142.736C332.851 150.543 335.39 156.902 341.655 161.73C346.61 165.546 352.452 168.369 356.44 173.316C359.809 177.495 361.262 182.916 360.683 188.236C359.909 195.351 355.523 199.615 351.478 205.082C349.348 207.961 346.6 213.697 350.61 216.353C353.635 218.37 357.906 216.363 360.233 214.198C363.167 211.463 364.675 207.688 366.889 204.429C368.379 202.239 370.557 200.214 373.404 200.599C378.595 201.303 377.03 208.708 372.351 207.388C371.144 207.048 370.872 205.318 371.996 204.691C375.431 202.779 380.635 203.597 382.063 207.713C383.421 211.622 380.33 215.574 376.602 216.462C376.292 216.534 375.968 216.504 375.676 216.378C375.384 216.251 375.141 216.034 374.982 215.758C374.823 215.483 374.757 215.164 374.793 214.848C374.829 214.532 374.966 214.236 375.183 214.003C377.701 211.325 381.985 211.227 384.818 213.541C387.72 215.913 387.467 219.927 385.135 222.609C379.267 229.361 369.185 224.166 369.728 215.713C369.81 214.461 371.285 213.768 372.244 214.666C374.329 216.647 373.734 219.822 371.543 221.515C368.929 223.537 365.396 222.482 362.974 220.729C362.302 220.244 361.83 219.063 362.656 218.415C364.641 216.856 367.333 216.974 369.003 219.031C370.945 221.412 369.656 224.585 368.084 226.774C365.108 230.901 356.995 236.256 353.731 229.429C351.17 224.058 357.935 220.949 361.673 224.716C366.07 229.147 362.735 236.381 358.213 239.229C353.042 242.498 345.987 240.654 342.716 235.588C339.963 231.342 340.798 223.25 347.389 224.138C349.49 224.421 351.464 226.416 349.99 228.514C348.759 230.265 345.609 230.154 343.83 229.48C340.652 228.274 339.211 224.427 338.185 221.486C336.921 217.913 336.233 214.163 336.146 210.374C336.109 207.902 337.069 204.842 340.147 205.905C341.992 206.54 344.355 208.88 343.453 210.996C342.247 213.821 337.629 212.534 335.512 211.766C331.804 210.424 328.962 207.757 327.868 203.931L330.032 204.835C325.674 207.81 317.81 208.304 315.289 202.72C314.958 201.989 315.082 201.138 315.829 200.707C319.113 198.775 324.175 201.333 323.893 205.404C323.66 208.763 319.488 212.224 316.306 210.263C315.118 209.532 315.503 208.023 316.667 207.558C321.735 205.527 330.158 207.744 329.219 214.594C328.534 219.598 321.284 221.707 319.111 216.463C317.433 212.413 323.869 210.358 326.744 210.228C333.101 209.939 338.273 215.458 337.528 221.763C337.151 224.942 335.306 227.923 332.046 228.658C329.359 229.265 326.981 228.124 326.782 225.249C326.783 224.924 326.893 224.609 327.092 224.352C327.292 224.095 327.571 223.912 327.885 223.83C329.825 223.515 332.738 222.757 334.266 224.426C335.907 226.222 335.502 230.006 334.925 232.117C333.373 237.83 327.579 241.581 321.743 241.274C319.883 241.178 316.744 240.545 316.618 238.18C316.492 235.815 319.363 234.611 321.269 234.361C323.287 234.108 325.995 234.441 326.928 236.547C328.016 239.007 326.461 242.651 325.129 244.732C321.331 250.652 312.629 253.307 306.506 249.369C305.654 248.821 305.564 247.81 306.189 247.055C307.841 245.053 310.808 245.377 312.453 247.278C314.273 249.379 314.045 253.351 312.537 255.574C311.353 257.317 308.807 258.498 306.713 258.398C304.982 258.314 302.552 256.778 303.32 254.708C304.133 252.515 307.252 253.288 308.641 254.374C310.635 255.935 311.328 258.536 311.003 260.96C310.322 266.134 305.506 270.935 300.101 269.036C299.039 268.669 298.463 266.89 299.747 266.339C301.46 265.602 304.426 264.666 305.771 266.545C307.283 268.671 305.224 270.962 303.116 271.329C297.425 272.325 289.57 267.564 291.9 261.066C292.366 259.775 293.235 258.666 294.378 257.904C295.521 257.142 296.878 256.767 298.25 256.833C300.463 256.972 303.603 258.765 303.254 261.369C302.835 264.505 298.418 264.465 296.21 263.603C293.078 262.379 291.307 259.38 291.579 256.074C292.385 246.562 303.302 244.635 308.5 238.451C312.054 234.226 310.139 228.153 305.909 225.12C302.084 222.366 297.195 224.275 292.952 224.787C284.973 225.74 275.828 224.684 270.063 218.512C264.543 212.602 264.497 204.812 265.791 197.297C267.285 188.613 268.898 179.296 260.407 173.59C252.638 168.369 242.019 168.474 233.031 168.806C211.711 169.592 190.491 172.519 169.19 173.771C158.763 174.38 147.97 174.283 137.708 176.416C128.763 178.276 120.287 182.551 115.607 190.707C106.433 206.693 114.409 226.154 122.335 240.782C132.628 259.779 144.614 279.094 160.978 293.494C165.117 297.136 169.85 298.898 175.012 296.11C179.578 293.647 183.495 290.079 188.013 287.499C196.299 282.778 205.942 280.633 215.438 280.819C234.815 281.197 251.823 290.561 265.281 303.982C276.953 315.619 288.067 330.673 305.058 334.58C313.838 336.596 323.434 334.757 330.019 328.353C337.373 321.202 339.087 310.787 334.666 301.581C333.535 299.224 332.947 296.679 335.927 295.468C339.007 294.223 343.265 295.369 346.13 296.626C354.062 300.107 359.922 307.628 361.809 316.016C365.524 332.528 356.389 348.336 352.18 363.803C350.042 371.675 349.067 379.985 351.539 387.902C354.857 398.562 364.285 405.276 371.213 413.46C377.421 420.773 381.744 429.503 382.066 439.219C382.32 447.439 379.955 455.529 375.314 462.323C372.815 465.951 368.985 468.749 367.019 472.718C364.494 477.818 368.6 482.158 371.688 485.836C378.583 494.021 385.926 501.818 393.682 509.193C423.219 537.363 458.92 561.452 500.391 566.351C510.22 567.515 520.671 567.245 529.62 562.523C538.534 557.819 545.124 549.783 550.099 541.189C559.393 525.13 564.428 506.559 564.237 488.005C564.026 467.251 557.04 447.299 551.071 427.66C546.088 411.265 540.973 393.13 527.791 381.251C521.166 375.278 513.534 372.923 505.152 370.584C501.448 369.553 497.682 368.435 494.276 366.638C490.773 364.786 488.593 362.051 486.231 358.937C479.912 350.606 474.655 341.679 470.11 332.272C466.189 324.16 462.416 315.887 457.163 308.527C451.648 300.803 444.141 294.325 435.028 291.314C428.197 289.063 419.651 288.573 414.597 282.816C412.188 280.074 409.28 272.531 414.151 270.646C416.769 269.633 418.861 271.576 419.756 273.897C420.789 276.576 420.195 279.192 419.131 281.768C416.786 287.443 411.162 294.304 404.266 293.238C397.206 292.136 395.09 283.986 394.342 277.973C392.465 262.902 395.548 239.967 376.833 234.612C371.803 233.172 366.58 233.976 364.286 239.112C362.911 242.174 361.605 244.943 358.01 245.689C354.505 246.417 351.059 244.924 347.619 244.547C342.167 243.948 338.019 246.668 333.98 249.941C332.346 251.267 330.655 252.485 328.68 253.259C326.447 254.138 324.041 254.452 321.783 255.257C316.85 257.031 313.554 261.482 312.401 266.492C310.205 276.027 316.99 283.942 323.395 290.044C329.589 295.948 337.161 302.552 337.016 311.892C336.894 319.68 330.56 324.102 323.138 321.707C314.579 318.943 310.195 310.804 306.167 303.425C301.169 294.277 294.452 287.103 285.53 281.658C272.65 273.79 252.56 265.205 254.658 246.808C255.426 240.084 260.203 233.614 267.047 232.159C275.517 230.361 281.916 236.693 288.601 240.661C292.701 243.095 297.73 244.46 302.244 242.216C305.99 240.354 309.119 235.98 308.621 231.645C307.57 222.596 296.394 221.856 289.444 222.465C281.835 223.131 272.845 224.053 267.716 217.064C262.68 210.205 264.33 200.805 264.37 192.889C264.393 188.222 264.081 183.545 262.841 179.034C261.483 174.06 258.881 169.665 256.279 165.252C251.307 156.817 247.152 148.651 246.667 138.689C246.209 129.317 248.101 118.91 243.268 110.358C238.633 102.157 228.591 96.8708 219.178 97.8561C214.394 98.3506 209.822 100.783 207.193 104.881C204.758 108.672 204.906 113.286 209.324 115.451C212.238 116.886 220.21 116.486 218.461 111.363C217.537 108.652 212.739 105.958 210.941 109.187L209.287 107.024C215.392 105.551 222.116 109.066 222.683 115.753C223.282 122.844 216.39 127.945 209.749 126.814C203.017 125.662 196.718 119.921 195.944 113.005C194.956 104.135 202.404 97.0883 209.409 93.0217C217.579 88.2676 227.93 85.7124 237.195 88.4799C247.138 91.4539 252.992 100.119 256.102 109.589C259.803 120.843 260.211 134.31 268.465 143.545C270.953 146.331 275.287 149.525 279.077 147.24C283.446 144.593 282.895 139.467 281.047 135.467C277.182 127.091 270.233 120.563 268.847 111.053C267.572 102.306 270.588 92.7941 277.47 87.0323C283.939 81.6165 293.472 79.752 301.444 82.7273C304.905 84.0196 308.097 86.4246 309.384 90.0093C310.671 93.594 308.788 96.543 306.008 98.7345C304.804 99.6849 303.476 100.48 302.379 101.561C302.17 101.77 300.551 103.447 301.835 103.264C302.38 103.185 303.075 101.383 303.27 100.939C304.19 98.8465 304.524 96.4771 302.751 94.6694C300.772 92.6519 297.42 92.4958 294.815 93.016C290.494 93.884 286.337 96.8143 284.082 100.613C281.475 105.003 281.651 110.286 283.022 115.044C289.67 138.129 314.826 149.004 335.135 157.049C343.783 160.473 353.896 164.723 358.285 173.563C360.358 177.761 360.764 182.589 359.421 187.077C357.95 192.016 354.598 196.037 351.772 200.242C349.115 204.193 346.475 208.699 346.659 213.623C346.939 220.986 354.626 221.963 359.227 217.213C362.738 213.585 364.336 208.255 366.741 203.902C368.773 200.224 371.418 196.727 375.237 194.774C381.808 191.417 390.289 192.5 396.606 195.921C402.722 199.228 407.411 204.774 410.796 210.755C417.178 222.031 420.05 235.53 417.154 248.229C416.367 251.676 415.559 255.155 415.284 258.689C415.111 260.915 414.702 265.291 417.234 266.454C420.618 268.006 425.315 262.851 427.502 260.897C431.527 257.3 435.323 253.547 438.696 249.333C452.107 232.484 458.89 211.476 462.428 190.504C464.032 181 464.037 170.789 467.481 161.695C471.08 152.207 478.71 146.025 488.301 143.123C508.01 137.159 529.656 142.686 548.035 150.386C568.386 158.912 588.276 169.735 606.801 181.683C616.382 187.862 625.612 194.612 634.219 202.101C642.641 209.442 650.721 217.91 654.363 228.708C661.198 248.899 647.729 269.001 637.364 285.284C624.655 305.233 613.379 326.282 598.627 344.86C585.056 361.957 567.883 376.46 546.485 382.333C528.037 387.4 507.892 385.564 493.162 372.515C477.645 358.776 471.407 338.101 458.297 322.474C452.422 315.473 445.186 309.188 436.426 306.171C427.364 303.048 418.392 304.816 409.104 305.386C400.943 305.886 392.437 304.522 387.287 297.503C382.006 290.293 382.053 280.488 381.06 271.978C379.899 262.106 377.076 253.114 368.023 247.821C359.762 242.989 348.955 242.086 340.16 246.053C331.486 249.959 325.594 258.311 324.005 267.592C323.246 272.035 323.526 276.725 325.036 280.982C326.771 285.879 330.179 289.398 334.021 292.757C337.789 296.054 341.86 299.392 343.789 304.162C345.404 308.154 345.202 312.618 343.765 316.645C340.763 325.004 333.355 330.874 325.133 333.685C305.481 340.421 286.525 331.073 271.551 318.718C255.591 305.543 240.405 287.765 218.439 285.633C199.015 283.748 180.052 294.385 167.752 308.833C154.218 324.726 148.736 345.884 146.891 366.258C144.85 388.731 146.995 411.347 145.125 433.835C144.189 445.188 140.819 456.568 141.302 467.991C141.713 477.641 145.411 486.817 151.057 494.582C177.379 530.778 228.201 527.695 267.525 522.877C289.156 520.226 311.167 517.4 331.732 509.809C350.605 502.844 369.808 490.269 375.913 470.023C381.575 451.221 377.139 430.588 367.199 414.094C361.763 405.075 355.24 396.549 351.595 386.575C348.428 377.9 348.62 369.035 350.818 360.171C354.532 345.222 364.202 329.261 358.467 313.627C357.816 311.851 360.669 311.114 361.32 312.884C367.137 328.743 357.912 344.739 353.938 359.857C351.325 369.806 351.464 379.367 355.686 388.889C360.071 398.784 366.964 407.318 372.135 416.771C380.789 432.59 383.973 452.506 378.98 470.015C373.544 489.135 356.967 502.214 339.371 509.882C319.445 518.566 297.628 521.94 276.224 524.713C254.973 527.469 233.402 530.086 211.987 528.025C192.166 526.12 172.723 519.854 157.743 506.295C151 500.192 145.391 492.737 141.957 484.274C138.25 475.135 137.785 465.693 139.143 456.002C140.779 444.322 142.537 432.895 142.87 421.08C143.207 409.351 142.88 397.617 143.032 385.887C143.294 365.549 145.251 344.805 153.655 326.031C161.419 308.688 175.107 294.128 192.845 286.849C201.434 283.324 210.838 281.655 220.083 282.87C229.899 284.149 238.888 288.522 246.911 294.154C264.139 306.253 277.805 325.063 298.728 331.192C308.094 333.932 318.905 333.713 327.802 329.426C336.094 325.418 344.769 315.705 341.263 305.801C339.245 300.094 333.583 296.547 329.382 292.562C326.243 289.582 323.777 286.162 322.296 282.083C319.431 274.172 320.456 265.138 324.179 257.688C332.361 241.32 353.116 236.209 368.797 244.886C376.599 249.203 381.166 256.273 382.927 264.904C384.808 274.136 383.798 284.591 388.098 293.189C392.742 302.476 402.728 303.047 411.897 302.234C421.067 301.421 429.841 300.459 438.653 303.867C456.013 310.594 466.152 327.24 474.973 342.603C480.455 352.146 486.075 361.895 494.198 369.48C501.819 376.608 511.621 380.964 522.025 381.845C543.72 383.787 564.971 374.015 580.817 359.742C598.428 343.875 610.692 323.115 622.87 303.056C629.082 292.826 635.728 282.848 641.798 272.535C647.223 263.325 652.413 253.37 653.132 242.514C653.921 230.516 648.099 220.197 640.055 211.703C631.927 203.124 622.305 195.801 612.604 189.1C593.986 176.241 573.734 165.306 553.182 155.866C534.15 147.123 511.87 140.041 490.872 145.473C485.394 146.887 480.074 149.341 476.047 153.397C472.256 157.216 470.091 162.192 468.838 167.357C466.51 176.919 466.197 186.974 464.296 196.653C460.283 217.082 452.805 237.279 439.204 253.347C435.923 257.225 432.245 260.655 428.451 264.019C425.854 266.32 422.758 269.154 419.162 269.586C412.351 270.401 411.925 262.23 412.459 257.486C413.12 251.521 415.399 245.736 415.498 239.731C415.611 232.671 414.039 225.536 411.463 218.986C408.739 212.056 404.565 205.244 398.551 200.69C392.363 196.004 382.68 193.566 375.661 197.95C367.067 203.317 367.265 215.899 358.847 221.397C355.499 223.582 350.642 224.068 347.325 221.585C344.153 219.221 343.408 214.993 343.836 211.268C345.003 201.149 354.58 194.993 356.838 185.428C359.764 173.069 347.963 165.698 338.291 161.524C328.01 157.084 317.535 153.465 307.878 147.659C298.101 141.775 289.09 134.102 283.584 123.952C279.564 116.542 276.918 106.968 281.529 99.1822C285.271 92.8609 293.868 88.0393 301.224 90.447C305.028 91.6911 307.659 95.2793 306.892 99.3608C306.462 101.647 305.152 105.048 302.902 106.108C300.652 107.169 297.981 105.092 298.351 102.648C298.791 99.7697 302.163 98.0835 304.209 96.4488C306.255 94.8141 307.595 92.9241 306.308 90.3259C305.202 88.0908 303.116 86.5967 300.851 85.6798C296.583 83.9524 291.516 83.9307 287.12 85.1848C276.672 88.1704 270.67 98.7634 271.584 109.288C272.46 119.37 280.282 126.089 284.02 134.955C285.335 138.073 286.078 141.611 284.766 144.86C283.5 147.994 280.558 150.622 277.124 150.958C268.692 151.78 262.819 141.785 260.195 135.294C255.572 123.847 255.614 110.403 248.298 100.091C241.784 90.9117 230.808 88.7127 220.362 91.6091C211.638 94.0276 198.685 101.007 198.806 111.624C198.885 118.87 208.304 126.968 215.505 123.287C218.843 121.581 220.756 117.421 219.218 113.899C217.643 110.291 213.656 109.03 210.036 109.904C209.756 109.972 209.462 109.956 209.191 109.859C208.919 109.763 208.681 109.59 208.506 109.361C208.331 109.132 208.226 108.857 208.204 108.57C208.182 108.283 208.244 107.995 208.382 107.742C211.263 102.59 218.253 104.99 220.726 109.302C224.276 115.496 216.873 120.006 211.388 119.143C204.425 118.044 200.746 111.519 203.725 105.109C207.193 97.6394 215.705 94.2241 223.557 94.9224C231.595 95.6468 239.325 99.8443 244.147 106.328C249.625 113.699 249.631 122.892 249.553 131.68C249.51 136.464 249.475 141.307 250.571 145.991C251.803 151.249 254.323 156.037 257.012 160.674C261.788 168.913 266.168 176.459 267.068 186.13C267.868 194.718 265.232 204.631 268.673 212.782C272.772 222.486 284.107 219.711 292.382 219.323C299.083 219.011 306.77 220.799 310.242 227.166C313.546 233.248 310.384 240.623 304.817 244.154C297.45 248.83 289.564 245.011 283.206 240.622C279.611 238.14 275.749 235.292 271.262 234.841C266.952 234.407 262.906 236.548 260.374 239.979C254.692 247.667 258.045 257.725 264.196 263.922C270.347 270.12 278.366 273.996 285.796 278.375C293.843 283.121 301.005 289.277 306.021 297.227C310.899 304.959 314.33 315.745 323.925 318.863C329.326 320.617 333.793 317.998 334.085 312.244C334.351 307.006 331.352 302.386 327.972 298.664C322.165 292.271 314.773 287.138 311.093 279.059C307.882 272.023 308.534 263.734 313.522 257.643C316.348 254.186 320.02 252.608 324.25 251.503C326.944 250.798 329.294 249.921 331.509 248.191C333.346 246.759 335.054 245.198 337.075 244.016C340.424 242.032 344.332 241.204 348.196 241.66C351.715 242.1 357.285 244.668 359.959 241.228C362.238 238.297 362.355 234.893 365.767 232.745C369.137 230.624 373.399 230.654 377.132 231.642C394.569 236.261 395.754 254.749 396.626 269.785C396.97 275.691 396.733 288.748 404.454 290.281C408.578 291.1 412.205 287.58 414.337 284.465C416.028 281.989 418.151 278.295 417.109 275.213C416.826 274.375 415.827 272.645 414.792 273.691C414.372 274.114 414.522 275.19 414.579 275.681C414.742 277.052 415.179 278.377 415.866 279.575C417.829 282.976 421.92 284.559 425.477 285.645C429.233 286.795 433.132 287.461 436.83 288.82C440.885 290.308 444.702 292.378 448.161 294.963C462.845 305.924 468.508 323.819 476.966 339.265C479.572 344.022 482.447 348.627 485.576 353.058C488.276 356.884 490.92 361.331 495.099 363.714C501.855 367.556 509.892 368.21 517.023 371.056C533.02 377.435 542.022 392.839 547.814 408.217C550.941 416.517 553.354 425.075 555.963 433.553C559.103 443.768 562.234 454.005 564.419 464.476C568.114 482.226 568.154 500.321 563.139 517.827C558.333 534.584 549.65 552.846 534.77 562.871C518.94 573.533 498.125 570.099 480.785 565.56C441.586 555.297 408.052 529.268 380.631 500.276C376.962 496.397 373.405 492.417 369.96 488.336C367.52 485.442 364.623 482.419 363.583 478.672C362.578 475.044 363.901 471.633 366.084 468.726C368.87 465.018 372.284 462.029 374.571 457.923C379.033 449.928 380.369 440.294 377.932 431.44C374.917 420.489 366.741 413.191 359.279 405.19C352.968 398.425 348.207 390.926 347.293 381.54C346.541 373.851 348.286 366.167 350.583 358.875C355.408 343.566 365.299 324.768 355.99 309.244C353.315 304.783 349.041 300.849 344.123 299.006C342.455 298.379 340.179 297.732 338.363 298.001C336.547 298.271 336.559 298.725 337.223 300.139C337.573 300.889 337.923 301.613 338.22 302.397C341.283 310.548 340.585 319.297 335.483 326.497C325.817 340.132 307.916 340.865 294.118 333.568C278.314 325.209 268.534 309.546 254.88 298.523C239.597 286.193 218.175 280.199 199.03 286.01C193.751 287.612 189.01 290.16 184.481 293.276C180.84 295.775 177.297 298.977 172.945 300.166C164.008 302.608 156.829 293.997 151.45 288.232C144.314 280.585 137.97 272.186 132.296 263.409C126.408 254.321 120.769 244.869 116.125 235.08C109.58 221.288 104.967 204.258 112.716 189.915C121.86 172.988 142.59 172.384 159.497 171.408C180.788 170.203 201.96 168.001 223.221 166.475C237.594 165.443 263.086 162.73 269.161 180.243C271.749 187.673 268.573 195.354 268.021 202.834C267.299 212.649 273.152 220.24 282.927 221.803C287.913 222.609 292.682 221.853 297.603 221.09C301.073 220.551 304.54 220.562 307.521 222.65C313.666 226.955 315.427 235.572 310.079 241.127C306.858 244.475 302.397 246.22 298.892 249.21C295.846 251.819 291.334 259.211 297.72 261.07C298.948 261.427 301.024 260.863 298.978 260.06C298.493 259.863 297.967 259.787 297.446 259.841C296.925 259.895 296.425 260.076 295.99 260.368C293.714 261.864 294.263 265.05 296.064 266.657C297.33 267.788 299.411 268.298 301.069 268.447C301.43 268.479 303.105 268.662 303.251 268.448C303.119 268.643 301.574 268.772 301.209 268.93L300.854 266.232C304.732 267.599 308.048 263.728 308.139 260.014C308.172 258.686 307.552 258.142 307.109 256.996C306.494 255.44 306.748 255.682 308.056 255.276C308.56 255.147 309.029 254.906 309.427 254.571C309.826 254.237 310.144 253.817 310.358 253.343C310.612 252.607 310.741 251.834 310.74 251.056C310.831 249.216 310.008 248.588 308.27 249.172L307.953 246.858C311.825 249.35 317.284 248.491 320.656 245.504C322.33 244.019 323.508 242.058 324.033 239.885C324.4 238.355 324.025 237.415 322.302 237.265C321.685 237.21 320.016 237.468 320.175 238.003C320.508 239.071 324.524 238.167 325.374 237.914C327.192 237.369 328.98 236.362 330.227 234.906C331.756 233.069 332.521 230.714 332.362 228.331C332.309 227.414 332.407 226.822 331.533 226.403C330.848 226.082 329.372 226.591 328.616 226.716L329.719 225.296C329.792 226.371 331.4 225.865 331.967 225.637C333.18 225.149 333.87 224.104 334.289 222.879C334.613 221.899 334.73 220.863 334.634 219.836C334.538 218.808 334.23 217.812 333.73 216.91C331.934 213.735 328.099 212.594 324.73 213.604C324.054 213.804 322.266 214.279 322.001 215.013C321.735 215.747 322.392 216.079 323.104 216.359C324.279 216.835 325.206 216.524 325.884 215.426C327.037 213.551 325.834 211.326 324.073 210.401C321.974 209.297 319.51 209.578 317.394 210.429L317.755 207.723C318.941 208.456 320.744 206.616 320.9 205.471C321.159 203.621 318.742 202.426 317.292 203.28L317.832 201.268C319.695 205.393 325.471 204.408 328.55 202.307C329.364 201.752 330.466 202.354 330.715 203.211C331.427 205.693 333.088 207.464 335.4 208.575C335.976 208.851 339.707 210.404 340.387 209.765C340.349 209.801 340.084 208.792 339.497 208.862C338.733 208.963 339.074 210.183 339.095 210.794C339.183 212.756 339.443 214.705 339.872 216.62C340.548 219.801 342.015 226.719 346.03 226.952C346.62 226.991 348.232 226.837 346.789 227.064C345.581 227.256 344.966 227.266 344.366 228.551C343.537 230.318 344.226 232.599 345.26 234.128C349.551 240.484 361.022 238.101 360.747 229.788C360.693 228.173 358.366 223.916 356.477 226.373C355.15 228.097 357.532 229.811 359.087 229.763C361.314 229.69 363.287 227.88 364.679 226.325C365.339 225.619 365.913 224.836 366.387 223.993C366.79 223.343 367.016 222.599 367.042 221.835C366.621 220.412 365.856 219.965 364.748 220.495L364.431 218.182C365.225 218.757 366.008 219.292 366.985 219.541C368.167 219.839 372.334 218.836 370.171 216.78L372.687 215.733C372.378 220.446 376.812 224.764 381.394 221.971C383.029 220.976 384.752 218.865 383.814 216.828C382.677 214.367 378.954 214.306 377.299 216.072L375.879 213.613C377.756 213.164 379.596 211.521 379.447 209.416C379.239 206.467 375.488 206.13 373.484 207.244L373.13 204.547L373.335 203.561C372.8 203.456 372.246 203.504 371.736 203.698C371.227 203.892 370.782 204.225 370.452 204.659C369.723 205.363 369.218 206.275 368.703 207.123C367.808 208.594 366.979 210.102 366.053 211.563C364.473 214.031 362.636 216.415 360.142 218.031C356.272 220.549 350.274 221.225 347.217 217.11C343.988 212.759 346.393 206.966 349.273 203.17C351.419 200.332 354.051 197.832 355.732 194.665C357.308 191.673 358.043 188.31 357.858 184.935C357.081 170.432 340.166 167.983 333.418 157.298C329.788 151.552 329.422 144.383 329.646 137.78C329.885 130.502 330.538 123.243 331.603 116.039C332.615 109.268 335.184 103.644 339.825 98.5897C344.782 93.1774 350.813 88.7856 357.017 84.9202C370.055 76.8004 384.285 70.7357 396.418 61.166C402.605 56.2842 408.337 50.8581 414.216 45.6242C419.048 41.3215 424.376 35.7316 430.56 33.428C442.203 29.0923 454.655 38.5445 462.252 46.4015C473.527 58.0694 480.005 73.2208 484.785 88.5002C490.145 105.646 494.562 123.122 499.356 140.436C499.862 142.261 497.009 143.009 496.503 141.179L496.483 141.184Z" fill="#402B1D"/>
</g>
<defs>
<clipPath id="clip0_604:61674">
<rect width="923" height="613" fill="white" transform="matrix(1 0 0 -1 -83 613)"/>
</clipPath>
</defs>
</svg>
