<svg width="744" height="392" viewBox="0 0 744 392" fill="none" xmlns="http://www.w3.org/2000/svg">
<g clip-path="url(#clip0_677:61716)">
<path opacity="0.1" d="M381.156 400.155C360.264 364.869 347.67 324.523 356.502 287.195C368.221 241.736 415.761 221.648 458.991 234.286L458.073 234.17C505.47 240.547 556.258 284.184 585.745 318.881C611.523 349.213 631.123 384.247 646.952 420.64C660.119 450.91 677.099 486.437 669.775 520.278C662.434 554.203 629.158 578.749 594.956 579.318C546.119 580.128 506.571 543.761 476.454 509.393C444.914 473.385 405.749 441.7 381.156 400.155Z" fill="#402B1D"/>
<path opacity="0.1" d="M106.275 343.393C96.8386 325.885 90.7983 307.601 89.8633 288.682C87.5787 242.35 112.369 199.391 145.729 168.879C187.71 130.471 275.422 76.3669 330.474 112.841C347.311 123.996 355.847 144.245 355.59 164.042C355.089 202.837 324.831 233.19 326.487 273.699C328.352 319.27 354.29 361.699 390.824 388.082C417.948 407.675 444.002 431.003 439.353 467.695C435.429 498.63 410.223 523.176 379.865 528.545C324.438 538.352 271.473 508.249 229.474 475.292C184.389 439.911 133.639 394.169 106.275 343.393ZM338.433 206.882C337.942 207.996 337.513 209.159 337.044 210.263L338.433 206.882Z" fill="#C28566"/>
<path opacity="0.15" d="M668.308 444.544C663.257 421.332 668.204 391.558 665.859 367.706C662.34 331.915 643.767 298.725 620.916 271.62C621.852 272.914 622.811 274.192 623.792 275.452C608.942 256.32 591.741 239.197 572.261 224.776C556.128 212.835 536.772 204.926 523.89 189.065C502.18 162.334 503.416 125.559 539.705 113.566C580.546 100.07 629.13 119.184 667.259 133.834C763.257 170.729 878.914 242.403 844.52 363.62C829.97 414.9 779.527 483.748 719.744 482.178C685.722 481.285 672.893 465.623 668.308 444.544ZM666.462 374.97C666.24 373.225 666.036 371.476 665.81 369.733L666.462 374.97Z" fill="#DF936D"/>
<path opacity="0.15" d="M343.517 471.816C347.741 487.061 351.823 502.357 356.228 517.553C360.323 531.671 365.274 545.823 374.113 557.743C378.407 563.534 383.622 568.745 389.666 572.703C394.725 576.017 400.995 578.78 407.141 577.221C410.674 576.315 413.598 573.861 416.366 571.611C419.421 569.119 422.376 566.509 425.308 563.875C430.951 558.806 436.51 553.636 442.509 548.982C454.307 539.83 467.98 533.848 480.644 526.078C486.961 522.201 493.066 517.823 498.098 512.342C503.547 506.41 505.198 499.842 506.106 492.035C506.94 484.857 507.717 477.501 507.436 470.264C507.149 462.457 504.61 456.098 498.345 451.27C493.39 447.454 487.548 444.631 483.56 439.684C480.191 435.505 478.737 430.084 479.317 424.764C480.091 417.649 484.476 413.385 488.522 407.918C490.652 405.039 493.4 399.303 489.39 396.647C486.365 394.63 482.094 396.637 479.767 398.802C476.833 401.537 475.325 405.312 473.111 408.571C471.621 410.761 469.443 412.786 466.596 412.401C461.405 411.697 462.97 404.292 467.649 405.612C468.856 405.952 469.128 407.682 468.004 408.309C464.569 410.221 459.365 409.403 457.937 405.287C456.579 401.378 459.67 397.426 463.397 396.538C463.707 396.466 464.032 396.496 464.324 396.622C464.615 396.749 464.859 396.966 465.018 397.242C465.177 397.517 465.243 397.836 465.207 398.152C465.171 398.468 465.034 398.764 464.817 398.997C462.299 401.675 458.015 401.773 455.181 399.459C452.28 397.087 452.532 393.073 454.865 390.391C460.733 383.639 470.815 388.834 470.272 397.287C470.189 398.539 468.714 399.232 467.756 398.334C465.671 396.353 466.266 393.178 468.457 391.485C471.071 389.463 474.604 390.518 477.026 392.271C477.698 392.756 478.17 393.937 477.344 394.585C475.359 396.144 472.667 396.026 470.997 393.969C469.055 391.588 470.344 388.415 471.916 386.226C474.892 382.099 483.005 376.744 486.268 383.571C488.83 388.942 482.065 392.051 478.327 388.284C473.93 383.853 477.265 376.619 481.787 373.771C486.958 370.502 494.013 372.346 497.284 377.412C500.036 381.658 499.202 389.75 492.611 388.862C490.51 388.579 488.536 386.584 490.01 384.486C491.241 382.735 494.391 382.846 496.17 383.52C499.348 384.726 500.789 388.573 501.815 391.514C503.078 395.087 503.767 398.837 503.853 402.626C503.891 405.098 502.931 408.158 499.853 407.095C498.008 406.46 495.645 404.12 496.547 402.004C497.753 399.179 502.371 400.466 504.488 401.234C508.196 402.576 511.038 405.243 512.132 409.069L509.967 408.165C514.326 405.19 522.19 404.696 524.711 410.28C525.042 411.011 524.918 411.862 524.171 412.293C520.887 414.225 515.825 411.667 516.107 407.596C516.34 404.237 520.512 400.776 523.694 402.737C524.882 403.468 524.497 404.977 523.333 405.442C518.265 407.473 509.842 405.256 510.78 398.406C511.466 393.402 518.716 391.293 520.889 396.537C522.567 400.587 516.131 402.642 513.256 402.772C506.899 403.061 501.727 397.542 502.472 391.237C502.849 388.058 504.694 385.077 507.954 384.342C510.641 383.735 513.019 384.876 513.218 387.751C513.217 388.076 513.107 388.391 512.908 388.648C512.708 388.905 512.429 389.088 512.114 389.17C510.175 389.485 507.262 390.243 505.734 388.574C504.093 386.778 504.498 382.994 505.075 380.883C506.627 375.17 512.421 371.419 518.257 371.726C520.117 371.822 523.256 372.455 523.382 374.82C523.508 377.185 520.637 378.389 518.731 378.639C516.712 378.892 514.004 378.559 513.072 376.453C511.984 373.993 513.539 370.349 514.87 368.268C518.669 362.348 527.371 359.693 533.494 363.631C534.346 364.179 534.436 365.19 533.811 365.945C532.159 367.947 529.192 367.623 527.547 365.722C525.727 363.621 525.955 359.649 527.463 357.426C528.647 355.683 531.193 354.502 533.287 354.602C535.018 354.686 537.448 356.222 536.68 358.292C535.866 360.485 532.748 359.712 531.359 358.626C529.365 357.065 528.672 354.464 528.997 352.04C529.678 346.866 534.494 342.065 539.898 343.964C540.961 344.331 541.537 346.11 540.253 346.661C538.54 347.398 535.574 348.334 534.228 346.455C532.717 344.329 534.776 342.038 536.884 341.671C542.575 340.675 550.43 345.436 548.1 351.934C547.633 353.225 546.765 354.334 545.622 355.096C544.479 355.858 543.122 356.233 541.75 356.167C539.537 356.028 536.397 354.235 536.746 351.631C537.165 348.495 541.582 348.535 543.79 349.397C546.922 350.621 548.693 353.62 548.421 356.926C547.615 366.438 536.698 368.365 531.5 374.549C527.946 378.774 529.861 384.847 534.091 387.88C537.916 390.634 542.804 388.725 547.048 388.213C555.027 387.26 564.172 388.316 569.937 394.488C575.457 400.398 575.503 408.188 574.209 415.703C572.715 424.387 571.102 433.704 579.593 439.41C587.362 444.631 597.981 444.526 606.968 444.194C628.288 443.408 649.509 440.481 670.81 439.229C681.237 438.62 692.03 438.717 702.292 436.584C711.237 434.724 719.713 430.449 724.393 422.293C733.567 406.307 725.591 386.846 717.664 372.218C707.372 353.221 695.386 333.906 679.022 319.506C674.883 315.864 670.15 314.102 664.988 316.89C660.422 319.353 656.505 322.921 651.987 325.501C643.701 330.222 634.058 332.367 624.562 332.181C605.185 331.803 588.177 322.439 574.719 309.018C563.047 297.381 551.933 282.327 534.942 278.42C526.161 276.404 516.566 278.243 509.98 284.647C502.626 291.798 500.913 302.213 505.334 311.419C506.465 313.776 507.053 316.321 504.073 317.532C500.993 318.777 496.735 317.631 493.87 316.374C485.938 312.893 480.078 305.372 478.191 296.984C474.476 280.472 483.611 264.664 487.82 249.197C489.958 241.325 490.933 233.015 488.461 225.098C485.143 214.438 475.715 207.724 468.787 199.54C462.579 192.227 458.256 183.497 457.934 173.781C457.68 165.561 460.044 157.471 464.686 150.677C467.184 147.049 471.015 144.251 472.981 140.282C475.506 135.182 471.4 130.842 468.312 127.164C461.416 118.979 454.074 111.182 446.318 103.807C416.781 75.6373 381.08 51.5482 339.609 46.6495C329.78 45.4854 319.329 45.7547 310.38 50.4766C301.466 55.1809 294.876 63.2171 289.901 71.8113C280.607 87.87 275.572 106.441 275.763 124.995C275.974 145.749 282.96 165.701 288.929 185.34C293.912 201.735 299.027 219.87 312.209 231.749C318.834 237.722 326.465 240.077 334.848 242.416C338.552 243.447 342.318 244.565 345.724 246.362C349.227 248.214 351.407 250.949 353.769 254.063C360.088 262.394 365.345 271.321 369.89 280.728C373.811 288.84 377.583 297.113 382.837 304.473C388.351 312.197 395.858 318.675 404.972 321.686C411.803 323.937 420.349 324.427 425.403 330.184C427.812 332.926 430.72 340.469 425.849 342.354C423.231 343.367 421.139 341.424 420.244 339.103C419.211 336.424 419.805 333.808 420.868 331.232C423.214 325.557 428.838 318.696 435.733 319.762C442.794 320.864 444.91 329.014 445.658 335.027C447.535 350.098 444.452 373.033 463.167 378.388C468.197 379.828 473.42 379.024 475.714 373.888C477.089 370.826 478.395 368.057 481.99 367.311C485.495 366.583 488.941 368.076 492.381 368.453C497.833 369.052 501.981 366.332 506.02 363.059C507.654 361.733 509.345 360.515 511.32 359.741C513.553 358.862 515.959 358.548 518.217 357.743C523.15 355.969 526.446 351.518 527.599 346.508C529.795 336.973 523.01 329.058 516.605 322.956C510.411 317.052 502.839 310.448 502.984 301.108C503.106 293.32 509.44 288.898 516.861 291.293C525.421 294.057 529.805 302.196 533.833 309.575C538.83 318.723 545.548 325.897 554.47 331.342C567.35 339.21 587.439 347.795 585.342 366.192C584.574 372.916 579.797 379.386 572.953 380.841C564.483 382.639 558.084 376.307 551.399 372.339C547.299 369.905 542.27 368.54 537.756 370.784C534.01 372.646 530.881 377.02 531.379 381.355C532.43 390.404 543.606 391.144 550.556 390.535C558.165 389.869 567.154 388.947 572.284 395.936C577.319 402.795 575.67 412.195 575.63 420.111C575.607 424.778 575.919 429.455 577.159 433.966C578.517 438.94 581.119 443.335 583.721 447.748C588.693 456.183 592.848 464.349 593.333 474.311C593.791 483.683 591.899 494.09 596.732 502.642C601.367 510.843 611.409 516.129 620.822 515.144C625.605 514.649 630.178 512.217 632.807 508.119C635.242 504.328 635.094 499.714 630.676 497.549C627.762 496.114 619.79 496.514 621.539 501.637C622.463 504.348 627.261 507.042 629.059 503.813L630.713 505.976C624.608 507.449 617.884 503.934 617.317 497.247C616.718 490.156 623.61 485.055 630.251 486.186C636.983 487.338 643.282 493.079 644.056 499.995C645.044 508.865 637.596 515.912 630.591 519.978C622.421 524.732 612.07 527.288 602.805 524.52C592.862 521.546 587.008 512.881 583.898 503.411C580.197 492.157 579.789 478.69 571.535 469.455C569.047 466.669 564.713 463.475 560.923 465.76C556.554 468.407 557.105 473.533 558.953 477.533C562.818 485.909 569.767 492.437 571.153 501.947C572.428 510.694 569.412 520.206 562.53 525.968C556.061 531.383 546.528 533.248 538.556 530.273C535.095 528.98 531.902 526.575 530.616 522.991C529.329 519.406 531.212 516.457 533.992 514.266C535.196 513.315 536.524 512.52 537.621 511.439C537.83 511.23 539.449 509.553 538.165 509.736C537.62 509.815 536.924 511.617 536.73 512.061C535.81 514.153 535.476 516.523 537.249 518.331C539.228 520.348 542.58 520.504 545.184 519.984C549.506 519.116 553.663 516.186 555.918 512.387C558.525 507.997 558.349 502.714 556.978 497.956C550.33 474.871 525.174 463.996 504.865 455.951C496.217 452.527 486.104 448.277 481.715 439.437C479.642 435.239 479.236 430.411 480.579 425.923C482.05 420.984 485.402 416.963 488.228 412.758C490.885 408.807 493.525 404.301 493.34 399.377C493.061 392.014 485.374 391.037 480.772 395.787C477.262 399.415 475.664 404.745 473.259 409.098C471.227 412.776 468.582 416.273 464.763 418.226C458.192 421.583 449.711 420.5 443.394 417.079C437.277 413.772 432.589 408.226 429.204 402.245C422.822 390.969 419.95 377.47 422.846 364.771C423.633 361.324 424.441 357.845 424.716 354.311C424.889 352.085 425.298 347.709 422.766 346.546C419.382 344.994 414.685 350.149 412.498 352.103C408.472 355.7 404.677 359.453 401.304 363.667C387.893 380.516 381.11 401.524 377.572 422.496C375.968 432 375.963 442.211 372.519 451.305C368.92 460.793 361.29 466.975 351.699 469.877C331.989 475.841 310.343 470.314 291.965 462.614C271.614 454.088 251.724 443.265 233.199 431.317C223.618 425.138 214.388 418.388 205.781 410.899C197.359 403.558 189.278 395.09 185.637 384.292C178.802 364.101 192.271 343.999 202.636 327.716C215.345 307.767 226.62 286.718 241.373 268.14C254.944 251.043 272.117 236.54 293.515 230.667C311.963 225.6 332.108 227.436 346.838 240.485C362.355 254.224 368.593 274.899 381.703 290.526C387.577 297.527 394.814 303.812 403.574 306.829C412.636 309.952 421.608 308.184 430.895 307.614C439.057 307.114 447.562 308.478 452.713 315.497C457.993 322.707 457.947 332.512 458.94 341.022C460.101 350.894 462.924 359.886 471.977 365.179C480.238 370.011 491.045 370.914 499.84 366.947C508.514 363.041 514.406 354.689 515.995 345.408C516.754 340.965 516.474 336.275 514.963 332.018C513.229 327.121 509.821 323.602 505.979 320.243C502.211 316.946 498.14 313.608 496.211 308.838C494.595 304.846 494.798 300.382 496.235 296.355C499.237 287.996 506.645 282.126 514.867 279.315C534.519 272.579 553.475 281.927 568.449 294.282C584.409 307.457 599.595 325.235 621.561 327.367C640.985 329.252 659.948 318.615 672.248 304.167C685.782 288.274 691.264 267.116 693.108 246.742C695.15 224.269 693.005 201.653 694.874 179.165C695.811 167.812 699.181 156.432 698.698 145.009C698.286 135.359 694.589 126.183 688.943 118.418C662.621 82.2225 611.799 85.3045 572.474 90.1229C550.844 92.7741 528.833 95.6001 508.268 103.191C489.395 110.156 470.192 122.731 464.087 142.977C458.425 161.779 462.86 182.412 472.8 198.906C478.237 207.925 484.759 216.451 488.405 226.425C491.572 235.1 491.38 243.965 489.182 252.829C485.468 267.778 475.797 283.739 481.533 299.373C482.184 301.149 479.331 301.886 478.68 300.116C472.863 284.257 482.088 268.261 486.062 253.143C488.675 243.194 488.535 233.633 484.314 224.111C479.929 214.216 473.036 205.682 467.865 196.229C459.211 180.41 456.027 160.494 461.02 142.985C466.456 123.865 483.033 110.786 500.629 103.118C520.555 94.4337 542.371 91.0597 563.775 88.2869C585.027 85.5309 606.598 82.9142 628.013 84.9755C647.834 86.8801 667.277 93.1463 682.257 106.705C689 112.808 694.608 120.263 698.043 128.726C701.75 137.865 702.215 147.307 700.857 156.998C699.221 168.678 697.462 180.105 697.13 191.92C696.793 203.649 697.12 215.383 696.968 227.113C696.706 247.451 694.749 268.195 686.345 286.969C678.581 304.312 664.893 318.872 647.155 326.151C638.566 329.676 629.162 331.345 619.917 330.13C610.101 328.851 601.112 324.478 593.089 318.846C575.861 306.747 562.195 287.937 541.272 281.808C531.906 279.068 521.095 279.287 512.197 283.574C503.906 287.582 495.231 297.295 498.737 307.199C500.755 312.906 506.417 316.453 510.618 320.438C513.757 323.418 516.222 326.838 517.704 330.917C520.569 338.828 519.544 347.862 515.821 355.312C507.639 371.68 486.884 376.791 471.203 368.114C463.4 363.797 458.834 356.727 457.073 348.096C455.192 338.864 456.202 328.409 451.902 319.811C447.258 310.524 437.272 309.953 428.103 310.766C418.933 311.579 410.159 312.541 401.347 309.133C383.986 302.406 373.848 285.76 365.027 270.397C359.545 260.854 353.925 251.105 345.802 243.52C338.181 236.392 328.379 232.036 317.975 231.155C296.28 229.213 275.029 238.985 259.183 253.258C241.572 269.125 229.308 289.885 217.13 309.944C210.918 320.174 204.272 330.152 198.202 340.465C192.777 349.675 187.586 359.63 186.867 370.486C186.079 382.484 191.901 392.803 199.945 401.297C208.072 409.876 217.695 417.199 227.396 423.9C246.014 436.759 266.266 447.694 286.818 457.134C305.85 465.877 328.13 472.959 349.128 467.527C354.606 466.113 359.926 463.659 363.952 459.603C367.744 455.784 369.909 450.808 371.162 445.643C373.49 436.081 373.803 426.026 375.704 416.347C379.717 395.918 387.195 375.721 400.796 359.653C404.077 355.775 407.755 352.345 411.549 348.981C414.146 346.68 417.242 343.846 420.838 343.414C427.649 342.599 428.075 350.77 427.541 355.514C426.88 361.479 424.6 367.264 424.502 373.269C424.389 380.329 425.961 387.464 428.537 394.014C431.261 400.944 435.435 407.756 441.449 412.31C447.637 416.996 457.319 419.434 464.339 415.05C472.933 409.683 472.735 397.101 481.153 391.603C484.501 389.418 489.358 388.932 492.675 391.415C495.846 393.779 496.592 398.007 496.164 401.732C494.997 411.851 485.42 418.007 483.162 427.572C480.236 439.931 492.037 447.302 501.709 451.476C511.99 455.916 522.465 459.535 532.122 465.341C541.899 471.225 550.91 478.898 556.415 489.048C560.436 496.458 563.081 506.032 558.471 513.818C554.728 520.139 546.132 524.961 538.776 522.553C534.972 521.309 532.341 517.721 533.108 513.639C533.538 511.353 534.848 507.952 537.098 506.892C539.348 505.831 542.019 507.908 541.649 510.352C541.209 513.23 537.836 514.916 535.791 516.551C533.745 518.186 532.405 520.076 533.692 522.674C534.798 524.909 536.883 526.403 539.149 527.32C543.417 529.048 548.484 529.069 552.88 527.815C563.328 524.83 569.33 514.237 568.416 503.712C567.54 493.63 559.718 486.911 555.98 478.045C554.665 474.927 553.922 471.389 555.234 468.14C556.5 465.006 559.441 462.378 562.875 462.042C571.308 461.22 577.181 471.215 579.805 477.706C584.428 489.153 584.386 502.597 591.702 512.909C598.216 522.088 609.192 524.287 619.638 521.391C628.362 518.972 641.315 511.993 641.194 501.376C641.114 494.13 631.696 486.032 624.495 489.713C621.157 491.419 619.244 495.579 620.781 499.101C622.357 502.709 626.344 503.97 629.963 503.096C630.244 503.028 630.538 503.044 630.809 503.141C631.081 503.237 631.319 503.41 631.494 503.639C631.669 503.868 631.774 504.143 631.796 504.43C631.818 504.717 631.756 505.005 631.618 505.258C628.737 510.41 621.746 508.01 619.274 503.698C615.723 497.504 623.127 492.994 628.612 493.857C635.575 494.956 639.254 501.481 636.275 507.891C632.807 515.361 624.295 518.776 616.443 518.078C608.405 517.353 600.675 513.156 595.853 506.672C590.375 499.301 590.369 490.108 590.446 481.32C590.49 476.536 590.525 471.693 589.429 467.009C588.197 461.751 585.677 456.963 582.988 452.326C578.212 444.087 573.832 436.541 572.932 426.87C572.132 418.282 574.768 408.369 571.327 400.218C567.228 390.514 555.893 393.289 547.618 393.677C540.917 393.989 533.23 392.201 529.758 385.834C526.454 379.752 529.616 372.377 535.182 368.846C542.55 364.17 550.436 367.989 556.794 372.378C560.389 374.86 564.251 377.708 568.738 378.159C573.048 378.593 577.094 376.452 579.625 373.021C585.308 365.333 581.955 355.275 575.804 349.078C569.653 342.88 561.634 339.004 554.204 334.625C546.157 329.879 538.995 323.723 533.979 315.773C529.101 308.041 525.67 297.255 516.075 294.137C510.674 292.383 506.207 295.002 505.915 300.756C505.649 305.994 508.648 310.614 512.028 314.336C517.835 320.729 525.227 325.862 528.906 333.941C532.118 340.977 531.466 349.266 526.478 355.357C523.652 358.814 519.979 360.392 515.75 361.497C513.056 362.202 510.706 363.079 508.491 364.809C506.654 366.241 504.946 367.802 502.925 368.984C499.576 370.968 495.668 371.796 491.804 371.34C488.285 370.9 482.715 368.332 480.041 371.772C477.762 374.703 477.645 378.107 474.233 380.255C470.862 382.376 466.601 382.346 462.868 381.358C445.431 376.739 444.246 358.251 443.374 343.215C443.03 337.309 443.267 324.252 435.546 322.719C431.422 321.9 427.795 325.42 425.662 328.535C423.971 331.011 421.849 334.705 422.891 337.787C423.174 338.625 424.172 340.355 425.208 339.309C425.628 338.886 425.477 337.81 425.421 337.319C425.258 335.948 424.821 334.623 424.134 333.425C422.171 330.024 418.08 328.441 414.522 327.355C410.766 326.205 406.868 325.539 403.17 324.18C399.115 322.692 395.298 320.622 391.839 318.037C377.155 307.076 371.492 289.181 363.034 273.735C360.428 268.978 357.553 264.373 354.424 259.942C351.724 256.116 349.08 251.669 344.901 249.286C338.145 245.444 330.108 244.79 322.976 241.944C306.979 235.565 297.978 220.161 292.186 204.783C289.059 196.483 286.646 187.925 284.037 179.447C280.897 169.232 277.766 158.995 275.581 148.524C271.886 130.774 271.846 112.679 276.861 95.1735C281.667 78.4157 290.35 60.1536 305.229 50.1288C321.06 39.467 341.875 42.9008 359.215 47.4397C398.413 57.7031 431.947 83.7323 459.368 112.724C463.037 116.603 466.595 120.583 470.04 124.664C472.48 127.558 475.377 130.581 476.417 134.328C477.422 137.956 476.098 141.367 473.916 144.274C471.13 147.982 467.716 150.971 465.429 155.077C460.967 163.072 459.631 172.706 462.068 181.56C465.083 192.511 473.259 199.809 480.721 207.81C487.032 214.575 491.793 222.074 492.707 231.46C493.459 239.149 491.714 246.833 489.417 254.125C484.592 269.434 474.701 288.232 484.01 303.756C486.685 308.217 490.959 312.151 495.877 313.994C497.544 314.621 499.821 315.268 501.637 314.999C503.453 314.729 503.44 314.275 502.777 312.861C502.427 312.111 502.076 311.387 501.78 310.603C498.717 302.452 499.415 293.703 504.517 286.503C514.183 272.868 532.084 272.135 545.882 279.432C561.686 287.791 571.466 303.454 585.12 314.477C600.403 326.807 621.825 332.801 640.97 326.99C646.248 325.388 650.99 322.84 655.519 319.724C659.16 317.225 662.703 314.023 667.055 312.834C675.992 310.392 683.171 319.003 688.55 324.768C695.686 332.415 702.03 340.814 707.704 349.591C713.592 358.679 719.231 368.131 723.875 377.92C730.42 391.712 735.033 408.742 727.284 423.085C718.14 440.012 697.41 440.616 680.502 441.592C659.212 442.797 638.04 444.999 616.779 446.525C602.406 447.557 576.914 450.27 570.839 432.757C568.251 425.327 571.427 417.646 571.979 410.166C572.701 400.351 566.848 392.76 557.073 391.197C552.086 390.391 547.317 391.147 542.397 391.91C538.927 392.449 535.46 392.438 532.479 390.35C526.334 386.045 524.573 377.428 529.921 371.873C533.142 368.525 537.603 366.78 541.108 363.79C544.154 361.181 548.666 353.789 542.28 351.93C541.052 351.573 538.975 352.137 541.022 352.94C541.507 353.137 542.033 353.213 542.554 353.159C543.075 353.105 543.575 352.924 544.009 352.632C546.286 351.136 545.737 347.95 543.936 346.343C542.67 345.212 540.588 344.702 538.931 344.553C538.569 344.521 536.895 344.338 536.749 344.552C536.881 344.357 538.425 344.228 538.791 344.07L539.146 346.768C535.268 345.401 531.951 349.272 531.861 352.986C531.828 354.314 532.448 354.858 532.891 356.004C533.506 357.56 533.252 357.318 531.944 357.724C531.44 357.853 530.971 358.094 530.573 358.429C530.174 358.763 529.856 359.183 529.642 359.657C529.388 360.393 529.259 361.166 529.26 361.944C529.169 363.784 529.992 364.412 531.729 363.828L532.047 366.142C528.175 363.65 522.716 364.509 519.344 367.496C517.67 368.981 516.492 370.942 515.967 373.115C515.6 374.645 515.975 375.585 517.698 375.735C518.314 375.79 519.984 375.532 519.825 374.997C519.492 373.929 515.476 374.833 514.626 375.086C512.808 375.631 511.02 376.638 509.773 378.094C508.243 379.931 507.479 382.286 507.638 384.669C507.691 385.586 507.593 386.178 508.467 386.597C509.152 386.918 510.628 386.409 511.384 386.284L510.281 387.704C510.208 386.629 508.599 387.135 508.033 387.363C506.82 387.851 506.13 388.896 505.711 390.121C505.387 391.101 505.269 392.137 505.366 393.164C505.462 394.192 505.77 395.188 506.269 396.09C508.065 399.265 511.901 400.406 515.27 399.396C515.945 399.196 517.734 398.721 517.999 397.987C518.265 397.253 517.608 396.921 516.896 396.641C515.721 396.165 514.794 396.476 514.116 397.574C512.963 399.449 514.165 401.674 515.927 402.599C518.025 403.703 520.49 403.422 522.606 402.571L522.245 405.277C521.059 404.544 519.256 406.384 519.1 407.529C518.841 409.379 521.258 410.574 522.708 409.72L522.168 411.732C520.305 407.607 514.529 408.592 511.45 410.693C510.636 411.248 509.533 410.646 509.285 409.789C508.573 407.307 506.912 405.536 504.6 404.425C504.024 404.149 500.293 402.596 499.613 403.235C499.651 403.199 499.916 404.208 500.503 404.138C501.267 404.037 500.926 402.817 500.905 402.206C500.817 400.244 500.557 398.295 500.128 396.38C499.452 393.199 497.985 386.281 493.97 386.048C493.38 386.009 491.768 386.163 493.211 385.936C494.419 385.744 495.034 385.734 495.634 384.449C496.463 382.682 495.774 380.401 494.74 378.872C490.449 372.516 478.978 374.899 479.253 383.212C479.307 384.827 481.634 389.084 483.523 386.627C484.85 384.903 482.468 383.189 480.913 383.237C478.686 383.31 476.713 385.12 475.321 386.675C474.661 387.381 474.087 388.164 473.613 389.007C473.21 389.657 472.984 390.401 472.958 391.165C473.379 392.588 474.144 393.035 475.252 392.505L475.569 394.818C474.775 394.243 473.992 393.708 473.015 393.459C471.833 393.161 467.666 394.164 469.829 396.22L467.313 397.267C467.622 392.554 463.188 388.236 458.606 391.029C456.97 392.024 455.248 394.135 456.186 396.172C457.323 398.633 461.046 398.694 462.701 396.928L464.121 399.387C462.244 399.836 460.404 401.479 460.553 403.584C460.761 406.533 464.512 406.87 466.516 405.756L466.87 408.453L466.665 409.439C467.2 409.544 467.754 409.496 468.264 409.302C468.773 409.108 469.218 408.775 469.548 408.341C470.277 407.637 470.782 406.725 471.297 405.877C472.192 404.406 473.021 402.898 473.947 401.437C475.527 398.969 477.364 396.585 479.858 394.969C483.728 392.451 489.726 391.775 492.782 395.89C496.012 400.241 493.607 406.034 490.727 409.83C488.581 412.668 485.948 415.168 484.268 418.335C482.692 421.327 481.957 424.69 482.141 428.065C482.919 442.568 499.834 445.017 506.582 455.702C510.212 461.448 510.578 468.617 510.353 475.22C510.115 482.498 509.462 489.757 508.397 496.961C507.385 503.732 504.816 509.356 500.175 514.41C495.218 519.823 489.187 524.214 482.983 528.08C469.945 536.2 455.715 542.264 443.582 551.834C437.395 556.716 431.663 562.142 425.783 567.376C420.952 571.679 415.624 577.268 409.44 579.572C397.797 583.908 385.345 574.456 377.748 566.599C366.473 554.931 359.995 539.779 355.215 524.5C349.855 507.354 345.438 489.878 340.644 472.564C340.138 470.739 342.991 469.991 343.497 471.821L343.517 471.816Z" fill="#402B1D"/>
</g>
<defs>
<clipPath id="clip0_677:61716">
<rect width="923" height="613" fill="white" transform="matrix(-1 0 0 1 923 0)"/>
</clipPath>
</defs>
</svg>
