<svg width="1319" height="245" viewBox="0 0 1319 245" fill="none" xmlns="http://www.w3.org/2000/svg">
<g clip-path="url(#clip0)">
<path opacity="0.3" d="M31.3095 128.066C80.5647 131.738 129.04 153.712 170.28 178.821C254.427 230.063 335.805 265.647 433.917 231.229C541.198 193.604 626.402 108.257 738.664 82.5177C884.138 49.1538 1054.62 79.4896 1164.56 185.578C1178.34 198.84 1190.94 213.287 1202.2 228.752C1255.95 319.657 1198.35 408.853 1120.51 426.752C1108.1 484.212 1062.56 523.998 1023.22 568.899C991.926 603.337 914.944 681.259 861.261 729.173C868.019 741.23 872.54 752.54 873.866 762.96C888.896 880.28 783.189 920.495 745.337 916.438C693.108 914.943 677.255 895.71 647.264 878.693C558.45 824.126 470.814 769.27 385.867 708.918C198.049 579.384 104.198 471.501 -26.8251 375.835L-29.4742 374.025C-40.516 367.168 -51.5471 360.287 -62.5675 353.381C-90.2813 333.294 -110.866 304.947 -118.106 270.749C-136.886 181.963 -50.5712 121.964 31.3095 128.066ZM711.195 513.028L711.225 513.6C711.871 513.01 712.516 512.419 713.16 511.827C712.502 512.231 711.846 512.631 711.195 513.028Z" fill="#AB6A49"/>
<path opacity="0.6" d="M176.189 277.634C266.83 208.091 382.768 176.941 495.715 173.329C592.572 170.234 734.407 180.707 809.453 249.219C894.715 327.046 838.565 465.604 728.728 473.025C740.728 558.174 678.773 625.268 598.01 625.739C563.769 626.014 533.72 607.735 502.352 595.347C461.614 578.136 421.053 561.661 379.567 546.992C260.992 503.736 206.671 514.159 173.248 480.109C107.236 427.37 113.416 325.798 176.189 277.634Z" fill="#DF936D"/>
</g>
<defs>
<clipPath id="clip0">
<rect width="245" height="1319" fill="white" transform="translate(0 245) rotate(-90)"/>
</clipPath>
</defs>
</svg>
