<svg width="1792" height="245" viewBox="0 0 1792 245" fill="none" xmlns="http://www.w3.org/2000/svg">
<g clip-path="url(#clip0_633:39)">
<path opacity="0.3" d="M350.975 82.0548C415.307 86.8505 478.62 115.55 532.484 148.345C642.388 215.273 748.675 261.749 876.819 216.795C1016.94 167.653 1128.22 56.1819 1274.85 22.5641C1464.85 -21.0123 1687.51 18.6091 1831.1 157.171C1849.11 174.492 1865.56 193.361 1880.27 213.56C1950.47 332.291 1875.24 448.789 1773.57 472.167C1757.36 547.214 1697.89 599.179 1646.5 657.824C1605.63 702.803 1505.08 804.576 1434.97 867.157C1443.8 882.905 1449.7 897.676 1451.43 911.285C1471.06 1064.52 1333 1117.04 1283.56 1111.74C1215.35 1109.79 1194.64 1084.67 1155.47 1062.44C1039.47 991.174 925.009 919.527 814.061 840.702C568.753 671.518 446.174 530.612 275.046 405.664L271.586 403.3C257.164 394.344 242.757 385.357 228.363 376.336C192.166 350.102 165.28 313.077 155.825 268.412C131.297 152.449 244.031 74.0841 350.975 82.0548ZM1238.97 584.85L1239.01 585.598C1239.85 584.828 1240.7 584.056 1241.54 583.282C1240.68 583.81 1239.82 584.333 1238.97 584.85Z" fill="#AB6A49"/>
<path opacity="0.6" d="M550.57 277.634C641.211 208.091 757.149 176.941 870.097 173.329C966.954 170.234 1108.79 180.707 1183.83 249.219C1269.1 327.046 1212.95 465.604 1103.11 473.025C1115.11 558.174 1053.15 625.268 972.392 625.739C938.15 626.014 908.101 607.735 876.734 595.347C835.995 578.136 795.435 561.661 753.948 546.992C635.374 503.736 581.052 514.159 547.629 480.109C481.618 427.37 487.797 325.798 550.57 277.634Z" fill="#DF936D"/>
</g>
<defs>
<clipPath id="clip0_633:39">
<rect width="245" height="1792" fill="white" transform="translate(0 245) rotate(-90)"/>
</clipPath>
</defs>
</svg>
