<svg width="298" height="186" viewBox="0 0 298 186" fill="none" xmlns="http://www.w3.org/2000/svg">
<path opacity="0.5" d="M617 -133.94C616.927 -130.046 616.757 -126.13 616.49 -122.19C614 -85.4895 605.3 -49.2895 594.24 -13.9895C577.36 39.9005 545.55 84.4105 504.63 126.16C415.37 217.26 252.35 175.09 168.16 101.1C80.4199 24.0105 43.8299 -97.6996 84.6799 -202.88C115.21 -281.5 187.48 -337.67 277.07 -356.32C415.75 -385.2 569.34 -327.25 608.58 -196.99C612.41 -184.25 614.946 -171.158 616.15 -157.91C616.869 -149.941 617.153 -141.939 617 -133.94Z" fill="#665346"/>
<path opacity="0.3" d="M179.6 -63.6615C180.956 -62.9352 182.304 -62.1706 183.642 -61.3678C196.104 -53.8879 207.272 -44.3128 217.699 -34.0692C233.618 -18.4327 243.55 0.769457 250.872 22.6806C266.853 70.4812 222.677 120.256 181.495 136.566C138.585 153.568 89.1843 144.543 59.537 111.243C37.3754 86.3536 30.6239 50.8165 40.1885 15.9362C54.99 -38.0583 103.02 -81.6751 155.905 -72.0439C161.076 -71.0993 166.138 -69.6358 171.015 -67.6756C173.948 -66.4947 176.813 -65.1547 179.6 -63.6615Z" fill="#DF936D"/>
</svg>
