<svg width="544" height="208" viewBox="0 0 544 208" fill="none" xmlns="http://www.w3.org/2000/svg">
<g clip-path="url(#clip0_1251:9467)">
<path opacity="0.2" d="M423.236 271.205C412.097 302.87 370.183 318.025 340.695 302.362C327.154 309.115 311.53 307.54 296.79 305.55C280.676 303.929 265.083 302.569 248.889 301.367C185.082 296.614 171.382 299.694 156.221 291.067C103.391 328.63 38.7207 269.851 66.2593 214.142C93.7979 158.433 145.141 107.522 206.978 92.8032C275.072 76.5939 343.119 102.603 387.183 151.062C399.93 165.081 403.182 192.98 414.275 208.333C429.837 229.866 431.773 246.907 423.236 271.205Z" fill="#DF936D"/>
<path opacity="0.3" d="M162.731 276.516C139.409 340.093 83.9336 308.477 61.0983 312.824C20.8672 314.576 -5.96521 334.442 -34.1956 300.721C-69.0475 324.466 -113.628 304.433 -121.572 265.559C-127.774 233.131 -101.237 201.382 -84.3971 185.707C-44.5918 149.151 16.3999 134.248 68.8891 146.157C120.571 157.889 182.294 217.259 162.731 276.516Z" fill="#402B1D"/>
</g>
<g clip-path="url(#clip1_1251:9467)">
<path opacity="0.2" d="M584.983 2.5049C584.953 0.801927 584.877 -0.911414 584.757 -2.63514C583.645 -18.6945 579.841 -34.536 574.988 -49.9896C567.592 -73.5711 553.615 -93.0611 535.652 -111.318C496.475 -151.175 424.921 -132.721 387.962 -100.346C349.452 -66.6068 333.391 -13.3533 351.32 32.6748C364.723 67.0799 396.444 91.6549 435.766 99.8186C496.638 112.454 564.057 87.0966 581.28 30.1036C582.963 24.5269 584.077 18.7953 584.606 12.9957C584.923 9.50819 585.049 6.00606 584.983 2.5049Z" fill="#E8CDBF"/>
<path opacity="0.4" d="M383.484 53.187C376.481 88.2067 314.767 120.195 295.921 77.6046C293.842 72.3425 292.854 66.7141 293.017 61.0599C293.18 55.4057 294.49 49.8433 296.869 44.7092C305.791 25.2237 328.335 10.8713 349.924 12.0493C365.787 12.9067 379.29 23.9684 383.078 38.4522C384.334 43.269 384.473 48.3085 383.484 53.187V53.187ZM465 91.3275C464.555 82.2896 460.249 74.8585 452.461 70.0847C433.266 57.8759 405.081 81.0846 418.646 104.035C432.508 125.602 464.482 115.988 465 91.3275ZM424.677 -56.0822C425.838 -77.1474 413.763 -100.429 391.837 -96.5787C372.786 -93.234 356.711 -72.555 360.084 -53.2975C363.953 -31.2822 389.129 -16.9375 409.418 -27.8061C419.129 -33.0086 424.016 -44.194 424.677 -56.0822Z" fill="#402B1D"/>
</g>
<defs>
<clipPath id="clip0_1251:9467">
<rect width="506" height="188" fill="white" transform="matrix(1 0 0 -1 0 208)"/>
</clipPath>
<clipPath id="clip1_1251:9467">
<rect width="272" height="168" fill="white" transform="translate(272 0.000244141)"/>
</clipPath>
</defs>
</svg>
