<svg width="652" height="168" viewBox="0 0 652 168" fill="none" xmlns="http://www.w3.org/2000/svg">
<g clip-path="url(#clip0_1249:9465)">
<path opacity="0.2" d="M423.236 271.205C412.097 302.869 370.183 318.025 340.695 302.362C327.154 309.115 311.53 307.54 296.79 305.55C280.676 303.929 265.083 302.569 248.889 301.366C185.082 296.614 171.382 299.694 156.221 291.066C103.391 328.63 38.7207 269.851 66.2593 214.142C93.7979 158.433 145.141 107.522 206.978 92.8031C275.072 76.5938 343.119 102.603 387.183 151.061C399.93 165.08 403.182 192.98 414.275 208.333C429.837 229.866 431.773 246.906 423.236 271.205Z" fill="#DF936D"/>
<path opacity="0.3" d="M162.731 276.516C139.409 340.093 83.9336 308.477 61.0983 312.824C20.8672 314.576 -5.96521 334.442 -34.1956 300.721C-69.0475 324.466 -113.628 304.433 -121.572 265.559C-127.774 233.13 -101.237 201.381 -84.3971 185.707C-44.5918 149.151 16.3999 134.248 68.8891 146.157C120.571 157.888 182.294 217.259 162.731 276.516Z" fill="#402B1D"/>
</g>
<g clip-path="url(#clip1_1249:9465)">
<path opacity="0.2" d="M692.983 2.50478C692.953 0.801804 692.877 -0.91153 692.757 -2.63525C691.645 -18.6946 687.841 -34.5361 682.988 -49.9897C675.592 -73.5712 661.615 -93.0613 643.652 -111.318C604.475 -151.175 532.921 -132.721 495.962 -100.346C457.452 -66.6069 441.391 -13.3535 459.32 32.6747C472.723 67.0797 504.444 91.6547 543.766 99.8185C604.638 112.454 672.057 87.0965 689.28 30.1035C690.963 24.5268 692.077 18.7952 692.606 12.9955C692.923 9.50807 693.049 6.00594 692.983 2.50478Z" fill="#E8CDBF"/>
<path opacity="0.4" d="M491.484 53.1869C484.481 88.2066 422.767 120.194 403.921 77.6045C401.842 72.3424 400.854 66.714 401.017 61.0598C401.18 55.4056 402.49 49.8432 404.869 44.709C413.791 25.2236 436.335 10.8712 457.924 12.0492C473.787 12.9066 487.29 23.9683 491.078 38.4521C492.334 43.2689 492.473 48.3083 491.484 53.1869ZM573 91.3274C572.555 82.2895 568.249 74.8584 560.461 70.0846C541.266 57.8757 513.081 81.0845 526.646 104.034C540.508 125.602 572.482 115.988 573 91.3274ZM532.677 -56.0823C533.838 -77.1475 521.763 -100.43 499.837 -96.5789C480.786 -93.2341 464.711 -72.5552 468.084 -53.2976C471.953 -31.2823 497.129 -16.9376 517.418 -27.8062C527.129 -33.0088 532.016 -44.1941 532.677 -56.0823Z" fill="#402B1D"/>
</g>
<defs>
<clipPath id="clip0_1249:9465">
<rect width="506" height="188" fill="white" transform="matrix(1 0 0 -1 0 208)"/>
</clipPath>
<clipPath id="clip1_1249:9465">
<rect width="272" height="168" fill="white" transform="translate(380 0.00012207)"/>
</clipPath>
</defs>
</svg>
