<svg width="1304" height="168" viewBox="0 0 1304 168" fill="none" xmlns="http://www.w3.org/2000/svg">
<g clip-path="url(#clip0_1244:9545)">
<path opacity="0.2" d="M423.236 231.205C412.097 262.869 370.183 278.024 340.695 262.361C327.154 269.114 311.53 267.54 296.79 265.549C280.676 263.929 265.083 262.569 248.889 261.366C185.082 256.614 171.382 259.694 156.221 251.066C103.391 288.63 38.7207 229.851 66.2593 174.142C93.7979 118.432 145.141 67.5221 206.978 52.8029C275.072 36.5937 343.119 62.6029 387.183 111.061C399.93 125.08 403.182 152.98 414.275 168.332C429.837 189.866 431.773 206.906 423.236 231.205Z" fill="#DF936D"/>
<path opacity="0.3" d="M162.731 236.515C139.409 300.093 83.9336 268.477 61.0983 272.824C20.8672 274.576 -5.96521 294.442 -34.1956 260.721C-69.0475 284.466 -113.628 264.432 -121.572 225.559C-127.774 193.13 -101.237 161.381 -84.3971 145.707C-44.5918 109.151 16.3999 94.2479 68.8891 106.157C120.571 117.888 182.294 177.259 162.731 236.515Z" fill="#402B1D"/>
</g>
<g clip-path="url(#clip1_1244:9545)">
<path opacity="0.2" d="M1344.98 2.50465C1344.95 0.801682 1344.88 -0.911652 1344.76 -2.63538C1343.65 -18.6947 1339.84 -34.5362 1334.99 -49.9899C1327.59 -73.5713 1313.62 -93.0614 1295.65 -111.318C1256.47 -151.175 1184.92 -132.721 1147.96 -100.347C1109.45 -66.607 1093.39 -13.3536 1111.32 32.6746C1124.72 67.0796 1156.44 91.6546 1195.77 99.8183C1256.64 112.454 1324.06 87.0963 1341.28 30.1034C1342.96 24.5267 1344.08 18.795 1344.61 12.9954C1344.92 9.50795 1345.05 6.00581 1344.98 2.50465Z" fill="#E8CDBF"/>
<path opacity="0.4" d="M1143.48 53.1867C1136.48 88.2065 1074.77 120.194 1055.92 77.6044C1053.84 72.3422 1052.85 66.7138 1053.02 61.0597C1053.18 55.4055 1054.49 49.8431 1056.87 44.7089C1065.79 25.2235 1088.34 10.871 1109.92 12.0491C1125.79 12.9065 1139.29 23.9682 1143.08 38.4519C1144.33 43.2688 1144.47 48.3082 1143.48 53.1867ZM1225 91.3273C1224.56 82.2894 1220.25 74.8583 1212.46 70.0844C1193.27 57.8756 1165.08 81.0844 1178.65 104.034C1192.51 125.602 1224.48 115.988 1225 91.3273ZM1184.68 -56.0825C1185.84 -77.1476 1173.76 -100.43 1151.84 -96.579C1132.79 -93.2342 1116.71 -72.5553 1120.08 -53.2977C1123.95 -31.2824 1149.13 -16.9377 1169.42 -27.8063C1179.13 -33.0089 1184.02 -44.1942 1184.68 -56.0825Z" fill="#402B1D"/>
</g>
<defs>
<clipPath id="clip0_1244:9545">
<rect width="506" height="188" fill="white" transform="matrix(1 0 0 -1 0 168)"/>
</clipPath>
<clipPath id="clip1_1244:9545">
<rect width="272" height="168" fill="white" transform="translate(1032)"/>
</clipPath>
</defs>
</svg>
