<svg width="229" height="56" viewBox="0 0 229 56" fill="none" xmlns="http://www.w3.org/2000/svg">
<path fill-rule="evenodd" clip-rule="evenodd" d="M26.5 56C41 56 53 40 53 20.5C52.5 5.5 39 0 31.5 0C14.5 0 0 12.536 0 28C0 43 11.5 56 26.5 56ZM34 39H20V18H25V35H34V39Z" fill="#E8CDBF"/>
<path d="M83.7 18.03V22.2H73.26V26.52H82.65V30.51H73.26V34.86H84.03V39H68.58V18.03H83.7ZM116.829 28.32H121.539V35.76C119.459 38.08 116.579 39.24 112.899 39.24C109.819 39.24 107.229 38.22 105.129 36.18C103.049 34.14 102.009 31.57 102.009 28.47C102.009 25.35 103.069 22.75 105.189 20.67C107.329 18.59 109.899 17.55 112.899 17.55C115.919 17.55 118.539 18.54 120.759 20.52L118.329 24.03C117.389 23.21 116.519 22.65 115.719 22.35C114.939 22.03 114.089 21.87 113.169 21.87C111.389 21.87 109.889 22.48 108.669 23.7C107.449 24.9 106.839 26.49 106.839 28.47C106.839 30.45 107.419 32.04 108.579 33.24C109.759 34.42 111.159 35.01 112.779 35.01C114.399 35.01 115.749 34.7 116.829 34.08V28.32ZM155.473 39L153.523 34.47H144.733L142.783 39H137.803L146.863 18.03H151.393L160.453 39H155.473ZM149.143 24.27L146.503 30.36H151.753L149.143 24.27ZM184.49 21.66C183.71 21.66 183.09 21.85 182.63 22.23C182.19 22.59 181.97 23.08 181.97 23.7C181.97 24.3 182.24 24.78 182.78 25.14C183.34 25.5 184.61 25.93 186.59 26.43C188.59 26.91 190.14 27.64 191.24 28.62C192.34 29.6 192.89 31.03 192.89 32.91C192.89 34.79 192.18 36.32 190.76 37.5C189.36 38.66 187.51 39.24 185.21 39.24C181.89 39.24 178.9 38.01 176.24 35.55L179.03 32.13C181.29 34.11 183.38 35.1 185.3 35.1C186.16 35.1 186.83 34.92 187.31 34.56C187.81 34.18 188.06 33.68 188.06 33.06C188.06 32.42 187.8 31.92 187.28 31.56C186.76 31.18 185.73 30.8 184.19 30.42C181.75 29.84 179.96 29.09 178.82 28.17C177.7 27.23 177.14 25.77 177.14 23.79C177.14 21.79 177.85 20.25 179.27 19.17C180.71 18.09 182.5 17.55 184.64 17.55C186.04 17.55 187.44 17.79 188.84 18.27C190.24 18.75 191.46 19.43 192.5 20.31L190.13 23.73C188.31 22.35 186.43 21.66 184.49 21.66ZM220.755 39H216.075V30.72L208.815 18.03H213.885L218.415 25.83L222.945 18.03H228.015L220.755 30.72V39Z" fill="white"/>
</svg>
