<svg width="1920" height="616" viewBox="0 0 1920 616" fill="none" xmlns="http://www.w3.org/2000/svg">
<mask id="mask0_593:144" style="mask-type:alpha" maskUnits="userSpaceOnUse" x="0" y="0" width="1920" height="616">
<path d="M0 0H1920V616H0V0Z" fill="#AB6A49"/>
</mask>
<g mask="url(#mask0_593:144)">
<path opacity="0.15" d="M1821.54 -190.108C1714.08 -243.477 1586.61 -262.974 1460.94 -269.012C1420.07 -270.96 1377.26 -271.349 1339.58 -257.325C1312.34 -247.197 1289.59 -230.232 1267.32 -213.559C1233.42 -188.239 1198.18 -161.087 1183.37 -125.248C1173.95 -102.44 1173.64 -77.8985 1174.15 -53.9216C1174.69 -26.4583 1176.58 2.3295 1193.61 25.5857C1223.48 66.4885 1287.64 76.3831 1343.9 86.3556C1454.25 105.695 1561.41 140.17 1662.36 188.807C1702.6 208.285 1741.7 230.236 1785.68 243.228C1829.66 256.219 1880.39 259.452 1922.62 241.689C1960.28 225.854 1986.84 195.157 2001.94 162.337C2067.04 21.6902 1964.93 -118.899 1821.54 -190.108Z" fill="#FCF9F7"/>
<path opacity="0.15" d="M-24.669 406.368C-102.224 444.867 -194.217 458.932 -284.917 463.287C-314.411 464.692 -345.31 464.973 -372.5 454.857C-392.163 447.551 -408.581 435.313 -424.648 423.285C-449.114 405.019 -474.549 385.433 -485.237 359.58C-492.035 343.127 -492.259 325.423 -491.894 308.127C-491.501 288.315 -490.139 267.549 -477.85 250.772C-456.291 221.266 -409.985 214.128 -369.382 206.934C-289.742 192.983 -212.404 168.114 -139.555 133.028C-110.51 118.978 -82.2944 103.143 -50.5534 93.771C-18.8123 84.3993 17.8022 82.0668 48.2792 94.881C75.4557 106.304 94.6268 128.448 105.525 152.123C152.505 253.582 78.8124 354.999 -24.669 406.368Z" fill="#FCF9F7"/>
<path opacity="0.4" d="M1576.35 899.578C1623.03 892.174 1669.12 881.516 1715.18 870.857L1849.98 839.682C1886.02 831.342 1923.55 822.282 1951.79 798.355C1978.5 775.733 1993.69 742.434 2005.14 709.329C2010.8 693.001 2015.78 676.205 2016.81 658.981C2019.63 610.133 1990.25 564.967 1955.49 530.596C1879.64 455.658 1776.77 415.442 1674.78 384.734C1655.78 379.005 1636.43 373.511 1616.59 373.043C1591.15 372.361 1566.22 379.882 1542.49 389.118C1378.61 452.911 1256.32 601.365 1198.24 767.608C1189.18 793.523 1168.33 853.808 1188.52 879.314C1207.11 902.695 1275.28 902.228 1303.56 905.462C1394.34 915.836 1486.1 913.857 1576.35 899.578Z" fill="#AB6A49"/>
<path opacity="0.7" d="M663.283 460.644C760.39 427.201 847.596 370.619 933.674 314.562C975.906 287.079 1019.11 258.7 1048.99 218.089C1067.48 192.96 1080.17 164.028 1086.13 133.388C1092.08 102.747 1091.16 71.1634 1083.43 40.9229C1075.7 10.6824 1061.35 -17.4588 1041.42 -41.4642C1021.49 -65.4697 996.482 -84.739 968.203 -97.8777C929.297 -115.914 885.957 -121.679 843.181 -123.491C739.284 -127.912 624.358 -104.325 560.885 -21.8369C516.533 35.817 504.706 112.832 463.622 172.94C434.151 216.161 390.324 249.526 368.304 297.012C358.111 319.484 353.247 344.013 354.094 368.679C354.941 393.346 361.476 417.482 373.187 439.199C392.911 475.097 444.422 522.525 489.318 519.895C514.159 518.434 545.07 497.574 569.502 489.588C600.646 479.323 632.373 471.299 663.283 460.644Z" fill="#AB6A49"/>
<path opacity="0.15" d="M1933.53 290.35C1952.68 309.826 1972.02 329.134 1990.94 348.837C2008.51 367.147 2025.4 386.766 2035.59 410.272C2040.54 421.691 2043.83 433.986 2044.53 446.44C2045.12 456.865 2043.84 468.624 2036.2 476.467C2031.8 480.968 2025.61 483.221 2019.85 485.418C2013.49 487.834 2007.04 489.999 2000.57 492.11C1988.12 496.172 1975.59 500.019 1963.45 504.971C1939.58 514.71 1918.84 529.992 1896.29 542.218C1885.04 548.317 1873.22 553.665 1860.68 556.458C1847.11 559.484 1835.86 556.283 1823.41 550.901C1811.96 545.951 1800.29 540.763 1789.71 534.096C1778.28 526.928 1770.97 517.642 1769.16 504.107C1767.73 493.404 1768.55 482.233 1764.6 472C1761.26 463.356 1754.41 456.503 1745.95 452.777C1734.65 447.792 1724.48 450.669 1712.82 451.998C1706.67 452.697 1695.73 451.854 1695.22 443.567C1694.81 437.302 1701.5 432.649 1706.75 431.039C1713.37 429.012 1720.31 430.017 1727.1 429.52C1731.66 429.182 1736.57 427.674 1738.45 423.085C1741.88 414.715 1729.45 410.663 1727.39 418.799C1726.86 420.897 1729.21 422.798 1731.11 421.657C1736.94 418.172 1740.21 409.685 1735.29 403.997C1730.61 398.592 1722.04 399.801 1717.49 404.608C1717.12 405.01 1716.88 405.521 1716.82 406.067C1716.76 406.612 1716.87 407.163 1717.14 407.639C1717.42 408.114 1717.84 408.489 1718.34 408.707C1718.85 408.926 1719.41 408.978 1719.94 408.854C1726.12 407.401 1729.96 401.081 1728.95 394.846C1727.91 388.46 1721.69 385.373 1715.67 386.545C1700.51 389.49 1699.57 409.049 1712.68 415.534C1714.62 416.492 1716.93 414.884 1716.41 412.677C1715.25 407.848 1709.99 405.997 1705.57 407.812C1700.29 409.974 1698.82 416.168 1699.35 421.303C1699.49 422.725 1700.85 424.451 1702.53 423.774C1706.58 422.153 1708.72 418.027 1707.09 413.754C1705.21 408.795 1699.35 407.982 1694.72 408.444C1685.98 409.331 1670.97 416.837 1678.36 427.611C1684.18 436.078 1694.67 428.647 1692.26 419.805C1689.43 409.407 1675.74 408.149 1667.58 412.451C1658.23 417.36 1654.89 429.501 1659.64 438.765C1663.62 446.546 1676.43 452.283 1680.8 441.661C1682.19 438.275 1680.91 433.602 1676.5 433.995C1672.82 434.324 1670.27 439.13 1669.74 442.371C1668.8 448.164 1673.3 453.639 1676.82 457.713C1681.07 462.686 1686.08 466.952 1691.67 470.352C1695.33 472.543 1700.74 473.749 1701.81 468.229C1702.45 464.922 1700.99 459.369 1697.05 458.891C1691.78 458.256 1689.72 466.272 1689.04 470.099C1687.85 476.802 1689.38 483.353 1694.16 488.292L1694.67 484.275C1686.46 488.223 1678.94 499.556 1685.11 508.145C1685.92 509.27 1687.3 509.819 1688.59 509.075C1694.31 505.834 1694.86 496.056 1688.53 492.963C1683.3 490.412 1674.53 493.663 1674.71 500.113C1674.78 502.52 1677.37 503.247 1679.07 501.908C1686.48 496.083 1690.43 481.577 1679.38 477.066C1671.31 473.771 1661.9 482.791 1667.86 490.567C1672.47 496.572 1681.1 488.724 1683.77 484.537C1689.69 475.282 1685.91 462.784 1675.84 458.456C1670.76 456.275 1664.71 456.46 1660.79 460.701C1657.57 464.194 1657.22 468.734 1661.35 471.513C1661.83 471.792 1662.4 471.901 1662.96 471.824C1663.51 471.747 1664.03 471.488 1664.42 471.088C1666.57 468.46 1670.21 464.759 1669.04 461.035C1667.77 457.031 1661.76 454.369 1658.11 453.41C1648.23 450.798 1637.62 456.224 1633.04 465.214C1631.58 468.078 1629.81 473.319 1633.24 475.548C1636.67 477.777 1640.94 474.524 1642.96 471.89C1645.08 469.091 1646.92 464.755 1644.58 461.543C1641.84 457.791 1635.05 456.971 1630.79 457.166C1618.66 457.735 1607.18 468.454 1607.78 481.008C1607.86 482.756 1609.3 483.763 1610.97 483.48C1615.39 482.738 1617.46 478.022 1616.04 473.921C1614.47 469.386 1608.33 466.299 1603.71 466.635C1600.08 466.9 1596.12 469.687 1594.46 472.905C1593.09 475.565 1593.29 480.524 1597.05 481.163C1601.03 481.839 1602.56 476.51 1602.14 473.495C1601.53 469.167 1598.24 465.885 1594.33 464.279C1586.01 460.83 1574.67 463.886 1572.85 473.607C1572.48 475.512 1574.64 477.909 1576.57 476.465C1579.15 474.54 1583.11 470.913 1581.47 467.28C1579.59 463.185 1574.39 464.285 1572.02 467.121C1565.62 474.77 1565.96 490.624 1577.68 492.749C1580.02 493.167 1582.42 492.825 1584.55 491.774C1586.68 490.722 1588.41 489.017 1589.49 486.909C1591.2 483.479 1591.23 477.238 1587.03 475.511C1581.98 473.431 1578.23 480.07 1577.61 484.115C1576.74 489.855 1579.69 495.092 1584.87 497.538C1599.79 504.544 1612.09 489.885 1625.83 487.451C1635.21 485.785 1642.64 493.89 1643.52 502.834C1644.34 510.93 1637.26 516.591 1632.83 522.494C1624.52 533.6 1618.21 548.186 1622.46 562.133C1626.53 575.488 1638.14 582.282 1650.49 586.833C1664.76 592.097 1680.09 597.728 1681.29 615.349C1682.39 631.471 1673.06 647.257 1664.81 660.409C1645.23 691.608 1622.53 720.809 1602.28 751.577C1592.36 766.641 1583.19 782.862 1571.14 796.364C1560.64 808.133 1546.93 817.114 1530.7 817.073C1498.88 816.989 1476.67 788.263 1461.64 763.785C1442.12 731.997 1423.59 697.404 1416.18 660.505C1414.31 651.174 1415.76 642.576 1424.38 637.264C1432.01 632.564 1440.72 629.788 1448.48 625.259C1462.69 616.947 1474.22 604.379 1482.15 590.021C1498.31 560.722 1498.99 527.209 1490.54 495.502C1483.21 468.006 1470.3 438.394 1479.13 409.616C1483.69 394.748 1494.72 381.988 1509.98 377.67C1527.02 372.847 1544.08 379.276 1554.02 393.834C1556.57 397.559 1559.87 400.635 1564.25 397.224C1568.77 393.695 1570.73 386.338 1571.33 380.971C1572.97 366.106 1566.78 350.851 1555.87 340.789C1534.39 320.981 1502.87 320.993 1476.11 313.935C1462.5 310.337 1449.23 304.62 1439.52 294.09C1426.45 279.928 1424.55 260.036 1418.3 242.612C1412.72 227.018 1403.4 213.019 1389.15 204.15C1377.08 196.674 1362.94 193.225 1348.78 194.301C1341.2 194.904 1333.71 198.216 1326.07 197.73C1316.27 197.103 1313.32 187.217 1310.49 179.424C1304.21 162.049 1298.89 144.34 1294.56 126.377C1277.93 57.8984 1272.73 -16.2756 1301.21 -82.5105C1307.95 -98.2106 1317.38 -113.604 1332.16 -122.908C1346.89 -132.175 1364.6 -135.091 1381.74 -135.111C1413.77 -135.144 1445.89 -126.642 1473.46 -110.339C1504.31 -92.1087 1528.11 -64.4411 1552.32 -38.5623C1572.53 -16.9591 1595.23 6.34316 1601.62 36.3062C1604.83 51.3672 1601.76 64.8117 1598.02 79.3639C1596.37 85.7907 1594.79 92.3875 1594.53 99.0314C1594.28 105.867 1596.49 111.487 1599.1 117.708C1606.1 134.347 1614.91 149.913 1625.05 164.829C1633.8 177.694 1642.91 190.477 1649.38 204.684C1656.17 219.597 1659.38 236.413 1656.01 252.638C1653.48 264.795 1646.83 277.996 1651.08 290.523C1653.1 296.49 1661.87 307.35 1668.89 301.695C1672.67 298.655 1671.57 293.849 1668.87 290.508C1665.75 286.65 1661.33 285.28 1656.56 284.647C1646.05 283.254 1630.94 285.741 1626.58 296.971C1622.13 308.479 1632.49 318.678 1640.84 324.987C1661.75 340.802 1698.7 355.993 1690.55 388.597C1688.36 397.361 1682.65 404.475 1672.99 403.471C1667.23 402.885 1661.96 402.447 1657.74 407.178C1653.63 411.789 1652.89 418.231 1650.48 423.701C1646.67 432.369 1639.02 436.222 1630.64 439.436C1627.25 440.734 1623.97 442.212 1621.1 444.497C1617.86 447.077 1615.32 450.402 1612.16 453.084C1605.25 458.928 1595.75 460.014 1587.27 457.412C1571.12 452.465 1565.14 435.488 1561.54 420.644C1558.06 406.287 1554.72 389.264 1540.64 381.419C1528.89 374.879 1516.81 380.532 1513.98 393.696C1510.73 408.879 1519.11 422.46 1526.67 434.851C1536.03 450.221 1540.96 466.458 1541.4 484.498C1542.04 510.547 1537.54 547.996 1566.85 560.74C1577.57 565.396 1591.37 563.839 1599.45 554.862C1609.45 543.75 1605.51 528.716 1605.34 515.296C1605.24 507.065 1607.54 498.368 1614.8 493.555C1620.81 489.561 1630.05 488.66 1636.11 493.146C1648.73 502.529 1640.19 519.877 1633.28 529.743C1625.71 540.544 1616.58 553.19 1622.6 566.892C1628.5 580.342 1643.98 585.99 1655.85 592.764C1662.85 596.758 1669.58 601.262 1675.25 607.009C1681.52 613.334 1685.84 621.019 1690.19 628.718C1698.51 643.432 1707.13 656.695 1721.61 666.019C1735.23 674.794 1752.42 680.95 1761.04 695.558C1769.3 709.567 1768.53 729.145 1758.93 742.368C1754.06 749.094 1746.48 753.83 1738.08 754.224C1730.31 754.591 1723.54 750.388 1724.12 741.913C1724.49 736.318 1731.97 724.743 1738.12 731.781C1741.37 735.503 1741.26 745.002 1734.88 744.903L1736.69 749.243C1744.16 741.386 1744.71 728.299 1735.2 721.679C1725.11 714.662 1711.54 720.563 1707.5 731.469C1703.41 742.529 1706.55 756.903 1716.23 764.03C1728.64 773.164 1745.6 768.11 1757.73 761.148C1771.89 753.036 1784.64 739.766 1788.5 723.524C1792.64 706.09 1784.74 689.858 1773.26 677.033C1759.63 661.785 1739.85 649.549 1733.17 629.237C1731.15 623.112 1730.11 613.874 1736.8 610.179C1744.53 605.932 1751.72 611.181 1756.11 617.397C1765.29 630.407 1769.05 646.432 1782.08 656.714C1794.05 666.17 1810.88 669.872 1825.44 664.556C1839.12 659.558 1850.13 646.915 1852.57 632.427C1853.62 626.137 1852.78 619.287 1848.53 614.269C1844.28 609.251 1838.25 609.52 1832.57 611.785C1830.11 612.765 1827.78 614.064 1825.21 614.771C1824.72 614.904 1820.82 615.876 1822.2 614.114C1822.79 613.368 1826.08 613.884 1826.91 613.976C1830.84 614.407 1834.67 615.953 1835.84 620.164C1837.15 624.865 1834.49 630.011 1831.46 633.456C1826.43 639.168 1818.46 642.854 1810.84 642.946C1802.02 643.055 1794.28 638.231 1788.35 632.074C1759.57 602.206 1765.03 555.206 1770.53 517.897C1772.87 502.01 1775.25 483.221 1765.82 469.029C1761.33 462.305 1754.46 457.53 1746.6 455.664C1737.94 453.6 1729.04 455.141 1720.31 455.736C1712.11 456.298 1703.09 456.356 1695.89 451.829C1685.12 445.055 1690.3 432.718 1701.37 429.94C1709.83 427.823 1719.17 430.034 1727.76 430.196C1735.01 430.333 1742.52 429.397 1748.74 425.372C1759.43 418.445 1765.13 404.83 1765.47 392.432C1765.81 380.432 1761.56 368.635 1755.54 358.411C1744.19 339.134 1726.49 323.188 1705 316.556C1699.17 314.757 1693.27 312.962 1687.75 310.321C1684.27 308.659 1677.37 305.493 1677.82 300.703C1678.42 294.304 1690.18 291.731 1694.99 290.148C1703.84 287.234 1712.73 284.799 1721.95 283.394C1758.71 277.887 1795.98 285.88 1830.39 298.693C1845.99 304.499 1861.26 313.307 1877.83 316.007C1895.12 318.817 1910.95 312.746 1923.57 300.91C1949.5 276.589 1959.92 239.454 1964.27 205.328C1969.09 167.541 1970.08 128.459 1968.21 90.4466C1967.24 70.7879 1965.11 51.1612 1961.35 31.8273C1957.64 12.8979 1951.96 -6.49303 1938.95 -21.2591C1914.66 -48.9086 1872.98 -46.122 1839.69 -44.6813C1798.89 -42.8993 1757.69 -44.2108 1717.17 -38.191C1679.9 -32.6589 1643.39 -19.5021 1616.14 7.42217C1592.63 30.63 1577.99 62.3355 1584.78 95.6232C1591.93 130.684 1617.46 157.858 1629.51 190.95C1634.9 205.776 1638.05 222.022 1635 237.723C1631.85 253.968 1621.46 265.857 1612.59 279.251C1604.8 291.022 1599.5 304.917 1605.55 318.676C1611.77 332.796 1626.47 341.19 1638.33 350.02C1652.09 360.279 1663.1 372.262 1663.2 390.366C1663.29 406.89 1655.31 423.827 1641.79 433.552C1628.46 443.151 1610.89 444.749 1595.64 439.113C1588.34 436.413 1581.57 431.946 1576.51 426.012C1570.69 419.192 1568.37 411.059 1566.66 402.414C1564.98 393.935 1563.51 384.967 1558.04 377.966C1553.47 372.103 1546.62 368.552 1539.36 367.225C1524.26 364.498 1509.09 370.506 1497.79 380.373C1470.76 403.943 1468.37 440.354 1473.92 473.407C1479.84 508.643 1493.31 546.696 1477.54 581.378C1463.59 612.047 1431.32 631.218 1399.1 637.137C1363.65 643.653 1327.28 633.584 1295.23 618.755C1259.86 602.408 1227.9 579.678 1192.67 563.061C1174.88 554.662 1154.96 549.876 1138.3 539.294C1124.22 530.348 1113.7 516.898 1106.96 501.754C1075.56 431.154 1124.04 357.826 1165.19 303.189C1187.83 273.137 1211.05 242.666 1240.16 218.471C1266.86 196.266 1302.24 178.409 1337.78 186.758C1370.78 194.523 1397.8 218.966 1413.88 248.066C1422.67 263.981 1429.79 281.092 1441.56 295.152C1451.79 307.376 1465.21 314.742 1480.36 319.107C1505.92 326.458 1538.13 325.777 1556.56 347.849C1558.65 350.355 1562.22 346.725 1560.13 344.225C1541.44 321.837 1509.56 321.822 1483.53 314.712C1466.4 310.031 1452.22 301.57 1441.63 287.038C1430.62 271.939 1423.81 254.268 1414.14 238.376C1397.96 211.781 1370.93 189.828 1340.44 182.179C1307.16 173.802 1273.3 187.297 1246.64 206.986C1216.46 229.282 1192.58 258.989 1169.96 288.598C1147.49 317.994 1124.96 347.987 1109.55 381.785C1095.29 413.065 1087.88 447.545 1095.22 481.646C1098.52 496.996 1104.83 511.817 1114.52 524.258C1124.98 537.69 1138.7 546.535 1154.36 552.871C1173.23 560.507 1191.84 567.742 1209.79 577.443C1227.62 587.065 1244.88 597.683 1262.55 607.582C1293.18 624.746 1325.89 639.728 1361.21 643.367C1393.85 646.73 1427.43 638.833 1453.63 618.595C1466.31 608.797 1476.92 596.177 1483.09 581.305C1489.65 565.525 1490.87 548.311 1489.37 531.452C1486.16 495.249 1469.83 458.58 1478.73 422.005C1482.72 405.636 1492.38 389.661 1506.47 380.059C1519.62 371.12 1541.63 366.535 1553.41 380.327C1560.2 388.271 1560.62 399.798 1562.95 409.52C1564.69 416.786 1567.68 423.424 1572.5 429.16C1581.85 440.272 1596.25 446.539 1610.6 447.402C1642.13 449.299 1667.69 422.679 1668.26 391.744C1668.54 376.35 1661.91 363.419 1650.52 353.336C1638.34 342.554 1621.84 335.04 1612.7 321.188C1602.82 306.227 1610.58 290.803 1619.72 277.796C1628.85 264.789 1637.86 252.5 1640.37 236.382C1645.3 204.619 1629.16 175.091 1613.81 148.64C1604.27 132.206 1594.55 115.387 1590.22 96.6946C1586.14 79.146 1588.09 60.7313 1595.75 44.4152C1611.57 10.3009 1644.53 -13.0373 1679.55 -24.4084C1718.47 -37.0428 1760.1 -37.4583 1800.61 -38.3509C1821.26 -38.8083 1841.92 -40.1316 1862.58 -40.3063C1881.03 -40.4655 1900.4 -39.6335 1917.25 -31.3374C1935.87 -22.1589 1946.27 -4.54722 1952.03 14.8128C1957.84 34.3708 1960.48 55.0791 1962.13 75.369C1965.28 114.305 1964.15 154.024 1960.52 192.903C1957.16 228.905 1948.52 268.332 1922.27 295.038C1915.43 302.007 1907.17 307.844 1897.63 310.362C1888.65 312.735 1879.34 311.676 1870.53 309.091C1854.22 304.317 1838.92 296.106 1822.81 290.593C1788.8 278.958 1752.15 272.704 1716.38 279.169C1707.75 280.726 1699.45 283.265 1691.14 286.034C1685.46 287.93 1678.55 290.113 1674.8 295.117C1667.7 304.597 1679.55 312.288 1687.11 315.584C1696.6 319.744 1707.21 321.331 1716.28 326.368C1726.93 332.292 1736.24 340.803 1743.81 350.308C1751.82 360.363 1758.4 372.484 1760.02 385.407C1761.68 398.704 1756.97 415.286 1744.36 421.997C1728.91 430.213 1710.27 419.055 1694.78 426.897C1688.63 430.016 1683.71 436.858 1684.56 443.961C1685.35 450.743 1691.03 455.508 1696.97 458.083C1713.11 465.074 1730.58 456.069 1746.83 460.949C1767.84 467.244 1768.67 491.251 1766.56 509.315C1764.32 528.519 1760.69 547.305 1761.04 566.756C1761.4 586.454 1765.09 606.55 1775.51 623.543C1783.12 635.952 1795.15 648.171 1810.77 647.999C1823.46 647.86 1838.09 639.169 1840.83 626.093C1842.26 619.33 1839.16 612.3 1832.4 609.923C1828.61 608.593 1822.4 607.616 1818.87 610.064C1815.34 612.512 1816.14 618.299 1820.11 619.855C1824.8 621.682 1830.23 618.095 1834.44 616.447C1838.65 614.8 1842.63 614.428 1845.4 618.595C1847.79 622.179 1848.23 626.586 1847.64 630.765C1846.54 638.637 1842.2 646.232 1836.53 651.722C1823.04 664.767 1802.03 664.597 1787.08 654.144C1772.76 644.131 1769.47 626.637 1759.44 613.394C1755.91 608.737 1751.26 604.571 1745.27 603.729C1739.49 602.915 1733.02 605.045 1729.56 609.89C1721.05 621.789 1730.92 639.197 1738.36 648.724C1751.49 665.518 1771.62 677.06 1780.73 696.9C1788.83 714.563 1782.64 732.872 1769.3 745.99C1758.15 756.947 1736.53 770.289 1720.76 760.942C1710 754.569 1706.02 733.497 1717.74 725.908C1723.17 722.39 1731.04 723.12 1734.98 728.459C1739.02 733.929 1737.46 740.978 1733.03 745.636C1732.68 745.997 1732.45 746.45 1732.36 746.94C1732.27 747.429 1732.33 747.934 1732.52 748.393C1732.71 748.852 1733.03 749.246 1733.44 749.527C1733.85 749.808 1734.33 749.964 1734.83 749.976C1745.02 750.116 1747.47 737.592 1743.16 730.174C1736.96 719.518 1723.82 726.695 1720.38 735.641C1716.01 746.999 1722.59 758.133 1734.75 759.213C1748.91 760.475 1761.37 750.696 1767.1 738.353C1772.95 725.71 1773.35 710.528 1767.82 697.723C1761.53 683.169 1747.79 675.224 1734.58 667.754C1727.39 663.69 1720.12 659.561 1714.06 653.879C1707.26 647.499 1702.28 639.597 1697.67 631.574C1689.47 617.321 1681.97 604.258 1668.29 594.563C1656.14 585.955 1639.04 581.338 1629.82 569.158C1618.85 554.653 1632.79 540.1 1640.51 528.062C1646.76 518.312 1650.73 505.275 1644.2 494.588C1637.96 484.398 1624.2 482.76 1614.12 488.034C1600.77 495.014 1599.67 510.101 1600.75 523.396C1601.35 530.913 1602.28 539.147 1599.08 546.245C1596.01 553.063 1589.31 557.264 1582 558.088C1565.6 559.948 1553.45 546.252 1549.5 531.705C1545.54 517.158 1546.67 501.824 1546.53 486.934C1546.38 470.805 1543.36 454.783 1535.81 440.421C1528.46 426.453 1515.29 412.012 1518.91 394.974C1520.95 385.385 1528.72 380.966 1537.58 385.498C1545.64 389.621 1549.96 398.093 1552.61 406.36C1557.15 420.562 1558.45 436.044 1567.35 448.519C1575.1 459.395 1588.05 465.575 1601.47 463.376C1609.07 462.134 1614.6 458.006 1619.91 452.635C1623.29 449.216 1626.63 446.461 1631.13 444.642C1634.85 443.131 1638.66 441.925 1642.17 439.923C1648.03 436.629 1652.64 431.501 1655.29 425.33C1657.67 419.689 1658.64 409.143 1666.1 408.114C1672.45 407.237 1677.63 410 1683.79 406.753C1689.87 403.545 1693.51 397.148 1695.25 390.713C1703.4 360.655 1676.78 342.923 1655.05 328.641C1646.52 323.029 1626.79 312.111 1631.16 299.243C1633.5 292.371 1641.89 289.986 1648.39 289.487C1653.55 289.096 1660.91 289.111 1664.62 293.33C1665.62 294.475 1667.35 297.462 1664.89 298.108C1663.9 298.369 1662.42 297.217 1661.73 296.708C1659.82 295.281 1658.22 293.484 1657.02 291.423C1653.63 285.552 1654.8 278.068 1656.24 271.812C1657.76 265.203 1660.14 258.8 1661.3 252.097C1662.57 244.749 1662.77 237.257 1661.89 229.853C1658.18 198.435 1636.31 174.521 1620.52 148.542C1615.66 140.539 1611.25 132.265 1607.33 123.762C1603.94 116.422 1599.57 108.63 1599.62 100.325C1599.7 86.9069 1605.66 74.3264 1607.56 61.2067C1611.84 31.7814 1596.57 5.02609 1578.58 -16.9085C1568.87 -28.7497 1558.16 -39.7444 1547.73 -50.9635C1535.17 -64.4763 1522.57 -77.9942 1508.8 -90.3004C1485.45 -111.148 1458.43 -126.828 1427.93 -134.44C1398.72 -141.721 1363.92 -144.503 1336.09 -130.909C1306.48 -116.443 1293.65 -82.3577 1285.47 -52.5139C1266.97 14.9543 1276.94 87.5622 1296.62 153.588C1299.25 162.421 1302.13 171.176 1305.26 179.85C1307.48 185.996 1309.5 192.937 1314.21 197.727C1318.76 202.362 1325.01 203.327 1331.24 202.573C1339.19 201.609 1346.6 199.084 1354.72 199.209C1370.52 199.44 1386.08 205.757 1397.21 217.046C1410.98 231.006 1414.84 249.531 1420.36 267.593C1425.03 282.87 1432.13 296.462 1445.37 305.931C1456.22 313.692 1469.21 317.717 1482.1 320.577C1509.15 326.578 1545.8 328.017 1560.97 355.335C1565.33 363.186 1567.53 372.972 1566.04 381.917C1565.54 384.951 1564.54 388.913 1562.57 391.396C1560.6 393.879 1559.93 393.467 1558.39 391.255C1557.57 390.084 1556.79 388.935 1555.87 387.815C1546.33 376.199 1532.64 369.69 1517.48 371.103C1488.74 373.786 1472.2 399.918 1471.2 426.848C1470.05 457.693 1485.03 485.836 1489.72 515.766C1494.96 549.26 1485.43 586.463 1460.22 610.072C1453.27 616.582 1445.37 621.472 1436.8 625.553C1429.92 628.839 1422.07 631.373 1416.54 636.853C1405.17 648.108 1411.85 666.275 1415.82 679.295C1421.1 696.565 1428.18 713.3 1436.41 729.361C1444.91 746.009 1454.18 762.599 1464.8 777.993C1479.77 799.685 1501.25 821.283 1529.39 822.078C1562.59 823.018 1581.39 792.544 1597.44 768.108C1617.62 737.315 1639.19 707.561 1659.83 677.089C1673.78 656.49 1699.84 620.717 1678.9 596.517C1670.02 586.233 1655.8 584.352 1644.14 578.72C1628.84 571.327 1622.54 556.023 1628.64 540.058C1631.74 531.907 1636.99 525.429 1642.38 518.731C1646.18 514.007 1649.15 508.815 1648.61 502.555C1647.47 489.651 1636.11 479.58 1623.19 482.78C1615.4 484.706 1608.94 489.87 1601.45 492.529C1594.91 494.832 1579.97 495.197 1582.7 484.043C1583.23 481.9 1585.86 479.282 1585.3 483.034C1585.17 483.93 1584.83 484.781 1584.3 485.514C1583.77 486.247 1583.07 486.838 1582.26 487.236C1578.06 489.348 1573.77 485.777 1572.92 481.697C1572.32 478.828 1573.35 475.275 1574.56 472.669C1574.83 472.101 1576 469.438 1576.44 469.406C1576.04 469.434 1574.51 471.632 1573.96 472.043L1577.69 474.902C1578.99 467.924 1587.64 466.307 1593.27 469.377C1595.29 470.474 1595.57 471.87 1596.9 473.523C1598.69 475.785 1598.55 475.197 1600.29 473.592C1600.92 472.95 1601.68 472.457 1602.52 472.15C1603.37 471.843 1604.27 471.729 1605.16 471.818C1606.48 472.074 1607.75 472.548 1608.91 473.221C1611.74 474.673 1611.97 476.446 1609.6 478.54L1612.78 481.012C1612.4 473.071 1618.4 465.651 1625.77 463.188C1629.44 461.967 1633.39 461.898 1637.09 462.99C1639.7 463.761 1640.78 465.134 1639.51 467.84C1639.06 468.809 1637.24 471.082 1636.57 470.383C1635.26 468.962 1640.08 463.738 1641.2 462.685C1643.58 460.438 1646.63 458.634 1649.88 458.027C1653.95 457.325 1658.13 458.215 1661.56 460.51C1662.88 461.38 1663.85 461.745 1663.72 463.414C1663.61 464.716 1661.58 466.483 1660.74 467.506L1663.81 467.081C1662.27 466.044 1664.41 464.077 1665.24 463.427C1667.02 462.034 1669.18 461.903 1671.37 462.335C1673.12 462.697 1674.77 463.415 1676.22 464.446C1677.67 465.476 1678.9 466.796 1679.81 468.323C1683.01 473.748 1681.4 480.468 1676.99 484.633C1676.1 485.471 1673.85 487.735 1672.52 487.498C1671.2 487.261 1671.27 485.993 1671.46 484.686C1671.77 482.518 1673.03 481.401 1675.26 481.335C1679.06 481.231 1681.35 484.949 1681.21 488.381C1681.05 492.471 1678.5 495.914 1675.4 498.343L1679.76 500.139C1679.69 497.733 1683.99 496.626 1685.84 497.381C1688.83 498.59 1688.53 503.236 1686 504.666L1689.48 505.596C1684.92 499.25 1691.38 491.464 1697.18 488.674C1698.71 487.936 1698.76 485.768 1697.69 484.657C1694.6 481.449 1693.38 477.438 1693.72 473.022C1693.8 471.921 1694.7 465.003 1696.24 464.538C1696.15 464.564 1697.43 465.831 1696.82 466.648C1696.01 467.703 1694.48 466.14 1693.59 465.581C1690.73 463.757 1688.04 461.685 1685.55 459.39C1681.38 455.634 1672.3 447.468 1675.42 441.265C1675.87 440.349 1677.49 438.071 1675.9 440.033C1674.57 441.672 1674.03 442.585 1671.59 442.373C1668.23 442.086 1665.42 439.087 1664.02 436.222C1658.22 424.319 1671.69 409.225 1683.88 416.812C1686.25 418.286 1690.6 425.44 1685.3 426.144C1681.58 426.64 1681.07 421.599 1682.48 419.315C1684.52 416.048 1688.93 414.661 1692.45 413.922C1694.08 413.545 1695.74 413.364 1697.41 413.382C1698.73 413.34 1700.04 413.645 1701.2 414.265C1702.97 416.124 1702.98 417.652 1701.23 418.852L1704.41 421.323C1704.24 419.638 1704.11 418.007 1704.59 416.33C1705.16 414.306 1710.26 408.941 1711.46 413.95L1715.2 411.092C1707.89 407.486 1705.26 397.129 1713.39 392.688C1716.29 391.103 1720.93 390.349 1723.17 393.511C1725.87 397.335 1722.75 402.954 1718.68 403.904L1721.13 408.15C1723.42 405.731 1727.46 404.399 1730.48 406.439C1734.71 409.295 1731.98 415.195 1728.58 417.228L1732.31 420.087L1733.96 420.631C1733.65 421.521 1733.11 422.309 1732.38 422.903C1731.65 423.498 1730.76 423.876 1729.83 423.994C1728.15 424.476 1726.35 424.444 1724.64 424.483C1721.66 424.55 1718.69 424.488 1715.71 424.612C1710.66 424.843 1705.51 425.531 1700.94 427.866C1693.83 431.479 1687.64 439.862 1691.16 447.985C1694.87 456.569 1705.61 457.974 1713.77 456.945C1719.87 456.186 1725.88 454.408 1732.07 454.629C1737.9 454.856 1743.56 456.66 1748.45 459.849C1769.46 473.531 1758.52 500.936 1768.67 520.249C1774.13 530.637 1784.53 537.372 1794.6 542.736C1805.69 548.663 1817.1 553.952 1828.8 558.579C1839.79 562.91 1850.42 563.925 1861.98 561.348C1874.35 558.609 1886.13 553.383 1897.26 547.444C1920.66 534.959 1942.01 518.918 1966.79 509.038C1979.43 504.001 1992.49 500.115 2005.39 495.843C2015.99 492.333 2028.95 489.192 2037.73 481.935C2054.27 468.27 2050.88 441.492 2045.69 423.351C2037.98 396.421 2020.92 373.655 2002.2 353.32C1981.19 330.504 1958.88 308.815 1937.13 286.701C1934.84 284.369 1931.25 287.988 1933.55 290.325L1933.53 290.35Z" fill="#402B1D"/>
</g>
</svg>
