<svg width="497" height="397" viewBox="0 0 497 397" fill="none" xmlns="http://www.w3.org/2000/svg">
<g clip-path="url(#clip0_496:64818)">
<path d="M225.973 480.811L226.506 481.945L209.18 453.264L208.264 453.665C208.264 453.665 208.264 453.665 208.264 453.664C190.454 412.969 176.128 369.842 178.908 324.643L179.826 324.7L178.908 324.643C181.424 283.794 196.129 244.382 218.094 210.147C240.875 174.641 271.657 143.094 308.154 121.603C327.14 110.421 347.943 101.972 369.732 98.084L369.733 98.0839C390.005 94.4709 410.661 96.0523 430.285 102.002C449.896 107.947 468.14 117.78 484.768 129.575C504.423 143.485 522.744 159.192 539.494 176.493C547.761 185.029 555.553 194.013 562.835 203.403L562.837 203.405C563.875 204.751 564.901 206.101 565.913 207.454L566.294 207.963L565.994 208.524C565.481 209.485 564.973 210.449 564.469 211.416L563.714 212.863L562.767 211.533C561.701 210.036 560.616 208.552 559.503 207.096C545.095 188.287 528.349 171.25 510.354 155.825L510.354 155.825C493.759 141.568 476.098 128.176 456.692 118.146C438.974 109 419.675 102.614 399.759 101.283L399.758 101.282C378.584 99.8404 357.417 104.58 337.764 112.433C298.363 128.176 264.647 156.924 238.446 190.017C213.554 221.49 194.934 258.507 187.241 298.022L187.241 298.024C183.363 317.676 182.455 337.799 184.548 357.721C186.976 380.293 193.277 402.311 201.231 423.581C208.498 443.014 217.116 461.985 225.973 480.811Z" stroke="#665346" stroke-width="2"/>
<path d="M114.911 497.572C117.352 453.254 124.006 408.331 146.865 369.258L147.646 369.715L146.865 369.258C167.531 333.943 198.421 305.398 233.455 284.72C269.8 263.268 311.526 248.995 353.808 246.24C375.808 244.807 398.195 246.62 419.403 252.956C439.146 258.852 456.861 269.531 471.724 283.69C485.633 296.937 496.926 312.694 506.137 329.445L506.619 330.323L505.741 330.804C504.899 331.266 504.051 331.721 503.197 332.17L502.332 332.625L501.857 331.769C497.696 324.262 493.094 317.007 488.077 310.042C476.394 293.92 462.045 279.545 444.866 269.393L444.865 269.392C426.607 258.581 405.586 253.289 384.474 251.45C342.191 247.771 299.111 258.25 260.794 275.99C224.35 292.862 191.031 317.523 166.342 349.306L166.341 349.308C154.017 365.097 144.134 382.642 137.021 401.358C129.011 422.568 124.711 445.045 122.225 467.601L122.225 467.602C120.887 479.665 120.04 491.808 119.451 503.968L119.412 504.76L118.633 504.903C117.665 505.082 116.697 505.256 115.727 505.426L114.495 505.643L114.555 504.394C114.664 502.121 114.782 499.847 114.911 497.572ZM114.911 497.572C114.911 497.572 114.911 497.572 114.911 497.572L115.91 497.628L114.911 497.573C114.911 497.573 114.911 497.573 114.911 497.572ZM505.26 329.927C505.1 329.635 504.938 329.343 504.777 329.052C504.778 329.052 504.779 329.051 504.78 329.05L505.26 329.927ZM504.382 330.405C504.676 330.247 504.968 330.087 505.26 329.927L504.384 330.409C504.383 330.408 504.383 330.407 504.382 330.405ZM115.554 504.442C115.891 504.382 116.227 504.323 116.564 504.263C116.56 504.338 116.556 504.414 116.553 504.489L115.554 504.442ZM115.554 504.441L115.381 503.457C115.455 503.444 115.529 503.431 115.604 503.417C115.587 503.759 115.57 504.1 115.554 504.441Z" stroke="#665346" stroke-width="2"/>
<g clip-path="url(#clip1_496:64818)">
<path opacity="0.2" d="M522.471 739.969C495.127 746.673 465.408 745.583 437.715 737.861C392.333 725.202 350.357 702.297 306.833 684.662C267.582 668.755 227.424 652.981 193.841 626.58C108.927 559.8 78.2156 448.825 104.698 353.099C139.747 225.388 271.597 135.604 378.01 174.085C429.028 192.532 468.336 236.471 501.191 277.781C540.288 326.94 572.746 381.721 594.668 440.672C615.944 497.82 631.674 563.739 621.917 624.938C613.141 680.205 578.285 726.282 522.471 739.969Z" fill="#B3A59E"/>
<path opacity="0.4" d="M80.9182 304.666C81.2236 304.233 81.529 303.8 81.8343 303.367C113.599 259.046 165.619 231.802 220.585 237.249C254.168 240.586 290.261 257.412 303.532 290.431C328.124 351.596 251.05 409.68 206.214 436.834C167.761 460.129 106.426 482.402 71.1787 441.996C37.1095 402.976 54.2955 342.701 80.9182 304.666Z" fill="#DF936D"/>
</g>
</g>
<defs>
<clipPath id="clip0_496:64818">
<rect width="497" height="396" fill="white" transform="matrix(-1 0 0 1 497 0.0078125)"/>
</clipPath>
<clipPath id="clip1_496:64818">
<path d="M1 132.008H497V392.008C497 394.217 495.209 396.008 493 396.008H1V132.008Z" fill="white"/>
</clipPath>
</defs>
</svg>
