<svg width="1766" height="245" viewBox="0 0 1766 245" fill="none" xmlns="http://www.w3.org/2000/svg">
<path opacity="0.3" d="M260.975 82.0548C325.307 86.8505 388.62 115.55 442.484 148.345C552.388 215.273 658.675 261.749 786.819 216.795C926.938 167.653 1038.22 56.1819 1184.85 22.5641C1374.85 -21.0123 1597.51 18.6091 1741.1 157.171C1759.11 174.492 1775.56 193.361 1790.27 213.56C1860.47 332.291 1785.24 448.789 1683.57 472.167C1667.36 547.214 1607.89 599.179 1556.5 657.824C1515.63 702.803 1415.08 804.576 1344.97 867.157C1353.8 882.905 1359.7 897.676 1361.43 911.285C1381.06 1064.52 1243 1117.04 1193.56 1111.74C1125.35 1109.79 1104.64 1084.67 1065.47 1062.44C949.47 991.174 835.009 919.527 724.061 840.702C478.753 671.518 356.174 530.612 185.046 405.664L181.586 403.3C167.164 394.344 152.757 385.357 138.363 376.336C102.166 350.102 75.2801 313.077 65.8247 268.412C41.2965 152.449 154.031 74.0841 260.975 82.0548ZM1148.97 584.85L1149.01 585.598C1149.85 584.828 1150.7 584.056 1151.54 583.282C1150.68 583.81 1149.82 584.333 1148.97 584.85Z" fill="#AB6A49"/>
<path opacity="0.6" d="M460.57 277.634C551.211 208.091 667.149 176.941 780.097 173.329C876.954 170.234 1018.79 180.707 1093.83 249.219C1179.1 327.046 1122.95 465.604 1013.11 473.025C1025.11 558.174 963.154 625.268 882.392 625.739C848.15 626.014 818.101 607.735 786.734 595.347C745.995 578.136 705.435 561.661 663.948 546.992C545.374 503.736 491.052 514.159 457.629 480.109C391.618 427.37 397.797 325.798 460.57 277.634Z" fill="#DF936D"/>
</svg>
