<svg width="240" height="36" viewBox="0 0 240 36" fill="none" xmlns="http://www.w3.org/2000/svg">
<path d="M19.4087 17.532C19.4647 17.62 19.4887 17.728 19.4807 17.856C19.4727 17.976 19.4327 18.104 19.3607 18.24C19.2967 18.368 19.2047 18.5 19.0847 18.636C18.9647 18.772 18.8207 18.892 18.6527 18.996L18.6647 18.984C18.5527 19.072 18.4327 19.144 18.3047 19.2C18.2087 19.256 18.0647 19.344 17.8727 19.464C17.6807 19.584 17.3887 19.764 16.9967 20.004L16.7807 20.148C16.7647 20.164 16.7407 20.18 16.7087 20.196C16.6847 20.212 16.6527 20.232 16.6127 20.256L16.6367 20.244C16.5967 20.276 16.5527 20.308 16.5047 20.34C16.4567 20.364 16.4087 20.392 16.3607 20.424C16.0247 20.64 15.6327 20.892 15.1847 21.18C14.7447 21.468 14.2407 21.812 13.6727 22.212C12.8727 22.764 11.9407 23.424 10.8767 24.192C9.81267 24.968 8.58867 25.912 7.20467 27.024V27.012C6.82867 27.316 6.45267 27.636 6.07667 27.972C5.70067 28.308 5.30867 28.668 4.90067 29.052V29.04L4.81667 29.124C4.72067 29.212 4.63267 29.296 4.55267 29.376C4.46467 29.456 4.36867 29.548 4.26467 29.652C4.04867 30.012 3.81667 30.392 3.56867 30.792C3.31267 31.192 3.03267 31.62 2.72867 32.076C2.49667 32.42 2.26867 32.752 2.04467 33.072C1.82067 33.392 1.60467 33.692 1.39667 33.972L1.40867 33.96C1.39267 33.976 1.37667 33.996 1.36067 34.02C1.34467 34.044 1.32867 34.064 1.31267 34.08L1.09667 34.308H0.940671C0.924671 34.308 0.872671 34.304 0.784671 34.296C0.688671 34.296 0.572671 34.296 0.436671 34.296C0.348671 34.176 0.292671 34.092 0.268671 34.044C0.244671 33.996 0.224671 33.952 0.208671 33.912C0.200671 33.896 0.192671 33.872 0.184671 33.84C0.176671 33.816 0.156671 33.772 0.124671 33.708L0.136671 33.564L0.148671 33.624C0.148671 33.608 0.148671 33.584 0.148671 33.552C0.140671 33.52 0.136671 33.496 0.136671 33.48V33.408C0.152671 33.272 0.172671 33.152 0.196671 33.048C0.220671 32.944 0.248671 32.848 0.280671 32.76C0.352671 32.576 0.428671 32.408 0.508671 32.256C0.588671 32.112 0.672671 31.972 0.760671 31.836C1.05667 31.396 1.35667 31 1.66067 30.648C1.96467 30.296 2.27267 29.96 2.58467 29.64C2.59267 29.632 2.60067 29.62 2.60867 29.604C2.60867 29.596 2.61667 29.584 2.63267 29.568C2.64067 29.56 2.64467 29.552 2.64467 29.544C2.73267 29.408 2.82067 29.26 2.90867 29.1C2.98867 28.948 3.07267 28.804 3.16067 28.668C3.64067 27.868 4.04867 27.168 4.38467 26.568C4.71267 25.968 5.01267 25.42 5.28467 24.924C5.31667 24.868 5.34867 24.812 5.38067 24.756C5.40467 24.708 5.43267 24.66 5.46467 24.612L5.45267 24.636C5.52467 24.5 5.59667 24.36 5.66867 24.216C5.74067 24.08 5.81267 23.944 5.88467 23.808V23.82C6.06867 23.468 6.25267 23.128 6.43667 22.8C6.62067 22.464 6.80467 22.116 6.98867 21.756C7.22867 21.276 7.50467 20.712 7.81667 20.064C8.13667 19.416 8.46867 18.704 8.81267 17.928C8.98867 17.52 9.18467 17.06 9.40067 16.548C9.61667 16.028 9.84067 15.468 10.0727 14.868C10.3127 14.26 10.5567 13.62 10.8047 12.948C11.0607 12.268 11.3087 11.572 11.5487 10.86C11.7807 10.156 12.0087 9.452 12.2327 8.748C12.4567 8.036 12.6567 7.368 12.8327 6.744C12.3847 7.088 11.9447 7.396 11.5127 7.668C11.0887 7.94 10.6767 8.18 10.2767 8.388C9.87667 8.596 9.49267 8.78 9.12467 8.94C8.76467 9.1 8.42467 9.24 8.10467 9.36C7.41667 9.616 6.81667 9.812 6.30467 9.948C5.79267 10.076 5.36467 10.176 5.02067 10.248C4.73267 10.312 4.48467 10.36 4.27667 10.392C4.06067 10.416 3.89667 10.436 3.78467 10.452C3.77667 10.452 3.77267 10.456 3.77267 10.464C3.77267 10.464 3.76467 10.464 3.74867 10.464C3.54067 10.488 3.34867 10.488 3.17267 10.464C2.98867 10.432 2.82867 10.384 2.69267 10.32C2.54867 10.248 2.43667 10.164 2.35667 10.068C2.27667 9.972 2.23667 9.864 2.23667 9.744C2.23667 9.528 2.36467 9.34 2.62067 9.18C2.86867 9.02 3.17267 8.916 3.53267 8.868C3.56467 8.852 3.59267 8.848 3.61667 8.856C3.64067 8.856 3.67267 8.856 3.71267 8.856C3.76867 8.856 3.80467 8.852 3.82067 8.844C3.86867 8.836 3.92067 8.832 3.97667 8.832C4.03267 8.824 4.10067 8.812 4.18067 8.796H4.16867C4.20067 8.788 4.23267 8.784 4.26467 8.784C4.28867 8.784 4.32067 8.78 4.36067 8.772C4.59267 8.74 4.89267 8.692 5.26067 8.628C5.62867 8.556 6.07267 8.452 6.59267 8.316H6.58067C6.87667 8.228 7.19267 8.132 7.52867 8.028C7.87267 7.916 8.22867 7.78 8.59667 7.62C8.98067 7.46 9.39267 7.264 9.83267 7.032C10.2727 6.8 10.7567 6.516 11.2847 6.18C11.5247 6.02 11.7847 5.84 12.0647 5.64C12.3527 5.432 12.6047 5.24 12.8207 5.064C12.8607 5.024 12.9127 4.98 12.9767 4.932C13.0407 4.876 13.0927 4.828 13.1327 4.788C13.1887 4.74 13.2287 4.704 13.2527 4.68C13.2847 4.656 13.3287 4.616 13.3847 4.56C13.4887 4.304 13.6247 4.176 13.7927 4.176C13.9607 4.168 14.1287 4.232 14.2967 4.368L14.2727 4.416C14.3127 4.432 14.3567 4.452 14.4047 4.476C14.4527 4.492 14.5087 4.516 14.5727 4.548C14.6127 4.572 14.6647 4.612 14.7287 4.668C14.8007 4.716 14.8727 4.768 14.9447 4.824L14.5727 5.208V5.22L14.5127 5.364C14.4967 5.396 14.4887 5.424 14.4887 5.448C14.4807 5.472 14.4727 5.5 14.4647 5.532C14.4647 5.556 14.4607 5.576 14.4527 5.592C14.4367 5.656 14.4207 5.712 14.4047 5.76C14.3967 5.8 14.3847 5.848 14.3687 5.904C14.1447 6.688 13.8927 7.528 13.6127 8.424C13.3407 9.312 13.0327 10.256 12.6887 11.256C12.3687 12.168 12.0567 13.012 11.7527 13.788C11.4567 14.564 11.1727 15.288 10.9007 15.96C10.6287 16.624 10.3687 17.24 10.1207 17.808C9.88067 18.376 9.65667 18.9 9.44867 19.38C9.02467 20.34 8.64867 21.176 8.32067 21.888C7.99267 22.592 7.69267 23.236 7.42067 23.82C7.21267 24.26 7.00867 24.684 6.80867 25.092C6.60067 25.5 6.38067 25.924 6.14867 26.364C6.22067 26.3 6.29667 26.236 6.37667 26.172C6.44867 26.108 6.52467 26.044 6.60467 25.98C7.72467 25.06 8.73267 24.26 9.62867 23.58C10.5327 22.9 11.3287 22.308 12.0167 21.804C12.0327 21.796 12.0447 21.788 12.0527 21.78C12.0687 21.772 12.0847 21.764 12.1007 21.756C12.1247 21.74 12.1527 21.72 12.1847 21.696C12.2167 21.672 12.2407 21.652 12.2567 21.636C12.6087 21.38 12.9367 21.14 13.2407 20.916C13.5447 20.692 13.8247 20.488 14.0807 20.304C14.1847 20.232 14.2847 20.16 14.3807 20.088C14.4847 20.016 14.5807 19.948 14.6687 19.884C14.9087 19.716 15.1247 19.56 15.3167 19.416C15.4687 19.304 15.6047 19.204 15.7247 19.116C15.8527 19.028 15.9727 18.944 16.0847 18.864C16.1247 18.832 16.1607 18.804 16.1927 18.78C16.2327 18.756 16.2727 18.728 16.3127 18.696C16.4567 18.592 16.5847 18.496 16.6967 18.408C16.8967 18.264 17.0767 18.136 17.2367 18.024C17.3967 17.912 17.5767 17.788 17.7767 17.652C17.9607 17.54 18.1487 17.452 18.3407 17.388C18.5327 17.324 18.7087 17.292 18.8687 17.292C18.9807 17.292 19.0847 17.312 19.1807 17.352C19.2847 17.384 19.3647 17.444 19.4207 17.532H19.4087ZM14.5847 5.148C14.5847 5.156 14.5807 5.16 14.5727 5.16C14.5727 5.16 14.5727 5.164 14.5727 5.172C14.5807 5.164 14.5847 5.156 14.5847 5.148ZM34.5699 17.316C34.7939 17.228 35.0099 17.22 35.2179 17.292C35.4339 17.364 35.5899 17.5 35.6859 17.7C35.7739 17.9 35.7739 18.108 35.6859 18.324C35.6059 18.532 35.4499 18.688 35.2179 18.792C35.1939 18.8 35.1579 18.812 35.1099 18.828C35.0619 18.836 35.0299 18.844 35.0139 18.852H34.9779C34.9379 18.868 34.8779 18.888 34.7979 18.912C34.7179 18.936 34.5939 18.98 34.4259 19.044C34.2659 19.108 34.0499 19.188 33.7779 19.284C33.5059 19.38 33.1899 19.488 32.8299 19.608C32.4459 19.736 31.9899 19.884 31.4619 20.052C30.9339 20.212 30.3099 20.384 29.5899 20.568C29.5019 20.592 29.4019 20.62 29.2899 20.652C29.1859 20.676 29.0859 20.7 28.9899 20.724C28.6859 20.804 28.3499 20.892 27.9819 20.988C27.6219 21.076 27.2499 21.156 26.8659 21.228C26.3539 21.324 25.7899 21.408 25.1739 21.48C24.5579 21.552 23.9059 21.58 23.2179 21.564C22.7859 21.556 22.4099 21.544 22.0899 21.528C21.7779 21.512 21.5019 21.496 21.2619 21.48C21.2379 21.48 21.2099 21.48 21.1779 21.48C21.1459 21.472 21.1219 21.468 21.1059 21.468C21.0419 21.46 21.0019 21.456 20.9859 21.456C20.9779 21.456 20.9539 21.456 20.9139 21.456C20.9059 21.464 20.8979 21.472 20.8899 21.48C20.8899 21.488 20.8859 21.496 20.8779 21.504C20.8539 21.528 20.8379 21.548 20.8299 21.564C20.8059 21.588 20.7899 21.608 20.7819 21.624C20.7659 21.64 20.7499 21.656 20.7339 21.672C20.7259 21.688 20.7139 21.704 20.6979 21.72C20.6819 21.736 20.6619 21.756 20.6379 21.78C20.6219 21.804 20.6059 21.824 20.5899 21.84C20.4459 22 20.2779 22.188 20.0859 22.404C19.8939 22.62 19.6979 22.824 19.4979 23.016V23.004C19.3539 23.14 19.1779 23.292 18.9699 23.46C18.7699 23.628 18.5539 23.78 18.3219 23.916H18.3339C18.0779 24.084 17.7739 24.224 17.4219 24.336H17.4339C17.3459 24.368 17.2539 24.392 17.1579 24.408C17.0699 24.432 16.9699 24.448 16.8579 24.456C16.8259 24.464 16.7859 24.468 16.7379 24.468C16.6899 24.468 16.6579 24.468 16.6419 24.468C16.6099 24.468 16.5779 24.468 16.5459 24.468C16.5139 24.468 16.4819 24.464 16.4499 24.456C16.2899 24.44 16.1419 24.396 16.0059 24.324C15.7419 24.196 15.5339 24.02 15.3819 23.796C15.2219 23.564 15.1099 23.336 15.0459 23.112V23.124C14.9819 22.916 14.9419 22.728 14.9259 22.56C14.9099 22.384 14.8979 22.212 14.8899 22.044C14.8899 21.86 14.8979 21.688 14.9139 21.528C14.9219 21.368 14.9339 21.22 14.9499 21.084C14.9659 20.956 14.9899 20.824 15.0219 20.688C15.0459 20.552 15.0819 20.408 15.1299 20.256V20.268C15.2099 19.98 15.3099 19.724 15.4299 19.5C15.5419 19.268 15.6659 19.06 15.8019 18.876C15.9539 18.684 16.1059 18.52 16.2579 18.384C16.4019 18.24 16.5459 18.12 16.6899 18.024L16.6779 18.036C16.9659 17.836 17.2259 17.688 17.4579 17.592C17.6899 17.496 17.8859 17.42 18.0459 17.364C18.2299 17.308 18.3619 17.272 18.4419 17.256C18.5299 17.232 18.5939 17.216 18.6339 17.208C18.7619 17.184 18.8859 17.188 19.0059 17.22C19.1259 17.252 19.2299 17.304 19.3179 17.376C19.4139 17.448 19.4899 17.536 19.5459 17.64C19.6019 17.736 19.6299 17.844 19.6299 17.964C19.6299 18.172 19.5619 18.356 19.4259 18.516C19.2899 18.668 19.1179 18.764 18.9099 18.804C18.8939 18.804 18.8739 18.808 18.8499 18.816C18.8259 18.816 18.8059 18.816 18.7899 18.816H18.7779C18.7619 18.824 18.7379 18.828 18.7059 18.828C18.6819 18.828 18.6579 18.828 18.6339 18.828C18.6179 18.828 18.5979 18.832 18.5739 18.84C18.5579 18.84 18.5419 18.84 18.5259 18.84C18.5179 18.84 18.5139 18.844 18.5139 18.852C18.5139 18.852 18.5019 18.852 18.4779 18.852C18.3899 18.868 18.2819 18.9 18.1539 18.948C18.0339 18.988 17.9139 19.028 17.7939 19.068L17.8059 19.056C17.7179 19.096 17.6179 19.148 17.5059 19.212C17.4019 19.268 17.2939 19.344 17.1819 19.44C17.0699 19.528 16.9579 19.636 16.8459 19.764C16.7419 19.892 16.6459 20.052 16.5579 20.244C16.4539 20.436 16.3739 20.66 16.3179 20.916C16.2619 21.172 16.2179 21.452 16.1859 21.756C16.1619 21.924 16.1499 22.068 16.1499 22.188C16.1499 22.34 16.1659 22.496 16.1979 22.656C16.2139 22.776 16.2459 22.892 16.2939 23.004C16.3419 23.116 16.4139 23.196 16.5099 23.244C16.5659 23.268 16.6299 23.28 16.7019 23.28C16.7739 23.28 16.8499 23.272 16.9299 23.256C17.0099 23.232 17.0939 23.204 17.1819 23.172C17.3259 23.124 17.4579 23.068 17.5779 23.004C17.7059 22.932 17.8219 22.864 17.9259 22.8C18.1179 22.672 18.2979 22.524 18.4659 22.356C18.6419 22.188 18.8059 22.024 18.9579 21.864C19.1419 21.664 19.2899 21.504 19.4019 21.384C19.5139 21.264 19.5939 21.152 19.6419 21.048C19.7059 20.92 19.7819 20.776 19.8699 20.616C19.9579 20.456 20.0739 20.316 20.2179 20.196C20.3699 20.076 20.5539 19.996 20.7699 19.956C20.9939 19.916 21.2699 19.956 21.5979 20.076H21.8859C21.9339 20.076 21.9819 20.08 22.0299 20.088C22.0859 20.088 22.1419 20.088 22.1979 20.088C22.3259 20.088 22.4619 20.088 22.6059 20.088C22.7499 20.088 22.9019 20.092 23.0619 20.1C23.2459 20.108 23.4699 20.116 23.7339 20.124C24.0059 20.124 24.2619 20.124 24.5019 20.124C25.1259 20.116 25.6659 20.088 26.1219 20.04C26.5859 19.984 26.9979 19.924 27.3579 19.86C27.7179 19.796 28.0619 19.728 28.3899 19.656C28.7259 19.584 29.0539 19.504 29.3739 19.416C29.6139 19.344 29.8579 19.268 30.1059 19.188C30.3619 19.108 30.6099 19.028 30.8499 18.948C31.0899 18.86 31.3139 18.78 31.5219 18.708C31.7379 18.628 31.9259 18.556 32.0859 18.492C32.3659 18.38 32.6019 18.284 32.7939 18.204C32.9859 18.116 33.1619 18.032 33.3219 17.952C33.3379 17.944 33.3619 17.932 33.3939 17.916C33.4259 17.9 33.4579 17.884 33.4899 17.868C33.6259 17.804 33.7419 17.748 33.8379 17.7C33.9419 17.644 34.0299 17.596 34.1019 17.556H34.1139C34.1939 17.516 34.2659 17.48 34.3299 17.448C34.3939 17.408 34.4699 17.368 34.5579 17.328L34.5699 17.316ZM62.8475 17.496C62.9115 17.584 62.9355 17.692 62.9195 17.82C62.9115 17.948 62.8715 18.084 62.7995 18.228C62.7275 18.372 62.6235 18.52 62.4875 18.672C62.3595 18.816 62.2075 18.952 62.0315 19.08C62.0155 19.096 61.9915 19.112 61.9595 19.128C61.9355 19.144 61.9115 19.16 61.8875 19.176L61.8995 19.164C61.8835 19.18 61.8715 19.188 61.8635 19.188L61.8515 19.2C61.7795 19.248 61.6915 19.304 61.5875 19.368C61.4915 19.432 61.3635 19.516 61.2035 19.62C60.9715 19.764 60.6475 19.964 60.2315 20.22C59.8155 20.476 59.3395 20.76 58.8035 21.072C58.4995 21.248 58.1515 21.44 57.7595 21.648C57.3755 21.856 56.9475 22.076 56.4755 22.308C56.0275 22.524 55.5035 22.76 54.9035 23.016C54.3035 23.272 53.6635 23.508 52.9835 23.724C52.6155 23.836 52.2395 23.944 51.8555 24.048C51.4715 24.152 51.0715 24.24 50.6555 24.312C50.3515 24.36 50.0275 24.4 49.6835 24.432C49.3475 24.464 48.9955 24.48 48.6275 24.48C48.5155 24.48 48.3875 24.48 48.2435 24.48C48.1075 24.48 47.9835 24.472 47.8715 24.456C47.3675 24.424 46.8435 24.336 46.2995 24.192C45.7635 24.056 45.2475 23.864 44.7515 23.616C44.2315 23.344 43.7315 23.004 43.2515 22.596C42.7795 22.18 42.3595 21.704 41.9915 21.168C41.6555 20.664 41.3755 20.164 41.1515 19.668C41.1035 19.556 41.0555 19.44 41.0075 19.32C40.9675 19.2 40.9275 19.084 40.8875 18.972C40.5675 19.18 40.2595 19.38 39.9635 19.572C39.6675 19.756 39.3795 19.94 39.0995 20.124C38.3955 20.58 37.7515 21.004 37.1675 21.396C36.5835 21.78 36.0395 22.152 35.5355 22.512C35.2795 22.688 35.0395 22.856 34.8155 23.016C34.5995 23.176 34.3875 23.336 34.1795 23.496C34.1395 23.512 34.0955 23.54 34.0475 23.58C34.0075 23.612 33.9635 23.648 33.9155 23.688C33.8675 23.72 33.8195 23.752 33.7715 23.784C33.7315 23.816 33.6555 23.876 33.5435 23.964C33.5275 23.98 33.5195 23.988 33.5195 23.988C33.5035 24.028 33.4555 24.1 33.3755 24.204C33.2955 24.308 33.1915 24.368 33.0635 24.384C33.0315 24.432 33.0035 24.476 32.9795 24.516C32.9635 24.564 32.9515 24.592 32.9435 24.6L32.2955 23.94L32.3075 23.712L32.3195 23.304C32.3275 23.304 32.3395 23.3 32.3555 23.292C32.3715 23.292 32.3955 23.284 32.4275 23.268L32.5115 23.172C32.5515 23.06 32.5955 22.956 32.6435 22.86C32.6915 22.764 32.7355 22.668 32.7755 22.572V22.584C32.8875 22.328 32.9955 22.08 33.0995 21.84C33.2035 21.6 33.3075 21.364 33.4115 21.132L33.3995 21.144C33.4475 21.024 33.4995 20.904 33.5555 20.784C33.6115 20.664 33.6635 20.548 33.7115 20.436H33.6995C33.7555 20.3 33.8115 20.172 33.8675 20.052C33.9315 19.924 33.9915 19.796 34.0475 19.668C34.1115 19.532 34.1595 19.424 34.1915 19.344C34.2235 19.256 34.2595 19.168 34.2995 19.08C34.3155 19.048 34.3235 19.028 34.3235 19.02C34.3315 19.004 34.3355 18.992 34.3355 18.984C34.3435 18.968 34.3515 18.948 34.3595 18.924C34.3755 18.892 34.3955 18.844 34.4195 18.78C34.3715 18.756 34.3075 18.724 34.2275 18.684C34.1555 18.636 34.1115 18.592 34.0955 18.552C34.0475 18.456 34.0355 18.348 34.0595 18.228C34.0835 18.108 34.1355 17.984 34.2155 17.856C34.2955 17.72 34.3955 17.584 34.5155 17.448C34.6435 17.312 34.7795 17.184 34.9235 17.064C34.9555 17.04 34.9915 17.012 35.0315 16.98C35.0715 16.94 35.1035 16.912 35.1275 16.896C35.1435 16.88 35.1715 16.86 35.2115 16.836C35.2515 16.804 35.2915 16.772 35.3315 16.74C35.6515 16.02 36.0155 15.204 36.4235 14.292C36.8315 13.38 37.3195 12.316 37.8875 11.1C37.9115 11.044 37.9395 10.98 37.9715 10.908C38.0115 10.828 38.0435 10.76 38.0675 10.704C38.2355 10.32 38.4035 9.944 38.5715 9.576C38.7475 9.2 38.9115 8.848 39.0635 8.52C39.1755 8.288 39.2795 8.064 39.3755 7.848C39.4795 7.624 39.5835 7.4 39.6875 7.176C40.0155 6.464 40.3235 5.796 40.6115 5.172C40.8995 4.54 41.1595 3.98 41.3915 3.492C41.3995 3.46 41.4155 3.428 41.4395 3.396C41.4315 3.404 41.4275 3.404 41.4275 3.396C41.4355 3.38 41.4435 3.368 41.4515 3.36C41.4915 3.272 41.5275 3.192 41.5595 3.12C41.5995 3.048 41.6395 2.968 41.6795 2.88C41.7435 2.744 41.8035 2.612 41.8595 2.484C41.9155 2.356 41.9755 2.232 42.0395 2.112V2.124C42.0875 2.012 42.1355 1.9 42.1835 1.788C42.2395 1.676 42.2955 1.568 42.3515 1.464L42.4235 1.32C42.4395 1.296 42.4595 1.26 42.4835 1.212C42.5155 1.164 42.5395 1.124 42.5555 1.092L42.5795 1.044L42.5915 1.032C42.6075 0.999999 42.6235 0.971999 42.6395 0.947999C42.6635 0.923998 42.6835 0.895998 42.6995 0.863999V0.887999L42.7235 0.911998C42.7555 0.839999 42.7835 0.787999 42.8075 0.756C42.8395 0.715999 42.8715 0.683999 42.9035 0.659999C42.9595 0.619999 43.0355 0.579999 43.1315 0.539999C43.2355 0.5 43.3435 0.483999 43.4555 0.491999C43.6155 0.507998 43.7475 0.571999 43.8515 0.683999C43.9635 0.787999 44.0355 0.879999 44.0675 0.959999C44.1155 1.072 44.1435 1.176 44.1515 1.272C44.1675 1.36 44.1755 1.436 44.1755 1.5C44.1835 1.612 44.1835 1.732 44.1755 1.86C44.1675 1.98 44.1555 2.084 44.1395 2.172C44.1395 2.18 44.1355 2.192 44.1275 2.208C44.1275 2.216 44.1275 2.224 44.1275 2.232V2.352C44.1035 2.552 44.0595 2.792 43.9955 3.072C43.9315 3.344 43.8595 3.636 43.7795 3.948C43.5475 4.828 43.2955 5.644 43.0235 6.396C42.7595 7.14 42.4995 7.836 42.2435 8.484C41.9795 9.116 41.7235 9.704 41.4755 10.248C41.2275 10.784 40.9875 11.28 40.7555 11.736C40.2835 12.648 39.8475 13.416 39.4475 14.04C39.0555 14.656 38.7075 15.172 38.4035 15.588C38.1155 15.988 37.8555 16.32 37.6235 16.584C37.3995 16.848 37.1955 17.08 37.0115 17.28L36.9995 17.292C36.8875 17.412 36.7795 17.52 36.6755 17.616C36.5795 17.712 36.4755 17.812 36.3635 17.916C36.1395 18.412 35.9515 18.828 35.7995 19.164C35.6475 19.492 35.5075 19.792 35.3795 20.064C35.2595 20.328 35.1395 20.588 35.0195 20.844C34.8995 21.092 34.7555 21.388 34.5875 21.732C34.7955 21.588 35.0035 21.444 35.2115 21.3C35.4275 21.156 35.6595 21 35.9075 20.832C36.3555 20.528 36.8355 20.208 37.3475 19.872C37.8675 19.528 38.4395 19.152 39.0635 18.744C39.1835 18.672 39.3035 18.6 39.4235 18.528C39.5435 18.448 39.6675 18.364 39.7955 18.276L39.9035 18.204C39.9195 18.188 39.9395 18.176 39.9635 18.168C39.9875 18.16 40.0075 18.148 40.0235 18.132C40.1115 18.076 40.1955 18.024 40.2755 17.976C40.3635 17.92 40.4515 17.864 40.5395 17.808L40.5035 17.844C40.5115 17.836 40.5195 17.832 40.5275 17.832C40.5355 17.832 40.5435 17.828 40.5515 17.82C40.5675 17.804 40.5795 17.788 40.5875 17.772C40.6035 17.748 40.6275 17.736 40.6595 17.736C40.6835 17.72 40.7195 17.7 40.7675 17.676C40.8155 17.652 40.8515 17.632 40.8755 17.616L40.8995 17.748V17.616C40.9475 17.608 40.9875 17.6 41.0195 17.592C41.0515 17.584 41.0795 17.572 41.1035 17.556C41.1835 17.524 41.2515 17.504 41.3075 17.496C41.3635 17.48 41.4155 17.488 41.4635 17.52C41.5195 17.544 41.5755 17.6 41.6315 17.688C41.6875 17.768 41.7595 17.888 41.8475 18.048L41.8595 18.096L41.8715 18.156L41.8955 18.24C41.9995 18.608 42.1435 18.988 42.3275 19.38C42.5115 19.772 42.7315 20.148 42.9875 20.508C43.2435 20.868 43.5275 21.196 43.8395 21.492C44.1515 21.788 44.4875 22.044 44.8475 22.26C45.1835 22.468 45.5355 22.64 45.9035 22.776C46.2795 22.904 46.6595 23.004 47.0435 23.076H47.0315C47.2875 23.116 47.5355 23.148 47.7755 23.172C48.0155 23.196 48.2475 23.208 48.4715 23.208C48.9755 23.208 49.4515 23.176 49.8995 23.112C50.3555 23.04 50.7915 22.952 51.2075 22.848C51.8315 22.696 52.4155 22.52 52.9595 22.32C53.5115 22.112 54.0275 21.9 54.5075 21.684C54.7075 21.596 54.9155 21.5 55.1315 21.396C55.3555 21.284 55.5755 21.176 55.7915 21.072C56.0075 20.96 56.2155 20.852 56.4155 20.748C56.6155 20.636 56.7955 20.536 56.9555 20.448C57.6035 20.072 58.1675 19.732 58.6475 19.428C59.1355 19.124 59.5315 18.868 59.8355 18.66C59.8515 18.644 59.8715 18.628 59.8955 18.612C59.9195 18.596 59.9395 18.58 59.9555 18.564C60.2675 18.356 60.5155 18.188 60.6995 18.06C60.8835 17.932 61.0115 17.84 61.0835 17.784C61.2595 17.664 61.4395 17.564 61.6235 17.484C61.8075 17.404 61.9755 17.348 62.1275 17.316C62.2875 17.284 62.4275 17.284 62.5475 17.316C62.6755 17.34 62.7755 17.4 62.8475 17.496ZM41.6675 5.868C41.6115 5.996 41.5555 6.124 41.4995 6.252C41.4435 6.372 41.3875 6.5 41.3315 6.636C41.2435 6.82 41.1595 7.008 41.0795 7.2C41.0075 7.392 40.9275 7.584 40.8395 7.776C40.7275 8.04 40.6115 8.308 40.4915 8.58C40.3715 8.844 40.2515 9.116 40.1315 9.396C40.0115 9.676 39.9115 9.908 39.8315 10.092C39.7595 10.268 39.6955 10.424 39.6395 10.56C39.5835 10.696 39.5275 10.828 39.4715 10.956C39.4235 11.076 39.3675 11.212 39.3035 11.364C39.2395 11.516 39.1595 11.7 39.0635 11.916C38.9675 12.132 38.8475 12.4 38.7035 12.72C38.7915 12.576 38.8635 12.452 38.9195 12.348C38.9835 12.244 39.0635 12.112 39.1595 11.952C39.4235 11.472 39.7075 10.936 40.0115 10.344C40.3155 9.752 40.6235 9.116 40.9355 8.436C41.2155 7.764 41.5075 7.024 41.8115 6.216C42.1155 5.4 42.3955 4.532 42.6515 3.612C42.5155 3.916 42.3795 4.224 42.2435 4.536C42.1075 4.848 41.9715 5.168 41.8355 5.496L41.8475 5.484C41.8315 5.516 41.8155 5.548 41.7995 5.58C41.7915 5.604 41.7795 5.632 41.7635 5.664L41.6795 5.88L41.6675 5.868ZM42.8075 0.756L42.7115 0.851998C42.7435 0.795999 42.7635 0.767999 42.7715 0.767999C42.7795 0.759999 42.7915 0.756 42.8075 0.756ZM90.3733 17.592C90.4933 17.496 90.6213 17.424 90.7573 17.376C90.8933 17.328 91.0213 17.304 91.1413 17.304C91.3813 17.304 91.5733 17.396 91.7173 17.58C91.7733 17.668 91.8053 17.768 91.8133 17.88C91.8213 17.984 91.8053 18.096 91.7653 18.216C91.7333 18.328 91.6813 18.44 91.6093 18.552C91.5373 18.664 91.4493 18.764 91.3453 18.852C91.3293 18.86 91.3093 18.876 91.2853 18.9C91.2693 18.908 91.2373 18.928 91.1893 18.96L91.1173 19.008L91.0453 19.044H91.0573C90.9453 19.108 90.8213 19.18 90.6853 19.26C90.5493 19.34 90.3893 19.444 90.2053 19.572C90.2373 19.556 90.2253 19.568 90.1693 19.608C90.1213 19.648 90.0653 19.688 90.0013 19.728C89.7853 19.872 89.5133 20.044 89.1853 20.244C88.8653 20.444 88.4973 20.672 88.0813 20.928C87.8173 21.088 87.5213 21.26 87.1933 21.444C86.8733 21.628 86.5213 21.816 86.1373 22.008C85.7613 22.192 85.3373 22.392 84.8653 22.608C84.3933 22.816 83.8813 23.012 83.3293 23.196C83.0413 23.292 82.7293 23.392 82.3933 23.496C82.0653 23.592 81.7173 23.684 81.3493 23.772C80.9893 23.852 80.6133 23.92 80.2213 23.976C79.8293 24.024 79.4253 24.052 79.0093 24.06C78.5933 24.068 78.1453 24.04 77.6653 23.976C77.1933 23.912 76.7293 23.804 76.2733 23.652C75.8013 23.492 75.3253 23.28 74.8453 23.016C74.3653 22.744 73.9213 22.428 73.5133 22.068C73.0173 21.612 72.6173 21.172 72.3133 20.748C72.0093 20.316 71.7533 19.924 71.5453 19.572C71.4573 19.436 71.3813 19.304 71.3173 19.176C71.2533 19.048 71.1893 18.92 71.1253 18.792C70.8373 18.928 70.5053 19.088 70.1293 19.272C69.7613 19.456 69.3573 19.68 68.9173 19.944C68.5573 20.16 68.1333 20.424 67.6453 20.736C67.1573 21.04 66.6453 21.364 66.1093 21.708C66.0613 21.74 66.0093 21.772 65.9533 21.804C65.8973 21.836 65.8493 21.868 65.8093 21.9C65.6573 22.004 65.4933 22.108 65.3173 22.212C65.1493 22.308 64.9813 22.412 64.8133 22.524C64.3493 22.796 63.8933 23.06 63.4453 23.316C62.9973 23.572 62.5613 23.792 62.1373 23.976C61.9053 24.072 61.6693 24.16 61.4293 24.24C61.1973 24.328 60.9773 24.392 60.7693 24.432C60.5853 24.472 60.3693 24.492 60.1213 24.492C59.9693 24.492 59.8253 24.484 59.6893 24.468C59.5533 24.452 59.4213 24.42 59.2933 24.372C59.2773 24.364 59.2613 24.356 59.2453 24.348C59.2213 24.34 59.2013 24.332 59.1853 24.324C59.1773 24.316 59.1693 24.312 59.1613 24.312C59.1533 24.312 59.1413 24.308 59.1253 24.3H59.1013L58.8973 24.192C58.7693 24.088 58.6813 23.992 58.6333 23.904L58.6453 23.916L58.6093 23.844L58.5853 23.82H58.5973C58.5493 23.708 58.5253 23.62 58.5253 23.556C58.5173 23.492 58.5133 23.428 58.5133 23.364V23.208C58.5293 23.072 58.5533 22.952 58.5853 22.848C58.6173 22.744 58.6533 22.644 58.6933 22.548L58.6813 22.56C58.8013 22.216 58.9333 21.904 59.0773 21.624C59.2133 21.36 59.3453 21.112 59.4733 20.88C59.6013 20.64 59.7213 20.424 59.8333 20.232C60.2573 19.488 60.5813 18.928 60.8053 18.552C61.0373 18.176 61.1813 17.944 61.2373 17.856C61.3173 17.736 61.4133 17.632 61.5253 17.544C61.6373 17.456 61.7493 17.392 61.8613 17.352C61.9813 17.304 62.0973 17.284 62.2093 17.292C62.3213 17.3 62.4213 17.332 62.5093 17.388V17.376C62.6133 17.44 62.6893 17.532 62.7373 17.652C62.7853 17.764 62.8093 17.884 62.8093 18.012C62.8093 18.124 62.7893 18.24 62.7493 18.36C62.7173 18.48 62.6573 18.6 62.5693 18.72L62.5933 18.696C62.5693 18.736 62.5373 18.788 62.4973 18.852C62.4573 18.916 62.4173 18.968 62.3773 19.008C62.2973 19.112 62.1853 19.268 62.0413 19.476C61.8973 19.684 61.6973 19.988 61.4413 20.388C61.4253 20.404 61.4093 20.428 61.3933 20.46C61.3853 20.484 61.3733 20.504 61.3573 20.52C61.3493 20.536 61.3413 20.548 61.3333 20.556C61.3333 20.556 61.3293 20.564 61.3213 20.58C61.3053 20.612 61.2893 20.64 61.2733 20.664C61.2573 20.68 61.2373 20.708 61.2133 20.748L61.2253 20.736C61.1453 20.856 61.0613 20.984 60.9733 21.12C60.8853 21.248 60.7973 21.392 60.7093 21.552C60.5653 21.792 60.4253 22.048 60.2893 22.32C60.2173 22.456 60.1453 22.596 60.0733 22.74C60.0093 22.876 59.9493 23.016 59.8933 23.16C59.9093 23.16 59.9253 23.164 59.9413 23.172C59.9573 23.172 59.9733 23.172 59.9893 23.172C60.1493 23.172 60.3413 23.156 60.5653 23.124C60.7973 23.092 61.0013 23.048 61.1773 22.992C61.3773 22.928 61.6013 22.84 61.8493 22.728C62.1053 22.616 62.3653 22.496 62.6293 22.368C62.9013 22.232 63.1733 22.092 63.4453 21.948C63.7173 21.796 63.9733 21.648 64.2133 21.504C64.4853 21.344 64.7533 21.18 65.0173 21.012C65.2813 20.836 65.5293 20.676 65.7613 20.532C65.8493 20.476 65.9373 20.42 66.0253 20.364C66.1213 20.308 66.2093 20.252 66.2893 20.196C66.3213 20.18 66.3573 20.16 66.3973 20.136C66.4373 20.112 66.4733 20.088 66.5053 20.064C66.5693 20.024 66.6333 19.984 66.6973 19.944C66.7693 19.904 66.8373 19.864 66.9013 19.824H66.8893C67.2733 19.584 67.6333 19.364 67.9693 19.164C68.3133 18.956 68.6293 18.768 68.9173 18.6C69.1813 18.44 69.4453 18.284 69.7093 18.132C69.9813 17.972 70.2253 17.836 70.4413 17.724L70.7893 17.556L71.1253 17.424H71.1133L71.0053 17.448L71.0773 17.412C71.0933 17.404 71.1173 17.392 71.1493 17.376C71.1813 17.352 71.2253 17.312 71.2813 17.256L72.0613 17.676C72.0693 17.692 72.0813 17.724 72.0973 17.772C72.1213 17.82 72.1373 17.852 72.1453 17.868V17.856C72.1613 17.896 72.1733 17.924 72.1813 17.94C72.1893 17.956 72.1973 17.972 72.2053 17.988C72.3893 18.316 72.5813 18.628 72.7813 18.924C72.9813 19.22 73.2253 19.548 73.5133 19.908H73.5013C73.6293 20.06 73.7693 20.22 73.9213 20.388C74.0813 20.556 74.2653 20.74 74.4733 20.94H74.4613C74.6613 21.124 74.8813 21.308 75.1213 21.492C75.3693 21.676 75.6573 21.852 75.9853 22.02C76.4173 22.252 76.8253 22.42 77.2093 22.524C77.5933 22.628 77.9533 22.7 78.2893 22.74C78.6493 22.788 78.9693 22.812 79.2493 22.812C79.3693 22.812 79.5053 22.808 79.6573 22.8C79.8093 22.792 79.9533 22.78 80.0893 22.764C80.5613 22.7 81.0533 22.604 81.5653 22.476C82.0773 22.348 82.5813 22.2 83.0773 22.032C83.9573 21.696 84.7173 21.352 85.3573 21C86.0053 20.648 86.5453 20.344 86.9773 20.088H86.9653C87.4293 19.792 87.8133 19.536 88.1173 19.32C88.4213 19.104 88.6813 18.916 88.8973 18.756C89.1133 18.588 89.2973 18.444 89.4493 18.324C89.6093 18.204 89.7413 18.1 89.8453 18.012C89.8613 17.996 89.8733 17.984 89.8813 17.976C89.8893 17.968 89.9013 17.956 89.9173 17.94C89.9893 17.876 90.0613 17.82 90.1333 17.772C90.2053 17.716 90.2853 17.656 90.3733 17.592ZM140.389 17.34C140.469 17.42 140.513 17.532 140.521 17.676C140.537 17.812 140.513 17.968 140.449 18.144C140.393 18.312 140.305 18.492 140.185 18.684C140.065 18.876 139.917 19.064 139.741 19.248C139.653 19.336 139.537 19.448 139.393 19.584C139.257 19.72 139.129 19.844 139.009 19.956C139.001 19.964 138.985 19.98 138.961 20.004C138.945 20.02 138.929 20.032 138.913 20.04L138.661 20.292C138.533 20.42 138.373 20.576 138.181 20.76C137.989 20.936 137.757 21.144 137.485 21.384C137.461 21.408 137.429 21.44 137.389 21.48C137.357 21.512 137.333 21.532 137.317 21.54L137.329 21.528C137.305 21.544 137.281 21.564 137.257 21.588C137.241 21.612 137.221 21.632 137.197 21.648L137.209 21.636C137.017 21.804 136.797 21.996 136.549 22.212C136.309 22.42 136.037 22.636 135.733 22.86C135.557 22.996 135.353 23.144 135.121 23.304C134.897 23.456 134.653 23.612 134.389 23.772C134.125 23.924 133.829 24.072 133.501 24.216C133.181 24.368 132.837 24.48 132.469 24.552C132.349 24.576 132.193 24.588 132.001 24.588C131.841 24.588 131.673 24.564 131.497 24.516C131.329 24.476 131.169 24.424 131.017 24.36C130.785 24.24 130.581 24.076 130.405 23.868C130.229 23.66 130.085 23.44 129.973 23.208C129.789 22.808 129.669 22.4 129.613 21.984C129.557 21.56 129.525 21.124 129.517 20.676C129.501 20.692 129.489 20.708 129.481 20.724C129.481 20.732 129.477 20.744 129.469 20.76C129.237 21.2 128.981 21.64 128.701 22.08C128.429 22.512 128.085 22.932 127.669 23.34C127.461 23.548 127.229 23.744 126.973 23.928C126.725 24.112 126.445 24.26 126.133 24.372C125.973 24.42 125.809 24.46 125.641 24.492C125.473 24.524 125.297 24.544 125.113 24.552C124.953 24.552 124.793 24.548 124.633 24.54C124.481 24.532 124.333 24.516 124.189 24.492C123.869 24.428 123.545 24.324 123.217 24.18C122.897 24.044 122.605 23.852 122.341 23.604C122.085 23.364 121.873 23.092 121.705 22.788C121.545 22.476 121.417 22.152 121.321 21.816C121.209 21.408 121.137 21.02 121.105 20.652C121.081 20.284 121.073 19.932 121.081 19.596C121.089 19.46 121.093 19.328 121.093 19.2C121.101 19.072 121.109 18.948 121.117 18.828C120.989 19.052 120.853 19.284 120.709 19.524C120.573 19.756 120.437 19.988 120.301 20.22C119.965 20.756 119.625 21.268 119.281 21.756C118.937 22.244 118.561 22.7 118.153 23.124C117.945 23.332 117.721 23.536 117.481 23.736C117.241 23.928 116.977 24.092 116.689 24.228C116.345 24.388 115.989 24.464 115.621 24.456C115.477 24.456 115.329 24.444 115.177 24.42C115.033 24.404 114.889 24.376 114.745 24.336H114.757C114.429 24.264 114.125 24.136 113.845 23.952C113.565 23.76 113.333 23.528 113.149 23.256H113.161C112.977 22.992 112.837 22.728 112.741 22.464C112.645 22.2 112.577 21.948 112.537 21.708C112.513 21.548 112.497 21.384 112.489 21.216C112.481 21.04 112.477 20.864 112.477 20.688C112.477 20.352 112.493 20.036 112.525 19.74C112.557 19.436 112.597 19.148 112.645 18.876C112.797 18.052 112.989 17.288 113.221 16.584C113.453 15.872 113.693 15.204 113.941 14.58C114.181 13.972 114.425 13.408 114.673 12.888C114.921 12.36 115.157 11.868 115.381 11.412C115.845 10.516 116.269 9.76 116.653 9.144C117.045 8.52 117.389 8.004 117.685 7.596C118.013 7.156 118.265 6.828 118.441 6.612C118.617 6.396 118.737 6.252 118.801 6.18C118.945 6.02 119.097 5.884 119.257 5.772C119.425 5.652 119.585 5.552 119.737 5.472C119.937 5.384 120.117 5.34 120.277 5.34C120.525 5.34 120.705 5.424 120.817 5.592H120.805C120.917 5.752 120.945 5.908 120.889 6.06C120.841 6.212 120.749 6.376 120.613 6.552C120.541 6.64 120.449 6.744 120.337 6.864C120.233 6.984 120.121 7.112 120.001 7.248C119.977 7.28 119.953 7.308 119.929 7.332C119.913 7.356 119.889 7.388 119.857 7.428L119.725 7.56C119.661 7.624 119.593 7.7 119.521 7.788C119.449 7.876 119.365 7.98 119.269 8.1V8.088C119.077 8.328 118.825 8.66 118.513 9.084C118.209 9.5 117.845 10.056 117.421 10.752C117.221 11.064 116.997 11.452 116.749 11.916C116.501 12.372 116.241 12.884 115.969 13.452C115.713 13.996 115.441 14.616 115.153 15.312C114.865 16 114.605 16.72 114.373 17.472C114.261 17.856 114.153 18.268 114.049 18.708C113.945 19.14 113.869 19.596 113.821 20.076C113.797 20.316 113.785 20.548 113.785 20.772C113.785 20.868 113.789 20.98 113.797 21.108C113.805 21.228 113.817 21.348 113.833 21.468C113.865 21.692 113.913 21.912 113.977 22.128C114.049 22.336 114.161 22.52 114.313 22.68C114.449 22.824 114.625 22.94 114.841 23.028C115.057 23.116 115.293 23.168 115.549 23.184C115.757 23.216 115.969 23.184 116.185 23.088C116.401 22.992 116.609 22.864 116.809 22.704C117.033 22.512 117.249 22.3 117.457 22.068C117.673 21.828 117.885 21.58 118.093 21.324C118.309 21.06 118.513 20.784 118.705 20.496C118.905 20.208 119.097 19.912 119.281 19.608C119.841 18.712 120.353 17.812 120.817 16.908C121.289 16.004 121.709 15.164 122.077 14.388C122.293 13.684 122.513 13.012 122.737 12.372C122.969 11.732 123.213 11.1 123.469 10.476C123.621 10.116 123.785 9.736 123.961 9.336C124.137 8.936 124.325 8.52 124.525 8.088C124.533 8.072 124.537 8.056 124.537 8.04C124.545 8.024 124.553 8.008 124.561 7.992C124.577 7.96 124.589 7.932 124.597 7.908C124.605 7.892 124.613 7.876 124.621 7.86C124.629 7.836 124.641 7.816 124.657 7.8C124.649 7.8 124.649 7.796 124.657 7.788C124.665 7.772 124.673 7.752 124.681 7.728C124.689 7.704 124.701 7.68 124.717 7.656C124.741 7.632 124.753 7.616 124.753 7.608C124.777 7.568 124.797 7.528 124.813 7.488C124.829 7.44 124.845 7.392 124.861 7.344L124.849 7.356C124.849 7.34 124.849 7.312 124.849 7.272C124.857 7.232 124.865 7.188 124.873 7.14C124.881 7.084 124.885 7.024 124.885 6.96C124.933 6.984 125.001 7.012 125.089 7.044C125.177 7.068 125.265 7.1 125.353 7.14C125.441 7.172 125.521 7.208 125.593 7.248C125.665 7.28 125.717 7.308 125.749 7.332C125.885 7.452 125.973 7.584 126.013 7.728C126.061 7.864 126.041 8.044 125.953 8.268C125.953 8.276 125.949 8.28 125.941 8.28C125.941 8.28 125.941 8.284 125.941 8.292V8.304L125.749 8.796C125.645 9.06 125.533 9.336 125.413 9.624C125.293 9.912 125.169 10.204 125.041 10.5C125.025 10.54 125.009 10.58 124.993 10.62C124.977 10.66 124.961 10.7 124.945 10.74C124.777 11.148 124.593 11.576 124.393 12.024C124.201 12.472 124.001 12.928 123.793 13.392C123.681 13.76 123.569 14.128 123.457 14.496C123.353 14.864 123.257 15.228 123.169 15.588C123.073 15.964 122.981 16.364 122.893 16.788C122.805 17.212 122.729 17.688 122.665 18.216C122.625 18.464 122.593 18.712 122.569 18.96C122.553 19.2 122.545 19.448 122.545 19.704C122.537 19.96 122.541 20.232 122.557 20.52C122.581 20.8 122.625 21.068 122.689 21.324C122.761 21.548 122.865 21.796 123.001 22.068C123.145 22.332 123.321 22.54 123.529 22.692C123.721 22.836 123.945 22.948 124.201 23.028C124.465 23.1 124.741 23.136 125.029 23.136C125.069 23.136 125.121 23.136 125.185 23.136C125.257 23.128 125.321 23.12 125.377 23.112C125.585 23.08 125.785 23.012 125.977 22.908C126.177 22.804 126.357 22.684 126.517 22.548C126.677 22.404 126.841 22.236 127.009 22.044C127.177 21.852 127.325 21.676 127.453 21.516C127.573 21.348 127.693 21.168 127.813 20.976C127.933 20.784 128.045 20.592 128.149 20.4C128.261 20.208 128.365 20.02 128.461 19.836C128.557 19.644 128.645 19.468 128.725 19.308C129.005 18.676 129.253 18.052 129.469 17.436C129.693 16.812 129.893 16.216 130.069 15.648C130.109 15.416 130.153 15.192 130.201 14.976C130.257 14.752 130.313 14.524 130.369 14.292C130.385 14.244 130.393 14.2 130.393 14.16C130.393 14.112 130.401 14.064 130.417 14.016C130.425 13.976 130.433 13.936 130.441 13.896C130.457 13.856 130.469 13.816 130.477 13.776C130.549 13.464 130.633 13.124 130.729 12.756C130.825 12.388 130.917 12.036 131.005 11.7L131.077 11.436C131.085 11.42 131.089 11.4 131.089 11.376C131.089 11.336 131.089 11.288 131.089 11.232C131.097 11.176 131.105 11.128 131.113 11.088V10.824C131.257 10.736 131.409 10.656 131.569 10.584C131.737 10.504 131.881 10.488 132.001 10.536C132.121 10.584 132.205 10.728 132.253 10.968C132.301 11.208 132.277 11.596 132.181 12.132C132.149 12.316 132.109 12.504 132.061 12.696C132.021 12.88 131.981 13.064 131.941 13.248C131.837 13.704 131.721 14.184 131.593 14.688C131.465 15.192 131.333 15.684 131.197 16.164L131.209 16.14C131.081 16.828 130.977 17.476 130.897 18.084C130.825 18.692 130.781 19.272 130.765 19.824C130.765 19.872 130.761 19.92 130.753 19.968C130.753 20.008 130.753 20.048 130.753 20.088V20.316C130.753 20.58 130.765 20.852 130.789 21.132C130.813 21.412 130.853 21.684 130.909 21.948C130.973 22.212 131.057 22.464 131.161 22.704C131.273 22.936 131.405 23.096 131.557 23.184C131.621 23.224 131.685 23.248 131.749 23.256C131.821 23.264 131.897 23.268 131.977 23.268C132.089 23.268 132.201 23.256 132.313 23.232C132.433 23.208 132.545 23.176 132.649 23.136H132.637C132.837 23.056 133.037 22.968 133.237 22.872C133.437 22.768 133.617 22.664 133.777 22.56C134.113 22.328 134.425 22.1 134.713 21.876C135.001 21.652 135.241 21.46 135.433 21.3C135.769 20.996 136.061 20.724 136.309 20.484C136.565 20.236 136.785 20.02 136.969 19.836C137.009 19.796 137.049 19.756 137.089 19.716C137.129 19.668 137.169 19.624 137.209 19.584C137.321 19.472 137.437 19.352 137.557 19.224C137.685 19.088 137.813 18.952 137.941 18.816C138.053 18.704 138.161 18.588 138.265 18.468C138.377 18.348 138.481 18.236 138.577 18.132C138.737 17.964 138.905 17.816 139.081 17.688C139.265 17.56 139.437 17.456 139.597 17.376C139.765 17.296 139.917 17.252 140.053 17.244C140.189 17.236 140.301 17.268 140.389 17.34ZM162.68 17.556C162.776 17.764 162.768 17.976 162.656 18.192C162.544 18.4 162.38 18.56 162.164 18.672C162.116 18.696 162.04 18.716 161.936 18.732C161.928 18.732 161.924 18.736 161.924 18.744C161.924 18.744 161.92 18.744 161.912 18.744C161.888 18.752 161.848 18.764 161.792 18.78C161.744 18.788 161.672 18.808 161.576 18.84C161.488 18.872 161.368 18.916 161.216 18.972C161.072 19.028 160.888 19.096 160.664 19.176C160.312 19.304 159.864 19.472 159.32 19.68C158.784 19.88 158.104 20.132 157.28 20.436C156.456 20.74 155.48 21.096 154.352 21.504C153.224 21.904 151.888 22.34 150.344 22.812C148.776 23.284 147.34 23.656 146.036 23.928C144.732 24.192 143.532 24.336 142.436 24.36C141.876 24.368 141.34 24.328 140.828 24.24C140.316 24.16 139.844 24 139.412 23.76C138.948 23.488 138.596 23.152 138.356 22.752C138.244 22.552 138.152 22.344 138.08 22.128C138.016 21.912 137.976 21.72 137.96 21.552C137.936 21.192 137.948 20.864 137.996 20.568C138.052 20.272 138.108 20.004 138.164 19.764C138.252 19.484 138.32 19.264 138.368 19.104C138.424 18.936 138.476 18.796 138.524 18.684C138.612 18.468 138.696 18.28 138.776 18.12C138.864 17.952 138.928 17.836 138.968 17.772C139.032 17.668 139.112 17.58 139.208 17.508C139.304 17.436 139.404 17.384 139.508 17.352C139.612 17.32 139.716 17.312 139.82 17.328C139.932 17.344 140.036 17.38 140.132 17.436C140.292 17.556 140.396 17.72 140.444 17.928C140.492 18.136 140.468 18.332 140.372 18.516V18.504C140.332 18.6 140.308 18.652 140.3 18.66C140.292 18.668 140.284 18.68 140.276 18.696C140.252 18.736 140.22 18.784 140.18 18.84C140.14 18.896 140.092 18.968 140.036 19.056C139.996 19.112 139.952 19.188 139.904 19.284C139.856 19.38 139.8 19.496 139.736 19.632V19.62C139.672 19.764 139.604 19.924 139.532 20.1C139.468 20.276 139.412 20.472 139.364 20.688H139.376C139.352 20.8 139.332 20.916 139.316 21.036C139.3 21.156 139.292 21.28 139.292 21.408C139.3 21.536 139.316 21.664 139.34 21.792C139.364 21.912 139.408 22.024 139.472 22.128C139.536 22.24 139.628 22.352 139.748 22.464C139.868 22.568 140.008 22.664 140.168 22.752C140.536 22.936 140.956 23.052 141.428 23.1C141.772 23.148 142.128 23.172 142.496 23.172C142.872 23.172 143.288 23.148 143.744 23.1C144.2 23.052 144.668 22.992 145.148 22.92C145.492 22.864 145.86 22.796 146.252 22.716C146.652 22.628 147.06 22.532 147.476 22.428C147.9 22.324 148.324 22.216 148.748 22.104C149.18 21.984 149.6 21.864 150.008 21.744C150.64 21.552 151.26 21.352 151.868 21.144C152.484 20.936 153.068 20.732 153.62 20.532C154.18 20.332 154.696 20.144 155.168 19.968C155.648 19.784 156.068 19.62 156.428 19.476C157.132 19.196 157.76 18.94 158.312 18.708C158.864 18.468 159.3 18.276 159.62 18.132H159.608C160.008 17.948 160.312 17.804 160.52 17.7C160.728 17.588 160.896 17.5 161.024 17.436C161.12 17.388 161.208 17.348 161.288 17.316C161.368 17.276 161.456 17.236 161.552 17.196C161.784 17.108 162.008 17.1 162.224 17.172C162.44 17.244 162.592 17.372 162.68 17.556ZM144.164 11.724C144.092 11.732 144.02 11.74 143.948 11.748C143.876 11.756 143.808 11.764 143.744 11.772C143.696 11.78 143.648 11.788 143.6 11.796C143.552 11.796 143.508 11.8 143.468 11.808C143.02 11.864 142.644 11.908 142.34 11.94C142.036 11.964 141.78 11.976 141.572 11.976C141.188 11.976 140.92 11.916 140.768 11.796C140.624 11.676 140.544 11.488 140.528 11.232C140.512 11 140.564 10.804 140.684 10.644C140.804 10.484 140.944 10.404 141.104 10.404C141.12 10.404 141.14 10.404 141.164 10.404C141.196 10.404 141.236 10.412 141.284 10.428L141.272 10.416C141.328 10.432 141.44 10.448 141.608 10.464C141.776 10.48 142.068 10.488 142.484 10.488C142.828 10.488 143.264 10.48 143.792 10.464C144.32 10.448 144.984 10.416 145.784 10.368C146.4 10.328 146.904 10.292 147.296 10.26C147.696 10.22 148.016 10.184 148.256 10.152C148.496 10.112 148.672 10.08 148.784 10.056C148.896 10.024 148.98 9.996 149.036 9.972C149.076 9.956 149.108 9.948 149.132 9.948C149.164 9.94 149.2 9.932 149.24 9.924C149.32 9.892 149.408 9.868 149.504 9.852C149.6 9.828 149.688 9.828 149.768 9.852C149.856 9.876 149.928 9.932 149.984 10.02C150.048 10.1 150.088 10.232 150.104 10.416C150.112 10.616 150.064 10.776 149.96 10.896C149.864 11.008 149.708 11.1 149.492 11.172C149.284 11.244 149.02 11.296 148.7 11.328C148.38 11.36 148.004 11.392 147.572 11.424H147.584C147.536 11.432 147.484 11.436 147.428 11.436C147.372 11.436 147.316 11.44 147.26 11.448C146.852 11.48 146.388 11.516 145.868 11.556C145.356 11.596 144.788 11.652 144.164 11.724ZM179.886 17.256C180.166 17.256 180.362 17.348 180.474 17.532L180.486 17.52C180.542 17.616 180.566 17.724 180.558 17.844C180.55 17.964 180.51 18.088 180.438 18.216C180.366 18.336 180.266 18.46 180.138 18.588C180.018 18.708 179.874 18.816 179.706 18.912C179.65 18.944 179.586 18.98 179.514 19.02C179.45 19.052 179.37 19.092 179.274 19.14C179.234 19.156 179.19 19.176 179.142 19.2C179.102 19.224 179.054 19.252 178.998 19.284C178.806 19.372 178.546 19.488 178.218 19.632C177.898 19.776 177.478 19.96 176.958 20.184C176.438 20.408 175.794 20.672 175.026 20.976C174.266 21.28 173.342 21.62 172.254 21.996C171.726 22.18 171.138 22.376 170.49 22.584C169.842 22.784 169.162 22.988 168.45 23.196C168.09 23.3 167.714 23.404 167.322 23.508C166.938 23.612 166.538 23.716 166.122 23.82C165.69 23.924 165.234 24.028 164.754 24.132C164.282 24.236 163.83 24.324 163.398 24.396C163.31 24.412 163.222 24.42 163.134 24.42C163.054 24.428 162.97 24.44 162.882 24.456C162.858 24.464 162.83 24.468 162.798 24.468C162.774 24.476 162.738 24.48 162.69 24.48C162.674 24.48 162.654 24.48 162.63 24.48C162.614 24.488 162.598 24.492 162.582 24.492H162.342C162.326 24.492 162.31 24.488 162.294 24.48C162.286 24.48 162.27 24.48 162.246 24.48C162.182 24.48 162.122 24.476 162.066 24.468C162.018 24.468 161.95 24.452 161.862 24.42C161.654 24.276 161.502 24.14 161.406 24.012C161.31 23.892 161.234 23.772 161.178 23.652C161.13 23.532 161.09 23.416 161.058 23.304C161.026 23.184 161.002 23.072 160.986 22.968C160.97 22.84 160.958 22.712 160.95 22.584C160.942 22.456 160.938 22.316 160.938 22.164C160.938 21.876 160.95 21.612 160.974 21.372C160.998 21.124 161.026 20.888 161.058 20.664C161.09 20.432 161.118 20.248 161.142 20.112C161.166 19.968 161.186 19.844 161.202 19.74C161.226 19.628 161.25 19.516 161.274 19.404C161.306 19.284 161.342 19.132 161.382 18.948C161.23 18.948 161.11 18.92 161.022 18.864C160.934 18.808 160.866 18.732 160.818 18.636C160.73 18.428 160.754 18.2 160.89 17.952C161.034 17.704 161.234 17.476 161.49 17.268L161.478 17.292C161.51 17.26 161.55 17.228 161.598 17.196C161.598 17.196 161.606 17.192 161.622 17.184C161.63 17.184 161.634 17.18 161.634 17.172C161.658 17.156 161.682 17.144 161.706 17.136C161.738 17.12 161.778 17.092 161.826 17.052C161.834 17.052 161.842 17.048 161.85 17.04C162.09 16.168 162.31 15.404 162.51 14.748C162.71 14.084 162.902 13.476 163.086 12.924C163.27 12.364 163.454 11.816 163.638 11.28C163.83 10.744 164.046 10.172 164.286 9.564C164.526 8.964 164.814 8.276 165.15 7.5C165.494 6.724 165.926 5.816 166.446 4.776C166.806 4.08 167.146 3.452 167.466 2.892C167.794 2.324 168.138 1.808 168.498 1.344L168.582 1.26L168.558 1.272C168.622 1.184 168.71 1.088 168.822 0.983999C168.942 0.871999 169.054 0.775999 169.158 0.695998C169.158 0.695998 169.166 0.691998 169.182 0.683999C169.19 0.683999 169.194 0.679999 169.194 0.671999C169.258 0.631999 169.322 0.599998 169.386 0.575998C169.45 0.543999 169.514 0.523999 169.578 0.515998C169.666 0.499999 169.754 0.503999 169.842 0.527999C169.938 0.543999 170.026 0.571999 170.106 0.611999C170.266 0.699999 170.378 0.799999 170.442 0.911998C170.506 1.024 170.554 1.128 170.586 1.224C170.634 1.384 170.662 1.536 170.67 1.68C170.686 1.816 170.69 1.952 170.682 2.088C170.682 2.224 170.678 2.348 170.67 2.46C170.662 2.564 170.65 2.664 170.634 2.76C170.586 3.128 170.514 3.516 170.418 3.924C170.33 4.324 170.23 4.716 170.118 5.1C170.014 5.46 169.902 5.84 169.782 6.24C169.662 6.632 169.526 7.032 169.374 7.44C168.894 8.736 168.402 9.884 167.898 10.884C167.402 11.884 166.946 12.744 166.53 13.464C166.098 14.2 165.714 14.812 165.378 15.3C165.042 15.788 164.758 16.172 164.526 16.452C164.318 16.708 164.114 16.944 163.914 17.16C163.722 17.368 163.534 17.564 163.35 17.748C163.23 17.868 163.122 17.976 163.026 18.072C162.93 18.16 162.83 18.248 162.726 18.336C162.71 18.384 162.698 18.42 162.69 18.444C162.682 18.46 162.678 18.472 162.678 18.48C162.678 18.488 162.674 18.5 162.666 18.516V18.504C162.578 18.864 162.486 19.296 162.39 19.8C162.294 20.296 162.214 20.82 162.15 21.372C162.134 21.484 162.122 21.612 162.114 21.756C162.114 21.892 162.114 22.016 162.114 22.128C162.114 22.296 162.122 22.464 162.138 22.632C162.154 22.8 162.182 22.968 162.222 23.136C162.222 23.168 162.25 23.224 162.306 23.304C162.442 23.312 162.586 23.308 162.738 23.292C162.89 23.268 163.046 23.24 163.206 23.208H163.194C163.962 23.072 164.702 22.912 165.414 22.728C166.134 22.544 166.774 22.372 167.334 22.212C167.958 22.028 168.55 21.844 169.11 21.66C169.67 21.476 170.202 21.292 170.706 21.108C171.746 20.748 172.65 20.416 173.418 20.112C174.186 19.808 174.858 19.528 175.434 19.272C176.394 18.856 177.134 18.508 177.654 18.228C178.174 17.948 178.534 17.752 178.734 17.64C178.742 17.64 178.75 17.636 178.758 17.628C178.766 17.62 178.778 17.612 178.794 17.604C178.81 17.596 178.822 17.584 178.83 17.568C178.838 17.568 178.834 17.576 178.818 17.592C179.018 17.48 179.21 17.396 179.394 17.34C179.578 17.284 179.742 17.256 179.886 17.256ZM163.818 14.796C163.778 14.916 163.754 14.984 163.746 15C163.738 15.008 163.73 15.012 163.722 15.012C163.722 15.012 163.718 15.028 163.71 15.06C163.702 15.084 163.674 15.168 163.626 15.312C163.826 15.08 164.042 14.808 164.274 14.496C164.506 14.184 164.758 13.824 165.03 13.416C165.254 13.072 165.502 12.668 165.774 12.204C166.046 11.732 166.326 11.216 166.614 10.656C166.902 10.088 167.19 9.484 167.478 8.844C167.774 8.196 168.058 7.528 168.33 6.84C168.49 6.408 168.638 5.96 168.774 5.496C168.918 5.032 169.046 4.584 169.158 4.152V4.164C169.206 3.956 169.25 3.728 169.29 3.48C169.338 3.232 169.378 2.964 169.41 2.676C169.434 2.532 169.446 2.388 169.446 2.244C169.406 2.308 169.362 2.376 169.314 2.448C169.274 2.512 169.234 2.576 169.194 2.64C169.042 2.888 168.886 3.152 168.726 3.432C168.574 3.704 168.43 3.976 168.294 4.248C167.998 4.824 167.702 5.428 167.406 6.06C167.11 6.684 166.814 7.332 166.518 8.004C166.198 8.74 165.91 9.42 165.654 10.044C165.406 10.66 165.19 11.204 165.006 11.676C164.99 11.716 164.97 11.764 164.946 11.82C164.922 11.876 164.902 11.924 164.886 11.964C164.87 12.004 164.858 12.04 164.85 12.072C164.842 12.104 164.83 12.136 164.814 12.168C164.774 12.272 164.73 12.38 164.682 12.492C164.642 12.604 164.602 12.708 164.562 12.804L164.574 12.792C164.438 13.128 164.306 13.46 164.178 13.788C164.058 14.116 163.938 14.452 163.818 14.796ZM194.182 17.604C194.222 17.7 194.238 17.804 194.23 17.916C194.222 18.02 194.19 18.128 194.134 18.24C194.086 18.352 194.018 18.46 193.93 18.564C193.842 18.66 193.738 18.748 193.618 18.828C193.586 18.844 193.554 18.864 193.522 18.888C193.498 18.904 193.462 18.928 193.414 18.96L193.366 18.984C193.35 18.992 193.334 19 193.318 19.008C193.31 19.008 193.302 19.012 193.294 19.02C193.214 19.06 193.102 19.116 192.958 19.188C192.822 19.26 192.65 19.36 192.442 19.488C192.202 19.632 191.894 19.82 191.518 20.052C191.15 20.284 190.686 20.58 190.126 20.94C189.574 21.292 188.918 21.72 188.158 22.224C187.398 22.728 186.514 23.32 185.506 24C184.954 24.368 184.382 24.772 183.79 25.212C183.198 25.652 182.554 26.136 181.858 26.664C181.258 27.128 180.59 27.644 179.854 28.212C179.126 28.788 178.394 29.364 177.658 29.94C177.626 30.068 177.594 30.2 177.562 30.336C177.53 30.472 177.494 30.608 177.454 30.744C177.254 31.392 177.026 31.996 176.77 32.556C176.506 33.116 176.198 33.596 175.846 33.996C175.662 34.204 175.466 34.388 175.258 34.548C175.05 34.708 174.83 34.836 174.598 34.932C174.374 35.02 174.146 35.092 173.914 35.148C173.674 35.204 173.454 35.236 173.254 35.244C173.142 35.244 173.034 35.24 172.93 35.232C172.818 35.224 172.718 35.212 172.63 35.196C172.47 35.164 172.322 35.104 172.186 35.016C172.042 34.928 171.938 34.788 171.874 34.596L171.886 34.608C171.814 34.44 171.786 34.288 171.802 34.152C171.818 34.024 171.846 33.904 171.886 33.792C171.926 33.688 171.966 33.596 172.006 33.516C172.046 33.436 172.086 33.364 172.126 33.3C172.262 33.092 172.406 32.892 172.558 32.7C172.71 32.516 172.854 32.34 172.99 32.172L172.966 32.196C172.982 32.18 173.002 32.156 173.026 32.124C173.042 32.1 173.058 32.08 173.074 32.064C173.346 31.768 173.646 31.464 173.974 31.152C174.294 30.848 174.642 30.536 175.018 30.216C175.25 30.008 175.49 29.796 175.738 29.58C175.986 29.372 176.286 29.14 176.638 28.884C176.694 28.604 176.746 28.34 176.794 28.092C176.834 27.852 176.874 27.604 176.914 27.348C176.978 26.9 177.038 26.448 177.094 25.992C177.15 25.536 177.198 25.12 177.238 24.744C177.246 24.688 177.254 24.624 177.262 24.552C177.27 24.488 177.278 24.428 177.286 24.372C177.294 24.316 177.298 24.26 177.298 24.204C177.306 24.156 177.314 24.108 177.322 24.06C177.338 23.948 177.35 23.832 177.358 23.712C177.374 23.592 177.39 23.476 177.406 23.364C177.462 22.884 177.51 22.448 177.55 22.056C177.598 21.656 177.65 21.288 177.706 20.952C177.786 20.496 177.87 20.076 177.958 19.692C178.054 19.308 178.146 18.996 178.234 18.756C178.322 18.532 178.41 18.336 178.498 18.168C178.594 18 178.666 17.884 178.714 17.82C178.802 17.7 178.906 17.596 179.026 17.508C179.154 17.42 179.286 17.356 179.422 17.316C179.63 17.268 179.806 17.284 179.95 17.364C180.094 17.436 180.198 17.536 180.262 17.664C180.318 17.776 180.338 17.888 180.322 18C180.306 18.112 180.278 18.232 180.238 18.36L180.202 18.432C180.178 18.472 180.15 18.524 180.118 18.588C180.086 18.644 180.054 18.696 180.022 18.744L179.998 18.768C179.966 18.808 179.93 18.856 179.89 18.912C179.858 18.96 179.822 19.028 179.782 19.116C179.718 19.244 179.642 19.416 179.554 19.632C179.466 19.848 179.378 20.136 179.29 20.496C179.202 20.848 179.11 21.312 179.014 21.888C178.918 22.464 178.81 23.188 178.69 24.06C178.65 24.316 178.614 24.58 178.582 24.852C178.566 24.988 178.546 25.124 178.522 25.26C178.506 25.396 178.486 25.54 178.462 25.692C178.43 25.9 178.398 26.112 178.366 26.328C178.342 26.552 178.31 26.776 178.27 27C178.262 27.032 178.254 27.06 178.246 27.084C178.238 27.116 178.23 27.144 178.222 27.168C178.214 27.184 178.21 27.204 178.21 27.228C178.21 27.252 178.206 27.272 178.198 27.288C178.158 27.328 178.134 27.392 178.126 27.48C178.126 27.576 178.13 27.672 178.138 27.768C178.202 27.72 178.258 27.68 178.306 27.648L178.294 27.66C178.822 27.276 179.294 26.932 179.71 26.628C180.134 26.332 180.522 26.06 180.874 25.812C180.994 25.724 181.114 25.64 181.234 25.56C181.354 25.48 181.466 25.4 181.57 25.32C181.658 25.256 181.746 25.192 181.834 25.128C181.93 25.072 182.018 25.012 182.098 24.948C182.346 24.78 182.586 24.612 182.818 24.444C182.906 24.38 183.006 24.308 183.118 24.228C183.23 24.148 183.33 24.076 183.418 24.012C183.562 23.9 183.71 23.796 183.862 23.7C184.014 23.596 184.17 23.488 184.33 23.376H184.318C184.422 23.304 184.53 23.232 184.642 23.16C184.754 23.08 184.866 23 184.978 22.92V22.932C185.802 22.356 186.526 21.852 187.15 21.42C187.782 20.988 188.338 20.604 188.818 20.268C189.322 19.924 189.762 19.62 190.138 19.356C190.514 19.084 190.818 18.86 191.05 18.684C191.226 18.564 191.382 18.452 191.518 18.348C191.662 18.244 191.786 18.156 191.89 18.084L191.914 18.072C192.074 17.944 192.218 17.836 192.346 17.748C192.474 17.66 192.61 17.572 192.754 17.484C193.01 17.324 193.266 17.244 193.522 17.244C193.794 17.244 194.014 17.364 194.182 17.604ZM175.21 32.94C175.37 32.716 175.526 32.456 175.678 32.16C175.822 31.864 175.95 31.552 176.062 31.224C175.822 31.424 175.602 31.608 175.402 31.776C175.194 31.944 175.002 32.108 174.826 32.268C174.81 32.284 174.794 32.3 174.778 32.316C174.754 32.34 174.734 32.356 174.718 32.364C174.462 32.596 174.218 32.824 173.986 33.048C173.754 33.272 173.522 33.52 173.29 33.792C173.29 33.792 173.286 33.8 173.278 33.816C173.254 33.856 173.23 33.896 173.206 33.936C173.174 33.976 173.15 34.016 173.134 34.056C173.366 34.072 173.594 34.052 173.818 33.996C174.034 33.924 174.274 33.796 174.538 33.612C174.802 33.428 175.026 33.204 175.21 32.94ZM178.21 27.288L178.198 27.312V27.288H178.21ZM209.273 17.316C209.497 17.228 209.713 17.22 209.921 17.292C210.137 17.364 210.293 17.5 210.389 17.7C210.477 17.9 210.477 18.108 210.389 18.324C210.309 18.532 210.153 18.688 209.921 18.792C209.897 18.8 209.861 18.812 209.813 18.828C209.765 18.836 209.733 18.844 209.717 18.852H209.681C209.641 18.868 209.581 18.888 209.501 18.912C209.421 18.936 209.297 18.98 209.129 19.044C208.969 19.108 208.753 19.188 208.481 19.284C208.209 19.38 207.893 19.488 207.533 19.608C207.149 19.736 206.693 19.884 206.165 20.052C205.637 20.212 205.013 20.384 204.293 20.568C204.205 20.592 204.105 20.62 203.993 20.652C203.889 20.676 203.789 20.7 203.693 20.724C203.389 20.804 203.053 20.892 202.685 20.988C202.325 21.076 201.953 21.156 201.569 21.228C201.057 21.324 200.493 21.408 199.877 21.48C199.261 21.552 198.609 21.58 197.921 21.564C197.489 21.556 197.113 21.544 196.793 21.528C196.481 21.512 196.205 21.496 195.965 21.48C195.941 21.48 195.913 21.48 195.881 21.48C195.849 21.472 195.825 21.468 195.809 21.468C195.745 21.46 195.705 21.456 195.689 21.456C195.681 21.456 195.657 21.456 195.617 21.456C195.609 21.464 195.601 21.472 195.593 21.48C195.593 21.488 195.589 21.496 195.581 21.504C195.557 21.528 195.541 21.548 195.533 21.564C195.509 21.588 195.493 21.608 195.485 21.624C195.469 21.64 195.453 21.656 195.437 21.672C195.429 21.688 195.417 21.704 195.401 21.72C195.385 21.736 195.365 21.756 195.341 21.78C195.325 21.804 195.309 21.824 195.293 21.84C195.149 22 194.981 22.188 194.789 22.404C194.597 22.62 194.401 22.824 194.201 23.016V23.004C194.057 23.14 193.881 23.292 193.673 23.46C193.473 23.628 193.257 23.78 193.025 23.916H193.037C192.781 24.084 192.477 24.224 192.125 24.336H192.137C192.049 24.368 191.957 24.392 191.861 24.408C191.773 24.432 191.673 24.448 191.561 24.456C191.529 24.464 191.489 24.468 191.441 24.468C191.393 24.468 191.361 24.468 191.345 24.468C191.313 24.468 191.281 24.468 191.249 24.468C191.217 24.468 191.185 24.464 191.153 24.456C190.993 24.44 190.845 24.396 190.709 24.324C190.445 24.196 190.237 24.02 190.085 23.796C189.925 23.564 189.813 23.336 189.749 23.112V23.124C189.685 22.916 189.645 22.728 189.629 22.56C189.613 22.384 189.601 22.212 189.593 22.044C189.593 21.86 189.601 21.688 189.617 21.528C189.625 21.368 189.637 21.22 189.653 21.084C189.669 20.956 189.693 20.824 189.725 20.688C189.749 20.552 189.785 20.408 189.833 20.256V20.268C189.913 19.98 190.013 19.724 190.133 19.5C190.245 19.268 190.369 19.06 190.505 18.876C190.657 18.684 190.809 18.52 190.961 18.384C191.105 18.24 191.249 18.12 191.393 18.024L191.381 18.036C191.669 17.836 191.929 17.688 192.161 17.592C192.393 17.496 192.589 17.42 192.749 17.364C192.933 17.308 193.065 17.272 193.145 17.256C193.233 17.232 193.297 17.216 193.337 17.208C193.465 17.184 193.589 17.188 193.709 17.22C193.829 17.252 193.933 17.304 194.021 17.376C194.117 17.448 194.193 17.536 194.249 17.64C194.305 17.736 194.333 17.844 194.333 17.964C194.333 18.172 194.265 18.356 194.129 18.516C193.993 18.668 193.821 18.764 193.613 18.804C193.597 18.804 193.577 18.808 193.553 18.816C193.529 18.816 193.509 18.816 193.493 18.816H193.481C193.465 18.824 193.441 18.828 193.409 18.828C193.385 18.828 193.361 18.828 193.337 18.828C193.321 18.828 193.301 18.832 193.277 18.84C193.261 18.84 193.245 18.84 193.229 18.84C193.221 18.84 193.217 18.844 193.217 18.852C193.217 18.852 193.205 18.852 193.181 18.852C193.093 18.868 192.985 18.9 192.857 18.948C192.737 18.988 192.617 19.028 192.497 19.068L192.509 19.056C192.421 19.096 192.321 19.148 192.209 19.212C192.105 19.268 191.997 19.344 191.885 19.44C191.773 19.528 191.661 19.636 191.549 19.764C191.445 19.892 191.349 20.052 191.261 20.244C191.157 20.436 191.077 20.66 191.021 20.916C190.965 21.172 190.921 21.452 190.889 21.756C190.865 21.924 190.853 22.068 190.853 22.188C190.853 22.34 190.869 22.496 190.901 22.656C190.917 22.776 190.949 22.892 190.997 23.004C191.045 23.116 191.117 23.196 191.213 23.244C191.269 23.268 191.333 23.28 191.405 23.28C191.477 23.28 191.553 23.272 191.633 23.256C191.713 23.232 191.797 23.204 191.885 23.172C192.029 23.124 192.161 23.068 192.281 23.004C192.409 22.932 192.525 22.864 192.629 22.8C192.821 22.672 193.001 22.524 193.169 22.356C193.345 22.188 193.509 22.024 193.661 21.864C193.845 21.664 193.993 21.504 194.105 21.384C194.217 21.264 194.297 21.152 194.345 21.048C194.409 20.92 194.485 20.776 194.573 20.616C194.661 20.456 194.777 20.316 194.921 20.196C195.073 20.076 195.257 19.996 195.473 19.956C195.697 19.916 195.973 19.956 196.301 20.076H196.589C196.637 20.076 196.685 20.08 196.733 20.088C196.789 20.088 196.845 20.088 196.901 20.088C197.029 20.088 197.165 20.088 197.309 20.088C197.453 20.088 197.605 20.092 197.765 20.1C197.949 20.108 198.173 20.116 198.437 20.124C198.709 20.124 198.965 20.124 199.205 20.124C199.829 20.116 200.369 20.088 200.825 20.04C201.289 19.984 201.701 19.924 202.061 19.86C202.421 19.796 202.765 19.728 203.093 19.656C203.429 19.584 203.757 19.504 204.077 19.416C204.317 19.344 204.561 19.268 204.809 19.188C205.065 19.108 205.313 19.028 205.553 18.948C205.793 18.86 206.017 18.78 206.225 18.708C206.441 18.628 206.629 18.556 206.789 18.492C207.069 18.38 207.305 18.284 207.497 18.204C207.689 18.116 207.865 18.032 208.025 17.952C208.041 17.944 208.065 17.932 208.097 17.916C208.129 17.9 208.161 17.884 208.193 17.868C208.329 17.804 208.445 17.748 208.541 17.7C208.645 17.644 208.733 17.596 208.805 17.556H208.817C208.897 17.516 208.969 17.48 209.033 17.448C209.097 17.408 209.173 17.368 209.261 17.328L209.273 17.316ZM237.983 17.592C238.103 17.496 238.231 17.424 238.367 17.376C238.503 17.328 238.631 17.304 238.751 17.304C238.991 17.304 239.183 17.396 239.327 17.58C239.383 17.668 239.415 17.768 239.423 17.88C239.431 17.984 239.415 18.096 239.375 18.216C239.343 18.328 239.291 18.44 239.219 18.552C239.147 18.664 239.059 18.764 238.955 18.852C238.939 18.86 238.919 18.876 238.895 18.9C238.879 18.908 238.847 18.928 238.799 18.96L238.727 19.008L238.655 19.044H238.667C238.555 19.108 238.431 19.18 238.295 19.26C238.159 19.34 237.999 19.444 237.815 19.572C237.847 19.556 237.835 19.568 237.779 19.608C237.731 19.648 237.675 19.688 237.611 19.728C237.395 19.872 237.123 20.044 236.795 20.244C236.475 20.444 236.107 20.672 235.691 20.928C235.427 21.088 235.131 21.26 234.803 21.444C234.483 21.628 234.131 21.816 233.747 22.008C233.371 22.192 232.947 22.392 232.475 22.608C232.003 22.816 231.491 23.012 230.939 23.196C230.651 23.292 230.339 23.392 230.003 23.496C229.675 23.592 229.327 23.684 228.959 23.772C228.599 23.852 228.223 23.92 227.831 23.976C227.439 24.024 227.035 24.052 226.619 24.06C226.203 24.068 225.755 24.04 225.275 23.976C224.803 23.912 224.339 23.804 223.883 23.652C223.411 23.492 222.935 23.28 222.455 23.016C221.975 22.744 221.531 22.428 221.123 22.068C220.627 21.612 220.227 21.172 219.923 20.748C219.619 20.316 219.363 19.924 219.155 19.572C219.067 19.436 218.991 19.304 218.927 19.176C218.863 19.048 218.799 18.92 218.735 18.792C218.447 18.928 218.115 19.088 217.739 19.272C217.371 19.456 216.967 19.68 216.527 19.944C216.167 20.16 215.743 20.424 215.255 20.736C214.767 21.04 214.255 21.364 213.719 21.708C213.671 21.74 213.619 21.772 213.563 21.804C213.507 21.836 213.459 21.868 213.419 21.9C213.267 22.004 213.103 22.108 212.927 22.212C212.759 22.308 212.591 22.412 212.423 22.524C211.959 22.796 211.503 23.06 211.055 23.316C210.607 23.572 210.171 23.792 209.747 23.976C209.515 24.072 209.279 24.16 209.039 24.24C208.807 24.328 208.587 24.392 208.379 24.432C208.195 24.472 207.979 24.492 207.731 24.492C207.579 24.492 207.435 24.484 207.299 24.468C207.163 24.452 207.031 24.42 206.903 24.372C206.887 24.364 206.871 24.356 206.855 24.348C206.831 24.34 206.811 24.332 206.795 24.324C206.787 24.316 206.779 24.312 206.771 24.312C206.763 24.312 206.751 24.308 206.735 24.3H206.711L206.507 24.192C206.379 24.088 206.291 23.992 206.243 23.904L206.255 23.916L206.219 23.844L206.195 23.82H206.207C206.159 23.708 206.135 23.62 206.135 23.556C206.127 23.492 206.123 23.428 206.123 23.364V23.208C206.139 23.072 206.163 22.952 206.195 22.848C206.227 22.744 206.263 22.644 206.303 22.548L206.291 22.56C206.411 22.216 206.543 21.904 206.687 21.624C206.823 21.36 206.955 21.112 207.083 20.88C207.211 20.64 207.331 20.424 207.443 20.232C207.867 19.488 208.191 18.928 208.415 18.552C208.647 18.176 208.791 17.944 208.847 17.856C208.927 17.736 209.023 17.632 209.135 17.544C209.247 17.456 209.359 17.392 209.471 17.352C209.591 17.304 209.707 17.284 209.819 17.292C209.931 17.3 210.031 17.332 210.119 17.388V17.376C210.223 17.44 210.299 17.532 210.347 17.652C210.395 17.764 210.419 17.884 210.419 18.012C210.419 18.124 210.399 18.24 210.359 18.36C210.327 18.48 210.267 18.6 210.179 18.72L210.203 18.696C210.179 18.736 210.147 18.788 210.107 18.852C210.067 18.916 210.027 18.968 209.987 19.008C209.907 19.112 209.795 19.268 209.651 19.476C209.507 19.684 209.307 19.988 209.051 20.388C209.035 20.404 209.019 20.428 209.003 20.46C208.995 20.484 208.983 20.504 208.967 20.52C208.959 20.536 208.951 20.548 208.943 20.556C208.943 20.556 208.939 20.564 208.931 20.58C208.915 20.612 208.899 20.64 208.883 20.664C208.867 20.68 208.847 20.708 208.823 20.748L208.835 20.736C208.755 20.856 208.671 20.984 208.583 21.12C208.495 21.248 208.407 21.392 208.319 21.552C208.175 21.792 208.035 22.048 207.899 22.32C207.827 22.456 207.755 22.596 207.683 22.74C207.619 22.876 207.559 23.016 207.503 23.16C207.519 23.16 207.535 23.164 207.551 23.172C207.567 23.172 207.583 23.172 207.599 23.172C207.759 23.172 207.951 23.156 208.175 23.124C208.407 23.092 208.611 23.048 208.787 22.992C208.987 22.928 209.211 22.84 209.459 22.728C209.715 22.616 209.975 22.496 210.239 22.368C210.511 22.232 210.783 22.092 211.055 21.948C211.327 21.796 211.583 21.648 211.823 21.504C212.095 21.344 212.363 21.18 212.627 21.012C212.891 20.836 213.139 20.676 213.371 20.532C213.459 20.476 213.547 20.42 213.635 20.364C213.731 20.308 213.819 20.252 213.899 20.196C213.931 20.18 213.967 20.16 214.007 20.136C214.047 20.112 214.083 20.088 214.115 20.064C214.179 20.024 214.243 19.984 214.307 19.944C214.379 19.904 214.447 19.864 214.511 19.824H214.499C214.883 19.584 215.243 19.364 215.579 19.164C215.923 18.956 216.239 18.768 216.527 18.6C216.791 18.44 217.055 18.284 217.319 18.132C217.591 17.972 217.835 17.836 218.051 17.724L218.399 17.556L218.735 17.424H218.723L218.615 17.448L218.687 17.412C218.703 17.404 218.727 17.392 218.759 17.376C218.791 17.352 218.835 17.312 218.891 17.256L219.671 17.676C219.679 17.692 219.691 17.724 219.707 17.772C219.731 17.82 219.747 17.852 219.755 17.868V17.856C219.771 17.896 219.783 17.924 219.791 17.94C219.799 17.956 219.807 17.972 219.815 17.988C219.999 18.316 220.191 18.628 220.391 18.924C220.591 19.22 220.835 19.548 221.123 19.908H221.111C221.239 20.06 221.379 20.22 221.531 20.388C221.691 20.556 221.875 20.74 222.083 20.94H222.071C222.271 21.124 222.491 21.308 222.731 21.492C222.979 21.676 223.267 21.852 223.595 22.02C224.027 22.252 224.435 22.42 224.819 22.524C225.203 22.628 225.563 22.7 225.899 22.74C226.259 22.788 226.579 22.812 226.859 22.812C226.979 22.812 227.115 22.808 227.267 22.8C227.419 22.792 227.563 22.78 227.699 22.764C228.171 22.7 228.663 22.604 229.175 22.476C229.687 22.348 230.191 22.2 230.687 22.032C231.567 21.696 232.327 21.352 232.967 21C233.615 20.648 234.155 20.344 234.587 20.088H234.575C235.039 19.792 235.423 19.536 235.727 19.32C236.031 19.104 236.291 18.916 236.507 18.756C236.723 18.588 236.907 18.444 237.059 18.324C237.219 18.204 237.351 18.1 237.455 18.012C237.471 17.996 237.483 17.984 237.491 17.976C237.499 17.968 237.511 17.956 237.527 17.94C237.599 17.876 237.671 17.82 237.743 17.772C237.815 17.716 237.895 17.656 237.983 17.592Z" fill="#3D3D3D"/>
</svg>
