<svg width="1920" height="736" viewBox="0 0 1920 736" fill="none" xmlns="http://www.w3.org/2000/svg">
<mask id="mask0" style="mask-type:alpha" maskUnits="userSpaceOnUse" x="0" y="0" width="1920" height="736">
<rect width="1920" height="736" fill="#F9F3F0"/>
</mask>
<g mask="url(#mask0)">
<path opacity="0.15" d="M-7.89322 -186.108C99.5685 -239.477 227.036 -258.974 352.713 -265.012C393.58 -266.96 436.393 -267.349 474.069 -253.325C501.314 -243.197 524.063 -226.232 546.326 -209.559C580.227 -184.239 615.47 -157.087 630.279 -121.248C639.698 -98.4401 640.01 -73.8985 639.504 -49.9216C638.959 -22.4583 637.071 6.3295 620.043 29.5857C590.171 70.4885 526.009 80.3831 469.749 90.3556C359.397 109.695 252.237 144.17 151.295 192.807C111.05 212.285 71.9538 234.236 27.9727 247.228C-16.0083 260.219 -66.7422 263.452 -108.972 245.689C-146.628 229.854 -173.192 199.157 -188.293 166.337C-253.389 25.6902 -151.279 -114.899 -7.89322 -186.108Z" fill="#FCF9F7"/>
<path opacity="0.1" d="M237.299 903.578C190.622 896.174 144.528 885.516 98.4724 874.857L-36.3286 843.682C-72.3676 835.342 -109.904 826.282 -138.144 802.355C-164.848 779.733 -180.037 746.434 -191.493 713.329C-197.152 697.001 -202.131 680.205 -203.162 662.981C-205.982 614.133 -176.595 568.967 -141.839 534.596C-65.9883 459.658 36.8775 419.442 138.868 388.734C157.87 383.005 177.221 377.511 197.059 377.043C222.499 376.361 247.432 383.882 271.16 393.118C435.037 456.911 557.333 605.365 615.407 771.608C624.471 797.523 645.32 857.808 625.132 883.314C606.539 906.695 538.37 906.228 510.091 909.462C419.312 919.836 327.549 917.857 237.299 903.578Z" fill="#DF936D"/>
<path opacity="0.1" d="M1762.72 464.644C1665.61 431.201 1578.4 374.619 1492.33 318.562C1450.09 291.079 1406.89 262.7 1377.01 222.089C1358.52 196.96 1345.83 168.028 1339.87 137.388C1333.92 106.747 1334.84 75.1634 1342.57 44.9229C1350.3 14.6824 1364.65 -13.4588 1384.58 -37.4642C1404.51 -61.4697 1429.52 -80.739 1457.8 -93.8777C1496.7 -111.914 1540.04 -117.679 1582.82 -119.491C1686.72 -123.912 1801.64 -100.325 1865.12 -17.8369C1909.47 39.817 1921.29 116.832 1962.38 176.94C1991.85 220.161 2035.68 253.526 2057.7 301.012C2067.89 323.484 2072.75 348.013 2071.91 372.679C2071.06 397.346 2064.52 421.482 2052.81 443.199C2033.09 479.097 1981.58 526.525 1936.68 523.895C1911.84 522.434 1880.93 501.574 1856.5 493.588C1825.35 483.323 1793.63 475.299 1762.72 464.644Z" fill="#AB6A49"/>
<path opacity="0.3" d="M1838.32 410.368C1915.87 448.867 2007.87 462.932 2098.57 467.287C2128.06 468.692 2158.96 468.973 2186.15 458.857C2205.81 451.551 2222.23 439.313 2238.3 427.285C2262.76 409.019 2288.2 389.433 2298.89 363.58C2305.69 347.127 2305.91 329.423 2305.54 312.127C2305.15 292.315 2303.79 271.549 2291.5 254.772C2269.94 225.266 2223.64 218.128 2183.03 210.934C2103.39 196.983 2026.05 172.114 1953.21 137.028C1924.16 122.978 1895.94 107.143 1864.2 97.771C1832.46 88.3993 1795.85 86.0668 1765.37 98.881C1738.19 110.304 1719.02 132.448 1708.12 156.123C1661.15 257.582 1734.84 358.999 1838.32 410.368Z" fill="white"/>
<path opacity="0.15" d="M476.156 294.35C495.305 313.826 514.651 333.134 533.568 352.837C551.143 371.147 568.028 390.766 578.22 414.272C583.172 425.691 586.461 437.986 587.162 450.44C587.75 460.865 586.468 472.624 578.832 480.467C574.427 484.968 568.235 487.221 562.481 489.418C556.118 491.834 549.665 493.999 543.195 496.11C530.745 500.172 518.216 504.019 506.08 508.971C482.211 518.71 461.464 533.992 438.914 546.218C427.665 552.317 415.85 557.665 403.309 560.458C389.738 563.484 378.492 560.283 366.035 554.901C354.583 549.951 342.915 544.763 332.336 538.096C320.911 530.928 313.596 521.642 311.785 508.107C310.357 497.404 311.179 486.233 307.225 476C303.885 467.356 297.034 460.503 288.58 456.777C277.274 451.792 267.113 454.669 255.446 455.998C249.302 456.697 238.355 455.854 237.845 447.567C237.441 441.302 244.128 436.649 249.374 435.039C255.995 433.012 262.942 434.017 269.726 433.52C274.286 433.182 279.195 431.674 281.075 427.085C284.504 418.715 272.081 414.663 270.016 422.799C269.483 424.897 271.835 426.798 273.742 425.657C279.566 422.172 282.835 413.685 277.915 407.997C273.242 402.592 264.665 403.801 260.119 408.608C259.744 409.01 259.508 409.521 259.446 410.067C259.384 410.612 259.498 411.163 259.773 411.639C260.047 412.114 260.467 412.489 260.97 412.707C261.474 412.926 262.035 412.978 262.57 412.854C268.748 411.401 272.593 405.081 271.579 398.846C270.536 392.46 264.317 389.373 258.294 390.545C243.133 393.49 242.197 413.049 255.305 419.534C257.248 420.492 259.558 418.884 259.042 416.677C257.88 411.848 252.62 409.997 248.197 411.812C242.917 413.974 241.444 420.168 241.975 425.303C242.12 426.725 243.479 428.451 245.16 427.774C249.205 426.153 251.352 422.027 249.718 417.754C247.834 412.795 241.978 411.982 237.347 412.444C228.608 413.331 213.598 420.837 220.988 431.611C226.807 440.078 237.297 432.647 234.891 423.805C232.061 413.407 218.366 412.149 210.204 416.451C200.853 421.36 197.52 433.501 202.271 442.765C206.244 450.546 219.062 456.283 223.424 445.661C224.814 442.275 223.536 437.602 219.126 437.995C215.447 438.324 212.893 443.13 212.365 446.371C211.424 452.164 215.932 457.639 219.445 461.713C223.695 466.686 228.709 470.952 234.299 474.352C237.963 476.543 243.365 477.749 244.434 472.229C245.077 468.922 243.619 463.369 239.675 462.891C234.411 462.256 232.349 470.272 231.67 474.099C230.476 480.802 232.01 487.353 236.786 492.292L237.303 488.275C229.092 492.223 221.565 503.556 227.739 512.145C228.545 513.27 229.924 513.819 231.214 513.075C236.938 509.834 237.483 500.056 231.153 496.963C225.928 494.412 217.154 497.663 217.337 504.113C217.405 506.52 219.994 507.247 221.694 505.908C229.105 500.083 233.061 485.577 222.009 481.066C213.936 477.771 204.525 486.791 210.489 494.567C215.097 500.572 223.725 492.724 226.4 488.537C232.321 479.282 228.534 466.784 218.463 462.456C213.384 460.275 207.335 460.46 203.422 464.701C200.194 468.194 199.847 472.734 203.974 475.513C204.461 475.792 205.027 475.901 205.583 475.824C206.14 475.747 206.655 475.488 207.049 475.088C209.195 472.46 212.842 468.759 211.666 465.035C210.397 461.031 204.389 458.369 200.736 457.41C190.853 454.798 180.244 460.224 175.664 469.214C174.203 472.078 172.44 477.319 175.867 479.548C179.294 481.777 183.572 478.524 185.592 475.89C187.712 473.091 189.553 468.755 187.209 465.543C184.469 461.791 177.678 460.971 173.417 461.166C161.287 461.735 149.807 472.454 150.409 485.008C150.493 486.756 151.926 487.763 153.594 487.48C158.015 486.738 160.091 482.022 158.668 477.921C157.098 473.386 150.962 470.299 146.337 470.635C142.71 470.9 138.746 473.687 137.087 476.905C135.719 479.565 135.918 484.524 139.676 485.163C143.656 485.839 145.192 480.51 144.769 477.495C144.156 473.167 140.865 469.885 136.96 468.279C128.637 464.83 117.301 467.886 115.474 477.607C115.105 479.512 117.268 481.909 119.201 480.465C121.782 478.54 125.741 474.913 124.094 471.28C122.22 467.185 117.017 468.285 114.648 471.121C108.247 478.77 108.585 494.624 120.311 496.749C122.645 497.167 125.052 496.825 127.178 495.774C129.304 494.722 131.036 493.017 132.121 490.909C133.824 487.479 133.854 481.238 129.659 479.511C124.609 477.431 120.856 484.07 120.239 488.115C119.365 493.855 122.32 499.092 127.499 501.538C142.415 508.544 154.721 493.885 168.454 491.451C177.84 489.785 185.267 497.89 186.15 506.834C186.965 514.93 179.89 520.591 175.463 526.494C167.149 537.6 160.835 552.186 165.086 566.133C169.158 579.488 180.764 586.282 193.118 590.833C207.392 596.097 222.715 601.728 223.916 619.349C225.017 635.471 215.692 651.257 207.438 664.409C187.859 695.608 165.163 724.809 144.904 755.577C134.992 770.641 125.821 786.862 113.773 800.364C103.27 812.133 89.5617 821.114 73.3279 821.073C41.506 820.989 19.294 792.263 4.26566 767.785C-15.2529 735.997 -33.7856 701.404 -41.1905 664.505C-43.0618 655.174 -41.6105 646.576 -32.9872 641.264C-25.3628 636.564 -16.6472 633.788 -8.88905 629.259C5.32279 620.947 16.8529 608.379 24.7731 594.021C40.9339 564.722 41.615 531.209 33.1673 499.502C25.8428 472.006 12.9283 442.394 21.755 413.616C26.3202 398.748 37.3525 385.988 52.6119 381.67C69.6517 376.847 86.7036 383.276 96.651 397.834C99.1985 401.559 102.498 404.635 106.88 401.224C111.4 397.695 113.362 390.338 113.956 384.971C115.599 370.106 109.412 354.851 98.4996 344.789C77.0191 324.981 45.4975 324.993 18.7384 317.935C5.12297 314.337 -8.14395 308.62 -17.8472 298.09C-30.9208 283.928 -32.8219 264.036 -39.0762 246.612C-44.6515 231.018 -53.9728 217.019 -68.2219 208.15C-80.293 200.674 -94.4305 197.225 -108.596 198.301C-116.176 198.904 -123.666 202.216 -131.298 201.73C-141.102 201.103 -144.048 191.217 -146.882 183.424C-153.166 166.049 -158.486 148.34 -162.817 130.377C-179.439 61.8984 -184.637 -12.2756 -156.162 -78.5105C-149.418 -94.2106 -139.994 -109.604 -125.209 -118.908C-110.48 -128.175 -92.776 -131.091 -75.632 -131.111C-43.5987 -131.144 -11.4855 -122.642 16.0911 -106.339C46.9401 -88.1087 70.7399 -60.4411 94.9515 -34.5623C115.162 -12.9591 137.861 10.3432 144.245 40.3062C147.455 55.3672 144.389 68.8117 140.651 83.3639C138.994 89.7907 137.415 96.3875 137.162 103.031C136.907 109.867 139.114 115.487 141.73 121.708C148.732 138.347 157.543 153.913 167.682 168.829C176.427 181.694 185.541 194.477 192.01 208.684C198.798 223.597 202.003 240.413 198.638 256.638C196.107 268.795 189.463 281.996 193.708 294.523C195.728 300.49 204.495 311.35 211.519 305.695C215.293 302.655 214.193 297.849 211.496 294.508C208.382 290.65 203.957 289.28 199.189 288.647C188.679 287.254 173.566 289.741 169.208 300.971C164.759 312.479 175.119 322.678 183.463 328.987C204.377 344.802 241.331 359.993 233.181 392.597C230.993 401.361 225.281 408.475 215.621 407.471C209.857 406.885 204.589 406.447 200.371 411.178C196.256 415.789 195.514 422.231 193.108 427.701C189.298 436.369 181.65 440.222 173.27 443.436C169.876 444.734 166.596 446.212 163.733 448.497C160.492 451.077 157.945 454.402 154.792 457.084C147.882 462.928 138.381 464.014 129.896 461.412C113.744 456.465 107.767 439.488 104.172 424.644C100.692 410.287 97.3529 393.264 83.2637 385.419C71.515 378.879 59.4355 384.532 56.6095 397.696C53.3531 412.879 61.7377 426.46 69.2932 438.851C78.6564 454.221 83.5841 470.458 84.0241 488.498C84.6701 514.547 80.1641 551.996 109.481 564.74C120.196 569.396 133.994 567.839 142.078 558.862C152.078 547.75 148.134 532.716 147.972 519.296C147.872 511.065 150.172 502.368 157.423 497.555C163.443 493.561 172.682 492.66 178.735 497.146C191.356 506.529 182.816 523.877 175.907 533.743C168.342 544.544 159.203 557.19 165.224 570.892C171.133 584.342 186.613 589.99 198.482 596.764C205.479 600.758 212.203 605.262 217.877 611.009C224.143 617.334 228.468 625.019 232.82 632.718C241.139 647.432 249.761 660.695 264.239 670.019C277.855 678.794 295.048 684.95 303.663 699.558C311.923 713.567 311.159 733.145 301.56 746.368C296.692 753.094 289.107 757.83 280.711 758.224C272.941 758.591 266.17 754.388 266.747 745.913C267.116 740.318 274.596 728.743 280.746 735.781C284.002 739.503 283.888 749.002 277.509 748.903L279.314 753.243C286.786 745.386 287.335 732.299 277.827 725.679C267.743 718.662 254.166 724.563 250.124 735.469C246.035 746.529 249.182 760.903 258.855 768.03C271.264 777.164 288.229 772.11 300.356 765.148C314.517 757.036 327.272 743.766 331.132 727.524C335.269 710.09 327.366 693.858 315.892 681.033C302.26 665.785 282.478 653.549 275.794 633.237C273.776 627.112 272.742 617.874 279.43 614.179C287.159 609.932 294.347 615.181 298.734 621.397C307.92 634.407 311.682 650.432 324.705 660.714C336.683 670.17 353.507 673.872 368.063 668.556C381.745 663.558 392.762 650.915 395.195 636.427C396.25 630.137 395.411 623.287 391.162 618.269C386.913 613.251 380.878 613.52 375.202 615.785C372.741 616.765 370.406 618.064 367.842 618.771C367.35 618.904 363.445 619.876 364.828 618.114C365.416 617.368 368.71 617.884 369.542 617.976C373.464 618.407 377.295 619.953 378.468 624.164C379.776 628.865 377.116 634.011 374.09 637.456C369.062 643.168 361.092 646.854 353.466 646.946C344.65 647.055 336.904 642.231 330.974 636.074C302.197 606.206 307.653 559.206 313.155 521.897C315.502 506.01 317.876 487.221 308.448 473.029C303.961 466.305 297.093 461.53 289.223 459.664C280.569 457.6 271.663 459.141 262.937 459.736C254.735 460.298 245.719 460.356 238.517 455.829C227.749 449.055 232.923 436.718 243.998 433.94C252.453 431.823 261.801 434.034 270.386 434.196C277.64 434.333 285.15 433.397 291.368 429.372C302.06 422.445 307.76 408.83 308.1 396.432C308.434 384.432 304.189 372.635 298.169 362.411C286.819 343.134 269.116 327.188 247.627 320.556C241.794 318.757 235.895 316.962 230.374 314.321C226.897 312.659 220 309.493 220.448 304.703C221.048 298.304 232.81 295.731 237.621 294.148C246.472 291.234 255.36 288.799 264.574 287.394C301.341 281.887 338.607 289.88 373.018 302.693C388.613 308.499 403.884 317.307 420.454 320.007C437.747 322.817 453.577 316.746 466.195 304.91C492.125 280.589 502.547 243.454 506.9 209.328C511.72 171.541 512.707 132.459 510.834 94.4466C509.866 74.7879 507.742 55.1612 503.974 35.8273C500.269 16.8979 494.583 -2.49303 481.582 -17.2591C457.293 -44.9086 415.61 -42.122 382.317 -40.6813C341.518 -38.8993 300.315 -40.2108 259.803 -34.191C222.526 -28.6589 186.017 -15.5021 158.764 11.4222C135.262 34.63 120.618 66.3355 127.413 99.6232C134.56 134.684 160.087 161.858 172.136 194.95C177.532 209.776 180.683 226.022 177.632 241.723C174.479 257.968 164.09 269.857 155.221 283.251C147.428 295.022 142.124 308.917 148.173 322.676C154.396 336.796 169.095 345.19 180.961 354.02C194.72 364.279 205.727 376.262 205.827 394.366C205.92 410.89 197.941 427.827 184.418 437.552C171.09 447.151 153.516 448.749 138.269 443.113C130.97 440.413 124.199 435.946 119.137 430.012C113.314 423.192 110.994 415.059 109.289 406.414C107.611 397.935 106.136 388.967 100.668 381.966C96.0935 376.103 89.244 372.552 81.9838 371.225C66.8929 368.498 51.7229 374.506 40.4211 384.373C13.3863 407.943 10.9993 444.354 16.5466 477.407C22.4673 512.643 35.9404 550.696 20.1654 585.378C6.21591 616.047 -26.0567 635.218 -58.2765 641.137C-93.7226 647.653 -130.09 637.584 -162.143 622.755C-197.508 606.408 -229.471 583.678 -264.707 567.061C-282.49 558.662 -302.413 553.876 -319.076 543.294C-333.149 534.348 -343.677 520.898 -350.412 505.754C-381.81 435.154 -333.33 361.826 -292.18 307.189C-269.544 277.137 -246.318 246.666 -217.215 222.471C-190.509 200.266 -155.132 182.409 -119.591 190.758C-86.5911 198.523 -59.5699 222.966 -43.4888 252.066C-34.6972 267.981 -27.5801 285.092 -15.8139 299.152C-5.57832 311.376 7.84209 318.742 22.9927 323.107C48.5496 330.458 80.7628 329.777 99.1868 351.849C101.28 354.355 104.846 350.725 102.761 348.225C84.0707 325.837 52.1903 325.822 26.1557 318.712C9.02577 314.031 -5.14956 305.57 -15.7432 291.038C-26.7526 275.939 -33.5612 258.268 -43.231 242.376C-59.4135 215.781 -86.4419 193.828 -116.931 186.179C-150.211 177.802 -184.076 191.297 -210.731 210.986C-240.915 233.282 -264.793 262.989 -287.415 292.598C-309.881 321.994 -332.414 351.987 -347.819 385.785C-362.081 417.065 -369.496 451.545 -362.154 485.646C-358.85 500.996 -352.546 515.817 -342.856 528.258C-332.392 541.69 -318.676 550.535 -303.015 556.871C-284.14 564.507 -265.535 571.742 -247.583 581.443C-229.756 591.065 -212.494 601.683 -194.824 611.582C-164.189 628.746 -131.484 643.728 -96.1599 647.367C-63.5269 650.73 -29.9414 642.833 -3.74506 622.595C8.93812 612.797 19.5513 600.177 25.7159 585.305C32.2765 569.525 33.4987 552.311 32.0028 535.452C28.7846 499.249 12.4571 462.58 21.3562 426.005C25.3436 409.636 35.0043 393.661 49.0936 384.059C62.2442 375.12 84.2546 370.535 96.037 384.327C102.828 392.271 103.244 403.798 105.575 413.52C107.321 420.786 110.307 427.424 115.127 433.16C124.481 444.272 138.873 450.539 153.226 451.402C184.763 453.299 210.32 426.679 210.883 395.744C211.163 380.35 204.535 367.419 193.15 357.336C180.97 346.554 164.467 339.04 155.323 325.188C145.447 310.227 153.212 294.803 162.344 281.796C171.475 268.789 180.487 256.5 182.998 240.382C187.927 208.619 171.79 179.091 156.435 152.64C146.898 136.206 137.173 119.387 132.845 100.695C128.766 83.146 130.715 64.7313 138.378 48.4152C154.202 14.3009 187.158 -9.03731 222.176 -20.4084C261.102 -33.0428 302.729 -33.4583 343.233 -34.3509C363.891 -34.8083 384.547 -36.1316 405.206 -36.3063C423.66 -36.4655 443.024 -35.6335 459.876 -27.3374C478.496 -18.1589 488.899 -0.547216 494.655 18.8128C500.467 38.3708 503.108 59.0791 504.754 79.369C507.909 118.305 506.776 158.024 503.149 196.903C499.792 232.905 491.148 272.332 464.901 299.038C458.058 306.007 449.796 311.844 440.256 314.362C431.273 316.735 421.964 315.676 413.16 313.091C396.853 308.317 381.549 300.106 365.437 294.593C331.427 282.958 294.775 276.704 259.01 283.169C250.379 284.726 242.075 287.265 233.771 290.034C228.088 291.93 221.18 294.113 217.428 299.117C210.33 308.597 222.18 316.288 229.734 319.584C239.223 323.744 249.84 325.331 258.904 330.368C269.558 336.292 278.869 344.803 286.439 354.308C294.448 364.363 301.03 376.484 302.648 389.407C304.311 402.704 299.6 419.286 286.985 425.997C271.542 434.213 252.901 423.055 237.413 430.897C231.256 434.016 226.337 440.858 227.186 447.961C227.982 454.743 233.662 459.508 239.6 462.083C255.738 469.074 273.208 460.069 289.459 464.949C310.464 471.244 311.298 495.251 309.189 513.315C306.952 532.519 303.321 551.305 303.665 570.756C304.023 590.454 307.717 610.55 318.14 627.543C325.75 639.952 337.78 652.171 353.401 651.999C366.083 651.86 380.713 643.169 383.463 630.093C384.887 623.33 381.792 616.3 375.028 613.923C371.239 612.593 365.023 611.616 361.495 614.064C357.967 616.512 358.766 622.299 362.74 623.855C367.424 625.682 372.856 622.095 377.066 620.447C381.277 618.8 385.259 618.428 388.032 622.595C390.42 626.179 390.853 630.586 390.269 634.765C389.167 642.637 384.826 650.232 379.156 655.722C365.673 668.767 344.653 668.597 329.706 658.144C315.388 648.131 312.095 630.637 302.065 617.394C298.538 612.737 293.89 608.571 287.899 607.729C282.121 606.915 275.652 609.045 272.186 613.89C263.678 625.789 273.552 643.197 280.992 652.724C294.116 669.518 314.252 681.06 323.356 700.9C331.458 718.563 325.271 736.872 311.923 749.99C300.776 760.947 279.158 774.289 263.39 764.942C252.623 758.569 248.646 737.497 260.367 729.908C265.799 726.39 273.669 727.12 277.609 732.459C281.643 737.929 280.086 744.978 275.655 749.636C275.312 749.997 275.082 750.45 274.992 750.94C274.902 751.429 274.955 751.934 275.147 752.393C275.338 752.852 275.658 753.246 276.068 753.527C276.479 753.808 276.962 753.964 277.46 753.976C287.649 754.116 290.096 741.592 285.783 734.174C279.587 723.518 266.453 730.695 263.008 739.641C258.64 750.999 265.221 762.133 277.377 763.213C291.539 764.475 303.993 754.696 309.727 742.353C315.582 729.71 315.98 714.528 310.447 701.723C304.155 687.169 290.415 679.224 277.209 671.754C270.019 667.69 262.748 663.561 256.69 657.879C249.892 651.499 244.909 643.597 240.297 635.574C232.102 621.321 224.599 608.258 210.916 598.563C198.767 589.955 181.669 585.338 172.453 573.158C161.483 558.653 175.417 544.1 183.139 532.062C189.391 522.312 193.353 509.275 186.83 498.588C180.589 488.398 166.833 486.76 156.748 492.034C143.397 499.014 142.299 514.101 143.373 527.396C143.981 534.913 144.906 543.147 141.706 550.245C138.635 557.063 131.942 561.264 124.625 562.088C108.226 563.948 96.0825 550.252 92.1256 535.705C88.1687 521.158 89.2961 505.824 89.1619 490.934C89.0127 474.805 85.9918 458.783 78.4346 444.421C71.0851 430.453 57.9189 416.012 61.5396 398.974C63.5797 389.385 71.352 384.966 80.2072 389.498C88.2688 393.621 92.587 402.093 95.2345 410.36C99.7806 424.562 101.075 440.044 109.977 452.519C117.725 463.395 130.681 469.575 144.093 467.376C151.702 466.134 157.232 462.006 162.535 456.635C165.914 453.216 169.255 450.461 173.753 448.642C177.48 447.131 181.289 445.925 184.8 443.923C190.657 440.629 195.268 435.501 197.923 429.33C200.303 423.689 201.271 413.143 208.723 412.114C215.073 411.237 220.263 414 226.42 410.753C232.501 407.545 236.134 401.148 237.879 394.713C246.026 364.655 219.407 346.923 197.678 332.641C189.144 327.029 169.418 316.111 173.791 303.243C176.126 296.371 184.519 293.986 191.018 293.487C196.18 293.096 203.534 293.111 207.244 297.33C208.252 298.475 209.977 301.462 207.519 302.108C206.524 302.369 205.046 301.217 204.36 300.708C202.45 299.281 200.847 297.484 199.649 295.423C196.259 289.552 197.423 282.068 198.87 275.812C200.392 269.203 202.763 262.8 203.923 256.097C205.198 248.749 205.399 241.257 204.518 233.853C200.807 202.435 178.939 178.521 163.147 152.542C158.284 144.539 153.88 136.265 149.956 127.762C146.566 120.422 142.199 112.63 142.243 104.325C142.332 90.9069 148.291 78.3264 150.193 65.2067C154.463 35.7814 139.202 9.02609 121.21 -12.9085C111.499 -24.7497 100.787 -35.7444 90.3628 -46.9635C77.801 -60.4763 65.1971 -73.9942 51.4269 -86.3004C28.0777 -107.148 1.05685 -122.828 -29.4455 -130.44C-58.6495 -137.721 -93.4496 -140.503 -121.283 -126.909C-150.89 -112.443 -163.723 -78.3577 -171.905 -48.5139C-190.397 18.9543 -180.427 91.5622 -160.75 157.588C-158.118 166.421 -155.239 175.176 -152.111 183.85C-149.89 189.996 -147.871 196.937 -143.166 201.727C-138.609 206.362 -132.366 207.327 -126.136 206.573C-118.187 205.609 -110.771 203.084 -102.657 203.209C-86.8525 203.44 -71.2948 209.757 -60.1594 221.046C-46.3893 235.006 -42.5351 253.531 -37.014 271.593C-32.3467 286.87 -25.2439 300.462 -12.0001 309.931C-1.15312 317.692 11.8419 321.717 24.7275 324.577C51.7826 330.578 88.427 332.017 103.602 359.335C107.963 367.186 110.156 376.972 108.664 385.917C108.163 388.951 107.165 392.913 105.195 395.396C103.225 397.879 102.556 397.467 101.015 395.255C100.196 394.084 99.4154 392.935 98.4994 391.815C88.9573 380.199 75.2728 373.69 60.1041 375.103C31.3729 377.786 14.8236 403.918 13.8239 430.848C12.6796 461.693 27.6551 489.836 32.3492 519.766C37.5923 553.26 28.062 590.463 2.84764 614.072C-4.10459 620.582 -12.0064 625.472 -20.5758 629.553C-27.4543 632.839 -35.3011 635.373 -40.8348 640.853C-52.202 652.108 -45.5234 670.275 -41.5474 683.295C-36.2731 700.565 -29.1916 717.3 -20.9669 733.361C-12.4621 750.009 -3.19701 766.599 7.4291 781.993C22.4014 803.685 43.8823 825.283 72.0154 826.078C105.218 827.018 124.016 796.544 140.07 772.108C160.251 741.315 181.82 711.561 202.455 681.089C216.404 660.49 242.466 624.717 221.525 600.517C212.65 590.233 198.424 588.352 186.764 582.72C171.467 575.327 165.168 560.023 171.269 544.058C174.37 535.907 179.616 529.429 185.005 522.731C188.806 518.007 191.782 512.815 191.234 506.555C190.101 493.651 178.739 483.58 165.816 486.78C158.029 488.706 151.569 493.87 144.073 496.529C137.543 498.832 122.596 499.197 125.33 488.043C125.855 485.9 128.492 483.282 127.925 487.034C127.802 487.93 127.46 488.781 126.93 489.514C126.4 490.247 125.698 490.838 124.886 491.236C120.684 493.348 116.394 489.777 115.546 485.697C114.948 482.828 115.982 479.275 117.191 476.669C117.455 476.101 118.626 473.438 119.072 473.406C118.668 473.434 117.14 475.632 116.589 476.043L120.316 478.902C121.621 471.924 130.271 470.307 135.902 473.377C137.917 474.474 138.194 475.87 139.526 477.523C141.321 479.785 141.177 479.197 142.915 477.592C143.543 476.95 144.308 476.457 145.152 476.15C145.996 475.843 146.899 475.729 147.792 475.818C149.111 476.074 150.378 476.548 151.54 477.221C154.37 478.673 154.599 480.446 152.226 482.54L155.412 485.012C155.029 477.071 161.025 469.651 168.402 467.188C172.067 465.967 176.016 465.898 179.719 466.99C182.324 467.761 183.405 469.134 182.141 471.84C181.692 472.809 179.865 475.082 179.202 474.383C177.892 472.962 182.712 467.738 183.823 466.685C186.208 464.438 189.256 462.634 192.51 462.027C196.577 461.325 200.757 462.215 204.184 464.51C205.509 465.38 206.478 465.745 206.35 467.414C206.239 468.716 204.204 470.483 203.364 471.506L206.439 471.081C204.896 470.044 207.041 468.077 207.87 467.427C209.647 466.034 211.805 465.903 213.998 466.335C215.743 466.697 217.394 467.415 218.847 468.446C220.3 469.476 221.524 470.796 222.441 472.323C225.637 477.748 224.032 484.468 219.615 488.633C218.732 489.471 216.479 491.735 215.152 491.498C213.825 491.261 213.896 489.993 214.091 488.686C214.394 486.518 215.659 485.401 217.887 485.335C221.686 485.231 223.974 488.949 223.835 492.381C223.675 496.471 221.127 499.914 218.029 502.343L222.386 504.139C222.315 501.733 226.622 500.626 228.468 501.381C231.458 502.59 231.158 507.236 228.629 508.666L232.104 509.596C227.544 503.25 234.004 495.464 239.803 492.674C241.336 491.936 241.387 489.768 240.319 488.657C237.223 485.449 236.009 481.438 236.344 477.022C236.429 475.921 237.327 469.003 238.87 468.538C238.783 468.564 240.063 469.831 239.452 470.648C238.641 471.703 237.112 470.14 236.216 469.581C233.359 467.757 230.669 465.685 228.175 463.39C224.004 459.634 214.926 451.468 218.044 445.265C218.494 444.349 220.117 442.071 218.532 444.033C217.202 445.672 216.656 446.585 214.217 446.373C210.858 446.086 208.044 443.087 206.65 440.222C200.851 428.319 214.316 413.225 226.507 420.812C228.877 422.286 233.232 429.44 227.928 430.144C224.204 430.64 223.698 425.599 225.112 423.315C227.143 420.048 231.554 418.661 235.079 417.922C236.706 417.545 238.372 417.364 240.041 417.382C241.361 417.34 242.668 417.645 243.833 418.265C245.598 420.124 245.605 421.652 243.855 422.852L247.041 425.323C246.866 423.638 246.742 422.007 247.214 420.33C247.788 418.306 252.885 412.941 254.091 417.95L257.829 415.092C250.516 411.486 247.886 401.129 256.018 396.688C258.918 395.103 263.561 394.349 265.798 397.511C268.496 401.335 265.373 406.954 261.304 407.904L263.755 412.15C266.046 409.731 270.091 408.399 273.11 410.439C277.34 413.295 274.605 419.195 271.21 421.228L274.937 424.087L276.588 424.631C276.283 425.521 275.734 426.309 275.004 426.903C274.273 427.498 273.391 427.876 272.457 427.994C270.776 428.476 268.975 428.444 267.264 428.483C264.291 428.55 261.322 428.488 258.337 428.612C253.284 428.843 248.133 429.531 243.565 431.866C236.459 435.479 230.27 443.862 233.785 451.985C237.502 460.569 248.239 461.974 256.402 460.945C262.497 460.186 268.508 458.408 274.693 458.629C280.527 458.856 286.189 460.66 291.076 463.849C312.091 477.531 301.15 504.936 311.301 524.249C316.759 534.637 327.161 541.372 337.227 546.736C348.315 552.663 359.732 557.952 371.423 562.579C382.421 566.91 393.046 567.925 404.61 565.348C416.981 562.609 428.753 557.383 439.889 551.444C463.284 538.959 484.635 522.918 509.417 513.038C522.057 508.001 535.118 504.115 548.019 499.843C558.623 496.333 571.58 493.192 580.362 485.935C596.895 472.27 593.512 445.492 588.323 427.351C580.61 400.421 563.549 377.655 544.829 357.32C523.821 334.504 501.504 312.815 479.755 290.701C477.464 288.369 473.882 291.988 476.181 294.325L476.156 294.35Z" fill="#402B1D"/>
</g>
</svg>
