<svg width="345" height="894" viewBox="0 0 345 894" fill="none" xmlns="http://www.w3.org/2000/svg">
<g opacity="0.3" clip-path="url(#clip0_1271:9462)">
<path d="M227.465 592.659C227.813 593.254 227.91 593.963 227.735 594.629C227.56 595.296 227.127 595.866 226.532 596.213C225.936 596.561 225.227 596.658 224.561 596.483C223.894 596.308 223.324 595.876 222.976 595.28C222.084 593.608 221.143 591.954 220.153 590.318C212.44 577.463 202.225 565.858 189.803 557.451C183.193 552.893 175.89 549.432 168.175 547.205C160.476 545.103 152.505 544.168 144.528 544.429C127.804 544.83 111.609 549.633 95.9014 555.237C87.2184 558.336 78.6312 561.694 70.14 565.31C63.4504 568.166 56.5067 571.403 50.8339 575.771C47.9744 577.932 45.4361 580.488 43.2948 583.362C41.0065 586.649 39.1832 590.237 37.8763 594.023C35.0332 601.922 33.4076 610.182 30.0026 617.88L26.4438 614.302L30.879 611.506C43.743 603.434 56.7943 595.635 70.2202 588.539C83.9137 581.302 98.0421 574.714 112.732 569.751C126.212 565.196 140.273 562.213 154.535 561.892C167.814 561.591 181.26 563.671 193.596 568.681C206.346 573.903 217.772 581.899 227.043 592.09C227.285 592.331 227.476 592.617 227.606 592.932C227.737 593.247 227.804 593.585 227.804 593.926C227.804 594.267 227.737 594.605 227.606 594.92C227.476 595.235 227.285 595.521 227.043 595.762C226.802 596.003 226.516 596.194 226.201 596.325C225.886 596.455 225.548 596.522 225.207 596.522C224.866 596.522 224.528 596.455 224.213 596.325C223.898 596.194 223.612 596.003 223.371 595.762C222.189 594.473 220.976 593.214 219.732 591.983C210.532 582.888 199.395 575.99 187.154 571.804C174.704 567.624 161.994 566.4 148.869 567.337C142.105 567.835 135.393 568.889 128.801 570.487C121.85 572.189 115.009 574.313 108.317 576.847C94.0952 582.124 80.4419 588.846 67.143 596.123C54.1787 603.219 41.5488 610.911 29.0661 618.823C28.568 619.107 27.9909 619.221 27.4223 619.147C26.8537 619.074 26.3246 618.817 25.9153 618.415C25.5242 618 25.2742 617.472 25.201 616.906C25.1277 616.341 25.2349 615.766 25.5073 615.265C26.31 613.459 26.9856 611.6 27.6145 609.721C30.2903 601.695 31.956 593.247 35.8493 585.643C39.562 578.392 45.4154 572.808 52.2521 568.5C59.2159 564.113 66.929 561.003 74.5216 557.893C83.3206 554.29 92.2266 550.946 101.24 547.86C117.174 542.463 133.985 538.497 150.916 539.272C159.394 539.59 167.768 541.257 175.721 544.208C183.413 547.195 190.626 551.294 197.128 556.374C209.731 566.079 219.872 578.68 227.431 592.639L227.465 592.659ZM36.2239 670.524C38.5831 666.355 41.0895 662.275 43.743 658.284C46.4188 654.325 49.0946 650.586 51.9778 647.068C54.9822 643.356 58.1868 639.81 61.5773 636.447C63.2319 634.811 64.9333 633.226 66.6815 631.692C67.5734 630.898 68.4943 630.118 69.4442 629.351L70.742 628.301L71.411 627.786L71.8793 627.424C79.6057 621.545 88.3556 616.335 97.7009 613.72C100.202 613.005 102.772 612.556 105.367 612.382C106.704 612.301 108.044 612.301 109.381 612.382C109.952 612.418 110.523 612.469 111.093 612.536C111.401 612.57 111.093 612.536 111.053 612.536L111.441 612.597L112.344 612.757C113.465 612.977 114.571 613.267 115.656 613.626C116.157 613.794 116.652 613.974 117.141 614.168C117.261 614.205 117.378 614.254 117.489 614.315L118.325 614.703C119.305 615.182 120.253 615.725 121.161 616.329C121.995 616.859 122.773 617.473 123.482 618.161C125.002 619.489 126.245 621.102 127.142 622.91C127.262 623.142 127.376 623.365 127.483 623.579C127.55 623.726 127.777 624.294 127.61 623.853C127.784 624.308 127.944 624.769 128.085 625.244C128.225 625.719 128.332 626.18 128.419 626.655C128.459 626.856 128.526 627.324 128.466 626.843C128.5 627.097 128.526 627.358 128.546 627.612C128.623 628.531 128.623 629.455 128.546 630.374C128.546 630.581 128.473 631.043 128.546 630.561C128.546 630.782 128.48 631.003 128.439 631.23C128.355 631.703 128.252 632.173 128.132 632.641C128.011 633.11 127.871 633.573 127.71 634.033C127.639 634.247 127.563 634.458 127.483 634.668L127.362 634.982C127.222 635.357 127.523 634.621 127.362 634.982C126.982 635.845 126.546 636.683 126.058 637.49C125.822 637.878 125.574 638.26 125.315 638.634L124.921 639.189C124.921 639.189 124.673 639.517 124.847 639.29C125.021 639.062 124.727 639.437 124.7 639.47C124.078 640.228 123.407 640.945 122.693 641.617C122.365 641.925 122.024 642.219 121.67 642.507L121.409 642.721C121.409 642.721 121.73 642.48 121.489 642.654L120.82 643.109C120.053 643.635 119.248 644.105 118.412 644.513L117.81 644.794C117.535 644.915 117.89 644.794 117.923 644.747L117.616 644.868C117.168 645.035 116.713 645.189 116.278 645.323C115.843 645.456 115.355 645.57 114.88 645.657L114.211 645.771C113.91 645.824 114.318 645.771 114.351 645.771L113.91 645.817C112.975 645.9 112.035 645.9 111.1 645.817L110.759 645.777C110.759 645.777 111.227 645.864 110.933 645.777C110.639 645.69 110.525 645.71 110.324 645.664C109.878 645.574 109.448 645.467 109.033 645.343C108.612 645.215 108.204 645.042 107.782 644.908C107.501 644.821 107.909 644.968 107.936 644.975L107.662 644.854L106.993 644.547C106.245 644.151 105.525 643.704 104.839 643.209L104.591 643.028C104.591 643.028 104.939 643.316 104.718 643.129L104.25 642.741C103.916 642.455 103.59 642.159 103.273 641.851C102.957 641.544 102.673 641.249 102.424 640.968L102.022 640.507C101.895 640.353 101.46 639.798 101.788 640.233C100.759 638.851 99.8862 637.359 99.186 635.785C99.3734 636.2 99.186 635.845 99.1325 635.638C99.079 635.43 98.9853 635.25 98.9184 635.056C98.7668 634.632 98.6285 634.204 98.5037 633.772C98.2574 632.912 98.0631 632.039 97.9217 631.157C97.9217 631.056 97.9217 630.956 97.8748 630.849C97.8748 630.849 97.9217 631.331 97.8748 631.03C97.828 630.729 97.8347 630.622 97.8146 630.414C97.779 629.968 97.7567 629.522 97.7477 629.077C97.7388 628.631 97.7388 628.223 97.7477 627.853C97.7477 627.652 97.7611 627.449 97.7879 627.244C97.7879 627.124 97.8682 626.441 97.828 626.782C97.7879 627.124 97.8682 626.528 97.8882 626.428C97.9284 626.196 97.973 625.973 98.022 625.759C98.1157 625.313 98.2249 624.89 98.3498 624.488C98.4636 624.1 98.5973 623.719 98.7378 623.345L98.8515 623.064C98.8515 623.064 98.6575 623.478 98.7913 623.218C98.9251 622.957 98.992 622.79 99.0923 622.549C99.4793 621.785 99.9267 621.054 100.43 620.362C100.591 620.141 100.397 620.402 100.37 620.435L100.618 620.134C100.783 619.938 100.952 619.744 101.126 619.552C101.527 619.106 101.949 618.685 102.39 618.288C102.578 618.119 102.769 617.952 102.966 617.787L103.26 617.546C103.701 617.211 104.156 616.877 104.598 616.609C105.46 616.086 106.353 615.617 107.274 615.205C108.208 614.83 109.164 614.51 110.137 614.249C110.681 614.106 111.229 613.981 111.782 613.874L112.552 613.74L112.94 613.68C112.652 613.72 112.859 613.68 113.027 613.68C114.109 613.564 115.196 613.511 116.285 613.52C116.806 613.52 117.328 613.544 117.85 613.593L118.626 613.667L119.014 613.713C118.733 613.68 118.927 613.713 119.094 613.713C121.397 614.009 123.623 614.735 125.657 615.854C126.53 616.344 127.318 616.972 127.991 617.713C128.152 617.88 128.299 618.061 128.459 618.235C128.781 618.589 128.352 618.047 128.62 618.435C128.926 618.867 129.209 619.313 129.47 619.773C129.577 619.974 129.679 620.177 129.777 620.382C129.851 620.536 130.032 621.01 129.878 620.596C130.052 621.057 130.212 621.525 130.346 622.007C130.48 622.489 130.573 622.903 130.654 623.345C130.654 623.452 130.767 624.067 130.734 623.806C130.701 623.545 130.774 624.254 130.787 624.395C130.863 625.39 130.863 626.389 130.787 627.384C130.787 627.665 130.734 627.946 130.707 628.234C130.654 628.735 130.754 628.013 130.667 628.515C130.58 629.016 130.48 629.565 130.366 630.086C130.138 631.099 129.85 632.098 129.503 633.076C129.418 633.312 129.331 633.535 129.242 633.745C129.195 633.859 128.968 634.414 129.128 634.046C128.921 634.541 128.687 635.029 128.459 635.511C127.987 636.46 127.457 637.38 126.874 638.266C126.575 638.712 126.265 639.158 125.944 639.604L125.703 639.932L125.576 640.106L125.095 640.701C122.289 644.211 118.72 647.036 114.659 648.961C114.07 649.242 113.936 649.302 113.548 649.456C113.004 649.67 112.456 649.866 111.903 650.044C110.795 650.401 109.664 650.68 108.518 650.88C108.411 650.88 107.762 651.001 108.143 650.947C107.876 650.981 107.608 651.014 107.341 651.034C106.756 651.088 106.172 651.119 105.588 651.128C105.073 651.128 104.551 651.128 104.036 651.128L103.293 651.068L102.919 651.028C103.193 651.028 103.073 651.028 102.865 651.028C101.796 650.858 100.741 650.61 99.7078 650.285C99.2328 650.131 98.7579 649.958 98.2896 649.784C97.8213 649.61 98.4167 649.85 97.9886 649.656L97.1992 649.282C96.2713 648.817 95.3772 648.287 94.5234 647.697L93.9146 647.262C93.54 646.995 94.0083 647.356 93.6537 647.061C93.2992 646.767 92.7707 646.312 92.356 645.911C91.9412 645.51 91.687 645.242 91.3258 644.848C91.1608 644.665 91.0002 644.48 90.8441 644.292L90.61 644.005C90.3491 643.684 90.8107 644.286 90.5632 643.951C89.9565 643.136 89.4173 642.273 88.951 641.37C88.8372 641.156 88.7369 640.935 88.6299 640.701C88.4225 640.266 88.6834 640.875 88.5095 640.427C88.3355 639.979 88.1483 639.437 88.0078 638.928C87.8616 638.42 87.741 637.904 87.6465 637.383C87.6465 637.236 87.5529 636.661 87.5997 637.103C87.5997 636.815 87.5462 636.534 87.5261 636.246C87.4833 635.287 87.5102 634.326 87.6064 633.37C87.5663 633.839 87.6064 633.37 87.6398 633.17C87.6733 632.969 87.7201 632.728 87.7669 632.501C87.8695 632.028 87.9922 631.562 88.1349 631.103C88.2686 630.682 88.4158 630.267 88.5764 629.852C88.6834 629.571 88.5429 629.926 88.5295 629.959L88.7101 629.558C88.8172 629.322 88.9309 629.099 89.0513 628.889C89.48 628.064 89.9673 627.27 90.5096 626.515C90.6033 626.381 90.911 625.973 90.6435 626.321C90.7839 626.14 90.9244 625.966 91.0716 625.793C91.3882 625.414 91.7182 625.044 92.0616 624.682C92.7558 623.954 93.493 623.269 94.2692 622.629L94.6505 622.315L95.0518 622.02C95.4666 621.717 95.8925 621.423 96.3296 621.137C97.1725 620.589 98.0399 620.083 98.9318 619.619C99.3778 619.396 99.8237 619.173 100.27 618.95L100.939 618.649L101.273 618.502C101.019 618.609 101.153 618.549 101.327 618.502C102.317 618.121 103.334 617.76 104.324 617.459C105.314 617.158 106.284 616.931 107.28 616.73C107.753 616.636 108.23 616.552 108.712 616.476L109.066 616.422C109.02 616.422 108.665 616.476 108.973 616.422L109.809 616.329C110.921 616.224 112.037 616.177 113.154 616.188C114.29 616.195 115.424 616.264 116.552 616.395C117.664 616.561 118.762 616.81 119.837 617.138C120.886 617.439 121.886 617.889 122.807 618.476C123.622 618.954 124.36 619.554 124.994 620.255C125.155 620.422 125.302 620.596 125.456 620.77L125.677 621.03C125.677 621.03 125.443 620.716 125.616 620.957C125.904 621.358 126.172 621.766 126.419 622.194C126.667 622.622 126.841 622.99 127.035 623.405C126.847 622.997 127.035 623.465 127.115 623.626C127.195 623.786 127.295 624.127 127.376 624.381C127.523 624.854 127.65 625.333 127.757 625.819C127.806 626.047 127.849 626.27 127.884 626.488C127.884 626.602 127.918 626.716 127.938 626.829C127.998 627.237 127.898 626.421 127.938 626.829C128.032 627.803 128.059 628.782 128.018 629.759C128.018 630.234 127.951 630.702 127.898 631.177C127.951 630.722 127.898 631.264 127.851 631.431C127.806 631.707 127.753 631.982 127.69 632.254C127.476 633.27 127.185 634.27 126.821 635.243C126.78 635.35 126.56 635.912 126.64 635.711C126.72 635.511 126.479 636.066 126.433 636.166C126.21 636.612 125.971 637.071 125.717 637.544C125.463 638.017 125.213 638.42 124.968 638.755C124.834 638.948 124.693 639.142 124.56 639.336C124.56 639.336 124.312 639.664 124.473 639.457C124.633 639.249 124.319 639.644 124.292 639.678C123.63 640.481 122.91 641.234 122.138 641.932C121.919 642.128 121.696 642.319 121.469 642.507L121.047 642.848L120.606 643.169C120.37 643.338 120.129 643.503 119.883 643.664C119.009 644.235 118.097 644.746 117.154 645.195L116.485 645.51C116.211 645.63 116.485 645.51 116.532 645.51L116.184 645.65C115.68 645.846 115.17 646.025 114.652 646.185C113.621 646.506 112.568 646.754 111.501 646.928C111.361 646.928 110.772 647.021 111.207 646.974L110.465 647.048C109.929 647.093 109.394 647.117 108.859 647.122C108.324 647.126 107.831 647.113 107.381 647.082L106.645 647.021L106.277 646.981C106.551 646.981 106.451 646.981 106.237 646.981C105.182 646.814 104.141 646.564 103.126 646.232L102.457 645.985C102.343 645.938 101.788 645.704 102.156 645.871C101.681 645.657 101.213 645.43 100.758 645.202C100.303 644.975 99.962 644.734 99.574 644.48L99.0054 644.085C98.7646 643.918 99.0054 644.085 99.0723 644.145L98.7111 643.858C97.9704 643.244 97.2792 642.573 96.644 641.851C96.4633 641.651 96.2961 641.443 96.1222 641.229C95.8145 640.861 96.2426 641.417 95.9616 641.022C95.6807 640.627 95.3864 640.199 95.1188 639.771C94.6127 638.95 94.1656 638.094 93.7809 637.21C93.9548 637.611 93.7809 637.123 93.6939 636.975C93.6069 636.828 93.5334 636.541 93.4598 636.307C93.2992 635.834 93.1543 635.355 93.0249 634.869C92.8956 634.383 92.7886 633.897 92.7038 633.411C92.6637 633.183 92.628 632.96 92.5968 632.742C92.6704 633.25 92.5968 632.581 92.5968 632.407C92.5206 631.459 92.5206 630.506 92.5968 629.558C92.5968 629.331 92.6436 629.103 92.657 628.889C92.6236 629.351 92.657 628.889 92.6905 628.682C92.7707 628.196 92.8755 627.717 93.0049 627.244C93.1342 626.771 93.2702 626.339 93.4129 625.946C93.4464 625.846 93.6738 625.278 93.5735 625.512C93.4731 625.746 93.6404 625.365 93.6738 625.298L93.8745 624.883C94.3151 624.031 94.8252 623.217 95.3997 622.448C95.1388 622.803 95.4399 622.402 95.5469 622.274L95.9817 621.773C96.2983 621.421 96.6306 621.082 96.9784 620.756C97.2928 620.455 97.6474 620.181 97.9618 619.9C98.1893 619.713 97.8882 619.947 97.8615 619.974L98.1224 619.78L98.7445 619.345C99.5289 618.82 100.349 618.351 101.2 617.94L101.795 617.66C102.243 617.446 101.521 617.76 101.989 617.573C102.457 617.385 102.892 617.225 103.327 617.071C105.188 616.45 107.103 616.002 109.046 615.733C108.592 615.8 109.127 615.733 109.294 615.733L110.003 615.66C110.52 615.606 111.04 615.564 111.562 615.533C112.572 615.466 113.569 615.432 114.599 615.426C116.693 615.426 118.78 615.506 120.867 615.68C121.884 615.765 122.898 615.867 123.911 615.987L125.349 616.168L125.61 616.202L126.433 616.322C138.012 618.027 149.565 619.967 161.131 621.793L178.19 624.468L176.638 620.649C175.43 622.801 174.108 624.886 172.677 626.896C172.325 627.387 171.968 627.875 171.607 628.361C171.547 628.441 171.059 629.077 171.306 628.762L170.637 629.578C169.879 630.519 169.099 631.442 168.296 632.347C166.627 634.22 164.863 636.006 163.011 637.698C162.119 638.514 161.205 639.307 160.268 640.079C159.822 640.467 159.352 640.848 158.857 641.223L158.549 641.463L158.455 641.53L157.626 642.152C153.654 645.094 149.409 647.647 144.949 649.777C144.401 650.04 143.85 650.294 143.297 650.539L142.467 650.907L142.113 651.061L141.899 651.155C140.779 651.601 139.649 652.046 138.507 652.492C136.148 653.344 133.749 654.08 131.309 654.7C128.87 655.319 126.455 655.803 124.064 656.151L123.168 656.278L122.834 656.318C122.191 656.398 121.547 656.467 120.9 656.525C119.652 656.641 118.403 656.726 117.154 656.78C112.03 656.977 106.9 656.611 101.855 655.689C95.6339 654.572 89.5196 652.934 83.2849 651.897C77.2187 650.794 71.019 650.627 64.9021 651.402C53.8955 652.993 43.6683 658.005 35.6687 665.729C34.7232 666.647 33.8157 667.601 32.946 668.591L37.2876 671.119L37.4013 670.852L37.6756 670.216L38.1171 669.2C38.4694 668.397 38.8262 667.597 39.1874 666.799C39.8965 665.238 40.6279 663.677 41.3816 662.117C42.8979 659.027 44.519 655.993 46.2449 653.014C49.5142 647.288 53.3582 641.91 57.7174 636.962C59.9452 634.457 62.3387 632.104 64.882 629.919C72.1064 623.728 80.7302 619.39 90.0079 617.278C91.5376 616.917 93.0785 616.605 94.6304 616.342C95.3886 616.213 96.1467 616.095 96.9048 615.987L97.4133 615.914C96.9718 615.974 97.4133 615.914 97.4868 615.914L98.7579 615.76C101.929 615.406 105.12 615.218 108.311 615.151C114.804 615.075 121.298 615.338 127.764 615.941C140.855 617.051 153.907 618.93 167.058 619.144C179.768 619.352 192.699 617.807 204.286 612.215C205.681 611.542 207.046 610.815 208.38 610.035L204.446 607.039L204.259 607.513C204.413 607.132 204.259 607.513 204.225 607.594C204.085 607.901 203.944 608.202 203.797 608.503C203.463 609.177 203.095 609.832 202.693 610.47C202.038 611.565 201.262 612.584 200.379 613.506C199.445 614.523 198.437 615.469 197.362 616.335C197.282 616.402 196.86 616.737 197.195 616.476L196.787 616.777C196.515 616.977 196.238 617.174 195.957 617.365C195.359 617.776 194.751 618.163 194.131 618.529C191.783 619.956 189.254 621.061 186.612 621.813C185.207 622.234 183.78 622.578 182.337 622.843L181.32 623.017C181.227 623.017 180.25 623.164 180.738 623.104C179.802 623.215 178.861 623.302 177.915 623.365C170.296 623.846 162.777 622.596 155.352 621.017C148.261 619.512 141.223 617.827 134.079 616.609C120.358 614.282 106.23 613.192 92.4764 615.867C85.7507 617.15 79.2664 619.475 73.2573 622.756C67.6913 625.884 62.578 629.757 58.0586 634.267C48.9274 643.249 41.9301 654.205 35.7356 665.341C34.9819 666.678 34.2372 668.041 33.5013 669.427L38.3445 670.765C38.3445 669.066 38.3445 667.367 38.4917 665.675C38.5497 664.828 38.6277 663.983 38.7258 663.14C38.7258 662.919 38.7794 662.699 38.8061 662.471C38.8061 662.411 38.873 661.963 38.8061 662.364C38.873 661.876 38.9466 661.395 39.0268 660.906C39.5731 657.558 40.3874 654.259 41.4619 651.041C41.7294 650.234 42.0126 649.434 42.3114 648.64C42.4363 648.305 42.5656 647.973 42.6994 647.643L42.9469 647.021L43.1008 646.647L43.1543 646.526C43.8277 644.966 44.5569 643.434 45.3418 641.932C46.921 638.923 48.7303 636.04 50.7536 633.31C51.5764 632.2 52.5933 630.943 53.7104 629.665C54.8276 628.388 55.9982 627.157 57.2157 625.98C58.4332 624.803 59.6976 623.666 61.002 622.589L62.0456 621.746C62.0456 621.746 62.4269 621.445 62.1526 621.659L62.5807 621.338C63.2943 620.803 64.019 620.281 64.7549 619.773C70.2645 616 76.3385 613.127 82.7498 611.259C85.9387 610.306 89.1823 609.546 92.463 608.985C93.288 608.842 94.1131 608.711 94.9381 608.59L95.5536 608.503L97.1323 608.309C98.8092 608.113 100.488 607.957 102.17 607.841C109.048 607.406 115.947 607.39 122.827 607.794C137.042 608.517 151.177 610.336 165.393 610.985C179.36 611.653 193.636 611.118 207.109 607.065C208.759 606.57 210.389 606.02 211.999 605.413L208.701 602.932C208.727 603.768 208.707 604.606 208.641 605.44C208.641 605.607 208.641 605.768 208.594 605.935C208.527 606.724 208.647 605.634 208.594 606.102C208.54 606.57 208.446 606.998 208.353 607.44C208.191 608.203 207.991 608.958 207.751 609.7C207.639 610.053 207.519 610.401 207.39 610.744C207.305 610.976 207.216 611.199 207.122 611.413C207.296 610.998 207.035 611.607 206.988 611.694C206.313 613.16 205.504 614.561 204.573 615.88C204.359 616.188 204.138 616.496 203.904 616.79C204.212 616.395 203.697 617.038 203.684 617.051L203.362 617.439C202.818 618.081 202.245 618.701 201.643 619.298C199.33 621.641 196.639 623.579 193.683 625.03C193.014 625.378 192.298 625.699 191.589 626.007C192.057 625.813 191.274 626.127 191.261 626.134L190.786 626.314C190.34 626.479 189.894 626.633 189.448 626.776C187.601 627.367 185.711 627.815 183.795 628.113C175.628 629.451 167.072 628.02 159.044 625.793C150.709 623.478 142.715 620.134 134.58 617.232C126.734 614.436 118.686 612.068 110.351 611.373C103.759 610.863 97.1288 611.353 90.6836 612.824C77.7073 615.827 65.7538 622.201 56.0317 631.304C46.3854 640.266 39.0068 651.877 35.7222 664.672C35.3253 666.224 34.9908 667.784 34.7188 669.354C34.5554 670.017 34.6522 670.718 34.9893 671.313C35.3264 671.907 35.8782 672.35 36.5316 672.551C37.7826 672.892 39.4884 672.129 39.7293 670.738C40.2896 667.507 41.1106 664.326 42.1843 661.227C42.4385 660.496 42.7061 659.769 42.9871 659.047C43.1209 658.704 43.2569 658.362 43.3951 658.024C43.3951 658.064 43.6895 657.355 43.549 657.656L43.8032 657.067C44.4454 655.614 45.1411 654.185 45.8903 652.78C47.4106 649.934 49.1319 647.201 51.0413 644.6L51.7772 643.617C52.0849 643.209 51.8842 643.47 51.8173 643.557L52.2722 642.975C52.7806 642.333 53.3001 641.7 53.8308 641.075C54.8922 639.827 56.0071 638.616 57.1756 637.444C59.4156 635.151 61.8021 633.006 64.3201 631.023C64.3201 631.023 64.989 630.508 64.5742 630.822L64.9689 630.521L65.959 629.786C66.6235 629.299 67.2924 628.825 67.9659 628.361C69.3038 627.433 70.693 626.553 72.1335 625.719C73.5739 624.885 75.0166 624.1 76.4616 623.365C77.1216 623.035 77.7906 622.714 78.4684 622.402L79.5856 621.893L80.0338 621.693L80.482 621.499H80.4285C83.4099 620.249 86.4744 619.208 89.5999 618.382C91.1786 617.967 92.7708 617.608 94.3762 617.305C95.1388 617.162 95.9037 617.033 96.6707 616.917C96.8179 616.917 97.8347 616.757 97.3397 616.824L98.798 616.65C101.966 616.312 105.155 616.218 108.337 616.369C109.976 616.449 111.615 616.589 113.241 616.803C112.746 616.737 113.288 616.803 113.408 616.803L114.077 616.91L115.689 617.185C116.759 617.376 117.825 617.599 118.887 617.854C123.124 618.841 127.303 620.064 131.403 621.519C147.612 627.13 164.035 635.13 181.668 633.504C189.343 632.917 196.667 630.055 202.707 625.284C208.058 621.024 212.3 614.904 213.537 608.115C213.864 606.374 214.008 604.603 213.965 602.832C213.919 601.28 212.32 599.715 210.674 600.323C207.369 601.553 203.988 602.567 200.553 603.36C198.885 603.748 197.208 604.087 195.522 604.377C194.679 604.524 193.834 604.66 192.987 604.785L192.318 604.878H192.204L190.726 605.065C183.674 605.84 176.576 606.099 169.487 605.841C155.111 605.433 140.828 603.614 126.479 602.711C112.512 601.828 98.2294 601.788 84.5827 605.279C70.936 608.771 58.4333 615.981 49.302 626.816C40.0229 637.728 34.4336 651.294 33.334 665.575C33.2137 667.267 33.1668 668.966 33.1869 670.665C33.1869 673.166 36.7791 674.296 38.0301 672.002C41.0805 666.337 44.2648 660.746 47.7835 655.362C51.1104 650.159 54.8818 645.253 59.0554 640.701C61.1915 638.385 63.4633 636.199 65.8587 634.153C73.0891 627.965 81.7022 623.606 90.9712 621.445C103.889 618.369 118.03 619.178 131.055 621.278C138.199 622.428 145.244 624.054 152.314 625.599C159.934 627.264 167.7 628.735 175.554 628.595C187.742 628.374 200.974 623.525 207.477 612.597C208.265 611.24 208.937 609.82 209.483 608.349C209.619 607.854 209.603 607.329 209.438 606.842C209.272 606.356 208.964 605.93 208.554 605.621C208.146 605.308 207.655 605.122 207.142 605.086C206.629 605.05 206.117 605.166 205.67 605.42C204.261 606.245 202.821 607.01 201.349 607.714C200.106 608.321 198.834 608.863 197.536 609.339C194.595 610.45 191.576 611.344 188.505 612.015C186.989 612.349 185.463 612.632 183.929 612.864L182.805 613.031C182.377 613.091 183.173 612.984 182.745 613.031L182.116 613.111C181.318 613.21 180.518 613.297 179.715 613.372C176.557 613.673 173.393 613.814 170.222 613.841C157.01 613.941 143.879 612.115 130.754 610.898C117.763 609.694 104.551 609.012 91.6603 611.486C78.4065 613.906 66.2426 620.412 56.8746 630.093C47.1078 639.912 39.9968 652.111 34.3508 664.665C33.615 666.297 32.9126 667.942 32.2169 669.594C31.7754 670.631 32.5112 672.002 33.4076 672.531C33.9051 672.817 34.4827 672.932 35.0518 672.858C35.621 672.784 36.1503 672.526 36.5584 672.123C43.6003 664.13 53.1092 658.716 63.5775 656.74C64.1796 656.624 64.7816 656.519 65.3837 656.425C66.0526 656.318 66.2266 656.298 67.0695 656.204C68.4074 656.062 69.7676 655.975 71.1501 655.944C74.0588 655.896 76.9668 656.079 79.8465 656.492C86.1548 657.402 92.3292 659.034 98.5772 660.251C104.059 661.384 109.644 661.942 115.241 661.916C120.316 661.827 125.37 661.229 130.326 660.13C140.215 657.938 149.59 653.864 157.94 648.132C166.395 642.37 173.597 634.958 179.113 626.341C179.759 625.315 180.379 624.274 180.972 623.218C181.715 621.88 181.133 619.673 179.421 619.399L141.477 613.379C135.738 612.476 130.011 611.446 124.245 610.744C119.836 610.148 115.38 609.986 110.94 610.262C102.303 610.931 93.0785 614.142 89.0714 622.482C85.0644 630.822 87.7937 641.396 94.7509 647.302C102.303 653.723 113.401 653.576 121.683 648.593C125.791 646.182 129.06 642.568 131.048 638.24C133.046 633.892 133.608 629.022 132.654 624.335C132.15 622 131.134 619.807 129.679 617.913C128.223 616.02 126.365 614.473 124.238 613.386C119.556 611.038 113.95 610.583 108.786 611.225C99.7546 612.349 90.5565 616.79 85.4858 624.602C83.0505 628.289 81.9505 632.698 82.3685 637.096C82.9516 641.982 85.2767 646.493 88.9175 649.804C92.4647 653.118 96.925 655.292 101.721 656.044C106.911 656.722 112.187 655.879 116.907 653.616C125.797 649.543 133.296 640.948 135.417 631.324C136.433 626.716 136.313 621.813 134.186 617.526C131.784 612.67 126.827 609.901 121.663 608.831C112.037 606.885 100.671 609.948 95.2793 618.676C90.9913 625.619 92.0817 634.936 96.4433 641.57C98.595 644.98 101.69 647.691 105.354 649.376C109.416 651.173 113.998 651.412 118.224 650.044C126.7 647.235 132.941 639.042 133.697 630.187C134.547 619.994 126.553 611.881 117.509 608.684C106.397 604.758 94.3361 608.396 84.2482 613.473C75.135 618.144 66.7627 624.137 59.4032 631.257C51.9525 638.483 45.3026 646.49 39.5687 655.141C36.7859 659.274 34.2171 663.521 31.7285 667.849C31.5564 668.143 31.4439 668.469 31.3976 668.807C31.3513 669.145 31.3721 669.489 31.4588 669.819C31.5454 670.15 31.6963 670.459 31.9027 670.731C32.1091 671.003 32.367 671.231 32.6617 671.404C32.9565 671.576 33.2823 671.688 33.6204 671.734C33.9586 671.781 34.3026 671.76 34.6328 671.673C34.9629 671.587 35.2728 671.436 35.5446 671.229C35.8165 671.023 36.0451 670.765 36.2173 670.471L36.2239 670.524ZM220.662 592.404C220.853 592.549 221.054 592.681 221.264 592.799C221.217 592.799 220.775 592.391 221.083 592.672L221.31 592.873C221.498 593.047 221.665 593.241 221.839 593.421C222.013 593.602 222.06 593.789 221.719 593.254C221.799 593.381 221.899 593.501 221.979 593.628C222.06 593.755 222.234 594.07 222.354 594.297C222.474 594.525 222.454 594.692 222.274 594.09C222.274 594.184 222.347 594.277 222.374 594.371C222.417 594.611 222.478 594.848 222.555 595.08C222.555 595.033 222.515 594.411 222.515 594.819C222.515 594.959 222.515 595.107 222.515 595.247C222.515 595.648 222.515 595.033 222.561 594.979C222.521 595.092 222.494 595.208 222.481 595.327C222.421 595.648 222.24 595.521 222.568 595.18C222.516 595.263 222.471 595.35 222.434 595.441C222.372 595.52 222.319 595.605 222.274 595.695C222.327 595.361 222.655 595.267 222.394 595.535C222.234 595.702 222.02 595.862 221.872 596.036C222.193 595.648 222.28 595.742 222.08 595.876L221.799 596.063C221.625 596.17 221.444 596.27 221.264 596.364L221.016 596.484C220.568 596.712 221.511 596.304 221.183 596.417C220.856 596.531 220.688 596.605 220.441 596.685C218.768 597.233 217.016 597.441 215.337 597.949C213.28 598.684 211.315 599.656 209.483 600.845C208.962 601.146 208.44 601.447 207.905 601.728L207.175 602.089L206.881 602.223C206.393 602.457 207.383 602.036 206.881 602.223C206.339 602.437 205.783 602.611 205.215 602.745L204.908 602.805C204.379 602.925 205.476 602.765 204.975 602.805C204.654 602.805 204.306 602.845 204.011 602.845C203.322 602.845 202.661 603.119 202.174 603.606C201.686 604.093 201.412 604.754 201.412 605.443C201.412 606.132 201.686 606.793 202.174 607.281C202.661 607.768 203.322 608.042 204.011 608.042C206.687 608.075 209.102 607.032 211.37 605.754C212.373 605.186 213.377 604.577 214.36 604.022C214.828 603.761 215.303 603.514 215.792 603.293C215.89 603.257 215.986 603.215 216.079 603.166C215.524 603.527 215.818 603.273 216.039 603.166C216.26 603.059 216.581 602.972 216.862 602.892C218.722 602.357 220.662 602.149 222.468 601.434C223.707 600.999 224.845 600.316 225.813 599.427C226.912 598.352 227.575 596.908 227.672 595.374C227.886 592.358 225.759 589.355 223.244 587.923C222.648 587.576 221.94 587.479 221.273 587.654C220.606 587.829 220.036 588.261 219.688 588.856C219.341 589.451 219.243 590.16 219.419 590.827C219.594 591.494 220.026 592.063 220.621 592.411L220.662 592.404ZM232.174 780.3C239.814 782.079 247.855 780.233 253.514 774.661C258.605 769.645 262.21 762.99 265.107 756.523C268.499 748.905 270.412 741.139 271.609 732.873C272.278 728.398 272.726 723.87 273.616 719.443C274.49 715.503 275.68 711.64 277.175 707.892C282.399 694.308 290.554 679.687 285.818 664.786C282.714 655.014 273.897 642.634 262.224 643.724C254.444 644.453 249.728 650.994 246.249 657.308C241.566 665.836 237.834 674.918 234.482 684.061C233.405 686.997 237.646 688.315 239.232 686.068C240.817 683.82 244.209 682.951 246.704 682.543C249.005 682.169 252.577 681.948 254.39 683.76C256.397 685.767 257.28 689.205 257.795 691.853C258.388 695.195 258.458 698.609 258.003 701.973C257.131 709.092 254.597 715.906 250.604 721.864C248.876 724.509 246.722 726.851 244.229 728.793C241.894 730.545 237.479 733.08 234.656 731.013C231.345 728.586 235.425 723.415 237.332 721.503C240.342 718.466 243.948 716.058 245.955 712.139C247.962 708.22 247.661 703.986 244.69 700.769C241.928 697.752 237.773 696.542 235.124 693.412C229.224 686.389 230.977 676.182 233.786 668.317C235.553 663.428 237.8 658.726 239.7 653.89C241.662 648.883 243.373 643.789 244.831 638.607C250.624 618.074 252.417 596.471 250.791 575.222C249.166 553.973 245.694 532.651 239.647 512.292C228.221 473.854 206.312 439.937 181.829 408.623C170.376 393.968 156.228 381.334 141.564 369.964C128.326 359.697 114.365 350.996 98.9519 344.395C98.0688 344.02 97.1858 343.652 96.3162 343.238C96.0219 343.097 95.7342 342.937 95.4398 342.803C95.1455 342.669 94.6104 342.174 95.3261 342.803C92.8176 340.649 89.2253 344.14 91.6536 346.475C94.0819 348.809 97.2126 350.528 100.183 352.16C104.437 354.494 108.732 356.748 112.893 359.249C122.486 365.008 131.336 371.957 139.825 379.254C157.218 394.176 173.54 411.024 185.842 430.48C197.362 448.706 205.978 468.684 212.648 489.15C216.967 502.096 220.374 515.329 222.842 528.752C224.542 538.396 226.053 548.148 226.856 557.913C227.839 569.644 227.92 581.991 223.418 593.08C222.16 596.177 227.184 597.521 228.428 594.458C232.442 584.526 232.937 573.416 232.388 562.835C231.84 552.254 230.127 541.734 228.475 531.26C226.421 518.829 223.515 506.554 219.779 494.521C213.644 474.262 205.69 454.391 195.201 435.978C183.541 415.518 168.001 397.747 150.655 381.909C141.457 373.509 131.757 365.429 121.402 358.5C116.198 355.016 110.739 351.972 105.233 348.996C101.889 347.184 98.0956 345.491 95.3328 342.809L91.6603 346.481C92.9179 347.558 94.5167 348.127 96.0218 348.769C98.9519 350.026 101.882 351.297 104.758 352.675C113.445 356.898 121.752 361.859 129.59 367.503C145.438 378.666 160.529 391.581 173.293 406.295C179.916 413.913 185.896 422.16 191.776 430.373C197.656 438.586 203.383 447.127 208.62 455.869C219.431 473.847 228.529 493.069 234.549 513.235C240.889 534.705 244.705 556.841 245.921 579.195C247.179 601.661 244.53 624.294 237.225 645.623C233.773 655.743 227.953 665.461 226.381 676.129C225.117 684.723 227.164 694.355 234.455 699.779C237.245 701.852 242.978 703.792 241.981 708.179C240.984 712.567 236.101 715.209 233.225 718.285C230.348 721.362 227.873 725.409 228.381 729.656C228.93 734.07 232.83 736.866 237.138 736.859C244.496 736.859 250.517 730.886 254.531 725.322C258.933 719.035 261.82 711.815 262.966 704.227C264.05 697.144 263.769 689.512 260.25 683.085C258.631 680.142 256.397 678.156 253.046 677.473C249.599 676.832 246.046 677.062 242.71 678.142C239.606 679.119 236.69 680.704 234.817 683.406L239.566 685.412C242.21 678.055 245.274 670.855 248.744 663.849C251.347 658.692 254.33 651.85 260.083 649.516C269.388 645.737 277.677 657.362 280.379 664.685C285.149 677.594 278.7 690.649 273.83 702.534C270.88 709.473 268.808 716.753 267.662 724.205C266.532 732.03 265.696 739.969 263.154 747.5C260.809 754.692 257.334 761.466 252.858 767.565C248.176 773.765 241.419 777.096 233.599 775.277C230.348 774.521 228.957 779.53 232.221 780.286L232.174 780.3ZM-70.6216 882.297C-59.3958 884.703 -47.743 884.224 -36.7524 880.906C-34.1769 880.116 -31.6081 878.946 -28.9189 878.611C-26.2297 878.277 -24.3834 879.401 -22.3163 880.966C-18.483 883.939 -13.9539 885.884 -9.15799 886.617C-4.37985 887.361 0.508453 886.901 5.064 885.28C7.44534 884.322 9.73193 883.145 11.894 881.762C14.032 880.359 16.5767 879.709 19.1254 879.916C21.8012 880.143 24.3633 881.073 26.8719 881.922C29.5479 882.857 32.2833 883.612 35.0599 884.183C40.7655 885.165 46.5503 885.613 52.3391 885.52C64.1528 885.52 78.2209 885.788 85.7868 874.98L80.9436 873.642C80.8366 877.655 78.5153 880.819 76.0803 883.728C72.9268 887.482 69.5774 891.068 66.046 894.469C58.4533 901.827 50.2854 908.675 41.1943 914.1C24.9788 923.784 5.51886 929.175 -13.3925 926.533C-32.3039 923.891 -47.9775 912.936 -61.2094 899.854C-64.8195 896.361 -68.063 892.509 -70.8892 888.356C-72.9697 885.233 -74.7959 881.962 -76.6489 878.705C-80.0807 872.685 -82.5959 864.82 -88.8707 861.075C-92.0616 859.168 -97.3062 858.573 -99.7546 861.951C-103.247 866.773 -97.7076 870.806 -94.0284 873.1C-85.5059 878.404 -74.7825 880.885 -64.8285 880.952C-59.0368 880.993 -53.2469 880.731 -47.4824 880.17C-41.8298 879.621 -36.2039 878.431 -30.5177 878.25C-27.9439 878.12 -25.3663 878.42 -22.8917 879.14C-20.4767 879.882 -18.1755 880.939 -15.8342 881.895C-10.9038 884.046 -5.4704 884.776 -0.147186 884.002C5.01047 883.206 9.33862 880.023 14.5163 879.394C19.8279 878.725 25.1862 879.889 30.3238 881.12C41.027 883.674 51.7705 886.37 62.8149 884.778C67.7513 884.123 72.4957 882.442 76.7425 879.842C80.9436 877.167 83.994 873.194 88.0412 870.378C89.5664 869.315 91.0515 867.783 92.7841 867.067C93.7407 866.673 93.8076 866.86 93.4531 867.736C92.2088 870.86 87.2251 871.575 84.4824 870.171C83.8134 869.843 83.4723 869.054 83.004 868.525C82.4309 867.928 81.7989 867.39 81.1175 866.92C79.5191 865.766 77.86 864.699 76.1472 863.723C71.4244 860.934 66.5945 858.319 61.8315 855.61C53.5499 850.928 45.3552 845.872 36.5785 842.113C27.2532 838.1 16.1352 835.298 6.43536 839.652C3.04373 841.177 -1.17737 844.253 -4.93689 842.2C-7.86023 840.602 -10.3354 837.084 -9.46573 833.78C-8.48904 830.074 -6.06744 826.911 -4.9971 823.225C-3.87997 819.386 -4.71613 815.748 -8.10104 813.454C-11.1582 811.387 -14.9244 810.598 -17.9414 808.471C-20.9584 806.344 -23.0723 803.241 -25.8551 800.913C-28.9564 798.353 -32.8197 796.895 -36.8394 796.766C-40.338 796.566 -43.8901 796.934 -47.362 796.385C-50.8339 795.837 -53.871 794.318 -54.5199 790.573C-55.3159 785.991 -52.707 781.209 -51.4828 776.915C-50.7202 774.24 -50.1449 771.565 -49.6231 768.823C-49.1281 766.221 -48.9073 763.405 -48.1113 760.883C-47.7126 759.867 -47.0123 758.996 -46.1044 758.389C-45.7238 758.104 -45.2924 757.896 -44.8334 757.773C-44.7531 757.773 -44.2782 757.606 -44.626 757.713C-44.9739 757.82 -44.626 757.673 -44.5457 757.713H-44.4454C-44.2402 757.713 -44.3138 757.713 -44.6662 757.713C-44.7799 757.633 -45.0742 757.472 -44.8 757.66C-44.9605 757.553 -45.4689 756.991 -45.3351 757.071C-45.2013 757.151 -45.3017 756.844 -45.3351 757.071C-45.3351 757.205 -45.3351 757.352 -45.3351 757.479C-45.5296 758.155 -45.7918 758.809 -46.1178 759.432C-47.113 761.1 -48.3131 762.637 -49.69 764.007C-52.5732 767.063 -55.8711 769.799 -58.3128 773.25C-64.3334 781.731 -67.7384 799.656 -55.5969 804.605C-51.9739 806.051 -47.9363 806.063 -44.3049 804.638C-40.7394 803.254 -37.0802 800.411 -33.1133 800.512C-29.8354 800.592 -27.9423 803.923 -26.3568 806.351C-24.1292 809.755 -21.6741 812.698 -18.0484 814.691C-13.9501 816.873 -9.34879 817.936 -4.7084 817.773C-0.0680237 817.61 4.44724 816.226 8.38199 813.761C12.297 811.291 15.806 808.229 18.7843 804.685C19.955 803.455 21.614 801.555 23.467 801.656C25.1327 801.742 26.7114 803.047 28.1028 803.856C32.1165 806.204 36.438 806.698 40.6123 804.378C42.5448 803.276 44.2077 801.757 45.4804 799.933C46.7532 798.109 47.6039 796.024 47.9708 793.83C49.6231 783.751 43.2881 774.32 37.515 766.655C34.5181 762.642 31.4074 758.743 28.6647 754.563C25.757 750.132 23.4196 745.352 21.7076 740.337C18.1907 730.257 15.6876 719.852 14.2354 709.276C12.7754 698.733 12.699 688.043 14.0079 677.48C15.4395 666.585 18.9047 656.077 22.7043 645.831C23.6676 643.229 24.6577 640.641 25.6477 638.046C26.6378 635.451 27.969 632.802 28.5176 630.1C29.0126 627.639 28.6447 625.03 26.6712 623.298C25.8031 622.523 24.6923 622.073 23.5293 622.027C22.3662 621.981 21.2232 622.34 20.2961 623.044C16.8175 625.719 16.8978 631.364 16.9045 635.303C16.9365 642.071 18.3577 648.76 21.0802 654.957C23.8027 661.153 27.7685 666.725 32.732 671.327C35.1937 673.581 38.8797 669.915 36.4045 667.655C29.8077 661.583 25.208 653.654 23.2128 644.914C22.2039 640.548 21.8789 636.051 22.2495 631.585C22.3297 630.622 22.3364 627.612 23.4536 627.124C23.0923 627.284 23.4068 627.124 23.5071 627.618C23.7479 628.762 23.1659 629.993 22.7712 631.05C18.898 641.517 14.61 651.844 11.7201 662.652C8.95956 673.057 7.68039 683.8 7.92041 694.562C8.19055 705.286 9.62381 715.95 12.195 726.365C14.7036 736.725 17.821 747.253 23.5673 756.302C28.7115 764.368 35.5483 771.364 39.9366 779.918C42.1308 784.192 43.9169 789.362 42.5388 794.171C41.5756 797.515 38.3044 800.86 34.605 800.786C32.7454 800.786 31.1466 799.649 29.6013 798.726C27.7951 797.643 25.9287 796.659 23.7947 796.485C19.0585 796.084 15.7673 800.271 12.8707 803.374C9.87378 806.618 5.92694 809.722 1.77942 811.32C-2.18561 812.772 -6.49139 813.018 -10.5963 812.029C-14.3692 811.146 -17.9548 809.274 -20.3296 806.123C-22.4769 803.261 -24.049 799.917 -26.9054 797.649C-30.384 794.887 -34.7389 794.84 -38.7593 796.419C-42.3716 797.836 -45.9907 800.612 -50.0111 800.532C-52.8542 800.472 -55.1888 799.569 -56.7675 797.535C-56.5468 797.816 -56.9749 797.201 -57.0351 797.114C-57.1957 796.853 -57.3428 796.592 -57.4833 796.325C-57.7311 795.858 -57.9178 795.361 -58.0386 794.847C-58.4028 793.68 -58.5834 792.464 -58.5737 791.242C-58.6707 785.802 -57.0638 780.467 -53.978 775.986C-51.6701 772.708 -48.3521 770.14 -45.6428 767.204C-43.1275 764.468 -40.1239 760.91 -40.2042 756.951C-40.2778 753.332 -43.7497 751.848 -46.8536 752.938C-48.4753 753.531 -49.9218 754.523 -51.0602 755.821C-52.1987 757.12 -52.9927 758.683 -53.3693 760.368C-54.4998 765.806 -55.2289 771.304 -56.8612 776.621C-58.2727 781.229 -60.3465 785.851 -59.7444 790.787C-59.5122 792.921 -58.6945 794.949 -57.3818 796.648C-56.069 798.346 -54.3123 799.649 -52.3056 800.411C-48.7936 801.829 -44.8334 801.87 -41.1006 801.883C-37.6354 801.883 -34.0365 801.756 -30.9593 803.602C-27.8821 805.448 -25.815 808.397 -23.2796 810.738C-20.3028 813.48 -16.8643 814.818 -13.2453 816.537C-12.4772 816.891 -11.7312 817.291 -11.011 817.734C-10.6215 817.978 -10.2718 818.28 -9.97415 818.63C-9.43228 819.721 -9.76672 821.092 -10.1882 822.349C-11.3923 825.961 -13.8206 829.124 -14.6167 832.89C-15.5197 837.15 -13.7002 841.371 -10.6497 844.354C-7.26483 847.664 -2.84973 848.888 1.68579 847.397C6.07413 845.959 9.76007 843.163 14.4628 842.769C25.0189 841.886 35.0064 846.688 44.0574 851.55C52.5999 856.145 60.982 861.075 69.4308 865.843C71.5314 867.034 73.6319 868.224 75.6789 869.509C77.0094 870.222 78.2305 871.123 79.3047 872.184C80.0472 873.02 80.5757 873.916 81.5657 874.511C82.5346 875.049 83.5857 875.421 84.6764 875.615C86.8879 876.08 89.177 876.03 91.3659 875.468C95.1656 874.445 98.9719 871.034 98.7846 866.773C98.7391 865.677 98.3551 864.623 97.6855 863.755C97.0158 862.886 96.0934 862.247 95.0452 861.924C92.9714 861.295 90.8575 862.024 89.1049 863.155C85.3895 865.671 81.906 868.514 78.6959 871.649C75.2097 874.995 70.9521 877.43 66.3001 878.738C55.9113 881.621 45.0809 879.407 34.8593 876.879C29.6548 875.602 24.4035 874.277 19.0251 874.05C16.2907 873.916 13.551 874.161 10.8839 874.779C8.29507 875.401 6.00055 876.645 3.52542 877.635C-1.22678 879.521 -6.49121 879.675 -11.3455 878.07C-16.2824 876.444 -20.7845 873.802 -26.0291 873.214C-31.568 872.585 -37.1003 873.702 -42.579 874.404C-48.2257 875.129 -53.906 875.562 -59.5973 875.702C-64.9489 875.836 -70.227 875.796 -75.4916 874.645C-80.3589 873.651 -85.0689 872.002 -89.4929 869.743C-91.5582 868.696 -93.4712 867.373 -95.179 865.81C-95.5804 865.429 -96.0085 865.141 -95.5269 864.84C-95.0317 864.682 -94.5047 864.652 -93.9949 864.753C-91.0917 865.041 -89.0045 867.562 -87.4057 869.963C-85.352 873.047 -83.7934 876.418 -82.0541 879.695C-80.5289 882.618 -78.8498 885.487 -77.1239 888.289C-72.1335 896.402 -65.6446 903.231 -58.4868 909.458C-51.3289 915.685 -43.7029 921.39 -35.0733 925.41C-17.1252 933.77 3.211 934.178 21.9886 928.339C41.6759 922.219 58.5336 909.705 72.7756 895.051C75.8147 891.977 78.6843 888.739 81.3717 885.353C84.0475 881.909 85.9942 878.083 86.1146 873.629C86.1882 870.88 82.6628 870.331 81.2714 872.291C75.2508 880.919 62.7146 880.237 53.4496 880.257C47.8571 880.257 42.2044 880.21 36.6922 879.193C31.3405 878.21 26.4103 875.769 21.0654 874.946C18.4241 874.448 15.7012 874.599 13.1316 875.388C10.6029 876.257 8.48904 877.849 6.1611 879.106C2.24286 881.133 -2.16293 882.027 -6.56128 881.688C-10.9596 881.348 -15.1763 879.79 -18.7375 877.187C-20.7845 875.682 -22.7512 874.077 -25.2999 873.568C-27.9933 873.14 -30.7507 873.384 -33.3274 874.277C-39.1673 876.043 -44.7732 877.842 -50.9008 878.364C-57.0475 878.897 -63.2392 878.523 -69.277 877.254C-72.5415 876.585 -73.9597 881.574 -70.6551 882.263L-70.6216 882.297ZM-69.2436 877.454C-71.2504 876.872 -73.2038 876.264 -75.1371 875.521C-75.2575 875.475 -75.6053 875.341 -75.0501 875.562L-75.4047 875.408L-76.0736 875.087C-76.5196 874.864 -76.9655 874.625 -77.4115 874.371C-77.8129 874.144 -78.2009 873.903 -78.5822 873.642L-79.1241 873.261C-79.2043 873.201 -79.5054 872.98 -79.1909 873.214C-78.8766 873.448 -79.2846 873.134 -79.3181 873.1C-80.0041 872.531 -80.6356 871.9 -81.2045 871.214C-81.2714 871.127 -81.3383 871.034 -81.4119 870.953C-81.3718 871 -81.0573 871.442 -81.3048 871.08C-81.4119 870.92 -81.5256 870.766 -81.6326 870.605C-81.8804 870.214 -82.1038 869.807 -82.3016 869.388C-82.3414 869.287 -82.3884 869.189 -82.4421 869.094C-82.4421 869.094 -82.2414 869.602 -82.3417 869.335C-82.4421 869.067 -82.4956 868.927 -82.5625 868.719C-82.7033 868.281 -82.815 867.834 -82.897 867.382C-82.9572 867.067 -82.7899 867.342 -82.897 867.549C-82.8846 867.458 -82.8846 867.366 -82.897 867.275C-82.897 867.154 -82.897 867.027 -82.897 866.907C-82.9304 866.559 -83.0241 867.395 -82.897 867.061C-82.897 866.947 -82.8301 866.827 -82.8033 866.713C-82.7431 866.439 -82.8635 866.927 -82.8903 866.934C-82.917 866.94 -82.7097 866.659 -82.7163 866.653C-82.9393 866.934 -82.9862 867 -82.8568 866.853L-82.6829 866.673C-81.9619 865.979 -81.2002 865.329 -80.4018 864.726L-80.1743 864.546C-79.8867 864.318 -80.5356 864.82 -80.2412 864.599L-79.6191 864.131C-79.2043 863.824 -78.7851 863.523 -78.3615 863.228C-76.6623 862.044 -74.903 860.954 -73.1035 859.931C-69.6316 857.924 -66.0259 856.226 -62.4403 854.453C-58.8547 852.681 -55.336 850.969 -51.737 849.37L-50.3389 848.761L-49.7234 848.501L-49.5897 848.447L-49.3689 848.353C-48.4279 847.961 -47.4802 847.58 -46.5258 847.21C-44.626 846.474 -42.7128 845.792 -40.7728 845.203C-38.8329 844.615 -36.933 844.06 -34.973 843.611C-34.0097 843.393 -33.0442 843.197 -32.0764 843.023L-30.7385 842.802L-30.103 842.708C-30.8656 842.836 -29.909 842.708 -29.7083 842.668C-27.8346 842.45 -25.9485 842.356 -24.0623 842.387C-23.6476 842.387 -23.2328 842.387 -22.8181 842.441L-22.3364 842.494C-23.1994 842.434 -22.5036 842.494 -22.2695 842.494C-21.5247 842.635 -20.7896 842.822 -20.0687 843.056C-19.3261 843.297 -18.597 843.571 -17.8745 843.866C-17.2925 844.106 -18.3896 843.645 -17.8076 843.866L-17.326 844.073L-16.1553 844.595C-14.523 845.337 -12.8974 846.093 -11.2318 846.755C-7.98807 848.172 -4.41095 848.647 -0.90976 848.126C-0.0672302 847.974 0.757629 847.736 1.55197 847.417C2.19415 847.217 2.7442 846.795 3.10397 846.227C3.45029 845.618 3.54395 844.897 3.36484 844.22C2.97015 843.003 1.51852 841.872 0.167236 842.408C-0.652313 842.737 -1.50436 842.979 -2.37479 843.13C-3.04373 843.237 -1.7995 843.076 -2.44171 843.13L-3.04373 843.177C-3.4649 843.198 -3.8869 843.198 -4.30807 843.177L-4.89676 843.137C-5.13089 843.137 -5.73294 842.963 -4.93689 843.137C-5.34494 843.043 -5.75974 843.003 -6.16779 842.909C-6.96475 842.731 -7.75092 842.508 -8.52249 842.24C-8.90378 842.107 -9.27841 841.966 -9.65302 841.826L-10.215 841.598L-10.4959 841.485L-10.3621 841.538C-11.1314 841.21 -11.8874 840.869 -12.65 840.515C-14.2822 839.766 -15.9145 839.017 -17.6002 838.395C-19.2406 837.777 -20.9539 837.375 -22.6977 837.197C-24.5893 837.052 -26.4903 837.079 -28.3771 837.278C-32.5691 837.657 -36.7114 838.464 -40.7394 839.685C-48.8806 842.107 -56.6204 845.752 -64.2197 849.497C-71.819 853.243 -79.5321 856.854 -85.9139 862.513C-86.9036 863.312 -87.6077 864.41 -87.9208 865.643C-88.1479 866.937 -88.0769 868.266 -87.7134 869.529C-87.1236 871.603 -86.0638 873.514 -84.6162 875.113C-81.7397 878.458 -77.5721 880.237 -73.4781 881.541C-72.4947 881.855 -71.4712 882.143 -70.5079 882.43C-70.1789 882.521 -69.8353 882.546 -69.4967 882.503C-69.1581 882.461 -68.8312 882.353 -68.5346 882.184C-68.238 882.015 -67.9775 881.79 -67.768 881.521C-67.5585 881.251 -67.4041 880.944 -67.3136 880.615C-67.2231 880.286 -67.1984 879.942 -67.2407 879.604C-67.283 879.265 -67.3915 878.938 -67.5602 878.642C-67.7289 878.345 -67.9542 878.085 -68.2236 877.875C-68.4929 877.666 -68.8009 877.511 -69.1299 877.421L-69.2436 877.454ZM232.97 775.658C230.181 769.638 221.331 756.188 213.377 762.95C207.303 768.1 210.607 777.745 217.611 779.838C236.094 785.356 256.036 755.827 236.282 744.965C227.666 740.23 219.651 746.771 215.618 754.175C209.671 765.097 206.058 777.852 202.239 789.623C198.151 802.197 194.579 814.925 191.669 827.834C189.174 838.93 186.986 850.126 183.575 860.994C175.882 885.48 159.011 905.298 141.705 923.744C123.489 943.14 103.327 960.697 83.0642 977.92C64.3334 993.845 43.7764 1008.76 20.1021 1016.28C8.3887 1020 -3.88666 1021.94 -16.162 1020.58C-28.2366 1019.25 -39.8898 1015.01 -50.6332 1009.46C-71.4578 998.68 -89.7136 983.197 -106.692 967.198C-123.67 951.2 -139.537 933.89 -152.522 914.541C-165.754 894.831 -174.303 874.017 -176.183 850.226C-178.19 825.239 -172.778 800.358 -161.466 777.992C-141.002 737.608 -103.012 709.53 -70.5748 679.346C-52.0247 662.083 -34.197 643.898 -16.7172 625.532C1.19073 606.724 18.403 587.208 33.8424 566.307C48.526 546.429 61.7112 525.28 71.13 502.373C81.087 478.383 85.5641 452.474 84.2348 426.534C82.8234 399.185 76.6155 371.69 68.9961 345.451C66.9892 338.602 62.1459 328.356 53.4562 329.486C45.0675 330.576 43.3684 341.024 47.3219 347.224C51.5029 353.778 61.109 356.674 68.4609 356.48L66.2199 355.196C89.6333 404.208 82.4755 463.066 59.7177 510.907C36.2173 560.314 -1.71252 600.798 -39.8363 639.263C-77.7661 677.527 -117.228 715.269 -146.2 761.104C-158.964 781.303 -169.781 803.16 -176.698 826.075C-179.655 835.86 -183.18 847.303 -181.682 857.63C-180.417 866.325 -175.868 874.351 -171.366 881.782C-159.947 900.569 -145.946 918.715 -143.09 941.187C-140.614 960.49 -146.802 980.649 -164.496 990.614C-169.558 993.359 -175.008 995.321 -180.658 996.433L-179.28 1001.44C-175.541 1000.24 -174.089 996.547 -173.172 993.022C-171.567 986.849 -171.212 980.167 -170.878 973.826C-170.209 960.898 -174.33 948.525 -180.31 937.208C-193.636 911.959 -213.517 890.39 -232.843 869.656C-271.174 828.549 -309.954 786.56 -341.883 740.17C-357.717 717.142 -371.672 692.683 -381.766 666.598C-392.652 638.113 -400.108 608.433 -403.975 578.185C-412.003 517.214 -407.113 454.859 -393.567 395.025C-387.339 367.496 -379.184 340.729 -366.922 315.247C-355.307 291.264 -341.151 268.597 -324.698 247.635C-292.099 205.913 -251.467 168.652 -203.904 144.835C-155.512 120.59 -100.363 109.962 -46.5995 117.854C-1.63898 124.456 45.0475 134.99 84.4489 158.472C94.0814 164.104 103.056 170.791 111.207 178.41C115.038 182.04 118.614 185.928 121.91 190.048C122.426 190.717 125.295 194.917 125.048 192.723C125.007 192.991 124.931 193.252 124.82 193.499C122.526 203.05 119.208 212.467 116.385 221.871C105.829 257.072 95.2191 292.286 83.3786 327.078C81.1978 333.479 78.9702 339.867 76.5686 346.187C75.592 348.762 79.1575 350.34 80.9102 348.715C82.917 346.883 83.8268 343.365 84.8168 340.997C87.0712 335.559 89.1249 330.035 91.1719 324.51C97.2928 307.977 103.14 291.336 109.006 274.709C114.98 257.787 120.914 240.853 127.068 223.985C129.282 217.898 131.503 211.812 133.871 205.786C134.848 203.298 135.765 199.285 137.651 197.258C136.982 197.98 139.818 196.489 140.467 196.315C143.077 195.728 145.756 195.503 148.428 195.646C154.463 195.865 160.47 196.574 166.389 197.766C179.16 200.087 192.024 202.328 204.399 206.307C234.629 216.019 260.665 235.923 282.098 258.965C303.532 282.006 320.169 309.301 329.474 339.566C339.08 370.827 342.579 404.375 337.093 436.747C334.402 452.868 329.401 468.517 322.242 483.211C314.797 498.373 305.184 512.332 295.531 526.15C276.874 552.856 257.093 580.78 252.424 613.867C251.295 621.71 251.171 629.664 252.056 637.537C252.43 640.821 257.628 640.881 257.253 637.537C253.159 601.695 272.024 569.316 291.591 540.878C310.837 512.94 330.524 485.826 339.047 452.424C354.82 390.611 338.418 321.594 299.612 271.552C280.727 247.193 256.511 224.794 228.876 210.735C214.159 203.231 198.225 198.308 181.963 195.405C171.199 193.486 160.469 190.811 149.498 190.429C144.086 190.242 135.624 190.135 132.574 195.586C130.567 199.224 129.229 203.391 127.717 207.27C121.897 222.446 116.539 237.809 111.12 253.132C104.705 271.278 98.3431 289.437 91.8275 307.549C87.593 319.32 83.8 331.56 78.3681 342.87C78.0447 343.416 77.7587 343.984 77.5118 344.568C77.3045 345.237 77.0503 345.184 77.2443 345.003L81.5858 347.531C94.2224 314.29 104.203 279.939 114.539 245.929C118.864 231.705 123.139 217.463 127.362 203.204C128.212 200.341 129.436 197.352 129.958 194.409C130.406 191.874 128.56 190.202 127.068 188.249C123.964 184.207 120.596 180.376 116.987 176.778C84.6362 144.527 37.4749 129.425 -6.10086 119.928C-29.3939 114.824 -53.2957 110.564 -77.1841 110.056C-103.762 109.595 -130.259 113.118 -155.793 120.509C-207.804 135.418 -252.952 164.94 -291.33 202.595C-329.213 239.756 -360.727 284.012 -380.569 333.392C-391.439 360.44 -398.243 389.073 -403.521 417.665C-409.242 448.273 -412.392 479.306 -412.939 510.439C-413.836 569.704 -404.43 630.207 -379.846 684.463C-356.54 735.909 -319.894 780.046 -282.848 822.095C-263.776 843.732 -244.048 864.767 -224.742 886.156C-214.604 897.215 -205.171 908.901 -196.499 921.143C-188.425 932.7 -180.651 945.08 -177.4 958.965C-175.788 965.847 -175.942 972.542 -176.511 979.532C-176.758 982.575 -176.718 995.169 -180.692 996.453C-183.882 997.483 -182.585 1002.16 -179.314 1001.46C-159.626 997.236 -143.772 984.314 -139.002 964.289C-134.059 943.555 -140.808 922.674 -151.043 904.676C-156.462 895.138 -162.817 886.176 -168.369 876.712C-172.798 869.167 -177.34 860.66 -176.792 851.651C-176.002 838.622 -171.44 825.372 -166.817 813.273C-162.709 802.594 -157.919 792.19 -152.475 782.126C-125.683 732.378 -85.158 692.121 -45.6361 652.466C-6.85681 613.593 32.5246 573.61 58.6139 524.719C83.4923 478.027 94.8044 421.217 77.7594 369.911C75.7813 364.003 73.4377 358.224 70.742 352.608C70.5168 352.214 70.1903 351.887 69.7963 351.661C69.4023 351.435 68.9551 351.319 68.501 351.324C64.5057 351.396 60.5548 350.477 57.0017 348.648C52.9077 346.642 47.8838 341.104 51.3892 336.322C55.356 330.918 60.6073 338.562 62.1995 341.866C64.708 347.077 65.6914 353.089 67.123 358.654C73.5583 383.682 79.1642 409.225 79.3314 435.175C79.6993 484.274 56.1855 527.989 27.4272 566.32C-1.11047 604.356 -35.2539 638.668 -69.6583 671.387C-99.3064 699.585 -132.921 724.72 -156.154 758.904C-179.882 793.817 -189.355 840.067 -175.628 880.705C-169.139 899.914 -157.827 917.23 -145.331 933.041C-132.527 949.247 -118.03 964.122 -102.665 977.9C-71.8525 1005.53 -33.8759 1033.11 9.80685 1024.3C31.3539 1019.96 50.9677 1009.05 68.5077 996.119C87.1783 982.354 104.631 966.583 121.643 950.832C139.364 934.552 155.643 916.768 170.296 897.68C183.615 880.196 189.763 860.553 194.445 839.351C199.676 815.681 206.119 792.533 214.688 769.792C217.216 763.104 223.177 743.039 234.195 749.727C246.47 757.185 234.79 772.561 224.869 774.802C222.046 775.471 217.778 775.578 216.046 772.655C215.203 771.23 215.243 768.595 216.354 767.304C220.2 762.917 227.365 775.772 228.502 778.233C229.907 781.263 234.389 778.628 232.99 775.611L232.97 775.658Z" fill="#665346"/>
</g>
<g opacity="0.4" clip-path="url(#clip1_1271:9462)">
<path opacity="0.4" d="M137.825 149.569C142.491 57.5433 53.1402 6.79598 -26.8196 8.0217C-128.351 9.60411 -239.682 56.0646 -320.375 115.522C-418.935 188.157 -495.682 310.424 -506.351 433.456C-510.602 482.381 -493.313 534.062 -457.133 567.935C-391.133 629.733 -290.49 617.534 -212.958 585.886C-35.2432 516.779 127.85 346.313 137.825 149.569Z" fill="#C28566"/>
</g>
<defs>
<clipPath id="clip0_1271:9462">
<rect width="758" height="894" fill="white" transform="translate(-413)"/>
</clipPath>
<clipPath id="clip1_1271:9462">
<rect width="663" height="594" fill="white" transform="translate(-507)"/>
</clipPath>
</defs>
</svg>
