<svg width="1920" height="536" viewBox="0 0 1920 536" fill="none" xmlns="http://www.w3.org/2000/svg">
<g clip-path="url(#clip0)">
<path opacity="0.1" d="M1574.11 1.64171C1639.19 -39.1483 1719.17 -59.6583 1798.84 -71.4683C1824.84 -75.3183 1851.95 -78.2683 1876.9 -71.7183C1894.9 -66.9983 1910.47 -57.6483 1925.71 -48.4383C1948.91 -34.4383 1973.09 -19.4383 1984.8 2.4417C1992.25 16.3617 1993.99 31.9617 1995.2 47.2617C1996.59 64.7817 1997.2 83.2617 1987.85 99.1117C1971.41 127.002 1931.15 137.412 1895.94 147.342C1825.84 167.092 1759.33 196.002 1699.56 232.752C1675.16 247.752 1651.64 264.152 1624.44 275.222C1597.24 286.292 1565.13 291.552 1537.09 282.932C1512.09 275.242 1493.28 257.382 1481.52 237.452C1431.12 152.072 1487.27 56.0617 1574.11 1.64171Z" fill="#DF936D"/>
<path d="M1302.21 81.6516C1250.21 63.7816 1203.6 33.5416 1157.54 3.6516C1134.94 -11.0384 1111.83 -26.1984 1095.84 -47.8984C1085.93 -61.3279 1079.14 -76.7928 1075.94 -93.173C1072.75 -109.553 1073.24 -126.439 1077.38 -142.606C1081.52 -158.773 1089.2 -173.818 1099.87 -186.65C1110.54 -199.482 1123.93 -209.78 1139.07 -216.798C1159.85 -226.438 1183.07 -229.508 1205.96 -230.478C1261.55 -232.838 1323.04 -220.238 1356.96 -176.158C1380.69 -145.348 1387.02 -104.158 1408.96 -72.0784C1424.73 -48.9884 1448.18 -31.1484 1459.96 -5.78841C1465.41 6.21289 1468 19.3108 1467.55 32.4824C1467.1 45.654 1463.61 58.5426 1457.35 70.1416C1446.8 89.3216 1419.24 114.662 1395.21 113.262C1381.92 112.482 1365.38 101.332 1352.31 97.0616C1335.71 91.6216 1318.75 87.3316 1302.21 81.6516Z" fill="white"/>
<path opacity="0.4" d="M1245.25 -12.7399C1261.02 4.83005 1277.34 21.8801 1293.02 39.5401C1303.89 51.7801 1317.67 63.38 1325.54 77.84C1333.32 92.14 1337.46 108.6 1345.18 122.76C1348.49 128.83 1353.8 132.06 1359.05 126.76C1361.38 124.43 1361.76 119.76 1364.78 118.02C1366.92 116.82 1369.47 117.91 1371.78 116.49C1375 114.49 1377.78 108.87 1381.29 106.41C1384.8 103.95 1387.72 105.66 1388.1 100.24C1388.32 97.01 1385.02 92.5 1382.86 90.34C1377.07 84.58 1367.57 81.03 1360.81 76.45C1352.92 71.163 1345.34 65.4373 1338.09 59.3C1323.91 47.15 1312.26 32.2301 1299.27 18.8801C1287.03 6.30005 1272.82 -4.80997 1261.77 -18.45C1256.04 -25.52 1256.77 -24.11 1262.84 -30.85C1267.27 -35.72 1275.67 -47.1199 1275.29 -54.1099C1274.92 -60.8799 1266.15 -63.5499 1260.58 -67.1099C1252.29 -72.3399 1244.1 -77.64 1236.25 -83.51C1221.09 -94.85 1206.02 -106.27 1190.67 -117.36C1165.95 -135.23 1140.67 -151.79 1116.48 -170.42C1106.32 -178.26 1092.33 -193.94 1080.98 -180.84C1069.63 -167.74 1078.05 -158.61 1086.88 -146.06C1111.4 -111.2 1142.37 -81.0599 1165.88 -45.5499C1171.75 -36.6899 1177.8 -27.82 1183.35 -18.76C1188.35 -10.55 1191.12 -0.759949 1198.27 5.98006C1204.36 11.7401 1213 9.53004 1220.04 5.43004C1228.77 0.360031 1236.57 -7.19995 1245.25 -12.7399ZM1272.19 -55.54C1268.56 -47.04 1266.39 -39.54 1260.04 -32.54C1256.15 -28.24 1251.57 -24.47 1247.4 -20.42C1243.22 -16.2839 1238.64 -12.5755 1233.73 -9.34996C1226.2 -4.43996 1219.73 2.89005 1210.92 5.31004C1202.11 7.73004 1199.21 2.96005 1194.92 -4.27995C1189.92 -12.71 1185.51 -21.21 1180.17 -29.45C1169.31 -46.18 1158.48 -61.51 1145.43 -76.63C1131.51 -92.74 1118.66 -109.82 1105.54 -126.57C1097.6 -136.71 1074.35 -158.79 1080.39 -172.39C1089.15 -192.08 1103.94 -176.6 1114.39 -167.46C1130.17 -153.65 1148.39 -142.46 1165.82 -130.83C1202.01 -106.62 1236.01 -79.69 1272.2 -55.54H1272.19ZM1338.19 63.9201C1350.1 72.0101 1361.61 80.51 1373.7 88.29C1376.65 90.1801 1385.76 96.29 1383.57 100.74C1382.57 102.82 1380.19 101.92 1378.57 103C1376.02 104.68 1374.48 106.8 1372.45 109.14C1371.76 109.93 1369.68 112.7 1368.75 113.14C1367.08 114 1364.51 113.43 1362.97 114.2C1359.42 115.98 1356.87 126.59 1351.89 125.83C1347.52 125.16 1344.89 112.54 1343.63 109.21C1341.16 102.75 1335.84 95.76 1335.41 88.8C1339.37 97.0463 1344.24 104.827 1349.92 112C1344.17 99.84 1339.21 83.08 1330.64 72.66C1328.85 73.6 1336.35 85.61 1334.24 86.71C1331.35 81.47 1328.76 76.07 1325.88 70.83C1331.06 70.6 1334.7 67.3801 1338.19 63.9201ZM1254.43 -21.14C1271.62 -3.13997 1289.66 13.95 1306.81 31.97C1313.97 39.4901 1324.68 48.8401 1331.39 58.1001C1332.67 59.463 1334.03 60.7486 1335.47 61.9501L1324.24 67.49C1324.24 67.49 1320.65 63.92 1319.04 62.3C1303.73 46.9 1289.44 30.2501 1274.77 14.2301C1267.37 6.15005 1258.46 -1.50995 1252 -10.34C1248.46 -15.16 1248.55 -17.66 1254.42 -21.14H1254.43ZM1113.43 -139.56C1125.66 -125.93 1138.66 -113.06 1150.26 -98.8299C1159.03 -88.0699 1168.06 -77.2299 1176.03 -65.8299C1179.82 -60.4099 1192.94 -46.26 1192.26 -38.98C1176.45 -59.44 1161.63 -80.98 1145.17 -100.91C1127.75 -122 1106.84 -140.4 1090.52 -162.23C1096.32 -163.24 1110.22 -143.1 1113.4 -139.56H1113.43ZM1247.98 -53.5C1241.18 -52.2599 1226.05 -67.35 1221.54 -70.82C1209.11 -80.41 1197.11 -90.5399 1184.92 -100.43C1200.77 -95.1399 1215.2 -79.43 1228.24 -69.51C1230.06 -68.12 1248.54 -54.44 1247.98 -53.5ZM1216.98 -4.49995C1215.86 -5.02995 1201.26 -21.6699 1203.32 -22.6099C1204.74 -23.2599 1212.79 -12.7899 1213.44 -11.8599C1213.84 -11.1099 1217.69 -5.18994 1216.93 -4.45995L1216.98 -4.49995ZM1336.26 69.61C1337.55 68.96 1351.08 81.43 1351.75 81.97C1352.42 82.51 1371.37 97.43 1367.63 99.15C1367.29 99.31 1356.21 88.95 1355.84 88.65C1353.93 87.06 1336.97 69.25 1336.26 69.61ZM1336.26 76.2C1341.12 75.8 1359.67 101.27 1358.79 105.58C1354.97 100.99 1350.42 97.08 1346.6 92.48C1345.25 90.92 1336.74 76.16 1336.21 76.21L1336.26 76.2Z" fill="#DF936D"/>
<path opacity="0.15" d="M1708.06 -124.271C1675.62 -93.0912 1639.92 -65.8213 1606.06 -36.3613L1604.61 -37.8413C1608.89 -44.7413 1613.02 -51.7313 1617.49 -58.5013C1623.12 -67.0313 1628.83 -75.5013 1634.88 -83.7513C1639.65 -90.2313 1645.04 -96.2613 1650.05 -102.561C1655.91 -109.921 1661.72 -117.321 1667.38 -124.841C1668.09 -125.791 1667.75 -127.531 1667.89 -128.901C1666.44 -128.341 1664.5 -128.201 1663.62 -127.161C1660.12 -123.041 1657.03 -118.581 1653.62 -114.351C1645.62 -104.351 1636.99 -94.6813 1629.5 -84.2513C1619.74 -70.6513 1610.79 -56.4713 1601.61 -42.4613C1598.23 -37.3013 1595.72 -31.4613 1591.87 -26.7313C1588.02 -22.0013 1582.78 -17.9613 1578.19 -13.6113C1569.03 -4.90128 1559.43 3.38873 1550.84 12.6387C1537.44 27.0587 1524.7 42.0787 1511.76 56.9287C1504.53 65.2287 1497.53 73.7287 1490.33 82.0587C1487.01 86.0081 1483.25 89.5616 1479.12 92.6487C1479.64 90.3022 1480.31 87.9909 1481.12 85.7287C1487.18 71.5287 1492.83 57.1087 1499.67 43.2887C1504.1 34.2887 1510.36 26.2887 1515.75 17.7887C1520.82 9.78873 1525.8 1.78873 1530.87 -6.21127C1538.67 -18.4813 1546.54 -30.7113 1554.35 -42.9713C1562.97 -56.245 1573.47 -68.1908 1585.54 -78.4313C1593.59 -85.4313 1601.86 -92.1313 1609.92 -99.1013C1619.4 -107.301 1628.76 -115.641 1638.15 -123.941C1638.72 -124.451 1639.45 -125.091 1639.56 -125.751C1639.65 -127.001 1639.62 -128.257 1639.47 -129.501C1638.4 -129.241 1637.04 -129.301 1636.29 -128.661C1627.63 -121.201 1619.19 -113.501 1610.45 -106.151C1600.45 -97.7613 1590.26 -89.7013 1580.22 -81.4013C1578.03 -79.651 1576.08 -77.6355 1574.39 -75.4013C1569.62 -68.8412 1561.69 -67.3513 1555.39 -63.2913C1542.5 -55.0013 1529.51 -47.0113 1518.01 -36.6313C1510.94 -30.2513 1502.47 -25.3213 1492.62 -23.6913C1488.76 -23.0513 1486.86 -23.8813 1485.94 -28.3513C1483.94 -38.2113 1489.47 -43.9513 1495.94 -49.4113C1501.83 -54.3513 1507.94 -59.1013 1513.82 -63.9913C1520.71 -69.6813 1527.26 -75.8413 1534.46 -81.0913C1551.64 -93.6213 1569.19 -105.631 1586.46 -118.091C1602.78 -129.841 1618.95 -141.811 1635.12 -153.781C1642.46 -159.221 1649.47 -165.091 1656.9 -170.401C1662.28 -174.241 1667.89 -177.745 1673.7 -180.891C1685.6 -187.331 1697.57 -193.671 1709.7 -199.581C1716.34 -202.811 1723.75 -204.511 1730.28 -207.911C1742.28 -214.191 1754.05 -221.081 1765.77 -227.911C1779.62 -236.031 1793.11 -244.781 1807.16 -252.541C1815.8 -257.311 1825.37 -260.381 1834.16 -264.881C1842.95 -269.381 1851.17 -275.001 1859.89 -279.601C1868.04 -283.861 1876.53 -287.501 1884.97 -291.191C1893.41 -294.881 1901.68 -298.261 1910.1 -301.661C1917.95 -304.831 1925.88 -307.791 1933.75 -310.931C1950.12 -317.461 1967.45 -316.851 1984.59 -318.001C1997.16 -318.871 2009.65 -320.871 2022.19 -322.241C2024.46 -322.491 2026.83 -321.851 2029.09 -322.131C2030.93 -322.361 2032.66 -323.361 2034.45 -324.021L2034.07 -325.611C2029.68 -325.611 2025.3 -325.721 2020.91 -325.611C2014.27 -325.401 2007.63 -325.121 2001.01 -324.691C1990.66 -324.021 1980.3 -322.301 1970.01 -322.621C1952.14 -323.191 1935.88 -317.861 1919.72 -311.421C1904.64 -305.421 1889.47 -299.621 1874.49 -293.361C1866.55 -290.041 1825.31 -267.631 1817.76 -263.441C1801.89 -254.641 1786.17 -245.581 1770.41 -236.591C1760.41 -230.901 1750.72 -224.691 1740.48 -219.511C1717.98 -208.141 1694.67 -198.241 1672.74 -185.881C1656.94 -177.001 1642.84 -165.161 1628 -154.541C1614.51 -144.871 1601.13 -135.041 1587.67 -125.331C1572.59 -114.451 1557.46 -103.661 1542.4 -92.7513C1533.77 -86.5013 1525.08 -80.3113 1516.74 -73.6813C1511.37 -69.4113 1506.74 -64.2513 1501.52 -59.7713C1497.9 -56.6613 1493.71 -54.2213 1490.07 -51.1313C1482.22 -44.4813 1479.43 -36.2413 1481.27 -25.8313C1482.34 -19.8313 1486.93 -18.2113 1491.78 -18.9213C1502.13 -20.4213 1511.23 -24.7713 1519.49 -31.1513C1530.31 -39.5013 1541.27 -47.6613 1552.24 -55.8213C1554.01 -57.0607 1556.08 -57.7811 1558.24 -57.9013C1555.91 -54.4513 1553.49 -51.0613 1551.24 -47.5513C1540.69 -30.9313 1530.24 -14.2413 1519.64 2.33871C1516.05 7.9487 1511.98 13.2587 1508.27 18.7987C1501.27 29.2287 1494.86 39.9287 1490.27 51.7987C1485.16 65.0787 1477.1 77.6487 1474.51 91.3287C1472.27 103.169 1464.51 110.769 1459.91 120.589C1456.62 127.589 1457.28 134.469 1459.08 141.369C1460.08 145.369 1466.17 147.059 1471.61 145.749C1489.61 141.409 1503.72 130.489 1517.51 118.869C1524.65 113.03 1532.22 107.729 1540.14 103.009C1536.48 113.719 1532.97 124.489 1529.14 135.129C1525.81 144.299 1521.98 153.329 1522.14 163.299C1522.28 166.546 1522.92 169.754 1524.03 172.809C1525.37 176.729 1530.5 178.969 1535.31 177.049C1539.77 175.259 1544.89 173.049 1547.62 169.409C1554.22 160.617 1560.13 151.329 1565.3 141.629C1571.22 130.579 1575.98 118.909 1581.35 107.559C1585.91 97.9287 1590.15 88.1187 1595.35 78.8587C1600.9 69.0387 1607.59 59.8587 1613.51 50.2387C1618.06 42.8387 1621.97 35.0387 1626.58 27.6787C1631.31 20.1387 1635.86 12.2787 1641.82 5.77872C1645.7 1.53873 1651.96 -0.521271 1657.15 -3.56128C1665.42 -8.42126 1673.71 -13.2413 1681.95 -18.1613C1692.31 -24.3313 1702.84 -30.0013 1712.58 -36.7513C1725.31 -45.4913 1739.58 -51.0113 1753.34 -57.5113C1765.67 -63.3113 1777.69 -69.9213 1790.34 -74.7913C1797.46 -77.5313 1805.63 -77.6513 1813.34 -78.6213C1817.87 -79.1913 1819.71 -75.8913 1820.34 -72.1313C1822.51 -58.7713 1820.02 -46.6713 1810.73 -36.2513C1801.68 -26.1013 1793.24 -15.3813 1783.9 -5.51129C1779.33 -0.641296 1773.38 2.99872 1767.84 6.99872C1755.49 15.8287 1742.71 24.0987 1730.69 33.3487C1720.89 40.8987 1710.91 48.6387 1704.18 59.2687C1700.34 65.471 1698.53 72.7188 1699.01 79.9987C1699.1 81.4452 1699.51 82.8531 1700.22 84.1208C1700.92 85.3884 1701.9 86.4842 1703.07 87.329C1704.25 88.1739 1705.6 88.7466 1707.03 89.006C1708.45 89.2653 1709.92 89.2047 1711.32 88.8287C1719.12 86.6415 1726.69 83.7045 1733.93 80.0587C1741.93 75.8387 1749.08 69.9087 1757 65.4387C1768 59.2287 1779.42 53.8287 1790.53 47.8287C1803.03 41.0887 1815.36 34.0287 1827.81 27.1887C1837.55 21.8387 1847.81 17.3087 1857.01 11.1187C1866.7 4.5787 1876.14 -2.74127 1884.17 -11.1813C1889.3 -16.5713 1892.09 -24.4013 1895.17 -31.4613C1901.38 -45.7213 1906.58 -60.4613 1913.12 -74.5313C1917.84 -84.4457 1923.27 -94.0042 1929.38 -103.131C1938.88 -117.631 1948.05 -132.491 1960.53 -144.751C1968.53 -152.601 1974.9 -162.451 1985.7 -167.001C1994.76 -170.821 2004.03 -174.171 2013.28 -177.501C2020.08 -179.941 2027.05 -182.001 2033.84 -184.371C2034.71 -184.681 2035.16 -186.181 2035.84 -187.131C2034.72 -187.721 2033.45 -188.991 2032.49 -188.791C2025.54 -187.341 2018.6 -185.791 2011.77 -183.871C2007.17 -182.571 2002.85 -180.291 1998.25 -178.991C1984.6 -175.174 1972.47 -167.236 1963.5 -156.261C1959.43 -151.391 1954.28 -147.421 1950.33 -142.461C1943.6 -134.021 1937.01 -125.461 1931.16 -116.371C1924.88 -106.661 1919.26 -96.4913 1913.79 -86.2913C1905.46 -70.7413 1897.62 -54.9313 1891.95 -38.1513C1886.42 -21.7613 1876.79 -8.22125 1862.21 1.13873C1850.37 8.73874 1837.93 15.4087 1825.69 22.3787C1815.47 28.1987 1805.23 33.9887 1794.88 39.5687C1783.88 45.5687 1772.62 51.1387 1761.59 57.1087C1757.11 59.5374 1752.79 62.2635 1748.67 65.2687C1738.08 73.1412 1726.18 79.0823 1713.52 82.8187C1707.25 84.6287 1702.9 81.1287 1704.43 73.5887C1706.76 62.1087 1713.43 54.2087 1721.99 46.6687C1731.61 38.1587 1742.6 31.9687 1752.99 24.7687C1766.01 15.6796 1778.46 5.79758 1790.27 -4.82129C1797.5 -11.2713 1803.27 -19.4413 1809.44 -27.0113C1813.31 -31.6528 1816.92 -36.4998 1820.27 -41.5313C1826.92 -51.7113 1826.85 -63.2713 1825.7 -74.7013C1825.05 -81.1313 1818.77 -85.0013 1812.16 -84.9813C1799.61 -84.9813 1788.7 -79.9113 1777.72 -74.6613C1767.4 -69.7213 1756.79 -65.4113 1746.39 -60.6613C1737.39 -56.5313 1728.12 -52.6613 1719.52 -47.7813C1708.22 -41.3313 1697.61 -33.6613 1686.4 -27.0313C1671.32 -18.1113 1655.89 -9.79129 1640.73 -1.03128C1626.66 7.10873 1613.25 15.9687 1601.11 27.1387C1588.77 38.5087 1580.17 52.7087 1568.87 64.7187C1557.57 76.7287 1546.45 88.7887 1534.16 99.5887C1521.87 110.389 1508.76 119.859 1495.38 129.039C1488.62 133.679 1480.65 136.729 1472.95 139.799C1467.33 142.039 1462.95 139.199 1463.07 133.209C1463.17 128.299 1464.13 122.889 1466.43 118.629C1473.43 105.709 1484.22 95.7787 1494.06 85.0487C1507.25 70.6487 1519.52 55.4187 1532.38 40.7087C1540.13 31.8487 1548.17 23.2487 1556.22 14.7087C1563.08 7.3887 1569.88 -0.031311 1577.22 -6.8913C1582.9 -12.2213 1589.42 -16.6413 1595.41 -21.6413C1615.11 -38.0813 1634.71 -54.6413 1654.41 -71.0813C1663.2 -78.4212 1672.41 -85.2713 1680.88 -92.9913C1689.88 -101.191 1700.68 -107.481 1707.27 -118.151C1708.13 -119.819 1708.85 -121.555 1709.42 -123.341L1708.06 -124.271ZM1627.45 11.7287L1629.18 13.2087C1626 19.1387 1623.06 25.2087 1619.6 30.9787C1609.23 48.2087 1597.94 64.9787 1588.35 82.5787C1579.14 99.5187 1571.9 117.519 1563.21 134.759C1558.23 144.51 1552.63 153.93 1546.44 162.959C1544.18 166.279 1539.92 168.559 1536.14 170.459C1531.73 172.669 1527.2 170.109 1527.44 165.229C1527.81 157.609 1528.44 149.759 1530.65 142.539C1534.43 130.269 1539.38 118.349 1544.19 106.409C1546.19 101.539 1545.46 95.9287 1550.24 91.7287C1556.74 86.0287 1562.43 79.3487 1568.02 72.7287C1577.8 61.1087 1587.12 49.0887 1596.91 37.4787C1599.35 34.5887 1602.91 32.6787 1605.86 30.1987C1613.08 23.9987 1620.25 17.8587 1627.45 11.7087V11.7287Z" fill="#402B1D"/>
<path d="M1730.02 57.51C1722.19 57.68 1716.02 61.04 1709.88 66.17C1705.17 70.097 1700.68 74.2765 1696.43 78.69C1693.96 81.25 1691.49 84.02 1690.34 87.52C1689.19 91.02 1689.72 95.45 1692.44 97.7C1695.16 99.95 1699.11 99.32 1702.44 98.19C1713.88 94.24 1723.55 85.93 1732.94 77.79C1735.38 75.68 1737.94 73.41 1739.05 70.25C1739.59 68.8074 1739.77 67.2548 1739.57 65.7278C1739.37 64.2008 1738.8 62.7457 1737.91 61.4893C1737.02 60.233 1735.83 59.2136 1734.46 58.52C1733.08 57.8264 1731.56 57.4796 1730.02 57.51ZM1490.3 112.84C1488.81 116.22 1485.91 118.97 1483.13 121.55C1472.42 131.55 1461.39 141.68 1448.87 147.86C1445.26 149.64 1441.05 151.06 1438.32 149.33C1435.59 147.6 1435.46 143.33 1437 139.6C1438.54 135.87 1441.41 132.6 1444.27 129.6C1449.21 124.347 1454.35 119.31 1459.69 114.49C1466.69 108.18 1473.54 103.62 1481.88 101.92C1488.12 100.66 1493.59 105.37 1490.29 112.85L1490.3 112.84ZM1515.11 -50C1513.69 -47 1511 -44.44 1508.44 -42.07C1498.56 -32.94 1488.39 -23.61 1476.98 -17.79C1473.69 -16.11 1469.88 -14.79 1467.47 -16.2C1465.06 -17.61 1465.06 -21.47 1466.55 -24.81C1468.04 -28.15 1470.7 -31.1 1473.34 -33.88C1477.91 -38.68 1482.66 -43.2933 1487.59 -47.72C1494.03 -53.51 1500.31 -57.72 1507.84 -59.48C1513.48 -60.72 1518.26 -56.68 1515.11 -50ZM1546.58 134.38C1547.19 138.02 1546.28 141.91 1545.38 145.6C1541.9 159.81 1538.29 174.37 1531.23 186.41C1529.23 189.88 1526.46 193.41 1523.23 193.41C1520 193.41 1517.54 189.96 1516.78 186.01C1516.02 182.06 1516.64 177.78 1517.36 173.67C1518.6 166.563 1520.13 159.527 1521.94 152.56C1524.31 143.45 1527.53 135.86 1533.56 129.86C1538.06 125.4 1545.22 126.32 1546.58 134.38Z" fill="#DF936D"/>
</g>
<defs>
<clipPath id="clip0">
<rect width="962" height="287" fill="white" transform="matrix(-1 0 0 1 2036 0)"/>
</clipPath>
</defs>
</svg>
