<svg width="1920" height="536" viewBox="0 0 1920 536" fill="none" xmlns="http://www.w3.org/2000/svg">
<g clip-path="url(#clip0)">
<path opacity="0.5" d="M608.763 627.109C592.714 672.753 532.328 694.599 489.845 672.021C470.336 681.756 447.827 679.486 426.591 676.617C403.375 674.28 380.91 672.321 357.579 670.587C265.652 663.736 245.914 668.176 224.071 655.739C147.958 709.887 54.7873 625.157 94.4624 544.853C134.138 464.549 208.108 391.162 297.197 369.945C395.301 346.579 493.338 384.071 556.821 453.924C575.186 474.132 579.87 514.349 595.852 536.479C618.273 567.52 621.063 592.083 608.763 627.109Z" fill="#665346"/>
<path opacity="0.3" d="M233.447 634.764C199.848 726.411 119.923 680.837 87.0241 687.102C29.0627 689.628 -9.59508 718.264 -50.2669 669.656C-100.478 703.885 -164.707 675.006 -176.151 618.97C-185.086 572.225 -146.854 526.459 -122.593 503.865C-65.2448 451.17 22.6266 429.687 98.2483 446.854C172.707 463.765 261.632 549.347 233.447 634.764Z" fill="#DF936D"/>
</g>
<g opacity="0.3" clip-path="url(#clip1)">
<path d="M1568.54 225.659C1568.19 226.254 1568.09 226.963 1568.27 227.629C1568.44 228.296 1568.87 228.866 1569.47 229.213C1570.06 229.561 1570.77 229.658 1571.44 229.483C1572.11 229.308 1572.68 228.876 1573.02 228.28C1573.92 226.608 1574.86 224.954 1575.85 223.318C1583.56 210.463 1593.78 198.858 1606.2 190.451C1612.81 185.893 1620.11 182.432 1627.83 180.205C1635.52 178.103 1643.5 177.168 1651.47 177.429C1668.2 177.83 1684.39 182.633 1700.1 188.237C1708.78 191.336 1717.37 194.694 1725.86 198.31C1732.55 201.166 1739.49 204.403 1745.17 208.771C1748.03 210.932 1750.56 213.488 1752.71 216.362C1754.99 219.649 1756.82 223.237 1758.12 227.023C1760.97 234.922 1762.59 243.182 1766 250.88L1769.56 247.302L1765.12 244.506C1752.26 236.434 1739.21 228.635 1725.78 221.539C1712.09 214.302 1697.96 207.714 1683.27 202.751C1669.79 198.196 1655.73 195.213 1641.47 194.892C1628.19 194.591 1614.74 196.671 1602.4 201.681C1589.65 206.903 1578.23 214.899 1568.96 225.09C1568.72 225.331 1568.52 225.617 1568.39 225.932C1568.26 226.247 1568.2 226.585 1568.2 226.926C1568.2 227.267 1568.26 227.605 1568.39 227.92C1568.52 228.235 1568.72 228.521 1568.96 228.762C1569.2 229.003 1569.48 229.194 1569.8 229.325C1570.11 229.455 1570.45 229.522 1570.79 229.522C1571.13 229.522 1571.47 229.455 1571.79 229.325C1572.1 229.194 1572.39 229.003 1572.63 228.762C1573.81 227.473 1575.02 226.214 1576.27 224.983C1585.47 215.888 1596.61 208.99 1608.85 204.804C1621.3 200.624 1634.01 199.4 1647.13 200.337C1653.9 200.835 1660.61 201.889 1667.2 203.487C1674.15 205.189 1680.99 207.313 1687.68 209.847C1701.91 215.124 1715.56 221.846 1728.86 229.123C1741.82 236.219 1754.45 243.911 1766.93 251.823C1767.43 252.107 1768.01 252.221 1768.58 252.147C1769.15 252.074 1769.68 251.817 1770.09 251.415C1770.48 251 1770.73 250.472 1770.8 249.906C1770.87 249.341 1770.77 248.766 1770.49 248.265C1769.69 246.459 1769.01 244.6 1768.39 242.721C1765.71 234.695 1764.04 226.247 1760.15 218.643C1756.44 211.392 1750.59 205.808 1743.75 201.5C1736.78 197.113 1729.07 194.003 1721.48 190.893C1712.68 187.29 1703.77 183.946 1694.76 180.86C1678.83 175.463 1662.02 171.497 1645.08 172.272C1636.61 172.59 1628.23 174.257 1620.28 177.208C1612.59 180.195 1605.37 184.294 1598.87 189.374C1586.27 199.079 1576.13 211.68 1568.57 225.639L1568.54 225.659ZM1759.78 303.524C1757.42 299.355 1754.91 295.275 1752.26 291.284C1749.58 287.325 1746.91 283.586 1744.02 280.068C1741.02 276.356 1737.81 272.81 1734.42 269.447C1732.77 267.811 1731.07 266.226 1729.32 264.692C1728.43 263.898 1727.51 263.118 1726.56 262.351L1725.26 261.301L1724.59 260.786L1724.12 260.425C1716.39 254.545 1707.64 249.335 1698.3 246.72C1695.8 246.005 1693.23 245.556 1690.63 245.382C1689.3 245.301 1687.96 245.301 1686.62 245.382C1686.05 245.418 1685.48 245.469 1684.91 245.536C1684.6 245.57 1684.91 245.536 1684.95 245.536L1684.56 245.597L1683.66 245.757C1682.54 245.977 1681.43 246.267 1680.34 246.627C1679.84 246.794 1679.35 246.974 1678.86 247.168C1678.74 247.205 1678.62 247.254 1678.51 247.315L1677.68 247.703C1676.7 248.182 1675.75 248.725 1674.84 249.329C1674.01 249.859 1673.23 250.473 1672.52 251.161C1671 252.489 1669.76 254.102 1668.86 255.91C1668.74 256.142 1668.62 256.365 1668.52 256.579C1668.45 256.726 1668.22 257.294 1668.39 256.853C1668.22 257.308 1668.06 257.769 1667.92 258.244C1667.78 258.719 1667.67 259.18 1667.58 259.655C1667.54 259.856 1667.47 260.324 1667.53 259.843C1667.5 260.097 1667.47 260.358 1667.45 260.612C1667.38 261.531 1667.38 262.455 1667.45 263.374C1667.45 263.581 1667.53 264.043 1667.45 263.561C1667.45 263.782 1667.52 264.003 1667.56 264.23C1667.65 264.703 1667.75 265.173 1667.87 265.641C1667.99 266.11 1668.13 266.573 1668.29 267.033C1668.36 267.247 1668.44 267.458 1668.52 267.668L1668.64 267.982C1668.78 268.357 1668.48 267.621 1668.64 267.982C1669.02 268.845 1669.45 269.683 1669.94 270.49C1670.18 270.878 1670.43 271.26 1670.69 271.634L1671.08 272.189C1671.08 272.189 1671.33 272.517 1671.15 272.29C1670.98 272.062 1671.27 272.437 1671.3 272.47C1671.92 273.228 1672.59 273.945 1673.31 274.617C1673.64 274.925 1673.98 275.219 1674.33 275.507L1674.59 275.721C1674.59 275.721 1674.27 275.48 1674.51 275.654L1675.18 276.109C1675.95 276.635 1676.75 277.105 1677.59 277.513L1678.19 277.794C1678.47 277.915 1678.11 277.794 1678.08 277.747L1678.38 277.868C1678.83 278.035 1679.29 278.189 1679.72 278.322C1680.16 278.456 1680.65 278.57 1681.12 278.657L1681.79 278.771C1682.09 278.824 1681.68 278.771 1681.65 278.771L1682.09 278.817C1683.03 278.9 1683.97 278.9 1684.9 278.817L1685.24 278.777C1685.24 278.777 1684.77 278.864 1685.07 278.777C1685.36 278.69 1685.48 278.71 1685.68 278.664C1686.12 278.574 1686.55 278.467 1686.97 278.343C1687.39 278.215 1687.8 278.042 1688.22 277.908C1688.5 277.821 1688.09 277.968 1688.06 277.975L1688.34 277.854L1689.01 277.547C1689.76 277.151 1690.48 276.704 1691.16 276.209L1691.41 276.028C1691.41 276.028 1691.06 276.316 1691.28 276.129L1691.75 275.741C1692.08 275.455 1692.41 275.159 1692.73 274.851C1693.04 274.544 1693.33 274.249 1693.58 273.968L1693.98 273.507C1694.11 273.353 1694.54 272.798 1694.21 273.233C1695.24 271.851 1696.11 270.359 1696.81 268.785C1696.63 269.2 1696.81 268.845 1696.87 268.638C1696.92 268.43 1697.02 268.25 1697.08 268.056C1697.23 267.632 1697.37 267.204 1697.5 266.772C1697.74 265.912 1697.94 265.039 1698.08 264.157C1698.08 264.056 1698.08 263.956 1698.13 263.849C1698.13 263.849 1698.08 264.331 1698.13 264.03C1698.17 263.729 1698.17 263.622 1698.19 263.414C1698.22 262.968 1698.24 262.522 1698.25 262.077C1698.26 261.631 1698.26 261.223 1698.25 260.853C1698.25 260.652 1698.24 260.449 1698.21 260.244C1698.21 260.124 1698.13 259.441 1698.17 259.782C1698.21 260.124 1698.13 259.528 1698.11 259.428C1698.07 259.196 1698.03 258.973 1697.98 258.759C1697.88 258.313 1697.78 257.89 1697.65 257.488C1697.54 257.1 1697.4 256.719 1697.26 256.345L1697.15 256.064C1697.15 256.064 1697.34 256.478 1697.21 256.218C1697.08 255.957 1697.01 255.79 1696.91 255.549C1696.52 254.785 1696.07 254.054 1695.57 253.362C1695.41 253.141 1695.6 253.402 1695.63 253.435L1695.38 253.134C1695.22 252.938 1695.05 252.744 1694.87 252.552C1694.47 252.106 1694.05 251.685 1693.61 251.288C1693.42 251.119 1693.23 250.952 1693.03 250.787L1692.74 250.546C1692.3 250.211 1691.84 249.877 1691.4 249.61C1690.54 249.086 1689.65 248.617 1688.73 248.205C1687.79 247.83 1686.84 247.51 1685.86 247.249C1685.32 247.106 1684.77 246.981 1684.22 246.874L1683.45 246.74L1683.06 246.68C1683.35 246.72 1683.14 246.68 1682.97 246.68C1681.89 246.564 1680.8 246.511 1679.72 246.52C1679.19 246.52 1678.67 246.544 1678.15 246.593L1677.37 246.667L1676.99 246.713C1677.27 246.68 1677.07 246.713 1676.91 246.713C1674.6 247.009 1672.38 247.735 1670.34 248.854C1669.47 249.344 1668.68 249.972 1668.01 250.713C1667.85 250.88 1667.7 251.061 1667.54 251.235C1667.22 251.589 1667.65 251.047 1667.38 251.435C1667.07 251.867 1666.79 252.313 1666.53 252.773C1666.42 252.974 1666.32 253.177 1666.22 253.382C1666.15 253.536 1665.97 254.01 1666.12 253.596C1665.95 254.057 1665.79 254.525 1665.65 255.007C1665.52 255.489 1665.43 255.903 1665.35 256.345C1665.35 256.452 1665.23 257.067 1665.27 256.806C1665.3 256.545 1665.23 257.254 1665.21 257.395C1665.14 258.39 1665.14 259.389 1665.21 260.384C1665.21 260.665 1665.27 260.946 1665.29 261.234C1665.35 261.735 1665.25 261.013 1665.33 261.515C1665.42 262.016 1665.52 262.565 1665.63 263.086C1665.86 264.099 1666.15 265.098 1666.5 266.076C1666.58 266.312 1666.67 266.535 1666.76 266.745C1666.81 266.859 1667.03 267.414 1666.87 267.046C1667.08 267.541 1667.31 268.029 1667.54 268.511C1668.01 269.46 1668.54 270.38 1669.13 271.266C1669.43 271.712 1669.74 272.158 1670.06 272.604L1670.3 272.932L1670.42 273.106L1670.91 273.701C1673.71 277.211 1677.28 280.036 1681.34 281.961C1681.93 282.242 1682.06 282.302 1682.45 282.456C1683 282.67 1683.54 282.866 1684.1 283.044C1685.21 283.401 1686.34 283.68 1687.48 283.88C1687.59 283.88 1688.24 284.001 1687.86 283.947C1688.12 283.981 1688.39 284.014 1688.66 284.034C1689.24 284.088 1689.83 284.119 1690.41 284.128C1690.93 284.128 1691.45 284.128 1691.96 284.128L1692.71 284.068L1693.08 284.028C1692.81 284.028 1692.93 284.028 1693.14 284.028C1694.2 283.858 1695.26 283.61 1696.29 283.285C1696.77 283.131 1697.24 282.957 1697.71 282.784C1698.18 282.61 1697.58 282.85 1698.01 282.657L1698.8 282.282C1699.73 281.817 1700.62 281.287 1701.48 280.697L1702.09 280.262C1702.46 279.995 1701.99 280.356 1702.35 280.061C1702.7 279.767 1703.23 279.312 1703.64 278.911C1704.06 278.51 1704.31 278.242 1704.67 277.848C1704.84 277.665 1705 277.48 1705.16 277.293L1705.39 277.005C1705.65 276.684 1705.19 277.286 1705.44 276.951C1706.04 276.136 1706.58 275.273 1707.05 274.37C1707.16 274.156 1707.26 273.935 1707.37 273.701C1707.58 273.266 1707.32 273.875 1707.49 273.427C1707.66 272.979 1707.85 272.437 1707.99 271.928C1708.14 271.42 1708.26 270.904 1708.35 270.383C1708.35 270.236 1708.45 269.661 1708.4 270.103C1708.4 269.815 1708.45 269.534 1708.47 269.246C1708.52 268.287 1708.49 267.326 1708.39 266.37C1708.43 266.839 1708.39 266.37 1708.36 266.17C1708.33 265.969 1708.28 265.728 1708.23 265.501C1708.13 265.028 1708.01 264.562 1707.87 264.103C1707.73 263.682 1707.58 263.267 1707.42 262.852C1707.32 262.571 1707.46 262.926 1707.47 262.959L1707.29 262.558C1707.18 262.322 1707.07 262.099 1706.95 261.889C1706.52 261.064 1706.03 260.27 1705.49 259.515C1705.4 259.381 1705.09 258.973 1705.36 259.321C1705.22 259.14 1705.08 258.966 1704.93 258.793C1704.61 258.414 1704.28 258.043 1703.94 257.682C1703.24 256.954 1702.51 256.269 1701.73 255.629L1701.35 255.315L1700.95 255.02C1700.53 254.717 1700.11 254.423 1699.67 254.137C1698.83 253.589 1697.96 253.083 1697.07 252.619C1696.62 252.396 1696.18 252.173 1695.73 251.95L1695.06 251.649L1694.73 251.502C1694.98 251.609 1694.85 251.549 1694.67 251.502C1693.68 251.121 1692.67 250.76 1691.68 250.459C1690.69 250.158 1689.72 249.931 1688.72 249.73C1688.25 249.636 1687.77 249.552 1687.29 249.476L1686.93 249.422C1686.98 249.422 1687.34 249.476 1687.03 249.422L1686.19 249.329C1685.08 249.224 1683.96 249.177 1682.85 249.188C1681.71 249.195 1680.58 249.264 1679.45 249.395C1678.34 249.561 1677.24 249.81 1676.16 250.138C1675.11 250.439 1674.11 250.889 1673.19 251.476C1672.38 251.954 1671.64 252.554 1671.01 253.255C1670.85 253.422 1670.7 253.596 1670.54 253.77L1670.32 254.03C1670.32 254.03 1670.56 253.716 1670.38 253.957C1670.1 254.358 1669.83 254.766 1669.58 255.194C1669.33 255.622 1669.16 255.99 1668.97 256.405C1669.15 255.997 1668.97 256.465 1668.89 256.626C1668.81 256.786 1668.7 257.127 1668.62 257.381C1668.48 257.854 1668.35 258.333 1668.24 258.819C1668.19 259.047 1668.15 259.27 1668.12 259.488C1668.12 259.602 1668.08 259.716 1668.06 259.829C1668 260.237 1668.1 259.421 1668.06 259.829C1667.97 260.803 1667.94 261.782 1667.98 262.759C1667.98 263.234 1668.05 263.702 1668.1 264.177C1668.05 263.722 1668.1 264.264 1668.15 264.431C1668.19 264.707 1668.25 264.982 1668.31 265.254C1668.52 266.27 1668.82 267.27 1669.18 268.243C1669.22 268.35 1669.44 268.912 1669.36 268.711C1669.28 268.511 1669.52 269.066 1669.57 269.166C1669.79 269.612 1670.03 270.071 1670.28 270.544C1670.54 271.017 1670.79 271.42 1671.03 271.755C1671.17 271.949 1671.31 272.142 1671.44 272.336C1671.44 272.336 1671.69 272.664 1671.53 272.457C1671.37 272.249 1671.68 272.644 1671.71 272.678C1672.37 273.481 1673.09 274.234 1673.86 274.932C1674.08 275.128 1674.3 275.319 1674.53 275.507L1674.95 275.848L1675.39 276.169C1675.63 276.338 1675.87 276.503 1676.12 276.664C1676.99 277.235 1677.9 277.746 1678.85 278.195L1679.52 278.51C1679.79 278.63 1679.52 278.51 1679.47 278.51L1679.82 278.65C1680.32 278.846 1680.83 279.025 1681.35 279.185C1682.38 279.506 1683.43 279.754 1684.5 279.928C1684.64 279.928 1685.23 280.021 1684.79 279.974L1685.54 280.048C1686.07 280.093 1686.61 280.117 1687.14 280.122C1687.68 280.126 1688.17 280.113 1688.62 280.082L1689.36 280.021L1689.72 279.981C1689.45 279.981 1689.55 279.981 1689.76 279.981C1690.82 279.814 1691.86 279.564 1692.87 279.232L1693.54 278.985C1693.66 278.938 1694.21 278.704 1693.84 278.871C1694.32 278.657 1694.79 278.43 1695.24 278.202C1695.7 277.975 1696.04 277.734 1696.43 277.48L1697 277.085C1697.24 276.918 1697 277.085 1696.93 277.145L1697.29 276.858C1698.03 276.244 1698.72 275.573 1699.36 274.851C1699.54 274.651 1699.7 274.443 1699.88 274.229C1700.19 273.861 1699.76 274.417 1700.04 274.022C1700.32 273.627 1700.61 273.199 1700.88 272.771C1701.39 271.95 1701.83 271.094 1702.22 270.21C1702.05 270.611 1702.22 270.123 1702.31 269.975C1702.39 269.828 1702.47 269.541 1702.54 269.307C1702.7 268.834 1702.85 268.355 1702.98 267.869C1703.1 267.383 1703.21 266.897 1703.3 266.411C1703.34 266.183 1703.37 265.96 1703.4 265.742C1703.33 266.25 1703.4 265.581 1703.4 265.407C1703.48 264.459 1703.48 263.506 1703.4 262.558C1703.4 262.331 1703.36 262.103 1703.34 261.889C1703.38 262.351 1703.34 261.889 1703.31 261.682C1703.23 261.196 1703.12 260.717 1703 260.244C1702.87 259.771 1702.73 259.339 1702.59 258.946C1702.55 258.846 1702.33 258.278 1702.43 258.512C1702.53 258.746 1702.36 258.365 1702.33 258.298L1702.13 257.883C1701.69 257.031 1701.18 256.217 1700.6 255.448C1700.86 255.803 1700.56 255.402 1700.45 255.275L1700.02 254.773C1699.7 254.421 1699.37 254.082 1699.02 253.756C1698.71 253.455 1698.35 253.181 1698.04 252.9C1697.81 252.713 1698.11 252.947 1698.14 252.974L1697.88 252.78L1697.26 252.345C1696.47 251.82 1695.65 251.351 1694.8 250.94L1694.21 250.66C1693.76 250.446 1694.48 250.76 1694.01 250.573C1693.54 250.385 1693.11 250.225 1692.67 250.071C1690.81 249.45 1688.9 249.002 1686.95 248.733C1687.41 248.8 1686.87 248.733 1686.71 248.733L1686 248.66C1685.48 248.606 1684.96 248.564 1684.44 248.533C1683.43 248.466 1682.43 248.432 1681.4 248.426C1679.31 248.426 1677.22 248.506 1675.13 248.68C1674.12 248.765 1673.1 248.867 1672.09 248.987L1670.65 249.168L1670.39 249.202L1669.57 249.322C1657.99 251.027 1646.44 252.967 1634.87 254.793L1617.81 257.468L1619.36 253.649C1620.57 255.801 1621.89 257.886 1623.32 259.896C1623.68 260.387 1624.03 260.875 1624.39 261.361C1624.45 261.441 1624.94 262.077 1624.69 261.762L1625.36 262.578C1626.12 263.519 1626.9 264.442 1627.7 265.347C1629.37 267.22 1631.14 269.006 1632.99 270.698C1633.88 271.514 1634.8 272.307 1635.73 273.079C1636.18 273.467 1636.65 273.848 1637.14 274.223L1637.45 274.463L1637.55 274.53L1638.37 275.152C1642.35 278.094 1646.59 280.647 1651.05 282.777C1651.6 283.04 1652.15 283.294 1652.7 283.539L1653.53 283.907L1653.89 284.061L1654.1 284.155C1655.22 284.601 1656.35 285.046 1657.49 285.492C1659.85 286.344 1662.25 287.08 1664.69 287.7C1667.13 288.319 1669.55 288.803 1671.94 289.151L1672.83 289.278L1673.17 289.318C1673.81 289.398 1674.45 289.467 1675.1 289.525C1676.35 289.641 1677.6 289.726 1678.85 289.78C1683.97 289.977 1689.1 289.611 1694.15 288.689C1700.37 287.572 1706.48 285.934 1712.72 284.897C1718.78 283.794 1724.98 283.627 1731.1 284.402C1742.1 285.993 1752.33 291.005 1760.33 298.729C1761.28 299.647 1762.18 300.601 1763.05 301.591L1758.71 304.119L1758.6 303.852L1758.32 303.216L1757.88 302.2C1757.53 301.397 1757.17 300.597 1756.81 299.799C1756.1 298.238 1755.37 296.677 1754.62 295.117C1753.1 292.027 1751.48 288.993 1749.76 286.014C1746.49 280.288 1742.64 274.91 1738.28 269.962C1736.06 267.457 1733.66 265.104 1731.12 262.919C1723.89 256.728 1715.27 252.39 1705.99 250.278C1704.46 249.917 1702.92 249.605 1701.37 249.342C1700.61 249.213 1699.85 249.095 1699.1 248.987L1698.59 248.914C1699.03 248.974 1698.59 248.914 1698.51 248.914L1697.24 248.76C1694.07 248.406 1690.88 248.218 1687.69 248.151C1681.2 248.075 1674.7 248.338 1668.24 248.941C1655.15 250.051 1642.09 251.93 1628.94 252.144C1616.23 252.352 1603.3 250.807 1591.71 245.215C1590.32 244.542 1588.95 243.815 1587.62 243.035L1591.55 240.039L1591.74 240.513C1591.59 240.132 1591.74 240.513 1591.78 240.594C1591.92 240.901 1592.06 241.202 1592.2 241.503C1592.54 242.177 1592.91 242.832 1593.31 243.47C1593.96 244.565 1594.74 245.584 1595.62 246.506C1596.56 247.523 1597.56 248.469 1598.64 249.335C1598.72 249.402 1599.14 249.737 1598.81 249.476L1599.21 249.777C1599.49 249.977 1599.76 250.174 1600.04 250.365C1600.64 250.776 1601.25 251.163 1601.87 251.529C1604.22 252.956 1606.75 254.061 1609.39 254.813C1610.79 255.234 1612.22 255.578 1613.66 255.843L1614.68 256.017C1614.77 256.017 1615.75 256.164 1615.26 256.104C1616.2 256.215 1617.14 256.302 1618.09 256.365C1625.7 256.846 1633.22 255.596 1640.65 254.017C1647.74 252.512 1654.78 250.827 1661.92 249.61C1675.64 247.282 1689.77 246.192 1703.52 248.867C1710.25 250.15 1716.73 252.475 1722.74 255.756C1728.31 258.884 1733.42 262.757 1737.94 267.267C1747.07 276.249 1754.07 287.205 1760.26 298.341C1761.02 299.678 1761.76 301.041 1762.5 302.427L1757.66 303.765C1757.66 302.066 1757.66 300.367 1757.51 298.675C1757.45 297.828 1757.37 296.983 1757.27 296.14C1757.27 295.919 1757.22 295.699 1757.19 295.471C1757.19 295.411 1757.13 294.963 1757.19 295.364C1757.13 294.876 1757.05 294.395 1756.97 293.906C1756.43 290.558 1755.61 287.259 1754.54 284.041C1754.27 283.234 1753.99 282.434 1753.69 281.64C1753.56 281.306 1753.43 280.973 1753.3 280.643L1753.05 280.021L1752.9 279.647L1752.85 279.526C1752.17 277.966 1751.44 276.434 1750.66 274.932C1749.08 271.923 1747.27 269.04 1745.25 266.31C1744.42 265.2 1743.41 263.943 1742.29 262.665C1741.17 261.388 1740 260.157 1738.78 258.98C1737.57 257.803 1736.3 256.666 1735 255.589L1733.95 254.746C1733.95 254.746 1733.57 254.445 1733.85 254.659L1733.42 254.338C1732.71 253.803 1731.98 253.281 1731.25 252.773C1725.74 249 1719.66 246.127 1713.25 244.259C1710.06 243.306 1706.82 242.546 1703.54 241.985C1702.71 241.842 1701.89 241.711 1701.06 241.59L1700.45 241.503L1698.87 241.309C1697.19 241.113 1695.51 240.957 1693.83 240.841C1686.95 240.406 1680.05 240.39 1673.17 240.794C1658.96 241.517 1644.82 243.336 1630.61 243.985C1616.64 244.653 1602.36 244.118 1588.89 240.065C1587.24 239.57 1585.61 239.02 1584 238.413L1587.3 235.932C1587.27 236.768 1587.29 237.606 1587.36 238.44C1587.36 238.607 1587.36 238.768 1587.41 238.935C1587.47 239.724 1587.35 238.634 1587.41 239.102C1587.46 239.57 1587.55 239.998 1587.65 240.44C1587.81 241.203 1588.01 241.958 1588.25 242.7C1588.36 243.053 1588.48 243.4 1588.61 243.744C1588.7 243.976 1588.78 244.199 1588.88 244.413C1588.7 243.998 1588.97 244.607 1589.01 244.694C1589.69 246.16 1590.5 247.561 1591.43 248.88C1591.64 249.188 1591.86 249.496 1592.1 249.79C1591.79 249.395 1592.3 250.038 1592.32 250.051L1592.64 250.439C1593.18 251.081 1593.76 251.701 1594.36 252.298C1596.67 254.641 1599.36 256.579 1602.32 258.03C1602.99 258.378 1603.7 258.699 1604.41 259.007C1603.94 258.813 1604.73 259.127 1604.74 259.134L1605.21 259.314C1605.66 259.479 1606.11 259.633 1606.55 259.776C1608.4 260.367 1610.29 260.815 1612.21 261.113C1620.37 262.451 1628.93 261.02 1636.96 258.793C1645.29 256.478 1653.29 253.134 1661.42 250.232C1669.27 247.436 1677.31 245.068 1685.65 244.373C1692.24 243.863 1698.87 244.353 1705.32 245.824C1718.29 248.827 1730.25 255.201 1739.97 264.304C1749.62 273.266 1756.99 284.877 1760.28 297.672C1760.68 299.224 1761.01 300.784 1761.28 302.354C1761.45 303.017 1761.35 303.718 1761.01 304.313C1760.67 304.907 1760.12 305.35 1759.47 305.551C1758.22 305.892 1756.51 305.129 1756.27 303.738C1755.71 300.507 1754.89 297.326 1753.82 294.227C1753.56 293.496 1753.29 292.769 1753.01 292.047C1752.88 291.704 1752.74 291.362 1752.61 291.024C1752.61 291.064 1752.31 290.355 1752.45 290.656L1752.2 290.067C1751.56 288.614 1750.86 287.185 1750.11 285.78C1748.59 282.934 1746.87 280.201 1744.96 277.6L1744.22 276.617C1743.92 276.209 1744.12 276.47 1744.18 276.557L1743.73 275.975C1743.22 275.333 1742.7 274.7 1742.17 274.075C1741.11 272.827 1739.99 271.616 1738.82 270.444C1736.58 268.151 1734.2 266.006 1731.68 264.023C1731.68 264.023 1731.01 263.508 1731.43 263.822L1731.03 263.521L1730.04 262.786C1729.38 262.3 1728.71 261.825 1728.03 261.361C1726.7 260.433 1725.31 259.553 1723.87 258.719C1722.43 257.885 1720.98 257.1 1719.54 256.365C1718.88 256.035 1718.21 255.714 1717.53 255.402L1716.41 254.893L1715.97 254.693L1715.52 254.499H1715.57C1712.59 253.249 1709.53 252.208 1706.4 251.382C1704.82 250.967 1703.23 250.608 1701.62 250.305C1700.86 250.162 1700.1 250.033 1699.33 249.917C1699.18 249.917 1698.17 249.757 1698.66 249.824L1697.2 249.65C1694.03 249.312 1690.85 249.218 1687.66 249.369C1686.02 249.449 1684.39 249.589 1682.76 249.803C1683.25 249.737 1682.71 249.803 1682.59 249.803L1681.92 249.91L1680.31 250.185C1679.24 250.376 1678.18 250.599 1677.11 250.854C1672.88 251.841 1668.7 253.064 1664.6 254.519C1648.39 260.13 1631.97 268.129 1614.33 266.504C1606.66 265.917 1599.33 263.055 1593.29 258.284C1587.94 254.024 1583.7 247.904 1582.46 241.115C1582.14 239.374 1581.99 237.603 1582.04 235.832C1582.08 234.28 1583.68 232.715 1585.33 233.323C1588.63 234.553 1592.01 235.567 1595.45 236.36C1597.12 236.748 1598.79 237.087 1600.48 237.377C1601.32 237.524 1602.17 237.66 1603.01 237.785L1603.68 237.878H1603.8L1605.27 238.065C1612.33 238.84 1619.42 239.099 1626.51 238.841C1640.89 238.433 1655.17 236.614 1669.52 235.711C1683.49 234.828 1697.77 234.788 1711.42 238.279C1725.06 241.771 1737.57 248.981 1746.7 259.816C1755.98 270.728 1761.57 284.294 1762.67 298.575C1762.79 300.267 1762.83 301.966 1762.81 303.665C1762.81 306.166 1759.22 307.296 1757.97 305.002C1754.92 299.337 1751.74 293.746 1748.22 288.362C1744.89 283.159 1741.12 278.253 1736.95 273.701C1734.81 271.385 1732.54 269.199 1730.14 267.153C1722.91 260.965 1714.3 256.606 1705.03 254.445C1692.11 251.369 1677.97 252.178 1664.95 254.278C1657.8 255.428 1650.76 257.054 1643.69 258.599C1636.07 260.264 1628.3 261.735 1620.45 261.595C1608.26 261.374 1595.03 256.525 1588.52 245.597C1587.74 244.24 1587.06 242.82 1586.52 241.349C1586.38 240.854 1586.4 240.329 1586.56 239.842C1586.73 239.356 1587.04 238.93 1587.45 238.621C1587.85 238.308 1588.35 238.122 1588.86 238.086C1589.37 238.05 1589.88 238.166 1590.33 238.42C1591.74 239.245 1593.18 240.01 1594.65 240.714C1595.89 241.321 1597.17 241.863 1598.46 242.339C1601.41 243.45 1604.42 244.344 1607.5 245.015C1609.01 245.349 1610.54 245.632 1612.07 245.864L1613.2 246.031C1613.62 246.091 1612.83 245.984 1613.26 246.031L1613.88 246.111C1614.68 246.21 1615.48 246.297 1616.29 246.372C1619.44 246.673 1622.61 246.814 1625.78 246.841C1638.99 246.941 1652.12 245.115 1665.25 243.898C1678.24 242.694 1691.45 242.012 1704.34 244.486C1717.59 246.906 1729.76 253.412 1739.13 263.093C1748.89 272.912 1756 285.111 1761.65 297.665C1762.39 299.297 1763.09 300.942 1763.78 302.594C1764.23 303.631 1763.49 305.002 1762.59 305.531C1762.1 305.817 1761.52 305.932 1760.95 305.858C1760.38 305.784 1759.85 305.526 1759.44 305.123C1752.4 297.13 1742.89 291.716 1732.42 289.739C1731.82 289.624 1731.22 289.519 1730.62 289.425C1729.95 289.318 1729.77 289.298 1728.93 289.204C1727.59 289.062 1726.23 288.975 1724.85 288.944C1721.94 288.896 1719.03 289.079 1716.15 289.492C1709.85 290.402 1703.67 292.034 1697.42 293.251C1691.94 294.384 1686.36 294.942 1680.76 294.916C1675.68 294.827 1670.63 294.228 1665.67 293.13C1655.79 290.938 1646.41 286.864 1638.06 281.132C1629.61 275.37 1622.4 267.958 1616.89 259.341C1616.24 258.315 1615.62 257.274 1615.03 256.218C1614.29 254.88 1614.87 252.673 1616.58 252.399L1654.52 246.379C1660.26 245.476 1665.99 244.446 1671.76 243.744C1676.16 243.148 1680.62 242.986 1685.06 243.262C1693.7 243.931 1702.92 247.141 1706.93 255.482C1710.94 263.822 1708.21 274.396 1701.25 280.302C1693.7 286.723 1682.6 286.576 1674.32 281.593C1670.21 279.182 1666.94 275.568 1664.95 271.24C1662.95 266.892 1662.39 262.022 1663.35 257.335C1663.85 255 1664.87 252.807 1666.32 250.913C1667.78 249.02 1669.64 247.473 1671.76 246.386C1676.44 244.038 1682.05 243.583 1687.21 244.225C1696.25 245.349 1705.44 249.79 1710.51 257.602C1712.95 261.289 1714.05 265.698 1713.63 270.096C1713.05 274.982 1710.72 279.493 1707.08 282.804C1703.54 286.118 1699.08 288.292 1694.28 289.044C1689.09 289.722 1683.81 288.879 1679.09 286.616C1670.2 282.543 1662.7 273.948 1660.58 264.324C1659.57 259.716 1659.69 254.813 1661.81 250.526C1664.22 245.67 1669.17 242.901 1674.34 241.831C1683.96 239.885 1695.33 242.948 1700.72 251.676C1705.01 258.619 1703.92 267.936 1699.56 274.57C1697.41 277.98 1694.31 280.691 1690.65 282.376C1686.58 284.173 1682 284.412 1677.78 283.044C1669.3 280.235 1663.06 272.042 1662.3 263.187C1661.45 252.994 1669.45 244.881 1678.49 241.684C1689.6 237.758 1701.66 241.396 1711.75 246.473C1720.87 251.144 1729.24 257.137 1736.6 264.257C1744.05 271.483 1750.7 279.49 1756.43 288.141C1759.21 292.274 1761.78 296.521 1764.27 300.849C1764.44 301.143 1764.56 301.469 1764.6 301.807C1764.65 302.145 1764.63 302.489 1764.54 302.819C1764.46 303.15 1764.3 303.459 1764.1 303.731C1763.89 304.003 1763.63 304.231 1763.34 304.404C1763.04 304.576 1762.72 304.688 1762.38 304.734C1762.04 304.781 1761.7 304.76 1761.37 304.673C1761.04 304.587 1760.73 304.436 1760.46 304.23C1760.18 304.023 1759.96 303.765 1759.78 303.471L1759.78 303.524ZM1575.34 225.404C1575.15 225.549 1574.95 225.681 1574.74 225.799C1574.78 225.799 1575.23 225.391 1574.92 225.672L1574.69 225.873C1574.5 226.047 1574.34 226.241 1574.16 226.421C1573.99 226.602 1573.94 226.789 1574.28 226.254C1574.2 226.381 1574.1 226.501 1574.02 226.628C1573.94 226.756 1573.77 227.07 1573.65 227.297C1573.53 227.525 1573.55 227.692 1573.73 227.09C1573.73 227.184 1573.65 227.277 1573.63 227.371C1573.58 227.611 1573.52 227.848 1573.45 228.08C1573.45 228.033 1573.49 227.411 1573.49 227.819C1573.49 227.959 1573.49 228.107 1573.49 228.247C1573.49 228.648 1573.49 228.033 1573.44 227.979C1573.48 228.092 1573.51 228.208 1573.52 228.327C1573.58 228.648 1573.76 228.521 1573.43 228.18C1573.48 228.263 1573.53 228.35 1573.57 228.441C1573.63 228.52 1573.68 228.605 1573.73 228.695C1573.67 228.361 1573.35 228.267 1573.61 228.535C1573.77 228.702 1573.98 228.862 1574.13 229.036C1573.81 228.648 1573.72 228.742 1573.92 228.876L1574.2 229.063C1574.38 229.17 1574.56 229.27 1574.74 229.364L1574.98 229.484C1575.43 229.712 1574.49 229.304 1574.82 229.417C1575.14 229.531 1575.31 229.605 1575.56 229.685C1577.23 230.233 1578.98 230.441 1580.66 230.949C1582.72 231.684 1584.69 232.656 1586.52 233.845C1587.04 234.146 1587.56 234.447 1588.1 234.728L1588.83 235.089L1589.12 235.223C1589.61 235.457 1588.62 235.036 1589.12 235.223C1589.66 235.437 1590.22 235.611 1590.79 235.745L1591.09 235.805C1591.62 235.925 1590.52 235.765 1591.03 235.805C1591.35 235.805 1591.69 235.845 1591.99 235.845C1592.68 235.845 1593.34 236.119 1593.83 236.606C1594.31 237.093 1594.59 237.754 1594.59 238.443C1594.59 239.132 1594.31 239.793 1593.83 240.281C1593.34 240.768 1592.68 241.042 1591.99 241.042C1589.31 241.075 1586.9 240.032 1584.63 238.754C1583.63 238.186 1582.62 237.577 1581.64 237.022C1581.17 236.761 1580.7 236.514 1580.21 236.293C1580.11 236.257 1580.01 236.215 1579.92 236.166C1580.48 236.527 1580.18 236.273 1579.96 236.166C1579.74 236.059 1579.42 235.972 1579.14 235.892C1577.28 235.357 1575.34 235.149 1573.53 234.434C1572.29 233.999 1571.16 233.316 1570.19 232.427C1569.09 231.352 1568.43 229.908 1568.33 228.374C1568.11 225.358 1570.24 222.355 1572.76 220.923C1573.35 220.576 1574.06 220.479 1574.73 220.654C1575.39 220.829 1575.96 221.261 1576.31 221.856C1576.66 222.451 1576.76 223.16 1576.58 223.827C1576.41 224.494 1575.97 225.063 1575.38 225.411L1575.34 225.404ZM1563.83 413.3C1556.19 415.079 1548.15 413.233 1542.49 407.661C1537.4 402.645 1533.79 395.99 1530.89 389.523C1527.5 381.905 1525.59 374.139 1524.39 365.873C1523.72 361.398 1523.27 356.87 1522.38 352.443C1521.51 348.503 1520.32 344.64 1518.83 340.892C1513.6 327.308 1505.45 312.687 1510.18 297.786C1513.29 288.014 1522.1 275.634 1533.78 276.724C1541.56 277.453 1546.27 283.994 1549.75 290.308C1554.43 298.836 1558.17 307.918 1561.52 317.061C1562.6 319.997 1558.35 321.315 1556.77 319.068C1555.18 316.82 1551.79 315.951 1549.3 315.543C1547 315.169 1543.42 314.948 1541.61 316.76C1539.6 318.767 1538.72 322.205 1538.21 324.853C1537.61 328.195 1537.54 331.609 1538 334.973C1538.87 342.092 1541.4 348.906 1545.4 354.864C1547.12 357.509 1549.28 359.851 1551.77 361.793C1554.11 363.545 1558.52 366.08 1561.34 364.013C1564.66 361.585 1560.58 356.415 1558.67 354.503C1555.66 351.466 1552.05 349.058 1550.05 345.139C1548.04 341.22 1548.34 336.986 1551.31 333.769C1554.07 330.752 1558.23 329.542 1560.88 326.412C1566.78 319.389 1565.02 309.182 1562.21 301.317C1560.45 296.428 1558.2 291.726 1556.3 286.89C1554.34 281.883 1552.63 276.789 1551.17 271.607C1545.38 251.074 1543.58 229.471 1545.21 208.222C1546.83 186.973 1550.31 165.651 1556.35 145.292C1567.78 106.854 1589.69 72.9374 1614.17 41.6226C1625.62 26.9685 1639.77 14.3342 1654.44 2.96405C1667.67 -7.30253 1681.64 -16.004 1697.05 -22.6054C1697.93 -22.98 1698.81 -23.3478 1699.68 -23.7625C1699.98 -23.903 1700.27 -24.0635 1700.56 -24.1972C1700.85 -24.331 1701.39 -24.8259 1700.67 -24.1972C1703.18 -26.3509 1706.78 -22.8596 1704.35 -20.5254C1701.92 -18.1911 1698.79 -16.4722 1695.82 -14.8403C1691.56 -12.506 1687.27 -10.2521 1683.11 -7.75064C1673.51 -1.99199 1664.66 4.95718 1656.18 12.2541C1638.78 27.1758 1622.46 44.0237 1610.16 63.4801C1598.64 81.7057 1590.02 101.684 1583.35 122.15C1579.03 135.096 1575.63 148.329 1573.16 161.752C1571.46 171.396 1569.95 181.148 1569.14 190.913C1568.16 202.644 1568.08 214.991 1572.58 226.08C1573.84 229.177 1568.82 230.521 1567.57 227.458C1563.56 217.526 1563.06 206.416 1563.61 195.835C1564.16 185.254 1565.87 174.734 1567.53 164.26C1569.58 151.829 1572.49 139.554 1576.22 127.521C1582.36 107.262 1590.31 87.3908 1600.8 68.9779C1612.46 48.5183 1628 30.7474 1645.35 14.9094C1654.54 6.50888 1664.24 -1.57062 1674.6 -8.49973C1679.8 -11.9843 1685.26 -15.0276 1690.77 -18.0039C1694.11 -19.8164 1697.9 -21.5085 1700.67 -24.1906L1704.34 -20.5187C1703.08 -19.4418 1701.48 -18.8733 1699.98 -18.2313C1697.05 -16.9739 1694.12 -15.7031 1691.24 -14.3253C1682.56 -10.1019 1674.25 -5.14103 1666.41 0.502753C1650.56 11.6656 1635.47 24.5807 1622.71 39.2951C1616.08 46.9131 1610.1 55.1598 1604.22 63.373C1598.34 71.5863 1592.62 80.1273 1587.38 88.8689C1576.57 106.847 1567.47 126.069 1561.45 146.235C1555.11 167.705 1551.3 189.841 1550.08 212.195C1548.82 234.661 1551.47 257.294 1558.78 278.623C1562.23 288.743 1568.05 298.461 1569.62 309.129C1570.88 317.723 1568.84 327.355 1561.55 332.779C1558.76 334.852 1553.02 336.792 1554.02 341.179C1555.02 345.567 1559.9 348.209 1562.78 351.285C1565.65 354.362 1568.13 358.409 1567.62 362.656C1567.07 367.07 1563.17 369.866 1558.86 369.859C1551.5 369.859 1545.48 363.886 1541.47 358.322C1537.07 352.035 1534.18 344.815 1533.03 337.227C1531.95 330.144 1532.23 322.512 1535.75 316.085C1537.37 313.142 1539.6 311.156 1542.95 310.473C1546.4 309.832 1549.95 310.062 1553.29 311.142C1556.39 312.119 1559.31 313.704 1561.18 316.406L1556.43 318.412C1553.79 311.055 1550.73 303.855 1547.26 296.849C1544.65 291.692 1541.67 284.85 1535.92 282.516C1526.61 278.737 1518.32 290.361 1515.62 297.685C1510.85 310.594 1517.3 323.649 1522.17 335.534C1525.12 342.473 1527.19 349.753 1528.34 357.205C1529.47 365.03 1530.3 372.969 1532.85 380.5C1535.19 387.692 1538.67 394.466 1543.14 400.565C1547.82 406.765 1554.58 410.096 1562.4 408.277C1565.65 407.521 1567.04 412.53 1563.78 413.286L1563.83 413.3ZM1866.62 515.297C1855.4 517.703 1843.74 517.224 1832.75 513.905C1830.18 513.116 1827.61 511.946 1824.92 511.611C1822.23 511.277 1820.38 512.401 1818.32 513.966C1814.48 516.939 1809.95 518.884 1805.16 519.617C1800.38 520.361 1795.49 519.901 1790.94 518.28C1788.56 517.322 1786.27 516.145 1784.11 514.762C1781.97 513.359 1779.42 512.709 1776.88 512.916C1774.2 513.143 1771.64 514.073 1769.13 514.922C1766.45 515.857 1763.72 516.612 1760.94 517.183C1755.23 518.165 1749.45 518.613 1743.66 518.52C1731.85 518.52 1717.78 518.788 1710.21 507.98L1715.06 506.642C1715.16 510.655 1717.49 513.819 1719.92 516.728C1723.07 520.482 1726.42 524.068 1729.95 527.469C1737.55 534.827 1745.72 541.675 1754.81 547.1C1771.02 556.784 1790.48 562.175 1809.39 559.533C1828.3 556.891 1843.98 545.936 1857.21 532.853C1860.82 529.361 1864.06 525.509 1866.89 521.356C1868.97 518.233 1870.8 514.962 1872.65 511.705C1876.08 505.686 1878.6 497.82 1884.87 494.075C1888.06 492.168 1893.31 491.573 1895.76 494.951C1899.25 499.773 1893.71 503.806 1890.03 506.1C1881.51 511.404 1870.78 513.885 1860.83 513.952C1855.04 513.993 1849.25 513.731 1843.48 513.17C1837.83 512.621 1832.2 511.431 1826.52 511.25C1823.94 511.12 1821.37 511.42 1818.89 512.14C1816.48 512.882 1814.18 513.939 1811.83 514.895C1806.9 517.046 1801.47 517.776 1796.15 517.002C1790.99 516.206 1786.66 513.023 1781.48 512.394C1776.17 511.725 1770.81 512.889 1765.68 514.12C1754.97 516.675 1744.23 519.37 1733.19 517.778C1728.25 517.123 1723.5 515.442 1719.26 512.842C1715.06 510.167 1712.01 506.194 1707.96 503.378C1706.43 502.315 1704.95 500.783 1703.22 500.067C1702.26 499.673 1702.19 499.86 1702.55 500.736C1703.79 503.86 1708.78 504.575 1711.52 503.171C1712.19 502.843 1712.53 502.054 1713 501.525C1713.57 500.928 1714.2 500.39 1714.88 499.92C1716.48 498.766 1718.14 497.699 1719.85 496.723C1724.58 493.934 1729.41 491.319 1734.17 488.61C1742.45 483.928 1750.65 478.872 1759.42 475.113C1768.75 471.1 1779.87 468.298 1789.57 472.652C1792.96 474.177 1797.18 477.253 1800.94 475.2C1803.86 473.602 1806.34 470.084 1805.47 466.78C1804.49 463.074 1802.07 459.911 1801 456.225C1799.88 452.386 1800.72 448.748 1804.1 446.454C1807.16 444.387 1810.92 443.598 1813.94 441.471C1816.96 439.344 1819.07 436.241 1821.86 433.913C1824.96 431.353 1828.82 429.895 1832.84 429.766C1836.34 429.566 1839.89 429.934 1843.36 429.385C1846.83 428.837 1849.87 427.318 1850.52 423.573C1851.32 418.991 1848.71 414.209 1847.48 409.915C1846.72 407.24 1846.15 404.565 1845.62 401.822C1845.13 399.221 1844.91 396.405 1844.11 393.883C1843.71 392.867 1843.01 391.996 1842.1 391.389C1841.72 391.104 1841.29 390.896 1840.83 390.773C1840.75 390.773 1840.28 390.606 1840.63 390.713C1840.97 390.82 1840.63 390.673 1840.55 390.713H1840.45C1840.24 390.713 1840.31 390.713 1840.67 390.713C1840.78 390.633 1841.07 390.472 1840.8 390.66C1840.96 390.553 1841.47 389.991 1841.34 390.071C1841.2 390.151 1841.3 389.844 1841.34 390.071C1841.34 390.205 1841.34 390.352 1841.34 390.479C1841.53 391.155 1841.79 391.809 1842.12 392.432C1843.11 394.1 1844.31 395.637 1845.69 397.007C1848.57 400.063 1851.87 402.799 1854.31 406.25C1860.33 414.731 1863.74 432.656 1851.6 437.605C1847.97 439.051 1843.94 439.063 1840.31 437.638C1836.74 436.254 1833.08 433.412 1829.11 433.512C1825.84 433.592 1823.94 436.923 1822.36 439.351C1820.13 442.755 1817.67 445.698 1814.05 447.691C1809.95 449.873 1805.35 450.936 1800.71 450.773C1796.07 450.61 1791.55 449.226 1787.62 446.761C1783.7 444.291 1780.19 441.229 1777.22 437.685C1776.05 436.455 1774.39 434.555 1772.53 434.656C1770.87 434.742 1769.29 436.047 1767.9 436.856C1763.88 439.204 1759.56 439.698 1755.39 437.378C1753.46 436.276 1751.79 434.757 1750.52 432.933C1749.25 431.109 1748.4 429.024 1748.03 426.83C1746.38 416.751 1752.71 407.32 1758.49 399.655C1761.48 395.642 1764.59 391.743 1767.34 387.563C1770.24 383.132 1772.58 378.352 1774.29 373.337C1777.81 363.257 1780.31 352.852 1781.77 342.276C1783.23 331.733 1783.3 321.043 1781.99 310.48C1780.56 299.585 1777.1 289.077 1773.3 278.831C1772.33 276.229 1771.34 273.641 1770.35 271.046C1769.36 268.451 1768.03 265.802 1767.48 263.1C1766.99 260.639 1767.36 258.03 1769.33 256.298C1770.2 255.523 1771.31 255.073 1772.47 255.027C1773.63 254.981 1774.78 255.34 1775.7 256.044C1779.18 258.719 1779.1 264.364 1779.1 268.303C1779.06 275.071 1777.64 281.76 1774.92 287.957C1772.2 294.153 1768.23 299.725 1763.27 304.327C1760.81 306.581 1757.12 302.915 1759.6 300.655C1766.19 294.583 1770.79 286.654 1772.79 277.915C1773.8 273.548 1774.12 269.051 1773.75 264.585C1773.67 263.622 1773.66 260.612 1772.55 260.124C1772.91 260.284 1772.59 260.124 1772.49 260.618C1772.25 261.762 1772.83 262.993 1773.23 264.05C1777.1 274.517 1781.39 284.844 1784.28 295.652C1787.04 306.057 1788.32 316.8 1788.08 327.562C1787.81 338.286 1786.38 348.95 1783.81 359.365C1781.3 369.725 1778.18 380.253 1772.43 389.302C1767.29 397.368 1760.45 404.364 1756.06 412.918C1753.87 417.192 1752.08 422.362 1753.46 427.171C1754.42 430.515 1757.7 433.86 1761.4 433.786C1763.26 433.786 1764.85 432.649 1766.4 431.726C1768.21 430.643 1770.07 429.659 1772.21 429.485C1776.94 429.084 1780.23 433.271 1783.13 436.374C1786.13 439.618 1790.07 442.722 1794.22 444.32C1798.19 445.772 1802.49 446.018 1806.6 445.029C1810.37 444.146 1813.96 442.274 1816.33 439.123C1818.48 436.261 1820.05 432.917 1822.91 430.649C1826.38 427.887 1830.74 427.84 1834.76 429.419C1838.37 430.836 1841.99 433.612 1846.01 433.532C1848.85 433.472 1851.19 432.569 1852.77 430.535C1852.55 430.816 1852.98 430.201 1853.04 430.114C1853.2 429.853 1853.34 429.592 1853.48 429.325C1853.73 428.858 1853.92 428.361 1854.04 427.847C1854.4 426.68 1854.58 425.464 1854.57 424.242C1854.67 418.802 1853.06 413.467 1849.98 408.986C1847.67 405.708 1844.35 403.14 1841.64 400.204C1839.13 397.468 1836.12 393.91 1836.2 389.951C1836.28 386.332 1839.75 384.848 1842.85 385.938C1844.48 386.531 1845.92 387.523 1847.06 388.821C1848.2 390.12 1848.99 391.683 1849.37 393.368C1850.5 398.806 1851.23 404.304 1852.86 409.621C1854.27 414.229 1856.35 418.851 1855.74 423.787C1855.51 425.921 1854.7 427.949 1853.38 429.648C1852.07 431.346 1850.31 432.649 1848.31 433.411C1844.79 434.829 1840.83 434.87 1837.1 434.883C1833.64 434.883 1830.04 434.756 1826.96 436.602C1823.88 438.448 1821.82 441.397 1819.28 443.738C1816.3 446.48 1812.86 447.818 1809.25 449.537C1808.48 449.891 1807.73 450.291 1807.01 450.734C1806.62 450.978 1806.27 451.28 1805.97 451.63C1805.43 452.721 1805.77 454.092 1806.19 455.349C1807.39 458.961 1809.82 462.124 1810.62 465.89C1811.52 470.15 1809.7 474.371 1806.65 477.354C1803.27 480.664 1798.85 481.888 1794.31 480.397C1789.93 478.959 1786.24 476.163 1781.54 475.769C1770.98 474.886 1760.99 479.688 1751.94 484.55C1743.4 489.145 1735.02 494.075 1726.57 498.843C1724.47 500.034 1722.37 501.224 1720.32 502.509C1718.99 503.222 1717.77 504.123 1716.7 505.184C1715.95 506.02 1715.42 506.916 1714.43 507.511C1713.47 508.049 1712.41 508.421 1711.32 508.615C1709.11 509.08 1706.82 509.03 1704.63 508.468C1700.83 507.445 1697.03 504.034 1697.22 499.773C1697.26 498.677 1697.65 497.623 1698.32 496.755C1698.98 495.886 1699.91 495.247 1700.96 494.924C1703.03 494.295 1705.14 495.024 1706.9 496.155C1710.61 498.671 1714.09 501.514 1717.3 504.649C1720.79 507.995 1725.05 510.43 1729.7 511.738C1740.09 514.621 1750.92 512.407 1761.14 509.879C1766.35 508.602 1771.6 507.277 1776.98 507.05C1779.71 506.916 1782.45 507.161 1785.12 507.779C1787.71 508.401 1790 509.645 1792.48 510.635C1797.23 512.521 1802.49 512.675 1807.35 511.07C1812.28 509.444 1816.78 506.802 1822.03 506.214C1827.57 505.585 1833.1 506.702 1838.58 507.404C1844.23 508.129 1849.91 508.562 1855.6 508.702C1860.95 508.836 1866.23 508.796 1871.49 507.645C1876.36 506.651 1881.07 505.002 1885.49 502.743C1887.56 501.696 1889.47 500.373 1891.18 498.81C1891.58 498.429 1892.01 498.141 1891.53 497.84C1891.03 497.682 1890.51 497.652 1890 497.753C1887.09 498.041 1885.01 500.562 1883.41 502.963C1881.35 506.047 1879.79 509.418 1878.05 512.695C1876.53 515.618 1874.85 518.487 1873.12 521.289C1868.13 529.402 1861.65 536.231 1854.49 542.458C1847.33 548.685 1839.7 554.39 1831.07 558.41C1813.13 566.77 1792.79 567.178 1774.01 561.339C1754.32 555.219 1737.47 542.705 1723.22 528.051C1720.19 524.977 1717.32 521.739 1714.63 518.353C1711.95 514.909 1710.01 511.083 1709.89 506.629C1709.81 503.88 1713.34 503.331 1714.73 505.291C1720.75 513.919 1733.29 513.237 1742.55 513.257C1748.14 513.257 1753.8 513.21 1759.31 512.193C1764.66 511.21 1769.59 508.769 1774.94 507.946C1777.58 507.447 1780.3 507.599 1782.87 508.388C1785.4 509.257 1787.51 510.849 1789.84 512.106C1793.76 514.133 1798.16 515.027 1802.56 514.688C1806.96 514.348 1811.18 512.79 1814.74 510.187C1816.78 508.682 1818.75 507.077 1821.3 506.568C1823.99 506.14 1826.75 506.384 1829.33 507.277C1835.17 509.043 1840.77 510.842 1846.9 511.364C1853.05 511.897 1859.24 511.523 1865.28 510.254C1868.54 509.585 1869.96 514.574 1866.66 515.263L1866.62 515.297ZM1865.24 510.454C1867.25 509.872 1869.2 509.264 1871.14 508.521C1871.26 508.475 1871.61 508.341 1871.05 508.562L1871.41 508.408L1872.07 508.087C1872.52 507.864 1872.97 507.625 1873.41 507.371C1873.81 507.144 1874.2 506.903 1874.58 506.642L1875.12 506.261C1875.2 506.201 1875.51 505.98 1875.19 506.214C1874.88 506.448 1875.29 506.134 1875.32 506.1C1876 505.531 1876.64 504.9 1877.21 504.214C1877.27 504.127 1877.34 504.034 1877.41 503.953C1877.37 504 1877.06 504.442 1877.31 504.08C1877.41 503.92 1877.53 503.766 1877.63 503.605C1877.88 503.214 1878.1 502.807 1878.3 502.388C1878.34 502.287 1878.39 502.189 1878.44 502.094C1878.44 502.094 1878.24 502.602 1878.34 502.335C1878.44 502.067 1878.5 501.927 1878.56 501.719C1878.7 501.281 1878.82 500.834 1878.9 500.382C1878.96 500.067 1878.79 500.342 1878.9 500.549C1878.89 500.458 1878.89 500.366 1878.9 500.275C1878.9 500.154 1878.9 500.027 1878.9 499.907C1878.93 499.559 1879.02 500.395 1878.9 500.061C1878.9 499.947 1878.83 499.827 1878.8 499.713C1878.74 499.439 1878.86 499.927 1878.89 499.934C1878.92 499.94 1878.71 499.659 1878.72 499.653C1878.94 499.934 1878.99 500 1878.86 499.853L1878.68 499.673C1877.96 498.979 1877.2 498.329 1876.4 497.726L1876.17 497.546C1875.89 497.318 1876.54 497.82 1876.24 497.599L1875.62 497.131C1875.2 496.824 1874.79 496.523 1874.36 496.228C1872.66 495.044 1870.9 493.954 1869.1 492.931C1865.63 490.924 1862.03 489.226 1858.44 487.453C1854.86 485.681 1851.34 483.969 1847.74 482.37L1846.34 481.761L1845.72 481.501L1845.59 481.447L1845.37 481.353C1844.43 480.961 1843.48 480.58 1842.53 480.21C1840.63 479.474 1838.71 478.792 1836.77 478.203C1834.83 477.615 1832.93 477.059 1830.97 476.611C1830.01 476.393 1829.04 476.197 1828.08 476.023L1826.74 475.802L1826.1 475.708C1826.87 475.836 1825.91 475.708 1825.71 475.668C1823.84 475.45 1821.95 475.356 1820.06 475.387C1819.65 475.387 1819.23 475.387 1818.82 475.441L1818.34 475.494C1819.2 475.434 1818.5 475.494 1818.27 475.494C1817.53 475.635 1816.79 475.822 1816.07 476.056C1815.33 476.297 1814.6 476.571 1813.87 476.866C1813.29 477.106 1814.39 476.645 1813.81 476.866L1813.33 477.073L1812.16 477.595C1810.52 478.337 1808.9 479.093 1807.23 479.755C1803.99 481.172 1800.41 481.647 1796.91 481.126C1796.07 480.974 1795.24 480.736 1794.45 480.417C1793.81 480.217 1793.26 479.795 1792.9 479.227C1792.55 478.618 1792.46 477.897 1792.64 477.22C1793.03 476.003 1794.48 474.872 1795.83 475.408C1796.65 475.737 1797.5 475.979 1798.38 476.13C1799.04 476.237 1797.8 476.076 1798.44 476.13L1799.04 476.177C1799.47 476.198 1799.89 476.198 1800.31 476.177L1800.9 476.137C1801.13 476.137 1801.73 475.963 1800.94 476.137C1801.35 476.043 1801.76 476.003 1802.17 475.909C1802.97 475.731 1803.75 475.508 1804.52 475.24C1804.9 475.107 1805.28 474.966 1805.65 474.826L1806.22 474.598L1806.5 474.485L1806.36 474.538C1807.13 474.21 1807.89 473.869 1808.65 473.515C1810.28 472.766 1811.91 472.017 1813.6 471.395C1815.24 470.777 1816.95 470.375 1818.7 470.197C1820.59 470.052 1822.49 470.079 1824.38 470.278C1828.57 470.657 1832.71 471.464 1836.74 472.685C1844.88 475.107 1852.62 478.752 1860.22 482.497C1867.82 486.243 1875.53 489.854 1881.91 495.513C1882.9 496.312 1883.61 497.41 1883.92 498.643C1884.15 499.937 1884.08 501.266 1883.71 502.529C1883.12 504.603 1882.06 506.514 1880.62 508.113C1877.74 511.458 1873.57 513.237 1869.48 514.541C1868.5 514.855 1867.47 515.143 1866.51 515.43C1866.18 515.521 1865.84 515.546 1865.5 515.503C1865.16 515.461 1864.83 515.353 1864.54 515.184C1864.24 515.015 1863.98 514.79 1863.77 514.521C1863.56 514.251 1863.4 513.944 1863.31 513.615C1863.22 513.286 1863.2 512.942 1863.24 512.604C1863.28 512.265 1863.39 511.938 1863.56 511.642C1863.73 511.345 1863.95 511.085 1864.22 510.875C1864.49 510.666 1864.8 510.511 1865.13 510.421L1865.24 510.454ZM1563.03 408.658C1565.82 402.638 1574.67 389.188 1582.62 395.95C1588.7 401.1 1585.39 410.745 1578.39 412.838C1559.91 418.356 1539.96 388.827 1559.72 377.965C1568.33 373.23 1576.35 379.771 1580.38 387.175C1586.33 398.097 1589.94 410.852 1593.76 422.623C1597.85 435.197 1601.42 447.925 1604.33 460.834C1606.83 471.93 1609.01 483.126 1612.43 493.994C1620.12 518.48 1636.99 538.298 1654.3 556.744C1672.51 576.14 1692.67 593.697 1712.94 610.92C1731.67 626.845 1752.22 641.76 1775.9 649.284C1787.61 653.003 1799.89 654.936 1812.16 653.585C1824.24 652.247 1835.89 648.013 1846.63 642.455C1867.46 631.68 1885.71 616.197 1902.69 600.198C1919.67 584.2 1935.54 566.89 1948.52 547.541C1961.75 527.831 1970.3 507.017 1972.18 483.226C1974.19 458.239 1968.78 433.358 1957.47 410.992C1937 370.608 1899.01 342.53 1866.58 312.346C1848.03 295.083 1830.2 276.898 1812.72 258.532C1794.81 239.724 1777.6 220.208 1762.16 199.307C1747.47 179.429 1734.29 158.28 1724.87 135.373C1714.91 111.383 1710.44 85.4735 1711.77 59.5339C1713.18 32.1854 1719.39 4.68965 1727 -21.5487C1729.01 -28.3975 1733.85 -38.644 1742.54 -37.5137C1750.93 -36.4235 1752.63 -25.9763 1748.68 -19.7763C1744.5 -13.2217 1734.89 -10.3257 1727.54 -10.5196L1729.78 -11.8038C1706.37 37.2083 1713.52 96.0655 1736.28 143.907C1759.78 193.314 1797.71 233.798 1835.84 272.263C1873.77 310.527 1913.23 348.269 1942.2 394.104C1954.96 414.303 1965.78 436.16 1972.7 459.075C1975.66 468.86 1979.18 480.303 1977.68 490.63C1976.42 499.325 1971.87 507.351 1967.37 514.782C1955.95 533.569 1941.95 551.715 1939.09 574.187C1936.61 593.49 1942.8 613.649 1960.5 623.614C1965.56 626.359 1971.01 628.321 1976.66 629.433L1975.28 634.443C1971.54 633.239 1970.09 629.547 1969.17 626.022C1967.57 619.849 1967.21 613.167 1966.88 606.826C1966.21 593.898 1970.33 581.525 1976.31 570.208C1989.64 544.959 2009.52 523.39 2028.84 502.656C2067.17 461.549 2105.95 419.56 2137.88 373.17C2153.72 350.142 2167.67 325.683 2177.77 299.598C2188.65 271.113 2196.11 241.433 2199.98 211.185C2208 150.214 2203.11 87.859 2189.57 28.0252C2183.34 0.496061 2175.18 -26.2706 2162.92 -51.7532C2151.31 -75.7357 2137.15 -98.4029 2120.7 -119.365C2088.1 -161.087 2047.47 -198.348 1999.9 -222.165C1951.51 -246.41 1896.36 -257.038 1842.6 -249.146C1797.64 -242.544 1750.95 -232.01 1711.55 -208.528C1701.92 -202.896 1692.94 -196.209 1684.79 -188.59C1680.96 -184.96 1677.39 -181.072 1674.09 -176.952C1673.57 -176.283 1670.71 -172.083 1670.95 -174.277C1670.99 -174.009 1671.07 -173.748 1671.18 -173.501C1673.47 -163.95 1676.79 -154.533 1679.62 -145.129C1690.17 -109.928 1700.78 -74.7142 1712.62 -39.9215C1714.8 -33.5208 1717.03 -27.1334 1719.43 -20.8129C1720.41 -18.2379 1716.84 -16.6595 1715.09 -18.2848C1713.08 -20.1174 1712.17 -23.6354 1711.18 -26.0031C1708.93 -31.4407 1706.88 -36.9653 1704.83 -42.4898C1698.71 -59.0234 1692.86 -75.6639 1686.99 -92.2911C1681.02 -109.213 1675.09 -126.147 1668.93 -143.015C1666.72 -149.102 1664.5 -155.188 1662.13 -161.214C1661.15 -163.702 1660.24 -167.715 1658.35 -169.742C1659.02 -169.02 1656.18 -170.511 1655.53 -170.685C1652.92 -171.272 1650.24 -171.497 1647.57 -171.354C1641.54 -171.135 1635.53 -170.426 1629.61 -169.234C1616.84 -166.913 1603.98 -164.672 1591.6 -160.693C1561.37 -150.981 1535.34 -131.077 1513.9 -108.035C1492.47 -84.9941 1475.83 -57.6991 1466.53 -27.4344C1456.92 3.82686 1453.42 37.3755 1458.91 69.747C1461.6 85.8681 1466.6 101.517 1473.76 116.211C1481.2 131.373 1490.82 145.332 1500.47 159.15C1519.13 185.856 1538.91 213.78 1543.58 246.867C1544.71 254.71 1544.83 262.664 1543.94 270.537C1543.57 273.821 1538.37 273.881 1538.75 270.537C1542.84 234.695 1523.98 202.316 1504.41 173.878C1485.16 145.94 1465.48 118.826 1456.95 85.4245C1441.18 23.6109 1457.58 -45.4059 1496.39 -95.448C1515.27 -119.807 1539.49 -142.206 1567.12 -156.265C1581.84 -163.769 1597.78 -168.692 1614.04 -171.595C1624.8 -173.514 1635.53 -176.19 1646.5 -176.571C1651.91 -176.758 1660.38 -176.865 1663.43 -171.414C1665.43 -167.776 1666.77 -163.609 1668.28 -159.73C1674.1 -144.554 1679.46 -129.191 1684.88 -113.868C1691.3 -95.7222 1697.66 -77.5634 1704.17 -59.4514C1708.41 -47.68 1712.2 -35.4403 1717.63 -24.1303C1717.96 -23.584 1718.24 -23.0165 1718.49 -22.4315C1718.7 -21.7627 1718.95 -21.8162 1718.76 -21.9968L1714.41 -19.4686C1701.78 -52.7096 1691.8 -87.0608 1681.46 -121.071C1677.14 -135.295 1672.86 -149.537 1668.64 -163.796C1667.79 -166.659 1666.56 -169.648 1666.04 -172.591C1665.59 -175.126 1667.44 -176.798 1668.93 -178.751C1672.04 -182.793 1675.4 -186.624 1679.01 -190.222C1711.36 -222.473 1758.53 -237.575 1802.1 -247.072C1825.39 -252.176 1849.3 -256.436 1873.18 -256.944C1899.76 -257.405 1926.26 -253.882 1951.79 -246.491C2003.8 -231.582 2048.95 -202.06 2087.33 -164.405C2125.21 -127.244 2156.73 -82.9876 2176.57 -33.6077C2187.44 -6.56012 2194.24 22.0726 2199.52 50.6652C2205.24 81.2732 2208.39 112.306 2208.94 143.439C2209.84 202.704 2200.43 263.207 2175.85 317.463C2152.54 368.909 2115.89 413.046 2078.85 455.095C2059.78 476.732 2040.05 497.767 2020.74 519.156C2010.6 530.215 2001.17 541.901 1992.5 554.142C1984.43 565.7 1976.65 578.08 1973.4 591.965C1971.79 598.847 1971.94 605.542 1972.51 612.532C1972.76 615.575 1972.72 628.169 1976.69 629.453C1979.88 630.483 1978.59 635.165 1975.31 634.463C1955.63 630.236 1939.77 617.314 1935 597.289C1930.06 576.555 1936.81 555.674 1947.04 537.676C1952.46 528.138 1958.82 519.176 1964.37 509.712C1968.8 502.167 1973.34 493.66 1972.79 484.651C1972 471.622 1967.44 458.372 1962.82 446.273C1958.71 435.594 1953.92 425.19 1948.48 415.126C1921.68 365.378 1881.16 325.121 1841.64 285.466C1802.86 246.593 1763.48 206.61 1737.39 157.719C1712.51 111.027 1701.2 54.2167 1718.24 2.91056C1720.22 -2.9969 1722.56 -8.77562 1725.26 -14.3921C1725.48 -14.7864 1725.81 -15.1133 1726.2 -15.3391C1726.6 -15.5649 1727.05 -15.6813 1727.5 -15.6763C1731.49 -15.6042 1735.45 -16.5234 1739 -18.3516C1743.09 -20.3581 1748.12 -25.8961 1744.61 -30.6782C1740.64 -36.0824 1735.39 -28.4376 1733.8 -25.1336C1731.29 -19.9234 1730.31 -13.9106 1728.88 -8.34591C1722.44 16.6818 1716.84 42.2245 1716.67 68.1752C1716.3 117.274 1739.81 160.989 1768.57 199.32C1797.11 237.356 1831.25 271.668 1865.66 304.387C1895.31 332.585 1928.92 357.72 1952.15 391.904C1975.88 426.817 1985.36 473.067 1971.63 513.705C1965.14 532.914 1953.83 550.23 1941.33 566.041C1928.53 582.247 1914.03 597.122 1898.67 610.9C1867.85 638.529 1829.88 666.105 1786.19 657.303C1764.65 652.963 1745.03 642.047 1727.49 629.119C1708.82 615.354 1691.37 599.583 1674.36 583.832C1656.64 567.552 1640.36 549.768 1625.7 530.68C1612.39 513.197 1606.24 493.553 1601.56 472.351C1596.32 448.681 1589.88 425.533 1581.31 402.792C1578.78 396.104 1572.82 376.039 1561.81 382.727C1549.53 390.185 1561.21 405.561 1571.13 407.802C1573.95 408.471 1578.22 408.578 1579.95 405.655C1580.8 404.23 1580.76 401.595 1579.65 400.304C1575.8 395.917 1568.64 408.772 1567.5 411.233C1566.09 414.263 1561.61 411.628 1563.01 408.611L1563.03 408.658Z" fill="#665346"/>
</g>
<g clip-path="url(#clip2)">
<path opacity="0.1" d="M1658.17 -217.431C1653.51 -309.457 1742.86 -360.204 1822.82 -358.978C1924.35 -357.396 2035.68 -310.935 2116.37 -251.478C2214.93 -178.843 2291.68 -56.5763 2302.35 66.456C2306.6 115.381 2289.31 167.062 2253.13 200.935C2187.13 262.733 2086.49 250.534 2008.96 218.886C1831.24 149.779 1668.15 -20.6867 1658.17 -217.431Z" fill="#C28566"/>
</g>
<defs>
<clipPath id="clip0">
<rect width="937" height="271" fill="white" transform="matrix(1 0 0 -1 -209 536)"/>
</clipPath>
<clipPath id="clip1">
<rect width="758" height="527" fill="white" transform="matrix(-1 0 0 1 2209 0)"/>
</clipPath>
<clipPath id="clip2">
<rect width="663" height="227" fill="white" transform="matrix(-1 0 0 1 2303 0)"/>
</clipPath>
</defs>
</svg>
