<svg width="846" height="697" viewBox="0 0 846 697" fill="none" xmlns="http://www.w3.org/2000/svg">
<g clip-path="url(#clip0_595:6)">
<path opacity="0.1" d="M500.11 410.642C565.19 369.852 645.17 349.342 724.84 337.532C750.84 333.682 777.95 330.732 802.9 337.282C820.9 342.002 836.47 351.352 851.71 360.562C874.91 374.562 899.09 389.562 910.8 411.442C918.25 425.362 919.99 440.962 921.2 456.262C922.59 473.782 923.2 492.262 913.85 508.112C897.41 536.002 857.15 546.412 821.94 556.342C751.84 576.092 685.33 605.002 625.56 641.752C601.16 656.752 577.64 673.152 550.44 684.222C523.24 695.292 491.13 700.552 463.09 691.932C438.09 684.242 419.28 666.382 407.52 646.452C357.12 561.072 413.27 465.062 500.11 410.642Z" fill="#DF936D"/>
<path opacity="0.2" d="M713.95 271.689C688.72 273.399 663.4 273.339 638.11 273.279L564.11 273.099C544.32 273.099 523.66 272.799 506.11 263.719C489.48 255.119 477.6 239.599 467.69 223.719C462.8 215.889 458.2 207.719 455.63 198.889C448.34 173.789 458.3 146.769 472.34 124.729C502.84 76.6587 551.84 43.4587 601.34 15.3087C610.58 10.0587 620.01 4.88867 630.34 2.24867C643.49 -1.14133 657.4 -0.201334 670.84 1.77867C763.92 15.4587 845.39 78.1887 895.49 157.779C903.3 170.199 921.35 199.099 913.81 214.779C906.89 229.189 871.28 237.049 856.9 242.109C810.802 258.37 762.716 268.32 713.95 271.689Z" fill="#C28566"/>
<path d="M228.21 490.652C176.21 472.782 129.6 442.542 83.54 412.652C60.94 397.962 37.83 382.802 21.84 361.102C11.9327 347.672 5.13629 332.207 1.9433 315.827C-1.24969 299.447 -0.759369 282.561 3.37866 266.394C7.51669 250.227 15.1989 235.182 25.8688 222.35C36.5387 209.518 49.929 199.22 65.07 192.202C85.85 182.562 109.07 179.492 131.96 178.522C187.55 176.162 249.04 188.762 282.96 232.842C306.69 263.652 313.02 304.842 334.96 336.922C350.73 360.012 374.18 377.852 385.96 403.212C391.407 415.213 394.005 428.311 393.552 441.482C393.099 454.654 389.608 467.543 383.35 479.142C372.8 498.322 345.24 523.662 321.21 522.262C307.92 521.482 291.38 510.332 278.31 506.062C261.71 500.622 244.75 496.332 228.21 490.652Z" fill="white"/>
<path opacity="0.4" d="M171.25 396.261C187.02 413.831 203.34 430.881 219.02 448.541C229.89 460.781 243.67 472.381 251.54 486.841C259.32 501.141 263.46 517.601 271.18 531.761C274.49 537.831 279.8 541.061 285.05 535.761C287.38 533.431 287.76 528.761 290.78 527.021C292.92 525.821 295.47 526.911 297.78 525.491C301 523.491 303.78 517.871 307.29 515.411C310.8 512.951 313.72 514.661 314.1 509.241C314.32 506.011 311.02 501.501 308.86 499.341C303.07 493.581 293.57 490.031 286.81 485.451C278.922 480.164 271.337 474.438 264.09 468.301C249.91 456.151 238.26 441.231 225.27 427.881C213.03 415.301 198.82 404.191 187.77 390.551C182.04 383.481 182.77 384.891 188.84 378.151C193.27 373.281 201.67 361.881 201.29 354.891C200.92 348.121 192.15 345.451 186.58 341.891C178.29 336.661 170.1 331.361 162.25 325.491C147.09 314.151 132.02 302.731 116.67 291.641C91.9501 273.771 66.6701 257.211 42.4801 238.581C32.3201 230.741 18.3301 215.061 6.98013 228.161C-4.36987 241.261 4.05011 250.391 12.8801 262.941C37.4001 297.801 68.3701 327.941 91.8801 363.451C97.7501 372.311 103.8 381.181 109.35 390.241C114.35 398.451 117.12 408.241 124.27 414.981C130.36 420.741 139 418.531 146.04 414.431C154.77 409.361 162.57 401.801 171.25 396.261ZM198.19 353.461C194.56 361.961 192.39 369.461 186.04 376.461C182.15 380.761 177.57 384.531 173.4 388.581C169.223 392.717 164.644 396.425 159.73 399.651C152.2 404.561 145.73 411.891 136.92 414.311C128.11 416.731 125.21 411.961 120.92 404.721C115.92 396.291 111.51 387.791 106.17 379.551C95.3102 362.821 84.4802 347.491 71.4302 332.371C57.5102 316.261 44.6601 299.181 31.5401 282.431C23.6001 272.291 0.350098 250.211 6.39011 236.611C15.1501 216.921 29.9401 232.401 40.3901 241.541C56.1701 255.351 74.3901 266.541 91.8201 278.171C128.01 302.381 162.01 329.311 198.2 353.461H198.19ZM264.19 472.921C276.1 481.011 287.61 489.511 299.7 497.291C302.65 499.181 311.76 505.291 309.57 509.741C308.57 511.821 306.19 510.921 304.57 512.001C302.02 513.681 300.48 515.801 298.45 518.141C297.76 518.931 295.68 521.701 294.75 522.141C293.08 523.001 290.51 522.431 288.97 523.201C285.42 524.981 282.87 535.591 277.89 534.831C273.52 534.161 270.89 521.541 269.63 518.211C267.16 511.751 261.84 504.761 261.41 497.801C265.374 506.047 270.24 513.828 275.92 521.001C270.17 508.841 265.21 492.081 256.64 481.661C254.85 482.601 262.35 494.611 260.24 495.711C257.35 490.471 254.76 485.071 251.88 479.831C257.06 479.601 260.7 476.381 264.19 472.921ZM180.43 387.861C197.62 405.861 215.66 422.951 232.81 440.971C239.97 448.491 250.68 457.841 257.39 467.101C258.673 468.464 260.035 469.749 261.47 470.951L250.24 476.491C250.24 476.491 246.65 472.921 245.04 471.301C229.73 455.901 215.44 439.251 200.77 423.231C193.37 415.151 184.46 407.491 178 398.661C174.46 393.841 174.55 391.341 180.42 387.861H180.43ZM39.4301 269.441C51.6602 283.071 64.6601 295.941 76.2601 310.171C85.0301 320.931 94.0601 331.771 102.03 343.171C105.82 348.591 118.94 362.741 118.26 370.021C102.45 349.561 87.6302 328.021 71.1702 308.091C53.7502 287.001 32.8401 268.601 16.5201 246.771C22.3201 245.761 36.2201 265.901 39.4001 269.441H39.4301ZM173.98 355.501C167.18 356.741 152.05 341.651 147.54 338.181C135.11 328.591 123.11 318.461 110.92 308.571C126.77 313.861 141.2 329.571 154.24 339.491C156.06 340.881 174.54 354.561 173.98 355.501ZM142.98 404.501C141.86 403.971 127.26 387.331 129.32 386.391C130.74 385.741 138.79 396.211 139.44 397.141C139.84 397.891 143.69 403.811 142.93 404.541L142.98 404.501ZM262.26 478.611C263.55 477.961 277.08 490.431 277.75 490.971C278.42 491.511 297.37 506.431 293.63 508.151C293.29 508.311 282.21 497.951 281.84 497.651C279.93 496.061 262.97 478.251 262.26 478.611ZM262.26 485.201C267.12 484.801 285.67 510.271 284.79 514.581C280.97 509.991 276.42 506.081 272.6 501.481C271.25 499.921 262.74 485.161 262.21 485.211L262.26 485.201Z" fill="#DF936D"/>
<path opacity="0.15" d="M634.06 284.729C601.62 315.909 565.92 343.179 532.06 372.639L530.61 371.159C534.89 364.259 539.02 357.269 543.49 350.499C549.12 341.969 554.83 333.499 560.88 325.249C565.65 318.769 571.04 312.739 576.05 306.439C581.91 299.079 587.72 291.679 593.38 284.159C594.09 283.209 593.75 281.469 593.89 280.099C592.44 280.659 590.5 280.799 589.62 281.839C586.12 285.959 583.03 290.419 579.62 294.649C571.62 304.649 562.99 314.319 555.5 324.749C545.74 338.349 536.79 352.529 527.61 366.539C524.23 371.699 521.72 377.539 517.87 382.269C514.02 386.999 508.78 391.039 504.19 395.389C495.03 404.099 485.43 412.389 476.84 421.639C463.44 436.059 450.7 451.079 437.76 465.929C430.53 474.229 423.53 482.729 416.33 491.059C413.013 495.008 409.252 498.562 405.12 501.649C405.64 499.302 406.308 496.991 407.12 494.729C413.18 480.529 418.83 466.109 425.67 452.289C430.1 443.289 436.36 435.289 441.75 426.789C446.82 418.789 451.8 410.789 456.87 402.789C464.67 390.519 472.54 378.289 480.35 366.029C488.967 352.755 499.474 340.809 511.54 330.569C519.59 323.569 527.86 316.869 535.92 309.899C545.4 301.699 554.76 293.359 564.15 285.059C564.72 284.549 565.45 283.909 565.56 283.249C565.651 281.999 565.621 280.743 565.47 279.499C564.4 279.759 563.04 279.699 562.29 280.339C553.63 287.799 545.19 295.499 536.45 302.849C526.45 311.239 516.26 319.299 506.22 327.599C504.035 329.349 502.077 331.364 500.39 333.599C495.62 340.159 487.69 341.649 481.39 345.709C468.5 353.999 455.51 361.989 444.01 372.369C436.94 378.749 428.47 383.679 418.62 385.309C414.76 385.949 412.86 385.119 411.94 380.649C409.94 370.789 415.47 365.049 421.94 359.589C427.83 354.649 433.94 349.899 439.82 345.009C446.71 339.319 453.26 333.159 460.46 327.909C477.64 315.379 495.19 303.369 512.46 290.909C528.78 279.159 544.95 267.189 561.12 255.219C568.46 249.779 575.47 243.909 582.9 238.599C588.278 234.759 593.889 231.255 599.7 228.109C611.6 221.669 623.57 215.329 635.7 209.419C642.34 206.189 649.75 204.489 656.28 201.089C668.28 194.809 680.05 187.919 691.77 181.089C705.62 172.969 719.11 164.219 733.16 156.459C741.8 151.689 751.37 148.619 760.16 144.119C768.95 139.619 777.17 133.999 785.89 129.399C794.04 125.139 802.53 121.499 810.97 117.809C819.41 114.119 827.68 110.739 836.1 107.339C843.95 104.169 851.88 101.209 859.75 98.0687C876.12 91.5387 893.45 92.1487 910.59 90.9987C923.16 90.1287 935.65 88.1287 948.19 86.7587C950.46 86.5087 952.83 87.1487 955.09 86.8687C956.93 86.6387 958.66 85.6387 960.45 84.9787L960.07 83.3887C955.68 83.3887 951.3 83.2787 946.91 83.3887C940.27 83.5987 933.63 83.8787 927.01 84.3087C916.66 84.9787 906.3 86.6987 896.01 86.3787C878.14 85.8087 861.88 91.1387 845.72 97.5787C830.64 103.579 815.47 109.379 800.49 115.639C792.55 118.959 751.31 141.369 743.76 145.559C727.89 154.359 712.17 163.419 696.41 172.409C686.41 178.099 676.72 184.309 666.48 189.489C643.98 200.859 620.67 210.759 598.74 223.119C582.94 231.999 568.84 243.839 554 254.459C540.51 264.129 527.13 273.959 513.67 283.669C498.59 294.549 483.46 305.339 468.4 316.249C459.77 322.499 451.08 328.689 442.74 335.319C437.37 339.589 432.74 344.749 427.52 349.229C423.9 352.339 419.71 354.779 416.07 357.869C408.22 364.519 405.43 372.759 407.27 383.169C408.34 389.169 412.93 390.789 417.78 390.079C428.13 388.579 437.23 384.229 445.49 377.849C456.31 369.499 467.27 361.339 478.24 353.179C480.007 351.939 482.085 351.219 484.24 351.099C481.91 354.549 479.49 357.939 477.24 361.449C466.69 378.069 456.24 394.759 445.64 411.339C442.05 416.949 437.98 422.259 434.27 427.799C427.27 438.229 420.86 448.929 416.27 460.799C411.16 474.079 403.1 486.649 400.51 500.329C398.27 512.169 390.51 519.769 385.91 529.589C382.62 536.589 383.28 543.469 385.08 550.369C386.08 554.369 392.17 556.059 397.61 554.749C415.61 550.409 429.72 539.489 443.51 527.869C450.651 522.03 458.215 516.729 466.14 512.009C462.48 522.719 458.97 533.489 455.14 544.129C451.81 553.299 447.98 562.329 448.14 572.299C448.282 575.546 448.919 578.754 450.03 581.809C451.37 585.729 456.5 587.969 461.31 586.049C465.77 584.259 470.89 582.049 473.62 578.409C480.219 569.617 486.129 560.329 491.3 550.629C497.22 539.579 501.98 527.909 507.35 516.559C511.91 506.929 516.15 497.119 521.35 487.859C526.9 478.039 533.59 468.859 539.51 459.239C544.06 451.839 547.97 444.039 552.58 436.679C557.31 429.139 561.86 421.279 567.82 414.779C571.7 410.539 577.96 408.479 583.15 405.439C591.42 400.579 599.71 395.759 607.95 390.839C618.31 384.669 628.84 378.999 638.58 372.249C651.31 363.509 665.58 357.989 679.34 351.489C691.67 345.689 703.69 339.079 716.34 334.209C723.46 331.469 731.63 331.349 739.34 330.379C743.87 329.809 745.71 333.109 746.34 336.869C748.51 350.229 746.02 362.329 736.73 372.749C727.68 382.899 719.24 393.619 709.9 403.489C705.33 408.359 699.38 411.999 693.84 415.999C681.49 424.829 668.71 433.099 656.69 442.349C646.89 449.899 636.91 457.639 630.18 468.269C626.338 474.471 624.531 481.719 625.01 488.999C625.103 490.445 625.515 491.853 626.218 493.121C626.921 494.388 627.896 495.484 629.074 496.329C630.252 497.174 631.602 497.747 633.028 498.006C634.454 498.265 635.92 498.205 637.32 497.829C645.122 495.642 652.694 492.704 659.93 489.059C667.93 484.839 675.08 478.909 683 474.439C694 468.229 705.42 462.829 716.53 456.829C729.03 450.089 741.36 443.029 753.81 436.189C763.55 430.839 773.81 426.309 783.01 420.119C792.7 413.579 802.14 406.259 810.17 397.819C815.3 392.429 818.09 384.599 821.17 377.539C827.38 363.279 832.58 348.539 839.12 334.469C843.84 324.554 849.275 314.996 855.38 305.869C864.88 291.369 874.05 276.509 886.53 264.249C894.53 256.399 900.9 246.549 911.7 241.999C920.76 238.179 930.03 234.829 939.28 231.499C946.08 229.059 953.05 226.999 959.84 224.629C960.71 224.319 961.16 222.819 961.84 221.869C960.72 221.279 959.45 220.009 958.49 220.209C951.54 221.659 944.6 223.209 937.77 225.129C933.17 226.429 928.85 228.709 924.25 230.009C910.602 233.826 898.466 241.764 889.5 252.739C885.43 257.609 880.28 261.579 876.33 266.539C869.6 274.979 863.01 283.539 857.16 292.629C850.88 302.339 845.26 312.509 839.79 322.709C831.46 338.259 823.62 354.069 817.95 370.849C812.42 387.239 802.79 400.779 788.21 410.139C776.37 417.739 763.93 424.409 751.69 431.379C741.47 437.199 731.23 442.989 720.88 448.569C709.88 454.569 698.62 460.139 687.59 466.109C683.106 468.537 678.79 471.263 674.67 474.269C664.077 482.141 652.178 488.082 639.52 491.819C633.25 493.629 628.9 490.129 630.43 482.589C632.76 471.109 639.43 463.209 647.99 455.669C657.61 447.159 668.6 440.969 678.99 433.769C692.012 424.68 704.462 414.798 716.27 404.179C723.5 397.729 729.27 389.559 735.44 381.989C739.309 377.347 742.924 372.5 746.27 367.469C752.92 357.289 752.85 345.729 751.7 334.299C751.05 327.869 744.77 323.999 738.16 324.019C725.61 324.019 714.7 329.089 703.72 334.339C693.4 339.279 682.79 343.589 672.39 348.339C663.39 352.469 654.12 356.339 645.52 361.219C634.22 367.669 623.61 375.339 612.4 381.969C597.32 390.889 581.89 399.209 566.73 407.969C552.66 416.109 539.25 424.969 527.11 436.139C514.77 447.509 506.17 461.709 494.87 473.719C483.57 485.729 472.45 497.789 460.16 508.589C447.87 519.389 434.76 528.859 421.38 538.039C414.62 542.679 406.65 545.729 398.95 548.799C393.33 551.039 388.95 548.199 389.07 542.209C389.17 537.299 390.13 531.889 392.43 527.629C399.43 514.709 410.22 504.779 420.06 494.049C433.25 479.649 445.52 464.419 458.38 449.709C466.13 440.849 474.17 432.249 482.22 423.709C489.08 416.389 495.88 408.969 503.22 402.109C508.9 396.779 515.42 392.359 521.41 387.359C541.11 370.919 560.71 354.359 580.41 337.919C589.2 330.579 598.41 323.729 606.88 316.009C615.88 307.809 626.68 301.519 633.27 290.849C634.129 289.181 634.848 287.445 635.42 285.659L634.06 284.729ZM553.45 420.729L555.18 422.209C552 428.139 549.06 434.209 545.6 439.979C535.23 457.209 523.94 473.979 514.35 491.579C505.14 508.519 497.9 526.519 489.21 543.759C484.234 553.51 478.632 562.93 472.44 571.959C470.18 575.279 465.92 577.559 462.14 579.459C457.73 581.669 453.2 579.109 453.44 574.229C453.81 566.609 454.44 558.759 456.65 551.539C460.43 539.269 465.38 527.349 470.19 515.409C472.19 510.539 471.46 504.929 476.24 500.729C482.74 495.029 488.43 488.349 494.02 481.729C503.8 470.109 513.12 458.089 522.91 446.479C525.35 443.589 528.91 441.679 531.86 439.199C539.08 432.999 546.25 426.859 553.45 420.709V420.729Z" fill="#402B1D"/>
<path d="M656.02 466.51C648.19 466.68 642.02 470.04 635.88 475.17C631.174 479.097 626.684 483.276 622.43 487.69C619.96 490.25 617.49 493.02 616.34 496.52C615.19 500.02 615.72 504.45 618.44 506.7C621.16 508.95 625.11 508.32 628.44 507.19C639.88 503.24 649.55 494.93 658.94 486.79C661.38 484.68 663.94 482.41 665.05 479.25C665.589 477.807 665.766 476.255 665.567 474.728C665.368 473.201 664.799 471.745 663.908 470.489C663.018 469.233 661.833 468.213 660.458 467.52C659.084 466.826 657.56 466.479 656.02 466.51ZM416.3 521.84C414.81 525.22 411.91 527.97 409.13 530.55C398.42 540.55 387.39 550.68 374.87 556.86C371.26 558.64 367.05 560.06 364.32 558.33C361.59 556.6 361.46 552.33 363 548.6C364.54 544.87 367.41 541.6 370.27 538.6C375.21 533.346 380.35 528.31 385.69 523.49C392.69 517.18 399.54 512.62 407.88 510.92C414.12 509.66 419.59 514.37 416.29 521.85L416.3 521.84ZM441.11 359C439.69 362 437 364.56 434.44 366.93C424.56 376.06 414.39 385.39 402.98 391.21C399.69 392.89 395.88 394.21 393.47 392.8C391.06 391.39 391.06 387.53 392.55 384.19C394.04 380.85 396.7 377.9 399.34 375.12C403.914 370.32 408.664 365.706 413.59 361.28C420.03 355.49 426.31 351.28 433.84 349.52C439.48 348.28 444.26 352.32 441.11 359ZM472.58 543.38C473.19 547.02 472.28 550.91 471.38 554.6C467.9 568.81 464.29 583.37 457.23 595.41C455.23 598.88 452.46 602.41 449.23 602.41C446 602.41 443.54 598.96 442.78 595.01C442.02 591.06 442.64 586.78 443.36 582.67C444.6 575.563 446.127 568.526 447.94 561.56C450.31 552.45 453.53 544.86 459.56 538.86C464.06 534.4 471.22 535.32 472.58 543.38Z" fill="#DF936D"/>
</g>
<defs>
<clipPath id="clip0_595:6">
<rect width="961.84" height="696.23" fill="white" transform="matrix(-1 0 0 1 961.84 0)"/>
</clipPath>
</defs>
</svg>
