<svg width="714" height="560" viewBox="0 0 714 560" fill="none" xmlns="http://www.w3.org/2000/svg">
<path d="M313.878 224.089C301.033 231.903 287.962 239.211 273.949 244.755C253.947 252.667 232.44 256.152 211.27 251.756C188.581 247.041 168.416 234.268 150.715 219.517L150.715 219.516C117.543 191.911 89.095 157.751 65.9723 121.409L65.9722 121.409C43.3811 85.912 25.8758 47.1273 14.6839 6.56837L14.6838 6.56822C11.8899 -3.55079 9.53487 -13.7819 7.53562 -24.0957L7.53563 -24.0957L7.53481 -24.0998C7.13672 -26.1084 5.32931 -26.8703 3.86065 -26.6855C3.11976 -26.5923 2.36789 -26.2572 1.8394 -25.6393C1.28937 -24.9961 1.05511 -24.1305 1.24125 -23.1618L1.37589 -22.4611L1.38641 -22.4596C17.6057 60.7358 59.774 137.642 118.752 198.253C148.397 228.718 185.011 259.994 230.392 260.106C263.677 260.187 293.309 244.394 320.955 227.214C345.027 237.723 369.544 247.258 393.969 256.757C395.275 257.265 396.581 257.773 397.887 258.281C416.421 265.491 435 272.585 453.577 279.678C474.315 287.596 495.05 295.513 515.716 303.589C515.685 305.803 515.647 308.021 515.61 310.241C515.376 324.262 515.139 338.379 516.202 352.179C517.843 373.496 522.584 394.265 535.257 413.272C556.961 445.827 593.309 466.014 628.795 479.66C674.139 497.091 722.766 506.544 770.703 512.91C781.826 514.387 792.968 515.669 804.124 516.79C808.081 541.138 807.332 566.008 804.771 591.035C803.168 606.697 800.857 622.395 798.552 638.062C798.034 641.584 797.516 645.104 797.006 648.622C794.231 667.775 791.705 686.847 790.753 705.633C790.255 715.422 790.175 725.229 790.596 735.015C790.637 735.987 791.063 736.765 791.748 737.249C792.404 737.713 793.207 737.846 793.937 737.752C795.381 737.566 796.933 736.401 796.845 734.385C795.47 702.319 800.121 670.347 804.784 638.3C805.735 631.763 806.686 625.223 807.587 618.678C812.223 585.001 815.51 551.239 810.364 517.401C849.167 521.093 888.133 522.91 927.053 524.256C939.763 524.693 952.476 525.104 965.193 525.486C967.219 525.548 968.407 523.986 968.614 522.532C968.719 521.797 968.598 520.982 968.131 520.317C967.642 519.62 966.85 519.201 965.867 519.172L964.45 519.13C912.862 517.568 860.839 515.992 809.295 511.036C808.779 508.23 808.201 505.424 807.559 502.617L807.559 502.617C799.891 469.195 782.19 440.56 756.681 417.772C730.933 394.773 700.101 378.32 669.481 363.174L669.038 364.07L669.481 363.174C621.415 339.408 571.914 318.856 522.032 299.306C522.271 265.815 518.977 230.294 496.494 203.322L496.492 203.32C484.142 188.591 466.888 178.81 447.901 175.776C427.094 172.388 405.81 176.739 386.432 183.949L386.432 183.949C366.172 191.498 347.95 202.805 329.87 214.148C329.406 214.439 328.942 214.73 328.478 215.021C325.797 216.704 323.118 218.385 320.435 220.053C290.069 206.792 260.304 191.904 233.451 172.529C205.075 152.046 180.468 126.568 164.627 95.2151L163.734 95.6661L164.627 95.2151C149.893 66.0578 142.426 32.4466 148.33 0.0689011C149.773 -7.79159 152 -15.4876 154.979 -22.9037L154.98 -22.9052C155.34 -23.8079 155.276 -24.6926 154.906 -25.4305C154.547 -26.1455 153.929 -26.6703 153.25 -26.9642C152.573 -27.2577 151.767 -27.3505 151.004 -27.1057C150.213 -26.8517 149.554 -26.2594 149.192 -25.3568L149.147 -25.245L149.146 -25.235C123.925 37.9903 154.06 108.91 200.502 153.378C226.625 178.397 257.916 197.284 290.206 213.048C298.029 216.869 305.926 220.538 313.878 224.089ZM329.904 224.132C329.102 223.79 328.3 223.448 327.498 223.105C329.999 221.522 332.483 219.937 334.954 218.361C337.766 216.568 340.559 214.787 343.335 213.033C361.565 201.528 383.142 190.147 405.349 184.494C427.547 178.844 450.295 178.936 470.967 190.261C505.181 209.008 515.357 251.086 515.784 287.667C515.817 290.719 515.814 293.787 515.792 296.866C495.968 289.133 476.091 281.543 456.226 273.958C451.365 272.102 446.505 270.246 441.647 268.389L441.29 269.323L441.647 268.389L439.994 267.757C403.114 253.66 366.224 239.559 329.904 224.132ZM521.887 308.565C521.906 307.721 521.924 306.875 521.941 306.027C557.272 319.901 592.384 334.29 626.951 349.997C661.094 365.51 695.681 381.511 726.714 402.552C755.127 421.816 780.13 446.358 793.359 478.377L794.283 477.996L793.359 478.377C797.717 488.924 800.838 499.613 802.976 510.411C754.376 505.468 706.238 497.391 659.332 483.352C621.813 472.124 583.404 455.928 555.482 427.912C540.813 413.19 530.25 395.125 525.529 374.859C520.79 354.425 521.296 333.293 521.799 312.285C521.829 311.045 521.858 309.805 521.887 308.565Z" stroke="#665346" stroke-width="2"/>
</svg>
