<svg width="1920" height="360" viewBox="0 0 1920 360" fill="none" xmlns="http://www.w3.org/2000/svg">
<mask id="mask0" style="mask-type:alpha" maskUnits="userSpaceOnUse" x="0" y="0" width="1920" height="360">
<path d="M0 0H1920V360H0V0Z" fill="#AB6A49"/>
</mask>
<g mask="url(#mask0)">
<path opacity="0.15" d="M1821.54 -318.108C1714.08 -371.477 1586.61 -390.974 1460.94 -397.012C1420.07 -398.96 1377.26 -399.349 1339.58 -385.325C1312.34 -375.197 1289.59 -358.232 1267.32 -341.559C1233.42 -316.239 1198.18 -289.087 1183.37 -253.248C1173.95 -230.44 1173.64 -205.898 1174.15 -181.922C1174.69 -154.458 1176.58 -125.671 1193.61 -102.414C1223.48 -61.5115 1287.64 -51.6169 1343.9 -41.6444C1454.25 -22.305 1561.41 12.1702 1662.36 60.8073C1702.6 80.2848 1741.7 102.236 1785.68 115.228C1829.66 128.219 1880.39 131.452 1922.62 113.689C1960.28 97.8536 1986.84 67.157 2001.94 34.3373C2067.04 -106.31 1964.93 -246.899 1821.54 -318.108Z" fill="#FCF9F7"/>
<path d="M1747.33 504.368C1669.78 542.867 1577.78 556.932 1487.08 561.287C1457.59 562.692 1426.69 562.973 1399.5 552.857C1379.84 545.551 1363.42 533.313 1347.35 521.285C1322.89 503.019 1297.45 483.433 1286.76 457.58C1279.97 441.127 1279.74 423.423 1280.11 406.127C1280.5 386.315 1281.86 365.549 1294.15 348.772C1315.71 319.266 1362.01 312.128 1402.62 304.934C1482.26 290.983 1559.6 266.114 1632.45 231.028C1661.49 216.978 1689.71 201.143 1721.45 191.771C1753.19 182.399 1789.8 180.067 1820.28 192.881C1847.46 204.304 1866.63 226.448 1877.53 250.123C1924.5 351.582 1850.81 452.999 1747.33 504.368Z" fill="#F4E8E1"/>
<path opacity="0.2" d="M504.283 262.644C601.39 229.201 688.596 172.619 774.674 116.562C816.906 89.0788 860.11 60.6999 889.989 20.089C908.485 -5.04004 921.169 -33.9717 927.126 -64.6124C933.082 -95.2532 932.161 -126.837 924.429 -157.077C916.697 -187.318 902.348 -215.459 882.419 -239.464C862.491 -263.47 837.482 -282.739 809.203 -295.878C770.297 -313.914 726.957 -319.679 684.181 -321.491C580.284 -325.912 465.358 -302.325 401.885 -219.837C357.533 -162.183 345.706 -85.1683 304.622 -25.0603C275.151 18.1607 231.324 51.5259 209.304 99.0124C199.111 121.484 194.247 146.013 195.094 170.679C195.941 195.346 202.476 219.482 214.187 241.199C233.911 277.097 285.422 324.525 330.318 321.895C355.159 320.434 386.07 299.574 410.502 291.588C441.646 281.323 473.373 273.299 504.283 262.644Z" fill="#DF936D"/>
<path opacity="0.15" d="M1185.49 162.35C1166.35 181.826 1147 201.134 1128.08 220.837C1110.51 239.147 1093.62 258.766 1083.43 282.272C1078.48 293.691 1075.19 305.986 1074.49 318.44C1073.9 328.865 1075.18 340.624 1082.82 348.467C1087.22 352.968 1093.41 355.221 1099.17 357.418C1105.53 359.834 1111.99 361.999 1118.46 364.11C1130.9 368.172 1143.43 372.019 1155.57 376.971C1179.44 386.71 1200.19 401.992 1222.74 414.218C1233.99 420.317 1245.8 425.665 1258.34 428.458C1271.91 431.484 1283.16 428.283 1295.61 422.901C1307.07 417.951 1318.74 412.763 1329.31 406.096C1340.74 398.928 1348.05 389.642 1349.86 376.107C1351.29 365.404 1350.47 354.233 1354.42 344C1357.77 335.356 1364.62 328.503 1373.07 324.777C1384.38 319.792 1394.54 322.669 1406.2 323.998C1412.35 324.697 1423.3 323.854 1423.81 315.567C1424.21 309.302 1417.52 304.649 1412.28 303.039C1405.66 301.012 1398.71 302.017 1391.92 301.52C1387.36 301.182 1382.46 299.674 1380.58 295.085C1377.15 286.715 1389.57 282.663 1391.63 290.799C1392.17 292.897 1389.82 294.798 1387.91 293.657C1382.08 290.172 1378.82 281.685 1383.74 275.997C1388.41 270.592 1396.99 271.801 1401.53 276.608C1401.91 277.01 1402.14 277.521 1402.2 278.067C1402.27 278.612 1402.15 279.163 1401.88 279.639C1401.6 280.114 1401.18 280.489 1400.68 280.707C1400.18 280.926 1399.62 280.978 1399.08 280.854C1392.9 279.401 1389.06 273.081 1390.07 266.846C1391.11 260.46 1397.33 257.373 1403.36 258.545C1418.52 261.49 1419.45 281.049 1406.35 287.534C1404.4 288.492 1402.09 286.884 1402.61 284.677C1403.77 279.848 1409.03 277.997 1413.45 279.812C1418.73 281.974 1420.21 288.168 1419.68 293.303C1419.53 294.725 1418.17 296.451 1416.49 295.774C1412.45 294.153 1410.3 290.027 1411.93 285.754C1413.82 280.795 1419.67 279.982 1424.3 280.444C1433.04 281.331 1448.05 288.837 1440.66 299.611C1434.84 308.078 1424.35 300.647 1426.76 291.805C1429.59 281.407 1443.28 280.149 1451.45 284.451C1460.8 289.36 1464.13 301.501 1459.38 310.765C1455.41 318.546 1442.59 324.283 1438.23 313.661C1436.84 310.275 1438.11 305.602 1442.52 305.995C1446.2 306.324 1448.76 311.13 1449.29 314.371C1450.23 320.164 1445.72 325.639 1442.21 329.713C1437.95 334.686 1432.94 338.952 1427.35 342.352C1423.69 344.543 1418.28 345.749 1417.22 340.229C1416.57 336.922 1418.03 331.369 1421.98 330.891C1427.24 330.256 1429.3 338.272 1429.98 342.099C1431.17 348.802 1429.64 355.353 1424.86 360.292L1424.35 356.275C1432.56 360.223 1440.09 371.556 1433.91 380.145C1433.11 381.27 1431.73 381.819 1430.44 381.075C1424.71 377.834 1424.17 368.056 1430.5 364.963C1435.72 362.412 1444.5 365.663 1444.31 372.113C1444.25 374.52 1441.66 375.247 1439.96 373.908C1432.55 368.083 1428.59 353.577 1439.64 349.066C1447.71 345.771 1457.12 354.791 1451.16 362.567C1446.55 368.572 1437.93 360.724 1435.25 356.537C1429.33 347.282 1433.12 334.784 1443.19 330.456C1448.27 328.275 1454.32 328.46 1458.23 332.701C1461.46 336.194 1461.8 340.734 1457.68 343.513C1457.19 343.792 1456.62 343.901 1456.07 343.824C1455.51 343.747 1455 343.488 1454.6 343.088C1452.46 340.46 1448.81 336.759 1449.98 333.035C1451.25 329.031 1457.26 326.369 1460.91 325.41C1470.8 322.798 1481.41 328.224 1485.99 337.214C1487.45 340.078 1489.21 345.319 1485.78 347.548C1482.36 349.777 1478.08 346.524 1476.06 343.89C1473.94 341.091 1472.1 336.755 1474.44 333.543C1477.18 329.791 1483.97 328.971 1488.23 329.166C1500.36 329.735 1511.84 340.454 1511.24 353.008C1511.16 354.756 1509.72 355.763 1508.06 355.48C1503.64 354.738 1501.56 350.022 1502.98 345.921C1504.55 341.386 1510.69 338.299 1515.31 338.635C1518.94 338.9 1522.9 341.687 1524.56 344.905C1525.93 347.565 1525.73 352.524 1521.97 353.163C1517.99 353.839 1516.46 348.51 1516.88 345.495C1517.49 341.167 1520.79 337.885 1524.69 336.279C1533.01 332.83 1544.35 335.886 1546.18 345.607C1546.54 347.512 1544.38 349.909 1542.45 348.465C1539.87 346.54 1535.91 342.913 1537.56 339.28C1539.43 335.185 1544.63 336.285 1547 339.121C1553.4 346.77 1553.07 362.624 1541.34 364.749C1539.01 365.167 1536.6 364.825 1534.47 363.774C1532.35 362.722 1530.61 361.017 1529.53 358.909C1527.83 355.479 1527.8 349.238 1531.99 347.511C1537.04 345.431 1540.79 352.07 1541.41 356.115C1542.28 361.855 1539.33 367.092 1534.15 369.538C1519.23 376.544 1506.93 361.885 1493.2 359.451C1483.81 357.785 1476.38 365.89 1475.5 374.834C1474.68 382.93 1481.76 388.591 1486.19 394.494C1494.5 405.6 1500.82 420.186 1496.56 434.133C1492.49 447.488 1480.89 454.282 1468.53 458.833C1454.26 464.097 1438.94 469.728 1437.73 487.349C1436.63 503.471 1445.96 519.257 1454.21 532.409C1473.79 563.608 1496.49 592.809 1516.75 623.577C1526.66 638.641 1535.83 654.862 1547.88 668.364C1558.38 680.133 1572.09 689.114 1588.32 689.073C1620.14 688.989 1642.36 660.263 1657.38 635.785C1676.9 603.997 1695.44 569.404 1702.84 532.505C1704.71 523.174 1703.26 514.576 1694.64 509.264C1687.01 504.564 1678.3 501.788 1670.54 497.259C1656.33 488.947 1644.8 476.379 1636.88 462.021C1620.72 432.722 1620.04 399.209 1628.48 367.502C1635.81 340.006 1648.72 310.394 1639.9 281.616C1635.33 266.748 1624.3 253.988 1609.04 249.67C1592 244.847 1574.95 251.276 1565 265.834C1562.45 269.559 1559.15 272.635 1554.77 269.224C1550.25 265.695 1548.29 258.338 1547.69 252.971C1546.05 238.106 1552.24 222.851 1563.15 212.789C1584.63 192.981 1616.15 192.993 1642.91 185.935C1656.53 182.337 1669.79 176.62 1679.5 166.09C1692.57 151.928 1694.47 132.036 1700.73 114.612C1706.3 99.0177 1715.62 85.0188 1729.87 76.1497C1741.94 68.6739 1756.08 65.225 1770.25 66.3006C1777.83 66.9045 1785.32 70.2163 1792.95 69.7297C1802.75 69.1027 1805.7 59.2169 1808.53 51.4245C1814.82 34.0494 1820.14 16.3401 1824.47 -1.62267C1841.09 -70.1016 1846.29 -144.276 1817.81 -210.51C1811.07 -226.211 1801.64 -241.604 1786.86 -250.908C1772.13 -260.175 1754.43 -263.091 1737.28 -263.111C1705.25 -263.144 1673.14 -254.642 1645.56 -238.339C1614.71 -220.109 1590.91 -192.441 1566.7 -166.562C1546.49 -144.959 1523.79 -121.657 1517.41 -91.6938C1514.2 -76.6328 1517.26 -63.1883 1521 -48.6361C1522.66 -42.2093 1524.23 -35.6125 1524.49 -28.9686C1524.74 -22.1326 1522.54 -16.5125 1519.92 -10.2925C1512.92 6.34737 1504.11 21.9133 1493.97 36.8294C1485.22 49.6936 1476.11 62.4766 1469.64 76.684C1462.85 91.5973 1459.65 108.413 1463.01 124.638C1465.54 136.795 1472.19 149.996 1467.94 162.523C1465.92 168.49 1457.15 179.35 1450.13 173.695C1446.36 170.655 1447.46 165.849 1450.15 162.508C1453.27 158.65 1457.69 157.28 1462.46 156.647C1472.97 155.254 1488.08 157.741 1492.44 168.971C1496.89 180.479 1486.53 190.678 1478.19 196.987C1457.27 212.802 1420.32 227.993 1428.47 260.597C1430.66 269.361 1436.37 276.475 1446.03 275.471C1451.79 274.885 1457.06 274.447 1461.28 279.178C1465.39 283.789 1466.14 290.231 1468.54 295.701C1472.35 304.369 1480 308.222 1488.38 311.436C1491.77 312.734 1495.05 314.212 1497.92 316.497C1501.16 319.077 1503.7 322.402 1506.86 325.084C1513.77 330.928 1523.27 332.014 1531.75 329.412C1547.91 324.465 1553.88 307.488 1557.48 292.644C1560.96 278.287 1564.3 261.264 1578.39 253.419C1590.14 246.879 1602.21 252.532 1605.04 265.696C1608.3 280.879 1599.91 294.46 1592.36 306.851C1582.99 322.221 1578.07 338.458 1577.63 356.498C1576.98 382.547 1581.49 419.996 1552.17 432.74C1541.45 437.396 1527.66 435.839 1519.57 426.862C1509.57 415.75 1513.52 400.716 1513.68 387.296C1513.78 379.065 1511.48 370.368 1504.23 365.555C1498.21 361.561 1488.97 360.66 1482.92 365.146C1470.29 374.529 1478.83 391.877 1485.74 401.743C1493.31 412.544 1502.45 425.19 1496.43 438.892C1490.52 452.342 1475.04 457.99 1463.17 464.764C1456.17 468.758 1449.45 473.262 1443.77 479.009C1437.51 485.334 1433.18 493.019 1428.83 500.718C1420.51 515.432 1411.89 528.695 1397.41 538.019C1383.8 546.794 1366.6 552.95 1357.99 567.558C1349.73 581.567 1350.49 601.145 1360.09 614.368C1364.96 621.094 1372.54 625.83 1380.94 626.224C1388.71 626.591 1395.48 622.388 1394.9 613.913C1394.53 608.318 1387.05 596.743 1380.9 603.781C1377.65 607.503 1377.76 617.002 1384.14 616.903L1382.34 621.243C1374.86 613.386 1374.31 600.299 1383.82 593.679C1393.91 586.662 1407.48 592.563 1411.53 603.469C1415.62 614.529 1412.47 628.903 1402.8 636.03C1390.39 645.164 1373.42 640.11 1361.29 633.148C1347.13 625.036 1334.38 611.766 1330.52 595.524C1326.38 578.09 1334.28 561.858 1345.76 549.033C1359.39 533.785 1379.17 521.549 1385.86 501.237C1387.87 495.112 1388.91 485.874 1382.22 482.179C1374.49 477.932 1367.3 483.181 1362.92 489.397C1353.73 502.407 1349.97 518.432 1336.95 528.714C1324.97 538.17 1308.14 541.872 1293.59 536.556C1279.9 531.558 1268.89 518.915 1266.45 504.427C1265.4 498.137 1266.24 491.287 1270.49 486.269C1274.74 481.251 1280.77 481.52 1286.45 483.785C1288.91 484.765 1291.24 486.064 1293.81 486.771C1294.3 486.904 1298.2 487.876 1296.82 486.114C1296.23 485.368 1292.94 485.884 1292.11 485.976C1288.19 486.407 1284.35 487.953 1283.18 492.164C1281.87 496.865 1284.53 502.011 1287.56 505.456C1292.59 511.168 1300.56 514.854 1308.18 514.946C1317 515.055 1324.75 510.231 1330.68 504.074C1359.45 474.206 1354 427.206 1348.49 389.897C1346.15 374.01 1343.77 355.221 1353.2 341.029C1357.69 334.305 1364.56 329.53 1372.43 327.664C1381.08 325.6 1389.99 327.141 1398.71 327.736C1406.91 328.298 1415.93 328.356 1423.13 323.829C1433.9 317.055 1428.73 304.718 1417.65 301.94C1409.2 299.823 1399.85 302.034 1391.26 302.196C1384.01 302.333 1376.5 301.397 1370.28 297.372C1359.59 290.445 1353.89 276.83 1353.55 264.432C1353.22 252.432 1357.46 240.635 1363.48 230.411C1374.83 211.134 1392.53 195.188 1414.02 188.556C1419.86 186.757 1425.76 184.962 1431.28 182.321C1434.75 180.659 1441.65 177.493 1441.2 172.703C1440.6 166.304 1428.84 163.731 1424.03 162.148C1415.18 159.234 1406.29 156.799 1397.08 155.394C1360.31 149.887 1323.04 157.88 1288.63 170.693C1273.04 176.499 1257.77 185.307 1241.2 188.007C1223.9 190.817 1208.07 184.746 1195.45 172.91C1169.52 148.589 1159.1 111.454 1154.75 77.3278C1149.93 39.5412 1148.94 0.459439 1150.82 -37.5534C1151.78 -57.2121 1153.91 -76.8388 1157.68 -96.1727C1161.38 -115.102 1167.07 -134.493 1180.07 -149.259C1204.36 -176.909 1246.04 -174.122 1279.33 -172.681C1320.13 -170.899 1361.34 -172.211 1401.85 -166.191C1439.12 -160.659 1475.63 -147.502 1502.89 -120.578C1526.39 -97.37 1541.03 -65.6645 1534.24 -32.3768C1527.09 2.68396 1501.56 29.858 1489.51 62.9499C1484.12 77.7764 1480.97 94.0223 1484.02 109.723C1487.17 125.968 1497.56 137.857 1506.43 151.251C1514.22 163.022 1519.53 176.917 1513.48 190.676C1507.25 204.796 1492.56 213.19 1480.69 222.02C1466.93 232.279 1455.92 244.262 1455.82 262.366C1455.73 278.89 1463.71 295.827 1477.23 305.552C1490.56 315.151 1508.13 316.749 1523.38 311.113C1530.68 308.413 1537.45 303.946 1542.51 298.012C1548.34 291.192 1550.66 283.059 1552.36 274.414C1554.04 265.935 1555.51 256.967 1560.98 249.966C1565.56 244.103 1572.41 240.552 1579.67 239.225C1594.76 236.498 1609.93 242.506 1621.23 252.373C1648.26 275.943 1650.65 312.354 1645.1 345.407C1639.18 380.643 1625.71 418.696 1641.48 453.378C1655.43 484.047 1687.71 503.218 1719.93 509.137C1755.37 515.653 1791.74 505.584 1823.79 490.755C1859.16 474.408 1891.12 451.678 1926.36 435.061C1944.14 426.662 1964.06 421.876 1980.73 411.294C1994.8 402.348 2005.33 388.898 2012.06 373.754C2043.46 303.154 1994.98 229.826 1953.83 175.189C1931.19 145.137 1907.97 114.666 1878.87 90.4708C1852.16 68.2657 1816.78 50.4093 1781.24 58.7579C1748.24 66.5232 1721.22 90.9658 1705.14 120.066C1696.35 135.981 1689.23 153.092 1677.46 167.152C1667.23 179.376 1653.81 186.742 1638.66 191.107C1613.1 198.458 1580.89 197.777 1562.46 219.849C1560.37 222.355 1556.8 218.725 1558.89 216.225C1577.58 193.837 1609.46 193.822 1635.49 186.712C1652.62 182.031 1666.8 173.57 1677.39 159.038C1688.4 143.939 1695.21 126.268 1704.88 110.376C1721.06 83.7808 1748.09 61.8279 1778.58 54.1788C1811.86 45.8019 1845.73 59.2966 1872.38 78.9864C1902.57 101.282 1926.44 130.989 1949.07 160.598C1971.53 189.994 1994.06 219.987 2009.47 253.785C2023.73 285.065 2031.15 319.545 2023.8 353.646C2020.5 368.996 2014.2 383.817 2004.51 396.258C1994.04 409.69 1980.33 418.535 1964.67 424.871C1945.79 432.507 1927.19 439.742 1909.23 449.443C1891.41 459.065 1874.14 469.683 1856.47 479.582C1825.84 496.746 1793.13 511.728 1757.81 515.367C1725.18 518.73 1691.59 510.833 1665.4 490.595C1652.71 480.797 1642.1 468.177 1635.93 453.305C1629.37 437.525 1628.15 420.311 1629.65 403.452C1632.87 367.249 1649.19 330.58 1640.29 294.005C1636.31 277.636 1626.65 261.661 1612.56 252.059C1599.41 243.12 1577.4 238.535 1565.61 252.327C1558.82 260.271 1558.41 271.798 1556.07 281.52C1554.33 288.786 1551.34 295.424 1546.52 301.16C1537.17 312.272 1522.78 318.539 1508.42 319.402C1476.89 321.299 1451.33 294.679 1450.77 263.744C1450.49 248.35 1457.12 235.419 1468.5 225.336C1480.68 214.554 1497.18 207.04 1506.33 193.188C1516.2 178.227 1508.44 162.803 1499.31 149.796C1490.18 136.789 1481.16 124.5 1478.65 108.382C1473.72 76.619 1489.86 47.0912 1505.22 20.6396C1514.75 4.20607 1524.48 -12.613 1528.8 -31.3054C1532.88 -48.854 1530.94 -67.2687 1523.27 -83.5848C1507.45 -117.699 1474.49 -141.037 1439.47 -152.408C1400.55 -165.043 1358.92 -165.458 1318.42 -166.351C1297.76 -166.808 1277.1 -168.132 1256.44 -168.306C1237.99 -168.465 1218.63 -167.633 1201.77 -159.337C1183.15 -150.159 1172.75 -132.547 1166.99 -113.187C1161.18 -93.6292 1158.54 -72.9209 1156.9 -52.631C1153.74 -13.6949 1154.87 26.0241 1158.5 64.9026C1161.86 100.905 1170.5 140.332 1196.75 167.038C1203.59 174.007 1211.85 179.844 1221.39 182.362C1230.38 184.735 1239.69 183.676 1248.49 181.091C1264.8 176.317 1280.1 168.106 1296.21 162.593C1330.22 150.958 1366.88 144.704 1402.64 151.169C1411.27 152.726 1419.58 155.265 1427.88 158.034C1433.56 159.93 1440.47 162.113 1444.22 167.117C1451.32 176.597 1439.47 184.288 1431.92 187.584C1422.43 191.744 1411.81 193.331 1402.75 198.368C1392.09 204.292 1382.78 212.803 1375.21 222.308C1367.2 232.363 1360.62 244.484 1359 257.407C1357.34 270.704 1362.05 287.286 1374.67 293.997C1390.11 302.213 1408.75 291.055 1424.24 298.897C1430.39 302.016 1435.31 308.858 1434.46 315.961C1433.67 322.743 1427.99 327.508 1422.05 330.083C1405.91 337.074 1388.44 328.069 1372.19 332.949C1351.19 339.244 1350.35 363.251 1352.46 381.315C1354.7 400.519 1358.33 419.305 1357.99 438.756C1357.63 458.454 1353.93 478.55 1343.51 495.543C1335.9 507.952 1323.87 520.171 1308.25 519.999C1295.57 519.86 1280.94 511.169 1278.19 498.093C1276.76 491.33 1279.86 484.3 1286.62 481.923C1290.41 480.593 1296.63 479.616 1300.16 482.064C1303.68 484.512 1302.88 490.299 1298.91 491.855C1294.23 493.682 1288.79 490.095 1284.58 488.447C1280.37 486.8 1276.39 486.428 1273.62 490.595C1271.23 494.179 1270.8 498.586 1271.38 502.765C1272.48 510.637 1276.82 518.232 1282.49 523.722C1295.98 536.767 1317 536.597 1331.94 526.144C1346.26 516.131 1349.55 498.637 1359.59 485.394C1363.11 480.737 1367.76 476.571 1373.75 475.729C1379.53 474.915 1386 477.045 1389.46 481.89C1397.97 493.789 1388.1 511.197 1380.66 520.724C1367.53 537.518 1347.4 549.06 1338.29 568.9C1330.19 586.563 1336.38 604.872 1349.73 617.99C1360.87 628.947 1382.49 642.289 1398.26 632.942C1409.03 626.569 1413 605.497 1401.28 597.908C1395.85 594.39 1387.98 595.12 1384.04 600.459C1380.01 605.929 1381.56 612.978 1386 617.636C1386.34 617.997 1386.57 618.45 1386.66 618.94C1386.75 619.429 1386.69 619.934 1386.5 620.393C1386.31 620.852 1385.99 621.246 1385.58 621.527C1385.17 621.808 1384.69 621.964 1384.19 621.976C1374 622.116 1371.55 609.592 1375.87 602.174C1382.06 591.518 1395.2 598.695 1398.64 607.641C1403.01 618.999 1396.43 630.133 1384.27 631.213C1370.11 632.475 1357.66 622.696 1351.92 610.353C1346.07 597.71 1345.67 582.528 1351.2 569.723C1357.5 555.169 1371.23 547.224 1384.44 539.754C1391.63 535.69 1398.9 531.561 1404.96 525.879C1411.76 519.499 1416.74 511.597 1421.35 503.574C1429.55 489.321 1437.05 476.258 1450.73 466.563C1462.88 457.955 1479.98 453.338 1489.2 441.158C1500.17 426.653 1486.23 412.1 1478.51 400.062C1472.26 390.312 1468.3 377.275 1474.82 366.588C1481.06 356.398 1494.82 354.76 1504.9 360.034C1518.25 367.014 1519.35 382.101 1518.28 395.396C1517.67 402.913 1516.74 411.147 1519.94 418.245C1523.02 425.063 1529.71 429.264 1537.02 430.088C1553.42 431.948 1565.57 418.252 1569.52 403.705C1573.48 389.158 1572.35 373.824 1572.49 358.934C1572.64 342.805 1575.66 326.783 1583.22 312.421C1590.57 298.453 1603.73 284.012 1600.11 266.974C1598.07 257.385 1590.3 252.966 1581.44 257.498C1573.38 261.621 1569.06 270.093 1566.42 278.36C1561.87 292.562 1560.58 308.044 1551.67 320.519C1543.93 331.395 1530.97 337.575 1517.56 335.376C1509.95 334.134 1504.42 330.006 1499.11 324.635C1495.74 321.216 1492.4 318.461 1487.9 316.642C1484.17 315.131 1480.36 313.925 1476.85 311.923C1470.99 308.629 1466.38 303.501 1463.73 297.33C1461.35 291.689 1460.38 281.143 1452.93 280.114C1446.58 279.237 1441.39 282 1435.23 278.753C1429.15 275.545 1425.52 269.148 1423.77 262.713C1415.62 232.655 1442.24 214.923 1463.97 200.641C1472.51 195.029 1492.23 184.111 1487.86 171.243C1485.52 164.371 1477.13 161.986 1470.63 161.487C1465.47 161.096 1458.12 161.111 1454.41 165.33C1453.4 166.475 1451.67 169.462 1454.13 170.108C1455.13 170.369 1456.6 169.217 1457.29 168.708C1459.2 167.281 1460.8 165.484 1462 163.423C1465.39 157.552 1464.23 150.068 1462.78 143.812C1461.26 137.203 1458.89 130.8 1457.73 124.097C1456.45 116.749 1456.25 109.257 1457.13 101.853C1460.84 70.4355 1482.71 46.5209 1498.5 20.542C1503.37 12.5386 1507.77 4.26513 1511.69 -4.23838C1515.08 -11.5776 1519.45 -19.3705 1519.41 -27.6747C1519.32 -41.0931 1513.36 -53.6736 1511.46 -66.7933C1507.19 -96.2186 1522.45 -122.974 1540.44 -144.908C1550.15 -156.75 1560.86 -167.744 1571.29 -178.963C1583.85 -192.476 1596.45 -205.994 1610.22 -218.3C1633.57 -239.148 1660.59 -254.828 1691.1 -262.44C1720.3 -269.721 1755.1 -272.503 1782.93 -258.909C1812.54 -244.443 1825.37 -210.358 1833.56 -180.514C1852.05 -113.046 1842.08 -40.4378 1822.4 25.5876C1819.77 34.4214 1816.89 43.1757 1813.76 51.8504C1811.54 57.9956 1809.52 64.9372 1804.82 69.7267C1800.26 74.3618 1794.02 75.3273 1787.79 74.5733C1779.84 73.609 1772.42 71.0839 1764.31 71.2092C1748.5 71.4397 1732.94 77.7575 1721.81 89.0456C1708.04 103.006 1704.19 121.531 1698.66 139.593C1694 154.87 1686.89 168.462 1673.65 177.931C1662.8 185.692 1649.81 189.717 1636.92 192.577C1609.87 198.578 1573.22 200.017 1558.05 227.335C1553.69 235.186 1551.49 244.972 1552.99 253.917C1553.49 256.951 1554.49 260.913 1556.46 263.396C1558.43 265.879 1559.09 265.467 1560.64 263.255C1561.45 262.084 1562.23 260.935 1563.15 259.815C1572.69 248.199 1586.38 241.69 1601.55 243.103C1630.28 245.786 1646.83 271.918 1647.83 298.848C1648.97 329.693 1634 357.836 1629.3 387.766C1624.06 421.26 1633.59 458.463 1658.8 482.072C1665.75 488.582 1673.66 493.472 1682.23 497.553C1689.1 500.839 1696.95 503.373 1702.48 508.853C1713.85 520.108 1707.17 538.275 1703.2 551.295C1697.92 568.565 1690.84 585.3 1682.62 601.361C1674.11 618.009 1664.85 634.599 1654.22 649.993C1639.25 671.685 1617.77 693.283 1589.63 694.078C1556.43 695.018 1537.63 664.544 1521.58 640.108C1501.4 609.315 1479.83 579.561 1459.2 549.089C1445.25 528.49 1419.18 492.717 1440.12 468.517C1449 458.233 1463.23 456.352 1474.89 450.72C1490.18 443.327 1496.48 428.023 1490.38 412.058C1487.28 403.907 1482.03 397.429 1476.65 390.731C1472.84 386.007 1469.87 380.815 1470.42 374.555C1471.55 361.651 1482.91 351.58 1495.83 354.78C1503.62 356.706 1510.08 361.87 1517.58 364.529C1524.11 366.832 1539.05 367.197 1536.32 356.043C1535.79 353.9 1533.16 351.282 1533.72 355.034C1533.85 355.93 1534.19 356.781 1534.72 357.514C1535.25 358.247 1535.95 358.838 1536.76 359.236C1540.97 361.348 1545.26 357.777 1546.1 353.697C1546.7 350.828 1545.67 347.275 1544.46 344.669C1544.2 344.101 1543.02 341.438 1542.58 341.406C1542.98 341.434 1544.51 343.632 1545.06 344.043L1541.33 346.902C1540.03 339.924 1531.38 338.307 1525.75 341.377C1523.73 342.474 1523.46 343.87 1522.12 345.523C1520.33 347.785 1520.47 347.197 1518.74 345.592C1518.11 344.95 1517.34 344.457 1516.5 344.15C1515.65 343.843 1514.75 343.729 1513.86 343.818C1512.54 344.074 1511.27 344.548 1510.11 345.221C1507.28 346.673 1507.05 348.446 1509.42 350.54L1506.24 353.012C1506.62 345.071 1500.63 337.651 1493.25 335.188C1489.58 333.967 1485.63 333.898 1481.93 334.99C1479.33 335.761 1478.25 337.134 1479.51 339.84C1479.96 340.809 1481.78 343.082 1482.45 342.383C1483.76 340.962 1478.94 335.738 1477.83 334.685C1475.44 332.438 1472.39 330.634 1469.14 330.027C1465.07 329.325 1460.89 330.215 1457.47 332.51C1456.14 333.38 1455.17 333.745 1455.3 335.414C1455.41 336.716 1457.45 338.483 1458.29 339.506L1455.21 339.081C1456.75 338.044 1454.61 336.077 1453.78 335.427C1452 334.034 1449.85 333.903 1447.65 334.335C1445.91 334.697 1444.26 335.415 1442.8 336.446C1441.35 337.476 1440.13 338.796 1439.21 340.323C1436.01 345.748 1437.62 352.468 1442.04 356.633C1442.92 357.471 1445.17 359.735 1446.5 359.498C1447.82 359.261 1447.75 357.993 1447.56 356.686C1447.26 354.518 1445.99 353.401 1443.76 353.335C1439.96 353.231 1437.68 356.949 1437.81 360.381C1437.98 364.471 1440.52 367.914 1443.62 370.343L1439.26 372.139C1439.34 369.733 1435.03 368.626 1433.18 369.381C1430.19 370.59 1430.49 375.236 1433.02 376.666L1429.55 377.596C1434.11 371.25 1427.65 363.464 1421.85 360.674C1420.31 359.936 1420.26 357.768 1421.33 356.657C1424.43 353.449 1425.64 349.438 1425.31 345.022C1425.22 343.921 1424.32 337.003 1422.78 336.538C1422.87 336.564 1421.59 337.831 1422.2 338.648C1423.01 339.703 1424.54 338.14 1425.43 337.581C1428.29 335.757 1430.98 333.685 1433.47 331.39C1437.65 327.634 1446.72 319.468 1443.61 313.265C1443.16 312.349 1441.53 310.071 1443.12 312.033C1444.45 313.672 1444.99 314.585 1447.43 314.373C1450.79 314.086 1453.61 311.087 1455 308.222C1460.8 296.319 1447.33 281.225 1435.14 288.812C1432.77 290.286 1428.42 297.44 1433.72 298.144C1437.45 298.64 1437.95 293.599 1436.54 291.315C1434.51 288.048 1430.1 286.661 1426.57 285.922C1424.94 285.545 1423.28 285.364 1421.61 285.382C1420.29 285.34 1418.98 285.645 1417.82 286.265C1416.05 288.124 1416.05 289.652 1417.79 290.852L1414.61 293.323C1414.78 291.638 1414.91 290.007 1414.44 288.33C1413.86 286.306 1408.77 280.941 1407.56 285.95L1403.82 283.092C1411.13 279.486 1413.76 269.129 1405.63 264.688C1402.73 263.103 1398.09 262.349 1395.85 265.511C1393.15 269.335 1396.28 274.954 1400.35 275.904L1397.9 280.15C1395.6 277.731 1391.56 276.399 1388.54 278.439C1384.31 281.295 1387.05 287.195 1390.44 289.228L1386.71 292.087L1385.06 292.631C1385.37 293.521 1385.92 294.309 1386.65 294.903C1387.38 295.498 1388.26 295.876 1389.19 295.994C1390.87 296.476 1392.68 296.444 1394.39 296.483C1397.36 296.55 1400.33 296.488 1403.31 296.612C1408.37 296.843 1413.52 297.531 1418.09 299.866C1425.19 303.479 1431.38 311.862 1427.87 319.985C1424.15 328.569 1413.41 329.974 1405.25 328.945C1399.15 328.186 1393.14 326.408 1386.96 326.629C1381.12 326.856 1375.46 328.66 1370.57 331.849C1349.56 345.531 1360.5 372.936 1350.35 392.249C1344.89 402.637 1334.49 409.372 1324.42 414.736C1313.34 420.663 1301.92 425.952 1290.23 430.579C1279.23 434.91 1268.6 435.925 1257.04 433.348C1244.67 430.609 1232.9 425.383 1221.76 419.444C1198.37 406.959 1177.01 390.918 1152.23 381.038C1139.59 376.001 1126.53 372.115 1113.63 367.843C1103.03 364.333 1090.07 361.192 1081.29 353.935C1064.75 340.27 1068.14 313.492 1073.33 295.351C1081.04 268.421 1098.1 245.655 1116.82 225.32C1137.83 202.504 1160.15 180.815 1181.89 158.701C1184.19 156.369 1187.77 159.988 1185.47 162.325L1185.49 162.35Z" fill="#402B1D"/>
</g>
</svg>
