<svg width="752" height="805" viewBox="0 0 752 805" fill="none" xmlns="http://www.w3.org/2000/svg">
<g clip-path="url(#clip0_1282:9454)">
<path opacity="0.65" d="M496.622 80.272C472.802 99.3131 441.66 109.742 412.475 115.71C352.921 127.883 301.187 145.981 271.242 202.8C238.493 264.925 235.745 339.372 195.759 398.21C143.947 474.459 54.1098 532.384 -40.112 530.572C-51.91 530.364 -63.6669 529.119 -75.247 526.852C-137.684 508.295 -149.036 443.708 -121.332 402.887C-139.814 371.659 -135.903 334.51 -136.937 297.648C-137.224 268.905 -135.081 201.275 -130.892 157.022C-139.006 154.404 -145.794 151.185 -150.764 147.026C-206.764 100.236 -175.814 37.6009 -156.991 23.5271C-132.738 2.25079 -117.502 4.29321 -96.7986 -0.609924C-33.7395 -13.2398 28.9072 -25.2441 92.6424 -33.6302C231.925 -53.9395 319.622 -44.5524 419.01 -56.3201L420.967 -56.6143C428.837 -58.1517 436.713 -59.6733 444.594 -61.1793C465.554 -63.7357 486.754 -59.5562 504.371 -47.119C550.101 -14.8224 536.22 48.6178 496.622 80.272ZM27.636 191.787L27.3825 191.54C27.3374 192.079 27.2935 192.618 27.2506 193.156C27.3791 192.697 27.5076 192.24 27.636 191.787Z" fill="#F4E8E1"/>
<path d="M200.311 6.01163C199.787 76.5902 170.994 144.937 129.936 201.377C94.7267 249.777 35.8664 314.958 -25.9148 325.556C-96.1003 337.601 -142.229 257.656 -104.204 201.286C-150.18 174.833 -159.339 119.17 -128.953 79.6132C-116.107 62.814 -95.8231 55.0974 -77.9057 44.5032C-54.0891 31.17 -30.6985 17.644 -7.83517 2.98184C58.1583 -38.4212 73.6788 -68.8614 102.915 -72.2395C153.597 -84.4162 200.673 -42.8679 200.311 6.01163Z" fill="#E8CDBF"/>
</g>
<g opacity="0.15" clip-path="url(#clip1_1282:9454)">
<path d="M497.087 306.37C496.978 306.923 497.083 307.497 497.379 307.977C497.676 308.457 498.143 308.807 498.687 308.957C499.231 309.107 499.812 309.046 500.313 308.786C500.814 308.527 501.198 308.087 501.389 307.557C502.314 304.736 502.512 301.728 501.964 298.81C501.106 293.789 498.311 289.279 495.297 285.271C493.616 283.053 491.89 280.871 490.365 278.543C489.598 277.37 488.906 276.15 488.292 274.891C488.127 274.562 487.981 274.234 487.835 273.896C487.689 273.558 487.972 274.252 487.835 273.896L487.661 273.458C487.407 272.797 487.188 272.123 487.004 271.44C486.913 271.105 486.836 270.767 486.776 270.427C486.745 270.268 486.718 270.11 486.693 269.952C486.671 269.846 486.656 269.74 486.648 269.632C486.648 269.632 486.693 270.089 486.648 269.824C486.579 269.126 486.545 268.425 486.547 267.724C486.547 267.347 486.569 266.969 486.611 266.592C486.611 266.51 486.684 265.999 486.611 266.327C486.538 266.656 486.611 266.145 486.611 266.063C486.733 265.347 486.91 264.642 487.141 263.954C487.202 263.777 487.266 263.601 487.333 263.424C487.333 263.424 487.424 263.242 487.424 263.196C487.424 263.15 487.25 263.579 487.351 263.36C487.451 263.141 487.625 262.767 487.789 262.447C487.954 262.128 488.146 261.826 488.346 261.534C488.42 261.434 488.584 261.279 488.611 261.16C488.639 261.041 488.337 261.498 488.493 261.306L488.639 261.133C489.052 260.664 489.497 260.224 489.972 259.818C490.158 259.67 490.334 259.511 490.502 259.343C490.502 259.343 490.1 259.599 490.283 259.517C490.352 259.486 490.416 259.446 490.474 259.398C490.611 259.27 490.182 259.517 490.173 259.517C489.965 259.558 489.751 259.558 489.543 259.517C489.305 259.486 489.076 259.404 488.873 259.276C488.669 259.148 488.496 258.978 488.365 258.777C488.547 259.042 488.155 258.257 488.264 258.576C488.374 258.896 488.2 257.974 488.264 258.421V258.567C488.264 258.567 488.374 258.038 488.264 258.22C488.241 258.282 488.226 258.346 488.219 258.412C488.219 258.595 488.365 258.083 488.365 258.093C488.343 258.147 488.316 258.199 488.283 258.248C488.237 258.312 488.666 257.8 488.511 257.946C488.356 258.093 488.794 257.736 488.748 257.755C488.703 257.773 489.242 257.563 489.022 257.636C488.803 257.709 489.333 257.636 489.324 257.636C489.315 257.636 489.178 257.636 489.141 257.636C488.63 257.636 489.607 257.736 489.141 257.636L488.757 257.545C488.502 257.481 488.246 257.417 487.99 257.371C487.735 257.326 487.369 257.289 487.077 257.253C486.998 257.248 486.919 257.248 486.839 257.253H487.04C486.702 257.198 486.355 257.143 486.017 257.079C485.339 256.948 484.67 256.768 484.017 256.54L483.716 256.431C483.323 256.285 483.771 256.431 483.807 256.431C483.674 256.344 483.53 256.277 483.378 256.23C483.064 256.077 482.759 255.906 482.465 255.719C482.328 255.628 482.2 255.518 482.063 255.445C481.926 255.372 482.437 255.755 482.273 255.6L482.127 255.481C481.921 255.301 481.726 255.109 481.542 254.906C481.442 254.797 481.36 254.669 481.259 254.568C481.159 254.468 481.542 254.961 481.414 254.769L481.268 254.559C481.126 254.347 480.995 254.128 480.876 253.902C480.802 253.774 480.739 253.637 480.684 253.5C480.519 253.163 480.866 253.975 480.684 253.5C480.613 253.3 480.552 253.095 480.501 252.889C480.501 252.797 480.391 252.222 480.437 252.642C480.483 253.062 480.437 252.642 480.437 252.514C480.424 252.256 480.424 251.997 480.437 251.738C480.437 251.382 480.318 252.268 480.437 251.802C480.437 251.684 480.492 251.574 480.519 251.455C480.57 251.327 480.613 251.196 480.647 251.063C480.647 251.063 480.428 251.501 480.538 251.327C480.647 251.154 480.592 251.218 480.62 251.163C480.647 251.108 480.766 250.917 480.839 250.798C481.086 250.396 480.574 251.081 480.839 250.798C481.03 250.643 481.208 250.472 481.369 250.287C481.369 250.341 480.949 250.579 481.204 250.415L481.405 250.278L481.716 250.095C481.826 250.051 481.933 249.999 482.035 249.94C482.035 249.94 481.56 250.113 481.78 250.049L482.008 249.967C482.259 249.882 482.516 249.812 482.775 249.757L483.204 249.675H483.387C483.387 249.675 482.857 249.73 483.104 249.675C484.247 249.589 485.395 249.589 486.538 249.675C487.635 249.805 488.739 249.876 489.844 249.885C491.048 249.855 492.242 249.652 493.388 249.282C495.644 248.516 498.009 246.918 498.439 244.389C498.682 243.188 498.55 241.94 498.06 240.816C497.57 239.693 496.745 238.747 495.699 238.108C493.799 237.2 491.642 236.98 489.598 237.487C484.812 238.4 481.204 242.116 478.062 245.576C476.035 247.813 473.98 250.04 472.025 252.35C471.112 253.455 470.199 254.605 469.285 255.71C468.856 256.221 468.372 256.714 467.934 257.189C467.678 257.444 467.422 257.691 467.148 257.928L466.801 258.229C466.718 258.288 466.639 258.352 466.564 258.421C466.564 258.421 466.911 258.166 466.71 258.302C466.157 258.672 465.577 258.999 464.975 259.279L464.71 259.398C464.491 259.508 464.911 259.316 464.911 259.316C464.748 259.361 464.589 259.419 464.436 259.489C464.162 259.581 463.885 259.66 463.605 259.727L463.038 259.845C462.947 259.845 462.472 259.937 462.837 259.845C463.203 259.754 462.719 259.845 462.637 259.845H462.134C461.506 259.866 460.878 259.845 460.253 259.781C459.869 259.781 460.709 259.854 460.198 259.781L459.76 259.708C459.449 259.648 459.145 259.578 458.846 259.498C458.226 259.34 457.617 259.144 457.02 258.914L456.682 258.777L456.873 258.859C456.746 258.786 456.599 258.741 456.472 258.677C456.185 258.543 455.902 258.403 455.622 258.257C455.073 258.018 454.536 257.749 454.015 257.453L453.622 257.17C453.302 256.942 454.006 257.49 453.622 257.17C453.415 257 453.217 256.82 453.028 256.632C452.84 256.443 452.63 256.221 452.398 255.965L452.152 255.664C451.996 255.481 452.307 255.874 452.298 255.865C452.251 255.791 452.199 255.721 452.142 255.655C451.82 255.203 451.533 254.727 451.284 254.231L451.092 253.829C450.882 253.373 451.229 254.185 451.092 253.829C450.955 253.473 450.919 253.354 450.836 253.108C450.668 252.579 450.537 252.039 450.444 251.492C450.444 251.401 450.38 251.008 450.444 251.41C450.508 251.811 450.444 251.528 450.444 251.41C450.444 251.291 450.444 251.154 450.444 251.026C450.444 250.746 450.428 250.466 450.398 250.186C450.384 249.619 450.406 249.052 450.462 248.488C450.462 248.397 450.462 248.315 450.462 248.223C450.462 247.977 450.462 248.516 450.462 248.488C450.462 248.461 450.508 248.178 450.535 248.032C450.562 247.886 450.636 247.511 450.69 247.247C450.826 246.659 450.997 246.079 451.202 245.512L451.384 245.046C451.384 244.982 451.448 244.909 451.467 244.836C451.485 244.763 451.284 245.256 451.384 245.028C451.485 244.8 451.658 244.435 451.805 244.115C452.103 243.53 452.435 242.963 452.8 242.417L453.101 241.979L453.284 241.732C453.43 241.531 453.175 241.878 453.165 241.878C453.372 241.654 453.567 241.42 453.75 241.175C454.201 240.668 454.689 240.195 455.211 239.76C455.257 239.76 455.54 239.505 455.275 239.706C455.01 239.906 455.275 239.706 455.275 239.706L455.64 239.45C455.869 239.295 456.106 239.149 456.344 239.012C457.257 238.482 458.271 238.099 459.148 237.451C460.405 236.614 461.35 235.384 461.833 233.954C462.139 233.181 462.199 232.332 462.002 231.525C461.806 230.717 461.364 229.99 460.737 229.444C458.079 227.39 454.809 229.873 452.955 231.818C451.953 232.898 451.037 234.055 450.215 235.278C449.567 236.186 448.987 237.141 448.48 238.135C447.499 240.164 446.863 242.343 446.599 244.581C446.06 248.778 446.883 253.037 448.946 256.732C450.035 258.702 451.544 260.408 453.368 261.729C455.191 263.05 457.283 263.953 459.495 264.374C462.18 264.839 464.942 264.554 467.477 263.552C470.175 262.46 472.515 260.639 474.236 258.293C475.871 256.075 476.738 253.4 478.309 251.127L478.674 250.615C478.785 250.5 478.88 250.372 478.958 250.232L478.848 250.369L478.994 250.186L479.295 249.821C479.752 249.273 480.23 248.744 480.729 248.233C481.229 247.721 481.728 247.25 482.227 246.817C482.507 246.574 482.79 246.337 483.077 246.105L483.287 245.941C483.04 246.133 483.442 245.831 483.506 245.786C484.678 244.923 485.921 244.163 487.223 243.513C487.57 243.339 487.917 243.184 488.273 243.02C488.63 242.855 487.954 243.147 488.346 243.02L488.812 242.837C489.497 242.572 490.195 242.344 490.904 242.152C491.296 242.052 491.689 241.961 492.082 241.888H492.338H492.173L492.767 241.842C493.135 241.821 493.504 241.821 493.872 241.842C494.338 241.842 493.808 241.842 493.79 241.842C493.772 241.842 493.991 241.842 494.027 241.842L494.42 241.933L494.868 242.079C495.224 242.198 494.438 241.869 494.868 242.079C495.111 242.196 495.346 242.33 495.571 242.481C495.726 242.59 495.845 242.782 495.498 242.408C495.498 242.454 495.598 242.49 495.653 242.536L495.945 242.81C496.009 242.873 496.283 243.22 496.073 242.928C495.863 242.636 496.146 243.047 496.201 243.129C496.256 243.211 496.457 243.668 496.329 243.33C496.201 242.992 496.329 243.412 496.384 243.494C496.438 243.576 496.384 243.859 496.493 243.951C496.603 244.042 496.493 243.458 496.493 243.686C496.493 243.75 496.493 243.814 496.493 243.887C496.493 243.96 496.493 244.197 496.493 244.343C496.493 244.489 496.493 244.069 496.493 244.079C496.493 244.088 496.493 244.252 496.448 244.334C496.402 244.416 496.384 244.59 496.347 244.718C496.311 244.845 496.301 244.845 496.283 244.909C496.228 245.138 496.384 244.681 496.384 244.69C496.228 244.964 496.11 245.256 495.927 245.521L495.808 245.685C495.68 245.886 495.954 245.503 495.945 245.503C495.846 245.596 495.754 245.696 495.671 245.804C495.543 245.932 495.406 246.06 495.279 246.178C494.986 246.443 495.635 245.941 495.279 246.178L494.941 246.398C494.874 246.425 494.81 246.459 494.749 246.498C494.749 246.498 495.233 246.334 495.032 246.379C494.785 246.429 494.541 246.493 494.301 246.571C494.731 246.416 494.74 246.525 494.53 246.571H494.338H493.954C493.644 246.571 493.333 246.571 493.041 246.571H492.63C492.374 246.571 492.895 246.571 492.877 246.571H492.666C491.534 246.398 490.429 246.114 489.305 245.895C488.736 245.756 488.134 245.84 487.624 246.13C487.115 246.421 486.736 246.895 486.565 247.457C486.414 248.027 486.493 248.633 486.785 249.146C487.077 249.658 487.559 250.035 488.127 250.195C490.611 250.698 493.187 251.474 495.726 250.917C497.195 250.537 498.486 249.659 499.379 248.433C500.145 247.529 500.654 246.436 500.852 245.268C501.05 244.1 500.929 242.9 500.503 241.794C500.077 240.689 499.361 239.718 498.431 238.984C497.5 238.251 496.389 237.781 495.215 237.624C491.799 236.93 488.328 238.135 485.278 239.596C482.556 240.924 480.072 242.692 477.925 244.827C475.823 246.912 474.077 249.326 472.756 251.976C472.14 253.236 471.445 254.456 470.674 255.628L470.354 256.075C470.217 256.285 470.464 255.938 470.464 255.938C470.403 256.025 470.336 256.107 470.263 256.184C470.08 256.404 469.891 256.617 469.696 256.823C469.502 257.03 469.267 257.259 468.993 257.508L468.628 257.828C468.564 257.883 468.199 258.175 468.473 257.956C468.747 257.736 468.473 257.956 468.418 257.956L468.19 258.12L467.842 258.357C467.593 258.522 467.337 258.677 467.075 258.823C466.813 258.969 466.527 259.115 466.217 259.261L465.842 259.425C465.842 259.425 466.29 259.252 466.061 259.334L465.87 259.407C465.296 259.626 464.706 259.803 464.107 259.937L463.568 260.046C463.477 260.046 463.011 260.128 463.395 260.046C463.778 259.964 463.221 260.046 463.148 260.046H462.737C462.129 260.091 461.518 260.091 460.91 260.046H460.636C460.381 260.046 460.901 260.046 460.883 260.046L460.399 259.964C460.125 259.915 459.851 259.854 459.577 259.781C459.006 259.634 458.445 259.451 457.896 259.234C457.613 259.124 458.061 259.298 458.106 259.325L457.896 259.234L457.586 259.088L456.937 258.75C456.502 258.504 456.081 258.233 455.677 257.937L455.503 257.809C455.503 257.809 455.914 258.138 455.741 257.992L455.449 257.746L454.956 257.307C454.598 256.973 454.26 256.62 453.942 256.248L453.668 255.92L453.567 255.792C453.567 255.792 453.887 256.221 453.75 256.029C453.613 255.837 453.467 255.655 453.339 255.454C452.81 254.649 452.346 253.804 451.951 252.925C451.841 252.697 452.179 253.491 452.024 253.108L451.96 252.953L451.841 252.642C451.756 252.417 451.677 252.192 451.604 251.967C451.451 251.492 451.317 251.014 451.202 250.533C451.092 250.068 451.01 249.62 450.928 249.118C450.846 248.616 450.992 249.648 450.928 249.118V248.789C450.928 248.552 450.909 248.312 450.873 248.068C450.81 247.064 450.828 246.057 450.928 245.055C450.928 244.928 450.928 244.8 450.928 244.672C450.983 244.188 450.855 245.128 450.928 244.772C450.928 244.553 451.001 244.334 451.037 244.115C451.129 243.622 451.241 243.135 451.375 242.654C451.509 242.174 451.661 241.702 451.832 241.239L451.969 240.883C452.133 240.454 451.777 241.303 451.969 240.956C452.06 240.755 452.152 240.555 452.243 240.363C452.754 239.352 453.34 238.382 453.997 237.46C454.197 237.168 454.404 236.863 454.618 236.547C454.709 236.419 454.809 236.3 454.901 236.172C454.901 236.227 454.59 236.565 454.837 236.255L454.983 236.072C455.405 235.55 455.853 235.051 456.325 234.575C456.572 234.328 456.828 234.091 457.093 233.853C457.147 233.799 457.44 233.507 457.485 233.525C457.531 233.543 457.12 233.79 457.321 233.653L457.495 233.525C457.749 233.346 458.014 233.185 458.289 233.041C458.627 232.858 457.842 233.178 458.198 233.041C458.324 233.014 458.449 232.98 458.572 232.941C458.773 232.867 458.079 232.941 458.289 232.941H458.581C458.581 232.941 458.033 232.858 458.207 232.941H458.335C458.408 232.941 457.787 232.694 457.997 232.794C458.353 232.968 457.613 232.429 457.842 232.667C458.07 232.904 457.641 232.411 457.641 232.411C457.641 232.411 457.75 232.658 457.641 232.301C457.531 231.945 457.568 232.119 457.595 232.201C457.622 232.283 457.531 232.365 457.595 231.9C457.589 232.009 457.589 232.119 457.595 232.228C457.595 232.584 457.723 231.763 457.595 232.137C457.54 232.32 457.495 232.493 457.44 232.676C457.321 233.05 457.659 232.292 457.44 232.612L457.221 232.977C457.183 233.023 457.15 233.072 457.12 233.123C457.12 233.123 457.44 232.758 457.284 232.904C457.129 233.05 456.892 233.287 456.7 233.47C456.508 233.653 456.937 233.297 456.919 233.297C456.868 233.327 456.82 233.36 456.773 233.397L456.426 233.625C455.513 234.191 454.499 234.602 453.595 235.177C451.104 236.814 449.101 239.091 447.795 241.769C445.43 246.507 444.982 252.441 447.896 257.07C449.392 259.359 451.508 261.176 453.997 262.31C456.601 263.628 459.5 264.256 462.417 264.136C463.995 264.038 465.541 263.658 466.984 263.013C468.337 262.362 469.572 261.488 470.637 260.43C471.619 259.48 472.534 258.464 473.377 257.39C474.376 256.172 475.402 254.955 476.455 253.738C478.4 251.519 480.373 249.319 482.392 247.174C483.358 246.13 484.382 245.143 485.46 244.216L485.88 243.869L486.127 243.668L485.99 243.777C486.285 243.603 486.564 243.401 486.821 243.175C487.234 242.882 487.664 242.614 488.109 242.371L488.63 242.116L488.748 242.061C489.041 241.924 488.438 242.198 488.456 242.189C488.533 242.143 488.616 242.11 488.703 242.088C489.092 241.94 489.488 241.812 489.89 241.705C490.31 241.595 490.73 241.513 491.159 241.44C491.589 241.367 490.548 241.504 490.995 241.44H491.324H491.89C492.109 241.44 492.319 241.44 492.539 241.44C492.758 241.44 493.068 241.504 492.603 241.44C492.137 241.376 492.511 241.44 492.603 241.44C492.803 241.477 493.001 241.526 493.196 241.586L493.434 241.668C493.845 241.805 492.977 241.431 493.251 241.586L493.753 241.878C494.027 242.043 493.342 241.504 493.562 241.732L493.744 241.897C493.744 241.897 493.982 242.125 493.963 242.143C493.945 242.161 493.598 241.604 493.817 241.97C493.872 242.061 493.927 242.143 493.973 242.234C494.018 242.326 494.155 242.645 493.973 242.234C493.79 241.824 493.973 242.234 493.973 242.371C493.973 242.508 494.027 242.563 494.046 242.664C494.064 242.764 494.046 243.202 494.046 242.545C494.046 242.654 494.046 242.764 494.046 242.874C494.046 242.983 494.046 243.12 494.046 243.239C494.046 243.513 494.155 242.691 494.046 242.947C494.046 242.992 494.046 243.047 494.046 243.093C494.046 243.138 494 243.284 493.963 243.376C493.946 243.438 493.925 243.499 493.899 243.558C493.899 243.558 494.137 243.083 494.027 243.248C493.918 243.412 493.918 243.449 493.863 243.549C493.808 243.65 493.552 243.987 493.808 243.65C494.064 243.312 493.808 243.65 493.753 243.65L493.534 243.869C493.47 243.933 493.068 244.252 493.406 243.996C493.744 243.741 493.406 243.996 493.333 243.996C493.136 244.126 492.932 244.245 492.721 244.352C492.593 244.416 492.447 244.471 492.319 244.544C492.192 244.617 492.813 244.353 492.593 244.426L492.429 244.489C492.192 244.581 491.951 244.66 491.707 244.727C491.464 244.794 491.196 244.858 490.904 244.919L490.557 244.982C490.073 245.065 490.995 244.982 490.621 244.982C489.555 245.053 488.485 245.029 487.424 244.909C484.821 244.681 482.163 244.572 479.734 245.695C478.48 246.293 477.444 247.267 476.77 248.481C476.096 249.695 475.816 251.089 475.971 252.469C476.137 253.91 476.636 255.293 477.429 256.508C478.221 257.723 479.286 258.738 480.538 259.471C481.888 260.237 483.358 260.771 484.885 261.05C485.25 261.124 485.616 261.178 485.99 261.233L486.976 261.361H487.214C487.506 261.361 486.894 261.361 486.913 261.361C486.931 261.361 487.607 261.525 487.762 261.562C488.189 261.661 488.622 261.728 489.059 261.763C489.54 261.805 490.024 261.746 490.481 261.588C490.937 261.431 491.355 261.179 491.707 260.85C492.313 260.18 492.668 259.322 492.712 258.421C492.922 256.44 491.242 254.358 489.114 254.934C488.36 255.175 487.675 255.591 487.113 256.148C486.693 256.522 486.255 256.897 485.871 257.307C484.856 258.397 484.037 259.654 483.451 261.023C482.097 264.184 481.706 267.674 482.328 271.056C482.872 273.97 483.957 276.757 485.524 279.273C488.2 283.838 491.918 287.663 494.594 292.21C494.922 292.764 495.227 293.327 495.507 293.899C495.808 294.483 496.046 295.113 496.356 295.725C496.301 295.624 496.192 295.332 496.301 295.597L496.384 295.807L496.575 296.291C496.679 296.571 496.779 296.854 496.877 297.14C497.087 297.779 497.27 298.436 497.425 299.093C497.504 299.434 497.571 299.781 497.626 300.134C497.626 300.216 497.708 300.718 497.626 300.362C497.544 300.006 497.626 300.582 497.626 300.673C497.692 301.334 497.717 301.999 497.699 302.663C497.699 303.022 497.674 303.384 497.626 303.749C497.62 303.853 497.62 303.956 497.626 304.06C497.626 304.06 497.699 303.603 497.626 303.859C497.553 304.115 497.571 304.169 497.544 304.325C497.407 305.044 497.218 305.752 496.977 306.443L497.087 306.37ZM274.411 650.874C260.839 634.377 254.317 613.516 253.231 592.372C252.062 569.384 257.459 546.724 265.908 525.498C270.574 513.974 275.833 502.7 281.662 491.718C287.562 480.425 293.791 469.287 300.723 458.587C304.176 453.265 307.811 448.042 311.683 442.985C314.995 438.405 318.608 434.05 322.497 429.948C324.744 427.693 327.2 425.657 329.356 423.301C329.86 422.767 330.336 422.206 330.781 421.621C331.073 421.183 331.342 420.729 331.584 420.261C331.584 420.261 331.74 419.85 331.584 420.206C331.429 420.562 331.886 420.654 331.484 420.499C331.246 420.407 330.79 419.741 330.571 419.586C329.33 418.785 328.026 418.089 326.671 417.504L290.732 399.51C285.3 396.789 279.866 394.074 274.429 391.366C270.538 389.431 266.446 387.258 263.67 383.816C262.296 382.154 261.355 380.178 260.93 378.064C260.848 377.733 260.841 377.388 260.91 377.055C260.979 376.721 261.123 376.407 261.33 376.136C261.537 375.865 261.802 375.644 262.106 375.49C262.41 375.335 262.744 375.251 263.085 375.243C267.652 374.842 272.219 376.467 276.31 378.439C281.131 380.907 285.717 383.81 290.01 387.112C294.175 390.17 298.23 393.411 302.395 396.451C307.04 399.705 311.857 402.707 316.825 405.444C339.777 418.636 364.318 428.925 390.429 433.946C403.67 436.423 417.1 437.754 430.57 437.927C443.457 438.155 456.901 436.968 468.4 430.623C472.761 428.368 476.358 424.874 478.738 420.581C480.856 416.43 481.964 411.838 481.971 407.178C482.049 399.907 480.287 392.734 476.848 386.326C475.679 384.163 474.108 382.255 472.93 380.091C470.19 374.924 470.619 368.944 475.67 365.484C479.323 362.946 483.99 362.699 487.698 360.353C492.374 357.331 491.762 350.94 489.205 346.741C485.698 340.962 479.058 338.789 472.884 337.072C471.186 336.545 469.407 336.331 467.632 336.443C465.921 336.727 464.168 336.628 462.5 336.15C462.175 336.052 461.876 335.883 461.625 335.655C461.374 335.426 461.177 335.145 461.049 334.83C460.921 334.516 460.865 334.177 460.886 333.838C460.906 333.5 461.002 333.17 461.166 332.873C462.883 329.522 466.911 329.312 470.217 329.696C474.275 330.115 478.214 331.314 481.816 333.229C489.716 337.547 494.731 345.873 493.945 354.976C493.644 358.463 492.621 362.206 490.219 364.863C487.296 368.095 483.25 367.538 479.633 365.867C475.259 363.84 471.003 361.357 466.737 359.093C462.073 356.628 457.452 354.09 452.873 351.479C447.564 348.436 442.312 345.316 437.118 342.121C435.785 341.299 434.534 340.432 433.273 339.519C432.561 339.008 431.849 338.497 431.109 338.013C430.817 337.86 430.536 337.686 430.268 337.492C429.748 337.027 429.574 337.438 430.753 337.237C428.488 337.611 426.506 334.233 429.036 333.156C447.887 325.158 465.087 313.729 479.761 299.449C483.049 296.236 486.465 292.274 491.388 291.954C493.072 291.837 494.76 292.134 496.303 292.82C497.846 293.506 499.197 294.56 500.238 295.889C503.946 300.819 502.868 308.67 499.535 313.491C494.338 321.05 484.766 324.62 476.802 328.418C466.947 333.119 456.38 337.009 445.347 337.328C440.455 337.586 435.562 336.837 430.972 335.128C429.045 334.352 427.318 333.302 425.492 332.316C425.355 332.243 424.496 331.905 424.496 331.869L424.779 331.622C425.041 331.3 425.123 331.266 425.026 331.522C425.09 331.522 424.926 331.732 424.971 331.768L425.464 332.142C426.798 333.147 428.962 333.548 430.542 333.877C432.784 334.298 435.07 334.439 437.347 334.297C442.215 333.939 447.032 333.06 451.713 331.677C456.097 330.508 460.445 329.221 464.847 328.125C468.5 327.212 472.062 326.245 475.587 325.012C482.483 322.593 489.79 318.987 493.854 312.614C494.847 311.044 495.622 309.345 496.155 307.566C496.986 304.827 501.297 305.995 500.457 308.752C495.598 324.72 477.862 329.367 463.559 333.046C454.161 335.466 444.681 339.017 434.835 338.789C430.981 338.698 426.359 338.068 423.053 335.895C422.268 335.449 421.62 334.796 421.18 334.007C420.74 333.218 420.526 332.324 420.56 331.421C420.552 330.474 420.882 329.556 421.492 328.831C422.101 328.106 422.95 327.623 423.884 327.468C425.463 327.413 427.017 327.871 428.314 328.774C430.188 329.934 432.189 330.874 434.278 331.576C439.247 332.947 444.445 333.28 449.549 332.553C460.508 331.284 470.473 326.473 480.309 321.762C487.232 318.448 495.945 314.55 497.745 306.297C498.283 303.823 498.283 300.764 496.731 298.628C494.639 295.725 490.675 296.008 488.009 297.879C486.03 299.472 484.179 301.218 482.474 303.101C480.647 304.866 478.784 306.589 476.884 308.269C473.012 311.683 468.99 314.918 464.819 317.973C456.47 324.106 447.566 329.446 438.223 333.923C435.934 335.018 433.62 336.062 431.282 337.054L429.565 332.973C431.876 332.59 434.086 334.653 435.821 335.922C438.561 337.922 441.53 339.647 444.452 341.4C452.697 346.366 461.081 351.095 469.605 355.587C473.258 357.532 476.976 359.495 480.675 361.43C481.962 362.106 483.643 363.019 485.159 362.854C486.502 362.708 487.314 361.54 487.899 360.444C491.443 353.962 489.251 345.362 484.118 340.423C481.2 337.706 477.629 335.791 473.752 334.863C471.797 334.361 466.226 332.782 465.011 335.155L463.678 331.878C465.376 332.489 467.094 331.951 468.847 331.951C470.844 332.02 472.821 332.37 474.72 332.992C478.08 333.887 481.344 335.11 484.465 336.643C489.945 339.483 494.402 344.604 495.425 350.794C496.338 356.272 494.21 361.868 489.223 364.616C485.46 366.689 480.09 366.908 477.03 370.094C472.838 374.485 478.565 380.191 480.684 384.117C483.084 388.553 484.764 393.342 485.661 398.305C487.433 408.228 486.145 418.965 479.734 427.063C476.199 431.527 471.258 434.476 466.089 436.704C459.9 439.275 453.373 440.941 446.708 441.652C433.328 443.259 419.446 442.254 406.093 440.739C378.693 437.699 352.508 429.089 328.041 416.591C317.145 411.031 306.322 405.033 296.568 397.62C292.001 394.169 287.535 390.627 282.795 387.431C278.557 384.574 274.036 381.762 269.095 380.319C267.12 379.706 265.047 379.47 262.985 379.625L265.14 376.804C265.981 381.141 269.78 383.734 273.36 385.751C277.927 388.326 282.813 390.535 287.535 392.891L323.154 410.73C325.977 412.145 328.863 413.469 331.63 414.993C333.53 416.034 335.877 417.833 335.959 420.216C336.06 423.155 332.982 425.903 331.1 427.811C328.899 430.039 326.461 432.029 324.378 434.366C320.232 439.032 316.359 443.925 312.679 448.974C305.303 459.223 298.553 469.909 292.467 480.973C286.402 491.846 280.648 502.884 275.479 514.241C265.871 535.504 258.373 558.191 257.651 581.672C256.966 602.515 261.304 623.951 272.995 641.489C274.432 643.637 275.972 645.713 277.616 647.715C279.443 649.915 276.283 653.093 274.456 650.874H274.411ZM401.956 162.862C397.736 163.656 393.014 162.396 388.703 160.342C392.813 161.584 397.371 161.849 401.819 162.25C401.855 162.46 401.901 162.661 401.956 162.862ZM401.956 156.334C395.531 157.011 389.062 157.167 382.611 156.8C382.009 156.389 381.433 155.969 380.885 155.558C383.187 154.965 385.516 154.417 387.881 153.888L388.795 153.687L394.649 152.463C397.663 152.336 400.668 152.071 403.654 151.669C402.859 153.131 402.286 154.703 401.956 156.334V156.334ZM411.253 154.006C411.283 154.312 411.265 154.62 411.198 154.919C409.816 155.205 408.428 155.458 407.034 155.677C407.356 154.749 407.811 153.873 408.385 153.075C409.691 151.322 411.025 151.824 411.253 154.006ZM411.819 147.497C412.448 147.716 413.03 148.051 413.536 148.483L404.476 150.382C406.285 147.899 408.851 146.456 411.81 147.506L411.819 147.497ZM380.885 155.558L380.657 155.385L388.776 153.687L387.863 153.888C385.516 154.417 383.178 154.965 380.885 155.558ZM376.967 154.645C377.209 154.457 377.487 154.321 377.784 154.246C378.081 154.17 378.391 154.157 378.693 154.207L377.36 155.011L376.967 154.645ZM380.62 155.558L380.438 155.357H380.639L380.867 155.531L380.62 155.558ZM378.885 155.686L379.862 154.709C380.054 154.937 380.246 155.147 380.447 155.357L378.885 155.686ZM379.862 154.709L380.639 155.312H380.438C380.255 155.202 380.036 155.001 379.872 154.782L379.862 154.709ZM378.419 156.152L378.511 156.06L378.575 156.115L378.419 156.152ZM411.235 153.942C411.007 151.76 409.673 151.258 408.367 153.029C407.793 153.827 407.338 154.703 407.015 155.631C405.329 155.899 403.633 156.127 401.928 156.316C402.263 154.678 402.842 153.099 403.645 151.633C407.053 151.194 410.432 150.557 413.765 149.724C413.707 151.335 413.499 152.937 413.144 154.508L411.198 154.928C411.266 154.626 411.284 154.315 411.253 154.006L411.235 153.942ZM401.956 156.334C403.654 156.152 405.35 155.923 407.043 155.65C406.888 156.06 406.751 156.471 406.623 156.882C406.231 157.965 405.979 159.094 405.874 160.242C405.793 160.629 405.777 161.027 405.828 161.419C405.137 161.826 404.405 162.159 403.645 162.415L401.819 162.241C401.479 160.282 401.525 158.275 401.956 156.334V156.334ZM409.819 157.649C410.453 156.834 410.921 155.904 411.198 154.91L413.144 154.49C413.08 154.755 413.025 155.02 412.952 155.284C412.55 156.856 411.996 158.384 411.299 159.849C410.975 160.53 410.612 161.192 410.212 161.83C409.737 163.139 408.918 163.422 407.755 162.679C406.604 162.758 405.959 162.351 405.819 161.456C407.409 160.491 408.774 159.196 409.819 157.658V157.649ZM403.636 162.415C403.084 162.6 402.519 162.747 401.946 162.853C401.892 162.652 401.846 162.442 401.809 162.241L403.636 162.415ZM380.876 155.549C381.424 155.96 382 156.38 382.602 156.791H381.853C381.426 156.431 381.018 156.051 380.63 155.65L380.876 155.549ZM380.63 155.613C381.018 156.014 381.426 156.395 381.853 156.754C380.91 156.699 379.969 156.636 379.031 156.563L378.584 156.17L380.63 155.613ZM404.467 150.382L413.527 148.483L413.783 148.711C413.783 149.04 413.783 149.365 413.783 149.688C410.46 150.534 407.09 151.187 403.691 151.642C403.928 151.21 404.191 150.792 404.476 150.391L404.467 150.382ZM379.031 156.553L378.118 156.48L378.401 156.197H378.556L379.031 156.553ZM388.694 160.333C386.191 159.625 383.862 158.407 381.853 156.754H382.602C384.539 158.108 386.579 159.308 388.703 160.342L388.694 160.333ZM413.664 145.726L416.496 147.899L413.756 148.465C413.804 147.546 413.777 146.63 413.673 145.717L413.664 145.726ZM414.514 138.55C414.139 139.061 413.756 139.545 413.372 140.02L411.993 139.572L414.514 138.55ZM311.537 -127.23C310.754 -127.807 310.023 -128.451 309.354 -129.157L307.911 -127.331C308.222 -127.29 308.529 -127.217 308.824 -127.112C309.223 -126.914 309.639 -126.752 310.066 -126.628C311.276 -126.064 312.38 -125.295 313.327 -124.354C314.095 -123.61 314.803 -122.807 315.446 -121.953C312.249 -122.145 309.153 -122.72 306.906 -125.048C304.02 -128.034 304.495 -132.726 309.464 -131.567C312.652 -130.718 315.493 -128.888 317.583 -126.336C316.094 -126.354 314.609 -126.501 313.144 -126.774C312.595 -126.874 312.057 -127.026 311.537 -127.23V-127.23ZM385.424 150.108L381.89 152.299C380.313 152.202 378.733 152.08 377.15 151.934C379.853 151.277 382.621 150.72 385.379 150.108H385.424ZM376.099 151.833L377.141 151.934L376.145 152.18L376.099 151.833ZM240.928 301.431C240.587 296.599 240.638 291.747 241.083 286.924C242.064 291.681 243.479 296.339 245.312 300.837L240.928 301.431ZM284.494 157.183C285.141 156.622 285.975 156.323 286.832 156.345C287.689 156.367 288.506 156.708 289.124 157.302C287.2 159.785 285.282 162.275 283.37 164.77C282.585 161.885 282.311 158.854 284.466 157.202L284.494 157.183ZM313.272 -124.364C312.325 -125.304 311.222 -126.073 310.012 -126.637C309.584 -126.761 309.168 -126.923 308.77 -127.121C308.474 -127.226 308.168 -127.299 307.856 -127.34L309.299 -129.166C309.985 -128.455 310.734 -127.807 311.537 -127.23C312.057 -127.03 312.595 -126.88 313.144 -126.783C314.609 -126.51 316.094 -126.363 317.583 -126.345C318.825 -124.919 319.946 -123.392 320.935 -121.78C319.163 -121.889 317.282 -121.871 315.455 -121.981C314.791 -122.831 314.061 -123.628 313.272 -124.364V-124.364ZM349.248 577.947C346.167 575.598 343.202 573.142 340.352 570.58C343.89 571.681 347.43 572.777 350.974 573.866L349.248 577.947ZM463.796 89.588C461.285 107.92 457.403 126.736 462.481 144.995C467.048 161.474 476.455 176.465 487.314 189.529C493.023 196.404 499.032 203.014 504.905 209.742C509.417 214.9 515.207 220.241 518.038 226.559C520.568 232.128 520.596 238.099 516.294 242.755C512.422 246.945 507.106 249.839 502.183 252.587C498.311 254.751 493.05 256.668 490.073 260.055C488.164 262.21 485.013 259.042 486.913 256.897C490.018 253.4 495.132 251.419 499.114 249.182C504.156 246.379 510.759 243.339 514.102 238.427C518.513 231.955 511.59 224.514 507.709 219.867C501.736 212.709 495.434 205.826 489.333 198.778C478.373 186.133 468.646 172.85 462.125 157.329C458.777 149.592 456.657 141.38 455.841 132.99C455.047 123.979 455.841 114.923 457.029 105.976C458.654 93.5593 460.545 81.3257 461.102 68.9643C462.757 64.7347 464.184 60.4193 465.376 56.0368C465.873 67.2453 465.344 78.4757 463.796 89.588V89.588ZM376.721 157.941C379.561 160.264 382.62 162.306 385.854 164.04C382.313 162.872 379.156 160.764 376.721 157.941V157.941ZM295.508 201.133C295.313 201.113 295.12 201.073 294.933 201.014L295.481 200.594C295.49 200.768 295.499 200.941 295.508 201.124V201.133ZM380.447 155.43L380.63 155.631L378.584 156.179L378.52 156.124L378.885 155.759L380.447 155.43ZM424.524 180.993L420.441 181.523C420.734 180.079 420.691 178.587 420.315 177.163C419.94 175.738 419.243 174.419 418.277 173.306C421.034 175.249 423.197 177.92 424.524 181.021V180.993ZM374.821 152.463L376.109 152.135L376.364 154.034C375.841 153.553 375.326 153.029 374.821 152.463ZM288.85 169.499C289.069 172.357 289.005 175.223 289.142 178.081C289.307 181.733 289.572 185.33 289.855 188.945L284.923 169.937L288.329 165.482C288.589 166.824 288.763 168.181 288.85 169.545V169.499ZM374.602 152.281L374.812 152.509L374.209 152.673C374.318 152.522 374.45 152.39 374.602 152.281V152.281ZM377.597 156.444L378.428 156.216L378.145 156.499L377.597 156.444ZM376.2 155.723C376.27 155.514 376.372 155.317 376.501 155.138L376.556 155.513L376.2 155.723ZM374.209 152.664C373.223 152.929 372.245 153.221 371.268 153.577L374.163 151.852L374.602 152.317C374.456 152.416 374.327 152.536 374.218 152.673L374.209 152.664ZM370.053 153.942C367.743 151.322 365.578 148.556 363.505 145.78C361.779 143.48 365.66 141.216 367.359 143.525C369.483 146.398 371.754 149.159 374.163 151.797L371.268 153.522L370.053 153.942ZM295.983 196.851C294.933 197.71 295.408 196.44 295.326 196.851C295.722 196.673 296.107 196.469 296.476 196.24C296.988 196.906 296.832 197.125 296.011 196.888L295.983 196.851ZM292.147 162.342C293.782 167.819 293.334 173.662 293.672 179.304C293.882 182.801 294.248 186.288 294.586 189.767C293.672 186.033 292.759 182.281 291.754 178.556L289.334 169.225C289.014 167.984 288.759 166.623 288.485 165.272L291.691 161.109C291.865 161.524 292.018 161.947 292.147 162.378V162.342ZM287.845 163.528C287.656 162.808 287.39 162.11 287.051 161.447L287.288 160.753C287.828 162.217 288.237 163.727 288.512 165.263L288.339 165.482C288.339 165.418 288.339 165.345 288.339 165.272C288.165 164.733 288.019 164.14 287.836 163.565L287.845 163.528ZM291.709 161.109L288.503 165.272C288.228 163.736 287.819 162.227 287.279 160.762L287.042 161.456C287.381 162.119 287.647 162.817 287.836 163.538C288.019 164.113 288.165 164.706 288.293 165.3C288.293 165.363 288.293 165.436 288.293 165.51L284.886 169.965L284.831 169.764C284.494 168.477 283.799 166.66 283.306 164.761C285.218 162.272 287.136 159.782 289.06 157.293C290.229 158.355 291.136 159.674 291.709 161.146V161.109ZM332.708 -96.5092C357.367 -31.954 364.162 44.2414 329.63 106.633C318.862 126.097 305.235 143.589 291.7 161.146C291.135 159.684 290.241 158.372 289.088 157.311C295.581 148.912 302.084 140.513 308.222 131.867C317.355 119.086 325.776 105.674 332.379 91.3682C339.485 75.9666 343.859 59.6339 346.38 42.8902C351.723 7.40358 348.499 -29.279 338.937 -63.7797C334.151 -81.0255 328.269 -98.6547 319.866 -114.504C318.583 -117.107 317.089 -119.601 315.4 -121.962C317.227 -121.853 319.117 -121.871 320.88 -121.762C321.319 -121.059 321.73 -120.356 322.122 -119.662C326.233 -112.224 329.772 -104.484 332.708 -96.5092V-96.5092ZM377.104 151.934L376.063 151.833L376.109 152.171L374.821 152.5L374.611 152.272C374.869 152.092 375.161 151.968 375.469 151.906L386.018 149.724L385.379 150.126C382.621 150.72 379.853 151.277 377.104 151.934ZM374.611 152.281L374.172 151.815C404.915 133.373 434.214 112.275 451.211 80.0293C455.449 71.994 458.744 63.4957 461.029 54.7039C461.269 59.4543 461.269 64.2138 461.029 68.9643C455.645 82.6852 448.028 95.4222 438.488 106.66C423.766 124.006 405.244 137.628 386.046 149.706L375.469 151.916C375.158 151.976 374.862 152.1 374.602 152.281H374.611ZM386.018 149.724L392.064 148.455C389.863 149.095 387.626 149.633 385.379 150.126L386.018 149.724ZM393.27 152.463C389.47 152.582 385.671 152.463 381.844 152.262L385.379 150.071C387.626 149.578 389.863 149.04 392.064 148.401L408.349 145.032C403.863 148.48 398.738 151.005 393.27 152.463ZM433.922 141.818C427.011 142.671 419.997 142.049 413.345 139.992C413.737 139.518 414.112 139.025 414.486 138.522L411.966 139.545L413.345 139.992C411.847 141.834 410.16 143.514 408.312 145.004L392.037 148.419C394.129 147.82 396.179 147.085 398.174 146.219C403.131 144.056 407.428 140.623 410.632 136.267C410.889 135.851 411.272 135.528 411.725 135.344C412.178 135.16 412.679 135.126 413.153 135.245C422.706 138.532 431.858 138.157 441.466 135.665C439.256 138.063 436.716 140.135 433.922 141.818V141.818ZM445.941 137.317C447.007 136.66 447.089 135.975 446.188 135.263C445.944 134.253 445.469 134.07 444.763 134.715C443.96 134.884 443.175 135.126 442.416 135.437L441.502 135.683C441.929 135.215 442.34 134.731 442.735 134.232C444.562 131.967 448.023 129.831 449.722 133.647C451.129 136.797 447.649 138.486 445.21 139.289L443.968 139.682C444.749 138.998 445.423 138.201 445.968 137.317H445.941ZM461.029 54.7039C462.279 49.8981 463.231 45.0197 463.879 40.0966C464.603 45.3796 465.09 50.6899 465.34 56.0277C464.148 60.4102 462.721 64.7256 461.066 68.9552C461.293 64.2071 461.281 59.4507 461.029 54.7039V54.7039ZM289.891 189.119V188.991C289.608 185.339 289.343 181.76 289.179 178.127C289.051 175.269 289.106 172.402 288.887 169.545C288.797 168.196 288.623 166.855 288.366 165.528L288.54 165.309C288.814 166.66 289.06 168.048 289.389 169.262L291.809 178.592C292.777 182.326 293.691 186.069 294.641 189.803C294.915 192.542 295.189 195.281 295.362 198.02C295.417 198.866 295.469 199.715 295.517 200.567L294.969 200.987C294.66 200.891 294.37 200.743 294.111 200.549C291.097 198.358 290.741 192.396 289.891 189.119ZM294.604 189.812C294.982 191.304 295.368 192.795 295.764 194.286C295.883 194.715 295.992 195.199 296.138 195.573L296.275 195.993L296.467 196.231C296.097 196.459 295.713 196.664 295.316 196.842C295.399 196.468 294.924 197.755 295.974 196.842C296.823 197.08 296.979 196.842 296.467 196.185H296.522C300.614 193.912 304.495 191.2 308.395 188.662C321.446 180.199 334.534 171.763 348.179 164.277C354.713 160.59 361.479 157.333 368.437 154.527C368.966 154.317 369.496 154.125 370.026 153.942L370.209 154.143C358.491 161.073 346.627 167.664 335.219 174.393C321.583 182.436 308.021 190.89 295.444 200.576C295.396 199.73 295.344 198.881 295.289 198.029C295.152 195.29 294.887 192.551 294.604 189.812V189.812ZM254.838 254.295C247.573 268.898 244.305 285.164 245.367 301.44C245.559 304.179 241.851 304.179 240.983 302.033C228.589 271.476 237.823 238.236 252.692 210.345C261.341 194.112 272.182 179.304 283.343 164.788C283.836 166.687 284.539 168.504 284.868 169.791L284.923 169.992C281.169 174.922 277.461 179.879 273.872 184.91C254.966 211.386 237.448 243.622 239.732 277.192C239.958 280.465 240.404 283.719 241.065 286.933C240.62 291.756 240.568 296.608 240.91 301.44L245.294 300.846C243.461 296.348 242.046 291.69 241.065 286.933C243.467 260.813 257.067 236.848 275.516 218.123C280.427 213.168 285.611 208.49 291.042 204.109C291.152 205.844 291.246 207.585 291.325 209.331C276.42 221.848 263.606 236.355 254.838 254.295V254.295ZM461.02 54.5943C460.116 39.5294 457.223 24.6501 452.416 10.3433C442.79 -18.5883 426.012 -44.8906 405.207 -67.0663C394.668 -78.3092 383.097 -88.5395 370.647 -97.623C363.841 -102.584 356.662 -107.013 349.175 -110.87C341.128 -115.015 332.096 -120.118 323.063 -121.552C322.369 -121.661 321.638 -121.734 320.889 -121.78C319.901 -123.392 318.779 -124.919 317.537 -126.345H318.003C321.399 -126.294 324.775 -125.812 328.05 -124.911C336.124 -122.519 343.942 -118.585 351.403 -114.741C358.891 -110.884 366.07 -106.455 372.875 -101.494C384.901 -92.7609 396.133 -82.9848 406.44 -72.2793C426.707 -51.1261 443.265 -26.3576 453.786 0.976369C458.634 13.5916 462.005 26.7251 463.833 40.1148C463.185 45.038 462.233 49.9164 460.983 54.7222L461.02 54.5943ZM289.891 189.119C290.741 192.405 291.097 198.358 294.074 200.576C294.333 200.77 294.624 200.918 294.933 201.014C293.618 202.031 292.315 203.062 291.024 204.109C290.695 199.061 290.257 194.067 289.855 189L289.891 189.119ZM291.024 204.109C292.315 203.062 293.618 202.031 294.933 201.014C295.12 201.073 295.313 201.113 295.508 201.133C295.587 202.667 295.657 204.188 295.718 205.698C294.226 206.879 292.756 208.078 291.307 209.295C291.234 207.572 291.139 205.844 291.024 204.109V204.109ZM378.529 156.115L378.264 155.878L378.894 155.741L378.529 156.115ZM317.629 188.069C312.432 191.419 307.272 194.843 302.029 198.111C300.34 199.17 297.737 201.37 295.499 201.151C295.499 200.969 295.499 200.795 295.499 200.613C308.048 190.899 321.583 182.445 335.283 174.374C346.691 167.646 358.555 161.054 370.273 154.125C371.271 155.251 372.297 156.346 373.35 157.412L372.19 158.096C368.603 159.292 365.092 160.706 361.678 162.332C346.325 169.691 331.886 178.857 317.638 188.069H317.629ZM373.551 157.676L372.163 158.133L373.323 157.448L373.551 157.676ZM302.038 198.111C307.281 194.825 312.432 191.401 317.638 188.069C331.895 178.893 346.325 169.727 361.642 162.396C365.056 160.77 368.566 159.355 372.154 158.16C346.892 173.014 319.09 187.201 295.718 205.753C295.657 204.219 295.587 202.697 295.508 201.188C297.746 201.343 300.349 199.143 302.038 198.111ZM441.502 135.692L442.416 135.446C443.175 135.135 443.96 134.893 444.763 134.725C445.469 134.079 445.944 134.262 446.188 135.272C447.089 135.984 447.007 136.669 445.941 137.327C445.404 138.205 444.739 138.999 443.968 139.682C440.69 140.693 437.328 141.408 433.922 141.818C436.727 140.146 439.279 138.084 441.502 135.692V135.692ZM-112.472 31.1861C-103.512 -1.10518 -89.7026 -32.3009 -70.0114 -59.5253C-51.745 -84.8051 -27.5877 -104.817 0.140659 -119.032C27.869 -133.247 58.1456 -141.746 88.8149 -146.421C125.064 -152.014 161.754 -154.23 198.413 -153.04C216.501 -152.44 234.541 -150.849 252.454 -148.274C261.368 -146.99 270.224 -145.419 279.023 -143.563C287.928 -141.673 296.686 -139.382 305.719 -138.085C323.748 -135.529 342.252 -135.027 359.66 -129.266C373.515 -124.701 386.566 -117.124 398.311 -108.533C442.571 -76.1685 474.281 -20.9985 469.167 34.8927C468.509 42.0416 467.228 49.1195 465.34 56.0459C465.09 50.7143 464.603 45.4039 463.879 40.1148C469.231 -0.511756 454.097 -42.7543 427.592 -74.863C409.655 -96.5183 385.516 -116.074 358.472 -124.984C341.457 -130.553 323.41 -131.192 305.829 -133.612C288.247 -136.031 270.894 -141.043 253.212 -143.654C217.282 -149.032 180.695 -149.972 144.463 -147.808C111.072 -145.818 77.3162 -141.765 45.1856 -132.142C15.8772 -123.359 -12.3079 -109.774 -35.7984 -89.9816C-60.8143 -68.9014 -79.1537 -41.0471 -92.4882 -11.3942C-119.212 48.0211 -125.751 115.671 -119.395 180.016C-113.348 241.239 -94.4244 301.914 -60.796 353.707C-44.1121 379.535 -23.645 402.714 -0.0785292 422.47C26.6817 444.792 57.0953 462.348 88.5135 477.303C120.754 492.659 154.163 505.513 187.563 518.103C223.895 531.797 260.519 544.712 297.435 556.849C311.701 561.547 326.01 566.112 340.361 570.543C343.217 573.099 346.182 575.555 349.257 577.911L350.974 573.83C347.43 572.74 343.89 571.645 340.352 570.543C315.528 548.294 299.253 518.395 289.864 486.396C278.575 447.832 276.685 407.124 279.251 367.218C282.521 316.357 292.092 265.88 291.471 214.754C291.471 212.929 291.389 211.103 291.316 209.277C292.765 208.059 294.236 206.86 295.727 205.68C296.148 216.635 296.011 227.654 295.536 238.619C294.376 265.515 291.133 292.265 288.229 319.005C283.151 365.173 279.479 411.698 287.782 457.729C294.887 497.132 310.477 536.325 340.06 564.298C343.714 567.75 347.549 571.005 351.549 574.049C353.376 575.464 352.463 578.933 349.832 578.13C275.36 555.306 201.482 529.661 129.412 500.044C66.7034 474.281 5.4562 442.227 -39.2234 389.914C-79.6195 342.614 -105.202 284.011 -117.367 223.263C-130.035 160.342 -129.688 93.2581 -112.472 31.1861ZM371.277 153.522L370.245 154.134L370.062 153.933L371.277 153.522ZM414.468 149.505L414.669 149.451C415.847 149.131 417.044 148.802 418.249 148.437C418.254 150.044 418.141 151.649 417.911 153.239C417.168 153.452 416.426 153.653 415.683 153.842C415.724 152.313 415.3 150.807 414.468 149.524V149.505ZM418.249 148.446C423.735 146.916 429.003 144.689 433.922 141.818C437.328 141.408 440.69 140.693 443.968 139.682C443.265 140.33 442.507 140.933 441.831 141.508C438.711 144.081 435.291 146.27 431.648 148.026C427.245 150.174 422.66 151.928 417.948 153.267C418.166 151.673 418.267 150.064 418.249 148.455V148.446ZM376.721 157.941C379.156 160.764 382.313 162.872 385.854 164.04C390.868 166.642 396.311 168.139 401.855 167.162C407.636 168.467 413.637 169.983 418.295 173.315C419.261 174.428 419.958 175.747 420.334 177.172C420.709 178.596 420.752 180.088 420.459 181.532L424.542 181.002C423.215 177.902 421.053 175.231 418.295 173.288C417.024 171.72 415.449 170.425 413.664 169.481C412.289 168.765 410.837 168.208 409.335 167.819C411.058 167.231 412.556 166.12 413.619 164.642C420.825 167.71 426.697 174.393 424.77 182.719C424.368 184.453 421.464 185.047 420.688 183.248C415.4 170.951 398.987 172.393 388.502 168.038C382.891 165.588 377.817 162.058 373.57 157.649C374.434 157.369 375.305 157.101 376.182 156.846C376.271 157.248 376.456 157.624 376.721 157.941V157.941ZM409.326 167.847C407.759 167.435 406.167 167.13 404.559 166.934L404.44 166.852L404.138 166.614C404.88 166.394 405.609 166.132 406.321 165.829C407.734 165.227 409.065 164.451 410.285 163.519C411.417 163.814 412.525 164.193 413.6 164.651C412.539 166.133 411.041 167.246 409.317 167.838L409.326 167.847ZM415.135 157.147C415.503 156.093 415.691 154.985 415.692 153.869C416.441 153.675 417.184 153.474 417.92 153.267C417.446 156.743 416.325 160.1 414.614 163.163C414.315 163.688 413.979 164.192 413.61 164.67C412.534 164.211 411.426 163.833 410.294 163.538C412.488 161.914 414.166 159.692 415.126 157.138L415.135 157.147ZM375.469 156.115C375.654 156.189 375.847 156.238 376.045 156.261V156.261C376.038 156.448 376.057 156.636 376.099 156.818C375.223 157.074 374.352 157.342 373.487 157.622L373.259 157.393L375.469 156.115ZM413.829 148.437L416.569 147.871L413.747 145.717C413.82 146.63 413.859 147.542 413.865 148.455L413.61 148.51C413.103 148.078 412.521 147.744 411.892 147.524C408.924 146.483 406.413 147.908 404.586 150.418L394.649 152.463L393.252 152.518C398.72 151.045 403.842 148.504 408.321 145.041L415.29 143.58C415.621 143.498 415.966 143.491 416.3 143.56C416.634 143.63 416.948 143.773 417.219 143.98C417.49 144.187 417.711 144.452 417.866 144.756C418.02 145.059 418.104 145.394 418.112 145.735C418.185 146.648 418.222 147.561 418.222 148.474C417.016 148.83 415.82 149.168 414.642 149.487L414.441 149.542C414.242 149.253 414.015 148.984 413.765 148.738C413.829 148.629 413.829 148.538 413.829 148.437ZM413.829 148.72C414.079 148.966 414.306 149.235 414.505 149.524L413.801 149.697C413.82 149.375 413.829 149.049 413.829 148.72ZM380.693 155.385L379.917 154.782C379.576 154.5 379.166 154.311 378.73 154.234L379.269 153.906L381.863 152.308C385.68 152.545 389.489 152.628 393.288 152.509C391.821 152.941 390.32 153.334 388.786 153.687L380.693 155.385ZM388.813 153.687C390.347 153.328 391.848 152.935 393.316 152.509L394.649 152.463L388.813 153.687ZM413.765 149.724L414.468 149.551C415.307 150.839 415.734 152.351 415.692 153.888C414.843 154.107 414.002 154.317 413.144 154.508C413.499 152.937 413.707 151.335 413.765 149.724V149.724ZM401.956 162.862C402.528 162.756 403.093 162.609 403.645 162.424C405.88 162.622 408.096 162.989 410.276 163.519V163.519C409.056 164.451 407.725 165.227 406.312 165.829C405.6 166.132 404.871 166.394 404.129 166.614C403.032 165.62 402.272 164.308 401.956 162.862V162.862ZM403.645 162.424C404.405 162.168 405.137 161.835 405.828 161.429C405.968 162.323 406.614 162.731 407.764 162.652C408.933 163.394 409.752 163.111 410.221 161.803C410.622 161.164 410.984 160.503 411.308 159.822C412.005 158.357 412.559 156.828 412.961 155.257C413.034 154.992 413.089 154.727 413.153 154.463C414.002 154.271 414.852 154.061 415.701 153.842C415.7 154.958 415.512 156.066 415.144 157.119C414.18 159.671 412.499 161.89 410.303 163.51V163.51C408.111 162.981 405.883 162.618 403.636 162.424H403.645ZM378.273 155.887L376.657 156.225L376.565 155.522L377.36 155.047L378.273 155.887ZM378.693 154.234C379.13 154.311 379.539 154.5 379.881 154.782L378.903 155.759L378.273 155.896L377.36 155.047L378.693 154.234ZM374.218 152.673C374.051 152.977 373.952 153.313 373.925 153.659C373.899 154.004 373.946 154.352 374.065 154.677C374.183 155.003 374.37 155.3 374.612 155.548C374.854 155.796 375.146 155.989 375.469 156.115L373.305 157.402C372.245 156.337 371.219 155.242 370.227 154.116L371.259 153.504C372.245 153.23 373.223 152.938 374.218 152.673V152.673ZM376.51 155.147L376.364 154.088L376.967 154.673C376.793 154.805 376.639 154.962 376.51 155.138V155.147ZM378.693 154.234C378.391 154.184 378.081 154.198 377.784 154.273C377.487 154.348 377.209 154.484 376.967 154.673L376.364 154.088L376.109 152.189L377.104 151.943C378.687 152.089 380.267 152.211 381.844 152.308L379.232 153.906L378.693 154.234ZM376.967 154.673L377.351 155.047L376.556 155.522L376.501 155.147C376.632 154.967 376.789 154.807 376.967 154.673V154.673ZM398.375 166.359H398.302L396.786 166.002C390.198 164.365 384.115 161.129 379.077 156.581C380.015 156.654 380.955 156.718 381.899 156.773C383.908 158.425 386.237 159.643 388.74 160.351C393.051 162.405 397.773 163.665 401.992 162.871C402.31 164.322 403.073 165.637 404.175 166.632L403.499 166.824C401.755 166.623 400.038 166.505 398.375 166.349V166.359ZM376.556 155.522L376.647 156.225L378.264 155.887L378.529 156.124L378.438 156.216L377.606 156.444L376.109 156.307C376.114 156.108 376.148 155.912 376.209 155.723L376.556 155.522ZM374.209 152.673L374.812 152.509C375.317 153.045 375.832 153.568 376.355 154.079L376.501 155.138C376.372 155.317 376.27 155.514 376.2 155.723L375.478 156.161C375.148 156.037 374.849 155.842 374.602 155.592C374.354 155.341 374.164 155.039 374.044 154.708C373.924 154.376 373.877 154.023 373.908 153.671C373.938 153.32 374.044 152.98 374.218 152.673H374.209ZM378.154 156.499L376.711 157.941C376.444 157.634 376.253 157.268 376.154 156.873L377.597 156.453L378.154 156.499ZM376.099 156.307C375.881 156.274 375.669 156.21 375.469 156.115L376.191 155.677C376.131 155.881 376.103 156.094 376.109 156.307H376.099ZM376.154 156.864C376.111 156.681 376.093 156.494 376.099 156.307L377.597 156.444L376.154 156.864ZM404.549 166.906C406.157 167.102 407.75 167.407 409.317 167.819C408.51 168.054 407.66 168.097 406.834 167.945C406.008 167.793 405.228 167.45 404.559 166.943L404.549 166.906ZM404.129 166.587L404.431 166.824L404.549 166.906L403.463 166.779L404.129 166.587ZM379.031 156.544C384.07 161.093 390.152 164.329 396.741 165.966L398.257 166.322C394.046 166.068 389.883 165.292 385.863 164.012C382.629 162.279 379.57 160.236 376.73 157.914L378.173 156.471L379.031 156.544ZM398.366 166.331C400.038 166.477 401.746 166.605 403.453 166.788C402.924 166.925 402.394 167.034 401.873 167.135L398.22 166.322L398.366 166.331ZM401.873 167.135C396.33 168.111 390.914 166.614 385.872 164.012C389.903 165.301 394.078 166.083 398.302 166.34L401.873 167.135ZM381.168 151.678C384.63 151.587 388.091 151.313 391.535 150.939L394.375 150.601L395.023 150.519H394.932H395.224L396.677 150.309C398.595 150.029 400.503 149.724 402.403 149.396C410.055 148.051 417.602 146.168 424.989 143.763C426.926 143.154 428.844 142.466 430.743 141.7L432.104 141.152L432.716 140.905H432.808L433.018 140.814C433.87 140.449 434.719 140.068 435.566 139.673L436.095 143.754C435.968 143.754 435.831 143.754 435.703 143.69C435.703 143.69 436.278 143.754 435.895 143.69H435.694C435.395 143.69 435.091 143.669 434.78 143.626C434.129 143.591 433.477 143.591 432.826 143.626L431.912 143.708C431.731 143.713 431.551 143.735 431.374 143.772C431.374 143.772 431.839 143.699 431.584 143.772L431.273 143.818C430.588 143.927 429.894 144.055 429.218 144.21C426.247 144.908 423.324 145.799 420.469 146.876C414.769 148.939 409.153 151.441 403.207 152.728C400.075 153.483 396.825 153.61 393.644 153.102C393.131 152.951 392.689 152.622 392.398 152.173C392.107 151.724 391.987 151.186 392.059 150.656C392.13 150.127 392.39 149.64 392.79 149.285C393.189 148.93 393.703 148.729 394.238 148.72C395.004 148.72 395.769 148.677 396.53 148.592C396.932 148.592 396.056 148.665 396.53 148.592L397.088 148.501C397.459 148.434 397.827 148.355 398.193 148.264C398.922 148.087 399.642 147.871 400.348 147.616C400.665 147.46 400.995 147.331 401.335 147.232C401.335 147.232 400.841 147.451 401.188 147.287L401.444 147.168L401.956 146.931C403.302 146.274 404.588 145.501 405.801 144.621L406.266 144.283C406.705 143.955 406.02 144.484 406.33 144.238C406.641 143.991 406.97 143.726 407.244 143.462C407.816 142.975 408.37 142.47 408.906 141.946C409.442 141.423 410.051 140.79 410.733 140.047C411.007 139.737 411.274 139.432 411.536 139.134L411.947 138.623L412.13 138.395C412.404 138.048 411.847 138.76 412.13 138.395L415.637 141.134C410.66 147.077 403.627 151.879 395.836 153.002C393.584 153.353 391.295 153.393 389.032 153.121C388.444 153.098 387.883 152.865 387.452 152.463C387.035 152.043 386.799 151.476 386.794 150.884C386.84 149.807 387.79 148.492 389.023 148.656C390.841 148.894 392.681 148.912 394.503 148.711H394.786C395.279 148.656 394.366 148.775 394.686 148.711L395.325 148.611C395.794 148.532 396.26 148.437 396.722 148.328C397.606 148.118 398.478 147.862 399.334 147.561C399.742 147.421 400.144 147.269 400.54 147.104L400.805 146.995L400.668 147.05L401.389 146.721C402.223 146.331 403.036 145.902 403.828 145.434C404.619 144.965 405.374 144.475 406.093 143.964L406.687 143.535L406.924 143.361C407.326 143.069 406.623 143.599 406.924 143.361C407.225 143.124 407.655 142.777 408.011 142.448C409.629 141.075 411.126 139.566 412.486 137.938C412.87 137.541 413.388 137.3 413.939 137.261C414.491 137.223 415.037 137.39 415.473 137.73C415.908 138.07 416.203 138.56 416.299 139.104C416.395 139.648 416.286 140.208 415.993 140.677C411.902 146.027 406.531 150.72 399.91 152.546C398.043 153.053 396.118 153.31 394.183 153.312L394.777 148.93L395.188 149.003C395.59 149.076 394.704 148.948 395.188 149.003L396.101 149.085C396.746 149.119 397.392 149.119 398.037 149.085C398.677 149.085 399.316 148.994 399.955 148.921H399.736H399.965L400.494 148.839L401.49 148.656C404.375 148.027 407.211 147.188 409.975 146.146C415.765 144.064 421.455 141.581 427.474 140.148C430.643 139.297 433.953 139.101 437.201 139.572C437.62 139.694 437.995 139.936 438.279 140.268C438.563 140.599 438.744 141.007 438.8 141.44C438.857 141.873 438.785 142.313 438.595 142.706C438.405 143.099 438.105 143.428 437.73 143.653C430.915 146.699 423.83 149.104 416.569 150.838C408.849 152.807 401.008 154.265 393.096 155.202C389.142 155.677 385.16 156.015 381.168 156.115C380.58 156.108 380.017 155.871 379.6 155.455C379.184 155.039 378.947 154.476 378.94 153.888C378.952 153.3 379.19 152.741 379.606 152.325C380.021 151.91 380.581 151.672 381.168 151.66V151.678ZM418.797 141.252C416.108 140.57 413.554 139.437 411.244 137.902C408.906 136.395 406.495 134.469 405.189 131.949C404.972 131.564 404.873 131.123 404.903 130.682C404.934 130.24 405.094 129.818 405.362 129.466C405.627 129.112 405.993 128.845 406.412 128.702C406.831 128.559 407.283 128.545 407.709 128.663C409.138 129.212 410.41 130.103 411.414 131.259C412.417 132.415 413.121 133.799 413.463 135.291C413.817 136.776 413.855 138.319 413.577 139.821C413.299 141.322 412.709 142.749 411.847 144.009C409.955 146.67 407.312 148.708 404.257 149.861C400.906 151.047 397.39 151.703 393.836 151.806C391.882 151.943 389.918 152.043 387.973 152.253L387.288 152.336C387.041 152.336 387.114 152.253 387.37 152.336C387.256 152.334 387.142 152.349 387.032 152.381C386.551 152.454 386.07 152.536 385.589 152.628C384.6 152.82 383.624 153.073 382.666 153.385V149.085C383.916 149.48 385.191 149.785 386.484 149.998C386.594 149.998 387.169 150.117 386.566 149.998H386.904L387.918 150.099C388.527 150.154 389.151 150.187 389.79 150.199C391.104 150.23 392.418 150.187 393.727 150.071L394.576 149.989L395.087 149.925C395.197 149.925 395.772 149.871 395.179 149.925C395.793 149.859 396.403 149.758 397.005 149.624C399.444 149.168 401.846 148.483 404.239 147.798C406.632 147.113 409.052 146.41 411.418 145.616C412.733 145.178 414.03 144.703 415.317 144.21L416.377 143.79L416.678 143.662H416.596L416.888 143.535C417.497 143.261 418.124 142.978 418.77 142.686C419.023 142.538 419.303 142.441 419.593 142.401C419.884 142.361 420.179 142.378 420.463 142.453C420.747 142.527 421.013 142.656 421.247 142.833C421.48 143.01 421.677 143.231 421.825 143.484C421.973 143.737 422.07 144.017 422.11 144.307C422.15 144.598 422.132 144.893 422.058 145.177C421.984 145.46 421.854 145.727 421.677 145.96C421.5 146.194 421.279 146.39 421.026 146.538C416.243 148.714 411.288 150.488 406.212 151.843C401.097 153.285 395.955 154.581 390.603 154.581C387.512 154.599 384.434 154.162 381.47 153.285C381.002 153.148 380.591 152.865 380.297 152.477C380.003 152.089 379.841 151.617 379.835 151.13C379.848 150.645 380.012 150.177 380.306 149.79C380.599 149.404 381.006 149.119 381.47 148.976C384.741 148.039 388.115 147.511 391.516 147.406C393.115 147.296 394.713 147.205 396.302 147.04L396.896 146.976H397.152C397.234 146.976 397.599 146.913 397.279 146.976H397.572L398.247 146.867C399.06 146.73 399.864 146.566 400.659 146.356C401.424 146.153 402.178 145.906 402.915 145.616L403.152 145.525L402.951 145.607C403.088 145.525 403.252 145.47 403.389 145.406C403.706 145.254 404.011 145.096 404.303 144.931C404.872 144.612 405.421 144.259 405.947 143.872C406.266 143.644 405.563 144.183 405.947 143.872L406.321 143.553C406.565 143.34 406.799 143.118 407.025 142.886C407.25 142.655 407.466 142.415 407.673 142.165L407.801 142.001C407.956 141.818 407.655 142.193 407.664 142.183C407.755 142.028 407.883 141.882 407.983 141.736C408.084 141.59 408.331 141.197 408.477 140.924L408.696 140.494L408.787 140.312C408.915 140.038 408.787 140.376 408.723 140.467C408.906 139.855 409.098 139.262 409.253 138.641C409.308 138.413 409.253 138.952 409.253 138.933C409.253 138.915 409.253 138.806 409.253 138.751C409.253 138.696 409.253 138.468 409.253 138.322C409.27 138.018 409.27 137.713 409.253 137.409C409.253 137.299 409.18 136.733 409.253 137.153C409.326 137.573 409.253 136.989 409.207 136.897C409.148 136.589 409.072 136.284 408.979 135.984C408.933 135.829 408.869 135.674 408.815 135.519C408.76 135.364 408.632 135.208 408.897 135.711C408.897 135.638 408.833 135.565 408.796 135.491C408.659 135.196 408.504 134.909 408.331 134.633C408.248 134.496 408.148 134.369 408.057 134.232C407.965 134.095 407.874 133.994 408.057 134.232C408.239 134.469 408.057 134.232 408.002 134.177C407.793 133.936 407.567 133.71 407.326 133.501L407.189 133.383C407.006 133.2 407.572 133.647 407.353 133.51C407.134 133.373 407.088 133.328 406.951 133.246L406.531 133.008L406.367 132.926C405.965 132.725 406.878 133.127 406.449 132.926L408.97 129.649C409.095 129.893 409.232 130.13 409.381 130.361L409.609 130.689C409.956 131.173 409.363 130.406 409.609 130.689C409.985 131.137 410.384 131.563 410.806 131.967C411.031 132.18 411.259 132.384 411.491 132.579L411.902 132.926C412.048 133.045 412.386 133.163 411.902 132.926C412.173 133.097 412.432 133.286 412.678 133.492C412.964 133.693 413.269 133.888 413.591 134.076C414.698 134.77 415.855 135.38 417.053 135.902L417.272 136.003C416.897 135.838 417.418 136.058 417.482 136.085L418.304 136.386C418.846 136.576 419.398 136.737 419.957 136.87C420.524 137.032 421.004 137.409 421.296 137.921C421.588 138.433 421.668 139.039 421.519 139.609C421.351 140.171 420.972 140.648 420.462 140.938C419.952 141.229 419.349 141.312 418.779 141.17L418.797 141.252ZM424.926 143.078C427.255 147.798 421.391 149.049 418.277 148.775C415.162 148.501 403.956 147.451 408.586 141.846C410.586 139.806 413.27 138.576 416.121 138.395C418.395 138.632 423.875 140.978 424.935 143.106L424.926 143.078Z" fill="#665346"/>
</g>
<defs>
<clipPath id="clip0_1282:9454">
<rect width="752" height="605" fill="white" transform="matrix(1 0 0 -1 0 605.008)"/>
</clipPath>
<clipPath id="clip1_1282:9454">
<rect width="646" height="805" fill="white" transform="matrix(-1 0 0 1 549 0)"/>
</clipPath>
</defs>
</svg>
