<svg width="403" height="945" viewBox="0 0 403 945" fill="none" xmlns="http://www.w3.org/2000/svg">
<path opacity="0.1" d="M818.554 597.821C797.491 665.404 750.976 686.112 686.672 701.376C671.27 790.701 578.666 850.062 489.3 836.28C411.727 1068.23 47.5229 884.34 36.8978 697.487C41.3775 587.384 150.52 537.032 244.96 584.895C267.599 594.71 258.806 592.959 280.325 583.397C333.447 558.657 389.085 588.121 443.818 590.976C457.938 540.685 497.127 505.763 542.779 483.434C591.466 459.61 647.89 439.101 703.336 442.656C764.969 446.607 819.129 492.512 823.881 556.36C824.934 570.398 823.122 584.505 818.554 597.821Z" fill="#C28566"/>
<path opacity="0.3" d="M616.396 -12.73C598.738 54.0584 595.353 123.697 600.652 192.38C610.128 293.784 513.737 333.93 427.979 339.595C348.521 352.998 268.338 362.609 187.805 366.376C153.98 367.956 123.835 352.265 106.629 323.012C71.0764 262.569 102.557 179.702 112.265 116.131C119.522 68.5645 127.395 21.3402 138.736 -25.4524C151.312 -77.246 158.569 -138.207 204.861 -171.739C265.329 -215.543 320.963 -175.979 384.265 -167.129C436.368 -159.844 490.862 -163.599 540.579 -143.729C596.274 -121.469 629.656 -73.4993 616.396 -12.73Z" fill="#DF936D"/>
<path opacity="0.5" d="M651.848 482.369C572.818 626.897 293.19 615.515 273.716 434.135C267.957 380.513 278.529 321.454 305.029 274.295C318.061 251.123 336.045 230.003 359.795 217.399C416.378 187.364 493.136 207.344 549.092 230.023C642.779 267.979 703.414 365.596 660.518 464.715C657.912 470.722 655.004 476.615 651.848 482.369Z" fill="#665346"/>
<path opacity="0.1" d="M345.083 93.1397C343.336 82.5513 339.923 72.1421 336.775 61.912C333.175 50.2159 329.408 38.5402 325.091 27.0884C314.478 -1.03192 296.584 -27.1079 277.443 -50.0725C271.522 -57.183 265.291 -64.1429 258.449 -70.386C256.413 -72.2308 251.766 -77.4802 248.439 -76.234L250.357 -71.681C263.141 -77.1504 274.328 -88.1542 283.971 -97.9566L280.058 -98.4615C313.721 -50.0685 337.773 4.61658 351.183 61.9935C364.704 119.855 367.408 180.421 358.249 239.17C348.43 302.143 325.144 361.816 305.307 422.06C295.333 452.327 286.166 482.923 279.936 514.208C273.501 546.596 270.479 579.6 270.223 612.607C269.693 680.132 280.367 747.275 294.792 813.07C296.584 821.239 298.433 829.396 300.339 837.541L302.741 834.389C263.821 831.384 246.224 789.279 231.245 759.195C223.361 743.366 214.393 727.54 200.861 715.815C186.607 703.472 168.399 696.39 156.247 681.578C144.029 666.701 138.47 647.874 128.452 631.666C123.613 623.834 117.919 616.563 111.474 609.988C104.551 602.931 95.5914 597.518 89.9633 589.292C79.8432 574.513 87.0229 558.248 97.9412 546.303C104.498 539.132 112.297 533.389 119.953 527.472L147.238 506.393C155.86 499.734 164.306 492.701 173.343 486.605C181.488 481.107 190.797 476.273 200.885 476.578C209.299 476.835 218.564 480.651 222.339 488.641C226.79 498.077 222.555 509.818 217.338 518.077C207.674 533.353 188.778 542.756 171.429 534.538C163.691 530.873 157.505 524.247 155.668 515.76C153.673 506.544 157.11 497.434 162.115 489.802C173.335 472.697 191.506 459.987 206.794 446.76C220.869 434.583 237.891 422.785 247.519 406.487C255.513 392.979 254.992 376.823 243.882 365.221C232.577 353.411 215.725 350.059 200.164 353.586C163.406 361.922 139.932 395.732 121.729 425.95C112.476 441.311 103.773 457.287 91.4579 470.478C79.3952 483.396 64.5104 493.728 47.7684 499.563C39.4455 502.442 30.7871 504.239 22.006 504.911L23.7695 509.162C34.6674 498.786 40.7435 484.32 41.2811 469.317C41.8349 453.239 35.5306 439.588 25.2355 427.607C19.3182 420.708 12.729 414.148 8.80316 405.823C5.18683 398.147 4.38446 389.395 5.98901 381.104C9.24701 364.24 20.5684 349.595 33.5718 338.86C61.1994 316.054 99.0286 309.75 124.828 284.049C150.627 258.347 161.178 220.877 192.96 200.714C219.402 183.935 276.001 171.962 287.983 212.402C298.978 249.575 258.03 279.451 224.025 273.464C206.578 270.394 192.076 258.559 188.138 240.913C186.265 232.516 187.01 223.373 190.757 215.574C194.125 208.566 199.944 203.455 206.232 199.122C217.423 191.433 230.638 184.99 236.511 171.954C242.143 159.448 238.026 145.227 229.824 134.895C206.248 105.239 165.398 118.438 138.022 134.716C99.8014 157.502 68.3581 190.081 46.9417 229.087L51.4947 229.681C41.4724 163.707 64.5999 90.8795 123.907 55.3065C150.7 39.2366 183.145 31.511 214.157 37.1107C230.928 40.1365 246.839 46.8561 261.125 56.0844C275.118 65.1252 286.48 76.6585 297.72 88.8148C307.18 99.0489 317.496 109.804 330.988 114.471C344.48 119.138 358.55 115.555 370.051 107.593C382.411 99.0407 391.883 87.2306 402.46 76.691C414.649 64.5673 429.065 54.1011 445.306 48.1594C461.539 42.1235 479.322 41.6777 495.837 46.8928C512.856 52.187 528.083 62.1157 542.43 72.4679C569.541 92.0361 595.148 114.712 614.639 142.062C632.994 167.821 645.533 197.643 646.84 229.502C648.062 258.763 640.45 289.367 621.591 312.303C617.144 317.676 612.149 322.569 606.686 326.903L610.848 329.347C630.395 280.176 610.892 222.721 565.212 196.018C545.436 184.457 520.936 178.099 498.138 182.579C487.525 184.656 476.961 189.417 469.81 197.761C462.015 206.863 459.547 218.796 461.197 230.479C463.05 243.625 469.118 255.912 475.715 267.274C482.435 278.848 489.671 290.166 496.933 301.401C511.121 323.348 526.377 344.822 544.511 363.71C552.912 372.512 562.022 380.61 571.748 387.921C582.373 395.858 593.76 401.837 605.496 407.876C611.731 411.097 617.689 414.909 621.012 421.315C624.507 428.067 624.861 435.976 624.873 443.441C624.86 459.485 623.66 475.506 621.285 491.374C618.808 508.188 615.086 524.795 610.151 541.058C605.582 556.126 599.999 571.068 591.267 584.25C582.784 597.058 571.133 607.757 556.378 612.697C542.715 617.27 527.708 616.81 515.434 608.795L514.839 613.348C547.044 605.411 566.922 571.683 557.372 539.775C552.554 523.681 541.571 511.765 527.236 503.506C511.394 494.391 494.88 487.802 485.746 470.885C478.008 456.566 475.564 440.11 470.677 424.748C465.701 409.049 458.02 396.021 444.663 386.06C430.047 375.158 410.544 366.809 405.225 347.628C399.369 326.508 421.612 315.904 439.324 316.527C455.752 317.105 472.921 326.077 479.69 341.637C485.725 355.512 481.832 373.618 470.405 383.608C462.956 390.124 453.626 390.918 444.174 391.859C437.059 392.568 430.25 393.895 423.689 396.791C414.666 400.745 407.046 407.329 401.824 415.683C390.389 433.968 390.332 457.654 392.784 478.35C395.703 502.964 402.655 527.073 411.435 550.196C420.395 573.776 431.447 596.122 446.674 616.345C465.31 641.094 487.806 662.527 511.459 682.413C514.583 685.04 517.739 687.634 520.826 690.297L520.186 687.854C508.283 732.016 481.217 771.339 445.086 799.052C434.498 807.197 423.189 814.569 411.11 820.323L414.518 823.732C427.237 805.133 432.132 781.944 428.365 759.749C424.17 735.156 406.724 716.85 397.76 694.207C389.615 673.608 386.663 651.475 380.582 630.269C375.186 611.442 366.585 590.359 349.668 579.025C341.849 573.776 330.833 570.844 322.358 576.358C316.152 580.394 313.855 587.834 312.943 594.798C311.86 603.069 312.263 611.609 312.21 619.937C312.173 633.166 313.125 646.378 315.061 659.465C318.86 685.805 326.288 711.592 336.645 736.096C341.388 747.358 346.774 758.337 352.776 768.981C359.068 780.103 367.355 790.859 370.788 803.329C372.714 810.325 372.503 817.582 368.691 823.915C365.51 829.209 360.517 833.224 355.928 837.24C348.084 844.106 341.308 851.473 339.878 862.184C337.467 880.249 349.245 899.878 367.571 903.621L368.235 898.734C304.484 891.314 244.493 859.231 201.866 811.425C189.789 797.849 179.191 783.026 170.252 767.206C168.672 764.416 164.367 766.925 165.951 769.718C198.356 826.928 252.45 870.748 314.657 891.75C332.049 897.596 350.007 901.6 368.235 903.694C371.016 904.016 371.635 899.361 368.898 898.807C352.128 895.383 341.324 876.482 345.278 860.058C349.811 841.284 373.895 835.847 376.705 815.868C378.11 805.882 374.046 796.092 369.416 787.474C364.007 777.411 357.638 767.927 352.311 757.782C341.109 736.454 332.399 713.907 326.353 690.586C319.926 666 316.856 640.656 317.227 615.246C317.435 602.438 314.918 576.443 334.877 578.516C346.537 579.738 355.549 589.773 361.629 598.968C367.131 607.288 370.996 616.521 374.026 625.993C380.061 644.893 382.985 664.62 388.756 683.586C392.134 694.685 396.809 705.347 402.684 715.351C409.334 726.697 416.937 737.705 420.912 750.374C428.43 774.231 424.276 800.718 410.193 821.308C408.662 823.548 411.558 825.69 413.602 824.717C436.766 813.677 457.923 797.053 475.503 778.462C494.563 758.271 508.437 733.958 518.505 708.22C520.948 702.006 523.261 695.673 525 689.222C525.123 688.795 525.129 688.343 525.017 687.912C524.904 687.482 524.678 687.091 524.361 686.779C503.998 669.239 483.636 652.02 465.766 631.833C446.583 610.262 431.183 585.605 420.216 558.903C410.886 536.26 403.347 512.608 399.238 488.45C395.516 466.54 393.582 440.562 404.838 420.399C409.749 411.546 417.537 404.635 426.911 400.81C441.979 394.649 459.808 398.86 472.995 387.941C483.832 378.982 488.918 363.849 487.081 350.067C485.131 335.468 474.921 323.486 461.885 317.162C448.446 310.646 431.993 309.424 418.098 315.321C402.545 321.939 395.337 337.272 401.914 353.175C408.837 369.908 424.809 378.204 438.888 388.027C446.715 393.488 453.512 399.8 458.318 408.12C462.39 415.206 465.053 423.001 467.314 430.832C471.757 446.202 474.677 462.52 483.123 476.367C492.367 491.524 507.712 498.358 522.626 506.658C539.058 515.776 551.08 529.272 554.228 548.282C557.246 566.494 550.156 584.621 536.395 596.72C529.828 602.451 521.975 606.512 513.504 608.559C511.325 609.096 511.186 611.988 512.909 613.112C532.457 625.879 558.549 621.192 576.439 607.667C597.189 591.992 607.618 566.535 614.932 542.402C623.573 513.854 628.501 484.312 629.593 454.506C630.041 442.358 631.019 428.344 624.515 417.446C617.864 406.32 604.527 402.333 593.813 396.347C548.201 370.865 517.914 325.999 490.954 282.68C477.984 261.842 455.78 231.587 469.814 206.338C482.239 183.984 513.919 183.622 535.544 189.14C562.744 196.063 586.991 214.177 600.654 238.787C615.722 265.926 617.445 299.267 606.005 328.011C604.975 330.601 608.486 331.782 610.168 330.454C659.359 291.159 661.151 217.961 634.525 165.316C619.111 134.842 595.572 109.116 569.557 87.3283C556.118 76.0801 542.015 65.337 527.065 56.2025C512.209 47.1208 495.801 39.8068 478.256 38.4099C443.64 35.6528 414.148 56.8907 391.57 80.8001C380.668 92.3455 368.931 105.996 353.048 110.419C336.27 115.09 321.601 105.732 310.015 94.4592C298.123 82.8934 287.877 70.0244 274.727 59.7414C261.357 49.3037 246.277 41.0081 230.068 35.9379C199.525 26.3594 166.477 29.7599 137.432 42.6656C74.0399 70.8307 41.8919 138.959 44.254 206.13C44.5714 214.466 45.3708 222.777 46.6485 231.021C46.9784 233.188 50.2363 233.363 51.2015 231.616C69.4421 198.527 95.1841 169.714 126.257 148.187C153.775 129.12 203.829 103.797 228.191 141.154C232.544 147.825 235.179 155.998 233.77 163.992C232.414 171.669 227.446 177.839 221.553 182.685C210.5 191.779 196.246 197.089 188.301 209.624C180.022 222.681 180.437 239.993 187.368 253.497C194.813 268.003 209.702 276.633 225.56 278.71C256.877 282.815 292.519 260.722 294.576 227.295C295.529 211.819 288.61 195.904 275.175 187.653C260.286 178.511 240.754 179.008 224.236 182.551C206.722 186.333 190.478 194.563 177.069 206.448C163.414 218.588 153.99 234.413 144.347 249.714C134.048 266.052 122.975 281.336 106.819 292.361C91.3438 302.925 73.8525 309.966 57.2043 318.4C29.4301 332.47 -3.00293 358.453 0.348694 393.525C2.06323 411.444 15.1073 422.305 25.4066 435.719C36.1335 449.684 38.9638 467.757 33.5515 484.495C30.941 492.55 26.3526 499.821 20.2061 505.644C18.7196 507.061 19.7987 510.07 21.9694 509.895C58.3731 507.008 89.2994 485.909 109.189 455.829C131.315 422.362 148.085 383.213 185.788 364.15C203.707 355.089 226.827 353.435 241.251 369.758C256.625 387.155 243.006 407.497 229.233 420.517C212.585 436.249 194.446 450.441 177.334 465.664C164.575 477.014 149.808 492.225 150.048 510.588C150.264 526.633 163.052 539.18 178.389 542.015C195.118 545.106 210.968 535.967 220.335 522.467C229.702 508.967 234.181 487.81 218.49 477.075C203.263 466.658 184.664 472.938 170.749 482.337C151.628 495.247 133.82 510.486 115.571 524.589C101.79 535.238 86.2736 546.987 81.1667 564.523C79.0685 571.532 79.4643 579.052 82.2867 585.802C85.9926 594.562 93.038 600.186 100.051 606.225C116.161 620.1 126.281 637.135 135.387 656.06C139.721 665.068 144.213 674.064 150.244 682.083C155.97 689.695 162.999 695.787 170.83 701.15C179.427 707.039 188.659 712.085 196.633 718.845C204.265 725.312 210.48 733.176 215.806 741.618C235.318 772.643 244.969 813.445 279.337 832.434C286.52 836.413 294.479 838.79 302.668 839.402C304.354 839.533 305.413 837.712 305.071 836.25C289.595 769.763 277.105 702.156 275.342 633.751C274.454 599.461 276.274 565.032 281.858 531.162C287.058 499.572 295.59 468.653 305.278 438.175C324.688 377.129 348.854 317.28 360.688 254.1C371.46 196.503 370.963 137.057 359.947 79.5295C348.952 22.1526 327.445 -33.3429 296.335 -82.8193C292.477 -88.9551 288.474 -94.9946 284.326 -100.938C283.426 -102.229 281.609 -102.66 280.412 -101.443C271.021 -91.9009 260.249 -81.2676 247.808 -75.9449C245.238 -74.8453 247.083 -70.3983 249.726 -71.3919C248.977 -71.1109 249.339 -71.286 250.076 -70.7892C250.902 -70.2206 251.699 -69.6103 252.463 -68.9607C254.8 -67.0222 256.987 -64.8882 259.137 -62.7461C264.964 -56.8943 270.487 -50.7477 275.684 -44.3304C286.069 -31.5076 295.569 -17.9924 304.118 -3.8786C316.592 16.5733 324.297 38.6868 331.363 61.4397C334.722 72.2643 338.388 83.2925 340.241 94.504C340.762 97.6602 345.563 96.3203 345.046 93.1805L345.083 93.1397Z" fill="#D9D0CA"/>
</svg>
