<svg width="469" height="894" viewBox="0 0 469 894" fill="none" xmlns="http://www.w3.org/2000/svg">
<g opacity="0.3" clip-path="url(#clip0_1204:9458)">
<path d="M117.536 592.659C117.188 593.254 117.091 593.963 117.266 594.629C117.441 595.296 117.874 595.866 118.469 596.213C119.064 596.561 119.773 596.658 120.44 596.483C121.107 596.308 121.677 595.876 122.024 595.28C122.916 593.608 123.857 591.954 124.847 590.318C132.56 577.463 142.775 565.858 155.198 557.451C161.807 552.893 169.111 549.432 176.825 547.205C184.525 545.103 192.496 544.168 200.473 544.429C217.197 544.83 233.392 549.633 249.099 555.237C257.782 558.336 266.369 561.694 274.861 565.31C281.55 568.166 288.494 571.403 294.167 575.771C297.026 577.932 299.564 580.488 301.706 583.362C303.994 586.649 305.817 590.237 307.124 594.023C309.967 601.922 311.593 610.182 314.998 617.88L318.557 614.302L314.122 611.506C301.258 603.434 288.206 595.635 274.78 588.539C261.087 581.302 246.958 574.714 232.268 569.751C218.789 565.196 204.727 562.213 190.465 561.892C177.186 561.591 163.74 563.671 151.405 568.681C138.655 573.903 127.228 581.899 117.957 592.09C117.716 592.331 117.525 592.617 117.394 592.932C117.264 593.247 117.196 593.585 117.196 593.926C117.196 594.267 117.264 594.605 117.394 594.92C117.525 595.235 117.716 595.521 117.957 595.762C118.198 596.003 118.484 596.194 118.8 596.325C119.115 596.455 119.452 596.522 119.793 596.522C120.134 596.522 120.472 596.455 120.787 596.325C121.102 596.194 121.388 596.003 121.63 595.762C122.811 594.473 124.024 593.214 125.269 591.983C134.468 582.888 145.605 575.99 157.847 571.804C170.296 567.624 183.006 566.4 196.131 567.337C202.896 567.835 209.608 568.889 216.2 570.487C223.151 572.189 229.991 574.313 236.683 576.847C250.905 582.124 264.559 588.846 277.857 596.123C290.822 603.219 303.452 610.911 315.934 618.823C316.432 619.107 317.01 619.221 317.578 619.147C318.147 619.074 318.676 618.817 319.085 618.415C319.476 618 319.726 617.472 319.8 616.906C319.873 616.341 319.766 615.766 319.493 615.265C318.69 613.459 318.015 611.6 317.386 609.721C314.71 601.695 313.045 593.247 309.151 585.643C305.438 578.392 299.585 572.808 292.748 568.5C285.785 564.113 278.072 561.003 270.479 557.893C261.68 554.29 252.774 550.946 243.761 547.86C227.826 542.463 211.015 538.497 194.084 539.272C185.606 539.59 177.233 541.257 169.279 544.208C161.587 547.195 154.375 551.294 147.873 556.374C135.27 566.079 125.128 578.68 117.569 592.639L117.536 592.659ZM308.777 670.524C306.417 666.355 303.911 662.275 301.257 658.284C298.582 654.325 295.906 650.586 293.023 647.068C290.018 643.356 286.814 639.81 283.423 636.447C281.769 634.811 280.067 633.226 278.319 631.692C277.427 630.898 276.506 630.118 275.556 629.351L274.258 628.301L273.59 627.786L273.121 627.424C265.395 621.545 256.645 616.335 247.3 613.72C244.799 613.005 242.229 612.556 239.633 612.382C238.297 612.301 236.956 612.301 235.62 612.382C235.049 612.418 234.478 612.469 233.907 612.536C233.599 612.57 233.907 612.536 233.947 612.536L233.559 612.597L232.656 612.757C231.535 612.977 230.429 613.267 229.345 613.626C228.843 613.794 228.348 613.974 227.86 614.168C227.739 614.205 227.622 614.254 227.512 614.315L226.676 614.703C225.695 615.182 224.748 615.725 223.839 616.329C223.005 616.859 222.227 617.473 221.518 618.161C219.999 619.489 218.755 621.102 217.859 622.91C217.738 623.142 217.625 623.365 217.518 623.579C217.451 623.726 217.223 624.294 217.391 623.853C217.217 624.308 217.056 624.769 216.916 625.244C216.775 625.719 216.668 626.18 216.581 626.655C216.541 626.856 216.474 627.324 216.534 626.843C216.501 627.097 216.474 627.358 216.454 627.612C216.377 628.531 216.377 629.455 216.454 630.374C216.454 630.581 216.528 631.043 216.454 630.561C216.454 630.782 216.521 631.003 216.561 631.23C216.646 631.703 216.748 632.173 216.869 632.641C216.989 633.11 217.13 633.573 217.29 634.033C217.362 634.247 217.437 634.458 217.518 634.668L217.638 634.982C217.779 635.357 217.478 634.621 217.638 634.982C218.019 635.845 218.455 636.683 218.943 637.49C219.179 637.878 219.426 638.26 219.685 638.634L220.08 639.189C220.08 639.189 220.327 639.517 220.153 639.29C219.979 639.062 220.274 639.437 220.301 639.47C220.923 640.228 221.593 640.945 222.307 641.617C222.635 641.925 222.976 642.219 223.331 642.507L223.592 642.721C223.592 642.721 223.271 642.48 223.512 642.654L224.18 643.109C224.948 643.635 225.753 644.105 226.589 644.513L227.191 644.794C227.465 644.915 227.111 644.794 227.077 644.747L227.385 644.868C227.833 645.035 228.288 645.189 228.723 645.323C229.157 645.456 229.646 645.57 230.121 645.657L230.79 645.771C231.091 645.824 230.683 645.771 230.649 645.771L231.091 645.817C232.026 645.9 232.966 645.9 233.9 645.817L234.242 645.777C234.242 645.777 233.773 645.864 234.068 645.777C234.362 645.69 234.476 645.71 234.676 645.664C235.122 645.574 235.553 645.467 235.967 645.343C236.389 645.215 236.797 645.042 237.218 644.908C237.499 644.821 237.091 644.968 237.065 644.975L237.339 644.854L238.008 644.547C238.756 644.151 239.476 643.704 240.162 643.209L240.409 643.028C240.409 643.028 240.061 643.316 240.282 643.129L240.75 642.741C241.085 642.455 241.411 642.159 241.727 641.851C242.044 641.544 242.327 641.249 242.577 640.968L242.978 640.507C243.105 640.353 243.54 639.798 243.212 640.233C244.242 638.851 245.114 637.359 245.814 635.785C245.627 636.2 245.814 635.845 245.868 635.638C245.922 635.43 246.015 635.25 246.082 635.056C246.234 634.632 246.372 634.204 246.497 633.772C246.743 632.912 246.937 632.039 247.079 631.157C247.079 631.056 247.079 630.956 247.126 630.849C247.126 630.849 247.079 631.331 247.126 631.03C247.172 630.729 247.166 630.622 247.186 630.414C247.222 629.968 247.244 629.522 247.253 629.077C247.262 628.631 247.262 628.223 247.253 627.853C247.253 627.652 247.239 627.449 247.213 627.244C247.213 627.124 247.132 626.441 247.172 626.782C247.213 627.124 247.132 626.528 247.112 626.428C247.072 626.196 247.028 625.973 246.978 625.759C246.885 625.313 246.776 624.89 246.651 624.488C246.537 624.1 246.403 623.719 246.263 623.345L246.149 623.064C246.149 623.064 246.343 623.478 246.209 623.218C246.075 622.957 246.008 622.79 245.908 622.549C245.521 621.785 245.074 621.054 244.57 620.362C244.41 620.141 244.604 620.402 244.63 620.435L244.383 620.134C244.218 619.938 244.048 619.744 243.875 619.552C243.473 619.106 243.052 618.685 242.61 618.288C242.423 618.119 242.231 617.952 242.035 617.787L241.741 617.546C241.299 617.211 240.844 616.877 240.403 616.609C239.541 616.086 238.647 615.617 237.727 615.205C236.792 614.83 235.836 614.51 234.864 614.249C234.32 614.106 233.771 613.981 233.218 613.874L232.449 613.74L232.061 613.68C232.348 613.72 232.141 613.68 231.974 613.68C230.892 613.564 229.804 613.511 228.716 613.52C228.194 613.52 227.672 613.544 227.151 613.593L226.375 613.667L225.987 613.713C226.268 613.68 226.074 613.713 225.906 613.713C223.604 614.009 221.378 614.735 219.344 615.854C218.471 616.344 217.682 616.972 217.009 617.713C216.849 617.88 216.702 618.061 216.541 618.235C216.22 618.589 216.648 618.047 216.38 618.435C216.075 618.867 215.791 619.313 215.531 619.773C215.424 619.974 215.321 620.177 215.223 620.382C215.15 620.536 214.969 621.01 215.123 620.596C214.949 621.057 214.788 621.525 214.655 622.007C214.521 622.489 214.427 622.903 214.347 623.345C214.347 623.452 214.233 624.067 214.267 623.806C214.3 623.545 214.226 624.254 214.213 624.395C214.137 625.39 214.137 626.389 214.213 627.384C214.213 627.665 214.267 627.946 214.293 628.234C214.347 628.735 214.246 628.013 214.333 628.515C214.42 629.016 214.521 629.565 214.634 630.086C214.863 631.099 215.151 632.098 215.497 633.076C215.582 633.312 215.669 633.535 215.758 633.745C215.805 633.859 216.033 634.414 215.872 634.046C216.079 634.541 216.314 635.029 216.541 635.511C217.014 636.46 217.543 637.38 218.126 638.266C218.425 638.712 218.735 639.158 219.056 639.604L219.297 639.932L219.424 640.106L219.906 640.701C222.712 644.211 226.281 647.036 230.342 648.961C230.93 649.242 231.064 649.302 231.452 649.456C231.996 649.67 232.545 649.866 233.098 650.044C234.205 650.401 235.336 650.68 236.483 650.88C236.59 650.88 237.238 651.001 236.857 650.947C237.125 650.981 237.392 651.014 237.66 651.034C238.244 651.088 238.828 651.119 239.413 651.128C239.928 651.128 240.449 651.128 240.965 651.128L241.707 651.068L242.082 651.028C241.807 651.028 241.928 651.028 242.135 651.028C243.205 650.858 244.26 650.61 245.293 650.285C245.768 650.131 246.243 649.958 246.711 649.784C247.179 649.61 246.584 649.85 247.012 649.656L247.801 649.282C248.729 648.817 249.623 648.287 250.477 647.697L251.086 647.262C251.46 646.995 250.992 647.356 251.347 647.061C251.701 646.767 252.23 646.312 252.645 645.911C253.059 645.51 253.313 645.242 253.675 644.848C253.84 644.665 254 644.48 254.156 644.292L254.39 644.005C254.651 643.684 254.19 644.286 254.437 643.951C255.044 643.136 255.583 642.273 256.05 641.37C256.163 641.156 256.264 640.935 256.371 640.701C256.578 640.266 256.317 640.875 256.491 640.427C256.665 639.979 256.852 639.437 256.993 638.928C257.139 638.42 257.259 637.904 257.354 637.383C257.354 637.236 257.448 636.661 257.401 637.103C257.401 636.815 257.454 636.534 257.474 636.246C257.517 635.287 257.49 634.326 257.394 633.37C257.434 633.839 257.394 633.37 257.361 633.17C257.327 632.969 257.28 632.728 257.234 632.501C257.131 632.028 257.008 631.562 256.866 631.103C256.732 630.682 256.585 630.267 256.424 629.852C256.317 629.571 256.458 629.926 256.471 629.959L256.29 629.558C256.183 629.322 256.07 629.099 255.949 628.889C255.52 628.064 255.033 627.27 254.491 626.515C254.397 626.381 254.089 625.973 254.357 626.321C254.217 626.14 254.076 625.966 253.929 625.793C253.612 625.414 253.282 625.044 252.939 624.682C252.245 623.954 251.508 623.269 250.731 622.629L250.35 622.315L249.949 622.02C249.534 621.717 249.108 621.423 248.671 621.137C247.828 620.589 246.961 620.083 246.069 619.619C245.623 619.396 245.177 619.173 244.731 618.95L244.062 618.649L243.727 618.502C243.982 618.609 243.848 618.549 243.674 618.502C242.684 618.121 241.667 617.76 240.677 617.459C239.687 617.158 238.717 616.931 237.72 616.73C237.247 616.636 236.77 616.552 236.289 616.476L235.934 616.422C235.981 616.422 236.335 616.476 236.028 616.422L235.191 616.329C234.08 616.224 232.963 616.177 231.847 616.188C230.711 616.195 229.577 616.264 228.448 616.395C227.337 616.561 226.239 616.81 225.164 617.138C224.115 617.439 223.114 617.889 222.194 618.476C221.378 618.954 220.641 619.554 220.006 620.255C219.846 620.422 219.698 620.596 219.545 620.77L219.324 621.03C219.324 621.03 219.558 620.716 219.384 620.957C219.096 621.358 218.829 621.766 218.581 622.194C218.334 622.622 218.16 622.99 217.966 623.405C218.153 622.997 217.966 623.465 217.886 623.626C217.805 623.786 217.705 624.127 217.625 624.381C217.478 624.854 217.35 625.333 217.243 625.819C217.194 626.047 217.152 626.27 217.116 626.488C217.116 626.602 217.083 626.716 217.063 626.829C217.003 627.237 217.103 626.421 217.063 626.829C216.969 627.803 216.942 628.782 216.982 629.759C216.982 630.234 217.049 630.702 217.103 631.177C217.049 630.722 217.103 631.264 217.15 631.431C217.194 631.707 217.248 631.982 217.31 632.254C217.525 633.27 217.816 634.27 218.18 635.243C218.22 635.35 218.441 635.912 218.361 635.711C218.28 635.511 218.521 636.066 218.568 636.166C218.791 636.612 219.03 637.071 219.284 637.544C219.538 638.017 219.788 638.42 220.033 638.755C220.167 638.948 220.307 639.142 220.441 639.336C220.441 639.336 220.689 639.664 220.528 639.457C220.367 639.249 220.682 639.644 220.709 639.678C221.37 640.481 222.09 641.234 222.863 641.932C223.081 642.128 223.304 642.319 223.532 642.507L223.953 642.848L224.395 643.169C224.631 643.338 224.872 643.503 225.117 643.664C225.992 644.235 226.903 644.746 227.846 645.195L228.515 645.51C228.79 645.63 228.515 645.51 228.468 645.51L228.816 645.65C229.32 645.846 229.831 646.025 230.348 646.185C231.38 646.506 232.433 646.754 233.499 646.928C233.64 646.928 234.228 647.021 233.793 646.974L234.536 647.048C235.071 647.093 235.606 647.117 236.141 647.122C236.677 647.126 237.169 647.113 237.62 647.082L238.356 647.021L238.724 646.981C238.449 646.981 238.55 646.981 238.764 646.981C239.819 646.814 240.859 646.564 241.874 646.232L242.543 645.985C242.657 645.938 243.212 645.704 242.844 645.871C243.319 645.657 243.788 645.43 244.242 645.202C244.697 644.975 245.039 644.734 245.427 644.48L245.995 644.085C246.236 643.918 245.995 644.085 245.928 644.145L246.289 643.858C247.03 643.244 247.721 642.573 248.357 641.851C248.537 641.651 248.704 641.443 248.878 641.229C249.186 640.861 248.758 641.417 249.039 641.022C249.32 640.627 249.614 640.199 249.882 639.771C250.388 638.95 250.835 638.094 251.22 637.21C251.046 637.611 251.22 637.123 251.307 636.975C251.394 636.828 251.467 636.541 251.541 636.307C251.701 635.834 251.846 635.355 251.976 634.869C252.105 634.383 252.212 633.897 252.297 633.411C252.337 633.183 252.372 632.96 252.404 632.742C252.33 633.25 252.404 632.581 252.404 632.407C252.48 631.459 252.48 630.506 252.404 629.558C252.404 629.331 252.357 629.103 252.343 628.889C252.377 629.351 252.343 628.889 252.31 628.682C252.23 628.196 252.125 627.717 251.996 627.244C251.866 626.771 251.73 626.339 251.588 625.946C251.554 625.846 251.327 625.278 251.427 625.512C251.527 625.746 251.36 625.365 251.327 625.298L251.126 624.883C250.685 624.031 250.175 623.217 249.601 622.448C249.862 622.803 249.561 622.402 249.454 622.274L249.019 621.773C248.702 621.421 248.37 621.082 248.022 620.756C247.708 620.455 247.353 620.181 247.039 619.9C246.811 619.713 247.112 619.947 247.139 619.974L246.878 619.78L246.256 619.345C245.472 618.82 244.651 618.351 243.801 617.94L243.206 617.66C242.757 617.446 243.48 617.76 243.012 617.573C242.543 617.385 242.108 617.225 241.674 617.071C239.812 616.45 237.898 616.002 235.954 615.733C236.409 615.8 235.874 615.733 235.707 615.733L234.997 615.66C234.48 615.606 233.961 615.564 233.439 615.533C232.429 615.466 231.432 615.432 230.402 615.426C228.308 615.426 226.221 615.506 224.134 615.68C223.117 615.765 222.102 615.867 221.09 615.987L219.652 616.168L219.391 616.202L218.568 616.322C206.988 618.027 195.435 619.967 183.869 621.793L166.811 624.468L168.363 620.649C169.57 622.801 170.892 624.886 172.323 626.896C172.675 627.387 173.032 627.875 173.393 628.361C173.454 628.441 173.942 629.077 173.694 628.762L174.363 629.578C175.122 630.519 175.902 631.442 176.705 632.347C178.373 634.22 180.137 636.006 181.989 637.698C182.881 638.514 183.796 639.307 184.732 640.079C185.178 640.467 185.649 640.848 186.144 641.223L186.451 641.463L186.545 641.53L187.375 642.152C191.346 645.094 195.591 647.647 200.051 649.777C200.6 650.04 201.151 650.294 201.704 650.539L202.533 650.907L202.888 651.061L203.102 651.155C204.221 651.601 205.352 652.046 206.493 652.492C208.852 653.344 211.252 654.08 213.691 654.7C216.131 655.319 218.546 655.803 220.936 656.151L221.832 656.278L222.167 656.318C222.809 656.398 223.454 656.467 224.1 656.525C225.349 656.641 226.598 656.726 227.846 656.78C232.971 656.977 238.101 656.611 243.145 655.689C249.367 654.572 255.481 652.934 261.716 651.897C267.782 650.794 273.982 650.627 280.098 651.402C291.105 652.993 301.332 658.005 309.332 665.729C310.277 666.647 311.185 667.601 312.054 668.591L307.713 671.119L307.599 670.852L307.325 670.216L306.883 669.2C306.531 668.397 306.174 667.597 305.813 666.799C305.104 665.238 304.373 663.677 303.619 662.117C302.103 659.027 300.482 655.993 298.756 653.014C295.486 647.288 291.642 641.91 287.283 636.962C285.055 634.457 282.662 632.104 280.119 629.919C272.894 623.728 264.27 619.39 254.993 617.278C253.463 616.917 251.922 616.605 250.37 616.342C249.612 616.213 248.854 616.095 248.096 615.987L247.587 615.914C248.029 615.974 247.587 615.914 247.514 615.914L246.243 615.76C243.072 615.406 239.881 615.218 236.69 615.151C230.196 615.075 223.703 615.338 217.237 615.941C204.145 617.051 191.094 618.93 177.942 619.144C165.232 619.352 152.301 617.807 140.715 612.215C139.319 611.542 137.954 610.815 136.621 610.035L140.554 607.039L140.742 607.513C140.588 607.132 140.742 607.513 140.775 607.594C140.916 607.901 141.056 608.202 141.203 608.503C141.538 609.177 141.906 609.832 142.307 610.47C142.962 611.565 143.739 612.584 144.622 613.506C145.555 614.523 146.564 615.469 147.639 616.335C147.719 616.402 148.14 616.737 147.806 616.476L148.214 616.777C148.486 616.977 148.762 617.174 149.043 617.365C149.641 617.776 150.25 618.163 150.87 618.529C153.217 619.956 155.746 621.061 158.389 621.813C159.794 622.234 161.221 622.578 162.663 622.843L163.68 623.017C163.774 623.017 164.75 623.164 164.262 623.104C165.199 623.215 166.14 623.302 167.085 623.365C174.705 623.846 182.224 622.596 189.649 621.017C196.74 619.512 203.777 617.827 210.922 616.609C224.642 614.282 238.77 613.192 252.524 615.867C259.25 617.15 265.734 619.475 271.743 622.756C277.309 625.884 282.422 629.757 286.942 634.267C296.073 643.249 303.07 654.205 309.265 665.341C310.019 666.678 310.763 668.041 311.499 669.427L306.656 670.765C306.656 669.066 306.656 667.367 306.509 665.675C306.451 664.828 306.373 663.983 306.275 663.14C306.275 662.919 306.221 662.699 306.194 662.471C306.194 662.411 306.127 661.963 306.194 662.364C306.127 661.876 306.054 661.395 305.974 660.906C305.427 657.558 304.613 654.259 303.539 651.041C303.271 650.234 302.988 649.434 302.689 648.64C302.564 648.305 302.435 647.973 302.301 647.643L302.054 647.021L301.9 646.647L301.846 646.526C301.173 644.966 300.444 643.434 299.659 641.932C298.079 638.923 296.27 636.04 294.247 633.31C293.424 632.2 292.407 630.943 291.29 629.665C290.173 628.388 289.002 627.157 287.785 625.98C286.567 624.803 285.303 623.666 283.998 622.589L282.955 621.746C282.955 621.746 282.574 621.445 282.848 621.659L282.42 621.338C281.706 620.803 280.981 620.281 280.246 619.773C274.736 616 268.662 613.127 262.251 611.259C259.062 610.306 255.818 609.546 252.538 608.985C251.712 608.842 250.887 608.711 250.062 608.59L249.447 608.503L247.868 608.309C246.191 608.113 244.512 607.957 242.831 607.841C235.953 607.406 229.054 607.39 222.174 607.794C207.958 608.517 193.823 610.336 179.608 610.985C165.64 611.653 151.365 611.118 137.892 607.065C136.242 606.57 134.612 606.02 133.002 605.413L136.3 602.932C136.273 603.768 136.293 604.606 136.36 605.44C136.36 605.607 136.36 605.768 136.407 605.935C136.474 606.724 136.353 605.634 136.407 606.102C136.46 606.57 136.554 606.998 136.648 607.44C136.809 608.203 137.01 608.958 137.25 609.7C137.361 610.053 137.482 610.401 137.611 610.744C137.696 610.976 137.785 611.199 137.879 611.413C137.705 610.998 137.966 611.607 138.012 611.694C138.688 613.16 139.496 614.561 140.427 615.88C140.641 616.188 140.862 616.496 141.096 616.79C140.789 616.395 141.304 617.038 141.317 617.051L141.638 617.439C142.182 618.081 142.755 618.701 143.357 619.298C145.671 621.641 148.362 623.579 151.318 625.03C151.987 625.378 152.703 625.699 153.412 626.007C152.943 625.813 153.726 626.127 153.74 626.134L154.214 626.314C154.66 626.479 155.106 626.633 155.552 626.776C157.399 627.367 159.289 627.815 161.205 628.113C169.373 629.451 177.929 628.02 185.956 625.793C194.292 623.478 202.286 620.134 210.42 617.232C218.267 614.436 226.314 612.068 234.65 611.373C241.241 610.863 247.872 611.353 254.317 612.824C267.293 615.827 279.247 622.201 288.969 631.304C298.615 640.266 305.994 651.877 309.278 664.672C309.675 666.224 310.01 667.784 310.282 669.354C310.445 670.017 310.348 670.718 310.011 671.313C309.674 671.907 309.122 672.35 308.469 672.551C307.218 672.892 305.512 672.129 305.271 670.738C304.711 667.507 303.89 664.326 302.816 661.227C302.562 660.496 302.294 659.769 302.013 659.047C301.88 658.704 301.744 658.362 301.605 658.024C301.605 658.064 301.311 657.355 301.452 657.656L301.197 657.067C300.555 655.614 299.859 654.185 299.11 652.78C297.59 649.934 295.869 647.201 293.959 644.6L293.223 643.617C292.916 643.209 293.116 643.47 293.183 643.557L292.728 642.975C292.22 642.333 291.7 641.7 291.17 641.075C290.108 639.827 288.993 638.616 287.825 637.444C285.585 635.151 283.198 633.006 280.68 631.023C280.68 631.023 280.012 630.508 280.426 630.822L280.032 630.521L279.042 629.786C278.377 629.299 277.708 628.825 277.035 628.361C275.697 627.433 274.307 626.553 272.867 625.719C271.427 624.885 269.984 624.1 268.539 623.365C267.879 623.035 267.21 622.714 266.532 622.402L265.415 621.893L264.967 621.693L264.518 621.499H264.572C261.591 620.249 258.526 619.208 255.401 618.382C253.822 617.967 252.23 617.608 250.624 617.305C249.862 617.162 249.097 617.033 248.33 616.917C248.183 616.917 247.166 616.757 247.661 616.824L246.202 616.65C243.035 616.312 239.845 616.218 236.663 616.369C235.024 616.449 233.385 616.589 231.76 616.803C232.255 616.737 231.713 616.803 231.593 616.803L230.924 616.91L229.311 617.185C228.241 617.376 227.175 617.599 226.114 617.854C221.877 618.841 217.698 620.064 213.598 621.519C197.389 627.13 180.966 635.13 163.332 633.504C155.658 632.917 148.333 630.055 142.294 625.284C136.942 621.024 132.701 614.904 131.463 608.115C131.136 606.374 130.993 604.603 131.035 602.832C131.082 601.28 132.681 599.715 134.326 600.323C137.631 601.553 141.012 602.567 144.448 603.36C146.116 603.748 147.792 604.087 149.478 604.377C150.321 604.524 151.166 604.66 152.014 604.785L152.683 604.878H152.796L154.275 605.065C161.326 605.84 168.425 606.099 175.514 605.841C189.89 605.433 204.172 603.614 218.521 602.711C232.489 601.828 246.771 601.788 260.418 605.279C274.064 608.771 286.567 615.981 295.698 626.816C304.978 637.728 310.567 651.294 311.666 665.575C311.787 667.267 311.834 668.966 311.814 670.665C311.814 673.166 308.221 674.296 306.97 672.002C303.92 666.337 300.736 660.746 297.217 655.362C293.89 650.159 290.119 645.253 285.945 640.701C283.809 638.385 281.537 636.199 279.142 634.153C271.911 627.965 263.298 623.606 254.029 621.445C241.112 618.369 226.97 619.178 213.945 621.278C206.801 622.428 199.757 624.054 192.686 625.599C185.067 627.264 177.3 628.735 169.447 628.595C157.258 628.374 144.026 623.525 137.524 612.597C136.735 611.24 136.064 609.82 135.517 608.349C135.381 607.854 135.397 607.329 135.563 606.842C135.729 606.356 136.037 605.93 136.447 605.621C136.855 605.308 137.346 605.122 137.858 605.086C138.371 605.05 138.883 605.166 139.33 605.42C140.739 606.245 142.18 607.01 143.652 607.714C144.894 608.321 146.167 608.863 147.465 609.339C150.406 610.45 153.424 611.344 156.496 612.015C158.012 612.349 159.537 612.632 161.071 612.864L162.195 613.031C162.623 613.091 161.827 612.984 162.255 613.031L162.884 613.111C163.682 613.21 164.483 613.297 165.286 613.372C168.443 613.673 171.607 613.814 174.778 613.841C187.99 613.941 201.122 612.115 214.246 610.898C227.238 609.694 240.449 609.012 253.34 611.486C266.594 613.906 278.758 620.412 288.126 630.093C297.893 639.912 305.004 652.111 310.65 664.665C311.385 666.297 312.088 667.942 312.784 669.594C313.225 670.631 312.489 672.002 311.593 672.531C311.095 672.817 310.518 672.932 309.949 672.858C309.379 672.784 308.85 672.526 308.442 672.123C301.4 664.13 291.891 658.716 281.423 656.74C280.821 656.624 280.219 656.519 279.617 656.425C278.948 656.318 278.774 656.298 277.931 656.204C276.593 656.062 275.233 655.975 273.85 655.944C270.942 655.896 268.034 656.079 265.154 656.492C258.846 657.402 252.671 659.034 246.423 660.251C240.942 661.384 235.357 661.942 229.76 661.916C224.684 661.827 219.631 661.229 214.675 660.13C204.786 657.938 195.411 653.864 187.06 648.132C178.605 642.37 171.403 634.958 165.888 626.341C165.241 625.315 164.621 624.274 164.028 623.218C163.285 621.88 163.867 619.673 165.58 619.399L203.523 613.379C209.263 612.476 214.989 611.446 220.755 610.744C225.164 610.148 229.621 609.986 234.061 610.262C242.697 610.931 251.922 614.142 255.929 622.482C259.936 630.822 257.207 641.396 250.25 647.302C242.697 653.723 231.599 653.576 223.318 648.593C219.209 646.182 215.94 642.568 213.952 638.24C211.955 633.892 211.392 629.022 212.347 624.335C212.85 622 213.866 619.807 215.322 617.913C216.777 616.02 218.635 614.473 220.762 613.386C225.445 611.038 231.051 610.583 236.215 611.225C245.246 612.349 254.444 616.79 259.515 624.602C261.95 628.289 263.05 632.698 262.632 637.096C262.049 641.982 259.724 646.493 256.083 649.804C252.536 653.118 248.076 655.292 243.279 656.044C238.089 656.722 232.814 655.879 228.094 653.616C219.203 649.543 211.704 640.948 209.584 631.324C208.567 626.716 208.688 621.813 210.815 617.526C213.216 612.67 218.173 609.901 223.338 608.831C232.964 606.885 244.329 609.948 249.721 618.676C254.009 625.619 252.919 634.936 248.557 641.57C246.405 644.98 243.31 647.691 239.647 649.376C235.585 651.173 231.003 651.412 226.776 650.044C218.3 647.235 212.059 639.042 211.303 630.187C210.453 619.994 218.448 611.881 227.492 608.684C238.603 604.758 250.664 608.396 260.752 613.473C269.866 618.144 278.238 624.137 285.597 631.257C293.048 638.483 299.698 646.49 305.432 655.141C308.215 659.274 310.783 663.521 313.272 667.849C313.444 668.143 313.557 668.469 313.603 668.807C313.649 669.145 313.628 669.489 313.542 669.819C313.455 670.15 313.304 670.459 313.098 670.731C312.891 671.003 312.633 671.231 312.339 671.404C312.044 671.576 311.718 671.688 311.38 671.734C311.042 671.781 310.698 671.76 310.368 671.673C310.038 671.587 309.728 671.436 309.456 671.229C309.184 671.023 308.955 670.765 308.783 670.471L308.777 670.524ZM124.339 592.404C124.147 592.549 123.946 592.681 123.737 592.799C123.784 592.799 124.225 592.391 123.917 592.672L123.69 592.873C123.503 593.047 123.335 593.241 123.161 593.421C122.988 593.602 122.941 593.789 123.282 593.254C123.202 593.381 123.101 593.501 123.021 593.628C122.941 593.755 122.767 594.07 122.646 594.297C122.526 594.525 122.546 594.692 122.727 594.09C122.727 594.184 122.653 594.277 122.626 594.371C122.583 594.611 122.523 594.848 122.446 595.08C122.446 595.033 122.486 594.411 122.486 594.819C122.486 594.959 122.486 595.107 122.486 595.247C122.486 595.648 122.486 595.033 122.439 594.979C122.48 595.092 122.507 595.208 122.519 595.327C122.58 595.648 122.76 595.521 122.432 595.18C122.485 595.263 122.529 595.35 122.566 595.441C122.628 595.52 122.682 595.605 122.727 595.695C122.673 595.361 122.345 595.267 122.606 595.535C122.767 595.702 122.981 595.862 123.128 596.036C122.807 595.648 122.72 595.742 122.921 595.876L123.202 596.063C123.376 596.17 123.556 596.27 123.737 596.364L123.984 596.484C124.433 596.712 123.489 596.304 123.817 596.417C124.145 596.531 124.312 596.605 124.56 596.685C126.232 597.233 127.985 597.441 129.664 597.949C131.721 598.684 133.685 599.656 135.517 600.845C136.039 601.146 136.561 601.447 137.096 601.728L137.825 602.089L138.119 602.223C138.608 602.457 137.618 602.036 138.119 602.223C138.661 602.437 139.218 602.611 139.785 602.745L140.093 602.805C140.621 602.925 139.524 602.765 140.026 602.805C140.347 602.805 140.695 602.845 140.989 602.845C141.678 602.845 142.339 603.119 142.827 603.606C143.314 604.093 143.588 604.754 143.588 605.443C143.588 606.132 143.314 606.793 142.827 607.281C142.339 607.768 141.678 608.042 140.989 608.042C138.313 608.075 135.898 607.032 133.631 605.754C132.627 605.186 131.624 604.577 130.64 604.022C130.172 603.761 129.697 603.514 129.209 603.293C129.11 603.257 129.014 603.215 128.921 603.166C129.476 603.527 129.182 603.273 128.961 603.166C128.741 603.059 128.419 602.972 128.139 602.892C126.279 602.357 124.339 602.149 122.533 601.434C121.293 600.999 120.155 600.316 119.188 599.427C118.088 598.352 117.426 596.908 117.328 595.374C117.114 592.358 119.241 589.355 121.757 587.923C122.352 587.576 123.061 587.479 123.728 587.654C124.395 587.829 124.964 588.261 125.312 588.856C125.66 589.451 125.757 590.16 125.582 590.827C125.407 591.494 124.974 592.063 124.379 592.411L124.339 592.404ZM112.826 780.3C105.187 782.079 97.1459 780.233 91.4865 774.661C86.3958 769.645 82.7901 762.99 79.8935 756.523C76.5019 748.905 74.5887 741.139 73.3912 732.873C72.7223 728.398 72.2741 723.87 71.3844 719.443C70.5107 715.503 69.3206 711.64 67.8256 707.892C62.6011 694.308 54.4465 679.687 59.1827 664.786C62.2866 655.014 71.1034 642.634 82.7767 643.724C90.5566 644.453 95.2728 650.994 98.7513 657.308C103.434 665.836 107.167 674.918 110.518 684.061C111.595 686.997 107.354 688.315 105.769 686.068C104.183 683.82 100.792 682.951 98.2964 682.543C95.9952 682.169 92.423 681.948 90.6102 683.76C88.6033 685.767 87.7203 689.205 87.2052 691.853C86.6129 695.195 86.5429 698.609 86.9978 701.973C87.869 709.092 90.4036 715.906 94.3964 721.864C96.1245 724.509 98.2787 726.851 100.772 728.793C103.106 730.545 107.521 733.08 110.344 731.013C113.656 728.586 109.575 723.415 107.669 721.503C104.658 718.466 101.053 716.058 99.0457 712.139C97.0388 708.22 97.3398 703.986 100.31 700.769C103.073 697.752 107.227 696.542 109.876 693.412C115.776 686.389 114.024 676.182 111.214 668.317C109.448 663.428 107.2 658.726 105.3 653.89C103.338 648.883 101.628 643.789 100.17 638.607C94.3764 618.074 92.5836 596.471 94.2091 575.222C95.8347 553.973 99.3066 532.651 105.354 512.292C116.78 473.854 138.688 439.937 163.172 408.623C174.624 393.968 188.773 381.334 203.436 369.964C216.675 359.697 230.636 350.996 246.049 344.395C246.932 344.02 247.815 343.652 248.684 343.238C248.979 343.097 249.266 342.937 249.561 342.803C249.855 342.669 250.39 342.174 249.674 342.803C252.183 340.649 255.775 344.14 253.347 346.475C250.919 348.809 247.788 350.528 244.818 352.16C240.563 354.494 236.268 356.748 232.108 359.249C222.515 365.008 213.664 371.957 205.175 379.254C187.783 394.176 171.46 411.024 159.158 430.48C147.639 448.706 139.022 468.684 132.353 489.15C128.033 502.096 124.626 515.329 122.158 528.752C120.459 538.396 118.947 548.148 118.144 557.913C117.161 569.644 117.081 581.991 121.583 593.08C122.84 596.177 117.817 597.521 116.572 594.458C112.559 584.526 112.064 573.416 112.612 562.835C113.161 552.254 114.873 541.734 116.526 531.26C118.58 518.829 121.485 506.554 125.222 494.521C131.356 474.262 139.31 454.391 149.799 435.978C161.459 415.518 176.999 397.747 194.345 381.909C203.543 373.509 213.243 365.429 223.599 358.5C228.803 355.016 234.262 351.972 239.767 348.996C243.112 347.184 246.905 345.491 249.668 342.809L253.34 346.481C252.083 347.558 250.484 348.127 248.979 348.769C246.049 350.026 243.119 351.297 240.242 352.675C231.556 356.898 223.248 361.859 215.41 367.503C199.563 378.666 184.471 391.581 171.708 406.295C165.085 413.913 159.104 422.16 153.224 430.373C147.344 438.586 141.618 447.127 136.38 455.869C125.57 473.847 116.472 493.069 110.451 513.235C104.112 534.705 100.295 556.841 99.0792 579.195C97.8215 601.661 100.471 624.294 107.776 645.623C111.227 655.743 117.047 665.461 118.619 676.129C119.884 684.723 117.837 694.355 110.545 699.779C107.755 701.852 102.023 703.792 103.019 708.179C104.016 712.567 108.899 715.209 111.776 718.285C114.652 721.362 117.128 725.409 116.619 729.656C116.071 734.07 112.171 736.866 107.863 736.859C100.504 736.859 94.4834 730.886 90.4697 725.322C86.0674 719.035 83.1803 711.815 82.0342 704.227C80.9504 697.144 81.2314 689.512 84.7501 683.085C86.369 680.142 88.6033 678.156 91.9548 677.473C95.4018 676.832 98.9545 677.062 102.29 678.142C105.394 679.119 108.311 680.704 110.184 683.406L105.434 685.412C102.791 678.055 99.7263 670.855 96.2562 663.849C93.6539 658.692 90.6703 651.85 84.9174 649.516C75.6122 645.737 67.3239 657.362 64.6213 664.685C59.8516 677.594 66.3004 690.649 71.1703 702.534C74.1209 709.473 76.1928 716.753 77.3381 724.205C78.4686 732.03 79.3048 739.969 81.8469 747.5C84.1916 754.692 87.6668 761.466 92.1421 767.565C96.8248 773.765 103.581 777.096 111.401 775.277C114.652 774.521 116.044 779.53 112.779 780.286L112.826 780.3ZM415.622 882.297C404.396 884.703 392.743 884.224 381.753 880.906C379.177 880.116 376.609 878.946 373.919 878.611C371.23 878.277 369.384 879.401 367.317 880.966C363.484 883.939 358.954 885.884 354.158 886.617C349.38 887.361 344.492 886.901 339.936 885.28C337.555 884.322 335.269 883.145 333.106 881.762C330.969 880.359 328.424 879.709 325.875 879.916C323.199 880.143 320.637 881.073 318.129 881.922C315.453 882.857 312.717 883.612 309.941 884.183C304.235 885.165 298.45 885.613 292.661 885.52C280.848 885.52 266.78 885.788 259.214 874.98L264.057 873.642C264.164 877.655 266.485 880.819 268.92 883.728C272.074 887.482 275.423 891.068 278.955 894.469C286.547 901.827 294.715 908.675 303.806 914.1C320.022 923.784 339.482 929.175 358.393 926.533C377.304 923.891 392.978 912.936 406.21 899.854C409.82 896.361 413.063 892.509 415.89 888.356C417.97 885.233 419.796 881.962 421.649 878.705C425.081 872.685 427.596 864.82 433.871 861.075C437.062 859.168 442.307 858.573 444.755 861.951C448.247 866.773 442.708 870.806 439.029 873.1C430.506 878.404 419.783 880.885 409.829 880.952C404.037 880.993 398.247 880.731 392.483 880.17C386.83 879.621 381.204 878.431 375.518 878.25C372.944 878.12 370.367 878.42 367.892 879.14C365.477 879.882 363.176 880.939 360.835 881.895C355.904 884.046 350.471 884.776 345.148 884.002C339.99 883.206 335.662 880.023 330.484 879.394C325.173 878.725 319.814 879.889 314.677 881.12C303.973 883.674 293.23 886.37 282.186 884.778C277.249 884.123 272.505 882.442 268.258 879.842C264.057 877.167 261.006 873.194 256.959 870.378C255.434 869.315 253.949 867.783 252.216 867.067C251.26 866.673 251.193 866.86 251.547 867.736C252.792 870.86 257.775 871.575 260.518 870.171C261.187 869.843 261.528 869.054 261.996 868.525C262.57 867.928 263.202 867.39 263.883 866.92C265.481 865.766 267.141 864.699 268.853 863.723C273.576 860.934 278.406 858.319 283.169 855.61C291.451 850.928 299.645 845.872 308.422 842.113C317.747 838.1 328.865 835.298 338.565 839.652C341.957 841.177 346.178 844.253 349.937 842.2C352.861 840.602 355.336 837.084 354.466 833.78C353.49 830.074 351.068 826.911 349.998 823.225C348.88 819.386 349.717 815.748 353.102 813.454C356.159 811.387 359.925 810.598 362.942 808.471C365.959 806.344 368.073 803.241 370.856 800.913C373.957 798.353 377.82 796.895 381.84 796.766C385.339 796.566 388.891 796.934 392.363 796.385C395.834 795.837 398.871 794.318 399.52 790.573C400.316 785.991 397.707 781.209 396.483 776.915C395.721 774.24 395.145 771.565 394.624 768.823C394.129 766.221 393.908 763.405 393.112 760.883C392.713 759.867 392.013 758.996 391.105 758.389C390.724 758.104 390.293 757.896 389.834 757.773C389.754 757.773 389.279 757.606 389.627 757.713C389.974 757.82 389.627 757.673 389.546 757.713H389.446C389.241 757.713 389.314 757.713 389.667 757.713C389.78 757.633 390.075 757.472 389.8 757.66C389.961 757.553 390.469 756.991 390.336 757.071C390.202 757.151 390.302 756.844 390.336 757.071C390.336 757.205 390.336 757.352 390.336 757.479C390.53 758.155 390.792 758.809 391.118 759.432C392.113 761.1 393.314 762.637 394.691 764.007C397.574 767.063 400.872 769.799 403.313 773.25C409.334 781.731 412.739 799.656 400.597 804.605C396.974 806.051 392.937 806.063 389.305 804.638C385.74 803.254 382.081 800.411 378.114 800.512C374.836 800.592 372.943 803.923 371.357 806.351C369.13 809.755 366.675 812.698 363.049 814.691C358.951 816.873 354.349 817.936 349.709 817.773C345.069 817.61 340.553 816.226 336.618 813.761C332.703 811.291 329.195 808.229 326.216 804.685C325.046 803.455 323.387 801.555 321.534 801.656C319.868 801.742 318.289 803.047 316.898 803.856C312.884 806.204 308.562 806.698 304.388 804.378C302.456 803.276 300.793 801.757 299.52 799.933C298.247 798.109 297.397 796.024 297.03 793.83C295.377 783.751 301.712 774.32 307.485 766.655C310.482 762.642 313.593 758.743 316.336 754.563C319.243 750.132 321.581 745.352 323.293 740.337C326.81 730.257 329.313 719.852 330.765 709.276C332.225 698.733 332.301 688.043 330.993 677.48C329.561 666.585 326.096 656.077 322.296 645.831C321.333 643.229 320.343 640.641 319.353 638.046C318.363 635.451 317.031 632.802 316.483 630.1C315.988 627.639 316.356 625.03 318.329 623.298C319.197 622.523 320.308 622.073 321.471 622.027C322.634 621.981 323.777 622.34 324.704 623.044C328.183 625.719 328.103 631.364 328.096 635.303C328.064 642.071 326.643 648.76 323.92 654.957C321.198 661.153 317.232 666.725 312.268 671.327C309.807 673.581 306.121 669.915 308.596 667.655C315.193 661.583 319.792 653.654 321.788 644.914C322.797 640.548 323.122 636.051 322.751 631.585C322.671 630.622 322.664 627.612 321.547 627.124C321.908 627.284 321.594 627.124 321.493 627.618C321.253 628.762 321.835 629.993 322.229 631.05C326.103 641.517 330.391 651.844 333.28 662.652C336.041 673.057 337.32 683.8 337.08 694.562C336.81 705.286 335.377 715.95 332.805 726.365C330.297 736.725 327.18 747.253 321.433 756.302C316.289 764.368 309.452 771.364 305.064 779.918C302.87 784.192 301.084 789.362 302.462 794.171C303.425 797.515 306.696 800.86 310.395 800.786C312.255 800.786 313.854 799.649 315.399 798.726C317.205 797.643 319.072 796.659 321.206 796.485C325.942 796.084 329.233 800.271 332.13 803.374C335.127 806.618 339.074 809.722 343.221 811.32C347.186 812.772 351.492 813.018 355.597 812.029C359.37 811.146 362.955 809.274 365.33 806.123C367.477 803.261 369.049 799.917 371.906 797.649C375.384 794.887 379.739 794.84 383.76 796.419C387.372 797.836 390.991 800.612 395.012 800.532C397.855 800.472 400.189 799.569 401.768 797.535C401.547 797.816 401.975 797.201 402.036 797.114C402.196 796.853 402.343 796.592 402.484 796.325C402.732 795.858 402.918 795.361 403.039 794.847C403.403 793.68 403.584 792.464 403.574 791.242C403.671 785.802 402.064 780.467 398.978 775.986C396.671 772.708 393.353 770.14 390.643 767.204C388.128 764.468 385.124 760.91 385.205 756.951C385.278 753.332 388.75 751.848 391.854 752.938C393.476 753.531 394.922 754.523 396.061 755.821C397.199 757.12 397.993 758.683 398.37 760.368C399.5 765.806 400.229 771.304 401.862 776.621C403.273 781.229 405.347 785.851 404.745 790.787C404.513 792.921 403.695 794.949 402.382 796.648C401.07 798.346 399.313 799.649 397.306 800.411C393.794 801.829 389.834 801.87 386.101 801.883C382.636 801.883 379.037 801.756 375.96 803.602C372.883 805.448 370.815 808.397 368.28 810.738C365.303 813.48 361.865 814.818 358.246 816.537C357.478 816.891 356.732 817.291 356.012 817.734C355.622 817.978 355.272 818.28 354.975 818.63C354.433 819.721 354.767 821.092 355.189 822.349C356.393 825.961 358.821 829.124 359.617 832.89C360.52 837.15 358.701 841.371 355.65 844.354C352.265 847.664 347.85 848.888 343.315 847.397C338.926 845.959 335.24 843.163 330.538 842.769C319.982 841.886 309.994 846.688 300.943 851.55C292.401 856.145 284.019 861.075 275.57 865.843C273.469 867.034 271.369 868.224 269.322 869.509C267.991 870.222 266.77 871.123 265.696 872.184C264.953 873.02 264.425 873.916 263.435 874.511C262.466 875.049 261.415 875.421 260.324 875.615C258.113 876.08 255.824 876.03 253.635 875.468C249.835 874.445 246.029 871.034 246.216 866.773C246.261 865.677 246.645 864.623 247.315 863.755C247.985 862.886 248.907 862.247 249.955 861.924C252.029 861.295 254.143 862.024 255.896 863.155C259.611 865.671 263.094 868.514 266.305 871.649C269.791 874.995 274.048 877.43 278.7 878.738C289.089 881.621 299.92 879.407 310.141 876.879C315.346 875.602 320.597 874.277 325.975 874.05C328.71 873.916 331.45 874.161 334.117 874.779C336.705 875.401 339 876.645 341.475 877.635C346.227 879.521 351.492 879.675 356.346 878.07C361.283 876.444 365.785 873.802 371.03 873.214C376.569 872.585 382.101 873.702 387.579 874.404C393.226 875.129 398.906 875.562 404.598 875.702C409.949 875.836 415.227 875.796 420.492 874.645C425.359 873.651 430.069 872.002 434.493 869.743C436.559 868.696 438.472 867.373 440.179 865.81C440.581 865.429 441.009 865.141 440.527 864.84C440.032 864.682 439.505 864.652 438.995 864.753C436.092 865.041 434.005 867.562 432.406 869.963C430.353 873.047 428.794 876.418 427.055 879.695C425.529 882.618 423.85 885.487 422.124 888.289C417.134 896.402 410.645 903.231 403.487 909.458C396.329 915.685 388.703 921.39 380.074 925.41C362.126 933.77 341.789 934.178 323.012 928.339C303.325 922.219 286.467 909.705 272.225 895.051C269.186 891.977 266.316 888.739 263.629 885.353C260.953 881.909 259.006 878.083 258.886 873.629C258.812 870.88 262.338 870.331 263.729 872.291C269.75 880.919 282.286 880.237 291.551 880.257C297.143 880.257 302.796 880.21 308.308 879.193C313.66 878.21 318.59 875.769 323.935 874.946C326.576 874.448 329.299 874.599 331.869 875.388C334.398 876.257 336.511 877.849 338.839 879.106C342.758 881.133 347.163 882.027 351.562 881.688C355.96 881.348 360.177 879.79 363.738 877.187C365.785 875.682 367.752 874.077 370.3 873.568C372.994 873.14 375.751 873.384 378.328 874.277C384.168 876.043 389.774 877.842 395.901 878.364C402.048 878.897 408.24 878.523 414.277 877.254C417.542 876.585 418.96 881.574 415.656 882.263L415.622 882.297ZM414.244 877.454C416.251 876.872 418.204 876.264 420.138 875.521C420.258 875.475 420.606 875.341 420.051 875.562L420.405 875.408L421.074 875.087C421.52 874.864 421.966 874.625 422.412 874.371C422.813 874.144 423.201 873.903 423.583 873.642L424.125 873.261C424.205 873.201 424.506 872.98 424.191 873.214C423.877 873.448 424.285 873.134 424.319 873.1C425.005 872.531 425.636 871.9 426.205 871.214C426.272 871.127 426.339 871.034 426.412 870.953C426.372 871 426.058 871.442 426.305 871.08C426.412 870.92 426.526 870.766 426.633 870.605C426.881 870.214 427.104 869.807 427.302 869.388C427.342 869.287 427.389 869.189 427.443 869.094C427.443 869.094 427.242 869.602 427.342 869.335C427.443 869.067 427.496 868.927 427.563 868.719C427.704 868.281 427.815 867.834 427.897 867.382C427.958 867.067 427.79 867.342 427.897 867.549C427.885 867.458 427.885 867.366 427.897 867.275C427.897 867.154 427.897 867.027 427.897 866.907C427.931 866.559 428.025 867.395 427.897 867.061C427.897 866.947 427.831 866.827 427.804 866.713C427.744 866.439 427.864 866.927 427.891 866.934C427.918 866.94 427.71 866.659 427.717 866.653C427.94 866.934 427.987 867 427.857 866.853L427.683 866.673C426.962 865.979 426.201 865.329 425.402 864.726L425.175 864.546C424.887 864.318 425.536 864.82 425.242 864.599L424.62 864.131C424.205 863.824 423.786 863.523 423.362 863.228C421.663 862.044 419.903 860.954 418.104 859.931C414.632 857.924 411.026 856.226 407.441 854.453C403.855 852.681 400.336 850.969 396.738 849.37L395.339 848.761L394.724 848.501L394.59 848.447L394.369 848.353C393.428 847.961 392.481 847.58 391.526 847.21C389.626 846.474 387.713 845.792 385.773 845.203C383.833 844.615 381.934 844.06 379.973 843.611C379.01 843.393 378.045 843.197 377.077 843.023L375.739 842.802L375.103 842.708C375.866 842.836 374.91 842.708 374.709 842.668C372.835 842.45 370.949 842.356 369.063 842.387C368.648 842.387 368.233 842.387 367.819 842.441L367.337 842.494C368.2 842.434 367.504 842.494 367.27 842.494C366.525 842.635 365.79 842.822 365.069 843.056C364.327 843.297 363.597 843.571 362.875 843.866C362.293 844.106 363.39 843.645 362.808 843.866L362.326 844.073L361.156 844.595C359.524 845.337 357.898 846.093 356.232 846.755C352.989 848.172 349.411 848.647 345.91 848.126C345.068 847.974 344.243 847.736 343.449 847.417C342.806 847.217 342.256 846.795 341.897 846.227C341.55 845.618 341.457 844.897 341.636 844.22C342.03 843.003 343.482 841.872 344.833 842.408C345.653 842.737 346.505 842.979 347.375 843.13C348.044 843.237 346.8 843.076 347.442 843.13L348.044 843.177C348.465 843.198 348.887 843.198 349.309 843.177L349.897 843.137C350.131 843.137 350.733 842.963 349.937 843.137C350.345 843.043 350.76 843.003 351.168 842.909C351.965 842.731 352.751 842.508 353.523 842.24C353.904 842.107 354.279 841.966 354.654 841.826L355.215 841.598L355.496 841.485L355.363 841.538C356.132 841.21 356.888 840.869 357.65 840.515C359.283 839.766 360.915 839.017 362.601 838.395C364.241 837.777 365.954 837.375 367.698 837.197C369.59 837.052 371.491 837.079 373.378 837.278C377.57 837.657 381.712 838.464 385.74 839.685C393.881 842.107 401.621 845.752 409.22 849.497C416.82 853.243 424.533 856.854 430.914 862.513C431.904 863.312 432.608 864.41 432.921 865.643C433.148 866.937 433.077 868.266 432.714 869.529C432.124 871.603 431.064 873.514 429.617 875.113C426.74 878.458 422.573 880.237 418.479 881.541C417.495 881.855 416.472 882.143 415.508 882.43C415.179 882.521 414.836 882.546 414.497 882.503C414.159 882.461 413.832 882.353 413.535 882.184C413.238 882.015 412.978 881.79 412.769 881.521C412.559 881.251 412.405 880.944 412.314 880.615C412.224 880.286 412.199 879.942 412.241 879.604C412.283 879.265 412.392 878.938 412.561 878.642C412.729 878.345 412.955 878.085 413.224 877.875C413.493 877.666 413.801 877.511 414.13 877.421L414.244 877.454ZM112.03 775.658C114.82 769.638 123.67 756.188 131.624 762.95C137.698 768.1 134.393 777.745 127.389 779.838C108.906 785.356 88.9645 755.827 108.719 744.965C117.335 740.23 125.349 746.771 129.383 754.175C135.33 765.097 138.942 777.852 142.762 789.623C146.849 802.197 150.421 814.925 153.331 827.834C155.827 838.93 158.014 850.126 161.426 860.994C169.119 885.48 185.99 905.298 203.296 923.744C221.511 943.14 241.674 960.697 261.936 977.92C280.667 993.845 301.224 1008.76 324.898 1016.28C336.612 1020 348.887 1021.94 361.162 1020.58C373.237 1019.25 384.89 1015.01 395.634 1009.46C416.458 998.68 434.714 983.197 451.692 967.198C468.67 951.2 484.538 933.89 497.522 914.541C510.754 894.831 519.303 874.017 521.183 850.226C523.19 825.239 517.778 800.358 506.466 777.992C486.003 737.608 448.013 709.53 415.575 679.346C397.025 662.083 379.197 643.898 361.718 625.532C343.81 606.724 326.598 587.208 311.158 566.307C296.474 546.429 283.289 525.28 273.87 502.373C263.913 478.383 259.436 452.474 260.766 426.534C262.177 399.185 268.385 371.69 276.004 345.451C278.011 338.602 282.855 328.356 291.544 329.486C299.933 330.576 301.632 341.024 297.679 347.224C293.498 353.778 283.891 356.674 276.54 356.48L278.781 355.196C255.367 404.208 262.525 463.066 285.283 510.907C308.783 560.314 346.713 600.798 384.837 639.263C422.767 677.527 462.228 715.269 491.201 761.104C503.964 781.303 514.781 803.16 521.698 826.075C524.655 835.86 528.181 847.303 526.682 857.63C525.418 866.325 520.869 874.351 516.367 881.782C504.948 900.569 490.946 918.715 488.09 941.187C485.615 960.49 491.803 980.649 509.497 990.614C514.559 993.359 520.008 995.321 525.659 996.433L524.281 1001.44C520.541 1000.24 519.089 996.547 518.173 993.022C516.567 986.849 516.213 980.167 515.878 973.826C515.21 960.898 519.33 948.525 525.311 937.208C538.636 911.959 558.518 890.39 577.844 869.656C616.175 828.549 654.954 786.56 686.884 740.17C702.718 717.142 716.672 692.683 726.767 666.598C737.653 638.113 745.108 608.433 748.976 578.185C757.003 517.214 752.113 454.859 738.567 395.025C732.339 367.496 724.184 340.729 711.923 315.247C700.307 291.264 686.151 268.597 669.698 247.635C637.1 205.913 596.467 168.652 548.905 144.835C500.513 120.59 445.364 109.962 391.6 117.854C346.639 124.456 299.953 134.99 260.552 158.472C250.919 164.104 241.944 170.791 233.793 178.41C229.963 182.04 226.387 185.928 223.09 190.048C222.575 190.717 219.705 194.917 219.953 192.723C219.993 192.991 220.07 193.252 220.18 193.499C222.475 203.05 225.793 212.467 228.616 221.871C239.172 257.072 249.781 292.286 261.622 327.078C263.803 333.479 266.03 339.867 268.432 346.187C269.409 348.762 265.843 350.34 264.09 348.715C262.083 346.883 261.174 343.365 260.184 340.997C257.929 335.559 255.876 330.035 253.829 324.51C247.708 307.977 241.861 291.336 235.994 274.709C230.02 257.787 224.087 240.853 217.932 223.985C215.718 217.898 213.497 211.812 211.129 205.786C210.152 203.298 209.236 199.285 207.35 197.258C208.018 197.98 205.182 196.489 204.533 196.315C201.923 195.728 199.244 195.503 196.573 195.646C190.538 195.865 184.531 196.574 178.611 197.766C165.841 200.087 152.977 202.328 140.601 206.307C110.371 216.019 84.3354 235.923 62.9021 258.965C41.4688 282.006 24.8318 309.301 15.5266 339.566C5.92041 370.827 2.42181 404.375 7.90723 436.747C10.598 452.868 15.5998 468.517 22.7581 483.211C30.2036 498.373 39.8164 512.332 49.4694 526.15C68.1266 552.856 87.9076 580.78 92.5769 613.867C93.7059 621.71 93.8295 629.664 92.9448 637.537C92.5702 640.821 87.3724 640.881 87.747 637.537C91.8411 601.695 72.9765 569.316 53.4096 540.878C34.1638 512.94 14.4764 485.826 5.95392 452.424C-9.82001 390.611 6.5827 321.594 45.3888 271.552C64.2734 247.193 88.4896 224.794 116.124 210.735C130.841 203.231 146.776 198.308 163.038 195.405C173.801 193.486 184.531 190.811 195.502 190.429C200.914 190.242 209.376 190.135 212.427 195.586C214.434 199.224 215.772 203.391 217.284 207.27C223.103 222.446 228.462 237.809 233.88 253.132C240.296 271.278 246.657 289.437 253.173 307.549C257.407 319.32 261.2 331.56 266.632 342.87C266.956 343.416 267.242 343.984 267.489 344.568C267.696 345.237 267.95 345.184 267.756 345.003L263.415 347.531C250.778 314.29 240.797 279.939 230.462 245.929C226.136 231.705 221.861 217.463 217.638 203.204C216.789 200.341 215.564 197.352 215.043 194.409C214.594 191.874 216.441 190.202 217.932 188.249C221.036 184.207 224.404 180.376 228.014 176.778C260.364 144.527 307.526 129.425 351.101 119.928C374.394 114.824 398.296 110.564 422.185 110.056C448.763 109.595 475.26 113.118 500.794 120.509C552.805 135.418 597.953 164.94 636.331 202.595C674.213 239.756 705.728 284.012 725.569 333.392C736.44 360.44 743.243 389.073 748.521 417.665C754.242 448.273 757.393 479.306 757.94 510.439C758.836 569.704 749.431 630.207 724.847 684.463C701.54 735.909 664.895 780.046 627.848 822.095C608.776 843.732 589.049 864.767 569.743 886.156C559.605 897.215 550.172 908.901 541.499 921.143C533.425 932.7 525.652 945.08 522.401 958.965C520.789 965.847 520.942 972.542 521.511 979.532C521.759 982.575 521.718 995.169 525.692 996.453C528.883 997.483 527.585 1002.16 524.314 1001.46C504.627 997.236 488.772 984.314 484.003 964.289C479.059 943.555 485.809 922.674 496.044 904.676C501.462 895.138 507.818 886.176 513.37 876.712C517.798 869.167 522.341 860.66 521.792 851.651C521.003 838.622 516.44 825.372 511.818 813.273C507.71 802.594 502.919 792.19 497.475 782.126C470.684 732.378 430.159 692.121 390.637 652.466C351.857 613.593 312.476 573.61 286.387 524.719C261.508 478.027 250.196 421.217 267.241 369.911C269.219 364.003 271.563 358.224 274.258 352.608C274.484 352.214 274.81 351.887 275.204 351.661C275.598 351.435 276.045 351.319 276.499 351.324C280.495 351.396 284.446 350.477 287.999 348.648C292.093 346.642 297.117 341.104 293.611 336.322C289.644 330.918 284.393 338.562 282.801 341.866C280.292 347.077 279.309 353.089 277.878 358.654C271.442 383.682 265.836 409.225 265.669 435.175C265.301 484.274 288.815 527.989 317.573 566.32C346.111 604.356 380.254 638.668 414.659 671.387C444.307 699.585 477.922 724.72 501.155 758.904C524.883 793.817 534.355 840.067 520.628 880.705C514.139 899.914 502.827 917.23 490.331 933.041C477.527 949.247 463.031 964.122 447.665 977.9C416.853 1005.53 378.876 1033.11 335.194 1024.3C313.647 1019.96 294.033 1009.05 276.493 996.119C257.822 982.354 240.369 966.583 223.358 950.832C205.636 934.552 189.358 916.768 174.705 897.68C161.386 880.196 155.238 860.553 150.555 839.351C145.324 815.681 138.882 792.533 130.313 769.792C127.784 763.104 121.824 743.039 110.806 749.727C98.5306 757.185 110.211 772.561 120.131 774.802C122.954 775.471 127.222 775.578 128.955 772.655C129.798 771.23 129.757 768.595 128.647 767.304C124.8 762.917 117.636 775.772 116.499 778.233C115.094 781.263 110.612 778.628 112.01 775.611L112.03 775.658Z" fill="#665346"/>
</g>
<g clip-path="url(#clip1_1204:9458)">
<path opacity="0.1" d="M207.175 149.569C202.509 57.5433 291.859 6.79598 371.819 8.0217C473.351 9.60411 584.682 56.0646 665.375 115.522C763.934 188.157 840.682 310.424 851.351 433.456C855.601 482.381 838.313 534.062 802.133 567.935C736.132 629.733 635.49 617.534 557.957 585.886C380.243 516.779 217.15 346.313 207.175 149.569Z" fill="#C28566"/>
</g>
<defs>
<clipPath id="clip0_1204:9458">
<rect width="758" height="894" fill="white" transform="matrix(-1 0 0 1 758 0)"/>
</clipPath>
<clipPath id="clip1_1204:9458">
<rect width="663" height="594" fill="white" transform="matrix(-1 0 0 1 852 0)"/>
</clipPath>
</defs>
</svg>
