<svg width="279" height="623" viewBox="0 0 279 623" fill="none" xmlns="http://www.w3.org/2000/svg">
<g clip-path="url(#clip0_1285:9461)">
<path opacity="0.4" d="M-90.2366 336.108C-19.7405 396.972 90.6427 313.92 117.599 244.069C136.879 194.079 136.089 123.089 80.4863 97.7232C-21.6917 51.0659 -178.58 259.835 -90.2366 336.108Z" fill="#C28566"/>
</g>
<g opacity="0.2" clip-path="url(#clip1_1285:9461)">
<path d="M-189.265 451.046C-185.005 455.556 -180.448 459.901 -175.783 464.148C-156.704 481.505 -137.323 498.608 -117.037 514.618C-98.9702 528.901 -74.7496 550.688 -50.4207 554.92C-50.7193 554.867 -51.0137 554.793 -51.3018 554.699C-33.1505 560.593 -15.1453 562.17 6.95948 550.443C56.3478 524.255 57.9971 466.991 70.7718 422.283C70.3194 423.818 69.9047 425.362 69.4759 426.901C76.4499 401.856 97.7018 381.887 117.79 365.452C116.89 366.192 115.995 366.954 115.094 367.703C133.015 352.747 153.263 339.928 167.173 320.692C185.202 295.836 171.725 263.918 163.79 241.708C147.811 197.009 109.958 133.988 54.8635 132.303C19.2583 131.22 -12.563 156.561 -39.8701 180.725C-77.1649 213.594 -112.709 248.393 -146.356 284.98C-169.86 310.646 -199.608 338.878 -210.606 371.662C-222.142 405.962 -208.896 430.248 -189.265 451.046ZM85.3277 394.343L88.7628 390.243L84.668 395.219L85.3277 394.343Z" fill="#DF936D"/>
</g>
<defs>
<clipPath id="clip0_1285:9461">
<rect width="290" height="315" fill="white" transform="matrix(1 0 0 -1 -161 406)"/>
</clipPath>
<clipPath id="clip1_1285:9461">
<rect width="486" height="623" fill="white" transform="matrix(1 0 0 -1 -207 623)"/>
</clipPath>
</defs>
</svg>
