<svg width="632" height="561" viewBox="0 0 632 561" fill="none" xmlns="http://www.w3.org/2000/svg">
<path d="M341.794 346.955C333.971 343.134 326.074 339.465 318.122 335.914C330.967 328.099 344.038 320.792 358.051 315.247C378.053 307.335 399.56 303.851 420.73 308.247C443.419 312.962 463.584 325.735 481.285 340.486L481.286 340.486C514.457 368.092 542.905 402.252 566.028 438.594C588.619 474.091 606.124 512.875 617.316 553.434L618.28 553.168L617.316 553.435C620.11 563.554 622.465 573.785 624.465 584.099L624.465 584.103C624.863 586.111 626.671 586.873 628.14 586.688C628.88 586.595 629.632 586.26 630.161 585.642C630.711 584.999 630.945 584.133 630.759 583.165L630.624 582.462L630.613 582.461C614.394 499.266 572.226 422.36 513.249 361.75C483.604 331.285 446.989 300.009 401.609 299.897C368.324 299.816 338.691 315.608 311.045 332.789C286.973 322.279 262.455 312.744 238.03 303.245C236.724 302.737 235.418 302.229 234.113 301.721C215.579 294.511 197 287.418 178.423 280.325C157.685 272.407 136.951 264.49 116.284 256.414C116.316 254.2 116.353 251.982 116.39 249.762C116.625 235.74 116.861 221.624 115.798 207.824C114.158 186.507 109.416 165.738 96.7428 146.731C75.0394 114.176 38.691 93.9892 3.2049 80.3431C-42.1387 62.9114 -90.7653 53.4589 -138.702 47.0931C-149.825 45.616 -160.968 44.3336 -172.124 43.2125C-176.081 18.8647 -175.332 -6.00481 -172.77 -31.0318C-171.167 -46.694 -168.857 -62.3927 -166.552 -78.0596C-166.034 -81.5813 -165.516 -85.1014 -165.006 -88.6192C-162.231 -107.772 -159.705 -126.844 -158.752 -145.63C-158.255 -155.419 -158.175 -165.226 -158.595 -175.012C-158.637 -175.984 -159.063 -176.762 -159.748 -177.247C-160.404 -177.71 -161.207 -177.843 -161.937 -177.749C-163.38 -177.563 -164.932 -176.398 -164.845 -174.383C-163.469 -142.316 -168.121 -110.344 -172.784 -78.2964C-173.735 -71.7597 -174.686 -65.2198 -175.587 -58.6752C-180.223 -24.9982 -183.51 8.76347 -178.364 42.6023C-217.167 38.9102 -256.133 37.093 -295.053 35.7472C-307.763 35.3095 -320.476 34.8993 -333.193 34.5165C-335.219 34.4549 -336.407 36.0168 -336.614 37.4705C-336.719 38.206 -336.597 39.0205 -336.131 39.6855C-335.641 40.3822 -334.85 40.8019 -333.867 40.8304C-333.867 40.8304 -333.867 40.8304 -333.867 40.8304L-332.45 40.8733C-280.862 42.4352 -228.838 44.0104 -177.295 48.9667C-176.779 51.7725 -176.201 54.5788 -175.559 57.3856L-175.559 57.3861C-167.89 90.8077 -150.189 119.443 -124.681 142.231C-98.9325 165.23 -68.1011 181.683 -37.4812 196.829L-37.0378 195.933L-37.481 196.829C10.5854 220.595 60.0866 241.147 109.968 260.697C109.729 294.188 113.023 329.709 135.507 356.681L135.508 356.683C147.859 371.413 165.114 381.193 184.102 384.227C204.908 387.615 226.191 383.263 245.568 376.054L245.569 376.053C265.829 368.505 284.051 357.197 302.131 345.855L303.522 344.982C306.203 343.299 308.882 341.618 311.566 339.95C341.931 353.21 371.697 368.099 398.549 387.474C426.925 407.957 451.532 433.435 467.373 464.788C482.107 493.945 489.574 527.555 483.67 559.933C482.228 567.794 480 575.49 477.021 582.907L477.021 582.908C476.66 583.811 476.724 584.695 477.094 585.433C477.453 586.148 478.072 586.673 478.75 586.967C479.427 587.261 480.234 587.353 480.996 587.109C481.787 586.855 482.446 586.262 482.808 585.36L482.853 585.248L482.854 585.237C508.075 522.012 477.94 451.093 431.498 406.625C405.375 381.606 374.084 362.719 341.794 346.955ZM76.5181 132.091C91.1873 146.812 101.75 164.877 106.47 185.143C111.21 205.577 110.704 226.71 110.201 247.717C110.172 248.958 110.142 250.198 110.113 251.437C110.094 252.282 110.076 253.128 110.06 253.976C74.7286 240.101 39.616 225.713 5.0491 210.006C-29.0936 194.492 -63.6806 178.492 -94.7134 157.451C-123.127 138.187 -148.13 113.645 -161.359 81.6255L-162.283 82.0073L-161.359 81.6254C-165.717 71.0787 -168.838 60.3901 -170.976 49.5918C-122.376 54.535 -74.238 62.6114 -27.3315 76.651C10.1873 87.8789 48.596 104.075 76.5181 132.091ZM116.216 272.336C116.184 269.284 116.186 266.216 116.208 263.137C136.032 270.87 155.91 278.46 175.774 286.045C180.635 287.901 185.495 289.756 190.354 291.614L192.006 292.246C228.887 306.343 265.776 320.444 302.097 335.871C302.899 336.213 303.7 336.554 304.502 336.897C302.002 338.48 299.517 340.065 297.046 341.641C294.235 343.435 291.442 345.216 288.665 346.97C270.436 358.475 248.858 369.856 226.651 375.508C204.453 381.159 181.705 381.067 161.034 369.742C126.819 350.994 116.643 308.917 116.216 272.336Z" stroke="#8C7D71" stroke-width="2"/>
</svg>
