<svg width="1920" height="701" viewBox="0 0 1920 701" fill="none" xmlns="http://www.w3.org/2000/svg">
<path opacity="0.5" d="M116.605 299.352C25.4855 279.28 -57.7847 102.389 53.0748 48.3718C66.7682 42.4137 81.4146 39.5826 96.1281 40.0496C110.842 40.5166 125.316 44.272 138.677 51.0888C189.383 76.6504 226.731 141.27 223.696 203.15C221.465 248.617 192.679 287.32 154.989 298.177C142.442 301.788 129.314 302.19 116.605 299.352ZM177.542 701C201.061 699.725 220.398 687.382 232.821 665.058C264.581 610.043 204.196 529.255 144.475 568.135C88.3518 607.869 113.378 699.514 177.542 701ZM1813.52 409.424C1868.34 412.751 1928.92 378.14 1918.9 315.295C1910.2 260.69 1856.39 214.612 1806.28 224.282C1748.99 235.372 1711.66 307.532 1739.94 365.686C1753.48 393.521 1782.58 407.527 1813.52 409.424Z" fill="#F4E8E1"/>
<path opacity="0.6" d="M140.269 259.352C49.1496 239.28 -34.1207 62.3894 76.7387 8.37183C90.4321 2.41375 105.079 -0.417423 119.792 0.0495771C134.506 0.516577 148.981 4.27204 162.341 11.0888C213.047 36.6504 250.395 101.27 247.36 163.15C245.129 208.617 216.343 247.32 178.653 258.177C166.106 261.788 152.978 262.19 140.269 259.352ZM215.768 669C239.287 667.725 258.625 655.382 271.047 633.058C302.808 578.043 242.423 497.255 182.702 536.135C126.578 575.869 151.605 667.514 215.768 669ZM1771.66 377.424C1826.47 380.751 1887.06 346.14 1877.04 283.295C1868.33 228.69 1814.52 182.612 1764.41 192.282C1707.12 203.372 1669.79 275.532 1698.07 333.686C1711.61 361.521 1740.71 375.527 1771.66 377.424Z" fill="#DF936D"/>
</svg>
