<svg width="431" height="778" viewBox="0 0 431 778" fill="none" xmlns="http://www.w3.org/2000/svg">
<path opacity="0.4" d="M-30.6678 358.195C57.3307 282.259 195.119 385.877 228.768 473.025C252.836 535.393 251.849 623.962 182.441 655.608C54.8951 713.818 -140.945 453.354 -30.6678 358.195Z" fill="#C28566"/>
<g opacity="0.2" clip-path="url(#clip0_1284:9456)">
<path d="M-153.849 214.735C-148.529 209.104 -142.838 203.677 -137.011 198.375C-113.181 176.699 -88.9749 155.341 -63.6384 135.347C-41.0739 117.511 -10.8231 90.3035 19.5631 85.0184C19.1901 85.0843 18.8223 85.1766 18.4625 85.2947C41.133 77.9344 63.6209 75.9649 91.2292 90.6092C152.914 123.313 154.974 194.824 170.929 250.655C170.364 248.739 169.846 246.811 169.31 244.888C178.021 276.164 204.564 301.102 229.653 321.625C228.529 320.702 227.411 319.75 226.287 318.815C248.669 337.492 273.958 353.5 291.332 377.521C313.849 408.562 297.017 448.42 287.106 476.157C267.149 531.976 219.872 610.677 151.06 612.781C106.59 614.134 66.8461 582.488 32.7404 552.311C-13.8397 511.266 -58.2332 467.808 -100.257 422.118C-129.613 390.067 -166.768 354.811 -180.504 313.871C-194.912 271.037 -178.368 240.708 -153.849 214.735ZM189.109 285.546L193.399 290.667L188.285 284.453L189.109 285.546Z" fill="#DF936D"/>
</g>
<defs>
<clipPath id="clip0_1284:9456">
<rect width="607" height="778" fill="white" transform="translate(-176)"/>
</clipPath>
</defs>
</svg>
