<svg width="368" height="481" viewBox="0 0 368 481" fill="none" xmlns="http://www.w3.org/2000/svg">
<g clip-path="url(#clip0_641:234)">
<path opacity="0.7" d="M532.969 231.455C532.914 234.556 532.777 237.676 532.559 240.814C530.539 270.055 523.627 298.9 514.808 327.038C501.369 369.975 475.973 405.463 443.334 438.705C372.147 511.276 242.132 477.676 174.977 418.727C105.004 357.294 75.8206 260.33 108.399 176.522C132.751 113.877 190.389 69.1304 261.838 54.2658C372.444 31.2584 494.946 77.4302 526.241 181.203C529.299 191.357 531.323 201.794 532.284 212.354C532.86 218.704 533.089 225.08 532.969 231.455Z" fill="#DF936D"/>
<path opacity="0.7" d="M102.05 70.898C94.1519 31.3738 24.5494 -4.72838 3.29465 43.3396C0.950277 49.2786 -0.163728 55.631 0.020026 62.0124C0.20378 68.3938 1.68147 74.6717 4.36371 80.4662C14.426 102.458 39.8523 118.656 64.2007 117.327C82.0912 116.359 97.3199 103.875 101.592 87.528C103.008 82.0916 103.165 76.404 102.05 70.898ZM193.985 27.8517C193.483 38.052 188.627 46.4389 179.843 51.8268C158.195 65.606 126.407 39.412 141.706 13.5101C157.34 -10.8312 193.4 0.018692 193.985 27.8517ZM148.508 194.222C149.817 217.996 136.199 244.273 111.471 239.927C89.9848 236.152 71.8543 212.813 75.6593 191.079C80.0229 166.232 108.416 150.042 131.299 162.309C142.251 168.18 147.762 180.804 148.508 194.222Z" fill="#F4E8E1"/>
</g>
<defs>
<clipPath id="clip0_641:234">
<rect width="533" height="480" fill="white" transform="matrix(1 0 0 -1 0 480.004)"/>
</clipPath>
</defs>
</svg>
