<svg width="650" height="768" viewBox="0 0 650 768" fill="none" xmlns="http://www.w3.org/2000/svg">
<path d="M313.878 253.089C301.033 260.903 287.962 268.211 273.949 273.755C253.947 281.667 232.44 285.152 211.27 280.756C188.581 276.041 168.416 263.268 150.715 248.517L150.715 248.516C117.543 220.911 89.0952 186.751 65.9724 150.409L65.9723 150.409C43.3812 114.912 25.8759 76.1273 14.684 35.5684L14.6839 35.5682C11.89 25.4492 9.535 15.2181 7.53574 4.90431L7.53575 4.90431L7.53493 4.90019C7.13684 2.89162 5.32944 2.12967 3.86077 2.31447C3.11988 2.40769 2.36801 2.74282 1.83952 3.36074C1.28949 4.00385 1.05523 4.86953 1.24137 5.83822L1.37602 6.53891L1.38653 6.54041C17.6058 89.7358 59.7741 166.642 118.752 227.253C148.397 257.718 185.011 288.994 230.392 289.106C263.677 289.187 293.309 273.394 320.955 256.214C345.027 266.723 369.544 276.258 393.969 285.757C395.275 286.265 396.582 286.773 397.887 287.281C416.422 294.491 435.001 301.585 453.577 308.678C474.315 316.596 495.05 324.513 515.717 332.589C515.685 334.803 515.648 337.021 515.61 339.241C515.376 353.262 515.139 367.379 516.202 381.179C517.843 402.496 522.584 423.265 535.258 442.272C556.961 474.827 593.309 495.014 628.795 508.66C674.139 526.091 722.766 535.544 770.703 541.91C781.826 543.387 792.968 544.669 804.125 545.79C808.081 570.138 807.333 595.008 804.771 620.035C803.168 635.697 800.858 651.395 798.552 667.062C798.034 670.584 797.516 674.104 797.006 677.622C794.231 696.775 791.705 715.847 790.753 734.633C790.255 744.422 790.175 754.229 790.596 764.015C790.637 764.987 791.063 765.765 791.748 766.249C792.405 766.713 793.207 766.846 793.937 766.752C795.381 766.566 796.933 765.401 796.845 763.385C795.47 731.319 800.121 699.347 804.784 667.3C805.735 660.763 806.686 654.223 807.587 647.678C812.223 614.001 815.51 580.239 810.364 546.401C849.167 550.093 888.133 551.91 927.054 553.256C939.763 553.693 952.476 554.104 965.194 554.486C967.219 554.548 968.407 552.986 968.615 551.532C968.719 550.797 968.598 549.982 968.131 549.317C967.642 548.62 966.85 548.201 965.867 548.172L964.45 548.13C912.863 546.568 860.839 544.992 809.296 540.036C808.779 537.23 808.201 534.424 807.559 531.617L807.559 531.617C799.891 498.195 782.19 469.56 756.681 446.772C730.933 423.773 700.101 407.32 669.482 392.174L669.038 393.07L669.481 392.174C621.415 368.408 571.914 347.856 522.032 328.306C522.271 294.815 518.977 259.294 496.494 232.322L496.492 232.32C484.142 217.591 466.888 207.81 447.901 204.776C427.095 201.388 405.81 205.739 386.432 212.949L386.432 212.949C366.172 220.498 347.95 231.805 329.87 243.148C329.406 243.439 328.942 243.73 328.478 244.021C325.797 245.704 323.118 247.385 320.435 249.053C290.069 235.792 260.304 220.904 233.451 201.529C205.075 181.046 180.468 155.568 164.627 124.215L163.735 124.666L164.627 124.215C149.893 95.0578 142.426 61.4466 148.331 29.0689C149.773 21.2084 152 13.5124 154.979 6.09627L154.98 6.09479C155.341 5.19207 155.277 4.30737 154.906 3.56954C154.547 2.85449 153.929 2.3297 153.25 2.0358C152.573 1.7423 151.767 1.64953 151.004 1.89432C150.213 2.14833 149.554 2.74057 149.192 3.64322L149.147 3.75497L149.146 3.76495C123.925 66.9903 154.06 137.91 200.502 182.378C226.625 207.397 257.916 226.284 290.206 242.048C298.029 245.869 305.926 249.538 313.878 253.089ZM329.904 253.132C329.102 252.79 328.3 252.448 327.498 252.105C329.999 250.522 332.484 248.937 334.954 247.361C337.766 245.568 340.559 243.787 343.335 242.033C361.565 230.528 383.142 219.147 405.35 213.494C427.547 207.844 450.295 207.936 470.967 219.261C505.181 238.008 515.357 280.086 515.784 316.667C515.817 319.719 515.815 322.787 515.792 325.866C495.968 318.133 476.091 310.543 456.226 302.958C451.365 301.102 446.505 299.246 441.647 297.389L441.29 298.323L441.647 297.389L439.994 296.757C403.114 282.66 366.224 268.559 329.904 253.132ZM521.887 337.565C521.906 336.721 521.924 335.875 521.941 335.027C557.272 348.901 592.384 363.29 626.951 378.997C661.094 394.51 695.681 410.511 726.714 431.552C755.127 450.816 780.13 475.358 793.359 507.377L794.283 506.996L793.359 507.377C797.718 517.924 800.838 528.613 802.976 539.411C754.376 534.468 706.238 526.391 659.332 512.352C621.813 501.124 583.404 484.928 555.482 456.912C540.813 442.19 530.25 424.125 525.53 403.859C520.79 383.425 521.296 362.293 521.799 341.285C521.829 340.045 521.858 338.805 521.887 337.565Z" stroke="#665346" stroke-width="2"/>
</svg>
