<svg width="830" height="720" viewBox="0 0 830 720" fill="none" xmlns="http://www.w3.org/2000/svg">
<g clip-path="url(#clip0)">
<path d="M80.058 368.36C75.2683 402.348 59.2575 435.591 40.362 466.224C34.1941 476.219 27.3991 486.336 17.9784 492.979C11.1838 497.773 3.50597 500.404 -4.029 502.962C-15.4926 506.863 -27.58 510.811 -38.4299 508.516C-45.3326 507.055 -51.1659 503.16 -56.7442 499.169C-63.1331 494.602 -69.6257 489.491 -72.3523 481.732C-77.1538 468.085 -69.1236 451.326 -62.383 436.432C-48.9563 406.785 -39.694 375.729 -35.0518 344.719C-33.1559 332.061 -31.9918 319.301 -27.9464 306.816C-23.9011 294.332 -16.4565 281.842 -5.43881 274.738C4.38594 268.406 15.9053 267.117 26.103 268.834C69.7956 276.182 86.4521 323.012 80.058 368.36Z" fill="#F4E8E1"/>
<path d="M260.083 781.255C221.123 767.856 186.202 745.18 151.692 722.767C134.76 711.752 117.445 700.384 105.465 684.112C98.0419 674.042 92.9498 662.445 90.5575 650.163C88.1652 637.88 88.5326 625.218 91.6329 613.095C94.7333 600.972 100.489 589.691 108.483 580.069C116.477 570.446 126.51 562.724 137.854 557.462C153.423 550.233 170.82 547.931 187.97 547.204C229.619 545.434 275.69 554.882 301.103 587.936C318.883 611.039 323.625 641.925 340.063 665.98C351.879 683.295 369.448 696.672 378.274 715.688C382.355 724.687 384.301 734.509 383.962 744.386C383.623 754.263 381.007 763.927 376.319 772.625C368.414 787.007 347.765 806.008 329.761 804.958C319.804 804.373 307.412 796.013 297.619 792.811C285.182 788.731 272.475 785.515 260.083 781.255Z" fill="white"/>
<path d="M193.33 571.878C209.208 604.113 225.168 636.514 243.502 667.493C242.104 667.584 240.707 667.655 239.313 667.705C216.422 668.524 194.21 663.615 176.407 648.167C146.942 622.596 145.912 579.318 153.245 543.477C154.747 536.176 156.469 528.827 158.198 521.452C159.344 516.563 160.493 511.662 161.582 506.755C162.831 509.329 164.079 511.904 165.328 514.48C174.005 532.372 182.682 550.266 191.471 568.106C192.091 569.363 192.71 570.62 193.33 571.878ZM176.709 525.824L177.609 525.387C175.337 520.708 173.067 516.027 170.797 511.346C168.434 506.472 166.07 501.598 163.704 496.725C164.792 491.263 165.755 485.8 166.505 480.341C169.418 459.161 169.185 437.858 160.826 416.598C146.513 380.183 115.267 352.754 83.478 331.899L82.9294 332.735L83.4779 331.899C80.8044 330.145 78.1097 328.422 75.3951 326.729C71.4686 319.994 67.4834 313.292 63.4331 306.626L62.5785 307.145L63.433 306.626C45.6901 277.434 26.6265 248.144 1.48273 224.487C-23.431 201.049 -53.4926 185.897 -87.4531 181.154L-87.4536 181.154C-126.868 175.67 -165.106 182.551 -203.08 191.186C-209.522 192.65 -215.955 194.165 -222.385 195.679C-253.908 203.102 -285.355 210.507 -317.421 211.916C-319.436 212.004 -320.462 213.651 -320.522 215.105C-320.553 215.84 -320.351 216.629 -319.832 217.242C-319.29 217.883 -318.479 218.24 -317.506 218.197C-307.721 217.768 -297.957 216.838 -288.249 215.494C-269.615 212.917 -250.835 208.747 -231.994 204.322C-228.534 203.51 -225.072 202.688 -221.608 201.867C-206.2 198.212 -190.761 194.55 -175.297 191.596C-137.422 184.359 -99.5463 181.399 -62.0742 193.2L-61.7738 192.246L-62.0741 193.2C-29.0286 203.603 -2.41165 226.385 19.2427 253.022C36.1889 273.866 50.7151 296.752 64.3629 320.07C28.8247 299.307 -9.67612 283.191 -48.1628 269.337C-97.3902 251.617 -147.925 237.947 -198.56 225.122L-198.56 225.122C-210.888 222.002 -223.226 218.907 -235.573 215.838C-237.54 215.349 -239.032 216.624 -239.543 218.001C-239.801 218.697 -239.855 219.519 -239.539 220.268C-239.209 221.052 -238.524 221.63 -237.569 221.866L-236.194 222.208C-136.798 246.929 -35.7347 272.064 54.4171 321.821L54.9003 320.945L54.4172 321.821C59.9309 324.863 65.44 328.037 70.892 331.358C74.0384 336.854 77.15 342.36 80.2468 347.854C107.869 396.856 132.711 447.303 157.288 497.907C155.843 504.673 154.211 511.415 152.583 518.143C152.291 519.349 152 520.555 151.709 521.76L152.681 521.994L151.709 521.76C143.252 556.852 136.461 595.983 154.227 629.994L154.228 629.997C163.177 647.008 177.968 660.222 195.882 667.21C212.136 673.607 229.837 674.879 247.071 673.455C265.304 703.536 286.487 732.315 313.089 755.655C361.415 798.068 434.679 821.943 495.48 791.337L495.49 791.335L495.598 791.28C496.466 790.842 496.999 790.134 497.183 789.324C497.361 788.543 497.199 787.747 496.848 787.098C496.496 786.448 495.92 785.877 495.176 785.582C494.409 785.277 493.522 785.289 492.654 785.727L492.653 785.728C485.523 789.339 478.049 792.224 470.343 794.343C438.599 803.031 404.467 798.506 374.142 786.354C341.534 773.29 314.019 750.984 291.154 724.491C277.251 708.375 265.09 690.9 253.969 672.742C255.212 672.589 256.451 672.423 257.685 672.246L257.686 672.246C279.085 669.161 299.289 661.971 319.362 654.717L320.907 654.158C340.49 647.079 359.973 640.034 380.498 636.653C401.722 633.158 423.479 634.31 443.237 643.091C464.412 652.507 481.413 669.262 495.587 687.428L495.587 687.429C522.157 721.436 542.721 760.848 557.619 801.264C572.177 840.741 581.067 882.354 583.411 924.364L584.41 924.308L583.411 924.364C583.998 934.845 584.132 945.343 583.901 955.846L583.9 955.85C583.864 957.898 585.469 959.025 586.943 959.156C587.687 959.222 588.493 959.053 589.14 958.562C589.814 958.05 590.227 957.253 590.25 956.267L590.267 955.551L590.257 955.547C592.032 870.805 567.116 786.711 522.319 714.982C499.802 678.928 470.646 640.604 426.319 630.879C388.254 622.53 350.473 636.506 315.286 649.522C312.158 650.679 309.051 651.828 305.966 652.954C288.981 659.144 269.712 664.751 250.428 666.882C243.775 655.721 237.481 644.334 231.385 632.874C212.868 598.027 195.622 562.497 178.381 526.977L177.609 525.387L176.709 525.824ZM162.195 456.199C162.347 466.785 161.156 477.262 159.304 487.67C134.825 437.349 109.926 387.163 82.1981 338.53C106.374 354.521 128.639 373.797 144.163 398.005C155.38 415.5 161.876 435.392 162.195 456.199Z" stroke="#8C7D71" stroke-width="2"/>
</g>
<defs>
<clipPath id="clip0">
<rect width="830" height="720" fill="white" transform="translate(830 720) rotate(-180)"/>
</clipPath>
</defs>
</svg>
