<svg width="805" height="753" viewBox="0 0 805 753" fill="none" xmlns="http://www.w3.org/2000/svg">
<g clip-path="url(#clip0_496:66093)">
<path opacity="0.8" d="M877 212.955C876.927 209.062 876.757 205.145 876.49 201.205C874 164.505 865.3 128.305 854.24 93.0052C837.36 39.1152 805.55 -5.39484 764.63 -47.1448C675.37 -138.245 512.35 -96.0748 428.16 -22.0848C340.42 55.0052 303.83 176.715 344.68 281.895C375.21 360.515 447.48 416.685 537.07 435.335C675.75 464.215 829.34 406.265 868.58 276.005C872.41 263.266 874.946 250.173 876.15 236.925C876.869 228.957 877.153 220.955 877 212.955Z" fill="#D9D0CA"/>
<path opacity="0.7" d="M361.6 105.318C362.956 104.591 364.303 103.827 365.641 103.024C378.103 95.5441 389.272 85.969 399.699 75.7255C415.618 60.089 425.55 40.8868 432.872 18.9757C448.853 -28.825 404.676 -78.5995 363.495 -94.9101C320.585 -111.912 271.184 -102.887 241.537 -69.5868C219.375 -44.6973 212.624 -9.16023 222.188 25.72C236.99 79.7145 285.02 123.331 337.905 113.7C343.076 112.756 348.138 111.292 353.015 109.332C355.947 108.151 358.813 106.811 361.6 105.318Z" fill="#E8CDBF"/>
</g>
<defs>
<clipPath id="clip0_496:66093">
<rect width="872" height="752" fill="white" transform="translate(0 0.0078125)"/>
</clipPath>
</defs>
</svg>
