<svg width="666" height="312" viewBox="0 0 666 312" fill="none" xmlns="http://www.w3.org/2000/svg">
<g clip-path="url(#clip0)">
<mask id="mask0" style="mask-type:alpha" maskUnits="userSpaceOnUse" x="-1254" y="0" width="1920" height="312">
<path d="M-1254 0H666V312H-1254V0Z" fill="#665346"/>
</mask>
<g mask="url(#mask0)">
<path opacity="0.2" d="M696.999 -133.94C696.926 -130.046 696.756 -126.13 696.489 -122.19C693.999 -85.4895 685.299 -49.2895 674.239 -13.9895C657.359 39.9005 625.549 84.4105 584.629 126.16C495.369 217.26 332.349 175.09 248.159 101.1C160.419 24.0105 123.829 -97.6996 164.679 -202.88C195.209 -281.5 267.479 -337.67 357.069 -356.32C495.749 -385.2 649.339 -327.25 688.579 -196.99C692.41 -184.25 694.946 -171.158 696.149 -157.91C696.869 -149.941 697.152 -141.939 696.999 -133.94Z" fill="#DF936D"/>
<path opacity="0.3" d="M259.599 -63.6615C260.956 -62.9352 262.303 -62.1706 263.641 -61.3678C276.103 -53.8879 287.271 -44.3128 297.698 -34.0692C313.618 -18.4327 323.55 0.769457 330.871 22.6806C346.852 70.4812 302.676 120.256 261.495 136.566C218.584 153.568 169.184 144.543 139.537 111.243C117.375 86.3536 110.623 50.8165 120.188 15.9362C134.99 -38.0583 183.019 -81.6751 235.905 -72.0439C241.075 -71.0993 246.137 -69.6358 251.014 -67.6756C253.947 -66.4947 256.813 -65.1547 259.599 -63.6615Z" fill="#402B1D"/>
</g>
</g>
<defs>
<clipPath id="clip0">
<rect width="666" height="312" fill="white" transform="matrix(1 0 0 -1 0 312)"/>
</clipPath>
</defs>
</svg>
