<svg width="535" height="839" viewBox="0 0 535 839" fill="none" xmlns="http://www.w3.org/2000/svg">
<path opacity="0.8" d="M-283.554 491.821C-262.492 559.404 -215.976 580.112 -151.672 595.376C-136.27 684.701 -43.666 744.062 45.7001 730.28C123.272 962.232 487.477 778.34 498.102 591.487C493.622 481.384 384.48 431.032 290.04 478.895C267.401 488.71 276.193 486.959 254.675 477.397C201.553 452.657 145.915 482.121 91.1815 484.976C77.0622 434.685 37.8729 399.763 -7.77939 377.434C-56.4657 353.61 -112.89 333.101 -168.336 336.656C-229.969 340.607 -284.129 386.512 -288.881 450.36C-289.934 464.398 -288.122 478.505 -283.554 491.821Z" fill="white"/>
<path opacity="0.3" d="M-81.396 -118.73C-63.7378 -51.9416 -60.3536 17.6974 -65.6519 86.3795C-75.1285 187.784 21.2627 227.93 107.021 233.595C186.479 246.998 266.661 256.609 347.194 260.376C381.02 261.956 411.165 246.265 428.371 217.012C463.923 156.569 432.443 73.702 422.734 10.1308C415.477 -37.4355 407.605 -84.6598 396.263 -131.452C383.688 -183.246 376.43 -244.207 330.139 -277.739C269.671 -321.543 214.037 -281.979 150.735 -273.129C98.6314 -265.844 44.1377 -269.599 -5.57895 -249.729C-61.274 -227.469 -94.6559 -179.499 -81.396 -118.73Z" fill="#DF936D"/>
<path opacity="0.3" d="M-116.848 376.369C-37.818 520.897 241.81 509.515 261.284 328.135C267.043 274.513 256.471 215.454 229.971 168.295C216.939 145.123 198.955 124.003 175.205 111.399C118.622 81.3642 41.8639 101.344 -14.0918 124.023C-107.779 161.979 -168.414 259.596 -125.519 358.715C-122.912 364.722 -120.004 370.615 -116.848 376.369Z" fill="#B3A59E"/>
<g opacity="0.1">
<path d="M228.338 -12.8604C226.591 -23.4489 223.178 -33.858 220.03 -44.0881C216.43 -55.7842 212.663 -67.4599 208.346 -78.9117C197.734 -107.032 179.839 -133.108 160.699 -156.073C154.777 -163.183 148.546 -170.143 141.705 -176.386C139.668 -178.231 135.022 -183.48 131.694 -182.234L133.613 -177.681C146.396 -183.151 157.583 -194.154 167.227 -203.957L163.313 -204.462C196.976 -156.069 221.028 -101.384 234.439 -44.0066C247.959 13.8549 250.663 74.4207 241.504 133.17C231.686 196.143 208.399 255.816 188.562 316.06C178.589 346.327 169.422 376.923 163.191 408.208C156.756 440.596 153.735 473.599 153.478 506.607C152.949 574.132 163.623 641.275 178.047 707.07C179.839 715.239 181.688 723.396 183.594 731.541L185.997 728.389C147.076 725.384 129.479 683.278 114.501 653.195C106.616 637.365 97.6487 621.54 84.1159 609.815C69.8623 597.472 51.6543 590.39 39.502 575.578C27.2846 560.701 21.7258 541.874 11.7075 525.666C6.86823 517.834 1.17389 510.563 -5.27063 503.988C-12.1938 496.931 -21.1532 491.518 -26.7813 483.292C-36.9014 468.513 -29.7217 452.248 -18.8035 440.303C-12.2468 433.131 -4.448 427.389 3.20825 421.472L30.4937 400.393C39.1151 393.734 47.5614 386.701 56.5982 380.605C64.7432 375.107 74.0528 370.273 84.1403 370.578C92.554 370.835 101.819 374.651 105.594 382.641C110.045 392.077 105.81 403.818 100.593 412.077C90.9291 427.353 72.0329 436.756 54.6842 428.538C46.9465 424.872 40.7604 418.247 38.9237 409.76C36.9282 400.544 40.3654 391.433 45.3705 383.802C56.5901 366.697 74.7614 353.987 90.0495 340.76C104.124 328.583 121.147 316.785 130.774 300.487C138.768 286.979 138.247 270.823 127.137 259.221C115.832 247.411 98.9803 244.059 83.4195 247.586C46.6614 255.922 23.1878 289.732 4.98389 319.949C-4.26874 335.311 -12.9716 351.287 -25.2867 364.478C-37.3494 377.396 -52.2343 387.727 -68.9762 393.563C-77.2991 396.442 -85.9575 398.239 -94.7386 398.91L-92.9752 403.162C-82.0773 392.785 -76.0012 378.32 -75.4636 363.317C-74.9097 347.239 -81.214 333.588 -91.5092 321.607C-97.4265 314.708 -104.016 308.147 -107.941 299.823C-111.558 292.147 -112.36 283.395 -110.756 275.104C-107.498 258.239 -96.1762 243.595 -83.1729 232.86C-55.5452 210.054 -17.7161 203.75 8.08295 178.049C33.882 152.347 44.4338 114.877 76.2153 94.7137C102.658 77.9352 159.257 65.9622 171.238 106.402C182.234 143.575 141.285 173.451 107.28 167.464C89.8336 164.394 75.3316 152.559 71.3935 134.913C69.5202 126.516 70.2654 117.373 74.0121 109.574C77.38 102.565 83.1996 97.4545 89.4875 93.1214C100.679 85.4326 113.894 78.9899 119.766 65.954C125.398 53.4474 121.281 39.2264 113.079 28.8945C89.5038 -0.761108 48.6529 12.4377 21.2778 28.7154C-16.9432 51.502 -48.3865 84.0812 -69.8029 123.087L-65.2499 123.681C-75.2722 57.7072 -52.1447 -15.1206 7.1626 -50.6936C33.9553 -66.7635 66.4007 -74.4891 97.4125 -68.8894C114.183 -65.8636 130.094 -59.144 144.38 -49.9158C158.373 -40.8749 169.735 -29.3416 180.975 -17.1853C190.436 -6.95123 200.751 3.80414 214.243 8.47119C227.735 13.1382 241.806 9.55438 253.306 1.59277C265.666 -6.95941 275.139 -18.7695 285.715 -29.3091C297.904 -41.4328 312.32 -51.899 328.561 -57.8408C344.794 -63.8766 362.578 -64.3224 379.093 -59.1074C396.111 -53.8132 411.338 -43.8845 425.686 -33.5322C452.796 -13.9641 478.404 8.71149 497.894 36.0621C516.249 61.8205 528.788 91.6431 530.095 123.502C531.317 152.763 523.706 183.367 504.846 206.303C500.4 211.676 495.404 216.569 489.941 220.903L494.103 223.347C513.651 174.176 494.148 116.721 448.467 90.0182C428.691 78.4565 404.191 72.0994 381.394 76.5791C370.781 78.656 360.217 83.4167 353.065 91.7612C345.271 100.863 342.803 112.795 344.452 124.479C346.305 137.625 352.373 149.912 358.97 161.274C365.69 172.848 372.927 184.165 380.188 195.401C394.377 217.348 409.632 238.822 427.767 257.71C436.168 266.512 445.277 274.61 455.003 281.921C465.628 289.858 477.015 295.836 488.752 301.876C494.987 305.097 500.945 308.909 504.268 315.315C507.762 322.067 508.116 329.976 508.129 337.441C508.115 353.485 506.916 369.506 504.541 385.374C502.063 402.188 498.342 418.794 493.407 435.058C488.837 450.126 483.254 465.068 474.523 478.25C466.04 491.058 454.388 501.756 439.634 506.696C425.971 511.27 410.964 510.81 398.689 502.795L398.095 507.348C430.3 499.411 450.177 465.683 440.627 433.775C435.81 417.68 424.826 405.764 410.491 397.505C394.649 388.391 378.136 381.802 369.001 364.885C361.263 350.566 358.82 334.109 353.933 318.748C348.956 303.049 341.276 290.021 327.918 280.06C313.302 269.158 293.799 260.809 288.48 241.628C282.624 220.508 304.868 209.903 322.579 210.526C339.007 211.105 356.177 220.076 362.945 235.637C368.981 249.512 365.087 267.618 353.66 277.608C346.212 284.124 336.881 284.918 327.429 285.859C320.315 286.567 313.506 287.895 306.945 290.791C297.922 294.745 290.302 301.329 285.08 309.683C273.644 327.968 273.587 351.654 276.039 372.35C278.959 396.964 285.911 421.073 294.691 444.196C303.65 467.776 314.703 490.121 329.93 510.345C348.565 535.094 371.062 556.527 394.715 576.413C397.838 579.04 400.994 581.634 404.081 584.297L403.442 581.854C391.538 626.015 364.472 665.339 328.342 693.052C317.753 701.197 306.444 708.568 294.365 714.323L297.774 717.731C310.492 699.133 315.387 675.944 311.62 653.749C307.425 629.155 289.979 610.85 281.015 588.207C272.87 567.608 269.918 545.474 263.838 524.269C258.442 505.442 249.841 484.359 232.924 473.025C225.105 467.776 214.089 464.844 205.614 470.358C199.407 474.394 197.11 481.834 196.198 488.798C195.115 497.069 195.518 505.609 195.465 513.937C195.428 527.166 196.381 540.378 198.316 553.465C202.115 579.805 209.544 605.592 219.9 630.096C224.643 641.357 230.029 652.337 236.031 662.981C242.323 674.103 250.61 684.859 254.044 697.328C255.97 704.325 255.758 711.582 251.946 717.915C248.766 723.209 243.773 727.224 239.183 731.24C231.34 738.106 224.563 745.473 223.133 756.184C220.723 774.249 232.5 793.878 250.826 797.621L251.49 792.734C187.74 785.314 127.748 753.231 85.1218 705.424C73.0439 691.849 62.446 677.026 53.5073 661.206C51.9271 658.416 47.6225 660.925 49.2067 663.718C81.6113 720.928 135.706 764.748 197.913 785.75C215.304 791.596 233.262 795.6 251.49 797.694C254.272 798.016 254.891 793.361 252.154 792.807C235.383 789.382 224.579 770.482 228.534 754.058C233.066 735.284 257.151 729.847 259.961 709.868C261.366 699.882 257.301 690.092 252.671 681.474C247.263 671.411 240.894 661.926 235.567 651.782C224.364 630.454 215.654 607.907 209.609 584.586C203.181 560 200.111 534.656 200.482 509.246C200.69 496.438 198.173 470.443 218.133 472.516C229.792 473.738 238.804 483.772 244.885 492.968C250.386 501.288 254.251 510.52 257.281 519.993C263.316 538.893 266.241 558.62 272.011 577.586C275.39 588.685 280.064 599.347 285.939 609.351C292.589 620.697 300.193 631.705 304.167 644.374C311.685 668.231 307.531 694.718 293.449 715.308C291.917 717.548 294.813 719.69 296.857 718.717C320.021 707.677 341.178 691.053 358.759 672.462C377.818 652.271 391.693 627.958 401.76 602.22C404.203 596.006 406.517 589.673 408.255 583.222C408.379 582.795 408.385 582.342 408.272 581.912C408.16 581.482 407.933 581.091 407.616 580.779C387.254 563.238 366.891 546.02 349.021 525.833C329.839 504.262 314.438 479.605 303.471 452.903C294.141 430.26 286.603 406.607 282.494 382.45C278.771 360.54 276.837 334.561 288.093 314.399C293.005 305.545 300.792 298.635 310.166 294.81C325.234 288.648 343.063 292.859 356.25 281.941C367.087 272.982 372.173 257.848 370.337 244.067C368.386 229.467 358.176 217.486 345.14 211.162C331.701 204.646 315.249 203.424 301.353 209.321C285.801 215.939 278.592 231.272 285.169 247.175C292.092 263.908 308.065 272.204 322.143 282.027C329.971 287.488 336.767 293.8 341.573 302.12C345.645 309.206 348.309 317.001 350.569 324.832C355.012 340.202 357.932 356.52 366.378 370.367C375.623 385.524 390.968 392.358 405.881 400.658C422.314 409.776 434.336 423.272 437.484 442.282C440.501 460.494 433.411 478.621 419.65 490.72C413.083 496.451 405.231 500.512 396.759 502.559C394.58 503.096 394.442 505.988 396.164 507.112C415.712 519.879 441.804 515.192 459.695 501.667C480.444 485.992 490.874 460.535 498.188 436.402C506.829 407.854 511.756 378.312 512.849 348.506C513.297 336.357 514.274 322.344 507.77 311.446C501.12 300.32 487.783 296.333 477.068 290.347C431.456 264.865 401.169 219.999 374.21 176.68C361.239 155.841 339.036 125.587 353.07 100.338C365.495 77.984 397.174 77.6216 418.799 83.1398C445.999 90.0629 470.247 108.177 483.91 132.787C498.978 159.926 500.7 193.267 489.261 222.011C488.231 224.601 491.741 225.782 493.423 224.454C542.614 185.159 544.406 111.961 517.78 59.3159C502.366 28.8416 478.827 3.11584 452.812 -18.6718C439.373 -29.92 425.27 -40.6631 410.32 -49.7977C395.464 -58.8793 379.056 -66.1934 361.512 -67.5902C326.896 -70.3473 297.403 -49.1094 274.825 -25.2C263.923 -13.6546 252.186 -0.00366211 236.304 4.41901C219.525 9.09015 204.856 -0.268372 193.27 -11.541C181.378 -23.1068 171.132 -35.9757 157.982 -46.2587C144.612 -56.6964 129.532 -64.992 113.324 -70.0623C82.7801 -79.6407 49.732 -76.2402 20.6873 -63.3345C-42.7048 -35.1694 -74.8527 32.9589 -72.4907 100.13C-72.1732 108.466 -71.3738 116.777 -70.0961 125.021C-69.7662 127.188 -66.5083 127.363 -65.5431 125.616C-47.3026 92.5268 -21.5605 63.7141 9.51239 42.187C37.0301 23.1198 87.0847 -2.20276 111.446 35.154C115.8 41.8247 118.435 49.998 117.025 57.9923C115.669 65.6689 110.701 71.8387 104.808 76.6849C93.7554 85.7787 79.5018 91.0892 71.5564 103.624C63.2771 116.681 63.6925 133.993 70.6238 147.497C78.0683 162.003 92.9572 170.633 108.815 172.71C140.133 176.815 175.775 154.721 177.831 121.295C178.784 105.819 171.865 89.9042 158.43 81.6533C143.541 72.5107 124.01 73.0075 107.492 76.5505C89.9777 80.3324 73.7332 88.5626 60.3246 100.448C46.6696 112.588 37.2458 128.413 27.6023 143.714C17.303 160.052 6.23004 175.336 -9.92548 186.36C-25.4008 196.924 -42.8921 203.966 -59.5403 212.4C-87.3145 226.47 -119.748 252.453 -116.396 287.525C-114.681 305.443 -101.637 316.305 -91.338 329.719C-80.6111 343.684 -77.7808 361.757 -83.1931 378.495C-85.8036 386.549 -90.392 393.821 -96.5386 399.644C-98.025 401.061 -96.9459 404.07 -94.7753 403.895C-58.3715 401.008 -27.4452 379.908 -7.55524 349.829C14.5704 316.362 31.3409 277.213 69.0437 258.15C86.9626 249.089 110.082 247.435 124.507 263.758C139.88 281.155 126.262 301.497 112.489 314.517C95.8405 330.249 77.7018 344.441 60.5893 359.664C47.8302 371.014 33.0634 386.225 33.3037 404.587C33.5196 420.633 46.3071 433.18 61.644 436.015C78.3737 439.106 94.2237 429.967 103.59 416.467C112.957 402.967 117.437 381.81 101.746 371.075C86.5186 360.658 67.9197 366.938 54.0041 376.337C34.8839 389.247 17.075 404.486 -1.17371 418.589C-14.955 429.238 -30.471 440.987 -35.5779 458.523C-37.6761 465.532 -37.2803 473.052 -34.4579 479.802C-30.752 488.562 -23.7066 494.186 -16.6938 500.225C-0.583191 514.1 9.5368 531.135 18.6428 550.06C22.976 559.068 27.468 568.064 33.4993 576.083C39.2252 583.694 46.2542 589.787 54.0856 595.15C62.6825 601.039 71.9148 606.085 79.8887 612.845C87.5205 619.312 93.735 627.176 99.0618 635.618C118.573 666.642 128.225 707.444 162.592 726.434C169.775 730.413 177.735 732.79 185.923 733.402C187.609 733.533 188.668 731.712 188.326 730.25C172.851 663.763 160.361 596.156 158.597 527.751C157.709 493.461 159.53 459.032 165.113 425.162C170.314 393.572 178.845 362.653 188.534 332.175C207.943 271.129 232.109 211.28 243.944 148.1C254.715 90.5028 254.219 31.0571 243.203 -26.4706C232.207 -83.8475 210.7 -139.343 179.591 -188.819C175.733 -194.955 171.729 -200.995 167.581 -206.938C166.681 -208.229 164.865 -208.66 163.667 -207.443C154.276 -197.901 143.505 -187.268 131.063 -181.945C128.493 -180.845 130.338 -176.398 132.981 -177.392C132.232 -177.111 132.594 -177.286 133.332 -176.789C134.158 -176.221 134.954 -175.61 135.718 -174.961C138.056 -173.022 140.243 -170.888 142.393 -168.746C148.219 -162.894 153.742 -156.748 158.939 -150.331C169.325 -137.508 178.825 -123.993 187.373 -109.879C199.847 -89.4268 207.552 -67.3133 214.618 -44.5604C217.978 -33.7358 221.643 -22.7076 223.496 -11.4961C224.017 -8.33997 228.819 -9.67981 228.301 -12.8196L228.338 -12.8604Z" fill="#402B1D"/>
</g>
</svg>
