<svg width="272" height="96" viewBox="0 0 272 96" fill="none" xmlns="http://www.w3.org/2000/svg">
<mask id="mask0" style="mask-type:alpha" maskUnits="userSpaceOnUse" x="0" y="0" width="272" height="96">
<rect width="272" height="96" rx="4" fill="#C4C4C4"/>
</mask>
<g mask="url(#mask0)">
</g>
<g clip-path="url(#clip0)">
<path d="M82.4679 69.1373C82.1018 70.6682 82.0352 70.8014 81.6359 70.8014H77.2759V71.1009H87.1274V70.8014H82.6343C82.3348 70.8014 82.4013 70.6017 82.7342 69.2038L85.7628 57.4552H97.7444L101.405 70.8014H96.5463V71.1009H112.921V70.8014H107.829L94.2498 23.707H94.1833L82.4679 69.1373ZM91.554 34.9564L97.6446 57.1557H85.8294L91.554 34.9564ZM188.485 47.6037H192.246C195.574 47.6037 200.466 49.0348 200.466 54.8259V65.3431C200.466 69.6365 202.829 72.3656 207.023 72.3656C211.416 72.3656 211.35 67.9058 211.35 64.7107V61.3159H211.05V64.7107C211.05 68.3718 210.617 71.5336 208.454 71.5336C206.557 71.5336 206.158 70.3687 206.158 65.4096V54.8592C206.158 49.9667 202.197 48.1695 196.073 47.4705C203.695 46.5719 206.557 41.7127 206.557 36.321C206.557 28.3665 202.896 25.005 193.41 25.005H178.4V25.3046H182.327C182.627 25.3046 182.76 25.3711 182.76 25.5376V70.5684C182.76 70.7348 182.627 70.8014 182.327 70.8014H178.4V71.1009H192.212V70.8014H188.884C188.584 70.8014 188.451 70.7348 188.451 70.5684V47.6037H188.485ZM188.485 25.3046H192.512C198.736 25.3046 200.5 30.0307 200.5 36.321C200.5 42.1787 198.736 47.3374 192.512 47.3374H188.485V25.3046ZM135.786 70.5684C135.819 70.6682 135.786 70.8014 135.553 70.8014H124.803C121.508 70.8014 117.215 65.9089 117.215 50.1331V48.5023H116.915V71.1009H142.576L123.139 25.5376C123.105 25.4377 123.139 25.3046 123.372 25.3046H134.788C137.783 25.3046 142.143 30.7629 142.143 45.9728V47.6037H142.442V25.005H116.316L135.786 70.5684ZM59.5697 25.3046C65.7935 25.3046 68.323 30.0307 68.323 36.321C68.323 42.1787 65.7935 46.8715 59.5697 46.8715H56.7408V25.3046H59.5697ZM46.6562 25.005V25.3046H50.5836C50.8831 25.3046 51.0162 25.3711 51.0162 25.5376V70.5684C51.0162 70.7348 50.8831 70.8014 50.5836 70.8014H46.6562V71.1009H61.3337C70.7859 71.1009 75.8447 67.1736 75.8447 59.2192C75.8447 53.6943 72.8493 48.1029 63.4305 46.9713C71.4182 46.2391 74.1806 41.2135 74.1806 36.2877C74.1806 29.132 69.8872 24.9718 60.4018 24.9718L46.6562 25.005ZM59.5697 47.171C66.5923 47.171 69.388 51.9636 69.388 59.2192C69.388 65.4762 66.8918 70.8347 61.0674 70.8347H57.1734C56.8739 70.8347 56.7408 70.7681 56.7408 70.6017V47.171H59.5697ZM150.197 69.1373C149.798 70.6682 149.765 70.8014 149.365 70.8014H145.005V71.1009H154.857V70.8014H150.364C150.064 70.8014 150.131 70.6017 150.463 69.2038L153.492 57.4552H165.474L169.135 70.8014H164.276V71.1009H180.65V70.8014H175.558L161.979 23.707H161.879L150.197 69.1373ZM159.317 34.9564L165.407 57.1557H153.592L159.317 34.9564Z" fill="#ECE7E5"/>
<path d="M226.662 25.1394H212.55V25.4389H216.478C216.777 25.4389 216.91 25.5055 216.91 25.6719V70.7028C216.91 70.8692 216.777 70.9357 216.478 70.9357H213.254V71.2353H226.362V70.9357H223.034C222.735 70.9357 222.602 70.8692 222.602 70.7028L222.634 48.2187L222.635 47.738V25.4389H226.662V25.1394Z" fill="#ECE7E5"/>
</g>
<defs>
<clipPath id="clip0">
<rect width="181" height="48" fill="white" transform="translate(46 24)"/>
</clipPath>
</defs>
</svg>
