<svg width="272" height="96" viewBox="0 0 272 96" fill="none" xmlns="http://www.w3.org/2000/svg">
<mask id="mask0" style="mask-type:alpha" maskUnits="userSpaceOnUse" x="0" y="0" width="272" height="96">
<rect width="272" height="96" rx="4" fill="#C4C4C4"/>
</mask>
<g mask="url(#mask0)">
</g>
<path d="M58.2964 57.9295C58.2964 55.6571 58.9201 53.7754 59.9959 52.4504C61.069 51.1254 62.6046 50.3739 64.3376 50.3755C65.447 50.3728 66.029 50.4383 67.094 50.7743L67.3423 50.8511V51.1092V51.5252L67.0334 51.5658C65.1003 51.8331 64.4918 53.0445 64.4718 54.1655C64.4739 55.5386 65.6882 56.6483 67.0415 56.651C68.5036 56.6483 69.8855 55.4358 69.8888 53.783C69.8855 51.0746 67.5381 49.2973 64.0612 49.2767C58.5452 49.2918 54.1608 53.0953 54.1494 59.0748C54.1613 64.8688 59.0656 70.9284 69.8017 70.9473C81.5055 70.9316 86.8749 63.5286 86.89 56.7289C86.9019 50.2755 81.7797 45.8644 77.5672 42.0928C73.4981 38.4587 71.2632 36.3135 71.268 32.1751C71.2675 30.6884 71.7175 29.312 72.6754 28.3062C73.6323 27.2982 75.0835 26.6928 76.9782 26.695C79.0049 26.6896 80.745 27.2939 82.3893 28.8294C84.0022 30.3297 85.5546 32.6918 87.3887 36.2589L88.0843 36.1393L87.3552 25.4863H86.5552L84.7795 28.1763L84.4717 27.9091C82.6581 26.3455 80.8645 25.0611 77.1437 25.0508C71.347 25.0648 67.2968 28.9295 67.2866 34.1937C67.2801 39.7328 71.2361 43.0337 75.0153 46.5986C79.7524 51.0502 82.0913 53.5449 82.081 58.6934C82.081 61.4797 81.0387 64.0708 79.112 65.9606C77.1865 67.851 74.3814 69.031 70.9056 69.0293C66.6478 69.031 63.4803 67.8483 61.3854 65.8481C59.2895 63.8479 58.2937 61.0545 58.2964 57.9295Z" fill="#ECE7E5"/>
<path d="M93.3112 65.889L93.1122 66.8737H109.666L109.869 65.8619L104.402 64.7701L111.614 30.7975L117.45 31.9991L121.492 42.3643L122.041 42.2285L122.934 30.0352H94.7738L91.4619 42.2458L92.0883 42.387L99.8738 31.872L106.438 30.7796L99.2156 64.7983L93.3112 65.889Z" fill="#ECE7E5"/>
<path d="M213.339 32.1014L217.665 31.0328L217.901 30.0352H206.928L206.679 31.0864L210.238 32.2215L198.459 49.5995L193.342 32.446L198.288 31.0409L198.525 30.0352H184.515L184.264 31.0999L187.829 32.4157L194.041 50.8342L191.047 64.7939L185.687 65.8863L185.455 66.8737H200.953L201.195 65.8527L196.29 64.7631L199.359 50.2141L213.339 32.1014Z" fill="#ECE7E5"/>
<path d="M172.862 64.6657L160.469 65.9317L167.683 32.1154L173.043 31.0225L173.276 30.0352H157.942L157.701 31.0583L162.496 32.1479L155.532 64.7918L150.282 65.8841L150.049 66.8731H177.821L181.608 54.6057L180.985 54.465L172.862 64.6657Z" fill="#ECE7E5"/>
<path d="M135.376 64.795L129.961 65.8863L129.729 66.8737H145.282L145.524 65.8533L140.563 64.7631L147.528 32.1149L152.944 31.0231L153.177 30.0352H138.445C134.704 30.0335 131.847 30.7147 129.958 31.9991C128.073 33.2862 127.104 35.1479 127.097 37.7065C127.119 40.9765 129.112 42.0764 130.827 42.1024C132.338 42.0992 133.452 40.8964 133.453 39.5606C133.45 38.3195 132.456 37.1768 131.181 37.1747C130.535 37.1757 129.778 37.4565 128.977 38.2291L128.874 38.3292H127.883L127.909 37.9543C128.148 34.4857 131.959 31.6079 138.61 31.6253H142.469L135.376 64.795Z" fill="#ECE7E5"/>
</svg>
