<svg width="626" height="465" viewBox="0 0 626 465" fill="none" xmlns="http://www.w3.org/2000/svg">
<path opacity="0.7" d="M407.906 202.828C499.414 248.128 542.004 442.671 410.371 463.323C394.296 465.184 378.02 463.754 362.526 459.118C347.031 454.483 332.642 446.74 320.227 436.356C273.03 397.246 250.118 324.208 269.355 265.299C283.49 222.016 324.057 192.817 366.866 193.048C381.116 193.128 395.153 196.473 407.906 202.828V202.828ZM573.711 5.36564C548.421 -0.0904688 524.704 6.33274 505.742 24.3629C457.797 68.4724 500.972 163.679 574.416 143.106C644.262 120.686 641.422 25.0471 573.711 5.36564ZM136.686 7.91847C79.3718 -10.8831 6.11578 5.31961 0.484886 68.8727C-4.41076 124.093 40.7724 183.902 96.4588 188.812C160.128 194.391 218.421 135.305 203.456 71.0898C196.293 40.3534 169.038 18.5503 136.686 7.91847Z" fill="#F4E8E1"/>
</svg>
