<svg width="456" height="800" viewBox="0 0 456 800" fill="none" xmlns="http://www.w3.org/2000/svg">
<g opacity="0.1" clip-path="url(#clip0_497:2)">
<path d="M230.136 799.186C213.557 774.529 215.837 744.686 215.481 716.375C215.329 700.951 213.176 685.611 209.077 670.74C204.553 654.23 198.764 638.1 192.706 622.101C186.102 604.664 179.169 587.34 173.094 569.704L175.824 570.683C168.535 575.364 160.411 578.598 151.896 580.206C148.577 580.803 144.807 581.531 141.418 581.072C138.74 580.734 140.318 580.855 141.626 580.371C142.389 580.094 143.186 579.851 143.949 579.583C145.63 579.003 147.329 578.466 149.01 577.851C161.923 573.193 177.115 565.73 179.342 550.579C181.83 533.835 172.409 517.741 163.084 504.693C158.335 498.018 153.309 491.542 148.897 484.633C146.939 481.569 144.712 478.625 144.408 474.919C144.287 473.413 144.538 471.595 144.018 470.158C143.152 467.708 140.413 467.422 138.402 466.296C132.431 462.955 128.956 454.678 126.269 448.756C125.125 446.254 124.363 443.604 123.384 441.033C122.517 438.73 121.252 434.332 118.53 433.622L120.567 433.267C119.512 434.21 118.255 434.9 116.892 435.284C116.451 435.358 115.998 435.287 115.601 435.081C115.203 434.874 114.884 434.545 114.691 434.142L114.639 434.012L118.418 433.856C116.069 441.388 118.868 448.972 122.006 455.829C124.25 460.755 126.564 465.907 129.918 470.201C133.055 474.218 138.099 478.054 143.264 474.885C149.426 471.101 147.987 462.374 144.85 457.188C137.674 445.319 124.657 437.986 117.733 425.856C116.371 423.504 115.341 420.975 114.674 418.341C114.357 417.096 114.2 415.816 114.206 414.532C114.206 412.8 115.072 410.489 114.405 408.774C113.538 406.497 110.349 405.779 108.668 404.195C106.51 402.16 105.011 399.26 103.676 396.654C100.676 390.475 98.1154 384.093 96.015 377.555C95.5869 376.483 95.276 375.368 95.0877 374.23C94.9057 372.68 95.3824 370.767 94.2904 369.442C93.4844 368.464 94.2904 368.49 93.7357 368.906C93.3544 369.191 93.2331 369.936 93.0598 370.369C92.5989 371.558 92.2733 372.795 92.0891 374.057C91.3611 379.104 93.4671 384.94 94.8884 389.71C96.5892 395.357 98.6147 400.902 100.955 406.316C102.341 409.562 106.527 419.302 111.19 415.424C115.852 411.545 116.641 403.987 115.566 398.411C114.154 391.078 109.379 384.819 104.967 379.001C100.407 373.193 96.3065 367.039 92.7044 360.594C86.0573 348.24 80.3722 333.755 79.7829 319.591C79.4654 313.421 80.5467 307.26 82.9461 301.566C83.8127 299.445 84.922 297.427 85.9706 295.384C86.0833 295.159 86.7766 294.163 86.7073 293.886C86.8806 294.562 85.3467 294.692 84.5147 295.064C78.9769 297.557 73.8203 300.726 68.1439 302.977C60.9839 305.737 53.6755 308.095 46.2525 310.042C30.653 314.301 14.9409 317.972 -0.546021 322.639C-2.43661 323.161 -4.28262 323.833 -6.06653 324.647C-7.27982 325.236 -10.9804 327.331 -7.27985 326.768C-3.57928 326.206 0.00863647 323.799 3.42322 322.362C10.729 319.288 18.156 316.483 25.5832 313.704C40.5154 308.154 55.9156 303.315 70.4751 296.778C77.487 293.686 84.2147 289.986 90.5812 285.722C96.431 281.722 101.848 277.116 107.654 273.073C119.394 264.954 131.543 257.441 144.053 250.563C171.785 235.256 201.251 223.594 230.388 211.335C245.129 205.188 260.139 199.431 274.673 192.47C278.14 190.966 281.51 189.245 284.761 187.318C287.421 185.587 288.409 183.171 289.874 180.513C291.042 178.448 292.809 176.784 294.942 175.742C297.076 174.701 299.476 174.329 301.825 174.678C307.553 175.345 311.99 179.431 317.996 178.574C325.111 177.553 332.097 173.466 338.796 170.929C353.529 165.336 368.66 160.116 384.554 159.337C400.448 158.557 416.282 160.601 432.159 160.28C437.073 160.185 442.134 160.436 447.03 159.977C448.816 159.813 451.19 159.865 451.84 158.073C452.49 156.28 451.138 154.237 450.514 152.679C441.891 131.268 435.391 108.862 428.242 86.9321C423.406 72.1014 418.613 57.2621 413.422 42.5439C411.039 35.7909 408.734 28.9946 406.134 22.3195C404.834 18.9862 403.43 15.6963 402.043 12.4064C400.882 9.6532 399.599 6.69226 399.989 3.62743C400.622 -1.35077 405.189 -0.831304 407.182 2.95212C408.916 6.19877 409.782 10.1813 410.883 13.679C413.777 22.7264 416.663 31.7737 419.662 40.7864C427.092 63.233 434.375 85.7113 441.51 108.221C444.399 117.341 447.267 126.469 450.116 135.606C451.615 140.437 453.487 145.346 454.51 150.324C456.546 160.133 438.121 157.692 433.173 157.631C418.293 157.432 403.291 156.099 389.026 151.623C363.287 143.545 341.222 123.632 337.166 96.0054C335.263 83.2912 337.56 70.3036 343.71 59.0109C350.27 47.1758 361.042 38.596 371.303 30.1287C376.469 25.8634 381.562 21.5143 386.582 17.0815C389.357 14.7185 391.99 12.1947 394.469 9.52334C396.826 6.92602 398.291 3.74863 400.362 0.926214L403.326 3.67071C393.056 10.848 382.57 17.956 372.733 25.7046C362.663 33.6351 352.402 41.0634 341.118 47.1931C328.571 53.8867 315.46 59.4692 301.937 63.8766C295.004 66.1882 288.071 68.3872 281.138 70.6209C279.925 71.0105 276.32 71.4867 276.016 72.7074C275.912 73.1057 276.528 74.1619 276.476 74.7074C276.446 75.0877 276.339 75.458 276.162 75.7959C275.985 76.1337 275.741 76.432 275.444 76.6727C274.309 77.7029 272.454 77.9454 271.111 78.4995C267.697 79.8847 264.551 81.9625 261.205 83.5383C259.004 84.5685 255.338 86.4473 253.354 84.0317C250.892 81.0362 254.489 77.9713 257.002 76.8891C260.697 75.3265 264.707 74.6533 268.71 74.9238C279.76 75.9368 283.443 89.8844 286.217 98.7066C290.29 111.814 293.262 125.277 297.162 138.454C299.248 145.49 301.339 152.526 303.437 159.562C304.485 163.077 305.543 166.592 306.574 170.116C307.198 172.254 307.9 174.444 307.319 176.713C306.401 180.236 302.813 181.535 299.771 182.773C296.729 184.011 292.5 186.66 289.137 184.609C284.986 182.072 284.639 175.172 283.495 170.999C281.545 163.925 279.292 156.912 277.195 149.882C273.572 137.762 269.716 125.641 266.449 113.433C264.1 104.603 261.309 92.3518 252.86 87.2178C243.951 81.798 231.081 86.9581 222.025 89.5467C209.068 93.2436 195.575 95.4686 182.35 97.9534C167.403 100.758 152.407 103.272 137.362 105.494C107.151 109.962 76.7929 112.715 46.4258 115.806C31.2596 117.347 16.1021 118.98 0.953247 120.706C-6.2572 121.528 -13.459 122.437 -20.6434 123.433C-24.9766 124.056 -31.5111 123.433 -33.0537 128.506C-35.0383 135.069 -33.2531 142.87 -31.5977 149.285C-29.9425 155.7 -27.8105 162.185 -25.9733 168.652C-21.8567 183.171 -17.8095 197.664 -12.9737 211.941C-8.27069 226.099 -3.0882 240.087 2.57385 253.905C7.4444 265.827 12.9735 277.428 18.0521 289.263C18.9187 291.384 20.5653 294.622 19.586 296.969C18.39 299.843 14.9928 298.7 13.0775 297.341C9.74097 294.96 8.46701 290.536 7.33173 286.813C5.66776 281.315 3.76984 276.008 1.76788 270.614C-8.54514 242.849 -17.7402 214.564 -26.0339 186.141C-30.2285 171.76 -34.8217 157.103 -37.4043 142.324C-37.7806 139.401 -37.9832 136.458 -38.0109 133.511C-38.0889 132.125 -38.0109 129.459 -38.8082 128.264C-39.7442 126.844 -40.8362 127.398 -42.2054 127.935C-47.9773 130.229 -53.6451 133 -59.2609 135.64C-72.6938 141.952 -85.8495 148.835 -99.0657 155.553C-111.649 161.986 -124.649 167.96 -136.843 175.033C-146.809 180.791 -154.678 188.279 -155.397 200.305C-155.987 210.227 -152.589 220.14 -149.166 229.3C-140.179 253.36 -131.599 277.541 -121.98 301.367C-119.149 308.385 -116.297 315.395 -113.426 322.396C-112.447 324.812 -110.063 328.907 -111.389 331.548C-113.045 334.837 -117.213 332.058 -118.773 330.18C-121.919 326.396 -122.664 320.509 -124.068 315.946C-132.804 287.454 -144.417 259.965 -152.607 231.274C-154.611 224.657 -156.272 217.941 -157.581 211.153C-158.682 204.902 -159.315 198.461 -162.14 192.695L-159.939 193.838C-164.748 195.067 -168.146 199.491 -170.902 203.361C-173.458 206.911 -176.205 210.686 -177.748 214.798C-179.36 219.127 -178.961 223.456 -178.372 227.915C-177.609 233.629 -176.595 239.308 -175.373 244.944C-170.624 266.762 -162.694 287.8 -153.187 307.973C-150.813 313.011 -148.239 317.929 -145.7 322.881C-143.334 327.504 -141.514 331.66 -136.236 333.409C-127.284 336.387 -117.3 335.521 -107.992 336.006C-96.6131 336.56 -85.1908 336.664 -73.8898 335.14C-62.5888 333.617 -51.5565 330.725 -40.4721 328.214C-32.0311 326.284 -23.1393 324.691 -14.5596 326.89C-6.43048 328.985 0.433289 334.881 4.3765 342.223C12.8609 358.023 6.83777 377.468 10.131 394.411C14.2129 415.432 26.8831 433.942 38.7994 451.284C51.4639 469.609 64.0735 488.007 76.6283 506.477L115.627 563.618C121.408 572.085 127.136 580.544 134.017 588.18C140.439 595.305 147.337 602.032 152.381 610.3C158.058 619.555 161.108 634.81 153.387 643.953C149.816 648.178 144.07 649.329 138.844 647.979C133.073 646.481 128.783 641.962 125.897 636.94C120.368 627.287 117.057 609.668 127.413 601.876C132.319 598.188 139.13 597.911 144.677 600.24C151.471 603.089 156.238 609.971 160.562 615.642C165.511 622.135 170.364 629.806 170.572 638.222C170.754 645.667 166.291 651.736 160.216 655.641C146.133 664.688 129.771 659.173 119.596 647.044C110.861 636.654 105.574 621.789 107.307 608.179C108.963 595.193 119.865 580.293 134.546 585.219C141.956 587.704 147.701 593.877 152.468 599.755C159.592 608.563 166.305 617.683 172.609 627.114C184.178 644.429 195.245 662.974 202.863 682.402C206.59 691.925 209.233 701.778 209.675 711.994C209.788 714.591 205.749 715.319 205.636 712.687C204.77 692.583 195.419 674.264 185.894 656.966C176.236 639.384 165.18 622.606 152.832 606.794C147.831 600.405 142.554 593.184 134.927 589.747C126.841 586.102 119.492 590.44 115.133 597.487C107.957 609.097 111.086 624.612 117.109 635.997C124.146 649.312 138.888 660.974 154.375 654.083C161.706 650.827 167.496 644.42 166.213 635.971C164.93 627.521 159.106 620.118 153.742 613.729C149.235 608.361 144.686 602.673 136.998 602.76C129.823 602.846 125.619 608.396 124.995 615.114C124.025 625.616 129.173 642.923 141.626 644.299C154.973 645.771 155.007 627.425 152.026 618.802C149.331 611.01 143.23 604.327 137.752 598.309C131.565 591.522 125.446 584.847 120.099 577.358C96.015 543.593 73.2224 508.78 49.8317 474.513C39.1981 458.929 27.8364 443.656 18.6327 427.163C13.9247 418.969 10.193 410.252 7.51373 401.19C5.20847 393 4.57584 384.741 4.65381 376.247C4.80981 359.798 5.69379 338.846 -12.8957 331.582C-20.6954 328.543 -29.3618 329.807 -37.3089 331.522C-47.8386 333.807 -58.2469 336.595 -68.8893 338.378C-78.6297 339.939 -88.4931 340.603 -98.3551 340.361C-107.368 340.214 -116.555 340.041 -125.507 339.391C-132.579 338.881 -141.106 337.876 -145.544 331.712C-147.624 328.846 -149.01 325.496 -150.665 322.37C-153.081 317.753 -155.392 313.092 -157.599 308.388C-166.161 290.016 -173.415 270.935 -178.216 251.247C-180.461 242.044 -182.723 232.33 -183.104 222.832C-183.399 215.439 -180.218 209.647 -176.171 203.664C-172.314 197.915 -167.756 191.613 -160.701 189.812C-160.26 189.739 -159.807 189.812 -159.41 190.018C-159.014 190.224 -158.694 190.552 -158.5 190.955C-155.952 196.149 -155.033 201.794 -154.115 207.404C-152.984 213.996 -151.5 220.521 -149.669 226.954C-145.786 241.022 -141.219 254.901 -136.34 268.649C-131.625 281.921 -126.582 295.073 -122.24 308.475C-120.446 314.016 -119.371 320.215 -116.884 325.487C-116.291 326.489 -115.621 327.444 -114.882 328.344L-113.842 328.959L-115.229 329.911C-115.229 329.911 -115.532 328.595 -115.48 328.699C-116.511 326.647 -117.213 324.197 -118.08 322.076C-123.41 308.994 -128.766 295.912 -133.879 282.744C-138.671 270.398 -142.883 257.862 -147.45 245.438C-153.309 229.499 -162.928 211.456 -158.717 193.976C-156.411 184.453 -149.548 178.037 -141.47 172.973C-130.1 165.847 -117.49 160.324 -105.557 154.211C-92.9732 147.77 -80.4243 141.225 -67.7107 135.069C-61.3553 131.987 -54.9595 129.046 -48.5232 126.247C-45.5507 124.957 -41.7028 122.273 -38.3055 123.459C-34.1457 124.914 -34.1544 130.775 -34.033 134.342C-33.7904 141.372 -32.1611 148.004 -30.4538 154.817C-26.9872 168.67 -23.1047 182.384 -18.9621 196.037C-10.5904 223.603 -1.05734 250.719 8.77036 277.8C10.235 281.835 10.9716 286.12 12.6962 290.068C13.0802 291.076 13.596 292.028 14.2302 292.899C14.5335 293.28 16.4748 294.423 16.5008 294.631C16.4984 294.734 16.4718 294.834 16.423 294.925C16.3742 295.015 16.3047 295.092 16.2201 295.151C16.1355 295.209 16.0383 295.246 15.9365 295.26C15.8346 295.273 15.731 295.263 15.6341 295.228C15.5475 295.185 15.5561 294.579 15.4955 294.475C15.1887 293.713 14.9311 292.932 14.7242 292.138C10.5556 281.393 5.19113 271.047 0.74527 260.398C-10.1314 234.36 -19.4129 207.686 -27.0479 180.522C-30.5578 167.977 -35.4196 155.276 -37.4043 142.428C-38.6869 134.082 -39.2242 122.325 -28.8852 120.386C-16.2409 118.022 -3.17197 117.044 9.61099 115.624C24.0897 114.019 38.577 112.49 53.073 111.035C82.1921 108.135 111.268 105.295 140.214 100.923C154.507 98.7643 168.755 96.343 182.956 93.6591C195.705 91.2523 208.687 89.0879 221.167 85.5295C230.128 82.9322 240.137 79.3999 249.532 81.6336C258.033 83.6595 262.869 91.2436 265.937 98.8797C269.404 107.537 271.215 116.862 273.98 125.797C278.209 139.484 282.247 153.242 286.364 166.964C287.231 169.761 287.863 172.574 288.591 175.397C288.864 176.991 289.413 178.526 290.212 179.933C291.382 181.613 292.205 181.336 293.895 180.73C296.937 179.648 303.567 178.133 303.229 174.15C302.977 171.18 301.547 168.09 300.707 165.215L297.57 154.661C295.547 147.862 293.525 141.06 291.503 134.255C287.785 121.658 285.289 108.611 280.947 96.2132C279.136 91.0185 276.744 82.534 271.492 79.8847C267.835 78.0406 262.237 79.0189 258.588 80.6293C258.302 80.7505 255.988 82.153 256.361 81.0621C257.095 80.7245 257.851 80.4353 258.623 80.1964C261.387 78.9583 264.013 77.4519 266.717 76.0666C268.633 75.0923 270.621 74.2646 272.662 73.5905C272.099 73.781 272.056 75.0277 271.796 73.1403C271.724 72.4325 271.831 71.718 272.108 71.0625C272.325 70.412 272.687 69.8189 273.165 69.3272C273.644 68.8356 274.227 68.4581 274.872 68.2227C277.793 66.976 281.225 66.3267 284.267 65.357C290.948 63.2186 297.639 61.0974 304.269 58.8031C317.044 54.4488 329.415 48.9881 341.24 42.4833C352.003 36.4748 361.64 29.1244 371.355 21.5749C380.828 14.2245 390.855 7.40219 400.682 0.536616C402.494 -0.727412 405.137 1.2985 403.672 3.28112C401.679 5.99098 400.266 9.04716 398.048 11.5925C395.445 14.4931 392.66 17.2258 389.711 19.7741C384.39 24.5012 378.964 29.1158 373.47 33.6265C362.204 42.9249 350.374 52.4657 344.68 66.3786C332.383 96.4123 349.559 128.905 377.405 142.567C391.357 149.432 406.81 152.22 422.201 153.138C426.222 153.38 430.244 153.501 434.265 153.545C438.451 153.588 443.053 154.047 447.204 153.415C451.355 152.783 450.67 151.804 449.934 149.086C444.968 131.658 439.231 114.455 433.701 97.1395C426.534 74.8546 419.107 52.6215 411.923 30.3019C410.328 25.3439 408.742 20.383 407.165 15.4193C406.602 13.7656 406.108 12.1207 405.57 10.467C405.345 9.78307 405.128 9.09045 404.894 8.41515C404.66 7.73985 404.322 6.96065 404.149 6.25937C403.924 5.31568 403.655 2.05172 404.062 5.71394C404.426 8.99522 406.506 12.4583 407.754 15.4712C409.291 19.1825 410.736 22.9342 412.087 26.7262C414.809 34.2585 417.504 41.808 420.121 49.3489C429.906 77.7203 438.667 106.403 448.382 134.749C449.856 139.078 451.346 143.337 452.932 147.597C454.033 150.558 455.87 153.718 456 156.904C456.399 166.86 440.973 164.046 434.646 164.28C417.443 164.904 400.214 162.28 383.029 163.51C366.043 164.722 349.629 170.834 333.969 177.154C327.85 179.622 321.489 183.284 314.651 182.816C308.905 182.427 303.783 177.501 297.916 178.99C294.675 179.812 293.687 182.132 292.266 184.816C291.074 187.244 289.251 189.307 286.988 190.79C280.315 195.05 272.524 198.106 265.322 201.283C234.894 214.634 203.712 226.261 173.597 240.33C158.782 247.217 144.357 254.911 130.386 263.377C123.574 267.515 116.832 271.775 110.289 276.363C104.465 280.406 99.0223 285.021 93.2158 289.012C79.9822 298.042 65.206 303.73 50.2217 309.098C34.4749 314.752 18.4594 320.249 3.17184 327.046C-0.563385 328.708 -8.96109 334.093 -12.5663 329.47C-15.7209 325.409 -9.60242 321.799 -6.65582 320.552C0.667297 317.47 8.81366 315.669 16.4748 313.626C24.7252 311.436 33.0363 309.436 41.2867 307.263C49.7966 305.138 58.1717 302.507 66.3672 299.384C72.1564 297.09 77.3909 293.8 83.0501 291.332C85.8147 290.12 90.0265 289.506 90.6505 293.505C90.7802 294.726 90.4732 295.953 89.7839 296.969C88.4437 299.471 87.2318 302.04 86.1526 304.665C80.4415 319.47 86.066 335.946 91.9851 349.781C95.295 357.556 99.4881 364.926 104.482 371.745C108.876 377.728 113.798 383.451 116.988 390.212C121.321 399.493 121.91 413.761 112.083 420.03C108.027 422.627 103.069 418.376 100.816 415.095C97.8783 410.766 96.197 405.744 94.3597 400.887C91.9138 394.666 89.9919 388.251 88.6139 381.71C87.7473 377.208 87.5913 373.053 89.3592 368.724C90.5812 365.746 93.4671 362.793 96.5003 365.702C98.4156 367.538 98.8663 370.031 99.1003 372.481C99.4989 376.611 101.276 380.576 102.766 384.446C104.889 389.953 107.247 398.247 112.117 401.969C113.98 403.398 116.008 403.995 117.395 406.03C119.198 408.688 118.53 411.017 118.331 413.995C117.854 420.999 123.271 427.553 127.647 432.419C132.847 438.167 138.567 443.362 143.689 449.163C147.736 453.743 151.393 459.102 151.619 465.396C151.809 470.114 149.981 475.309 145.743 478.149C136.262 484.426 127.691 475.309 123.21 467.604C117.326 457.405 110.765 444.427 114.544 432.471C114.692 432.1 114.944 431.779 115.27 431.548C115.597 431.317 115.983 431.186 116.383 431.169C116.782 431.153 117.178 431.252 117.522 431.455C117.866 431.659 118.144 431.957 118.322 432.315L118.374 432.445L116.173 431.302C118.435 430.739 118.773 428.912 121.416 430.436C124.06 431.96 125.333 435.103 126.408 437.674C129.355 444.713 131.608 451.725 135.941 458.115C137.232 459.985 138.636 461.89 140.69 462.972C142.172 463.751 143.88 464.106 145.24 465.136C148.949 467.924 147.606 471.915 148.585 475.811C149.755 480.469 153.985 485.162 156.715 489.04C159.938 493.612 163.327 498.062 166.56 502.633C176.76 517.039 187.463 535.87 182.74 554.25C178.528 570.639 161.178 578.085 146.644 583.003C143.741 583.981 139.824 586.041 137.111 583.479C134.121 580.613 136.634 577.28 140.11 577.037C145.648 576.639 150.856 576.501 156.29 575.011C162.554 573.222 168.518 570.515 173.987 566.977C174.479 566.746 175.042 566.719 175.554 566.903C176.066 567.086 176.484 567.465 176.717 567.955C187.298 598.664 200.463 628.438 209.97 659.511C214.476 674.229 218.22 689.034 219.087 704.471C219.953 719.284 219.087 734.123 219.806 748.937C220.595 765.681 223.671 782.407 233.178 796.554C234.634 798.727 231.514 801.376 230.041 799.151L230.136 799.186Z" fill="#402B1D"/>
</g>
<defs>
<clipPath id="clip0_497:2">
<rect width="639" height="800" fill="white" transform="matrix(-1 0 0 1 456 0)"/>
</clipPath>
</defs>
</svg>
