<svg width="80" height="80" viewBox="0 0 80 80" fill="none" xmlns="http://www.w3.org/2000/svg">
<path d="M21.6665 31.6601V47.1902C21.6665 48.074 21.3153 48.9217 20.6902 49.5467C20.0651 50.1717 19.2172 50.5228 18.3332 50.5228C17.4491 50.5228 16.6013 50.1717 15.9762 49.5467C15.351 48.9217 14.9998 48.074 14.9998 47.1902M14.9998 47.1902V31.6601M14.9998 47.1902C14.9998 48.074 14.6487 48.9217 14.0235 49.5467C13.3984 50.1717 12.5506 50.5228 11.6665 50.5228C10.7825 50.5228 9.93461 50.1717 9.30948 49.5467C8.68436 48.9217 8.33317 48.074 8.33317 47.1902V31.6601V43.8409C8.33317 44.7247 7.98199 45.5724 7.35686 46.1974C6.73174 46.8224 5.8839 47.1735 4.99984 47.1735C4.11579 47.1735 3.26794 46.8224 2.64282 46.1974C2.0177 45.5724 1.66651 44.7247 1.66651 43.8409V28.6274C1.66411 23.0957 2.79869 17.6225 4.99984 12.5474V0M21.6665 43.3243V46.557C21.6665 47.4408 22.0177 48.2885 22.6428 48.9135C23.2679 49.5385 24.1158 49.8896 24.9998 49.8896C25.8839 49.8896 26.7317 49.5385 27.3569 48.9135C27.982 48.2885 28.3332 47.4408 28.3332 46.557V28.2275C28.3368 27.6013 28.5885 27.0021 29.0332 26.5611C29.4764 26.1215 30.0755 25.8749 30.6998 25.8749C31.3242 25.8749 31.9232 26.1215 32.3665 26.5611L35.6998 29.7105C36.1913 30.1881 36.7534 30.5872 37.3665 30.8936C38.072 31.2447 38.8791 31.3346 39.6445 31.1473C40.41 30.9599 41.0843 30.5075 41.5478 29.8703C42.0113 29.2331 42.2341 28.4524 42.1764 27.6666C42.1188 26.8808 41.7847 26.1408 41.2332 25.578L26.6665 10.3978V0M58.3332 31.6601V47.1902C58.3332 48.074 58.6844 48.9217 59.3095 49.5467C59.9346 50.1717 60.7825 50.5228 61.6665 50.5228C62.5506 50.5228 63.3984 50.1717 64.0235 49.5467C64.6487 48.9217 64.9998 48.074 64.9998 47.1902M64.9998 47.1902V31.6601M64.9998 47.1902C64.9998 48.074 65.351 48.9217 65.9762 49.5467C66.6013 50.1717 67.4491 50.5228 68.3332 50.5228C69.2172 50.5228 70.0651 50.1717 70.6902 49.5467C71.3153 48.9217 71.6665 48.074 71.6665 47.1902V31.6601V43.8575C71.6665 44.7414 72.0177 45.5891 72.6428 46.2141C73.2679 46.839 74.1158 47.1902 74.9998 47.1902C75.8839 47.1902 76.7317 46.839 77.3569 46.2141C77.982 45.5891 78.3332 44.7414 78.3332 43.8575V28.6274C78.3356 23.0957 77.201 17.6225 74.9998 12.5474V0M58.3332 43.3243V46.557C58.3332 47.4408 57.982 48.2885 57.3569 48.9135C56.7317 49.5385 55.8839 49.8896 54.9998 49.8896C54.1158 49.8896 53.2679 49.5385 52.6428 48.9135C52.0177 48.2885 51.6665 47.4408 51.6665 46.557V28.2275C51.6629 27.6013 51.4112 27.0021 50.9665 26.5611C50.5232 26.1215 49.9242 25.8749 49.2998 25.8749C48.6755 25.8749 48.0764 26.1215 47.6332 26.5611L44.2998 29.7105C43.8084 30.1881 43.2463 30.5872 42.6332 30.8936C42.1161 31.1835 41.526 31.3173 40.9344 31.2788C40.3428 31.2404 39.7751 31.0313 39.2998 30.6769M40.2498 24.0117L53.3332 10.3978V0M53.3332 72.5849V78.317M37.1498 77.8671C39.1938 78.4794 41.3725 78.4794 43.4165 77.8671C48.2219 76.424 52.5434 73.6992 55.9165 69.9854C59.3683 66.1535 61.6777 61.4317 62.5832 56.3549L62.8165 55.0552M26.6665 78.317V72.5849L24.0832 69.7188C20.6314 65.8869 18.322 61.1651 17.4165 56.0883L17.1832 54.7886M43.6332 39.1585C44.2343 40.2007 45.1064 41.0607 46.1568 41.6474C47.2073 42.2342 48.397 42.5257 49.5998 42.4911C50.2414 42.4909 50.8801 42.4069 51.4998 42.2412M28.4832 42.2412C29.1029 42.4069 29.7417 42.4909 30.3832 42.4911C31.586 42.5257 32.7757 42.2342 33.8262 41.6474C34.8766 41.0607 35.7487 40.2007 36.3498 39.1585M53.0165 6.31535C49.3426 3.31313 44.7448 1.67095 39.9998 1.66632C35.1952 1.65497 30.5377 3.32306 26.8332 6.382M33.6832 60.1541C35.6436 61.1379 37.8063 61.6514 39.9998 61.6538C42.192 61.6565 44.3547 61.1488 46.3165 60.1708M39.9998 46.6569V53.3222" stroke="#C28566" stroke-width="1.5" stroke-miterlimit="10"/>
</svg>
