<svg width="80" height="80" viewBox="0 0 80 80" fill="none" xmlns="http://www.w3.org/2000/svg">
<path d="M0 68.3346H53.3333M49.5833 60.8346H53.3333C53.3312 62.5101 53.4706 64.1827 53.75 65.8346L54.7333 71.6013C54.8104 72.2052 55.1053 72.7602 55.5625 73.1622C56.0197 73.5642 56.6079 73.7855 57.2167 73.7846H76.25L78.3333 71.2513V68.7513M33.4333 55.718C32.8085 55.7949 32.1796 55.8338 31.55 55.8346C30.4691 55.8354 29.3911 55.7237 28.3333 55.5013L25 54.7846C24.326 54.642 23.639 54.5694 22.95 54.568C20.6213 54.5626 18.3637 55.3702 16.5667 56.8513C16.0768 57.2795 15.5117 57.613 14.9 57.8346L14.0833 58.1013C13.6207 58.2537 13.137 58.3324 12.65 58.3346H5.83333M47.35 54.0346L51.6667 53.518C52.7778 53.3957 53.95 53.3346 55.1833 53.3346H56.6667C57.9927 53.3346 59.2645 53.8614 60.2022 54.7991C61.1399 55.7368 61.6667 57.0086 61.6667 58.3346V66.668H72.25C73.7363 66.6997 75.1814 66.1786 76.3054 65.2055C77.4293 64.2325 78.152 62.8768 78.3333 61.4013C78.4126 60.589 78.3206 59.7691 78.0631 58.9946C77.8057 58.2201 77.3886 57.5083 76.8388 56.9051C76.289 56.3019 75.6188 55.8208 74.8714 55.4928C74.124 55.1649 73.3162 54.9974 72.5 55.0013H70.1667C69.2594 55.0019 68.3649 55.2148 67.5546 55.6228C66.7443 56.0309 66.0407 56.6228 65.5 57.3513C65.2553 57.7004 64.9314 57.9867 64.5548 58.1866C64.1782 58.3864 63.7596 58.4943 63.3333 58.5013H62M0 58.3346H10M13.3333 58.3346V67.5013M28.3333 55.8346V68.3346M45 58.3346L54.2833 35.118C54.7566 33.936 54.9999 32.6745 55 31.4013V30.468C55.001 29.4666 54.7012 28.488 54.1396 27.6589C53.578 26.8298 52.7803 26.1885 51.85 25.818L43.3333 22.0846M36.6667 22.0846L28.15 25.8346C27.2223 26.2041 26.4265 26.8429 25.8651 27.6687C25.3037 28.4944 25.0024 29.4694 25 30.468V31.4013C25.0001 32.6745 25.2434 33.936 25.7167 35.118L35 58.3346M40 58.3346V52.0846M40 52.0846L33.3333 35.0013M40 52.0846L46.6667 35.0013M32.75 23.3346C33.2633 24.8348 34.245 26.1304 35.5502 27.0306C36.8555 27.9308 38.4153 28.3879 40 28.3346C41.5841 28.3852 43.1428 27.9271 44.4475 27.0272C45.7522 26.1274 46.7344 24.8333 47.25 23.3346M60 80.0013V75.0013H0M66.6667 80.0013V73.7513M40 1.66797C38.2319 1.66797 36.5362 2.37035 35.286 3.62059C34.0357 4.87083 33.3333 6.56653 33.3333 8.33464V11.668C33.3333 13.4361 34.0357 15.1318 35.286 16.382C36.5362 17.6323 38.2319 18.3346 40 18.3346C41.7681 18.3346 43.4638 17.6323 44.714 16.382C45.9643 15.1318 46.6667 13.4361 46.6667 11.668V8.33464C46.6667 6.56653 45.9643 4.87083 44.714 3.62059C43.4638 2.37035 41.7681 1.66797 40 1.66797Z" stroke="#C28566" stroke-width="1.5" stroke-miterlimit="10"/>
</svg>
