<?xml version="1.0" standalone="no"?>
<!DOCTYPE svg PUBLIC "-//W3C//DTD SVG 20010904//EN"
 "http://www.w3.org/TR/2001/REC-SVG-20010904/DTD/svg10.dtd">
<svg version="1.0" xmlns="http://www.w3.org/2000/svg"
 width="58.000000pt" height="58.000000pt" viewBox="0 0 58.000000 58.000000"
 preserveAspectRatio="xMidYMid meet">

<g transform="translate(0.000000,58.000000) scale(0.100000,-0.100000)"
fill="#000000" stroke="none">
<path d="M90 558 c-33 -17 -51 -35 -67 -68 -21 -40 -23 -58 -23 -200 0 -142 2
-160 23 -200 16 -33 34 -51 67 -68 40 -20 58 -22 200 -22 142 0 160 2 200 22
33 17 51 35 68 68 20 40 22 58 22 200 0 142 -2 160 -22 200 -17 33 -35 51 -68
68 -40 20 -58 22 -200 22 -142 0 -160 -2 -200 -22z m385 -52 c45 -29 50 -51
50 -216 0 -231 -5 -235 -235 -235 -214 0 -225 8 -236 163 -4 48 -3 123 1 166
12 132 41 147 267 142 97 -3 134 -8 153 -20z"/>
<path d="M414 466 c-12 -31 0 -51 31 -51 27 0 30 3 30 30 0 25 -4 30 -28 33
-17 2 -29 -2 -33 -12z"/>
<path d="M222 424 c-131 -67 -94 -265 52 -281 115 -13 200 106 151 211 -35 73
-131 106 -203 70z m133 -69 c19 -18 25 -35 25 -65 0 -56 -34 -90 -90 -90 -30
0 -47 6 -65 25 -19 18 -25 35 -25 65 0 56 34 90 90 90 30 0 47 -6 65 -25z"/>
</g>
</svg>
